G75*
%MOIN*%
%OFA0B0*%
%FSLAX24Y24*%
%IPPOS*%
%LPD*%
%AMOC8*
5,1,8,0,0,1.08239X$1,22.5*
%
%ADD10OC8,0.0600*%
%ADD11C,0.0520*%
%ADD12C,0.0600*%
%ADD13OC8,0.0520*%
%ADD14R,0.0740X0.0740*%
%ADD15C,0.0740*%
%ADD16C,0.2000*%
%ADD17OC8,0.0560*%
%ADD18C,0.0560*%
%ADD19OC8,0.0630*%
%ADD20C,0.0630*%
%ADD21C,0.0520*%
%ADD22C,0.0200*%
%ADD23C,0.0400*%
%ADD24C,0.0160*%
%ADD25C,0.0100*%
D10*
X003680Y039150D03*
X003680Y040150D03*
X004680Y040150D03*
X004680Y039150D03*
X005680Y039150D03*
X005680Y040150D03*
X006680Y040150D03*
X006680Y039150D03*
X007680Y039150D03*
X007680Y040150D03*
X008680Y040150D03*
X008680Y039150D03*
X009680Y039150D03*
X009680Y040150D03*
X010680Y040150D03*
X010680Y039150D03*
X011680Y039150D03*
X011680Y040150D03*
X012680Y040150D03*
X012680Y039150D03*
X013680Y039150D03*
X013680Y040150D03*
X014680Y040150D03*
X014680Y039150D03*
X015680Y039150D03*
X015680Y040150D03*
X016680Y040150D03*
X016680Y039150D03*
X017680Y039150D03*
X017680Y040150D03*
X018680Y040150D03*
X018680Y039150D03*
X019680Y039150D03*
X019680Y040150D03*
X020680Y040150D03*
X020680Y039150D03*
X021680Y039150D03*
X021680Y040150D03*
X022680Y040150D03*
X022680Y039150D03*
X025680Y039150D03*
X025680Y040150D03*
X026680Y040150D03*
X026680Y039150D03*
X027680Y039150D03*
X027680Y040150D03*
X028680Y040150D03*
X028680Y039150D03*
X029680Y039150D03*
X029680Y040150D03*
X030680Y040150D03*
X030680Y039150D03*
X031680Y039150D03*
X031680Y040150D03*
X032680Y040150D03*
X032680Y039150D03*
X033680Y039150D03*
X033680Y040150D03*
X034680Y040150D03*
X034680Y039150D03*
X035680Y039150D03*
X035680Y040150D03*
X036680Y040150D03*
X036680Y039150D03*
D11*
X032180Y030410D02*
X032180Y029890D01*
X031180Y029890D02*
X031180Y030410D01*
X030180Y030410D02*
X030180Y029890D01*
X029180Y029890D02*
X029180Y030410D01*
X028180Y030410D02*
X028180Y029890D01*
X027180Y029890D02*
X027180Y030410D01*
X026180Y030410D02*
X026180Y029890D01*
X025180Y029890D02*
X025180Y030410D01*
X023180Y030390D02*
X023180Y030910D01*
X022180Y030910D02*
X022180Y030390D01*
X021180Y030390D02*
X021180Y030910D01*
X020180Y030910D02*
X020180Y030390D01*
X019180Y030390D02*
X019180Y030910D01*
X018180Y030910D02*
X018180Y030390D01*
X017180Y030390D02*
X017180Y030910D01*
X016180Y030910D02*
X016180Y030390D01*
X015180Y030390D02*
X015180Y030910D01*
X014180Y030910D02*
X014180Y030390D01*
X013180Y030390D02*
X013180Y030910D01*
X012180Y030910D02*
X012180Y030390D01*
X011180Y030390D02*
X011180Y030910D01*
X010180Y030910D02*
X010180Y030390D01*
X009180Y030390D02*
X009180Y030910D01*
X008180Y030910D02*
X008180Y030390D01*
X007180Y030390D02*
X007180Y030910D01*
X006180Y030910D02*
X006180Y030390D01*
X005180Y030390D02*
X005180Y030910D01*
X004180Y030910D02*
X004180Y030390D01*
X004180Y036390D02*
X004180Y036910D01*
X005180Y036910D02*
X005180Y036390D01*
X006180Y036390D02*
X006180Y036910D01*
X007180Y036910D02*
X007180Y036390D01*
X008180Y036390D02*
X008180Y036910D01*
X009180Y036910D02*
X009180Y036390D01*
X010180Y036390D02*
X010180Y036910D01*
X011180Y036910D02*
X011180Y036390D01*
X012180Y036390D02*
X012180Y036910D01*
X013180Y036910D02*
X013180Y036390D01*
X014180Y036390D02*
X014180Y036910D01*
X015180Y036910D02*
X015180Y036390D01*
X016180Y036390D02*
X016180Y036910D01*
X017180Y036910D02*
X017180Y036390D01*
X018180Y036390D02*
X018180Y036910D01*
X019180Y036910D02*
X019180Y036390D01*
X020180Y036390D02*
X020180Y036910D01*
X021180Y036910D02*
X021180Y036390D01*
X022180Y036390D02*
X022180Y036910D01*
X023180Y036910D02*
X023180Y036390D01*
X025180Y027410D02*
X025180Y026890D01*
X026180Y026890D02*
X026180Y027410D01*
X027180Y027410D02*
X027180Y026890D01*
X028180Y026890D02*
X028180Y027410D01*
X029180Y027410D02*
X029180Y026890D01*
X030180Y026890D02*
X030180Y027410D01*
X031180Y027410D02*
X031180Y026890D01*
X032180Y026890D02*
X032180Y027410D01*
X032440Y024150D02*
X031920Y024150D01*
X030940Y024150D02*
X030420Y024150D01*
X030420Y023150D02*
X030940Y023150D01*
X031920Y023150D02*
X032440Y023150D01*
X032440Y022150D02*
X031920Y022150D01*
X030940Y022150D02*
X030420Y022150D01*
X030420Y021150D02*
X030940Y021150D01*
X031920Y021150D02*
X032440Y021150D01*
X032440Y020150D02*
X031920Y020150D01*
X030940Y020150D02*
X030420Y020150D01*
X030420Y019150D02*
X030940Y019150D01*
X031920Y019150D02*
X032440Y019150D01*
X032440Y018150D02*
X031920Y018150D01*
X030940Y018150D02*
X030420Y018150D01*
X030420Y017150D02*
X030940Y017150D01*
X031920Y017150D02*
X032440Y017150D01*
X032440Y016150D02*
X031920Y016150D01*
X030940Y016150D02*
X030420Y016150D01*
X030420Y015150D02*
X030940Y015150D01*
X031920Y015150D02*
X032440Y015150D01*
X032440Y014150D02*
X031920Y014150D01*
X030940Y014150D02*
X030420Y014150D01*
X030420Y013150D02*
X030940Y013150D01*
X031920Y013150D02*
X032440Y013150D01*
X032440Y012150D02*
X031920Y012150D01*
X030940Y012150D02*
X030420Y012150D01*
X030420Y011150D02*
X030940Y011150D01*
X031920Y011150D02*
X032440Y011150D01*
X032440Y010150D02*
X031920Y010150D01*
X030940Y010150D02*
X030420Y010150D01*
X030420Y009150D02*
X030940Y009150D01*
X031920Y009150D02*
X032440Y009150D01*
X037920Y009150D02*
X038440Y009150D01*
X038440Y010150D02*
X037920Y010150D01*
X037920Y011150D02*
X038440Y011150D01*
X038440Y012150D02*
X037920Y012150D01*
X037920Y013150D02*
X038440Y013150D01*
X038440Y014150D02*
X037920Y014150D01*
X037920Y015150D02*
X038440Y015150D01*
X038440Y016150D02*
X037920Y016150D01*
X037920Y017150D02*
X038440Y017150D01*
X038440Y018150D02*
X037920Y018150D01*
X037920Y019150D02*
X038440Y019150D01*
X038440Y020150D02*
X037920Y020150D01*
X037920Y021150D02*
X038440Y021150D01*
X038440Y022150D02*
X037920Y022150D01*
X037920Y023150D02*
X038440Y023150D01*
X038440Y024150D02*
X037920Y024150D01*
X024940Y024150D02*
X024420Y024150D01*
X024420Y023150D02*
X024940Y023150D01*
X024940Y022150D02*
X024420Y022150D01*
X024420Y021150D02*
X024940Y021150D01*
X024940Y020150D02*
X024420Y020150D01*
X024420Y019150D02*
X024940Y019150D01*
X024940Y018150D02*
X024420Y018150D01*
X024420Y017150D02*
X024940Y017150D01*
X024940Y016150D02*
X024420Y016150D01*
X024420Y015150D02*
X024940Y015150D01*
X024940Y014150D02*
X024420Y014150D01*
X024420Y013150D02*
X024940Y013150D01*
X024940Y012150D02*
X024420Y012150D01*
X024420Y011150D02*
X024940Y011150D01*
X024940Y010150D02*
X024420Y010150D01*
X024420Y009150D02*
X024940Y009150D01*
D12*
X001980Y023650D02*
X001380Y023650D01*
X001380Y024650D02*
X001980Y024650D01*
X001980Y025650D02*
X001380Y025650D01*
X001380Y026650D02*
X001980Y026650D01*
X001980Y027650D02*
X001380Y027650D01*
X001380Y028650D02*
X001980Y028650D01*
X001980Y031150D02*
X001380Y031150D01*
X001380Y032150D02*
X001980Y032150D01*
X001980Y033150D02*
X001380Y033150D01*
X001380Y034150D02*
X001980Y034150D01*
X001980Y035150D02*
X001380Y035150D01*
X001380Y036150D02*
X001980Y036150D01*
D13*
X009180Y029650D03*
X012180Y029650D03*
X013180Y029400D03*
X014180Y029400D03*
X024180Y029650D03*
X024180Y028650D03*
X024180Y027150D03*
X024180Y026150D03*
X025680Y026150D03*
X026680Y026150D03*
X028180Y026150D03*
X029180Y026150D03*
X030680Y026150D03*
X031680Y026150D03*
X027180Y037150D03*
X026180Y037150D03*
X012930Y010650D03*
X012930Y009650D03*
X015180Y008650D03*
X016180Y008650D03*
X024680Y008150D03*
X025680Y008150D03*
X032180Y008150D03*
X033180Y008150D03*
X005680Y008650D03*
X004680Y008650D03*
X002680Y009650D03*
X002680Y010650D03*
D14*
X036621Y033831D03*
D15*
X036621Y032741D03*
X037739Y033284D03*
X037739Y032193D03*
X036621Y031650D03*
X036621Y030559D03*
X037739Y030016D03*
X036621Y029469D03*
X037739Y031107D03*
X021180Y024650D03*
X021180Y023650D03*
X021180Y022650D03*
X021180Y021650D03*
X021180Y020650D03*
X021180Y019650D03*
X021180Y018650D03*
X021180Y017650D03*
X021180Y016650D03*
X021180Y015650D03*
X021180Y014650D03*
X021180Y013650D03*
X021180Y012650D03*
X021180Y011650D03*
X021180Y010650D03*
X021180Y009650D03*
X015180Y009650D03*
X015180Y010650D03*
X015180Y011650D03*
X015180Y012650D03*
X015180Y013650D03*
X015180Y014650D03*
X015180Y015650D03*
X015180Y016650D03*
X015180Y017650D03*
X015180Y018650D03*
X015180Y019650D03*
X015180Y020650D03*
X015180Y021650D03*
X015180Y022650D03*
X015180Y023650D03*
X015180Y024650D03*
X010680Y024650D03*
X010680Y023650D03*
X010680Y022650D03*
X010680Y021650D03*
X010680Y020650D03*
X010680Y019650D03*
X010680Y018650D03*
X010680Y017650D03*
X010680Y016650D03*
X010680Y015650D03*
X010680Y014650D03*
X010680Y013650D03*
X010680Y012650D03*
X010680Y011650D03*
X010680Y010650D03*
X010680Y009650D03*
X004680Y009650D03*
X004680Y010650D03*
X004680Y011650D03*
X004680Y012650D03*
X004680Y013650D03*
X004680Y014650D03*
X004680Y015650D03*
X004680Y016650D03*
X004680Y017650D03*
X004680Y018650D03*
X004680Y019650D03*
X004680Y020650D03*
X004680Y021650D03*
X004680Y022650D03*
X004680Y023650D03*
X004680Y024650D03*
D16*
X037180Y026729D03*
X037180Y036571D03*
D17*
X034680Y036650D03*
X034680Y035650D03*
X033680Y035650D03*
X033680Y036650D03*
X033680Y033150D03*
X034680Y033150D03*
X034680Y032150D03*
X033680Y032150D03*
X033680Y029650D03*
X034680Y029650D03*
X034680Y028650D03*
X033680Y028650D03*
X024680Y039150D03*
X024680Y040150D03*
X023680Y040150D03*
X023680Y039150D03*
D18*
X033680Y026930D02*
X033680Y026370D01*
X034680Y026370D02*
X034680Y026930D01*
D19*
X032180Y036650D03*
D20*
X031180Y036650D03*
D21*
X029180Y035150D03*
X026180Y035150D03*
X026180Y032150D03*
X029180Y032150D03*
D22*
X031555Y032525D02*
X031555Y036275D01*
X031180Y036650D01*
X032055Y036525D02*
X032180Y036650D01*
X032180Y039650D01*
X031680Y040150D01*
X032055Y036525D02*
X032055Y033400D01*
X032055Y032400D01*
X031680Y032025D01*
X031680Y026150D01*
X031680Y025150D01*
X031930Y024900D01*
X031680Y025150D02*
X030680Y024150D01*
X026055Y028900D02*
X026055Y030025D01*
X026180Y030150D01*
X025305Y030275D02*
X025305Y035025D01*
X026180Y035150D02*
X026180Y037150D01*
X023930Y038150D02*
X023180Y038900D01*
X023180Y039650D01*
X022680Y040150D01*
X023680Y040150D02*
X023680Y039150D01*
X024680Y032025D02*
X024680Y029150D01*
X024180Y028650D01*
X024180Y027150D01*
X021180Y026650D02*
X021180Y024650D01*
X025180Y030150D02*
X025305Y030275D01*
X033805Y030275D02*
X034180Y029900D01*
X034180Y009775D01*
X033180Y008150D02*
X032555Y007525D01*
X027180Y007525D01*
X032180Y008150D02*
X032180Y009150D01*
X016180Y008650D02*
X016180Y008150D01*
X015055Y008150D01*
X014680Y008525D01*
X014680Y008650D01*
X005680Y008650D01*
X004680Y009650D02*
X010055Y009650D01*
X010055Y009400D01*
X010430Y009025D01*
X012180Y009025D01*
X012180Y010275D01*
X012243Y010338D01*
X012180Y010400D01*
X012180Y029650D01*
X014180Y029400D02*
X014180Y027150D01*
X014180Y024775D01*
X013680Y031900D02*
X013180Y032400D01*
X013180Y036650D01*
X013180Y040400D01*
X012555Y041025D01*
X003680Y041025D01*
X003680Y040525D01*
X002930Y039775D01*
X002930Y031275D01*
X002243Y030588D01*
X002680Y030150D01*
X002680Y024650D01*
X001680Y023650D01*
X001805Y023650D01*
X002680Y022775D01*
X002680Y010650D01*
X012243Y010338D02*
X012930Y009650D01*
X012930Y010650D02*
X014680Y008900D01*
X014680Y008650D01*
X002243Y030588D02*
X001680Y031150D01*
X003680Y040150D02*
X003680Y040525D01*
D23*
X003180Y040650D03*
X006305Y038400D03*
X005555Y037400D03*
X004680Y036025D03*
X005430Y035525D03*
X006305Y035525D03*
X008305Y035775D03*
X009305Y034275D03*
X010055Y033025D03*
X011180Y033275D03*
X010305Y032025D03*
X009180Y031525D03*
X008055Y031525D03*
X007055Y032275D03*
X006305Y031650D03*
X005555Y032025D03*
X003805Y032025D03*
X002430Y031525D03*
X003555Y033775D03*
X003805Y034525D03*
X002305Y034650D03*
X005805Y029900D03*
X007055Y028275D03*
X007805Y029275D03*
X009555Y028775D03*
X009805Y027150D03*
X010180Y026150D03*
X011305Y025525D03*
X013430Y027400D03*
X014180Y027150D03*
X014930Y028150D03*
X016555Y028150D03*
X016555Y029150D03*
X016680Y029650D03*
X017930Y028900D03*
X018680Y029650D03*
X020430Y029525D03*
X020305Y026650D03*
X021180Y026650D03*
X021680Y025400D03*
X022930Y025025D03*
X023305Y025650D03*
X024180Y025525D03*
X024805Y026025D03*
X023680Y024650D03*
X021930Y023650D03*
X023180Y021650D03*
X025555Y020650D03*
X027305Y022275D03*
X025680Y023275D03*
X026305Y025400D03*
X025680Y028150D03*
X026055Y028900D03*
X023555Y028525D03*
X024680Y032025D03*
X023555Y033525D03*
X024680Y035525D03*
X025305Y035525D03*
X025305Y035025D03*
X027430Y035025D03*
X028805Y034275D03*
X028805Y033150D03*
X031555Y032525D03*
X032055Y033400D03*
X032555Y033900D03*
X032805Y035275D03*
X032680Y036275D03*
X030680Y037775D03*
X028180Y037650D03*
X025930Y037775D03*
X023930Y038150D03*
X023680Y040775D03*
X020805Y041150D03*
X020180Y040650D03*
X018305Y040650D03*
X018180Y038775D03*
X016805Y038275D03*
X017180Y037525D03*
X016305Y037525D03*
X015180Y037525D03*
X014055Y038025D03*
X015680Y036025D03*
X016805Y035650D03*
X017180Y035025D03*
X018305Y035775D03*
X018680Y035025D03*
X019305Y035025D03*
X020055Y035400D03*
X021055Y033775D03*
X021055Y032775D03*
X021555Y032775D03*
X019055Y032400D03*
X018680Y033400D03*
X018055Y033275D03*
X018055Y033775D03*
X015680Y033275D03*
X015305Y034525D03*
X014305Y035525D03*
X013680Y033275D03*
X014055Y032275D03*
X013680Y031900D03*
X014305Y031525D03*
X014930Y032150D03*
X016805Y031400D03*
X014555Y029900D03*
X013430Y028775D03*
X011430Y029025D03*
X014180Y024775D03*
X016555Y023775D03*
X017305Y023775D03*
X018055Y023525D03*
X016555Y022525D03*
X016930Y021650D03*
X017305Y020275D03*
X016555Y019150D03*
X016555Y018275D03*
X015930Y016150D03*
X016055Y015150D03*
X016555Y014150D03*
X019180Y013400D03*
X022305Y011275D03*
X023055Y011525D03*
X022930Y012150D03*
X023305Y013150D03*
X023305Y014025D03*
X023305Y017150D03*
X022930Y018275D03*
X020680Y020150D03*
X019305Y021150D03*
X018555Y021025D03*
X019305Y018150D03*
X012680Y013775D03*
X008430Y017275D03*
X007430Y018275D03*
X007805Y019775D03*
X007180Y020650D03*
X006680Y020400D03*
X008805Y021525D03*
X011680Y019650D03*
X005555Y025525D03*
X005805Y026775D03*
X003680Y025900D03*
X003305Y023275D03*
X002180Y011150D03*
X008055Y010150D03*
X018055Y007650D03*
X020430Y007650D03*
X022055Y009775D03*
X023430Y010775D03*
X026180Y008525D03*
X027180Y007525D03*
X033805Y007650D03*
X034180Y009775D03*
X027680Y017275D03*
X029055Y019275D03*
X029680Y023275D03*
X029930Y025025D03*
X031930Y024900D03*
X034680Y025650D03*
X032930Y028275D03*
X033805Y030275D03*
X030680Y028650D03*
X029555Y027900D03*
X029305Y029025D03*
X035805Y035025D03*
X035305Y035650D03*
X037305Y039150D03*
X039180Y038275D03*
X036805Y041150D03*
X039055Y025650D03*
X033555Y021025D03*
X037430Y019775D03*
X020555Y037400D03*
X020055Y038650D03*
X015930Y040900D03*
X012180Y037525D03*
X011555Y035775D03*
X010055Y038025D03*
X011180Y040525D03*
X018680Y025650D03*
D24*
X002447Y007137D02*
X002240Y006930D01*
X016720Y006930D01*
X016720Y007690D01*
X004718Y007690D01*
X003970Y008438D01*
X003970Y010237D01*
X004093Y010360D01*
X004187Y010454D01*
X004150Y010545D01*
X004150Y010755D01*
X004231Y010950D01*
X004380Y011099D01*
X004502Y011150D01*
X004380Y011201D01*
X004231Y011350D01*
X004150Y011545D01*
X004150Y011755D01*
X004231Y011950D01*
X004380Y012099D01*
X004502Y012150D01*
X004380Y012201D01*
X004231Y012350D01*
X004150Y012545D01*
X004150Y012755D01*
X004231Y012950D01*
X004380Y013099D01*
X004502Y013150D01*
X004380Y013201D01*
X004231Y013350D01*
X004150Y013545D01*
X004150Y013755D01*
X004231Y013950D01*
X004380Y014099D01*
X004502Y014150D01*
X004380Y014201D01*
X004231Y014350D01*
X004150Y014545D01*
X004150Y014755D01*
X004231Y014950D01*
X004380Y015099D01*
X004502Y015150D01*
X004380Y015201D01*
X004231Y015350D01*
X004150Y015545D01*
X004150Y015755D01*
X004231Y015950D01*
X004380Y016099D01*
X004502Y016150D01*
X004380Y016201D01*
X004231Y016350D01*
X004150Y016545D01*
X004150Y016755D01*
X004231Y016950D01*
X004380Y017099D01*
X004502Y017150D01*
X004380Y017201D01*
X004231Y017350D01*
X004150Y017545D01*
X004150Y017755D01*
X004231Y017950D01*
X004380Y018099D01*
X004502Y018150D01*
X004380Y018201D01*
X004231Y018350D01*
X004150Y018545D01*
X004150Y018755D01*
X004231Y018950D01*
X004380Y019099D01*
X004502Y019150D01*
X004380Y019201D01*
X004231Y019350D01*
X004150Y019545D01*
X004150Y019755D01*
X004226Y019940D01*
X004093Y019940D01*
X003970Y020063D01*
X003970Y022237D01*
X004187Y022454D01*
X004150Y022545D01*
X004150Y022755D01*
X004231Y022950D01*
X004380Y023099D01*
X004502Y023150D01*
X004380Y023201D01*
X004231Y023350D01*
X004150Y023545D01*
X004150Y023755D01*
X004231Y023950D01*
X004380Y024099D01*
X004502Y024150D01*
X004380Y024201D01*
X004231Y024350D01*
X004150Y024545D01*
X004150Y024755D01*
X004231Y024950D01*
X004380Y025099D01*
X004470Y025137D01*
X004470Y030086D01*
X004418Y030034D01*
X004264Y029970D01*
X004096Y029970D01*
X003942Y030034D01*
X003890Y030086D01*
X003890Y026199D01*
X003985Y026104D01*
X004040Y025972D01*
X004040Y025828D01*
X003985Y025696D01*
X003884Y025595D01*
X003752Y025540D01*
X003608Y025540D01*
X003515Y025579D01*
X003515Y023574D01*
X003610Y023479D01*
X003665Y023347D01*
X003665Y023203D01*
X003610Y023071D01*
X003509Y022970D01*
X003377Y022915D01*
X003233Y022915D01*
X003101Y022970D01*
X003000Y023071D01*
X002945Y023203D01*
X002945Y023347D01*
X003000Y023479D01*
X003095Y023574D01*
X003095Y031112D01*
X003218Y031235D01*
X003673Y031690D01*
X003601Y031720D01*
X003500Y031821D01*
X003445Y031953D01*
X003445Y032088D01*
X002970Y032563D01*
X002970Y039737D01*
X003093Y039860D01*
X003291Y039860D01*
X003200Y039951D01*
X003200Y040130D01*
X003660Y040130D01*
X003660Y040170D01*
X003660Y040630D01*
X003540Y040630D01*
X003540Y040722D01*
X003485Y040854D01*
X003384Y040955D01*
X003252Y041010D01*
X003108Y041010D01*
X002976Y040955D01*
X002875Y040854D01*
X002820Y040722D01*
X002820Y040587D01*
X002593Y040360D01*
X002502Y040269D01*
X002585Y040470D01*
X002585Y040830D01*
X002447Y041163D01*
X002240Y041370D01*
X014978Y041370D01*
X014970Y041362D01*
X014044Y040436D01*
X013871Y040610D01*
X013489Y040610D01*
X013220Y040341D01*
X013220Y039959D01*
X013489Y039690D01*
X013871Y039690D01*
X013970Y039789D01*
X013970Y039511D01*
X013871Y039610D01*
X013489Y039610D01*
X013220Y039341D01*
X013220Y038959D01*
X013470Y038709D01*
X013470Y037242D01*
X013467Y037246D01*
X013411Y037286D01*
X013349Y037318D01*
X013283Y037339D01*
X013215Y037350D01*
X013180Y037350D01*
X013180Y036650D01*
X013180Y036650D01*
X013180Y035950D01*
X013215Y035950D01*
X013283Y035961D01*
X013349Y035982D01*
X013411Y036014D01*
X013467Y036054D01*
X013470Y036058D01*
X013470Y033574D01*
X013375Y033479D01*
X013320Y033347D01*
X013320Y033203D01*
X013375Y033071D01*
X013476Y032970D01*
X013608Y032915D01*
X013752Y032915D01*
X013845Y032954D01*
X013845Y032574D01*
X013750Y032479D01*
X013695Y032347D01*
X013695Y032203D01*
X013750Y032071D01*
X013851Y031970D01*
X013983Y031915D01*
X014095Y031915D01*
X014095Y031824D01*
X014000Y031729D01*
X013945Y031597D01*
X013945Y031453D01*
X014000Y031321D01*
X014022Y031299D01*
X013942Y031266D01*
X013839Y031163D01*
X013767Y031235D01*
X012890Y032112D01*
X012890Y036058D01*
X012893Y036054D01*
X012949Y036014D01*
X013011Y035982D01*
X013077Y035961D01*
X013145Y035950D01*
X013180Y035950D01*
X013180Y036650D01*
X013180Y036650D01*
X013180Y037350D01*
X013145Y037350D01*
X013077Y037339D01*
X013011Y037318D01*
X012949Y037286D01*
X012893Y037246D01*
X012890Y037242D01*
X012890Y038709D01*
X013140Y038959D01*
X013140Y039341D01*
X012871Y039610D01*
X012489Y039610D01*
X012390Y039511D01*
X012390Y039737D01*
X012267Y039860D01*
X012140Y039987D01*
X012140Y040341D01*
X011871Y040610D01*
X011534Y040610D01*
X011485Y040729D01*
X011384Y040830D01*
X011252Y040885D01*
X011108Y040885D01*
X010976Y040830D01*
X010886Y040741D01*
X010767Y040860D01*
X009468Y040860D01*
X009345Y040737D01*
X009044Y040436D01*
X008871Y040610D01*
X008489Y040610D01*
X008220Y040341D01*
X008220Y039959D01*
X008319Y039860D01*
X008041Y039860D01*
X008140Y039959D01*
X008140Y040341D01*
X007871Y040610D01*
X007517Y040610D01*
X007390Y040737D01*
X007267Y040860D01*
X004093Y040860D01*
X003970Y040737D01*
X003970Y040539D01*
X003879Y040630D01*
X003700Y040630D01*
X003700Y040170D01*
X003660Y040170D01*
X003200Y040170D01*
X003200Y040290D01*
X003117Y040290D01*
X002890Y040063D01*
X002890Y031688D01*
X002790Y031588D01*
X002790Y031453D01*
X002735Y031321D01*
X002634Y031220D01*
X002502Y031165D01*
X002358Y031165D01*
X002346Y031170D01*
X001700Y031170D01*
X001700Y031130D01*
X002460Y031130D01*
X002460Y031112D01*
X002448Y031038D01*
X002425Y030966D01*
X002391Y030898D01*
X002346Y030837D01*
X002293Y030784D01*
X002232Y030739D01*
X002164Y030705D01*
X002092Y030682D01*
X002018Y030670D01*
X001700Y030670D01*
X001700Y031130D01*
X001660Y031130D01*
X001660Y030670D01*
X001342Y030670D01*
X001268Y030682D01*
X001196Y030705D01*
X001140Y030734D01*
X001140Y030487D01*
X002640Y028987D01*
X002640Y028313D01*
X002304Y027977D01*
X002370Y027911D01*
X002440Y027741D01*
X002440Y027558D01*
X002370Y027389D01*
X002241Y027260D01*
X002071Y027190D01*
X001288Y027190D01*
X001140Y027252D01*
X001140Y027048D01*
X001288Y027110D01*
X002071Y027110D01*
X002241Y027040D01*
X002370Y026911D01*
X002440Y026741D01*
X002440Y026558D01*
X002370Y026389D01*
X002241Y026260D01*
X002071Y026190D01*
X001288Y026190D01*
X001140Y026252D01*
X001140Y026048D01*
X001288Y026110D01*
X002071Y026110D01*
X002241Y026040D01*
X002370Y025911D01*
X002440Y025741D01*
X002440Y025558D01*
X002370Y025389D01*
X002241Y025260D01*
X002071Y025190D01*
X001288Y025190D01*
X001140Y025252D01*
X001140Y025048D01*
X001288Y025110D01*
X002071Y025110D01*
X002241Y025040D01*
X002370Y024911D01*
X002440Y024741D01*
X002440Y024558D01*
X002370Y024389D01*
X002241Y024260D01*
X002071Y024190D01*
X001288Y024190D01*
X001140Y024252D01*
X001140Y024066D01*
X001196Y024095D01*
X001268Y024118D01*
X001342Y024130D01*
X001660Y024130D01*
X001660Y023670D01*
X001700Y023670D01*
X001700Y024130D01*
X002018Y024130D01*
X002092Y024118D01*
X002164Y024095D01*
X002232Y024061D01*
X002293Y024016D01*
X002346Y023963D01*
X002391Y023902D01*
X002425Y023834D01*
X002448Y023762D01*
X002460Y023688D01*
X002460Y023670D01*
X001700Y023670D01*
X001700Y023630D01*
X002460Y023630D01*
X002460Y023612D01*
X002448Y023538D01*
X002425Y023466D01*
X002391Y023398D01*
X002346Y023337D01*
X002293Y023284D01*
X002232Y023239D01*
X002164Y023205D01*
X002092Y023182D01*
X002018Y023170D01*
X001700Y023170D01*
X001700Y023630D01*
X001660Y023630D01*
X001660Y023170D01*
X001342Y023170D01*
X001268Y023182D01*
X001196Y023205D01*
X001140Y023234D01*
X001140Y012487D01*
X002117Y011510D01*
X002252Y011510D01*
X002384Y011455D01*
X002485Y011354D01*
X002540Y011222D01*
X002540Y011090D01*
X002680Y011090D01*
X002680Y010650D01*
X002680Y010650D01*
X003120Y010650D01*
X003120Y010832D01*
X002862Y011090D01*
X002680Y011090D01*
X002680Y010650D01*
X002680Y010650D01*
X003120Y010650D01*
X003120Y010468D01*
X002862Y010210D01*
X002680Y010210D01*
X002680Y010650D01*
X002680Y010650D01*
X002680Y010650D01*
X002240Y010650D01*
X002240Y010790D01*
X002108Y010790D01*
X001976Y010845D01*
X001875Y010946D01*
X001820Y011078D01*
X001820Y011213D01*
X000960Y012073D01*
X000960Y008210D01*
X001167Y008417D01*
X001500Y008555D01*
X001860Y008555D01*
X002193Y008417D01*
X002447Y008163D01*
X002585Y007830D01*
X002585Y007470D01*
X002447Y007137D01*
X002473Y007199D02*
X016720Y007199D01*
X016720Y007357D02*
X002538Y007357D01*
X002585Y007516D02*
X016720Y007516D01*
X016720Y007674D02*
X002585Y007674D01*
X002584Y007833D02*
X004575Y007833D01*
X004417Y007991D02*
X002518Y007991D01*
X002452Y008150D02*
X004258Y008150D01*
X004100Y008309D02*
X002301Y008309D01*
X002072Y008467D02*
X003970Y008467D01*
X003970Y008626D02*
X000960Y008626D01*
X000960Y008784D02*
X003970Y008784D01*
X003970Y008943D02*
X000960Y008943D01*
X000960Y009101D02*
X003970Y009101D01*
X003970Y009260D02*
X002883Y009260D01*
X002854Y009230D02*
X003100Y009476D01*
X003100Y009824D01*
X002854Y010070D01*
X002506Y010070D01*
X002260Y009824D01*
X002260Y009476D01*
X002506Y009230D01*
X002854Y009230D01*
X003042Y009418D02*
X003970Y009418D01*
X003970Y009577D02*
X003100Y009577D01*
X003100Y009735D02*
X003970Y009735D01*
X003970Y009894D02*
X003030Y009894D01*
X002872Y010052D02*
X003970Y010052D01*
X003970Y010211D02*
X002863Y010211D01*
X002680Y010211D02*
X002680Y010211D01*
X002680Y010210D02*
X002680Y010650D01*
X002240Y010650D01*
X002240Y010468D01*
X002498Y010210D01*
X002680Y010210D01*
X002680Y010369D02*
X002680Y010369D01*
X002680Y010528D02*
X002680Y010528D01*
X002680Y010686D02*
X002680Y010686D01*
X002680Y010845D02*
X002680Y010845D01*
X002680Y011003D02*
X002680Y011003D01*
X002540Y011162D02*
X004474Y011162D01*
X004283Y011003D02*
X002949Y011003D01*
X003108Y010845D02*
X004187Y010845D01*
X004150Y010686D02*
X003120Y010686D01*
X003120Y010528D02*
X004157Y010528D01*
X004102Y010369D02*
X003021Y010369D01*
X002497Y010211D02*
X000960Y010211D01*
X000960Y010369D02*
X002339Y010369D01*
X002240Y010528D02*
X000960Y010528D01*
X000960Y010686D02*
X002240Y010686D01*
X001977Y010845D02*
X000960Y010845D01*
X000960Y011003D02*
X001851Y011003D01*
X001820Y011162D02*
X000960Y011162D01*
X000960Y011320D02*
X001713Y011320D01*
X001555Y011479D02*
X000960Y011479D01*
X000960Y011637D02*
X001396Y011637D01*
X001238Y011796D02*
X000960Y011796D01*
X000960Y011954D02*
X001079Y011954D01*
X001356Y012271D02*
X004309Y012271D01*
X004412Y012113D02*
X001514Y012113D01*
X001673Y011954D02*
X004234Y011954D01*
X004167Y011796D02*
X001831Y011796D01*
X001990Y011637D02*
X004150Y011637D01*
X004177Y011479D02*
X002328Y011479D01*
X002499Y011320D02*
X004260Y011320D01*
X004198Y012430D02*
X001197Y012430D01*
X001140Y012588D02*
X004150Y012588D01*
X004150Y012747D02*
X001140Y012747D01*
X001140Y012905D02*
X004212Y012905D01*
X004344Y013064D02*
X001140Y013064D01*
X001140Y013222D02*
X004358Y013222D01*
X004218Y013381D02*
X001140Y013381D01*
X001140Y013539D02*
X004152Y013539D01*
X004150Y013698D02*
X001140Y013698D01*
X001140Y013856D02*
X004192Y013856D01*
X004295Y014015D02*
X001140Y014015D01*
X001140Y014173D02*
X004447Y014173D01*
X004249Y014332D02*
X001140Y014332D01*
X001140Y014490D02*
X004173Y014490D01*
X004150Y014649D02*
X001140Y014649D01*
X001140Y014807D02*
X004171Y014807D01*
X004246Y014966D02*
X001140Y014966D01*
X001140Y015124D02*
X004439Y015124D01*
X004298Y015283D02*
X001140Y015283D01*
X001140Y015441D02*
X004193Y015441D01*
X004150Y015600D02*
X001140Y015600D01*
X001140Y015758D02*
X004151Y015758D01*
X004217Y015917D02*
X001140Y015917D01*
X001140Y016075D02*
X004355Y016075D01*
X004347Y016234D02*
X001140Y016234D01*
X001140Y016392D02*
X004213Y016392D01*
X004150Y016551D02*
X001140Y016551D01*
X001140Y016709D02*
X004150Y016709D01*
X004196Y016868D02*
X001140Y016868D01*
X001140Y017026D02*
X004306Y017026D01*
X004419Y017185D02*
X001140Y017185D01*
X001140Y017343D02*
X004237Y017343D01*
X004168Y017502D02*
X001140Y017502D01*
X001140Y017660D02*
X004150Y017660D01*
X004176Y017819D02*
X001140Y017819D01*
X001140Y017977D02*
X004257Y017977D01*
X004467Y018136D02*
X001140Y018136D01*
X001140Y018294D02*
X004286Y018294D01*
X004188Y018453D02*
X001140Y018453D01*
X001140Y018611D02*
X004150Y018611D01*
X004156Y018770D02*
X001140Y018770D01*
X001140Y018928D02*
X004221Y018928D01*
X004367Y019087D02*
X001140Y019087D01*
X001140Y019245D02*
X004335Y019245D01*
X004208Y019404D02*
X001140Y019404D01*
X001140Y019562D02*
X004150Y019562D01*
X004150Y019721D02*
X001140Y019721D01*
X001140Y019879D02*
X004201Y019879D01*
X003995Y020038D02*
X001140Y020038D01*
X001140Y020196D02*
X003970Y020196D01*
X003970Y020355D02*
X001140Y020355D01*
X001140Y020513D02*
X003970Y020513D01*
X003970Y020672D02*
X001140Y020672D01*
X001140Y020830D02*
X003970Y020830D01*
X003970Y020989D02*
X001140Y020989D01*
X001140Y021147D02*
X003970Y021147D01*
X003970Y021306D02*
X001140Y021306D01*
X001140Y021464D02*
X003970Y021464D01*
X003970Y021623D02*
X001140Y021623D01*
X001140Y021781D02*
X003970Y021781D01*
X003970Y021940D02*
X001140Y021940D01*
X001140Y022098D02*
X003970Y022098D01*
X003990Y022257D02*
X001140Y022257D01*
X001140Y022415D02*
X004148Y022415D01*
X004150Y022574D02*
X001140Y022574D01*
X001140Y022732D02*
X004150Y022732D01*
X004206Y022891D02*
X001140Y022891D01*
X001140Y023049D02*
X003022Y023049D01*
X002945Y023208D02*
X002169Y023208D01*
X002367Y023366D02*
X002953Y023366D01*
X003045Y023525D02*
X002444Y023525D01*
X002460Y023683D02*
X003095Y023683D01*
X003095Y023842D02*
X002421Y023842D01*
X002309Y024000D02*
X003095Y024000D01*
X003095Y024159D02*
X001140Y024159D01*
X001660Y024000D02*
X001700Y024000D01*
X001700Y023842D02*
X001660Y023842D01*
X001660Y023683D02*
X001700Y023683D01*
X001700Y023525D02*
X001660Y023525D01*
X001660Y023366D02*
X001700Y023366D01*
X001700Y023208D02*
X001660Y023208D01*
X001191Y023208D02*
X001140Y023208D01*
X002298Y024317D02*
X003095Y024317D01*
X003095Y024476D02*
X002406Y024476D01*
X002440Y024634D02*
X003095Y024634D01*
X003095Y024793D02*
X002419Y024793D01*
X002330Y024951D02*
X003095Y024951D01*
X003095Y025110D02*
X002073Y025110D01*
X002249Y025268D02*
X003095Y025268D01*
X003095Y025427D02*
X002385Y025427D01*
X002440Y025585D02*
X003095Y025585D01*
X003095Y025744D02*
X002439Y025744D01*
X002374Y025902D02*
X003095Y025902D01*
X003095Y026061D02*
X002191Y026061D01*
X002142Y026219D02*
X003095Y026219D01*
X003095Y026378D02*
X002358Y026378D01*
X002431Y026536D02*
X003095Y026536D01*
X003095Y026695D02*
X002440Y026695D01*
X002394Y026853D02*
X003095Y026853D01*
X003095Y027012D02*
X002269Y027012D01*
X002309Y027329D02*
X003095Y027329D01*
X003095Y027487D02*
X002410Y027487D01*
X002440Y027646D02*
X003095Y027646D01*
X003095Y027804D02*
X002414Y027804D01*
X002318Y027963D02*
X003095Y027963D01*
X003095Y028121D02*
X002448Y028121D01*
X002607Y028280D02*
X003095Y028280D01*
X003095Y028438D02*
X002640Y028438D01*
X002640Y028597D02*
X003095Y028597D01*
X003095Y028755D02*
X002640Y028755D01*
X002640Y028914D02*
X003095Y028914D01*
X003095Y029072D02*
X002555Y029072D01*
X002396Y029231D02*
X003095Y029231D01*
X003095Y029389D02*
X002238Y029389D01*
X002079Y029548D02*
X003095Y029548D01*
X003095Y029706D02*
X001921Y029706D01*
X001762Y029865D02*
X003095Y029865D01*
X003095Y030023D02*
X001604Y030023D01*
X001445Y030182D02*
X003095Y030182D01*
X003095Y030340D02*
X001287Y030340D01*
X001140Y030499D02*
X003095Y030499D01*
X003095Y030657D02*
X001140Y030657D01*
X001660Y030816D02*
X001700Y030816D01*
X001700Y030974D02*
X001660Y030974D01*
X001700Y031133D02*
X003116Y031133D01*
X003095Y030974D02*
X002428Y030974D01*
X002324Y030816D02*
X003095Y030816D01*
X003274Y031291D02*
X002705Y031291D01*
X002788Y031450D02*
X003433Y031450D01*
X003591Y031608D02*
X002810Y031608D01*
X002890Y031767D02*
X003554Y031767D01*
X003457Y031925D02*
X002890Y031925D01*
X002890Y032084D02*
X003445Y032084D01*
X003291Y032242D02*
X002890Y032242D01*
X002890Y032401D02*
X003132Y032401D01*
X002974Y032559D02*
X002890Y032559D01*
X002890Y032718D02*
X002970Y032718D01*
X002970Y032876D02*
X002890Y032876D01*
X002890Y033035D02*
X002970Y033035D01*
X002970Y033193D02*
X002890Y033193D01*
X002890Y033352D02*
X002970Y033352D01*
X002970Y033510D02*
X002890Y033510D01*
X002890Y033669D02*
X002970Y033669D01*
X002970Y033827D02*
X002890Y033827D01*
X002890Y033986D02*
X002970Y033986D01*
X002970Y034144D02*
X002890Y034144D01*
X002890Y034303D02*
X002970Y034303D01*
X002970Y034461D02*
X002890Y034461D01*
X002890Y034620D02*
X002970Y034620D01*
X002970Y034778D02*
X002890Y034778D01*
X002890Y034937D02*
X002970Y034937D01*
X002970Y035095D02*
X002890Y035095D01*
X002890Y035254D02*
X002970Y035254D01*
X002970Y035412D02*
X002890Y035412D01*
X002890Y035571D02*
X002970Y035571D01*
X002970Y035729D02*
X002890Y035729D01*
X002890Y035888D02*
X002970Y035888D01*
X002970Y036046D02*
X002890Y036046D01*
X002890Y036205D02*
X002970Y036205D01*
X002970Y036363D02*
X002890Y036363D01*
X002890Y036522D02*
X002970Y036522D01*
X002970Y036680D02*
X002890Y036680D01*
X002890Y036839D02*
X002970Y036839D01*
X002970Y036997D02*
X002890Y036997D01*
X002890Y037156D02*
X002970Y037156D01*
X002970Y037314D02*
X002890Y037314D01*
X002890Y037473D02*
X002970Y037473D01*
X002970Y037631D02*
X002890Y037631D01*
X002890Y037790D02*
X002970Y037790D01*
X002970Y037948D02*
X002890Y037948D01*
X002890Y038107D02*
X002970Y038107D01*
X002970Y038265D02*
X002890Y038265D01*
X002890Y038424D02*
X002970Y038424D01*
X002970Y038582D02*
X002890Y038582D01*
X002890Y038741D02*
X002970Y038741D01*
X002970Y038899D02*
X002890Y038899D01*
X002890Y039058D02*
X002970Y039058D01*
X002970Y039216D02*
X002890Y039216D01*
X002890Y039375D02*
X002970Y039375D01*
X002970Y039533D02*
X002890Y039533D01*
X002890Y039692D02*
X002970Y039692D01*
X002890Y039850D02*
X003083Y039850D01*
X003200Y040009D02*
X002890Y040009D01*
X002994Y040167D02*
X003660Y040167D01*
X003660Y040326D02*
X003700Y040326D01*
X003700Y040484D02*
X003660Y040484D01*
X003540Y040643D02*
X003970Y040643D01*
X004034Y040801D02*
X003507Y040801D01*
X003373Y040960D02*
X014568Y040960D01*
X014726Y041118D02*
X002466Y041118D01*
X002531Y040960D02*
X002987Y040960D01*
X002853Y040801D02*
X002585Y040801D01*
X002585Y040643D02*
X002820Y040643D01*
X002717Y040484D02*
X002585Y040484D01*
X002559Y040326D02*
X002525Y040326D01*
X002333Y041277D02*
X014885Y041277D01*
X014409Y040801D02*
X011413Y040801D01*
X011521Y040643D02*
X014251Y040643D01*
X014092Y040484D02*
X013996Y040484D01*
X013364Y040484D02*
X012996Y040484D01*
X012871Y040610D02*
X012489Y040610D01*
X012220Y040341D01*
X012220Y039959D01*
X012489Y039690D01*
X012871Y039690D01*
X013140Y039959D01*
X013140Y040341D01*
X012871Y040610D01*
X013140Y040326D02*
X013220Y040326D01*
X013220Y040167D02*
X013140Y040167D01*
X013140Y040009D02*
X013220Y040009D01*
X013329Y039850D02*
X013031Y039850D01*
X012872Y039692D02*
X013488Y039692D01*
X013413Y039533D02*
X012947Y039533D01*
X013106Y039375D02*
X013254Y039375D01*
X013220Y039216D02*
X013140Y039216D01*
X013140Y039058D02*
X013220Y039058D01*
X013280Y038899D02*
X013080Y038899D01*
X012921Y038741D02*
X013439Y038741D01*
X013470Y038582D02*
X012890Y038582D01*
X012890Y038424D02*
X013470Y038424D01*
X013470Y038265D02*
X012890Y038265D01*
X012890Y038107D02*
X013470Y038107D01*
X013470Y037948D02*
X012890Y037948D01*
X012890Y037790D02*
X013470Y037790D01*
X013470Y037631D02*
X012890Y037631D01*
X012890Y037473D02*
X013470Y037473D01*
X013470Y037314D02*
X013356Y037314D01*
X013180Y037314D02*
X013180Y037314D01*
X013180Y037156D02*
X013180Y037156D01*
X013180Y036997D02*
X013180Y036997D01*
X013180Y036839D02*
X013180Y036839D01*
X013180Y036680D02*
X013180Y036680D01*
X013180Y036522D02*
X013180Y036522D01*
X013180Y036363D02*
X013180Y036363D01*
X013180Y036205D02*
X013180Y036205D01*
X013180Y036046D02*
X013180Y036046D01*
X013455Y036046D02*
X013470Y036046D01*
X013470Y035888D02*
X012890Y035888D01*
X012890Y036046D02*
X012905Y036046D01*
X012890Y035729D02*
X013470Y035729D01*
X013470Y035571D02*
X012890Y035571D01*
X012890Y035412D02*
X013470Y035412D01*
X013470Y035254D02*
X012890Y035254D01*
X012890Y035095D02*
X013470Y035095D01*
X013470Y034937D02*
X012890Y034937D01*
X012890Y034778D02*
X013470Y034778D01*
X013470Y034620D02*
X012890Y034620D01*
X012890Y034461D02*
X013470Y034461D01*
X013470Y034303D02*
X012890Y034303D01*
X012890Y034144D02*
X013470Y034144D01*
X013470Y033986D02*
X012890Y033986D01*
X012890Y033827D02*
X013470Y033827D01*
X013470Y033669D02*
X012890Y033669D01*
X012890Y033510D02*
X013406Y033510D01*
X013322Y033352D02*
X012890Y033352D01*
X012890Y033193D02*
X013324Y033193D01*
X013411Y033035D02*
X012890Y033035D01*
X012890Y032876D02*
X013845Y032876D01*
X013845Y032718D02*
X012890Y032718D01*
X012890Y032559D02*
X013830Y032559D01*
X013717Y032401D02*
X012890Y032401D01*
X012890Y032242D02*
X013695Y032242D01*
X013745Y032084D02*
X012918Y032084D01*
X013077Y031925D02*
X013959Y031925D01*
X014037Y031767D02*
X013235Y031767D01*
X013394Y031608D02*
X013950Y031608D01*
X013947Y031450D02*
X013552Y031450D01*
X013711Y031291D02*
X014002Y031291D01*
X013890Y030086D02*
X013942Y030034D01*
X014096Y029970D01*
X014195Y029970D01*
X014195Y029840D01*
X014180Y029840D01*
X014180Y029400D01*
X014180Y029400D01*
X014180Y029840D01*
X013998Y029840D01*
X013890Y029732D01*
X013890Y030086D01*
X013890Y030023D02*
X013968Y030023D01*
X013890Y029865D02*
X014195Y029865D01*
X014180Y029706D02*
X014180Y029706D01*
X014180Y029548D02*
X014180Y029548D01*
X014180Y029400D02*
X014180Y028960D01*
X014362Y028960D01*
X014470Y029068D01*
X014470Y028487D01*
X014468Y028485D01*
X014345Y028362D01*
X014345Y019188D01*
X014687Y018846D01*
X014650Y018755D01*
X014650Y018545D01*
X014731Y018350D01*
X014880Y018201D01*
X015002Y018150D01*
X014880Y018099D01*
X014731Y017950D01*
X014650Y017755D01*
X014650Y017545D01*
X014731Y017350D01*
X014880Y017201D01*
X015002Y017150D01*
X014880Y017099D01*
X014731Y016950D01*
X014650Y016755D01*
X014650Y016545D01*
X014687Y016454D01*
X014470Y016237D01*
X014470Y015282D01*
X014015Y015737D01*
X014015Y028960D01*
X014180Y028960D01*
X014180Y029400D01*
X014180Y029400D01*
X014180Y029389D02*
X014180Y029389D01*
X014180Y029231D02*
X014180Y029231D01*
X014180Y029072D02*
X014180Y029072D01*
X014015Y028914D02*
X014470Y028914D01*
X014470Y028755D02*
X014015Y028755D01*
X014015Y028597D02*
X014470Y028597D01*
X014421Y028438D02*
X014015Y028438D01*
X014015Y028280D02*
X014345Y028280D01*
X014345Y028121D02*
X014015Y028121D01*
X014015Y027963D02*
X014345Y027963D01*
X014345Y027804D02*
X014015Y027804D01*
X014015Y027646D02*
X014345Y027646D01*
X014345Y027487D02*
X014015Y027487D01*
X014015Y027329D02*
X014345Y027329D01*
X014345Y027170D02*
X014015Y027170D01*
X014015Y027012D02*
X014345Y027012D01*
X014345Y026853D02*
X014015Y026853D01*
X014015Y026695D02*
X014345Y026695D01*
X014345Y026536D02*
X014015Y026536D01*
X014015Y026378D02*
X014345Y026378D01*
X014345Y026219D02*
X014015Y026219D01*
X014015Y026061D02*
X014345Y026061D01*
X014345Y025902D02*
X014015Y025902D01*
X014015Y025744D02*
X014345Y025744D01*
X014345Y025585D02*
X014015Y025585D01*
X014015Y025427D02*
X014345Y025427D01*
X014345Y025268D02*
X014015Y025268D01*
X014015Y025110D02*
X014345Y025110D01*
X014345Y024951D02*
X014015Y024951D01*
X014015Y024793D02*
X014345Y024793D01*
X014345Y024634D02*
X014015Y024634D01*
X014015Y024476D02*
X014345Y024476D01*
X014345Y024317D02*
X014015Y024317D01*
X014015Y024159D02*
X014345Y024159D01*
X014345Y024000D02*
X014015Y024000D01*
X014015Y023842D02*
X014345Y023842D01*
X014345Y023683D02*
X014015Y023683D01*
X014015Y023525D02*
X014345Y023525D01*
X014345Y023366D02*
X014015Y023366D01*
X014015Y023208D02*
X014345Y023208D01*
X014345Y023049D02*
X014015Y023049D01*
X014015Y022891D02*
X014345Y022891D01*
X014345Y022732D02*
X014015Y022732D01*
X014015Y022574D02*
X014345Y022574D01*
X014345Y022415D02*
X014015Y022415D01*
X014015Y022257D02*
X014345Y022257D01*
X014345Y022098D02*
X014015Y022098D01*
X014015Y021940D02*
X014345Y021940D01*
X014345Y021781D02*
X014015Y021781D01*
X014015Y021623D02*
X014345Y021623D01*
X014345Y021464D02*
X014015Y021464D01*
X014015Y021306D02*
X014345Y021306D01*
X014345Y021147D02*
X014015Y021147D01*
X014015Y020989D02*
X014345Y020989D01*
X014345Y020830D02*
X014015Y020830D01*
X014015Y020672D02*
X014345Y020672D01*
X014345Y020513D02*
X014015Y020513D01*
X014015Y020355D02*
X014345Y020355D01*
X014345Y020196D02*
X014015Y020196D01*
X014015Y020038D02*
X014345Y020038D01*
X014345Y019879D02*
X014015Y019879D01*
X014015Y019721D02*
X014345Y019721D01*
X014345Y019562D02*
X014015Y019562D01*
X014015Y019404D02*
X014345Y019404D01*
X014345Y019245D02*
X014015Y019245D01*
X014015Y019087D02*
X014446Y019087D01*
X014605Y018928D02*
X014015Y018928D01*
X014015Y018770D02*
X014656Y018770D01*
X014650Y018611D02*
X014015Y018611D01*
X014015Y018453D02*
X014688Y018453D01*
X014786Y018294D02*
X014015Y018294D01*
X014015Y018136D02*
X014967Y018136D01*
X014757Y017977D02*
X014015Y017977D01*
X014015Y017819D02*
X014676Y017819D01*
X014650Y017660D02*
X014015Y017660D01*
X014015Y017502D02*
X014668Y017502D01*
X014737Y017343D02*
X014015Y017343D01*
X014015Y017185D02*
X014919Y017185D01*
X014806Y017026D02*
X014015Y017026D01*
X014015Y016868D02*
X014696Y016868D01*
X014650Y016709D02*
X014015Y016709D01*
X014015Y016551D02*
X014650Y016551D01*
X014625Y016392D02*
X014015Y016392D01*
X014015Y016234D02*
X014470Y016234D01*
X014470Y016075D02*
X014015Y016075D01*
X014015Y015917D02*
X014470Y015917D01*
X014470Y015758D02*
X014015Y015758D01*
X014152Y015600D02*
X014470Y015600D01*
X014470Y015441D02*
X014311Y015441D01*
X014469Y015283D02*
X014470Y015283D01*
X014193Y014966D02*
X012890Y014966D01*
X012890Y015124D02*
X014034Y015124D01*
X013876Y015283D02*
X012890Y015283D01*
X012890Y015441D02*
X013717Y015441D01*
X013718Y015440D02*
X013718Y015440D01*
X013595Y015563D01*
X013595Y027079D01*
X013502Y027040D01*
X013358Y027040D01*
X013226Y027095D01*
X013125Y027196D01*
X013070Y027328D01*
X013070Y027472D01*
X013125Y027604D01*
X013220Y027699D01*
X013220Y028476D01*
X013125Y028571D01*
X013070Y028703D01*
X013070Y028847D01*
X013125Y028979D01*
X013126Y028980D01*
X013006Y028980D01*
X012890Y029096D01*
X012890Y014074D01*
X012985Y013979D01*
X013040Y013847D01*
X013040Y013703D01*
X012985Y013571D01*
X012884Y013470D01*
X012752Y013415D01*
X012608Y013415D01*
X012476Y013470D01*
X012440Y013506D01*
X012440Y010508D01*
X012463Y010485D01*
X012463Y010485D01*
X012878Y010070D01*
X013104Y010070D01*
X013350Y009824D01*
X013350Y009476D01*
X013104Y009230D01*
X012756Y009230D01*
X012510Y009476D01*
X012510Y009702D01*
X012440Y009772D01*
X012440Y008973D01*
X012400Y008878D01*
X012327Y008805D01*
X012232Y008765D01*
X010378Y008765D01*
X010283Y008805D01*
X010210Y008878D01*
X009835Y009253D01*
X009795Y009348D01*
X009795Y009390D01*
X005146Y009390D01*
X005129Y009350D01*
X004980Y009201D01*
X004785Y009120D01*
X004575Y009120D01*
X004390Y009196D01*
X004390Y008954D01*
X004506Y009070D01*
X004854Y009070D01*
X005100Y008824D01*
X005100Y008476D01*
X004854Y008230D01*
X004772Y008230D01*
X004892Y008110D01*
X016470Y008110D01*
X016470Y008318D01*
X016362Y008210D01*
X016180Y008210D01*
X016180Y008650D01*
X016180Y008650D01*
X016180Y009090D01*
X016362Y009090D01*
X016470Y008982D01*
X016470Y009063D01*
X015662Y009871D01*
X015710Y009755D01*
X015710Y009545D01*
X015629Y009350D01*
X015480Y009201D01*
X015285Y009120D01*
X015075Y009120D01*
X014880Y009201D01*
X014731Y009350D01*
X014650Y009545D01*
X014650Y009755D01*
X014731Y009950D01*
X014880Y010099D01*
X015002Y010150D01*
X014880Y010201D01*
X014731Y010350D01*
X014650Y010545D01*
X014650Y010755D01*
X014731Y010950D01*
X014880Y011099D01*
X015002Y011150D01*
X014880Y011201D01*
X014731Y011350D01*
X014650Y011545D01*
X014650Y011755D01*
X014731Y011950D01*
X014880Y012099D01*
X015002Y012150D01*
X014880Y012201D01*
X014731Y012350D01*
X014650Y012545D01*
X014650Y012755D01*
X014731Y012950D01*
X014880Y013099D01*
X015002Y013150D01*
X014880Y013201D01*
X014731Y013350D01*
X014650Y013545D01*
X014650Y013755D01*
X014731Y013950D01*
X014880Y014099D01*
X015002Y014150D01*
X014880Y014201D01*
X014731Y014350D01*
X014676Y014482D01*
X014595Y014563D01*
X014595Y014563D01*
X013718Y015440D01*
X013595Y015600D02*
X012890Y015600D01*
X012890Y015758D02*
X013595Y015758D01*
X013595Y015917D02*
X012890Y015917D01*
X012890Y016075D02*
X013595Y016075D01*
X013595Y016234D02*
X012890Y016234D01*
X012890Y016392D02*
X013595Y016392D01*
X013595Y016551D02*
X012890Y016551D01*
X012890Y016709D02*
X013595Y016709D01*
X013595Y016868D02*
X012890Y016868D01*
X012890Y017026D02*
X013595Y017026D01*
X013595Y017185D02*
X012890Y017185D01*
X012890Y017343D02*
X013595Y017343D01*
X013595Y017502D02*
X012890Y017502D01*
X012890Y017660D02*
X013595Y017660D01*
X013595Y017819D02*
X012890Y017819D01*
X012890Y017977D02*
X013595Y017977D01*
X013595Y018136D02*
X012890Y018136D01*
X012890Y018294D02*
X013595Y018294D01*
X013595Y018453D02*
X012890Y018453D01*
X012890Y018611D02*
X013595Y018611D01*
X013595Y018770D02*
X012890Y018770D01*
X012890Y018928D02*
X013595Y018928D01*
X013595Y019087D02*
X012890Y019087D01*
X012890Y019245D02*
X013595Y019245D01*
X013595Y019404D02*
X012890Y019404D01*
X012890Y019562D02*
X013595Y019562D01*
X013595Y019721D02*
X012890Y019721D01*
X012890Y019879D02*
X013595Y019879D01*
X013595Y020038D02*
X012890Y020038D01*
X012890Y020196D02*
X013595Y020196D01*
X013595Y020355D02*
X012890Y020355D01*
X012890Y020513D02*
X013595Y020513D01*
X013595Y020672D02*
X012890Y020672D01*
X012890Y020830D02*
X013595Y020830D01*
X013595Y020989D02*
X012890Y020989D01*
X012890Y021147D02*
X013595Y021147D01*
X013595Y021306D02*
X012890Y021306D01*
X012890Y021464D02*
X013595Y021464D01*
X013595Y021623D02*
X012890Y021623D01*
X012890Y021781D02*
X013595Y021781D01*
X013595Y021940D02*
X012890Y021940D01*
X012890Y022098D02*
X013595Y022098D01*
X013595Y022257D02*
X012890Y022257D01*
X012890Y022415D02*
X013595Y022415D01*
X013595Y022574D02*
X012890Y022574D01*
X012890Y022732D02*
X013595Y022732D01*
X013595Y022891D02*
X012890Y022891D01*
X012890Y023049D02*
X013595Y023049D01*
X013595Y023208D02*
X012890Y023208D01*
X012890Y023366D02*
X013595Y023366D01*
X013595Y023525D02*
X012890Y023525D01*
X012890Y023683D02*
X013595Y023683D01*
X013595Y023842D02*
X012890Y023842D01*
X012890Y024000D02*
X013595Y024000D01*
X013595Y024159D02*
X012890Y024159D01*
X012890Y024317D02*
X013595Y024317D01*
X013595Y024476D02*
X012890Y024476D01*
X012890Y024634D02*
X013595Y024634D01*
X013595Y024793D02*
X012890Y024793D01*
X012890Y024951D02*
X013595Y024951D01*
X013595Y025110D02*
X012890Y025110D01*
X012890Y025268D02*
X013595Y025268D01*
X013595Y025427D02*
X012890Y025427D01*
X012890Y025585D02*
X013595Y025585D01*
X013595Y025744D02*
X012890Y025744D01*
X012890Y025902D02*
X013595Y025902D01*
X013595Y026061D02*
X012890Y026061D01*
X012890Y026219D02*
X013595Y026219D01*
X013595Y026378D02*
X012890Y026378D01*
X012890Y026536D02*
X013595Y026536D01*
X013595Y026695D02*
X012890Y026695D01*
X012890Y026853D02*
X013595Y026853D01*
X013595Y027012D02*
X012890Y027012D01*
X012890Y027170D02*
X013151Y027170D01*
X013070Y027329D02*
X012890Y027329D01*
X012890Y027487D02*
X013076Y027487D01*
X013166Y027646D02*
X012890Y027646D01*
X012890Y027804D02*
X013220Y027804D01*
X013220Y027963D02*
X012890Y027963D01*
X012890Y028121D02*
X013220Y028121D01*
X013220Y028280D02*
X012890Y028280D01*
X012890Y028438D02*
X013220Y028438D01*
X013114Y028597D02*
X012890Y028597D01*
X012890Y028755D02*
X013070Y028755D01*
X013098Y028914D02*
X012890Y028914D01*
X012890Y029072D02*
X012914Y029072D01*
X010470Y029072D02*
X010055Y029072D01*
X010017Y029110D02*
X009890Y029237D01*
X009890Y030086D01*
X009942Y030034D01*
X010096Y029970D01*
X010264Y029970D01*
X010418Y030034D01*
X010470Y030086D01*
X010470Y026563D01*
X011173Y025860D01*
X011101Y025830D01*
X011000Y025729D01*
X010945Y025597D01*
X010945Y025453D01*
X010970Y025393D01*
X010970Y025119D01*
X010968Y025120D01*
X010891Y025160D01*
X010809Y025186D01*
X010723Y025200D01*
X010700Y025200D01*
X010700Y024670D01*
X010660Y024670D01*
X010660Y025200D01*
X010637Y025200D01*
X010551Y025186D01*
X010469Y025160D01*
X010392Y025120D01*
X010390Y025119D01*
X010390Y025851D01*
X010485Y025946D01*
X010540Y026078D01*
X010540Y026222D01*
X010485Y026354D01*
X010384Y026455D01*
X010252Y026510D01*
X010108Y026510D01*
X010015Y026471D01*
X010015Y026851D01*
X010110Y026946D01*
X010165Y027078D01*
X010165Y027222D01*
X010110Y027354D01*
X010009Y027455D01*
X009937Y027485D01*
X010140Y027688D01*
X010140Y028987D01*
X010017Y029110D01*
X009896Y029231D02*
X010470Y029231D01*
X010470Y029389D02*
X009890Y029389D01*
X009890Y029548D02*
X010470Y029548D01*
X010470Y029706D02*
X009890Y029706D01*
X009890Y029865D02*
X010470Y029865D01*
X010470Y030023D02*
X010392Y030023D01*
X009968Y030023D02*
X009890Y030023D01*
X010140Y028914D02*
X010470Y028914D01*
X010470Y028755D02*
X010140Y028755D01*
X010140Y028597D02*
X010470Y028597D01*
X010470Y028438D02*
X010140Y028438D01*
X010140Y028280D02*
X010470Y028280D01*
X010470Y028121D02*
X010140Y028121D01*
X010140Y027963D02*
X010470Y027963D01*
X010470Y027804D02*
X010140Y027804D01*
X010098Y027646D02*
X010470Y027646D01*
X010470Y027487D02*
X009939Y027487D01*
X010121Y027329D02*
X010470Y027329D01*
X010470Y027170D02*
X010165Y027170D01*
X010137Y027012D02*
X010470Y027012D01*
X010470Y026853D02*
X010017Y026853D01*
X010015Y026695D02*
X010470Y026695D01*
X010497Y026536D02*
X010015Y026536D01*
X010462Y026378D02*
X010655Y026378D01*
X010540Y026219D02*
X010814Y026219D01*
X010972Y026061D02*
X010533Y026061D01*
X010441Y025902D02*
X011131Y025902D01*
X011014Y025744D02*
X010390Y025744D01*
X010390Y025585D02*
X010945Y025585D01*
X010956Y025427D02*
X010390Y025427D01*
X010390Y025268D02*
X010970Y025268D01*
X010700Y025110D02*
X010660Y025110D01*
X010660Y024951D02*
X010700Y024951D01*
X010700Y024793D02*
X010660Y024793D01*
X004470Y025268D02*
X003515Y025268D01*
X003515Y025110D02*
X004404Y025110D01*
X004231Y024951D02*
X003515Y024951D01*
X003515Y024793D02*
X004165Y024793D01*
X004150Y024634D02*
X003515Y024634D01*
X003515Y024476D02*
X004179Y024476D01*
X004263Y024317D02*
X003515Y024317D01*
X003515Y024159D02*
X004482Y024159D01*
X004280Y024000D02*
X003515Y024000D01*
X003515Y023842D02*
X004186Y023842D01*
X004150Y023683D02*
X003515Y023683D01*
X003565Y023525D02*
X004158Y023525D01*
X004224Y023366D02*
X003657Y023366D01*
X003665Y023208D02*
X004373Y023208D01*
X004329Y023049D02*
X003588Y023049D01*
X003515Y025427D02*
X004470Y025427D01*
X004470Y025585D02*
X003860Y025585D01*
X004005Y025744D02*
X004470Y025744D01*
X004470Y025902D02*
X004040Y025902D01*
X004003Y026061D02*
X004470Y026061D01*
X004470Y026219D02*
X003890Y026219D01*
X003890Y026378D02*
X004470Y026378D01*
X004470Y026536D02*
X003890Y026536D01*
X003890Y026695D02*
X004470Y026695D01*
X004470Y026853D02*
X003890Y026853D01*
X003890Y027012D02*
X004470Y027012D01*
X004470Y027170D02*
X003890Y027170D01*
X003890Y027329D02*
X004470Y027329D01*
X004470Y027487D02*
X003890Y027487D01*
X003890Y027646D02*
X004470Y027646D01*
X004470Y027804D02*
X003890Y027804D01*
X003890Y027963D02*
X004470Y027963D01*
X004470Y028121D02*
X003890Y028121D01*
X003890Y028280D02*
X004470Y028280D01*
X004470Y028438D02*
X003890Y028438D01*
X003890Y028597D02*
X004470Y028597D01*
X004470Y028755D02*
X003890Y028755D01*
X003890Y028914D02*
X004470Y028914D01*
X004470Y029072D02*
X003890Y029072D01*
X003890Y029231D02*
X004470Y029231D01*
X004470Y029389D02*
X003890Y029389D01*
X003890Y029548D02*
X004470Y029548D01*
X004470Y029706D02*
X003890Y029706D01*
X003890Y029865D02*
X004470Y029865D01*
X004470Y030023D02*
X004392Y030023D01*
X003968Y030023D02*
X003890Y030023D01*
X002080Y031620D02*
X002018Y031630D01*
X001700Y031630D01*
X001700Y031170D01*
X001660Y031170D01*
X001660Y031630D01*
X001342Y031630D01*
X001268Y031618D01*
X001196Y031595D01*
X001140Y031566D01*
X001140Y031752D01*
X001288Y031690D01*
X002071Y031690D01*
X002116Y031709D01*
X002080Y031620D01*
X001700Y031608D02*
X001660Y031608D01*
X001660Y031450D02*
X001700Y031450D01*
X001700Y031291D02*
X001660Y031291D01*
X001236Y031608D02*
X001140Y031608D01*
X001140Y027170D02*
X003095Y027170D01*
X001218Y026219D02*
X001140Y026219D01*
X001140Y026061D02*
X001169Y026061D01*
X001140Y025110D02*
X001287Y025110D01*
X012890Y014807D02*
X014351Y014807D01*
X014510Y014649D02*
X012890Y014649D01*
X012890Y014490D02*
X014668Y014490D01*
X014749Y014332D02*
X012890Y014332D01*
X012890Y014173D02*
X014947Y014173D01*
X014795Y014015D02*
X012950Y014015D01*
X013036Y013856D02*
X014692Y013856D01*
X014650Y013698D02*
X013038Y013698D01*
X012953Y013539D02*
X014652Y013539D01*
X014718Y013381D02*
X012440Y013381D01*
X012440Y013222D02*
X014858Y013222D01*
X014844Y013064D02*
X012440Y013064D01*
X012440Y012905D02*
X014712Y012905D01*
X014650Y012747D02*
X012440Y012747D01*
X012440Y012588D02*
X014650Y012588D01*
X014698Y012430D02*
X012440Y012430D01*
X012440Y012271D02*
X014809Y012271D01*
X014912Y012113D02*
X012440Y012113D01*
X012440Y011954D02*
X014734Y011954D01*
X014667Y011796D02*
X012440Y011796D01*
X012440Y011637D02*
X014650Y011637D01*
X014677Y011479D02*
X012440Y011479D01*
X012440Y011320D02*
X014760Y011320D01*
X014974Y011162D02*
X012440Y011162D01*
X012440Y011003D02*
X012661Y011003D01*
X012748Y011090D02*
X012490Y010832D01*
X012490Y010650D01*
X012930Y010650D01*
X012930Y010650D01*
X012930Y011090D01*
X013112Y011090D01*
X013370Y010832D01*
X013370Y010650D01*
X012930Y010650D01*
X012930Y010650D01*
X012930Y010650D01*
X012930Y011090D01*
X012748Y011090D01*
X012930Y011003D02*
X012930Y011003D01*
X012930Y010845D02*
X012930Y010845D01*
X012930Y010686D02*
X012930Y010686D01*
X012930Y010650D02*
X012490Y010650D01*
X012490Y010468D01*
X012748Y010210D01*
X012930Y010210D01*
X013112Y010210D01*
X013370Y010468D01*
X013370Y010650D01*
X012930Y010650D01*
X012930Y010210D01*
X012930Y010650D01*
X012930Y010650D01*
X012930Y010528D02*
X012930Y010528D01*
X012930Y010369D02*
X012930Y010369D01*
X012930Y010211D02*
X012930Y010211D01*
X013113Y010211D02*
X014870Y010211D01*
X014832Y010052D02*
X013122Y010052D01*
X013280Y009894D02*
X014707Y009894D01*
X014650Y009735D02*
X013350Y009735D01*
X013350Y009577D02*
X014650Y009577D01*
X014702Y009418D02*
X013292Y009418D01*
X013133Y009260D02*
X014821Y009260D01*
X015006Y009070D02*
X014760Y008824D01*
X014760Y008476D01*
X015006Y008230D01*
X015354Y008230D01*
X015600Y008476D01*
X015600Y008824D01*
X015354Y009070D01*
X015006Y009070D01*
X014879Y008943D02*
X012427Y008943D01*
X012440Y009101D02*
X016432Y009101D01*
X016274Y009260D02*
X015539Y009260D01*
X015658Y009418D02*
X016115Y009418D01*
X015957Y009577D02*
X015710Y009577D01*
X015710Y009735D02*
X015798Y009735D01*
X015998Y009090D02*
X015740Y008832D01*
X015740Y008650D01*
X016180Y008650D01*
X016180Y008650D01*
X016180Y008650D01*
X016180Y009090D01*
X015998Y009090D01*
X015850Y008943D02*
X015481Y008943D01*
X015600Y008784D02*
X015740Y008784D01*
X015740Y008650D02*
X015740Y008468D01*
X015998Y008210D01*
X016180Y008210D01*
X016180Y008650D01*
X015740Y008650D01*
X015740Y008626D02*
X015600Y008626D01*
X015591Y008467D02*
X015741Y008467D01*
X015899Y008309D02*
X015432Y008309D01*
X014928Y008309D02*
X005961Y008309D01*
X005862Y008210D02*
X006120Y008468D01*
X006120Y008650D01*
X006120Y008832D01*
X005862Y009090D01*
X005680Y009090D01*
X005680Y008650D01*
X006120Y008650D01*
X005680Y008650D01*
X005680Y008650D01*
X005680Y008650D01*
X005680Y008210D01*
X005862Y008210D01*
X005680Y008210D02*
X005680Y008650D01*
X005680Y008650D01*
X005680Y008650D01*
X005240Y008650D01*
X005240Y008832D01*
X005498Y009090D01*
X005680Y009090D01*
X005680Y008650D01*
X005240Y008650D01*
X005240Y008468D01*
X005498Y008210D01*
X005680Y008210D01*
X005680Y008309D02*
X005680Y008309D01*
X005680Y008467D02*
X005680Y008467D01*
X005680Y008626D02*
X005680Y008626D01*
X005680Y008784D02*
X005680Y008784D01*
X005680Y008943D02*
X005680Y008943D01*
X006010Y008943D02*
X010145Y008943D01*
X009986Y009101D02*
X004390Y009101D01*
X004981Y008943D02*
X005350Y008943D01*
X005240Y008784D02*
X005100Y008784D01*
X005100Y008626D02*
X005240Y008626D01*
X005241Y008467D02*
X005091Y008467D01*
X004932Y008309D02*
X005399Y008309D01*
X004852Y008150D02*
X016470Y008150D01*
X016461Y008309D02*
X016470Y008309D01*
X016180Y008309D02*
X016180Y008309D01*
X016180Y008467D02*
X016180Y008467D01*
X016180Y008626D02*
X016180Y008626D01*
X016180Y008784D02*
X016180Y008784D01*
X016180Y008943D02*
X016180Y008943D01*
X014760Y008784D02*
X012278Y008784D01*
X012440Y009260D02*
X012727Y009260D01*
X012568Y009418D02*
X012440Y009418D01*
X012440Y009577D02*
X012510Y009577D01*
X012477Y009735D02*
X012440Y009735D01*
X012737Y010211D02*
X012747Y010211D01*
X012589Y010369D02*
X012579Y010369D01*
X012490Y010528D02*
X012440Y010528D01*
X012440Y010686D02*
X012490Y010686D01*
X012502Y010845D02*
X012440Y010845D01*
X013199Y011003D02*
X014783Y011003D01*
X014687Y010845D02*
X013358Y010845D01*
X013370Y010686D02*
X014650Y010686D01*
X014657Y010528D02*
X013370Y010528D01*
X013271Y010369D02*
X014723Y010369D01*
X014760Y008626D02*
X006120Y008626D01*
X006120Y008784D02*
X010332Y008784D01*
X009832Y009260D02*
X005039Y009260D01*
X006119Y008467D02*
X014769Y008467D01*
X016720Y007040D02*
X002350Y007040D01*
X001059Y008309D02*
X000960Y008309D01*
X000960Y008467D02*
X001288Y008467D01*
X000960Y009260D02*
X002477Y009260D01*
X002318Y009418D02*
X000960Y009418D01*
X000960Y009577D02*
X002260Y009577D01*
X002260Y009735D02*
X000960Y009735D01*
X000960Y009894D02*
X002330Y009894D01*
X002488Y010052D02*
X000960Y010052D01*
X018140Y010237D02*
X018140Y018393D01*
X018970Y017563D01*
X018970Y013699D01*
X018875Y013604D01*
X018820Y013472D01*
X018820Y013328D01*
X018875Y013196D01*
X018976Y013095D01*
X019108Y013040D01*
X019252Y013040D01*
X019384Y013095D01*
X019470Y013181D01*
X019470Y013063D01*
X020687Y011846D01*
X020650Y011755D01*
X020650Y011545D01*
X020731Y011350D01*
X020880Y011201D01*
X021002Y011150D01*
X020880Y011099D01*
X020731Y010950D01*
X020650Y010755D01*
X020650Y010545D01*
X020731Y010350D01*
X020880Y010201D01*
X021002Y010150D01*
X020880Y010099D01*
X020731Y009950D01*
X020650Y009755D01*
X020650Y009545D01*
X020731Y009350D01*
X020880Y009201D01*
X021075Y009120D01*
X021285Y009120D01*
X021454Y009190D01*
X022267Y009190D01*
X022390Y009313D01*
X022517Y009440D01*
X024116Y009440D01*
X024064Y009388D01*
X024000Y009234D01*
X024000Y009066D01*
X024064Y008912D01*
X024182Y008794D01*
X024336Y008730D01*
X025024Y008730D01*
X025178Y008794D01*
X025296Y008912D01*
X025355Y009053D01*
X025818Y008590D01*
X025680Y008590D01*
X025680Y008150D01*
X027008Y008150D01*
X026850Y007991D02*
X026120Y007991D01*
X026120Y007968D02*
X026120Y008150D01*
X026120Y008165D01*
X026252Y008165D01*
X026384Y008220D01*
X026485Y008321D01*
X026540Y008453D01*
X026540Y008597D01*
X026485Y008729D01*
X026384Y008830D01*
X026252Y008885D01*
X026117Y008885D01*
X025265Y009737D01*
X025193Y009809D01*
X025296Y009912D01*
X025360Y010066D01*
X025360Y010234D01*
X025296Y010388D01*
X025178Y010506D01*
X025024Y010570D01*
X024336Y010570D01*
X024182Y010506D01*
X024064Y010388D01*
X024052Y010360D01*
X023265Y010360D01*
X023265Y010454D01*
X023358Y010415D01*
X023502Y010415D01*
X023634Y010470D01*
X023735Y010571D01*
X023790Y010703D01*
X023790Y010838D01*
X024005Y011053D01*
X024064Y010912D01*
X024182Y010794D01*
X024336Y010730D01*
X025024Y010730D01*
X025178Y010794D01*
X025296Y010912D01*
X025360Y011066D01*
X025360Y011234D01*
X025296Y011388D01*
X025178Y011506D01*
X025024Y011570D01*
X024522Y011570D01*
X024682Y011730D01*
X025024Y011730D01*
X025178Y011794D01*
X025296Y011912D01*
X025360Y012066D01*
X025360Y012234D01*
X025296Y012388D01*
X025178Y012506D01*
X025024Y012570D01*
X024336Y012570D01*
X024182Y012506D01*
X024064Y012388D01*
X024000Y012234D01*
X024000Y012066D01*
X024064Y011912D01*
X024167Y011809D01*
X023493Y011135D01*
X023358Y011135D01*
X023265Y011096D01*
X023265Y011226D01*
X023360Y011321D01*
X023415Y011453D01*
X023415Y011597D01*
X023360Y011729D01*
X023259Y011830D01*
X023160Y011871D01*
X023235Y011946D01*
X023290Y012078D01*
X023290Y012222D01*
X023235Y012354D01*
X023140Y012449D01*
X023140Y012829D01*
X023233Y012790D01*
X023377Y012790D01*
X023509Y012845D01*
X023604Y012940D01*
X024052Y012940D01*
X024064Y012912D01*
X024182Y012794D01*
X024336Y012730D01*
X025024Y012730D01*
X025178Y012794D01*
X025296Y012912D01*
X025360Y013066D01*
X025360Y013234D01*
X025296Y013388D01*
X025178Y013506D01*
X025024Y013570D01*
X024336Y013570D01*
X024182Y013506D01*
X024064Y013388D01*
X024052Y013360D01*
X023604Y013360D01*
X023509Y013455D01*
X023377Y013510D01*
X023233Y013510D01*
X023140Y013471D01*
X023140Y013704D01*
X023233Y013665D01*
X023377Y013665D01*
X023509Y013720D01*
X023610Y013821D01*
X023665Y013953D01*
X023665Y014097D01*
X023610Y014229D01*
X023515Y014324D01*
X023515Y014688D01*
X024000Y015173D01*
X024000Y015066D01*
X024064Y014912D01*
X024182Y014794D01*
X024336Y014730D01*
X025024Y014730D01*
X025178Y014794D01*
X025296Y014912D01*
X025360Y015066D01*
X025360Y015234D01*
X025296Y015388D01*
X025178Y015506D01*
X025024Y015570D01*
X024397Y015570D01*
X024557Y015730D01*
X025024Y015730D01*
X025178Y015794D01*
X025296Y015912D01*
X025360Y016066D01*
X025360Y016234D01*
X025296Y016388D01*
X025178Y016506D01*
X025024Y016570D01*
X024336Y016570D01*
X024182Y016506D01*
X024064Y016388D01*
X024000Y016234D01*
X024000Y016066D01*
X024064Y015912D01*
X024105Y015872D01*
X023218Y014985D01*
X023140Y014907D01*
X023140Y016829D01*
X023233Y016790D01*
X023377Y016790D01*
X023509Y016845D01*
X023604Y016940D01*
X024052Y016940D01*
X024064Y016912D01*
X024182Y016794D01*
X024336Y016730D01*
X025024Y016730D01*
X025178Y016794D01*
X025296Y016912D01*
X025360Y017066D01*
X025360Y017234D01*
X025296Y017388D01*
X025178Y017506D01*
X025024Y017570D01*
X024336Y017570D01*
X024182Y017506D01*
X024064Y017388D01*
X024052Y017360D01*
X023604Y017360D01*
X023509Y017455D01*
X023437Y017485D01*
X024005Y018053D01*
X024064Y017912D01*
X024182Y017794D01*
X024336Y017730D01*
X025024Y017730D01*
X025178Y017794D01*
X025296Y017912D01*
X025360Y018066D01*
X025360Y018234D01*
X025296Y018388D01*
X025244Y018440D01*
X027095Y018440D01*
X027095Y014438D01*
X030105Y011428D01*
X030064Y011388D01*
X030000Y011234D01*
X030000Y011066D01*
X030064Y010912D01*
X030182Y010794D01*
X030336Y010730D01*
X031024Y010730D01*
X031178Y010794D01*
X031296Y010912D01*
X031360Y011066D01*
X031360Y011234D01*
X031296Y011388D01*
X031178Y011506D01*
X031024Y011570D01*
X030557Y011570D01*
X030397Y011730D01*
X031024Y011730D01*
X031178Y011794D01*
X031296Y011912D01*
X031360Y012066D01*
X031360Y012234D01*
X031296Y012388D01*
X031244Y012440D01*
X031616Y012440D01*
X031564Y012388D01*
X031500Y012234D01*
X031500Y012066D01*
X031564Y011912D01*
X031682Y011794D01*
X031836Y011730D01*
X032524Y011730D01*
X032678Y011794D01*
X032720Y011836D01*
X032720Y011464D01*
X032678Y011506D01*
X032524Y011570D01*
X031836Y011570D01*
X031682Y011506D01*
X031564Y011388D01*
X031500Y011234D01*
X031500Y011066D01*
X031564Y010912D01*
X031682Y010794D01*
X031836Y010730D01*
X032524Y010730D01*
X032678Y010794D01*
X032720Y010836D01*
X032720Y010464D01*
X032678Y010506D01*
X032524Y010570D01*
X031836Y010570D01*
X031682Y010506D01*
X031564Y010388D01*
X031500Y010234D01*
X031500Y010066D01*
X031564Y009912D01*
X031616Y009860D01*
X031244Y009860D01*
X031296Y009912D01*
X031360Y010066D01*
X031360Y010234D01*
X031296Y010388D01*
X031178Y010506D01*
X031024Y010570D01*
X030336Y010570D01*
X030182Y010506D01*
X030064Y010388D01*
X030000Y010234D01*
X030000Y010066D01*
X030064Y009912D01*
X030116Y009860D01*
X027593Y009860D01*
X027470Y009737D01*
X027470Y008612D01*
X026218Y007360D01*
X020649Y007360D01*
X020735Y007446D01*
X020790Y007578D01*
X020790Y007722D01*
X020735Y007854D01*
X020634Y007955D01*
X020502Y008010D01*
X020367Y008010D01*
X018140Y010237D01*
X018166Y010211D02*
X020870Y010211D01*
X020832Y010052D02*
X018325Y010052D01*
X018483Y009894D02*
X020707Y009894D01*
X020650Y009735D02*
X018642Y009735D01*
X018800Y009577D02*
X020650Y009577D01*
X020702Y009418D02*
X018959Y009418D01*
X019117Y009260D02*
X020821Y009260D01*
X019910Y008467D02*
X024403Y008467D01*
X024506Y008570D02*
X024260Y008324D01*
X024260Y007976D01*
X024506Y007730D01*
X024854Y007730D01*
X025100Y007976D01*
X025100Y008324D01*
X024854Y008570D01*
X024506Y008570D01*
X024260Y008309D02*
X020068Y008309D01*
X020227Y008150D02*
X024260Y008150D01*
X024260Y007991D02*
X020546Y007991D01*
X020744Y007833D02*
X024403Y007833D01*
X024957Y007833D02*
X025375Y007833D01*
X025498Y007710D02*
X025680Y007710D01*
X025862Y007710D01*
X026120Y007968D01*
X026120Y008150D02*
X025680Y008150D01*
X026120Y008150D01*
X025985Y007833D02*
X026691Y007833D01*
X026533Y007674D02*
X020790Y007674D01*
X020764Y007516D02*
X026374Y007516D01*
X026651Y007199D02*
X032557Y007199D01*
X032468Y007110D02*
X026562Y007110D01*
X027890Y008438D01*
X027890Y009440D01*
X030116Y009440D01*
X030064Y009388D01*
X030000Y009234D01*
X030000Y009066D01*
X030064Y008912D01*
X030182Y008794D01*
X030336Y008730D01*
X031024Y008730D01*
X031178Y008794D01*
X031296Y008912D01*
X031360Y009066D01*
X031360Y009234D01*
X031296Y009388D01*
X031244Y009440D01*
X031616Y009440D01*
X031564Y009388D01*
X031500Y009234D01*
X031500Y009066D01*
X031564Y008912D01*
X031682Y008794D01*
X031836Y008730D01*
X031920Y008730D01*
X031920Y008484D01*
X031760Y008324D01*
X031760Y007976D01*
X032006Y007730D01*
X032354Y007730D01*
X032600Y007976D01*
X032600Y008324D01*
X032440Y008484D01*
X032440Y008730D01*
X032524Y008730D01*
X032678Y008794D01*
X032796Y008912D01*
X032860Y009066D01*
X032860Y009234D01*
X032796Y009388D01*
X032693Y009491D01*
X032765Y009563D01*
X033140Y009938D01*
X033140Y013737D01*
X033017Y013860D01*
X032744Y013860D01*
X032796Y013912D01*
X032860Y014066D01*
X032860Y014234D01*
X032796Y014388D01*
X032678Y014506D01*
X032524Y014570D01*
X031836Y014570D01*
X031682Y014506D01*
X031640Y014464D01*
X031640Y014836D01*
X031682Y014794D01*
X031836Y014730D01*
X032524Y014730D01*
X032678Y014794D01*
X032796Y014912D01*
X032860Y015066D01*
X032860Y015234D01*
X032796Y015388D01*
X032678Y015506D01*
X032524Y015570D01*
X031836Y015570D01*
X031682Y015506D01*
X031640Y015464D01*
X031640Y015836D01*
X031682Y015794D01*
X031836Y015730D01*
X032524Y015730D01*
X032678Y015794D01*
X032796Y015912D01*
X032860Y016066D01*
X032860Y016234D01*
X032796Y016388D01*
X032678Y016506D01*
X032524Y016570D01*
X031836Y016570D01*
X031682Y016506D01*
X031640Y016464D01*
X031640Y016836D01*
X031682Y016794D01*
X031836Y016730D01*
X032524Y016730D01*
X032678Y016794D01*
X032796Y016912D01*
X032860Y017066D01*
X032860Y017234D01*
X032796Y017388D01*
X032678Y017506D01*
X032524Y017570D01*
X031836Y017570D01*
X031682Y017506D01*
X031640Y017464D01*
X031640Y017836D01*
X031682Y017794D01*
X031836Y017730D01*
X032524Y017730D01*
X032678Y017794D01*
X032796Y017912D01*
X032860Y018066D01*
X032860Y018234D01*
X032796Y018388D01*
X032678Y018506D01*
X032524Y018570D01*
X031836Y018570D01*
X031682Y018506D01*
X031640Y018464D01*
X031640Y018836D01*
X031682Y018794D01*
X031836Y018730D01*
X032524Y018730D01*
X032678Y018794D01*
X032796Y018912D01*
X032860Y019066D01*
X032860Y019234D01*
X032796Y019388D01*
X032755Y019428D01*
X033267Y019940D01*
X033390Y020063D01*
X033390Y020704D01*
X033470Y020671D01*
X033470Y008482D01*
X033362Y008590D01*
X033180Y008590D01*
X033180Y008150D01*
X033180Y008150D01*
X032600Y008150D01*
X032740Y008150D02*
X033180Y008150D01*
X033180Y008150D01*
X033180Y008590D01*
X032998Y008590D01*
X032740Y008332D01*
X032740Y008150D01*
X032740Y007968D01*
X032998Y007710D01*
X033068Y007710D01*
X032468Y007110D01*
X032716Y007357D02*
X026809Y007357D01*
X026968Y007516D02*
X032874Y007516D01*
X033033Y007674D02*
X027126Y007674D01*
X027285Y007833D02*
X031903Y007833D01*
X031760Y007991D02*
X027443Y007991D01*
X027602Y008150D02*
X031760Y008150D01*
X031760Y008309D02*
X027760Y008309D01*
X027890Y008467D02*
X031903Y008467D01*
X031920Y008626D02*
X027890Y008626D01*
X027890Y008784D02*
X030206Y008784D01*
X030051Y008943D02*
X027890Y008943D01*
X027890Y009101D02*
X030000Y009101D01*
X030011Y009260D02*
X027890Y009260D01*
X027890Y009418D02*
X030094Y009418D01*
X030083Y009894D02*
X025277Y009894D01*
X025267Y009735D02*
X027470Y009735D01*
X027470Y009577D02*
X025425Y009577D01*
X025584Y009418D02*
X027470Y009418D01*
X027470Y009260D02*
X025742Y009260D01*
X025901Y009101D02*
X027470Y009101D01*
X027470Y008943D02*
X026059Y008943D01*
X026430Y008784D02*
X027470Y008784D01*
X027470Y008626D02*
X026528Y008626D01*
X026540Y008467D02*
X027325Y008467D01*
X027167Y008309D02*
X026473Y008309D01*
X025783Y008626D02*
X019751Y008626D01*
X019593Y008784D02*
X024206Y008784D01*
X024051Y008943D02*
X019434Y008943D01*
X019276Y009101D02*
X024000Y009101D01*
X024011Y009260D02*
X022336Y009260D01*
X022495Y009418D02*
X024094Y009418D01*
X024056Y010369D02*
X023265Y010369D01*
X023692Y010528D02*
X024234Y010528D01*
X024132Y010845D02*
X023796Y010845D01*
X023783Y010686D02*
X032720Y010686D01*
X032720Y010528D02*
X032626Y010528D01*
X033140Y010528D02*
X033470Y010528D01*
X033470Y010686D02*
X033140Y010686D01*
X033140Y010845D02*
X033470Y010845D01*
X033470Y011003D02*
X033140Y011003D01*
X033140Y011162D02*
X033470Y011162D01*
X033470Y011320D02*
X033140Y011320D01*
X033140Y011479D02*
X033470Y011479D01*
X033470Y011637D02*
X033140Y011637D01*
X033140Y011796D02*
X033470Y011796D01*
X033470Y011954D02*
X033140Y011954D01*
X033140Y012113D02*
X033470Y012113D01*
X033470Y012271D02*
X033140Y012271D01*
X033140Y012430D02*
X033470Y012430D01*
X033470Y012588D02*
X033140Y012588D01*
X033140Y012747D02*
X033470Y012747D01*
X033470Y012905D02*
X033140Y012905D01*
X033140Y013064D02*
X033470Y013064D01*
X033470Y013222D02*
X033140Y013222D01*
X033140Y013381D02*
X033470Y013381D01*
X033470Y013539D02*
X033140Y013539D01*
X033140Y013698D02*
X033470Y013698D01*
X033470Y013856D02*
X033021Y013856D01*
X032838Y014015D02*
X033470Y014015D01*
X033470Y014173D02*
X032860Y014173D01*
X032819Y014332D02*
X033470Y014332D01*
X033470Y014490D02*
X032694Y014490D01*
X032691Y014807D02*
X033470Y014807D01*
X033470Y014649D02*
X031640Y014649D01*
X031640Y014807D02*
X031669Y014807D01*
X031666Y014490D02*
X031640Y014490D01*
X031220Y014490D02*
X031194Y014490D01*
X031178Y014506D02*
X031024Y014570D01*
X030336Y014570D01*
X030182Y014506D01*
X030064Y014388D01*
X030000Y014234D01*
X030000Y014066D01*
X030064Y013912D01*
X030182Y013794D01*
X030336Y013730D01*
X031024Y013730D01*
X031178Y013794D01*
X031271Y013887D01*
X031595Y013563D01*
X031667Y013491D01*
X031564Y013388D01*
X031500Y013234D01*
X031500Y013066D01*
X031564Y012912D01*
X031616Y012860D01*
X031244Y012860D01*
X031296Y012912D01*
X031360Y013066D01*
X031360Y013234D01*
X031296Y013388D01*
X031178Y013506D01*
X031024Y013570D01*
X030336Y013570D01*
X030182Y013506D01*
X030064Y013388D01*
X030005Y013247D01*
X028890Y014362D01*
X028890Y018954D01*
X028983Y018915D01*
X029127Y018915D01*
X029259Y018970D01*
X029360Y019071D01*
X029415Y019203D01*
X029415Y019338D01*
X029515Y019438D01*
X029515Y022954D01*
X029608Y022915D01*
X029752Y022915D01*
X029884Y022970D01*
X029985Y023071D01*
X030000Y023107D01*
X030000Y023066D01*
X030064Y022912D01*
X030182Y022794D01*
X030336Y022730D01*
X031024Y022730D01*
X031178Y022794D01*
X031296Y022912D01*
X031360Y023066D01*
X031360Y023234D01*
X031296Y023388D01*
X031178Y023506D01*
X031024Y023570D01*
X030557Y023570D01*
X030417Y023710D01*
X030680Y023710D01*
X030975Y023710D01*
X031043Y023721D01*
X031109Y023742D01*
X031171Y023774D01*
X031227Y023814D01*
X031276Y023863D01*
X031316Y023919D01*
X031348Y023981D01*
X031369Y024047D01*
X031380Y024115D01*
X031380Y024150D01*
X031380Y024185D01*
X031369Y024253D01*
X031348Y024319D01*
X031316Y024381D01*
X031276Y024437D01*
X031227Y024486D01*
X031171Y024526D01*
X031109Y024558D01*
X031043Y024579D01*
X030975Y024590D01*
X030680Y024590D01*
X030680Y024150D01*
X030680Y024150D01*
X031380Y024150D01*
X030680Y024150D01*
X030680Y024150D01*
X030680Y024590D01*
X030385Y024590D01*
X030317Y024579D01*
X030251Y024558D01*
X030189Y024526D01*
X030140Y024490D01*
X030140Y024726D01*
X030235Y024821D01*
X030290Y024953D01*
X030290Y025097D01*
X030251Y025190D01*
X030642Y025190D01*
X030765Y025313D01*
X031330Y025878D01*
X031498Y025710D01*
X031680Y025710D01*
X031862Y025710D01*
X032120Y025968D01*
X032120Y026150D01*
X032120Y026332D01*
X031862Y026590D01*
X031680Y026590D01*
X031680Y026150D01*
X032120Y026150D01*
X031680Y026150D01*
X031680Y026150D01*
X031680Y026150D01*
X031680Y025710D01*
X031680Y026150D01*
X031680Y026150D01*
X031680Y026590D01*
X031498Y026590D01*
X031330Y026422D01*
X031277Y026475D01*
X031418Y026534D01*
X031536Y026652D01*
X031600Y026806D01*
X031600Y027494D01*
X031536Y027648D01*
X031418Y027766D01*
X031264Y027830D01*
X031096Y027830D01*
X030942Y027766D01*
X030890Y027714D01*
X030890Y028351D01*
X030985Y028446D01*
X031040Y028578D01*
X031040Y028722D01*
X030985Y028854D01*
X030884Y028955D01*
X030752Y029010D01*
X030608Y029010D01*
X030515Y028971D01*
X030515Y029313D01*
X030767Y029565D01*
X030839Y029637D01*
X030942Y029534D01*
X031096Y029470D01*
X031264Y029470D01*
X031418Y029534D01*
X031536Y029652D01*
X031600Y029806D01*
X031600Y030494D01*
X031536Y030648D01*
X031418Y030766D01*
X031264Y030830D01*
X031096Y030830D01*
X030942Y030766D01*
X030890Y030714D01*
X030890Y036268D01*
X030911Y036247D01*
X031086Y036175D01*
X031274Y036175D01*
X031284Y036179D01*
X031295Y036167D01*
X031295Y032774D01*
X031250Y032729D01*
X031195Y032597D01*
X031195Y032453D01*
X031250Y032321D01*
X031351Y032220D01*
X031483Y032165D01*
X031627Y032165D01*
X031759Y032220D01*
X031860Y032321D01*
X031915Y032453D01*
X031915Y032597D01*
X031860Y032729D01*
X031815Y032774D01*
X031815Y036315D01*
X031975Y036155D01*
X032180Y036155D01*
X032340Y036155D01*
X032375Y036071D01*
X032476Y035970D01*
X032595Y035921D01*
X032595Y035574D01*
X032500Y035479D01*
X032445Y035347D01*
X032445Y035203D01*
X032500Y035071D01*
X032601Y034970D01*
X032733Y034915D01*
X032877Y034915D01*
X032970Y034954D01*
X032970Y034612D01*
X032618Y034260D01*
X032483Y034260D01*
X032351Y034205D01*
X032250Y034104D01*
X032195Y033972D01*
X032195Y033828D01*
X032250Y033696D01*
X032351Y033595D01*
X032483Y033540D01*
X032627Y033540D01*
X032759Y033595D01*
X032860Y033696D01*
X032915Y033828D01*
X032915Y033963D01*
X033267Y034315D01*
X033390Y034438D01*
X033390Y035318D01*
X033498Y035210D01*
X033862Y035210D01*
X034120Y035468D01*
X034120Y035832D01*
X033862Y036090D01*
X033498Y036090D01*
X033390Y035982D01*
X033390Y036318D01*
X033498Y036210D01*
X033823Y036210D01*
X034093Y035940D01*
X034348Y035940D01*
X034240Y035832D01*
X034240Y035468D01*
X034498Y035210D01*
X034568Y035210D01*
X032720Y033362D01*
X032720Y028688D01*
X032798Y028610D01*
X032726Y028580D01*
X032625Y028479D01*
X032570Y028347D01*
X032570Y028203D01*
X032625Y028071D01*
X032720Y027976D01*
X032720Y024464D01*
X032678Y024506D01*
X032524Y024570D01*
X031836Y024570D01*
X031682Y024506D01*
X031564Y024388D01*
X031500Y024234D01*
X031500Y024066D01*
X031564Y023912D01*
X031682Y023794D01*
X031836Y023730D01*
X032463Y023730D01*
X032303Y023570D01*
X031836Y023570D01*
X031682Y023506D01*
X031564Y023388D01*
X031500Y023234D01*
X031500Y023066D01*
X031564Y022912D01*
X031682Y022794D01*
X031836Y022730D01*
X032524Y022730D01*
X032678Y022794D01*
X032796Y022912D01*
X032860Y023066D01*
X032860Y023234D01*
X032796Y023388D01*
X032755Y023428D01*
X032970Y023643D01*
X032970Y020237D01*
X032860Y020127D01*
X032860Y020234D01*
X032796Y020388D01*
X032678Y020506D01*
X032524Y020570D01*
X031836Y020570D01*
X031682Y020506D01*
X031564Y020388D01*
X031500Y020234D01*
X031500Y020066D01*
X031564Y019912D01*
X031605Y019872D01*
X031343Y019610D01*
X031220Y019487D01*
X031220Y019464D01*
X031178Y019506D01*
X031024Y019570D01*
X030336Y019570D01*
X030182Y019506D01*
X030064Y019388D01*
X030000Y019234D01*
X030000Y019066D01*
X030064Y018912D01*
X030182Y018794D01*
X030336Y018730D01*
X031024Y018730D01*
X031178Y018794D01*
X031220Y018836D01*
X031220Y018464D01*
X031178Y018506D01*
X031024Y018570D01*
X030336Y018570D01*
X030182Y018506D01*
X030064Y018388D01*
X030000Y018234D01*
X030000Y018066D01*
X030064Y017912D01*
X030182Y017794D01*
X030336Y017730D01*
X031024Y017730D01*
X031178Y017794D01*
X031220Y017836D01*
X031220Y017464D01*
X031178Y017506D01*
X031024Y017570D01*
X030336Y017570D01*
X030182Y017506D01*
X030064Y017388D01*
X030000Y017234D01*
X030000Y017066D01*
X030064Y016912D01*
X030182Y016794D01*
X030336Y016730D01*
X031024Y016730D01*
X031178Y016794D01*
X031220Y016836D01*
X031220Y016464D01*
X031178Y016506D01*
X031024Y016570D01*
X030336Y016570D01*
X030182Y016506D01*
X030064Y016388D01*
X030000Y016234D01*
X030000Y016066D01*
X030064Y015912D01*
X030182Y015794D01*
X030336Y015730D01*
X031024Y015730D01*
X031178Y015794D01*
X031220Y015836D01*
X031220Y015464D01*
X031178Y015506D01*
X031024Y015570D01*
X030336Y015570D01*
X030182Y015506D01*
X030064Y015388D01*
X030000Y015234D01*
X030000Y015066D01*
X030064Y014912D01*
X030182Y014794D01*
X030336Y014730D01*
X031024Y014730D01*
X031178Y014794D01*
X031220Y014836D01*
X031220Y014464D01*
X031178Y014506D01*
X031220Y014649D02*
X028890Y014649D01*
X028890Y014807D02*
X030169Y014807D01*
X030042Y014966D02*
X028890Y014966D01*
X028890Y015124D02*
X030000Y015124D01*
X030020Y015283D02*
X028890Y015283D01*
X028890Y015441D02*
X030117Y015441D01*
X030269Y015758D02*
X028890Y015758D01*
X028890Y015600D02*
X031220Y015600D01*
X031220Y015758D02*
X031091Y015758D01*
X031640Y015758D02*
X031769Y015758D01*
X031640Y015600D02*
X033470Y015600D01*
X033470Y015758D02*
X032591Y015758D01*
X032798Y015917D02*
X033470Y015917D01*
X033470Y016075D02*
X032860Y016075D01*
X032860Y016234D02*
X033470Y016234D01*
X033470Y016392D02*
X032792Y016392D01*
X032571Y016551D02*
X033470Y016551D01*
X033470Y016709D02*
X031640Y016709D01*
X031640Y016551D02*
X031789Y016551D01*
X031220Y016551D02*
X031071Y016551D01*
X031220Y016709D02*
X028890Y016709D01*
X028890Y016551D02*
X030289Y016551D01*
X030068Y016392D02*
X028890Y016392D01*
X028890Y016234D02*
X030000Y016234D01*
X030000Y016075D02*
X028890Y016075D01*
X028890Y015917D02*
X030062Y015917D01*
X030109Y016868D02*
X028890Y016868D01*
X028890Y017026D02*
X030017Y017026D01*
X030000Y017185D02*
X028890Y017185D01*
X028890Y017343D02*
X030045Y017343D01*
X030178Y017502D02*
X028890Y017502D01*
X028890Y017660D02*
X031220Y017660D01*
X031220Y017502D02*
X031182Y017502D01*
X031202Y017819D02*
X031220Y017819D01*
X031640Y017819D02*
X031658Y017819D01*
X031640Y017660D02*
X033470Y017660D01*
X033470Y017502D02*
X032682Y017502D01*
X032815Y017343D02*
X033470Y017343D01*
X033470Y017185D02*
X032860Y017185D01*
X032843Y017026D02*
X033470Y017026D01*
X033470Y016868D02*
X032751Y016868D01*
X032702Y017819D02*
X033470Y017819D01*
X033470Y017977D02*
X032823Y017977D01*
X032860Y018136D02*
X033470Y018136D01*
X033470Y018294D02*
X032835Y018294D01*
X032731Y018453D02*
X033470Y018453D01*
X033470Y018611D02*
X031640Y018611D01*
X031640Y018770D02*
X031741Y018770D01*
X031220Y018770D02*
X031119Y018770D01*
X031220Y018611D02*
X028890Y018611D01*
X028890Y018453D02*
X030129Y018453D01*
X030025Y018294D02*
X028890Y018294D01*
X028890Y018136D02*
X030000Y018136D01*
X030037Y017977D02*
X028890Y017977D01*
X028890Y017819D02*
X030158Y017819D01*
X030241Y018770D02*
X028890Y018770D01*
X028890Y018928D02*
X028952Y018928D01*
X029158Y018928D02*
X030057Y018928D01*
X030000Y019087D02*
X029367Y019087D01*
X029415Y019245D02*
X030005Y019245D01*
X030080Y019404D02*
X029481Y019404D01*
X029515Y019562D02*
X030317Y019562D01*
X030336Y019730D02*
X030182Y019794D01*
X030064Y019912D01*
X030000Y020066D01*
X030000Y020234D01*
X030064Y020388D01*
X030182Y020506D01*
X030336Y020570D01*
X031024Y020570D01*
X031178Y020506D01*
X031296Y020388D01*
X031360Y020234D01*
X031360Y020066D01*
X031296Y019912D01*
X031178Y019794D01*
X031024Y019730D01*
X030336Y019730D01*
X030097Y019879D02*
X029515Y019879D01*
X029515Y019721D02*
X031454Y019721D01*
X031597Y019879D02*
X031263Y019879D01*
X031348Y020038D02*
X031512Y020038D01*
X031500Y020196D02*
X031360Y020196D01*
X031310Y020355D02*
X031550Y020355D01*
X031699Y020513D02*
X031161Y020513D01*
X031024Y020730D02*
X031178Y020794D01*
X031296Y020912D01*
X031360Y021066D01*
X031360Y021234D01*
X031296Y021388D01*
X031178Y021506D01*
X031024Y021570D01*
X030336Y021570D01*
X030182Y021506D01*
X030064Y021388D01*
X030000Y021234D01*
X030000Y021066D01*
X030064Y020912D01*
X030182Y020794D01*
X030336Y020730D01*
X031024Y020730D01*
X031214Y020830D02*
X031646Y020830D01*
X031682Y020794D02*
X031836Y020730D01*
X032524Y020730D01*
X032678Y020794D01*
X032796Y020912D01*
X032860Y021066D01*
X032860Y021234D01*
X032796Y021388D01*
X032678Y021506D01*
X032524Y021570D01*
X031836Y021570D01*
X031682Y021506D01*
X031564Y021388D01*
X031500Y021234D01*
X031500Y021066D01*
X031564Y020912D01*
X031682Y020794D01*
X031532Y020989D02*
X031328Y020989D01*
X031360Y021147D02*
X031500Y021147D01*
X031530Y021306D02*
X031330Y021306D01*
X031220Y021464D02*
X031640Y021464D01*
X031713Y021781D02*
X031147Y021781D01*
X031178Y021794D02*
X031296Y021912D01*
X031360Y022066D01*
X031360Y022234D01*
X031296Y022388D01*
X031178Y022506D01*
X031024Y022570D01*
X030336Y022570D01*
X030182Y022506D01*
X030064Y022388D01*
X030000Y022234D01*
X030000Y022066D01*
X030064Y021912D01*
X030182Y021794D01*
X030336Y021730D01*
X031024Y021730D01*
X031178Y021794D01*
X031307Y021940D02*
X031553Y021940D01*
X031564Y021912D02*
X031682Y021794D01*
X031836Y021730D01*
X032524Y021730D01*
X032678Y021794D01*
X032796Y021912D01*
X032860Y022066D01*
X032860Y022234D01*
X032796Y022388D01*
X032678Y022506D01*
X032524Y022570D01*
X031836Y022570D01*
X031682Y022506D01*
X031564Y022388D01*
X031500Y022234D01*
X031500Y022066D01*
X031564Y021912D01*
X031500Y022098D02*
X031360Y022098D01*
X031350Y022257D02*
X031510Y022257D01*
X031591Y022415D02*
X031269Y022415D01*
X031028Y022732D02*
X031832Y022732D01*
X031586Y022891D02*
X031274Y022891D01*
X031353Y023049D02*
X031507Y023049D01*
X031500Y023208D02*
X031360Y023208D01*
X031305Y023366D02*
X031555Y023366D01*
X031727Y023525D02*
X031133Y023525D01*
X031254Y023842D02*
X031635Y023842D01*
X031528Y024000D02*
X031354Y024000D01*
X031380Y024159D02*
X031500Y024159D01*
X031535Y024317D02*
X031348Y024317D01*
X031237Y024476D02*
X031652Y024476D01*
X030680Y024476D02*
X030680Y024476D01*
X030680Y024317D02*
X030680Y024317D01*
X030680Y024159D02*
X030680Y024159D01*
X030680Y024150D02*
X030680Y023710D01*
X030680Y024150D01*
X030680Y024150D01*
X030680Y024000D02*
X030680Y024000D01*
X030680Y023842D02*
X030680Y023842D01*
X030444Y023683D02*
X032416Y023683D01*
X032852Y023525D02*
X032970Y023525D01*
X032970Y023366D02*
X032805Y023366D01*
X032860Y023208D02*
X032970Y023208D01*
X032970Y023049D02*
X032853Y023049D01*
X032774Y022891D02*
X032970Y022891D01*
X032970Y022732D02*
X032528Y022732D01*
X032769Y022415D02*
X032970Y022415D01*
X032970Y022257D02*
X032850Y022257D01*
X032860Y022098D02*
X032970Y022098D01*
X032970Y021940D02*
X032807Y021940D01*
X032647Y021781D02*
X032970Y021781D01*
X032970Y021623D02*
X029515Y021623D01*
X029515Y021781D02*
X030213Y021781D01*
X030053Y021940D02*
X029515Y021940D01*
X029515Y022098D02*
X030000Y022098D01*
X030010Y022257D02*
X029515Y022257D01*
X029515Y022415D02*
X030091Y022415D01*
X030332Y022732D02*
X029515Y022732D01*
X029515Y022574D02*
X032970Y022574D01*
X032970Y021464D02*
X032720Y021464D01*
X032830Y021306D02*
X032970Y021306D01*
X032970Y021147D02*
X032860Y021147D01*
X032828Y020989D02*
X032970Y020989D01*
X032970Y020830D02*
X032714Y020830D01*
X032970Y020672D02*
X029515Y020672D01*
X029515Y020830D02*
X030146Y020830D01*
X030032Y020989D02*
X029515Y020989D01*
X029515Y021147D02*
X030000Y021147D01*
X030030Y021306D02*
X029515Y021306D01*
X029515Y021464D02*
X030140Y021464D01*
X030199Y020513D02*
X029515Y020513D01*
X029515Y020355D02*
X030050Y020355D01*
X030000Y020196D02*
X029515Y020196D01*
X029515Y020038D02*
X030012Y020038D01*
X031043Y019562D02*
X031295Y019562D01*
X032619Y018770D02*
X033470Y018770D01*
X033470Y018928D02*
X032803Y018928D01*
X032860Y019087D02*
X033470Y019087D01*
X033470Y019245D02*
X032855Y019245D01*
X032780Y019404D02*
X033470Y019404D01*
X033470Y019562D02*
X032889Y019562D01*
X033048Y019721D02*
X033470Y019721D01*
X033470Y019879D02*
X033206Y019879D01*
X033365Y020038D02*
X033470Y020038D01*
X033470Y020196D02*
X033390Y020196D01*
X033390Y020355D02*
X033470Y020355D01*
X033470Y020513D02*
X033390Y020513D01*
X033390Y020672D02*
X033468Y020672D01*
X032970Y020513D02*
X032661Y020513D01*
X032810Y020355D02*
X032970Y020355D01*
X032929Y020196D02*
X032860Y020196D01*
X031678Y017502D02*
X031640Y017502D01*
X032743Y015441D02*
X033470Y015441D01*
X033470Y015283D02*
X032840Y015283D01*
X032860Y015124D02*
X033470Y015124D01*
X033470Y014966D02*
X032818Y014966D01*
X031461Y013698D02*
X029554Y013698D01*
X029396Y013856D02*
X030120Y013856D01*
X030022Y014015D02*
X029237Y014015D01*
X029079Y014173D02*
X030000Y014173D01*
X030041Y014332D02*
X028920Y014332D01*
X028890Y014490D02*
X030166Y014490D01*
X031191Y014807D02*
X031220Y014807D01*
X031240Y013856D02*
X031302Y013856D01*
X031098Y013539D02*
X031619Y013539D01*
X031561Y013381D02*
X031299Y013381D01*
X031360Y013222D02*
X031500Y013222D01*
X031501Y013064D02*
X031359Y013064D01*
X031289Y012905D02*
X031571Y012905D01*
X031606Y012430D02*
X031254Y012430D01*
X031344Y012271D02*
X031516Y012271D01*
X031500Y012113D02*
X031360Y012113D01*
X031313Y011954D02*
X031547Y011954D01*
X031681Y011796D02*
X031179Y011796D01*
X031205Y011479D02*
X031655Y011479D01*
X031536Y011320D02*
X031324Y011320D01*
X031360Y011162D02*
X031500Y011162D01*
X031526Y011003D02*
X031334Y011003D01*
X031228Y010845D02*
X031632Y010845D01*
X031734Y010528D02*
X031126Y010528D01*
X031304Y010369D02*
X031556Y010369D01*
X031500Y010211D02*
X031360Y010211D01*
X031354Y010052D02*
X031506Y010052D01*
X031583Y009894D02*
X031277Y009894D01*
X031266Y009418D02*
X031594Y009418D01*
X031511Y009260D02*
X031349Y009260D01*
X031360Y009101D02*
X031500Y009101D01*
X031551Y008943D02*
X031309Y008943D01*
X031154Y008784D02*
X031706Y008784D01*
X032440Y008626D02*
X033470Y008626D01*
X033470Y008784D02*
X032654Y008784D01*
X032809Y008943D02*
X033470Y008943D01*
X033470Y009101D02*
X032860Y009101D01*
X032849Y009260D02*
X033470Y009260D01*
X033470Y009418D02*
X032766Y009418D01*
X032778Y009577D02*
X033470Y009577D01*
X033470Y009735D02*
X032937Y009735D01*
X033095Y009894D02*
X033470Y009894D01*
X033470Y010052D02*
X033140Y010052D01*
X033140Y010211D02*
X033470Y010211D01*
X033470Y010369D02*
X033140Y010369D01*
X032720Y011479D02*
X032705Y011479D01*
X032720Y011637D02*
X030490Y011637D01*
X030055Y011479D02*
X025205Y011479D01*
X025324Y011320D02*
X030036Y011320D01*
X030000Y011162D02*
X025360Y011162D01*
X025334Y011003D02*
X030026Y011003D01*
X030132Y010845D02*
X025228Y010845D01*
X025126Y010528D02*
X030234Y010528D01*
X030056Y010369D02*
X025304Y010369D01*
X025360Y010211D02*
X030000Y010211D01*
X030006Y010052D02*
X025354Y010052D01*
X025309Y008943D02*
X025466Y008943D01*
X025624Y008784D02*
X025154Y008784D01*
X024957Y008467D02*
X025375Y008467D01*
X025498Y008590D02*
X025240Y008332D01*
X025240Y008150D01*
X025680Y008150D01*
X025680Y008150D01*
X025680Y008150D01*
X025100Y008150D01*
X025240Y008150D02*
X025240Y007968D01*
X025498Y007710D01*
X025680Y007710D02*
X025680Y008150D01*
X025680Y007710D01*
X025680Y007833D02*
X025680Y007833D01*
X025680Y007991D02*
X025680Y007991D01*
X025680Y008150D02*
X025680Y008150D01*
X025680Y008150D01*
X025680Y008590D01*
X025498Y008590D01*
X025680Y008467D02*
X025680Y008467D01*
X025680Y008309D02*
X025680Y008309D01*
X025680Y008150D02*
X025240Y008150D01*
X025240Y008309D02*
X025100Y008309D01*
X025100Y007991D02*
X025240Y007991D01*
X024026Y011003D02*
X023955Y011003D01*
X023678Y011320D02*
X023359Y011320D01*
X023415Y011479D02*
X023837Y011479D01*
X023995Y011637D02*
X023398Y011637D01*
X023294Y011796D02*
X024154Y011796D01*
X024047Y011954D02*
X023238Y011954D01*
X023290Y012113D02*
X024000Y012113D01*
X024016Y012271D02*
X023270Y012271D01*
X023160Y012430D02*
X024106Y012430D01*
X024297Y012747D02*
X023140Y012747D01*
X023140Y012588D02*
X028945Y012588D01*
X029104Y012430D02*
X025254Y012430D01*
X025344Y012271D02*
X029262Y012271D01*
X029421Y012113D02*
X025360Y012113D01*
X025313Y011954D02*
X029579Y011954D01*
X029738Y011796D02*
X025179Y011796D01*
X024589Y011637D02*
X029896Y011637D01*
X028787Y012747D02*
X025063Y012747D01*
X025289Y012905D02*
X028628Y012905D01*
X028470Y013064D02*
X025359Y013064D01*
X025360Y013222D02*
X028311Y013222D01*
X028153Y013381D02*
X025299Y013381D01*
X025098Y013539D02*
X027994Y013539D01*
X027836Y013698D02*
X023455Y013698D01*
X023625Y013856D02*
X024120Y013856D01*
X024064Y013912D02*
X024182Y013794D01*
X024336Y013730D01*
X025024Y013730D01*
X025178Y013794D01*
X025296Y013912D01*
X025360Y014066D01*
X025360Y014234D01*
X025296Y014388D01*
X025178Y014506D01*
X025024Y014570D01*
X024336Y014570D01*
X024182Y014506D01*
X024064Y014388D01*
X024000Y014234D01*
X024000Y014066D01*
X024064Y013912D01*
X024022Y014015D02*
X023665Y014015D01*
X023633Y014173D02*
X024000Y014173D01*
X024041Y014332D02*
X023515Y014332D01*
X023515Y014490D02*
X024166Y014490D01*
X024169Y014807D02*
X023634Y014807D01*
X023515Y014649D02*
X027095Y014649D01*
X027095Y014807D02*
X025191Y014807D01*
X025318Y014966D02*
X027095Y014966D01*
X027095Y015124D02*
X025360Y015124D01*
X025340Y015283D02*
X027095Y015283D01*
X027095Y015441D02*
X025243Y015441D01*
X025091Y015758D02*
X027095Y015758D01*
X027095Y015600D02*
X024426Y015600D01*
X023991Y015758D02*
X023140Y015758D01*
X023140Y015600D02*
X023833Y015600D01*
X023674Y015441D02*
X023140Y015441D01*
X023140Y015283D02*
X023516Y015283D01*
X023357Y015124D02*
X023140Y015124D01*
X023140Y014966D02*
X023199Y014966D01*
X023792Y014966D02*
X024042Y014966D01*
X024000Y015124D02*
X023951Y015124D01*
X024062Y015917D02*
X023140Y015917D01*
X023140Y016075D02*
X024000Y016075D01*
X024000Y016234D02*
X023140Y016234D01*
X023140Y016392D02*
X024068Y016392D01*
X024289Y016551D02*
X023140Y016551D01*
X023140Y016709D02*
X027095Y016709D01*
X027095Y016551D02*
X025071Y016551D01*
X025292Y016392D02*
X027095Y016392D01*
X027095Y016234D02*
X025360Y016234D01*
X025360Y016075D02*
X027095Y016075D01*
X027095Y015917D02*
X025298Y015917D01*
X025251Y016868D02*
X027095Y016868D01*
X027095Y017026D02*
X025343Y017026D01*
X025360Y017185D02*
X027095Y017185D01*
X027095Y017343D02*
X025315Y017343D01*
X025182Y017502D02*
X027095Y017502D01*
X027095Y017660D02*
X023612Y017660D01*
X023453Y017502D02*
X024178Y017502D01*
X024158Y017819D02*
X023770Y017819D01*
X023929Y017977D02*
X024037Y017977D01*
X025202Y017819D02*
X027095Y017819D01*
X027095Y017977D02*
X025323Y017977D01*
X025360Y018136D02*
X027095Y018136D01*
X027095Y018294D02*
X025335Y018294D01*
X024109Y016868D02*
X023532Y016868D01*
X025194Y014490D02*
X027095Y014490D01*
X027202Y014332D02*
X025319Y014332D01*
X025360Y014173D02*
X027360Y014173D01*
X027519Y014015D02*
X025338Y014015D01*
X025240Y013856D02*
X027677Y013856D01*
X029713Y013539D02*
X030262Y013539D01*
X030061Y013381D02*
X029871Y013381D01*
X032679Y011796D02*
X032720Y011796D01*
X032875Y008467D02*
X032457Y008467D01*
X032600Y008309D02*
X032740Y008309D01*
X032740Y008150D02*
X033180Y008150D01*
X033180Y008309D02*
X033180Y008309D01*
X033180Y008467D02*
X033180Y008467D01*
X032740Y007991D02*
X032600Y007991D01*
X032457Y007833D02*
X032875Y007833D01*
X024071Y012905D02*
X023569Y012905D01*
X023584Y013381D02*
X024061Y013381D01*
X024262Y013539D02*
X023140Y013539D01*
X023140Y013698D02*
X023155Y013698D01*
X023265Y011162D02*
X023520Y011162D01*
X020974Y011162D02*
X018140Y011162D01*
X018140Y011320D02*
X020760Y011320D01*
X020677Y011479D02*
X018140Y011479D01*
X018140Y011637D02*
X020650Y011637D01*
X020667Y011796D02*
X018140Y011796D01*
X018140Y011954D02*
X020579Y011954D01*
X020421Y012113D02*
X018140Y012113D01*
X018140Y012271D02*
X020262Y012271D01*
X020104Y012430D02*
X018140Y012430D01*
X018140Y012588D02*
X019945Y012588D01*
X019787Y012747D02*
X018140Y012747D01*
X018140Y012905D02*
X019628Y012905D01*
X019470Y013064D02*
X019308Y013064D01*
X019052Y013064D02*
X018140Y013064D01*
X018140Y013222D02*
X018864Y013222D01*
X018820Y013381D02*
X018140Y013381D01*
X018140Y013539D02*
X018848Y013539D01*
X018968Y013698D02*
X018140Y013698D01*
X018140Y013856D02*
X018970Y013856D01*
X018970Y014015D02*
X018140Y014015D01*
X018140Y014173D02*
X018970Y014173D01*
X018970Y014332D02*
X018140Y014332D01*
X018140Y014490D02*
X018970Y014490D01*
X018970Y014649D02*
X018140Y014649D01*
X018140Y014807D02*
X018970Y014807D01*
X018970Y014966D02*
X018140Y014966D01*
X018140Y015124D02*
X018970Y015124D01*
X018970Y015283D02*
X018140Y015283D01*
X018140Y015441D02*
X018970Y015441D01*
X018970Y015600D02*
X018140Y015600D01*
X018140Y015758D02*
X018970Y015758D01*
X018970Y015917D02*
X018140Y015917D01*
X018140Y016075D02*
X018970Y016075D01*
X018970Y016234D02*
X018140Y016234D01*
X018140Y016392D02*
X018970Y016392D01*
X018970Y016551D02*
X018140Y016551D01*
X018140Y016709D02*
X018970Y016709D01*
X018970Y016868D02*
X018140Y016868D01*
X018140Y017026D02*
X018970Y017026D01*
X018970Y017185D02*
X018140Y017185D01*
X018140Y017343D02*
X018970Y017343D01*
X018970Y017502D02*
X018140Y017502D01*
X018140Y017660D02*
X018873Y017660D01*
X018714Y017819D02*
X018140Y017819D01*
X018140Y017977D02*
X018556Y017977D01*
X018397Y018136D02*
X018140Y018136D01*
X018140Y018294D02*
X018239Y018294D01*
X021656Y023885D02*
X021629Y023950D01*
X021480Y024099D01*
X021386Y024139D01*
X021391Y024140D01*
X021468Y024180D01*
X021538Y024230D01*
X021600Y024292D01*
X021650Y024362D01*
X021690Y024439D01*
X021716Y024521D01*
X021730Y024607D01*
X021730Y024630D01*
X021200Y024630D01*
X021200Y024670D01*
X021160Y024670D01*
X021160Y025200D01*
X021137Y025200D01*
X021051Y025186D01*
X020969Y025160D01*
X020892Y025120D01*
X020890Y025119D01*
X020890Y029362D01*
X020790Y029462D01*
X020790Y029597D01*
X020735Y029729D01*
X020634Y029830D01*
X020562Y029860D01*
X020839Y030137D01*
X020942Y030034D01*
X021096Y029970D01*
X021264Y029970D01*
X021418Y030034D01*
X021470Y030086D01*
X021470Y025699D01*
X021375Y025604D01*
X021320Y025472D01*
X021320Y025328D01*
X021375Y025196D01*
X021432Y025139D01*
X021391Y025160D01*
X021309Y025186D01*
X021223Y025200D01*
X021200Y025200D01*
X021200Y024670D01*
X021730Y024670D01*
X021730Y024693D01*
X021716Y024779D01*
X021690Y024861D01*
X021650Y024938D01*
X021600Y025008D01*
X021539Y025069D01*
X021608Y025040D01*
X021752Y025040D01*
X021884Y025095D01*
X021985Y025196D01*
X022040Y025328D01*
X022040Y025472D01*
X021985Y025604D01*
X021890Y025699D01*
X021890Y030086D01*
X021942Y030034D01*
X022096Y029970D01*
X022264Y029970D01*
X022418Y030034D01*
X022470Y030086D01*
X022470Y025737D01*
X022218Y025485D01*
X022095Y025362D01*
X022095Y023971D01*
X022002Y024010D01*
X021858Y024010D01*
X021726Y023955D01*
X021656Y023885D01*
X021580Y024000D02*
X021834Y024000D01*
X022026Y024000D02*
X022095Y024000D01*
X022095Y024159D02*
X021427Y024159D01*
X021618Y024317D02*
X022095Y024317D01*
X022095Y024476D02*
X021702Y024476D01*
X021712Y024793D02*
X022095Y024793D01*
X022095Y024951D02*
X021641Y024951D01*
X021899Y025110D02*
X022095Y025110D01*
X022095Y025268D02*
X022015Y025268D01*
X022040Y025427D02*
X022160Y025427D01*
X022318Y025585D02*
X021993Y025585D01*
X021890Y025744D02*
X022470Y025744D01*
X022470Y025902D02*
X021890Y025902D01*
X021890Y026061D02*
X022470Y026061D01*
X022470Y026219D02*
X021890Y026219D01*
X021890Y026378D02*
X022470Y026378D01*
X022470Y026536D02*
X021890Y026536D01*
X021890Y026695D02*
X022470Y026695D01*
X022470Y026853D02*
X021890Y026853D01*
X021890Y027012D02*
X022470Y027012D01*
X022470Y027170D02*
X021890Y027170D01*
X021890Y027329D02*
X022470Y027329D01*
X022470Y027487D02*
X021890Y027487D01*
X021890Y027646D02*
X022470Y027646D01*
X022470Y027804D02*
X021890Y027804D01*
X021890Y027963D02*
X022470Y027963D01*
X022470Y028121D02*
X021890Y028121D01*
X021890Y028280D02*
X022470Y028280D01*
X022470Y028438D02*
X021890Y028438D01*
X021890Y028597D02*
X022470Y028597D01*
X022470Y028755D02*
X021890Y028755D01*
X021890Y028914D02*
X022470Y028914D01*
X022470Y029072D02*
X021890Y029072D01*
X021890Y029231D02*
X022470Y029231D01*
X022470Y029389D02*
X021890Y029389D01*
X021890Y029548D02*
X022470Y029548D01*
X022470Y029706D02*
X021890Y029706D01*
X021890Y029865D02*
X022470Y029865D01*
X022470Y030023D02*
X022392Y030023D01*
X021968Y030023D02*
X021890Y030023D01*
X021470Y030023D02*
X021392Y030023D01*
X021470Y029865D02*
X020567Y029865D01*
X020725Y030023D02*
X020968Y030023D01*
X020745Y029706D02*
X021470Y029706D01*
X021470Y029548D02*
X020790Y029548D01*
X020863Y029389D02*
X021470Y029389D01*
X021470Y029231D02*
X020890Y029231D01*
X020890Y029072D02*
X021470Y029072D01*
X021470Y028914D02*
X020890Y028914D01*
X020890Y028755D02*
X021470Y028755D01*
X021470Y028597D02*
X020890Y028597D01*
X020890Y028438D02*
X021470Y028438D01*
X021470Y028280D02*
X020890Y028280D01*
X020890Y028121D02*
X021470Y028121D01*
X021470Y027963D02*
X020890Y027963D01*
X020890Y027804D02*
X021470Y027804D01*
X021470Y027646D02*
X020890Y027646D01*
X020890Y027487D02*
X021470Y027487D01*
X021470Y027329D02*
X020890Y027329D01*
X020890Y027170D02*
X021470Y027170D01*
X021470Y027012D02*
X020890Y027012D01*
X020890Y026853D02*
X021470Y026853D01*
X021470Y026695D02*
X020890Y026695D01*
X020890Y026536D02*
X021470Y026536D01*
X021470Y026378D02*
X020890Y026378D01*
X020890Y026219D02*
X021470Y026219D01*
X021470Y026061D02*
X020890Y026061D01*
X020890Y025902D02*
X021470Y025902D01*
X021470Y025744D02*
X020890Y025744D01*
X020890Y025585D02*
X021367Y025585D01*
X021320Y025427D02*
X020890Y025427D01*
X020890Y025268D02*
X021345Y025268D01*
X021200Y025110D02*
X021160Y025110D01*
X021160Y024951D02*
X021200Y024951D01*
X021200Y024793D02*
X021160Y024793D01*
X021200Y024634D02*
X022095Y024634D01*
X024180Y027150D02*
X024180Y027150D01*
X024180Y027150D01*
X024180Y027590D01*
X024362Y027590D01*
X024620Y027332D01*
X024620Y027150D01*
X024180Y027150D01*
X024180Y027590D01*
X023998Y027590D01*
X023890Y027482D01*
X023890Y028318D01*
X023998Y028210D01*
X024180Y028210D01*
X024362Y028210D01*
X024620Y028468D01*
X024620Y028650D01*
X024620Y028832D01*
X024362Y029090D01*
X024180Y029090D01*
X024180Y028650D01*
X024180Y028650D01*
X024620Y028650D01*
X024180Y028650D01*
X024180Y028650D01*
X024180Y029090D01*
X023998Y029090D01*
X023744Y028836D01*
X023627Y028885D01*
X023483Y028885D01*
X023390Y028846D01*
X023390Y029188D01*
X023760Y029558D01*
X023760Y029476D01*
X024006Y029230D01*
X024354Y029230D01*
X024600Y029476D01*
X024600Y029824D01*
X024354Y030070D01*
X024272Y030070D01*
X024515Y030313D01*
X024515Y035204D01*
X024608Y035165D01*
X024752Y035165D01*
X024884Y035220D01*
X024985Y035321D01*
X024992Y035339D01*
X025000Y035321D01*
X025046Y035275D01*
X025000Y035229D01*
X024945Y035097D01*
X024945Y034953D01*
X025000Y034821D01*
X025045Y034776D01*
X025045Y030809D01*
X024942Y030766D01*
X024824Y030648D01*
X024760Y030494D01*
X024760Y029806D01*
X024824Y029652D01*
X024942Y029534D01*
X025096Y029470D01*
X025264Y029470D01*
X025418Y029534D01*
X025470Y029586D01*
X025470Y028449D01*
X025375Y028354D01*
X025320Y028222D01*
X025320Y028078D01*
X025375Y027946D01*
X025476Y027845D01*
X025608Y027790D01*
X025752Y027790D01*
X025884Y027845D01*
X025985Y027946D01*
X026040Y028078D01*
X026040Y028222D01*
X025985Y028354D01*
X025890Y028449D01*
X025890Y029558D01*
X025893Y029554D01*
X025949Y029514D01*
X026011Y029482D01*
X026077Y029461D01*
X026145Y029450D01*
X026180Y029450D01*
X026215Y029450D01*
X026283Y029461D01*
X026349Y029482D01*
X026411Y029514D01*
X026467Y029554D01*
X026470Y029558D01*
X026470Y027714D01*
X026418Y027766D01*
X026264Y027830D01*
X026096Y027830D01*
X025942Y027766D01*
X025824Y027648D01*
X025760Y027494D01*
X025760Y026806D01*
X025824Y026652D01*
X025942Y026534D01*
X026083Y026475D01*
X026016Y026408D01*
X025854Y026570D01*
X025557Y026570D01*
X025505Y026622D01*
X025536Y026652D01*
X025600Y026806D01*
X025600Y027494D01*
X025536Y027648D01*
X025418Y027766D01*
X025264Y027830D01*
X025096Y027830D01*
X024942Y027766D01*
X024824Y027648D01*
X024760Y027494D01*
X024760Y026860D01*
X024512Y026860D01*
X024620Y026968D01*
X024620Y027150D01*
X024180Y027150D01*
X024180Y027170D02*
X024180Y027170D01*
X024180Y027329D02*
X024180Y027329D01*
X024180Y027487D02*
X024180Y027487D01*
X023895Y027487D02*
X023890Y027487D01*
X023890Y027646D02*
X024823Y027646D01*
X024760Y027487D02*
X024465Y027487D01*
X024620Y027329D02*
X024760Y027329D01*
X024760Y027170D02*
X024620Y027170D01*
X024620Y027012D02*
X024760Y027012D01*
X025034Y027804D02*
X023890Y027804D01*
X023890Y027963D02*
X025368Y027963D01*
X025326Y027804D02*
X025575Y027804D01*
X025537Y027646D02*
X025823Y027646D01*
X025785Y027804D02*
X026034Y027804D01*
X025992Y027963D02*
X026470Y027963D01*
X026470Y028121D02*
X026040Y028121D01*
X026016Y028280D02*
X026470Y028280D01*
X026470Y028438D02*
X025901Y028438D01*
X025890Y028597D02*
X026470Y028597D01*
X026470Y028755D02*
X025890Y028755D01*
X025890Y028914D02*
X026470Y028914D01*
X026470Y029072D02*
X025890Y029072D01*
X025890Y029231D02*
X026470Y029231D01*
X026470Y029389D02*
X025890Y029389D01*
X025890Y029548D02*
X025903Y029548D01*
X026180Y029548D02*
X026180Y029548D01*
X026180Y029450D02*
X026180Y030150D01*
X026180Y030150D01*
X026180Y030850D01*
X026215Y030850D01*
X026283Y030839D01*
X026349Y030818D01*
X026411Y030786D01*
X026467Y030746D01*
X026470Y030742D01*
X026470Y031846D01*
X026418Y031794D01*
X026264Y031730D01*
X026096Y031730D01*
X025942Y031794D01*
X025890Y031846D01*
X025890Y030742D01*
X025893Y030746D01*
X025949Y030786D01*
X026011Y030818D01*
X026077Y030839D01*
X026145Y030850D01*
X026180Y030850D01*
X026180Y030150D01*
X026180Y030150D01*
X026180Y029450D01*
X026180Y029706D02*
X026180Y029706D01*
X026180Y029865D02*
X026180Y029865D01*
X026180Y030023D02*
X026180Y030023D01*
X026180Y030182D02*
X026180Y030182D01*
X026180Y030340D02*
X026180Y030340D01*
X026180Y030499D02*
X026180Y030499D01*
X026180Y030657D02*
X026180Y030657D01*
X026180Y030816D02*
X026180Y030816D01*
X026353Y030816D02*
X026470Y030816D01*
X026470Y030974D02*
X025890Y030974D01*
X025890Y030816D02*
X026007Y030816D01*
X025890Y031133D02*
X026470Y031133D01*
X026470Y031291D02*
X025890Y031291D01*
X025890Y031450D02*
X026470Y031450D01*
X026470Y031608D02*
X025890Y031608D01*
X025890Y031767D02*
X026008Y031767D01*
X026352Y031767D02*
X026470Y031767D01*
X026890Y031767D02*
X027220Y031767D01*
X027220Y031925D02*
X026890Y031925D01*
X026890Y032084D02*
X027220Y032084D01*
X027220Y032242D02*
X026890Y032242D01*
X026890Y032401D02*
X027220Y032401D01*
X027220Y032559D02*
X026890Y032559D01*
X026890Y032718D02*
X027220Y032718D01*
X027220Y032876D02*
X026890Y032876D01*
X026890Y033035D02*
X027220Y033035D01*
X027220Y033193D02*
X026890Y033193D01*
X026890Y033352D02*
X027220Y033352D01*
X027220Y033510D02*
X026890Y033510D01*
X026890Y033669D02*
X027220Y033669D01*
X027220Y033827D02*
X026890Y033827D01*
X026890Y033986D02*
X027220Y033986D01*
X027220Y034144D02*
X026890Y034144D01*
X026890Y034303D02*
X027220Y034303D01*
X027220Y034461D02*
X026890Y034461D01*
X026890Y034620D02*
X027220Y034620D01*
X027220Y034726D02*
X027220Y030830D01*
X027096Y030830D01*
X026942Y030766D01*
X026890Y030714D01*
X026890Y036818D01*
X026998Y036710D01*
X027180Y036710D01*
X027362Y036710D01*
X027595Y036943D01*
X027595Y035346D01*
X027502Y035385D01*
X027358Y035385D01*
X027226Y035330D01*
X027125Y035229D01*
X027070Y035097D01*
X027070Y034953D01*
X027125Y034821D01*
X027220Y034726D01*
X027168Y034778D02*
X026890Y034778D01*
X026890Y034937D02*
X027077Y034937D01*
X027070Y035095D02*
X026890Y035095D01*
X026890Y035254D02*
X027149Y035254D01*
X026890Y035412D02*
X027595Y035412D01*
X027595Y035571D02*
X026890Y035571D01*
X026890Y035729D02*
X027595Y035729D01*
X027595Y035888D02*
X026890Y035888D01*
X026890Y036046D02*
X027595Y036046D01*
X027595Y036205D02*
X026890Y036205D01*
X026890Y036363D02*
X027595Y036363D01*
X027595Y036522D02*
X026890Y036522D01*
X026890Y036680D02*
X027595Y036680D01*
X027595Y036839D02*
X027491Y036839D01*
X027180Y036839D02*
X027180Y036839D01*
X027180Y036710D02*
X027180Y037150D01*
X027180Y037150D01*
X027180Y036710D01*
X027180Y036997D02*
X027180Y036997D01*
X029015Y036997D02*
X029470Y036997D01*
X029470Y036839D02*
X029015Y036839D01*
X029015Y036680D02*
X029470Y036680D01*
X029470Y036522D02*
X029015Y036522D01*
X029015Y036363D02*
X029470Y036363D01*
X029470Y036205D02*
X029015Y036205D01*
X029015Y036046D02*
X029470Y036046D01*
X029470Y035888D02*
X029015Y035888D01*
X029015Y035729D02*
X029470Y035729D01*
X029470Y035571D02*
X029015Y035571D01*
X029015Y035536D02*
X029096Y035570D01*
X029264Y035570D01*
X029418Y035506D01*
X029470Y035454D01*
X029470Y038709D01*
X029220Y038959D01*
X029220Y039341D01*
X029489Y039610D01*
X029871Y039610D01*
X029970Y039511D01*
X029970Y039789D01*
X029871Y039690D01*
X029489Y039690D01*
X029220Y039959D01*
X029220Y040341D01*
X029470Y040591D01*
X029470Y041190D01*
X028890Y041190D01*
X028890Y040591D01*
X029140Y040341D01*
X029140Y039959D01*
X028871Y039690D01*
X028489Y039690D01*
X028220Y039959D01*
X028220Y040341D01*
X028470Y040591D01*
X028470Y040940D01*
X024001Y040940D01*
X024040Y040847D01*
X024040Y040712D01*
X024267Y040485D01*
X024316Y040436D01*
X024489Y040610D01*
X024670Y040610D01*
X024670Y040160D01*
X024690Y040160D01*
X024690Y040610D01*
X024871Y040610D01*
X024970Y040511D01*
X024970Y040737D01*
X025093Y040860D01*
X026892Y040860D01*
X027015Y040737D01*
X027316Y040436D01*
X027489Y040610D01*
X027871Y040610D01*
X028140Y040341D01*
X028140Y039987D01*
X028267Y039860D01*
X028390Y039737D01*
X028390Y039511D01*
X028489Y039610D01*
X028871Y039610D01*
X029140Y039341D01*
X029140Y038959D01*
X029015Y038834D01*
X029015Y035536D01*
X029015Y037156D02*
X029470Y037156D01*
X029470Y037314D02*
X029015Y037314D01*
X029015Y037473D02*
X029470Y037473D01*
X029470Y037631D02*
X029015Y037631D01*
X029015Y037790D02*
X029470Y037790D01*
X029470Y037948D02*
X029015Y037948D01*
X029015Y038107D02*
X029470Y038107D01*
X029470Y038265D02*
X029015Y038265D01*
X029015Y038424D02*
X029470Y038424D01*
X029470Y038582D02*
X029015Y038582D01*
X029015Y038741D02*
X029439Y038741D01*
X029280Y038899D02*
X029080Y038899D01*
X029140Y039058D02*
X029220Y039058D01*
X029220Y039216D02*
X029140Y039216D01*
X029106Y039375D02*
X029254Y039375D01*
X029413Y039533D02*
X028947Y039533D01*
X028872Y039692D02*
X029488Y039692D01*
X029329Y039850D02*
X029031Y039850D01*
X029140Y040009D02*
X029220Y040009D01*
X029220Y040167D02*
X029140Y040167D01*
X029140Y040326D02*
X029220Y040326D01*
X029364Y040484D02*
X028996Y040484D01*
X028890Y040643D02*
X029470Y040643D01*
X029470Y040801D02*
X028890Y040801D01*
X028890Y040960D02*
X029470Y040960D01*
X029470Y041118D02*
X028890Y041118D01*
X028470Y040801D02*
X026951Y040801D01*
X027109Y040643D02*
X028470Y040643D01*
X028364Y040484D02*
X027996Y040484D01*
X028140Y040326D02*
X028220Y040326D01*
X028220Y040167D02*
X028140Y040167D01*
X028140Y040009D02*
X028220Y040009D01*
X028277Y039850D02*
X028329Y039850D01*
X028390Y039692D02*
X028488Y039692D01*
X028413Y039533D02*
X028390Y039533D01*
X027364Y040484D02*
X027268Y040484D01*
X025034Y040801D02*
X024040Y040801D01*
X024109Y040643D02*
X024970Y040643D01*
X024690Y040484D02*
X024670Y040484D01*
X024670Y040326D02*
X024690Y040326D01*
X024690Y040167D02*
X024670Y040167D01*
X024670Y040140D02*
X024690Y040140D01*
X024690Y039690D01*
X024871Y039690D01*
X024970Y039789D01*
X024970Y039511D01*
X024871Y039610D01*
X024690Y039610D01*
X024690Y039160D01*
X024670Y039160D01*
X024670Y039610D01*
X024489Y039610D01*
X024390Y039511D01*
X024390Y039789D01*
X024489Y039690D01*
X024670Y039690D01*
X024670Y040140D01*
X024670Y040009D02*
X024690Y040009D01*
X024690Y039850D02*
X024670Y039850D01*
X024670Y039692D02*
X024690Y039692D01*
X024690Y039533D02*
X024670Y039533D01*
X024670Y039375D02*
X024690Y039375D01*
X024690Y039216D02*
X024670Y039216D01*
X024670Y039140D02*
X024690Y039140D01*
X024690Y038690D01*
X024871Y038690D01*
X024970Y038789D01*
X024970Y036612D01*
X024593Y036235D01*
X024515Y036157D01*
X024515Y038362D01*
X024392Y038485D01*
X024390Y038487D01*
X024390Y038789D01*
X024489Y038690D01*
X024670Y038690D01*
X024670Y039140D01*
X024670Y039058D02*
X024690Y039058D01*
X024690Y038899D02*
X024670Y038899D01*
X024670Y038741D02*
X024690Y038741D01*
X024921Y038741D02*
X024970Y038741D01*
X024970Y038582D02*
X024390Y038582D01*
X024390Y038741D02*
X024439Y038741D01*
X024453Y038424D02*
X024970Y038424D01*
X024970Y038265D02*
X024515Y038265D01*
X024515Y038107D02*
X024970Y038107D01*
X024970Y037948D02*
X024515Y037948D01*
X024515Y037790D02*
X024970Y037790D01*
X024970Y037631D02*
X024515Y037631D01*
X024515Y037473D02*
X024970Y037473D01*
X024970Y037314D02*
X024515Y037314D01*
X024515Y037156D02*
X024970Y037156D01*
X024970Y036997D02*
X024515Y036997D01*
X024515Y036839D02*
X024970Y036839D01*
X024970Y036680D02*
X024515Y036680D01*
X024515Y036522D02*
X024880Y036522D01*
X024721Y036363D02*
X024515Y036363D01*
X024515Y036205D02*
X024563Y036205D01*
X024918Y035254D02*
X025024Y035254D01*
X024945Y035095D02*
X024515Y035095D01*
X024515Y034937D02*
X024952Y034937D01*
X025043Y034778D02*
X024515Y034778D01*
X024515Y034620D02*
X025045Y034620D01*
X025045Y034461D02*
X024515Y034461D01*
X024515Y034303D02*
X025045Y034303D01*
X025045Y034144D02*
X024515Y034144D01*
X024515Y033986D02*
X025045Y033986D01*
X025045Y033827D02*
X024515Y033827D01*
X024515Y033669D02*
X025045Y033669D01*
X025045Y033510D02*
X024515Y033510D01*
X024515Y033352D02*
X025045Y033352D01*
X025045Y033193D02*
X024515Y033193D01*
X024515Y033035D02*
X025045Y033035D01*
X025045Y032876D02*
X024515Y032876D01*
X024515Y032718D02*
X025045Y032718D01*
X025045Y032559D02*
X024515Y032559D01*
X024515Y032401D02*
X025045Y032401D01*
X025045Y032242D02*
X024515Y032242D01*
X024515Y032084D02*
X025045Y032084D01*
X025045Y031925D02*
X024515Y031925D01*
X024515Y031767D02*
X025045Y031767D01*
X025045Y031608D02*
X024515Y031608D01*
X024515Y031450D02*
X025045Y031450D01*
X025045Y031291D02*
X024515Y031291D01*
X024515Y031133D02*
X025045Y031133D01*
X025045Y030974D02*
X024515Y030974D01*
X024515Y030816D02*
X025045Y030816D01*
X024833Y030657D02*
X024515Y030657D01*
X024515Y030499D02*
X024762Y030499D01*
X024760Y030340D02*
X024515Y030340D01*
X024384Y030182D02*
X024760Y030182D01*
X024760Y030023D02*
X024401Y030023D01*
X024559Y029865D02*
X024760Y029865D01*
X024802Y029706D02*
X024600Y029706D01*
X024600Y029548D02*
X024928Y029548D01*
X024513Y029389D02*
X025470Y029389D01*
X025470Y029231D02*
X024355Y029231D01*
X024380Y029072D02*
X025470Y029072D01*
X025470Y028914D02*
X024539Y028914D01*
X024620Y028755D02*
X025470Y028755D01*
X025470Y028597D02*
X024620Y028597D01*
X024590Y028438D02*
X025459Y028438D01*
X025344Y028280D02*
X024432Y028280D01*
X024180Y028280D02*
X024180Y028280D01*
X024180Y028210D02*
X024180Y028650D01*
X024180Y028650D01*
X024180Y028210D01*
X024180Y028438D02*
X024180Y028438D01*
X024180Y028597D02*
X024180Y028597D01*
X024180Y028755D02*
X024180Y028755D01*
X024180Y028914D02*
X024180Y028914D01*
X024180Y029072D02*
X024180Y029072D01*
X023980Y029072D02*
X023390Y029072D01*
X023390Y028914D02*
X023821Y028914D01*
X024005Y029231D02*
X023433Y029231D01*
X023591Y029389D02*
X023847Y029389D01*
X023760Y029548D02*
X023750Y029548D01*
X023890Y028280D02*
X023928Y028280D01*
X023890Y028121D02*
X025320Y028121D01*
X025600Y027487D02*
X025760Y027487D01*
X025760Y027329D02*
X025600Y027329D01*
X025600Y027170D02*
X025760Y027170D01*
X025760Y027012D02*
X025600Y027012D01*
X025600Y026853D02*
X025760Y026853D01*
X025806Y026695D02*
X025554Y026695D01*
X025888Y026536D02*
X025940Y026536D01*
X026326Y027804D02*
X026470Y027804D01*
X026457Y029548D02*
X026470Y029548D01*
X025470Y029548D02*
X025432Y029548D01*
X026890Y030816D02*
X027062Y030816D01*
X027220Y030974D02*
X026890Y030974D01*
X026890Y031133D02*
X027220Y031133D01*
X027220Y031291D02*
X026890Y031291D01*
X026890Y031450D02*
X027220Y031450D01*
X027220Y031608D02*
X026890Y031608D01*
X028640Y031608D02*
X029470Y031608D01*
X029470Y031450D02*
X028640Y031450D01*
X028640Y031291D02*
X029470Y031291D01*
X029470Y031133D02*
X028640Y031133D01*
X028640Y030974D02*
X029470Y030974D01*
X029470Y030816D02*
X029298Y030816D01*
X029264Y030830D02*
X029096Y030830D01*
X028942Y030766D01*
X028839Y030663D01*
X028767Y030735D01*
X028640Y030862D01*
X028640Y032829D01*
X028733Y032790D01*
X028877Y032790D01*
X029009Y032845D01*
X029110Y032946D01*
X029165Y033078D01*
X029165Y033213D01*
X029470Y033518D01*
X029470Y032482D01*
X029467Y032486D01*
X029411Y032526D01*
X029349Y032558D01*
X029283Y032579D01*
X029215Y032590D01*
X029180Y032590D01*
X029180Y032150D01*
X029180Y032150D01*
X029180Y031710D01*
X029215Y031710D01*
X029283Y031721D01*
X029349Y031742D01*
X029411Y031774D01*
X029467Y031814D01*
X029470Y031818D01*
X029470Y030714D01*
X029418Y030766D01*
X029264Y030830D01*
X029062Y030816D02*
X028686Y030816D01*
X029011Y031742D02*
X029077Y031721D01*
X029145Y031710D01*
X029180Y031710D01*
X029180Y032150D01*
X029180Y032150D01*
X029180Y032150D01*
X028740Y032150D01*
X028740Y032185D01*
X028751Y032253D01*
X028772Y032319D01*
X028804Y032381D01*
X028844Y032437D01*
X028893Y032486D01*
X028949Y032526D01*
X029011Y032558D01*
X029077Y032579D01*
X029145Y032590D01*
X029180Y032590D01*
X029180Y032150D01*
X028740Y032150D01*
X028740Y032115D01*
X028751Y032047D01*
X028772Y031981D01*
X028804Y031919D01*
X028844Y031863D01*
X028893Y031814D01*
X028949Y031774D01*
X029011Y031742D01*
X028963Y031767D02*
X028640Y031767D01*
X028640Y031925D02*
X028801Y031925D01*
X028745Y032084D02*
X028640Y032084D01*
X028640Y032242D02*
X028749Y032242D01*
X028818Y032401D02*
X028640Y032401D01*
X028640Y032559D02*
X029015Y032559D01*
X029180Y032559D02*
X029180Y032559D01*
X029180Y032401D02*
X029180Y032401D01*
X029180Y032242D02*
X029180Y032242D01*
X029180Y032084D02*
X029180Y032084D01*
X029180Y031925D02*
X029180Y031925D01*
X029180Y031767D02*
X029180Y031767D01*
X029397Y031767D02*
X029470Y031767D01*
X029470Y032559D02*
X029345Y032559D01*
X029470Y032718D02*
X028640Y032718D01*
X029040Y032876D02*
X029470Y032876D01*
X029470Y033035D02*
X029147Y033035D01*
X029165Y033193D02*
X029470Y033193D01*
X029470Y033352D02*
X029304Y033352D01*
X029462Y033510D02*
X029470Y033510D01*
X030890Y033510D02*
X031295Y033510D01*
X031295Y033352D02*
X030890Y033352D01*
X030890Y033193D02*
X031295Y033193D01*
X031295Y033035D02*
X030890Y033035D01*
X030890Y032876D02*
X031295Y032876D01*
X031245Y032718D02*
X030890Y032718D01*
X030890Y032559D02*
X031195Y032559D01*
X031217Y032401D02*
X030890Y032401D01*
X030890Y032242D02*
X031329Y032242D01*
X031781Y032242D02*
X032720Y032242D01*
X032720Y032084D02*
X030890Y032084D01*
X030890Y031925D02*
X032720Y031925D01*
X032720Y031767D02*
X030890Y031767D01*
X030890Y031608D02*
X032720Y031608D01*
X032720Y031450D02*
X030890Y031450D01*
X030890Y031291D02*
X032720Y031291D01*
X032720Y031133D02*
X030890Y031133D01*
X030890Y030974D02*
X032720Y030974D01*
X032720Y030816D02*
X032298Y030816D01*
X032264Y030830D02*
X032096Y030830D01*
X031942Y030766D01*
X031824Y030648D01*
X031760Y030494D01*
X031760Y029806D01*
X031824Y029652D01*
X031942Y029534D01*
X032096Y029470D01*
X032264Y029470D01*
X032418Y029534D01*
X032536Y029652D01*
X032600Y029806D01*
X032600Y030494D01*
X032536Y030648D01*
X032418Y030766D01*
X032264Y030830D01*
X032062Y030816D02*
X031298Y030816D01*
X031062Y030816D02*
X030890Y030816D01*
X031527Y030657D02*
X031833Y030657D01*
X031762Y030499D02*
X031598Y030499D01*
X031600Y030340D02*
X031760Y030340D01*
X031760Y030182D02*
X031600Y030182D01*
X031600Y030023D02*
X031760Y030023D01*
X031760Y029865D02*
X031600Y029865D01*
X031558Y029706D02*
X031802Y029706D01*
X031928Y029548D02*
X031432Y029548D01*
X030928Y029548D02*
X030750Y029548D01*
X030591Y029389D02*
X032720Y029389D01*
X032720Y029231D02*
X030515Y029231D01*
X030515Y029072D02*
X032720Y029072D01*
X032720Y028914D02*
X030926Y028914D01*
X031026Y028755D02*
X032720Y028755D01*
X032766Y028597D02*
X031040Y028597D01*
X030977Y028438D02*
X032608Y028438D01*
X032570Y028280D02*
X030890Y028280D01*
X030890Y028121D02*
X032604Y028121D01*
X032720Y027963D02*
X030890Y027963D01*
X030890Y027804D02*
X031034Y027804D01*
X031326Y027804D02*
X032034Y027804D01*
X032096Y027830D02*
X031942Y027766D01*
X031824Y027648D01*
X031760Y027494D01*
X031760Y026806D01*
X031824Y026652D01*
X031942Y026534D01*
X032096Y026470D01*
X032264Y026470D01*
X032418Y026534D01*
X032536Y026652D01*
X032600Y026806D01*
X032600Y027494D01*
X032536Y027648D01*
X032418Y027766D01*
X032264Y027830D01*
X032096Y027830D01*
X032326Y027804D02*
X032720Y027804D01*
X032720Y027646D02*
X032537Y027646D01*
X032600Y027487D02*
X032720Y027487D01*
X032720Y027329D02*
X032600Y027329D01*
X032600Y027170D02*
X032720Y027170D01*
X032720Y027012D02*
X032600Y027012D01*
X032600Y026853D02*
X032720Y026853D01*
X032720Y026695D02*
X032554Y026695D01*
X032420Y026536D02*
X032720Y026536D01*
X032720Y026378D02*
X032075Y026378D01*
X032120Y026219D02*
X032720Y026219D01*
X032720Y026061D02*
X032120Y026061D01*
X032054Y025902D02*
X032720Y025902D01*
X032720Y025744D02*
X031896Y025744D01*
X031680Y025744D02*
X031680Y025744D01*
X031680Y025902D02*
X031680Y025902D01*
X031680Y026061D02*
X031680Y026061D01*
X031680Y026219D02*
X031680Y026219D01*
X031680Y026378D02*
X031680Y026378D01*
X031680Y026536D02*
X031680Y026536D01*
X031554Y026695D02*
X031806Y026695D01*
X031760Y026853D02*
X031600Y026853D01*
X031600Y027012D02*
X031760Y027012D01*
X031760Y027170D02*
X031600Y027170D01*
X031600Y027329D02*
X031760Y027329D01*
X031760Y027487D02*
X031600Y027487D01*
X031537Y027646D02*
X031823Y027646D01*
X031916Y026536D02*
X031940Y026536D01*
X031444Y026536D02*
X031420Y026536D01*
X031464Y025744D02*
X031196Y025744D01*
X031037Y025585D02*
X032720Y025585D01*
X032720Y025427D02*
X030879Y025427D01*
X030720Y025268D02*
X032720Y025268D01*
X032720Y025110D02*
X030285Y025110D01*
X030289Y024951D02*
X032720Y024951D01*
X032720Y024793D02*
X030207Y024793D01*
X030140Y024634D02*
X032720Y024634D01*
X032708Y024476D02*
X032720Y024476D01*
X030086Y022891D02*
X029515Y022891D01*
X029963Y023049D02*
X030007Y023049D01*
X032432Y029548D02*
X032720Y029548D01*
X032720Y029706D02*
X032558Y029706D01*
X032600Y029865D02*
X032720Y029865D01*
X032720Y030023D02*
X032600Y030023D01*
X032600Y030182D02*
X032720Y030182D01*
X032720Y030340D02*
X032600Y030340D01*
X032598Y030499D02*
X032720Y030499D01*
X032720Y030657D02*
X032527Y030657D01*
X032720Y032401D02*
X031893Y032401D01*
X031915Y032559D02*
X032720Y032559D01*
X032720Y032718D02*
X031865Y032718D01*
X031815Y032876D02*
X032720Y032876D01*
X032720Y033035D02*
X031815Y033035D01*
X031815Y033193D02*
X032720Y033193D01*
X032720Y033352D02*
X031815Y033352D01*
X031815Y033510D02*
X032868Y033510D01*
X032833Y033669D02*
X033027Y033669D01*
X032914Y033827D02*
X033185Y033827D01*
X033344Y033986D02*
X032938Y033986D01*
X033096Y034144D02*
X033502Y034144D01*
X033661Y034303D02*
X033255Y034303D01*
X033390Y034461D02*
X033819Y034461D01*
X033978Y034620D02*
X033390Y034620D01*
X033390Y034778D02*
X034136Y034778D01*
X034295Y034937D02*
X033390Y034937D01*
X033390Y035095D02*
X034453Y035095D01*
X034454Y035254D02*
X033906Y035254D01*
X034064Y035412D02*
X034296Y035412D01*
X034240Y035571D02*
X034120Y035571D01*
X034120Y035729D02*
X034240Y035729D01*
X034295Y035888D02*
X034065Y035888D01*
X033987Y036046D02*
X033906Y036046D01*
X033828Y036205D02*
X033390Y036205D01*
X033390Y036046D02*
X033454Y036046D01*
X032970Y036494D02*
X032884Y036580D01*
X032752Y036635D01*
X032675Y036635D01*
X032675Y036650D01*
X032675Y036855D01*
X032385Y037145D01*
X032180Y037145D01*
X032180Y036650D01*
X032180Y036650D01*
X032675Y036650D01*
X032180Y036650D01*
X032180Y036650D01*
X032180Y036155D01*
X032180Y036650D01*
X032180Y036650D01*
X032180Y036650D01*
X031685Y036650D01*
X031685Y036855D01*
X031975Y037145D01*
X032180Y037145D01*
X032180Y036650D01*
X031685Y036650D01*
X031685Y036513D01*
X031651Y036546D01*
X031655Y036556D01*
X031655Y036744D01*
X031583Y036919D01*
X031449Y037053D01*
X031274Y037125D01*
X031086Y037125D01*
X030911Y037053D01*
X030890Y037032D01*
X030890Y037476D01*
X030985Y037571D01*
X031040Y037703D01*
X031040Y037847D01*
X030985Y037979D01*
X030884Y038080D01*
X030752Y038135D01*
X030608Y038135D01*
X030476Y038080D01*
X030390Y037994D01*
X030390Y038789D01*
X030489Y038690D01*
X030871Y038690D01*
X031140Y038959D01*
X031140Y039341D01*
X030871Y039610D01*
X030489Y039610D01*
X030390Y039511D01*
X030390Y039789D01*
X030489Y039690D01*
X030871Y039690D01*
X031140Y039959D01*
X031140Y040341D01*
X031041Y040440D01*
X031291Y040440D01*
X031200Y040349D01*
X031200Y040170D01*
X031660Y040170D01*
X031660Y040130D01*
X031700Y040130D01*
X031700Y040170D01*
X032160Y040170D01*
X032160Y040349D01*
X032069Y040440D01*
X032319Y040440D01*
X032220Y040341D01*
X032220Y039959D01*
X032489Y039690D01*
X032843Y039690D01*
X032970Y039563D01*
X032970Y039511D01*
X032871Y039610D01*
X032489Y039610D01*
X032220Y039341D01*
X032220Y038959D01*
X032489Y038690D01*
X032871Y038690D01*
X032970Y038789D01*
X032970Y036494D01*
X032970Y036522D02*
X032943Y036522D01*
X032970Y036680D02*
X032675Y036680D01*
X032675Y036839D02*
X032970Y036839D01*
X032970Y036997D02*
X032533Y036997D01*
X032180Y036997D02*
X032180Y036997D01*
X032180Y036839D02*
X032180Y036839D01*
X032180Y036680D02*
X032180Y036680D01*
X032180Y036522D02*
X032180Y036522D01*
X032180Y036363D02*
X032180Y036363D01*
X032180Y036205D02*
X032180Y036205D01*
X031925Y036205D02*
X031815Y036205D01*
X031815Y036046D02*
X032400Y036046D01*
X032595Y035888D02*
X031815Y035888D01*
X031815Y035729D02*
X032595Y035729D01*
X032591Y035571D02*
X031815Y035571D01*
X031815Y035412D02*
X032472Y035412D01*
X032445Y035254D02*
X031815Y035254D01*
X031815Y035095D02*
X032490Y035095D01*
X032681Y034937D02*
X031815Y034937D01*
X031815Y034778D02*
X032970Y034778D01*
X032970Y034620D02*
X031815Y034620D01*
X031815Y034461D02*
X032819Y034461D01*
X032661Y034303D02*
X031815Y034303D01*
X031815Y034144D02*
X032290Y034144D01*
X032201Y033986D02*
X031815Y033986D01*
X031815Y033827D02*
X032196Y033827D01*
X032277Y033669D02*
X031815Y033669D01*
X031295Y033669D02*
X030890Y033669D01*
X030890Y033827D02*
X031295Y033827D01*
X031295Y033986D02*
X030890Y033986D01*
X030890Y034144D02*
X031295Y034144D01*
X031295Y034303D02*
X030890Y034303D01*
X030890Y034461D02*
X031295Y034461D01*
X031295Y034620D02*
X030890Y034620D01*
X030890Y034778D02*
X031295Y034778D01*
X031295Y034937D02*
X030890Y034937D01*
X030890Y035095D02*
X031295Y035095D01*
X031295Y035254D02*
X030890Y035254D01*
X030890Y035412D02*
X031295Y035412D01*
X031295Y035571D02*
X030890Y035571D01*
X030890Y035729D02*
X031295Y035729D01*
X031295Y035888D02*
X030890Y035888D01*
X030890Y036046D02*
X031295Y036046D01*
X031014Y036205D02*
X030890Y036205D01*
X031676Y036522D02*
X031685Y036522D01*
X031685Y036680D02*
X031655Y036680D01*
X031685Y036839D02*
X031616Y036839D01*
X031505Y036997D02*
X031827Y036997D01*
X030890Y037156D02*
X032970Y037156D01*
X032970Y037314D02*
X030890Y037314D01*
X030890Y037473D02*
X032970Y037473D01*
X032970Y037631D02*
X031010Y037631D01*
X031040Y037790D02*
X032970Y037790D01*
X032970Y037948D02*
X030998Y037948D01*
X030820Y038107D02*
X032970Y038107D01*
X032970Y038265D02*
X030390Y038265D01*
X030390Y038107D02*
X030540Y038107D01*
X030390Y038424D02*
X032970Y038424D01*
X032970Y038582D02*
X030390Y038582D01*
X030390Y038741D02*
X030439Y038741D01*
X030921Y038741D02*
X031439Y038741D01*
X031489Y038690D02*
X031871Y038690D01*
X032140Y038959D01*
X032140Y039341D01*
X031871Y039610D01*
X031489Y039610D01*
X031220Y039341D01*
X031220Y038959D01*
X031489Y038690D01*
X031280Y038899D02*
X031080Y038899D01*
X031140Y039058D02*
X031220Y039058D01*
X031220Y039216D02*
X031140Y039216D01*
X031106Y039375D02*
X031254Y039375D01*
X031413Y039533D02*
X030947Y039533D01*
X030872Y039692D02*
X031460Y039692D01*
X031481Y039670D02*
X031660Y039670D01*
X031660Y040130D01*
X031200Y040130D01*
X031200Y039951D01*
X031481Y039670D01*
X031660Y039692D02*
X031700Y039692D01*
X031700Y039670D02*
X031879Y039670D01*
X032160Y039951D01*
X032160Y040130D01*
X031700Y040130D01*
X031700Y039670D01*
X031700Y039850D02*
X031660Y039850D01*
X031660Y040009D02*
X031700Y040009D01*
X031700Y040167D02*
X032220Y040167D01*
X032220Y040009D02*
X032160Y040009D01*
X032059Y039850D02*
X032329Y039850D01*
X032488Y039692D02*
X031900Y039692D01*
X031947Y039533D02*
X032413Y039533D01*
X032254Y039375D02*
X032106Y039375D01*
X032140Y039216D02*
X032220Y039216D01*
X032220Y039058D02*
X032140Y039058D01*
X032080Y038899D02*
X032280Y038899D01*
X032439Y038741D02*
X031921Y038741D01*
X032921Y038741D02*
X032970Y038741D01*
X033390Y038741D02*
X033439Y038741D01*
X033390Y038789D02*
X033489Y038690D01*
X033871Y038690D01*
X034140Y038959D01*
X034140Y039341D01*
X033871Y039610D01*
X033489Y039610D01*
X033390Y039511D01*
X033390Y039737D01*
X033267Y039860D01*
X033267Y039860D01*
X033140Y039987D01*
X033140Y040341D01*
X033041Y040440D01*
X033291Y040440D01*
X033200Y040349D01*
X033200Y040170D01*
X033660Y040170D01*
X033660Y040130D01*
X033700Y040130D01*
X033700Y040170D01*
X034160Y040170D01*
X034160Y040349D01*
X034069Y040440D01*
X034319Y040440D01*
X034220Y040341D01*
X034220Y039959D01*
X034470Y039709D01*
X034470Y039688D01*
X034548Y039610D01*
X034489Y039610D01*
X034220Y039341D01*
X034220Y038959D01*
X034489Y038690D01*
X034871Y038690D01*
X034970Y038789D01*
X034970Y036982D01*
X034862Y037090D01*
X034498Y037090D01*
X034240Y036832D01*
X034240Y036468D01*
X034348Y036360D01*
X034267Y036360D01*
X034120Y036507D01*
X034120Y036832D01*
X033862Y037090D01*
X033498Y037090D01*
X033390Y036982D01*
X033390Y038789D01*
X033390Y038582D02*
X034970Y038582D01*
X034970Y038424D02*
X033390Y038424D01*
X033390Y038265D02*
X034970Y038265D01*
X034970Y038107D02*
X033390Y038107D01*
X033390Y037948D02*
X034970Y037948D01*
X034970Y037790D02*
X033390Y037790D01*
X033390Y037631D02*
X034970Y037631D01*
X034970Y037473D02*
X033390Y037473D01*
X033390Y037314D02*
X034970Y037314D01*
X034970Y037156D02*
X033390Y037156D01*
X033390Y036997D02*
X033405Y036997D01*
X033955Y036997D02*
X034405Y036997D01*
X034246Y036839D02*
X034114Y036839D01*
X034120Y036680D02*
X034240Y036680D01*
X034240Y036522D02*
X034120Y036522D01*
X034264Y036363D02*
X034345Y036363D01*
X034955Y036997D02*
X034970Y036997D01*
X034921Y038741D02*
X034970Y038741D01*
X034439Y038741D02*
X033921Y038741D01*
X034080Y038899D02*
X034280Y038899D01*
X034220Y039058D02*
X034140Y039058D01*
X034140Y039216D02*
X034220Y039216D01*
X034254Y039375D02*
X034106Y039375D01*
X033947Y039533D02*
X034413Y039533D01*
X034470Y039692D02*
X033900Y039692D01*
X033879Y039670D02*
X034160Y039951D01*
X034160Y040130D01*
X033700Y040130D01*
X033700Y039670D01*
X033879Y039670D01*
X033700Y039692D02*
X033660Y039692D01*
X033660Y039670D02*
X033660Y040130D01*
X033200Y040130D01*
X033200Y039951D01*
X033481Y039670D01*
X033660Y039670D01*
X033660Y039850D02*
X033700Y039850D01*
X033700Y040009D02*
X033660Y040009D01*
X033660Y040167D02*
X033140Y040167D01*
X033140Y040009D02*
X033200Y040009D01*
X033277Y039850D02*
X033301Y039850D01*
X033390Y039692D02*
X033460Y039692D01*
X033413Y039533D02*
X033390Y039533D01*
X032970Y039533D02*
X032947Y039533D01*
X033140Y040326D02*
X033200Y040326D01*
X033700Y040167D02*
X034220Y040167D01*
X034220Y040009D02*
X034160Y040009D01*
X034059Y039850D02*
X034329Y039850D01*
X034220Y040326D02*
X034160Y040326D01*
X032220Y040326D02*
X032160Y040326D01*
X031660Y040167D02*
X031140Y040167D01*
X031140Y040009D02*
X031200Y040009D01*
X031301Y039850D02*
X031031Y039850D01*
X031140Y040326D02*
X031200Y040326D01*
X030488Y039692D02*
X030390Y039692D01*
X030390Y039533D02*
X030413Y039533D01*
X029970Y039533D02*
X029947Y039533D01*
X029970Y039692D02*
X029872Y039692D01*
X033390Y035254D02*
X033454Y035254D01*
X032970Y034937D02*
X032929Y034937D01*
X036165Y034962D02*
X036165Y034993D01*
X036777Y034381D01*
X036641Y034381D01*
X036641Y033851D01*
X036601Y033851D01*
X036601Y034381D01*
X036265Y034381D01*
X036265Y034862D01*
X036165Y034962D01*
X036190Y034937D02*
X036221Y034937D01*
X036265Y034778D02*
X036380Y034778D01*
X036265Y034620D02*
X036538Y034620D01*
X036697Y034461D02*
X036265Y034461D01*
X036601Y034303D02*
X036641Y034303D01*
X036641Y034144D02*
X036601Y034144D01*
X036601Y033986D02*
X036641Y033986D01*
X036641Y033811D02*
X036641Y033281D01*
X036970Y033281D01*
X036970Y033141D01*
X036921Y033190D01*
X036726Y033271D01*
X036516Y033271D01*
X036321Y033190D01*
X036265Y033134D01*
X036265Y033281D01*
X036601Y033281D01*
X036601Y033811D01*
X036641Y033811D01*
X036641Y033669D02*
X036601Y033669D01*
X036601Y033510D02*
X036641Y033510D01*
X036641Y033352D02*
X036601Y033352D01*
X036328Y033193D02*
X036265Y033193D01*
X036913Y033193D02*
X036970Y033193D01*
X038720Y025518D02*
X038720Y025438D01*
X038720Y024490D01*
X038671Y024526D01*
X038609Y024558D01*
X038543Y024579D01*
X038475Y024590D01*
X038180Y024590D01*
X038180Y024150D01*
X038180Y024150D01*
X038180Y023710D01*
X038475Y023710D01*
X038543Y023721D01*
X038609Y023742D01*
X038671Y023774D01*
X038720Y023810D01*
X038720Y023464D01*
X038678Y023506D01*
X038524Y023570D01*
X037836Y023570D01*
X037682Y023506D01*
X037640Y023464D01*
X037640Y023810D01*
X037689Y023774D01*
X037751Y023742D01*
X037817Y023721D01*
X037885Y023710D01*
X038180Y023710D01*
X038180Y024150D01*
X038180Y024150D01*
X038180Y024590D01*
X037885Y024590D01*
X037817Y024579D01*
X037764Y024562D01*
X038720Y025518D01*
X038720Y025427D02*
X038629Y025427D01*
X038720Y025268D02*
X038470Y025268D01*
X038312Y025110D02*
X038720Y025110D01*
X038720Y024951D02*
X038153Y024951D01*
X037995Y024793D02*
X038720Y024793D01*
X038720Y024634D02*
X037836Y024634D01*
X038180Y024476D02*
X038180Y024476D01*
X038180Y024317D02*
X038180Y024317D01*
X038180Y024159D02*
X038180Y024159D01*
X038180Y024000D02*
X038180Y024000D01*
X038180Y023842D02*
X038180Y023842D01*
X037727Y023525D02*
X037640Y023525D01*
X037640Y023683D02*
X038720Y023683D01*
X038720Y023525D02*
X038633Y023525D01*
X023690Y039160D02*
X023670Y039160D01*
X023670Y039610D01*
X023489Y039610D01*
X023440Y039561D01*
X023440Y039702D01*
X023413Y039766D01*
X023489Y039690D01*
X023670Y039690D01*
X023670Y040140D01*
X023690Y040140D01*
X023690Y039690D01*
X023871Y039690D01*
X023970Y039789D01*
X023970Y039511D01*
X023871Y039610D01*
X023690Y039610D01*
X023690Y039160D01*
X023690Y039216D02*
X023670Y039216D01*
X023670Y039375D02*
X023690Y039375D01*
X023690Y039533D02*
X023670Y039533D01*
X023670Y039692D02*
X023690Y039692D01*
X023690Y039850D02*
X023670Y039850D01*
X023670Y040009D02*
X023690Y040009D01*
X023670Y040140D02*
X023220Y040140D01*
X023220Y039978D01*
X023140Y040058D01*
X023140Y040341D01*
X022871Y040610D01*
X022812Y040610D01*
X023142Y040940D01*
X023359Y040940D01*
X023320Y040847D01*
X023320Y040703D01*
X023375Y040571D01*
X023413Y040533D01*
X023220Y040341D01*
X023220Y040160D01*
X023670Y040160D01*
X023670Y040140D01*
X023220Y040167D02*
X023140Y040167D01*
X023140Y040326D02*
X023220Y040326D01*
X023364Y040484D02*
X022996Y040484D01*
X022845Y040643D02*
X023345Y040643D01*
X023320Y040801D02*
X023003Y040801D01*
X023189Y040009D02*
X023220Y040009D01*
X023440Y039692D02*
X023488Y039692D01*
X023872Y039692D02*
X023970Y039692D01*
X023970Y039533D02*
X023947Y039533D01*
X024390Y039533D02*
X024413Y039533D01*
X024390Y039692D02*
X024488Y039692D01*
X024872Y039692D02*
X024970Y039692D01*
X024970Y039533D02*
X024947Y039533D01*
X024364Y040484D02*
X024268Y040484D01*
X021319Y040440D02*
X021220Y040341D01*
X021220Y039959D01*
X021319Y039860D01*
X021069Y039860D01*
X021160Y039951D01*
X021160Y040130D01*
X020700Y040130D01*
X020700Y040170D01*
X021160Y040170D01*
X021160Y040349D01*
X021069Y040440D01*
X021319Y040440D01*
X021220Y040326D02*
X021160Y040326D01*
X021220Y040167D02*
X020700Y040167D01*
X020660Y040167D02*
X020140Y040167D01*
X020200Y040170D02*
X020660Y040170D01*
X020660Y040130D01*
X020200Y040130D01*
X020200Y039951D01*
X020291Y039860D01*
X020041Y039860D01*
X020140Y039959D01*
X020140Y040290D01*
X020200Y040290D01*
X020200Y040170D01*
X020200Y040009D02*
X020140Y040009D01*
X021160Y040009D02*
X021220Y040009D01*
X013970Y039692D02*
X013872Y039692D01*
X013947Y039533D02*
X013970Y039533D01*
X012488Y039692D02*
X012390Y039692D01*
X012390Y039533D02*
X012413Y039533D01*
X012329Y039850D02*
X012277Y039850D01*
X012220Y040009D02*
X012140Y040009D01*
X012140Y040167D02*
X012220Y040167D01*
X012220Y040326D02*
X012140Y040326D01*
X011996Y040484D02*
X012364Y040484D01*
X010947Y040801D02*
X010826Y040801D01*
X009409Y040801D02*
X007326Y040801D01*
X007484Y040643D02*
X009251Y040643D01*
X009092Y040484D02*
X008996Y040484D01*
X008364Y040484D02*
X007996Y040484D01*
X008140Y040326D02*
X008220Y040326D01*
X008220Y040167D02*
X008140Y040167D01*
X008140Y040009D02*
X008220Y040009D01*
X012890Y037314D02*
X013004Y037314D01*
X018140Y011003D02*
X020783Y011003D01*
X020687Y010845D02*
X018140Y010845D01*
X018140Y010686D02*
X020650Y010686D01*
X020657Y010528D02*
X018140Y010528D01*
X018140Y010369D02*
X020723Y010369D01*
D25*
X021180Y010650D02*
X022055Y009775D01*
X022180Y009400D02*
X021180Y009400D01*
X021180Y009650D01*
X022180Y009400D02*
X022430Y009650D01*
X025055Y009650D01*
X026180Y008525D01*
X026305Y007150D02*
X027680Y008525D01*
X027680Y009650D01*
X032555Y009650D01*
X032930Y010025D01*
X032930Y013650D01*
X031805Y013650D01*
X031430Y014025D01*
X031430Y019400D01*
X032180Y020150D01*
X033180Y020150D02*
X032180Y019150D01*
X033180Y020150D02*
X033180Y028025D01*
X033305Y028150D01*
X033305Y028400D01*
X032930Y028775D01*
X032930Y033275D01*
X035305Y035650D01*
X035555Y035900D02*
X037180Y034275D01*
X037180Y032150D01*
X036680Y031650D01*
X036621Y031650D01*
X036055Y031150D02*
X036555Y030650D01*
X036621Y030559D01*
X036055Y031150D02*
X036055Y034775D01*
X035805Y035025D01*
X035555Y035900D02*
X035555Y036150D01*
X034180Y036150D01*
X033680Y036650D01*
X032805Y036150D02*
X032805Y035275D01*
X033180Y034525D02*
X033180Y039650D01*
X032680Y040150D01*
X034680Y040150D02*
X034680Y039775D01*
X035180Y039275D01*
X035180Y036900D01*
X038305Y033775D01*
X038305Y029775D01*
X035930Y027400D01*
X035930Y026900D01*
X034680Y025650D01*
X034680Y026650D02*
X036555Y028525D01*
X036555Y029400D01*
X036621Y029469D01*
X035180Y030150D02*
X034680Y029650D01*
X035180Y030150D02*
X035180Y032650D01*
X034680Y033150D01*
X033680Y032150D02*
X033180Y031650D01*
X033180Y029150D01*
X033680Y028650D01*
X033680Y026650D01*
X032930Y028275D02*
X032930Y023900D01*
X032180Y023150D01*
X030680Y023150D02*
X029930Y023900D01*
X029930Y025025D01*
X029555Y025400D02*
X029555Y023400D01*
X029680Y023275D01*
X029555Y025400D02*
X030555Y025400D01*
X031180Y026025D01*
X031180Y026275D01*
X030680Y026775D01*
X030680Y028650D01*
X030305Y028150D02*
X030305Y029400D01*
X030680Y029775D01*
X030680Y037775D01*
X029680Y039150D02*
X029680Y035025D01*
X029430Y034775D01*
X029430Y033775D01*
X028805Y033150D01*
X028805Y034275D02*
X028680Y034400D01*
X028680Y035275D01*
X028805Y035400D01*
X028805Y039025D01*
X028680Y039150D01*
X028180Y039650D02*
X028180Y038150D01*
X028555Y037775D01*
X028555Y035525D01*
X028430Y035400D01*
X028430Y030775D01*
X028680Y030525D01*
X028680Y014275D01*
X030305Y012650D01*
X032180Y012650D01*
X032180Y012150D01*
X030680Y011150D02*
X027305Y014525D01*
X027305Y018650D01*
X024305Y018650D01*
X022930Y017275D01*
X022930Y012150D01*
X023055Y011525D02*
X023055Y010150D01*
X024680Y010150D01*
X023430Y010775D02*
X024680Y012025D01*
X024680Y012150D01*
X024680Y013150D02*
X023305Y013150D01*
X023305Y014025D02*
X023305Y014775D01*
X024680Y016150D01*
X024680Y017150D02*
X023305Y017150D01*
X022930Y018275D02*
X022930Y020650D01*
X025555Y020650D01*
X024680Y021150D02*
X022805Y021150D01*
X022805Y024900D01*
X022930Y025025D01*
X022555Y025150D02*
X022930Y025525D01*
X022930Y029400D01*
X023930Y030400D01*
X023930Y037275D01*
X022930Y038275D01*
X022930Y038900D01*
X022680Y039150D01*
X022180Y039650D02*
X022180Y040275D01*
X023055Y041150D01*
X028680Y041150D01*
X028680Y040150D01*
X028180Y039650D02*
X027680Y040150D01*
X027180Y040275D02*
X027180Y039650D01*
X027680Y039150D01*
X027180Y039275D02*
X027180Y037775D01*
X027805Y037150D01*
X027805Y030650D01*
X027680Y030525D01*
X027680Y017275D01*
X029055Y019275D02*
X029305Y019525D01*
X029305Y025650D01*
X029680Y026025D01*
X029680Y027525D01*
X030305Y028150D01*
X029680Y028025D02*
X029680Y034025D01*
X030180Y034525D01*
X030180Y040275D01*
X030555Y040650D01*
X035180Y040650D01*
X035180Y039650D01*
X035680Y039150D01*
X037305Y039150D02*
X038555Y037900D01*
X038555Y026400D01*
X037055Y024900D01*
X037055Y010900D01*
X033805Y007650D01*
X033680Y008025D02*
X032555Y006900D01*
X016930Y006900D01*
X016930Y021150D01*
X016555Y021525D01*
X016555Y022525D01*
X016930Y021650D02*
X016930Y029400D01*
X016680Y029650D01*
X016680Y030150D02*
X017305Y029525D01*
X017305Y023775D01*
X016555Y023775D02*
X016555Y028150D01*
X016180Y028775D02*
X016180Y016525D01*
X016430Y016275D01*
X016430Y016025D01*
X016180Y015775D01*
X016555Y015400D01*
X016555Y014150D01*
X015555Y014650D02*
X016055Y015150D01*
X015555Y015150D02*
X014680Y015150D01*
X014680Y016150D01*
X015180Y016650D01*
X015680Y016150D02*
X015930Y016150D01*
X015680Y016150D02*
X015180Y015650D01*
X015555Y015150D02*
X016180Y015775D01*
X015680Y016150D02*
X015680Y033275D01*
X015305Y034525D02*
X015305Y030775D01*
X015180Y030650D01*
X014680Y030275D02*
X014930Y030025D01*
X014930Y028150D01*
X014680Y028400D02*
X014555Y028275D01*
X014555Y019275D01*
X015180Y018650D01*
X016555Y018275D02*
X016555Y019150D01*
X017430Y019400D02*
X017430Y009525D01*
X018055Y008900D01*
X018055Y007650D01*
X017680Y007150D02*
X017680Y008900D01*
X017180Y009400D01*
X017180Y020150D01*
X017305Y020275D01*
X017680Y019650D02*
X017430Y019400D01*
X017680Y019650D02*
X017680Y028650D01*
X017930Y028900D01*
X018305Y029025D02*
X018305Y023775D01*
X018430Y023650D01*
X018430Y021400D01*
X018180Y021150D01*
X018180Y018650D01*
X019180Y017650D01*
X019180Y013400D01*
X019680Y013150D02*
X021180Y011650D01*
X021180Y012650D02*
X019930Y013900D01*
X019930Y029525D01*
X020680Y030275D01*
X020680Y037275D01*
X020555Y037400D01*
X021180Y036650D02*
X021055Y036525D01*
X021055Y033775D01*
X021055Y032775D02*
X021180Y032650D01*
X021180Y030650D01*
X021680Y031025D02*
X021680Y025400D01*
X022305Y025275D02*
X022305Y011275D01*
X022555Y011525D02*
X022680Y011400D01*
X022680Y009900D01*
X022430Y009650D01*
X022555Y011525D02*
X022555Y025150D01*
X022305Y025275D02*
X022680Y025650D01*
X022680Y037025D01*
X021805Y037900D01*
X021805Y039025D01*
X021680Y039150D01*
X022180Y039650D02*
X019555Y039650D01*
X019180Y040025D01*
X019180Y041275D01*
X015180Y041275D01*
X014180Y040275D01*
X014180Y038150D01*
X014055Y038025D01*
X015180Y037525D02*
X015180Y038650D01*
X015680Y039150D01*
X016430Y038900D02*
X016430Y037650D01*
X016305Y037525D01*
X016180Y037900D02*
X015680Y037400D01*
X015680Y036025D01*
X016180Y036025D02*
X016180Y036650D01*
X016180Y036025D02*
X015305Y035150D01*
X015305Y034525D01*
X014305Y035525D02*
X014055Y035275D01*
X014055Y032275D01*
X014305Y032025D02*
X014305Y031525D01*
X014305Y032025D02*
X014680Y032400D01*
X014680Y039150D01*
X013680Y039150D02*
X013680Y033275D01*
X012680Y032025D02*
X013680Y031025D01*
X013680Y029025D01*
X013805Y028900D01*
X013805Y015650D01*
X014805Y014650D01*
X015180Y014650D01*
X015555Y014650D01*
X012680Y013775D02*
X012680Y031025D01*
X012430Y031275D01*
X012430Y035400D01*
X011680Y036150D01*
X011680Y039150D01*
X011180Y039650D02*
X011180Y040525D01*
X010680Y040650D02*
X010680Y040150D01*
X011180Y039650D02*
X009555Y039650D01*
X009180Y039275D01*
X009180Y036650D01*
X010055Y036775D02*
X010055Y038025D01*
X009680Y039150D02*
X009680Y029150D01*
X009930Y028900D01*
X009930Y027775D01*
X009430Y027275D01*
X009430Y016900D01*
X010680Y015650D01*
X011180Y015150D02*
X010680Y014650D01*
X011180Y015150D02*
X011180Y019650D01*
X011680Y020150D01*
X011680Y025650D01*
X010680Y026650D01*
X010680Y039150D01*
X011680Y040150D02*
X012180Y039650D01*
X012180Y037525D01*
X011180Y036650D02*
X011180Y033275D01*
X010055Y033025D02*
X010055Y032275D01*
X010305Y032025D01*
X009180Y031525D02*
X009180Y034150D01*
X009305Y034275D01*
X008055Y035525D02*
X008055Y031525D01*
X008180Y030650D02*
X008180Y017525D01*
X008055Y017400D01*
X008055Y010150D01*
X004805Y007900D02*
X016680Y007900D01*
X016680Y009150D01*
X015180Y010650D01*
X017930Y010150D02*
X017930Y023400D01*
X018055Y023525D01*
X018680Y021775D02*
X018680Y025650D01*
X020305Y026650D02*
X020305Y020525D01*
X020680Y020150D01*
X019305Y021150D02*
X018680Y021775D01*
X018555Y021025D02*
X018555Y018900D01*
X019305Y018150D01*
X023180Y021650D02*
X025055Y021650D01*
X026055Y022650D01*
X026055Y025150D01*
X026305Y025400D01*
X026180Y026025D02*
X027305Y024900D01*
X027305Y022275D01*
X025680Y023275D02*
X025430Y023525D01*
X025430Y024275D01*
X024180Y025525D01*
X023680Y025775D02*
X023680Y024650D01*
X023305Y024525D02*
X023305Y025650D01*
X023680Y025775D02*
X023180Y026275D01*
X023180Y029275D01*
X024305Y030400D01*
X024305Y038275D01*
X024180Y038400D01*
X024180Y040275D01*
X023680Y040775D01*
X022930Y041400D02*
X029680Y041400D01*
X029680Y040150D01*
X027180Y040275D02*
X026805Y040650D01*
X025180Y040650D01*
X025180Y036525D01*
X024680Y036025D01*
X024680Y035525D01*
X025305Y035525D02*
X025680Y035150D01*
X025680Y028150D01*
X025180Y027150D02*
X025180Y026650D01*
X025680Y026150D01*
X026180Y026025D02*
X026180Y026275D01*
X026680Y026775D01*
X026680Y037775D01*
X025930Y037775D01*
X027180Y039275D02*
X026930Y039525D01*
X026930Y039900D01*
X026680Y040150D01*
X028180Y037650D02*
X028180Y030150D01*
X027430Y030400D02*
X027430Y035025D01*
X023555Y033525D02*
X023555Y031025D01*
X023180Y030650D01*
X021930Y031275D02*
X021680Y031025D01*
X021930Y031275D02*
X021930Y036400D01*
X022180Y036650D01*
X021680Y037025D02*
X021680Y032900D01*
X021555Y032775D01*
X020180Y030650D02*
X020180Y035275D01*
X020055Y035400D01*
X019305Y035025D02*
X019055Y034775D01*
X019055Y032400D01*
X018680Y033400D02*
X018680Y029650D01*
X018305Y029025D02*
X017680Y029650D01*
X017680Y039150D01*
X018180Y038775D02*
X018180Y039650D01*
X017680Y040150D01*
X018180Y040150D02*
X018180Y040275D01*
X017805Y040650D01*
X016180Y040650D01*
X016180Y037900D01*
X016680Y038150D02*
X016680Y036025D01*
X016430Y035775D01*
X016430Y031275D01*
X016680Y031025D01*
X016680Y030150D01*
X016555Y029150D02*
X016180Y028775D01*
X014680Y028400D02*
X014680Y029775D01*
X014555Y029900D01*
X014680Y030275D02*
X014680Y031900D01*
X014930Y032150D01*
X016805Y031400D02*
X016805Y035650D01*
X017180Y035025D02*
X017180Y036650D01*
X017180Y037525D02*
X017180Y039650D01*
X016680Y040150D01*
X016680Y039150D02*
X016430Y038900D01*
X016805Y038275D02*
X016680Y038150D01*
X018680Y039150D02*
X018680Y035025D01*
X018055Y035525D02*
X018055Y033775D01*
X018055Y033275D02*
X018180Y033150D01*
X018180Y030650D01*
X020430Y029525D02*
X020680Y029275D01*
X020680Y023400D01*
X021180Y022900D01*
X021180Y022650D01*
X021180Y022900D02*
X021930Y023650D01*
X023305Y024525D02*
X024680Y023150D01*
X024805Y026025D02*
X024805Y026650D01*
X024055Y026650D01*
X023680Y027025D01*
X023680Y028400D01*
X023555Y028525D01*
X026680Y026150D02*
X027180Y026650D01*
X027180Y027150D01*
X029555Y027900D02*
X029680Y028025D01*
X030180Y027150D02*
X030180Y026650D01*
X030680Y026150D01*
X029305Y029025D02*
X029305Y030025D01*
X029180Y030150D01*
X027430Y030400D02*
X027180Y030150D01*
X032555Y033900D02*
X033180Y034525D01*
X032805Y036150D02*
X032680Y036275D01*
X036805Y041150D02*
X038805Y039150D01*
X038805Y025900D01*
X037430Y024525D01*
X037430Y019775D01*
X033680Y020900D02*
X033680Y008025D01*
X038180Y010150D02*
X039430Y011400D01*
X039430Y038025D01*
X039180Y038275D01*
X039055Y025650D02*
X038930Y025525D01*
X038930Y011900D01*
X038180Y011150D01*
X033680Y020900D02*
X033555Y021025D01*
X020430Y007650D02*
X017930Y010150D01*
X017680Y007150D02*
X026305Y007150D01*
X019680Y013150D02*
X019680Y039150D01*
X020055Y038650D02*
X021680Y037025D01*
X018305Y035775D02*
X018055Y035525D01*
X018180Y040150D02*
X018680Y040150D01*
X018305Y040650D02*
X018305Y040900D01*
X015930Y040900D01*
X012680Y039150D02*
X012680Y032025D01*
X011180Y030650D02*
X011430Y030400D01*
X011430Y029025D01*
X011680Y029275D02*
X011930Y029025D01*
X011930Y019900D01*
X011680Y019650D01*
X010680Y021650D02*
X011180Y022150D01*
X011180Y025400D01*
X011305Y025525D01*
X010180Y026150D02*
X010180Y024150D01*
X010680Y023650D01*
X009805Y023525D02*
X010680Y022650D01*
X009805Y023525D02*
X009805Y027150D01*
X008805Y028025D02*
X008805Y021525D01*
X007555Y020775D02*
X007555Y020025D01*
X007430Y019900D01*
X007430Y018275D01*
X008430Y017275D02*
X008430Y028025D01*
X008680Y028275D01*
X008680Y039150D01*
X009180Y039650D02*
X007555Y039650D01*
X007180Y039275D01*
X007180Y036650D01*
X007055Y036525D01*
X007055Y032275D01*
X006305Y031650D02*
X006305Y035525D01*
X005930Y035525D02*
X005680Y035775D01*
X005680Y037275D01*
X005555Y037400D01*
X005180Y038025D02*
X006180Y039025D01*
X006180Y039650D01*
X006680Y040150D01*
X007180Y040650D02*
X004180Y040650D01*
X004180Y040025D01*
X003805Y039650D01*
X003180Y039650D01*
X003180Y032650D01*
X003805Y032025D01*
X004180Y031900D02*
X003305Y031025D01*
X003305Y023275D01*
X004180Y022150D02*
X004680Y022650D01*
X004180Y022150D02*
X004180Y020150D01*
X004930Y020150D01*
X006180Y021400D01*
X006180Y030650D01*
X005930Y030900D01*
X005930Y035525D01*
X005430Y035525D02*
X005305Y035400D01*
X005305Y032275D01*
X004180Y031150D01*
X004180Y030650D01*
X003680Y031025D02*
X003680Y025900D01*
X004680Y024650D02*
X004680Y030150D01*
X005180Y030650D01*
X005680Y030275D02*
X005430Y030025D01*
X005430Y025400D01*
X005555Y025525D01*
X005430Y025400D02*
X005180Y025150D01*
X005180Y022150D01*
X004680Y021650D01*
X004680Y020650D02*
X005930Y021900D01*
X005930Y026775D01*
X005805Y026775D01*
X005930Y026775D02*
X005930Y029775D01*
X005805Y029900D01*
X005680Y030275D02*
X005680Y031900D01*
X005555Y032025D01*
X004430Y031775D02*
X003680Y031025D01*
X004180Y031900D02*
X004180Y036650D01*
X004180Y039650D01*
X004680Y040150D01*
X005180Y039650D02*
X005180Y038400D01*
X004680Y037900D01*
X004680Y036025D01*
X005055Y036525D02*
X005055Y034650D01*
X004430Y034025D01*
X004430Y031775D01*
X002680Y031775D02*
X002430Y031525D01*
X002680Y031775D02*
X002680Y040150D01*
X003180Y040650D01*
X005180Y039650D02*
X005680Y040150D01*
X006680Y039150D02*
X006680Y020400D01*
X007180Y020650D02*
X007180Y028150D01*
X007055Y028275D01*
X007430Y029400D02*
X007430Y020900D01*
X007555Y020775D01*
X007805Y019775D02*
X007805Y029275D01*
X007430Y029400D02*
X007680Y029650D01*
X007680Y039150D01*
X007680Y040150D02*
X007180Y040650D01*
X009180Y040275D02*
X009180Y039650D01*
X009180Y040275D02*
X009555Y040650D01*
X010680Y040650D01*
X010055Y036775D02*
X010180Y036650D01*
X011555Y035775D02*
X011680Y035650D01*
X011680Y029275D01*
X013430Y028775D02*
X013430Y027400D01*
X009555Y028775D02*
X008805Y028025D01*
X003555Y033775D02*
X003555Y034275D01*
X003805Y034525D01*
X002305Y034650D02*
X000930Y034650D01*
X000930Y030400D01*
X002430Y028900D01*
X002430Y028400D01*
X001680Y027650D01*
X000930Y027900D02*
X001680Y028650D01*
X000930Y027900D02*
X000930Y012400D01*
X002180Y011150D01*
X004180Y010150D02*
X004180Y008525D01*
X004805Y007900D01*
X004180Y010150D02*
X004680Y010650D01*
X008055Y035525D02*
X008305Y035775D01*
X006305Y036775D02*
X006305Y038400D01*
X005180Y038025D02*
X005180Y036650D01*
X005055Y036525D01*
X006180Y036650D02*
X006305Y036775D01*
X019680Y040150D02*
X019805Y040275D01*
X019805Y040775D01*
X020180Y041150D01*
X020805Y041150D01*
X020180Y040650D02*
X022180Y040650D01*
X022930Y041400D01*
M02*
