%
M48
M72
T01C0.0240
T02C0.0320
T03C0.0360
T04C0.0400
T05C0.1250
T06C0.1300
%
T01
X8055Y10150
X12680Y13775
X16055Y15150
X16555Y14150
X15930Y16150
X16555Y18275
X16555Y19150
X17305Y20275
X18555Y21025
X19305Y21150
X20680Y20150
X19305Y18150
X22930Y18275
X23305Y17150
X23305Y14025
X23305Y13150
X22930Y12150
X23055Y11525
X22305Y11275
X23430Y10775
X22055Y9775
X20430Y7650
X18055Y7650
X19180Y13400
X26180Y8525
X27180Y7525
X33805Y7650
X34180Y9775
X27680Y17275
X29055Y19275
X27305Y22275
X25680Y23275
X23680Y24650
X22930Y25025
X23305Y25650
X24180Y25525
X24805Y26025
X26305Y25400
X25680Y28150
X26055Y28900
X23555Y28525
X21180Y26650
X20305Y26650
X21680Y25400
X21930Y23650
X23180Y21650
X25555Y20650
X29680Y23275
X29930Y25025
X31930Y24900
X34680Y25650
X32930Y28275
X33805Y30275
X31555Y32525
X32055Y33400
X32555Y33900
X32805Y35275
X32680Y36275
X30680Y37775
X28180Y37650
X25930Y37775
X23930Y38150
X23680Y40775
X20805Y41150
X20180Y40650
X18305Y40650
X18180Y38775
X16805Y38275
X17180Y37525
X16305Y37525
X15180Y37525
X14055Y38025
X15680Y36025
X16805Y35650
X17180Y35025
X18305Y35775
X18680Y35025
X19305Y35025
X20055Y35400
X21055Y33775
X21055Y32775
X21555Y32775
X23555Y33525
X24680Y32025
X25305Y35025
X25305Y35525
X24680Y35525
X27430Y35025
X28805Y34275
X28805Y33150
X29305Y29025
X29555Y27900
X30680Y28650
X35805Y35025
X35305Y35650
X37305Y39150
X39180Y38275
X36805Y41150
X39055Y25650
X33555Y21025
X37430Y19775
X20430Y29525
X18680Y29650
X17930Y28900
X16555Y29150
X16680Y29650
X16555Y28150
X14930Y28150
X14180Y27150
X13430Y27400
X13430Y28775
X14555Y29900
X14305Y31525
X13680Y31900
X14055Y32275
X14930Y32150
X15680Y33275
X15305Y34525
X14305Y35525
X13680Y33275
X11180Y33275
X10055Y33025
X9305Y34275
X8305Y35775
X6305Y35525
X5430Y35525
X4680Y36025
X5555Y37400
X6305Y38400
X3180Y40650
X2305Y34650
X3805Y34525
X3555Y33775
X3805Y32025
X2430Y31525
X5555Y32025
X6305Y31650
X7055Y32275
X8055Y31525
X9180Y31525
X10305Y32025
X7805Y29275
X7055Y28275
X5805Y26775
X5555Y25525
X3680Y25900
X3305Y23275
X6680Y20400
X7180Y20650
X7805Y19775
X7430Y18275
X8430Y17275
X11680Y19650
X8805Y21525
X11305Y25525
X10180Y26150
X9805Y27150
X9555Y28775
X11430Y29025
X14180Y24775
X16555Y23775
X17305Y23775
X18055Y23525
X16555Y22525
X16930Y21650
X18680Y25650
X16805Y31400
X18055Y33275
X18055Y33775
X18680Y33400
X19055Y32400
X20555Y37400
X20055Y38650
X15930Y40900
X12180Y37525
X11555Y35775
X10055Y38025
X11180Y40525
X5805Y29900
X2180Y11150
T02
X2680Y10650
X2680Y9650
X4680Y8650
X5680Y8650
X12930Y9650
X12930Y10650
X15180Y8650
X16180Y8650
X24680Y8150
X24680Y9150
X24680Y10150
X24680Y11150
X24680Y12150
X24680Y13150
X24680Y14150
X24680Y15150
X24680Y16150
X24680Y17150
X24680Y18150
X24680Y19150
X24680Y20150
X24680Y21150
X24680Y22150
X24680Y23150
X24680Y24150
X24180Y26150
X24180Y27150
X25180Y27150
X26180Y27150
X27180Y27150
X28180Y27150
X28180Y26150
X29180Y26150
X29180Y27150
X30180Y27150
X31180Y27150
X32180Y27150
X31680Y26150
X30680Y26150
X30680Y24150
X30680Y23150
X30680Y22150
X30680Y21150
X30680Y20150
X30680Y19150
X30680Y18150
X30680Y17150
X30680Y16150
X30680Y15150
X30680Y14150
X30680Y13150
X30680Y12150
X30680Y11150
X30680Y10150
X30680Y9150
X32180Y9150
X32180Y8150
X33180Y8150
X32180Y10150
X32180Y11150
X32180Y12150
X32180Y13150
X32180Y14150
X32180Y15150
X32180Y16150
X32180Y17150
X32180Y18150
X32180Y19150
X32180Y20150
X32180Y21150
X32180Y22150
X32180Y23150
X32180Y24150
X26680Y26150
X25680Y26150
X24180Y28650
X24180Y29650
X25180Y30150
X26180Y30150
X27180Y30150
X28180Y30150
X29180Y30150
X30180Y30150
X31180Y30150
X32180Y30150
X29180Y32150
X26180Y32150
X23180Y30650
X22180Y30650
X21180Y30650
X20180Y30650
X19180Y30650
X18180Y30650
X17180Y30650
X16180Y30650
X15180Y30650
X14180Y30650
X13180Y30650
X12180Y30650
X12180Y29650
X11180Y30650
X10180Y30650
X9180Y30650
X9180Y29650
X8180Y30650
X7180Y30650
X6180Y30650
X5180Y30650
X4180Y30650
X4180Y36650
X5180Y36650
X6180Y36650
X7180Y36650
X8180Y36650
X9180Y36650
X10180Y36650
X11180Y36650
X12180Y36650
X13180Y36650
X14180Y36650
X15180Y36650
X16180Y36650
X17180Y36650
X18180Y36650
X19180Y36650
X20180Y36650
X21180Y36650
X22180Y36650
X23180Y36650
X26180Y37150
X27180Y37150
X26180Y35150
X29180Y35150
X31180Y36650
X32180Y36650
X38180Y24150
X38180Y23150
X38180Y22150
X38180Y21150
X38180Y20150
X38180Y19150
X38180Y18150
X38180Y17150
X38180Y16150
X38180Y15150
X38180Y14150
X38180Y13150
X38180Y12150
X38180Y11150
X38180Y10150
X38180Y9150
X25680Y8150
X14180Y29400
X13180Y29400
T03
X23680Y39150
X23680Y40150
X24680Y40150
X24680Y39150
X33680Y36650
X33680Y35650
X34680Y35650
X34680Y36650
X34680Y33150
X33680Y33150
X33680Y32150
X34680Y32150
X34680Y29650
X33680Y29650
X33680Y28650
X34680Y28650
X34680Y26650
X33680Y26650
T04
X36621Y29469
X37739Y30016
X36621Y30559
X36621Y31650
X37739Y32193
X37739Y33284
X36621Y32741
X36621Y33831
X37739Y31107
X36680Y39150
X36680Y40150
X35680Y40150
X35680Y39150
X34680Y39150
X34680Y40150
X33680Y40150
X33680Y39150
X32680Y39150
X32680Y40150
X31680Y40150
X31680Y39150
X30680Y39150
X30680Y40150
X29680Y40150
X29680Y39150
X28680Y39150
X28680Y40150
X27680Y40150
X27680Y39150
X26680Y39150
X26680Y40150
X25680Y40150
X25680Y39150
X22680Y39150
X22680Y40150
X21680Y40150
X21680Y39150
X20680Y39150
X20680Y40150
X19680Y40150
X19680Y39150
X18680Y39150
X18680Y40150
X17680Y40150
X17680Y39150
X16680Y39150
X16680Y40150
X15680Y40150
X15680Y39150
X14680Y39150
X14680Y40150
X13680Y40150
X13680Y39150
X12680Y39150
X12680Y40150
X11680Y40150
X11680Y39150
X10680Y39150
X10680Y40150
X9680Y40150
X9680Y39150
X8680Y39150
X8680Y40150
X7680Y40150
X7680Y39150
X6680Y39150
X6680Y40150
X5680Y40150
X5680Y39150
X4680Y39150
X4680Y40150
X3680Y40150
X3680Y39150
X1680Y36150
X1680Y35150
X1680Y34150
X1680Y33150
X1680Y32150
X1680Y31150
X1680Y28650
X1680Y27650
X1680Y26650
X1680Y25650
X1680Y24650
X1680Y23650
X4680Y23650
X4680Y22650
X4680Y21650
X4680Y20650
X4680Y19650
X4680Y18650
X4680Y17650
X4680Y16650
X4680Y15650
X4680Y14650
X4680Y13650
X4680Y12650
X4680Y11650
X4680Y10650
X4680Y9650
X10680Y9650
X10680Y10650
X10680Y11650
X10680Y12650
X10680Y13650
X10680Y14650
X10680Y15650
X10680Y16650
X10680Y17650
X10680Y18650
X10680Y19650
X10680Y20650
X10680Y21650
X10680Y22650
X10680Y23650
X10680Y24650
X15180Y24650
X15180Y23650
X15180Y22650
X15180Y21650
X15180Y20650
X15180Y19650
X15180Y18650
X15180Y17650
X15180Y16650
X15180Y15650
X15180Y14650
X15180Y13650
X15180Y12650
X15180Y11650
X15180Y10650
X15180Y9650
X21180Y9650
X21180Y10650
X21180Y11650
X21180Y12650
X21180Y13650
X21180Y14650
X21180Y15650
X21180Y16650
X21180Y17650
X21180Y18650
X21180Y19650
X21180Y20650
X21180Y21650
X21180Y22650
X21180Y23650
X21180Y24650
X4680Y24650
T05
X1680Y7650
X1680Y40650
X38680Y40650
X38680Y7650
T06
X37180Y26729
X37180Y36571
M30
