G75*
%MOIN*%
%OFA0B0*%
%FSLAX24Y24*%
%IPPOS*%
%LPD*%
%AMOC8*
5,1,8,0,0,1.08239X$1,22.5*
%
%ADD10C,0.0000*%
D10*
X000680Y006650D02*
X000680Y041650D01*
X039680Y041650D01*
X039680Y006650D01*
X000680Y006650D01*
X001055Y007650D02*
X001057Y007700D01*
X001063Y007749D01*
X001073Y007798D01*
X001086Y007845D01*
X001104Y007892D01*
X001125Y007937D01*
X001149Y007980D01*
X001177Y008021D01*
X001208Y008060D01*
X001242Y008096D01*
X001279Y008130D01*
X001319Y008160D01*
X001360Y008187D01*
X001404Y008211D01*
X001449Y008231D01*
X001496Y008247D01*
X001544Y008260D01*
X001593Y008269D01*
X001643Y008274D01*
X001692Y008275D01*
X001742Y008272D01*
X001791Y008265D01*
X001840Y008254D01*
X001887Y008240D01*
X001933Y008221D01*
X001978Y008199D01*
X002021Y008174D01*
X002061Y008145D01*
X002099Y008113D01*
X002135Y008079D01*
X002168Y008041D01*
X002197Y008001D01*
X002223Y007959D01*
X002246Y007915D01*
X002265Y007869D01*
X002281Y007822D01*
X002293Y007773D01*
X002301Y007724D01*
X002305Y007675D01*
X002305Y007625D01*
X002301Y007576D01*
X002293Y007527D01*
X002281Y007478D01*
X002265Y007431D01*
X002246Y007385D01*
X002223Y007341D01*
X002197Y007299D01*
X002168Y007259D01*
X002135Y007221D01*
X002099Y007187D01*
X002061Y007155D01*
X002021Y007126D01*
X001978Y007101D01*
X001933Y007079D01*
X001887Y007060D01*
X001840Y007046D01*
X001791Y007035D01*
X001742Y007028D01*
X001692Y007025D01*
X001643Y007026D01*
X001593Y007031D01*
X001544Y007040D01*
X001496Y007053D01*
X001449Y007069D01*
X001404Y007089D01*
X001360Y007113D01*
X001319Y007140D01*
X001279Y007170D01*
X001242Y007204D01*
X001208Y007240D01*
X001177Y007279D01*
X001149Y007320D01*
X001125Y007363D01*
X001104Y007408D01*
X001086Y007455D01*
X001073Y007502D01*
X001063Y007551D01*
X001057Y007600D01*
X001055Y007650D01*
X001055Y040650D02*
X001057Y040700D01*
X001063Y040749D01*
X001073Y040798D01*
X001086Y040845D01*
X001104Y040892D01*
X001125Y040937D01*
X001149Y040980D01*
X001177Y041021D01*
X001208Y041060D01*
X001242Y041096D01*
X001279Y041130D01*
X001319Y041160D01*
X001360Y041187D01*
X001404Y041211D01*
X001449Y041231D01*
X001496Y041247D01*
X001544Y041260D01*
X001593Y041269D01*
X001643Y041274D01*
X001692Y041275D01*
X001742Y041272D01*
X001791Y041265D01*
X001840Y041254D01*
X001887Y041240D01*
X001933Y041221D01*
X001978Y041199D01*
X002021Y041174D01*
X002061Y041145D01*
X002099Y041113D01*
X002135Y041079D01*
X002168Y041041D01*
X002197Y041001D01*
X002223Y040959D01*
X002246Y040915D01*
X002265Y040869D01*
X002281Y040822D01*
X002293Y040773D01*
X002301Y040724D01*
X002305Y040675D01*
X002305Y040625D01*
X002301Y040576D01*
X002293Y040527D01*
X002281Y040478D01*
X002265Y040431D01*
X002246Y040385D01*
X002223Y040341D01*
X002197Y040299D01*
X002168Y040259D01*
X002135Y040221D01*
X002099Y040187D01*
X002061Y040155D01*
X002021Y040126D01*
X001978Y040101D01*
X001933Y040079D01*
X001887Y040060D01*
X001840Y040046D01*
X001791Y040035D01*
X001742Y040028D01*
X001692Y040025D01*
X001643Y040026D01*
X001593Y040031D01*
X001544Y040040D01*
X001496Y040053D01*
X001449Y040069D01*
X001404Y040089D01*
X001360Y040113D01*
X001319Y040140D01*
X001279Y040170D01*
X001242Y040204D01*
X001208Y040240D01*
X001177Y040279D01*
X001149Y040320D01*
X001125Y040363D01*
X001104Y040408D01*
X001086Y040455D01*
X001073Y040502D01*
X001063Y040551D01*
X001057Y040600D01*
X001055Y040650D01*
X038055Y040650D02*
X038057Y040700D01*
X038063Y040749D01*
X038073Y040798D01*
X038086Y040845D01*
X038104Y040892D01*
X038125Y040937D01*
X038149Y040980D01*
X038177Y041021D01*
X038208Y041060D01*
X038242Y041096D01*
X038279Y041130D01*
X038319Y041160D01*
X038360Y041187D01*
X038404Y041211D01*
X038449Y041231D01*
X038496Y041247D01*
X038544Y041260D01*
X038593Y041269D01*
X038643Y041274D01*
X038692Y041275D01*
X038742Y041272D01*
X038791Y041265D01*
X038840Y041254D01*
X038887Y041240D01*
X038933Y041221D01*
X038978Y041199D01*
X039021Y041174D01*
X039061Y041145D01*
X039099Y041113D01*
X039135Y041079D01*
X039168Y041041D01*
X039197Y041001D01*
X039223Y040959D01*
X039246Y040915D01*
X039265Y040869D01*
X039281Y040822D01*
X039293Y040773D01*
X039301Y040724D01*
X039305Y040675D01*
X039305Y040625D01*
X039301Y040576D01*
X039293Y040527D01*
X039281Y040478D01*
X039265Y040431D01*
X039246Y040385D01*
X039223Y040341D01*
X039197Y040299D01*
X039168Y040259D01*
X039135Y040221D01*
X039099Y040187D01*
X039061Y040155D01*
X039021Y040126D01*
X038978Y040101D01*
X038933Y040079D01*
X038887Y040060D01*
X038840Y040046D01*
X038791Y040035D01*
X038742Y040028D01*
X038692Y040025D01*
X038643Y040026D01*
X038593Y040031D01*
X038544Y040040D01*
X038496Y040053D01*
X038449Y040069D01*
X038404Y040089D01*
X038360Y040113D01*
X038319Y040140D01*
X038279Y040170D01*
X038242Y040204D01*
X038208Y040240D01*
X038177Y040279D01*
X038149Y040320D01*
X038125Y040363D01*
X038104Y040408D01*
X038086Y040455D01*
X038073Y040502D01*
X038063Y040551D01*
X038057Y040600D01*
X038055Y040650D01*
X038055Y007650D02*
X038057Y007700D01*
X038063Y007749D01*
X038073Y007798D01*
X038086Y007845D01*
X038104Y007892D01*
X038125Y007937D01*
X038149Y007980D01*
X038177Y008021D01*
X038208Y008060D01*
X038242Y008096D01*
X038279Y008130D01*
X038319Y008160D01*
X038360Y008187D01*
X038404Y008211D01*
X038449Y008231D01*
X038496Y008247D01*
X038544Y008260D01*
X038593Y008269D01*
X038643Y008274D01*
X038692Y008275D01*
X038742Y008272D01*
X038791Y008265D01*
X038840Y008254D01*
X038887Y008240D01*
X038933Y008221D01*
X038978Y008199D01*
X039021Y008174D01*
X039061Y008145D01*
X039099Y008113D01*
X039135Y008079D01*
X039168Y008041D01*
X039197Y008001D01*
X039223Y007959D01*
X039246Y007915D01*
X039265Y007869D01*
X039281Y007822D01*
X039293Y007773D01*
X039301Y007724D01*
X039305Y007675D01*
X039305Y007625D01*
X039301Y007576D01*
X039293Y007527D01*
X039281Y007478D01*
X039265Y007431D01*
X039246Y007385D01*
X039223Y007341D01*
X039197Y007299D01*
X039168Y007259D01*
X039135Y007221D01*
X039099Y007187D01*
X039061Y007155D01*
X039021Y007126D01*
X038978Y007101D01*
X038933Y007079D01*
X038887Y007060D01*
X038840Y007046D01*
X038791Y007035D01*
X038742Y007028D01*
X038692Y007025D01*
X038643Y007026D01*
X038593Y007031D01*
X038544Y007040D01*
X038496Y007053D01*
X038449Y007069D01*
X038404Y007089D01*
X038360Y007113D01*
X038319Y007140D01*
X038279Y007170D01*
X038242Y007204D01*
X038208Y007240D01*
X038177Y007279D01*
X038149Y007320D01*
X038125Y007363D01*
X038104Y007408D01*
X038086Y007455D01*
X038073Y007502D01*
X038063Y007551D01*
X038057Y007600D01*
X038055Y007650D01*
M02*
