%
M48
M72
T01C0.02400
T02C0.04000
T03C0.12500
%
T01
X160675Y68800
X175675Y59425
X183800Y53175
X171925Y36925
X191925Y34425
X201925Y50675
X206925Y57550
X223175Y65050
X226925Y71300
X232550Y81925
X238800Y83175
X246300Y75675
X246300Y70675
X248800Y63175
X236300Y55675
X238800Y50675
X248175Y38800
X257550Y46300
X261300Y38800
X268800Y40675
X280050Y36925
X285675Y53800
X298800Y46300
X298800Y38800
X313800Y53800
X320675Y38800
X330675Y38800
X343175Y50050
X350050Y42550
X355050Y42550
X360675Y33175
X391300Y56300
X420675Y76300
X436925Y68800
X446300Y85675
X453800Y78175
X467550Y98800
X465050Y106925
X472550Y108800
X476925Y106300
X490050Y98175
X494425Y100675
X506300Y91300
X516925Y98800
X516925Y103800
X533175Y95050
X542550Y85675
X529425Y81925
X518800Y74425
X527550Y70050
X500675Y56300
X493800Y46300
X510050Y36925
X482550Y68800
X493800Y72550
X466300Y36925
X454425Y46300
X430050Y96300
X426300Y106925
X421300Y106925
X423800Y118175
X421925Y125675
X416300Y118175
X401925Y120050
X386925Y131300
X383800Y138800
X386925Y146300
X381300Y150050
X365050Y158800
X360675Y138800
X364425Y131300
X355050Y131300
X325050Y106925
X298800Y116300
X293175Y118175
X281925Y120050
X272550Y123175
X270050Y127550
X280050Y127550
X266925Y118800
X270675Y108800
X268175Y99425
X263800Y96925
X256300Y106925
X253800Y96300
X256300Y83800
X265675Y70675
X287550Y76300
X285675Y93800
X256300Y125050
X260675Y144425
X276300Y144425
X295050Y162550
X302550Y168175
X306300Y171925
X310050Y162550
X300675Y153800
X311925Y135050
X328800Y175675
X329425Y180675
X332550Y184425
X336300Y188175
X340050Y191925
X336300Y198175
X329425Y201925
X318800Y211300
X307550Y216925
X298800Y207550
X291300Y209425
X295050Y183800
X310050Y183800
X315050Y183800
X360675Y193800
X363175Y198175
X377550Y201300
X400050Y220050
X390675Y228175
X392550Y246300
X403800Y250675
X416300Y250675
X423800Y242550
X442550Y250675
X427550Y264425
X431300Y267550
X418175Y271300
X411925Y275050
X408800Y264425
X396300Y265675
X406925Y286300
X385675Y321300
X392550Y341300
X414425Y354425
X414425Y371925
X405675Y371925
X391925Y369425
X385675Y361925
X364425Y375675
X362550Y380675
X358175Y386925
X352550Y379425
X346300Y383175
X324425Y376925
X320675Y357550
X324425Y350050
X340675Y346300
X350050Y353800
X362550Y343175
X340675Y326300
X326300Y333800
X318800Y333800
X309425Y330050
X305050Y326300
X303800Y318175
X291300Y317550
X291300Y322550
X281300Y328800
X291300Y341300
X305050Y337550
X287550Y365675
X285050Y373175
X285050Y386925
X266300Y417550
X277550Y423175
X255050Y443175
X238800Y445050
X223175Y448800
X209425Y439425
X195675Y452550
X191300Y473175
X164425Y458175
X156300Y454425
X167550Y416925
X175050Y403175
X188175Y402550
X194425Y406300
X199425Y406300
X203175Y402550
X213175Y407550
X218800Y419425
X226925Y410050
X243800Y410675
X243800Y426300
X229425Y430050
X240050Y460050
X260675Y472550
X247550Y483175
X262550Y495050
X273800Y506300
X276300Y510675
X298800Y487550
X301300Y479425
X295675Y468800
X309425Y468800
X333800Y468800
X350050Y445050
X358175Y435675
X364425Y426925
X358175Y414425
X372550Y399425
X330050Y410050
X333800Y426925
X328175Y431925
X370050Y473175
X378175Y476925
X386300Y490050
X370050Y511925
X344425Y496300
X322550Y511925
X311300Y513175
X308800Y491300
X336925Y542550
X340675Y550675
X421300Y500050
X425675Y493800
X417550Y486300
X414425Y476925
X397550Y465050
X421925Y452550
X435050Y452550
X436925Y441300
X414425Y441300
X445675Y478800
X453175Y476925
X465675Y445050
X470675Y426925
X485050Y423800
X500675Y411925
X513800Y418175
X501925Y391925
X486925Y388175
X477550Y368175
X477550Y357550
X504425Y341300
X508175Y348800
X529425Y328800
X550050Y321300
X572550Y306300
X581925Y310050
X603175Y315050
X605675Y322550
X586925Y341300
X581925Y361300
X558800Y348800
X531300Y384425
X466925Y408175
X461925Y408175
X462550Y393175
X453175Y384425
X448800Y399425
X436925Y332550
X465050Y323175
X465050Y315675
X473800Y299425
X457550Y290050
X477550Y273175
X486925Y254425
X485050Y242550
X473800Y245050
X461300Y254425
X453800Y224425
X441925Y217550
X453800Y206925
X412550Y210675
X396300Y164425
X400050Y153175
X400050Y138800
X412550Y138800
X427550Y142550
X431300Y121925
X450050Y120050
X461300Y153175
X483175Y171300
X490675Y173175
X485675Y160675
X496300Y158800
X489425Y146300
X493175Y135050
X501925Y143800
X511300Y125675
X535050Y131300
X538800Y135675
X543800Y151300
X544425Y160675
X526300Y162550
X526300Y171300
X516925Y167550
X548175Y176925
X555050Y180675
X558800Y176925
X560050Y182550
X558800Y194425
X546300Y216300
X550050Y226300
X550050Y236925
X526300Y258175
X538800Y260050
X558800Y282550
X563175Y291925
X546300Y293800
X522550Y286300
X513175Y297550
X504425Y297550
X507550Y319425
X585675Y269425
X590675Y269425
X576925Y246925
X576925Y236925
X533175Y203175
X500050Y203175
X575050Y160050
X538800Y114425
X401925Y99425
X355050Y78175
X271925Y21925
X211925Y75050
X198175Y85675
X190050Y72550
X179425Y85675
X179425Y99425
X182550Y103175
X186300Y110050
X175675Y110050
X178800Y126925
X190050Y138800
X211925Y135050
X218175Y155675
X214425Y175050
X200050Y188175
X196300Y185050
X193800Y179425
X193800Y168175
X169425Y158800
X163800Y153175
X158175Y145675
X154425Y138800
X150050Y141925
X145675Y149425
X158800Y123175
X157550Y91925
X211925Y95050
X233175Y95050
X256925Y179425
X231300Y215050
X226925Y219425
X210675Y221925
X208800Y216925
X206925Y201925
X203175Y198175
X199425Y194425
X193800Y205675
X190050Y213175
X173175Y203800
X154425Y192550
X130675Y205675
X118175Y209425
X141925Y227550
X167550Y238800
X171925Y241300
X169425Y231300
X173175Y226300
X188175Y245050
X188175Y260050
X180675Y263800
X158175Y254425
X119425Y261925
X101925Y267550
X94425Y263800
X106925Y246925
X119425Y245050
X114425Y284425
X96925Y284425
X116925Y307550
X130675Y303800
X154425Y298800
X181300Y291925
X216300Y322550
X220675Y335675
X244425Y318800
X246925Y309425
X251925Y304425
X244425Y302550
X255675Y295050
X242550Y288175
X246300Y282550
X228175Y275050
X214425Y250675
X216300Y236925
X253800Y220675
X259425Y245050
X268175Y254425
X273175Y264425
X269425Y267550
X264425Y269425
X275675Y273175
X277550Y280675
X285675Y284425
X279425Y290050
X281925Y294425
X292550Y295675
X318800Y310050
X340675Y306300
X342550Y282550
X326300Y254425
X316925Y257550
X305675Y246925
X311300Y236300
X305675Y231925
X318800Y238800
X335675Y250675
X342550Y248175
X337550Y243175
X346300Y230050
X362550Y238800
X290675Y238175
X276300Y241925
X273800Y246300
X283175Y270675
X224425Y304425
X235050Y361300
X230050Y371300
X238175Y373175
X234425Y380675
X226300Y384425
X238800Y390675
X247550Y388800
X251300Y373175
X190675Y410050
X184425Y390675
X160050Y395675
X141925Y405050
X130675Y405050
X120050Y424425
X111300Y390050
X115675Y384425
X115675Y375050
X115675Y369425
X106925Y365675
X106300Y359425
X94425Y363800
X86925Y355050
X83175Y350675
X75675Y331925
X79425Y328175
X89425Y324425
X92550Y328175
X103175Y330050
X118800Y341925
X126300Y340050
X148800Y330050
X151300Y365050
X147550Y373800
X158175Y375050
X134425Y371925
X129425Y366925
X134425Y384425
X95675Y378800
X75675Y395675
X45050Y348800
X96300Y180675
X130675Y175675
X628175Y376300
T02
X133991Y89894
X137082Y80383
X146592Y83474
X149682Y73963
X140172Y70873
X143262Y61362
X152773Y64452
X155863Y54942
X158953Y45431
X149442Y42341
X146352Y51852
X152533Y32831
X162043Y35921
X176300Y26300
X186300Y26300
X186300Y16300
X176300Y16300
X196300Y16300
X206300Y16300
X206300Y26300
X196300Y26300
X216300Y26300
X226300Y26300
X226300Y16300
X216300Y16300
X236300Y16300
X246300Y16300
X246300Y26300
X236300Y26300
X256300Y26300
X266300Y26300
X266300Y16300
X256300Y16300
X276300Y16300
X286300Y16300
X286300Y26300
X276300Y26300
X296300Y26300
X306300Y26300
X306300Y16300
X296300Y16300
X316300Y16300
X326300Y16300
X326300Y26300
X316300Y26300
X336300Y26300
X346300Y26300
X356300Y26300
X356300Y16300
X346300Y16300
X336300Y16300
X366300Y16300
X376300Y16300
X376300Y26300
X366300Y26300
X386300Y26300
X396300Y26300
X396300Y16300
X386300Y16300
X406300Y16300
X416300Y16300
X416300Y26300
X406300Y26300
X426300Y26300
X436300Y26300
X436300Y16300
X426300Y16300
X446300Y16300
X456300Y16300
X456300Y26300
X446300Y26300
X466300Y26300
X476300Y26300
X476300Y16300
X466300Y16300
X486300Y16300
X496300Y16300
X496300Y26300
X486300Y26300
X506300Y26300
X506300Y16300
X520557Y35921
X530067Y32831
X533158Y42341
X536248Y51852
X526737Y54942
X529827Y64452
X539338Y61362
X542428Y70873
X532918Y73963
X536008Y83474
X539098Y92984
X548608Y89894
X545518Y80383
X551699Y99405
X554789Y108915
X557879Y118426
X548368Y121516
X551459Y131026
X560969Y127936
X564059Y137447
X554549Y140537
X557639Y150048
X560729Y159558
X570240Y156468
X567150Y146957
X573330Y165978
X563819Y169069
X566909Y178579
X576420Y175489
X579510Y185000
X582600Y194510
X573090Y197600
X570000Y188090
X576180Y207111
X579270Y216621
X588781Y213531
X585691Y204021
X591871Y223042
X594961Y232552
X585450Y235643
X588541Y245153
X598051Y242063
X601141Y251574
X591631Y254664
X594721Y264174
X604232Y261084
X607322Y270595
X610412Y280105
X600901Y283195
X597811Y273685
X603991Y292706
X607082Y302217
X610172Y311727
X619682Y308637
X622773Y318148
X613262Y321238
X616352Y330748
X625863Y327658
X628953Y337169
X619442Y340259
X632043Y346679
X622533Y349769
X616849Y365270
X622727Y373361
X614637Y379238
X608759Y371148
X600669Y377026
X606546Y385116
X598456Y390994
X592578Y382904
X584488Y388782
X576398Y394660
X582276Y402750
X574186Y408628
X566096Y414505
X560218Y406415
X568308Y400537
X552128Y412293
X558005Y420383
X549915Y426261
X544037Y418171
X535947Y424049
X527857Y429927
X533735Y438017
X541825Y432139
X525645Y443895
X519767Y435805
X511677Y441682
X517555Y449773
X509464Y455650
X503586Y447560
X495496Y453438
X487406Y459316
X479316Y465194
X485194Y473284
X493284Y467406
X501374Y461528
X477104Y479162
X469013Y485040
X460923Y490918
X452833Y496795
X446955Y488705
X438865Y494583
X430775Y500461
X436653Y508551
X428563Y514429
X422685Y506339
X414595Y512217
X420472Y520307
X412382Y526185
X404292Y532063
X396202Y537940
X388112Y543818
X380022Y549696
X371931Y555574
X363841Y561452
X355751Y567330
X349873Y559239
X357963Y553362
X366054Y547484
X374144Y541606
X382234Y535728
X390324Y529850
X398414Y523972
X406504Y518095
X444743Y502673
X455045Y482827
X463136Y476950
X471226Y471072
X590366Y396872
X616592Y299126
X613502Y289616
X582360Y226132
X545278Y112005
X542188Y102495
X523647Y45431
X143502Y92984
X140412Y102495
X137322Y112005
X127811Y108915
X124721Y118426
X134232Y121516
X131141Y131026
X121631Y127936
X118541Y137447
X128051Y140537
X124961Y150048
X115450Y146957
X112360Y156468
X109270Y165978
X118781Y169069
X115691Y178579
X106180Y175489
X103090Y185000
X112600Y188090
X109510Y197600
X100000Y194510
X96909Y204021
X106420Y207111
X103330Y216621
X93819Y213531
X90729Y223042
X87639Y232552
X97150Y235643
X94059Y245153
X84549Y242063
X81459Y251574
X90969Y254664
X87879Y264174
X78368Y261084
X75278Y270595
X84789Y273685
X81699Y283195
X72188Y280105
X69098Y289616
X66008Y299126
X75518Y302217
X72428Y311727
X62918Y308637
X59827Y318148
X56737Y327658
X53647Y337169
X50557Y346679
X60067Y349769
X63158Y340259
X66248Y330748
X69338Y321238
X78608Y292706
X100240Y226132
X121871Y159558
X130901Y99405
X65751Y365270
X59873Y373361
X67963Y379238
X73841Y371148
X81931Y377026
X76054Y385116
X84144Y390994
X90022Y382904
X98112Y388782
X106202Y394660
X100324Y402750
X92234Y396872
X108414Y408628
X116504Y414505
X122382Y406415
X130472Y412293
X124595Y420383
X132685Y426261
X138563Y418171
X146653Y424049
X140775Y432139
X148865Y438017
X156955Y443895
X165045Y449773
X173136Y455650
X179013Y447560
X170923Y441682
X162833Y435805
X154743Y429927
X187104Y453438
X181226Y461528
X189316Y467406
X195194Y459316
X203284Y465194
X197406Y473284
X205496Y479162
X213586Y485040
X221677Y490918
X227555Y482827
X219464Y476950
X211374Y471072
X235645Y488705
X243735Y494583
X251825Y500461
X245947Y508551
X237857Y502673
X229767Y496795
X254037Y514429
X259915Y506339
X268005Y512217
X262128Y520307
X270218Y526185
X278308Y532063
X286398Y537940
X294488Y543818
X302578Y549696
X308456Y541606
X300366Y535728
X292276Y529850
X284186Y523972
X276096Y518095
X316546Y547484
X324637Y553362
X332727Y559239
X326849Y567330
X318759Y561452
X310669Y555574
X114292Y400537
T03
X46300Y363300
X341300Y576300
X636300Y363300
X524300Y17300
X158300Y17300
M30
