G75*
%MOIN*%
%OFA0B0*%
%FSLAX25Y25*%
%IPPOS*%
%LPD*%
%AMOC8*
5,1,8,0,0,1.08239X$1,22.5*
%
%ADD10C,0.00400*%
%ADD11C,0.00600*%
%ADD12R,0.10000X0.10000*%
%ADD13C,0.00500*%
%ADD14R,0.10000X0.10000*%
D10*
X0176500Y0091500D02*
X0176500Y0096104D01*
X0179569Y0091500D01*
X0179569Y0096104D01*
X0181104Y0093802D02*
X0181104Y0092267D01*
X0181871Y0091500D01*
X0183406Y0091500D01*
X0184173Y0092267D01*
X0184173Y0093802D01*
X0183406Y0094569D01*
X0181871Y0094569D01*
X0181104Y0093802D01*
X0185708Y0094569D02*
X0187242Y0094569D01*
X0186475Y0095337D02*
X0186475Y0092267D01*
X0187242Y0091500D01*
X0188777Y0092267D02*
X0188777Y0093802D01*
X0189544Y0094569D01*
X0191079Y0094569D01*
X0191846Y0093802D01*
X0191846Y0093035D01*
X0188777Y0093035D01*
X0188777Y0092267D02*
X0189544Y0091500D01*
X0191079Y0091500D01*
X0193381Y0091500D02*
X0193381Y0092267D01*
X0194148Y0092267D01*
X0194148Y0091500D01*
X0193381Y0091500D01*
X0193381Y0093802D02*
X0193381Y0094569D01*
X0194148Y0094569D01*
X0194148Y0093802D01*
X0193381Y0093802D01*
X0200287Y0093802D02*
X0203356Y0093802D01*
X0204891Y0093802D02*
X0206425Y0093802D01*
X0204891Y0096104D02*
X0204891Y0091500D01*
X0207960Y0091500D01*
X0209495Y0091500D02*
X0209495Y0094569D01*
X0211029Y0096104D01*
X0212564Y0094569D01*
X0212564Y0091500D01*
X0214099Y0091500D02*
X0216401Y0091500D01*
X0217168Y0092267D01*
X0217168Y0095337D01*
X0216401Y0096104D01*
X0214099Y0096104D01*
X0214099Y0091500D01*
X0212564Y0093802D02*
X0209495Y0093802D01*
X0207960Y0096104D02*
X0204891Y0096104D01*
X0203356Y0096104D02*
X0203356Y0091500D01*
X0200287Y0091500D02*
X0200287Y0096104D01*
X0204124Y0104965D02*
X0204124Y0109569D01*
X0206426Y0109569D01*
X0207193Y0108802D01*
X0207193Y0107267D01*
X0206426Y0106500D01*
X0204124Y0106500D01*
X0202589Y0108802D02*
X0199520Y0108802D01*
X0197985Y0110337D02*
X0194916Y0107267D01*
X0195683Y0106500D01*
X0197218Y0106500D01*
X0197985Y0107267D01*
X0197985Y0110337D01*
X0197218Y0111104D01*
X0195683Y0111104D01*
X0194916Y0110337D01*
X0194916Y0107267D01*
X0193381Y0107267D02*
X0192614Y0106500D01*
X0191079Y0106500D01*
X0190312Y0107267D01*
X0193381Y0110337D01*
X0193381Y0107267D01*
X0190312Y0107267D02*
X0190312Y0110337D01*
X0191079Y0111104D01*
X0192614Y0111104D01*
X0193381Y0110337D01*
X0188777Y0110337D02*
X0185708Y0107267D01*
X0186475Y0106500D01*
X0188010Y0106500D01*
X0188777Y0107267D01*
X0188777Y0110337D01*
X0188010Y0111104D01*
X0186475Y0111104D01*
X0185708Y0110337D01*
X0185708Y0107267D01*
X0184173Y0107267D02*
X0183406Y0106500D01*
X0181871Y0106500D01*
X0181104Y0107267D01*
X0181104Y0108035D01*
X0181871Y0108802D01*
X0183406Y0108802D01*
X0184173Y0108035D01*
X0184173Y0107267D01*
X0183406Y0108802D02*
X0184173Y0109569D01*
X0184173Y0110337D01*
X0183406Y0111104D01*
X0181871Y0111104D01*
X0181104Y0110337D01*
X0181104Y0109569D01*
X0181871Y0108802D01*
X0179569Y0110337D02*
X0176500Y0107267D01*
X0176500Y0106500D01*
X0179569Y0106500D01*
X0179569Y0110337D02*
X0179569Y0111104D01*
X0176500Y0111104D01*
X0208727Y0108802D02*
X0208727Y0107267D01*
X0209495Y0106500D01*
X0211029Y0106500D01*
X0211797Y0108035D02*
X0208727Y0108035D01*
X0208727Y0108802D02*
X0209495Y0109569D01*
X0211029Y0109569D01*
X0211797Y0108802D01*
X0211797Y0108035D01*
X0213331Y0109569D02*
X0213331Y0106500D01*
X0213331Y0109569D02*
X0215633Y0109569D01*
X0216401Y0108802D01*
X0216401Y0106500D01*
X0218703Y0107267D02*
X0219470Y0106500D01*
X0218703Y0107267D02*
X0218703Y0110337D01*
X0219470Y0109569D02*
X0217935Y0109569D01*
X0221005Y0107267D02*
X0221772Y0108035D01*
X0224074Y0108035D01*
X0224074Y0108802D02*
X0224074Y0106500D01*
X0221772Y0106500D01*
X0221005Y0107267D01*
X0221772Y0109569D02*
X0223307Y0109569D01*
X0224074Y0108802D01*
X0230212Y0107267D02*
X0230212Y0110337D01*
X0230980Y0111104D01*
X0232514Y0111104D01*
X0233282Y0110337D01*
X0230212Y0107267D01*
X0230980Y0106500D01*
X0232514Y0106500D01*
X0233282Y0107267D01*
X0233282Y0110337D01*
X0234816Y0107267D02*
X0235584Y0107267D01*
X0235584Y0106500D01*
X0234816Y0106500D01*
X0234816Y0107267D01*
X0237118Y0106500D02*
X0240188Y0106500D01*
X0238653Y0106500D02*
X0238653Y0111104D01*
X0237118Y0109569D01*
X0246326Y0109569D02*
X0246326Y0107267D01*
X0247093Y0106500D01*
X0247861Y0107267D01*
X0248628Y0106500D01*
X0249395Y0107267D01*
X0249395Y0109569D01*
X0250930Y0109569D02*
X0250930Y0107267D01*
X0251697Y0106500D01*
X0252465Y0107267D01*
X0253232Y0106500D01*
X0253999Y0107267D01*
X0253999Y0109569D01*
X0255534Y0109569D02*
X0255534Y0107267D01*
X0256301Y0106500D01*
X0257069Y0107267D01*
X0257836Y0106500D01*
X0258603Y0107267D01*
X0258603Y0109569D01*
X0260138Y0107267D02*
X0260905Y0107267D01*
X0260905Y0106500D01*
X0260138Y0106500D01*
X0260138Y0107267D01*
X0262440Y0106500D02*
X0264742Y0106500D01*
X0265509Y0107267D01*
X0264742Y0108035D01*
X0263207Y0108035D01*
X0262440Y0108802D01*
X0263207Y0109569D01*
X0265509Y0109569D01*
X0267044Y0109569D02*
X0267811Y0109569D01*
X0268578Y0108802D01*
X0269346Y0109569D01*
X0270113Y0108802D01*
X0270113Y0106500D01*
X0268578Y0106500D02*
X0268578Y0108802D01*
X0267044Y0109569D02*
X0267044Y0106500D01*
X0271648Y0106500D02*
X0271648Y0111104D01*
X0271648Y0109569D02*
X0273950Y0109569D01*
X0274717Y0108802D01*
X0274717Y0107267D01*
X0273950Y0106500D01*
X0271648Y0106500D01*
X0276252Y0107267D02*
X0277019Y0108035D01*
X0279321Y0108035D01*
X0279321Y0108802D02*
X0279321Y0106500D01*
X0277019Y0106500D01*
X0276252Y0107267D01*
X0277019Y0109569D02*
X0278554Y0109569D01*
X0279321Y0108802D01*
X0280856Y0108035D02*
X0283158Y0109569D01*
X0284692Y0108802D02*
X0285460Y0109569D01*
X0286994Y0109569D01*
X0287761Y0108802D01*
X0287761Y0108035D01*
X0284692Y0108035D01*
X0284692Y0108802D02*
X0284692Y0107267D01*
X0285460Y0106500D01*
X0286994Y0106500D01*
X0289296Y0106500D02*
X0289296Y0109569D01*
X0289296Y0108035D02*
X0290831Y0109569D01*
X0291598Y0109569D01*
X0293133Y0107267D02*
X0293900Y0107267D01*
X0293900Y0106500D01*
X0293133Y0106500D01*
X0293133Y0107267D01*
X0295435Y0107267D02*
X0296202Y0106500D01*
X0298504Y0106500D01*
X0300039Y0107267D02*
X0300806Y0106500D01*
X0302341Y0106500D01*
X0303108Y0107267D01*
X0303108Y0108802D01*
X0302341Y0109569D01*
X0300806Y0109569D01*
X0300039Y0108802D01*
X0300039Y0107267D01*
X0298504Y0109569D02*
X0296202Y0109569D01*
X0295435Y0108802D01*
X0295435Y0107267D01*
X0283158Y0106500D02*
X0280856Y0108035D01*
X0280856Y0106500D02*
X0280856Y0111104D01*
X0279321Y0096104D02*
X0277786Y0096104D01*
X0277019Y0095337D01*
X0277019Y0094569D01*
X0277786Y0093802D01*
X0279321Y0093802D01*
X0280088Y0093035D01*
X0280088Y0092267D01*
X0279321Y0091500D01*
X0277786Y0091500D01*
X0277019Y0092267D01*
X0275484Y0091500D02*
X0273950Y0091500D01*
X0274717Y0091500D02*
X0274717Y0096104D01*
X0273950Y0096104D02*
X0275484Y0096104D01*
X0272415Y0096104D02*
X0272415Y0091500D01*
X0272415Y0093802D02*
X0269346Y0093802D01*
X0269346Y0091500D02*
X0269346Y0096104D01*
X0267811Y0096104D02*
X0264742Y0096104D01*
X0266277Y0096104D02*
X0266277Y0091500D01*
X0258603Y0091500D02*
X0258603Y0093802D01*
X0257836Y0094569D01*
X0255534Y0094569D01*
X0255534Y0091500D01*
X0253999Y0092267D02*
X0253999Y0093802D01*
X0253232Y0094569D01*
X0251697Y0094569D01*
X0250930Y0093802D01*
X0250930Y0092267D01*
X0251697Y0091500D01*
X0253232Y0091500D01*
X0253999Y0092267D01*
X0244792Y0092267D02*
X0244792Y0093802D01*
X0244024Y0094569D01*
X0242490Y0094569D01*
X0241722Y0093802D01*
X0241722Y0092267D01*
X0242490Y0091500D01*
X0244024Y0091500D01*
X0244792Y0092267D01*
X0240188Y0091500D02*
X0237886Y0091500D01*
X0237118Y0092267D01*
X0237118Y0093802D01*
X0237886Y0094569D01*
X0240188Y0094569D01*
X0240188Y0090733D01*
X0239420Y0089965D01*
X0238653Y0089965D01*
X0230980Y0092267D02*
X0230212Y0091500D01*
X0228678Y0091500D01*
X0227910Y0092267D01*
X0226376Y0091500D02*
X0224841Y0093035D01*
X0225609Y0093035D02*
X0223307Y0093035D01*
X0223307Y0091500D02*
X0223307Y0096104D01*
X0225609Y0096104D01*
X0226376Y0095337D01*
X0226376Y0093802D01*
X0225609Y0093035D01*
X0227910Y0094569D02*
X0228678Y0093802D01*
X0230212Y0093802D01*
X0230980Y0093035D01*
X0230980Y0092267D01*
X0230980Y0095337D02*
X0230212Y0096104D01*
X0228678Y0096104D01*
X0227910Y0095337D01*
X0227910Y0094569D01*
X0221772Y0096104D02*
X0218703Y0096104D01*
X0218703Y0091500D01*
X0221772Y0091500D01*
X0220237Y0093802D02*
X0218703Y0093802D01*
X0279321Y0096104D02*
X0280088Y0095337D01*
X0286227Y0095337D02*
X0286227Y0094569D01*
X0286994Y0093802D01*
X0288529Y0093802D01*
X0289296Y0093035D01*
X0289296Y0092267D01*
X0288529Y0091500D01*
X0286994Y0091500D01*
X0286227Y0092267D01*
X0286227Y0095337D02*
X0286994Y0096104D01*
X0288529Y0096104D01*
X0289296Y0095337D01*
X0290831Y0096104D02*
X0292365Y0096104D01*
X0291598Y0096104D02*
X0291598Y0091500D01*
X0290831Y0091500D02*
X0292365Y0091500D01*
X0293900Y0091500D02*
X0296202Y0091500D01*
X0296969Y0092267D01*
X0296969Y0095337D01*
X0296202Y0096104D01*
X0293900Y0096104D01*
X0293900Y0091500D01*
X0298504Y0091500D02*
X0301573Y0091500D01*
X0300039Y0093802D02*
X0298504Y0093802D01*
X0298504Y0096104D02*
X0298504Y0091500D01*
X0298504Y0096104D02*
X0301573Y0096104D01*
X0307712Y0096871D02*
X0307712Y0093802D01*
X0309246Y0093802D02*
X0309246Y0096871D01*
X0310781Y0096871D02*
X0310781Y0093802D01*
X0310781Y0092267D02*
X0310781Y0091500D01*
X0309246Y0091500D02*
X0309246Y0092267D01*
X0307712Y0092267D02*
X0307712Y0091500D01*
X0307712Y0106500D02*
X0307712Y0108802D01*
X0306945Y0109569D01*
X0306177Y0108802D01*
X0306177Y0106500D01*
X0304643Y0106500D02*
X0304643Y0109569D01*
X0305410Y0109569D01*
X0306177Y0108802D01*
D11*
X0126919Y0095482D02*
X0125373Y0100237D01*
X0126979Y0103387D01*
X0123828Y0104992D01*
X0122283Y0109748D01*
X0123888Y0112898D01*
X0120738Y0114503D01*
X0119193Y0119258D01*
X0120798Y0122408D01*
X0117648Y0124014D01*
X0116103Y0128769D01*
X0117708Y0131919D01*
X0114558Y0133524D01*
X0113013Y0138279D01*
X0114618Y0141430D01*
X0111468Y0143035D01*
X0109923Y0147790D01*
X0111528Y0150940D01*
X0108378Y0152545D01*
X0106832Y0157300D01*
X0108438Y0160451D01*
X0105287Y0162056D01*
X0103742Y0166811D01*
X0105347Y0169961D01*
X0102197Y0171566D01*
X0100652Y0176322D01*
X0102257Y0179472D01*
X0099107Y0181077D01*
X0097562Y0185832D01*
X0099167Y0188982D01*
X0096017Y0190587D01*
X0094472Y0195343D01*
X0096077Y0198493D01*
X0092927Y0200098D01*
X0091382Y0204853D01*
X0092987Y0208003D01*
X0089837Y0209609D01*
X0088291Y0214364D01*
X0089897Y0217514D01*
X0086746Y0219119D01*
X0085201Y0223874D01*
X0086806Y0227025D01*
X0083656Y0228630D01*
X0082111Y0233385D01*
X0083716Y0236535D01*
X0080566Y0238140D01*
X0079021Y0242896D01*
X0080626Y0246046D01*
X0077476Y0247651D01*
X0075931Y0252406D01*
X0077536Y0255556D01*
X0074386Y0257161D01*
X0072841Y0261917D01*
X0074446Y0265067D01*
X0071296Y0266672D01*
X0069750Y0271427D01*
X0071356Y0274577D01*
X0068205Y0276183D01*
X0066660Y0280938D01*
X0068265Y0284088D01*
X0065115Y0285693D01*
X0063570Y0290448D01*
X0065175Y0293599D01*
X0062025Y0295204D01*
X0060480Y0299959D01*
X0062085Y0303109D01*
X0058935Y0304714D01*
X0057390Y0309470D01*
X0058995Y0312620D01*
X0055845Y0314225D01*
X0054300Y0318980D01*
X0055905Y0322130D01*
X0052755Y0323735D01*
X0051209Y0328491D01*
X0052815Y0331641D01*
X0049664Y0333246D01*
X0048119Y0338001D01*
X0049724Y0341151D01*
X0046574Y0342757D01*
X0045029Y0347512D01*
X0046634Y0350662D01*
X0060900Y0355297D01*
X0064050Y0353692D01*
X0065595Y0348937D01*
X0063990Y0345787D01*
X0067140Y0344182D01*
X0068685Y0339426D01*
X0067080Y0336276D01*
X0070231Y0334671D01*
X0071776Y0329916D01*
X0070171Y0326766D01*
X0073321Y0325160D01*
X0074866Y0320405D01*
X0073261Y0317255D01*
X0076411Y0315650D01*
X0077956Y0310895D01*
X0076351Y0307744D01*
X0079501Y0306139D01*
X0081046Y0301384D01*
X0079441Y0298234D01*
X0082591Y0296629D01*
X0084136Y0291873D01*
X0082531Y0288723D01*
X0085681Y0287118D01*
X0087226Y0282363D01*
X0085621Y0279213D01*
X0088772Y0277608D01*
X0090317Y0272852D01*
X0088712Y0269702D01*
X0091862Y0268097D01*
X0093407Y0263342D01*
X0091802Y0260192D01*
X0094952Y0258586D01*
X0096497Y0253831D01*
X0094892Y0250681D01*
X0098042Y0249076D01*
X0099587Y0244321D01*
X0097982Y0241170D01*
X0101132Y0239565D01*
X0102677Y0234810D01*
X0101072Y0231660D01*
X0104222Y0230055D01*
X0105768Y0225299D01*
X0104162Y0222149D01*
X0107313Y0220544D01*
X0108858Y0215789D01*
X0107253Y0212639D01*
X0110403Y0211034D01*
X0111948Y0206278D01*
X0110343Y0203128D01*
X0113493Y0201523D01*
X0115038Y0196768D01*
X0113433Y0193618D01*
X0116583Y0192013D01*
X0118128Y0187257D01*
X0116523Y0184107D01*
X0119673Y0182502D01*
X0121218Y0177747D01*
X0119613Y0174596D01*
X0122763Y0172991D01*
X0124309Y0168236D01*
X0122703Y0165086D01*
X0125854Y0163481D01*
X0127399Y0158726D01*
X0125794Y0155575D01*
X0128944Y0153970D01*
X0130489Y0149215D01*
X0128884Y0146065D01*
X0132034Y0144460D01*
X0133579Y0139704D01*
X0131974Y0136554D01*
X0135124Y0134949D01*
X0136669Y0130194D01*
X0135064Y0127044D01*
X0138214Y0125439D01*
X0139759Y0120683D01*
X0138154Y0117533D01*
X0141304Y0115928D01*
X0142850Y0111173D01*
X0141244Y0108023D01*
X0144395Y0106417D01*
X0145940Y0101662D01*
X0144335Y0098512D01*
X0147485Y0096907D01*
X0149030Y0092152D01*
X0147425Y0089001D01*
X0150575Y0087396D01*
X0152120Y0082641D01*
X0150515Y0079491D01*
X0153665Y0077886D01*
X0155210Y0073130D01*
X0153605Y0069980D01*
X0156755Y0068375D01*
X0158300Y0063620D01*
X0156695Y0060470D01*
X0159845Y0058865D01*
X0161391Y0054109D01*
X0159785Y0050959D01*
X0162936Y0049354D01*
X0164481Y0044599D01*
X0162876Y0041449D01*
X0166026Y0039843D01*
X0167571Y0035088D01*
X0165966Y0031938D01*
X0151700Y0027303D01*
X0148550Y0028908D01*
X0147005Y0033663D01*
X0148610Y0036813D01*
X0145460Y0038418D01*
X0143915Y0043174D01*
X0145520Y0046324D01*
X0142369Y0047929D01*
X0140824Y0052684D01*
X0142429Y0055834D01*
X0139279Y0057440D01*
X0137734Y0062195D01*
X0139339Y0065345D01*
X0136189Y0066950D01*
X0134644Y0071705D01*
X0136249Y0074856D01*
X0133099Y0076461D01*
X0131554Y0081216D01*
X0133159Y0084366D01*
X0130009Y0085971D01*
X0128464Y0090727D01*
X0130069Y0093877D01*
X0126919Y0095482D01*
X0173800Y0031300D02*
X0171300Y0028800D01*
X0171300Y0013800D01*
X0173800Y0011300D01*
X0178800Y0011300D01*
X0181300Y0013800D01*
X0183800Y0011300D01*
X0188800Y0011300D01*
X0191300Y0013800D01*
X0193800Y0011300D01*
X0198800Y0011300D01*
X0201300Y0013800D01*
X0203800Y0011300D01*
X0208800Y0011300D01*
X0211300Y0013800D01*
X0213800Y0011300D01*
X0218800Y0011300D01*
X0221300Y0013800D01*
X0223800Y0011300D01*
X0228800Y0011300D01*
X0231300Y0013800D01*
X0233800Y0011300D01*
X0238800Y0011300D01*
X0241300Y0013800D01*
X0243800Y0011300D01*
X0248800Y0011300D01*
X0251300Y0013800D01*
X0253800Y0011300D01*
X0258800Y0011300D01*
X0261300Y0013800D01*
X0263800Y0011300D01*
X0268800Y0011300D01*
X0271300Y0013800D01*
X0273800Y0011300D01*
X0278800Y0011300D01*
X0281300Y0013800D01*
X0283800Y0011300D01*
X0288800Y0011300D01*
X0291300Y0013800D01*
X0293800Y0011300D01*
X0298800Y0011300D01*
X0301300Y0013800D01*
X0303800Y0011300D01*
X0308800Y0011300D01*
X0311300Y0013800D01*
X0313800Y0011300D01*
X0318800Y0011300D01*
X0321300Y0013800D01*
X0323800Y0011300D01*
X0328800Y0011300D01*
X0331300Y0013800D01*
X0333800Y0011300D01*
X0338800Y0011300D01*
X0341300Y0013800D01*
X0343800Y0011300D01*
X0348800Y0011300D01*
X0351300Y0013800D01*
X0353800Y0011300D01*
X0358800Y0011300D01*
X0361300Y0013800D01*
X0363800Y0011300D01*
X0368800Y0011300D01*
X0371300Y0013800D01*
X0373800Y0011300D01*
X0378800Y0011300D01*
X0381300Y0013800D01*
X0383800Y0011300D01*
X0388800Y0011300D01*
X0391300Y0013800D01*
X0393800Y0011300D01*
X0398800Y0011300D01*
X0401300Y0013800D01*
X0403800Y0011300D01*
X0408800Y0011300D01*
X0411300Y0013800D01*
X0413800Y0011300D01*
X0418800Y0011300D01*
X0421300Y0013800D01*
X0423800Y0011300D01*
X0428800Y0011300D01*
X0431300Y0013800D01*
X0433800Y0011300D01*
X0438800Y0011300D01*
X0441300Y0013800D01*
X0443800Y0011300D01*
X0448800Y0011300D01*
X0451300Y0013800D01*
X0453800Y0011300D01*
X0458800Y0011300D01*
X0461300Y0013800D01*
X0463800Y0011300D01*
X0468800Y0011300D01*
X0471300Y0013800D01*
X0473800Y0011300D01*
X0478800Y0011300D01*
X0481300Y0013800D01*
X0483800Y0011300D01*
X0488800Y0011300D01*
X0491300Y0013800D01*
X0493800Y0011300D01*
X0498800Y0011300D01*
X0501300Y0013800D01*
X0503800Y0011300D01*
X0508800Y0011300D01*
X0511300Y0013800D01*
X0511300Y0028800D01*
X0508800Y0031300D01*
X0503800Y0031300D01*
X0501300Y0028800D01*
X0498800Y0031300D01*
X0493800Y0031300D01*
X0491300Y0028800D01*
X0488800Y0031300D01*
X0483800Y0031300D01*
X0481300Y0028800D01*
X0478800Y0031300D01*
X0473800Y0031300D01*
X0471300Y0028800D01*
X0468800Y0031300D01*
X0463800Y0031300D01*
X0461300Y0028800D01*
X0458800Y0031300D01*
X0453800Y0031300D01*
X0451300Y0028800D01*
X0448800Y0031300D01*
X0443800Y0031300D01*
X0441300Y0028800D01*
X0438800Y0031300D01*
X0433800Y0031300D01*
X0431300Y0028800D01*
X0428800Y0031300D01*
X0423800Y0031300D01*
X0421300Y0028800D01*
X0418800Y0031300D01*
X0413800Y0031300D01*
X0411300Y0028800D01*
X0408800Y0031300D01*
X0403800Y0031300D01*
X0401300Y0028800D01*
X0398800Y0031300D01*
X0393800Y0031300D01*
X0391300Y0028800D01*
X0388800Y0031300D01*
X0383800Y0031300D01*
X0381300Y0028800D01*
X0378800Y0031300D01*
X0373800Y0031300D01*
X0371300Y0028800D01*
X0368800Y0031300D01*
X0363800Y0031300D01*
X0361300Y0028800D01*
X0358800Y0031300D01*
X0353800Y0031300D01*
X0351300Y0028800D01*
X0348800Y0031300D01*
X0343800Y0031300D01*
X0341300Y0028800D01*
X0338800Y0031300D01*
X0333800Y0031300D01*
X0331300Y0028800D01*
X0328800Y0031300D01*
X0323800Y0031300D01*
X0321300Y0028800D01*
X0318800Y0031300D01*
X0313800Y0031300D01*
X0311300Y0028800D01*
X0308800Y0031300D01*
X0303800Y0031300D01*
X0301300Y0028800D01*
X0298800Y0031300D01*
X0293800Y0031300D01*
X0291300Y0028800D01*
X0288800Y0031300D01*
X0283800Y0031300D01*
X0281300Y0028800D01*
X0278800Y0031300D01*
X0273800Y0031300D01*
X0271300Y0028800D01*
X0268800Y0031300D01*
X0263800Y0031300D01*
X0261300Y0028800D01*
X0258800Y0031300D01*
X0253800Y0031300D01*
X0251300Y0028800D01*
X0248800Y0031300D01*
X0243800Y0031300D01*
X0241300Y0028800D01*
X0238800Y0031300D01*
X0233800Y0031300D01*
X0231300Y0028800D01*
X0228800Y0031300D01*
X0223800Y0031300D01*
X0221300Y0028800D01*
X0218800Y0031300D01*
X0213800Y0031300D01*
X0211300Y0028800D01*
X0208800Y0031300D01*
X0203800Y0031300D01*
X0201300Y0028800D01*
X0198800Y0031300D01*
X0193800Y0031300D01*
X0191300Y0028800D01*
X0188800Y0031300D01*
X0183800Y0031300D01*
X0181300Y0028800D01*
X0178800Y0031300D01*
X0173800Y0031300D01*
X0515029Y0035088D02*
X0516634Y0031938D01*
X0530900Y0027303D01*
X0534050Y0028908D01*
X0535595Y0033663D01*
X0533990Y0036813D01*
X0537140Y0038418D01*
X0538685Y0043174D01*
X0537080Y0046324D01*
X0540231Y0047929D01*
X0541776Y0052684D01*
X0540171Y0055834D01*
X0543321Y0057440D01*
X0544866Y0062195D01*
X0543261Y0065345D01*
X0546411Y0066950D01*
X0547956Y0071705D01*
X0546351Y0074856D01*
X0549501Y0076461D01*
X0551046Y0081216D01*
X0549441Y0084366D01*
X0552591Y0085971D01*
X0554136Y0090727D01*
X0552531Y0093877D01*
X0555681Y0095482D01*
X0557226Y0100237D01*
X0555621Y0103387D01*
X0558772Y0104992D01*
X0560317Y0109748D01*
X0558712Y0112898D01*
X0561862Y0114503D01*
X0563407Y0119258D01*
X0561802Y0122408D01*
X0564952Y0124014D01*
X0566497Y0128769D01*
X0564892Y0131919D01*
X0568042Y0133524D01*
X0569587Y0138279D01*
X0567982Y0141430D01*
X0571132Y0143035D01*
X0572677Y0147790D01*
X0571072Y0150940D01*
X0574222Y0152545D01*
X0575768Y0157300D01*
X0574162Y0160451D01*
X0577313Y0162056D01*
X0578858Y0166811D01*
X0577253Y0169961D01*
X0580403Y0171566D01*
X0581948Y0176322D01*
X0580343Y0179472D01*
X0583493Y0181077D01*
X0585038Y0185832D01*
X0583433Y0188982D01*
X0586583Y0190587D01*
X0588128Y0195343D01*
X0586523Y0198493D01*
X0589673Y0200098D01*
X0591218Y0204853D01*
X0589613Y0208003D01*
X0592763Y0209609D01*
X0594309Y0214364D01*
X0592703Y0217514D01*
X0595854Y0219119D01*
X0597399Y0223874D01*
X0595794Y0227025D01*
X0598944Y0228630D01*
X0600489Y0233385D01*
X0598884Y0236535D01*
X0602034Y0238140D01*
X0603579Y0242896D01*
X0601974Y0246046D01*
X0605124Y0247651D01*
X0606669Y0252406D01*
X0605064Y0255556D01*
X0608214Y0257161D01*
X0609759Y0261917D01*
X0608154Y0265067D01*
X0611304Y0266672D01*
X0612850Y0271427D01*
X0611244Y0274577D01*
X0614395Y0276183D01*
X0615940Y0280938D01*
X0614335Y0284088D01*
X0617485Y0285693D01*
X0619030Y0290448D01*
X0617425Y0293599D01*
X0620575Y0295204D01*
X0622120Y0299959D01*
X0620515Y0303109D01*
X0623665Y0304714D01*
X0625210Y0309470D01*
X0623605Y0312620D01*
X0626755Y0314225D01*
X0628300Y0318980D01*
X0626695Y0322130D01*
X0629845Y0323735D01*
X0631391Y0328491D01*
X0629785Y0331641D01*
X0632936Y0333246D01*
X0634481Y0338001D01*
X0632876Y0341151D01*
X0636026Y0342757D01*
X0637571Y0347512D01*
X0635966Y0350662D01*
X0621700Y0355297D01*
X0618550Y0353692D01*
X0617005Y0348937D01*
X0618610Y0345787D01*
X0615460Y0344182D01*
X0613915Y0339426D01*
X0615520Y0336276D01*
X0612369Y0334671D01*
X0610824Y0329916D01*
X0612429Y0326766D01*
X0609279Y0325160D01*
X0607734Y0320405D01*
X0609339Y0317255D01*
X0606189Y0315650D01*
X0604644Y0310895D01*
X0606249Y0307744D01*
X0603099Y0306139D01*
X0601554Y0301384D01*
X0603159Y0298234D01*
X0600009Y0296629D01*
X0598464Y0291873D01*
X0600069Y0288723D01*
X0596919Y0287118D01*
X0595373Y0282363D01*
X0596979Y0279213D01*
X0593828Y0277608D01*
X0592283Y0272852D01*
X0593888Y0269702D01*
X0590738Y0268097D01*
X0589193Y0263342D01*
X0590798Y0260192D01*
X0587648Y0258586D01*
X0586103Y0253831D01*
X0587708Y0250681D01*
X0584558Y0249076D01*
X0583013Y0244321D01*
X0584618Y0241170D01*
X0581468Y0239565D01*
X0579923Y0234810D01*
X0581528Y0231660D01*
X0578378Y0230055D01*
X0576832Y0225299D01*
X0578438Y0222149D01*
X0575287Y0220544D01*
X0573742Y0215789D01*
X0575347Y0212639D01*
X0572197Y0211034D01*
X0570652Y0206278D01*
X0572257Y0203128D01*
X0569107Y0201523D01*
X0567562Y0196768D01*
X0569167Y0193618D01*
X0566017Y0192013D01*
X0564472Y0187257D01*
X0566077Y0184107D01*
X0562927Y0182502D01*
X0561382Y0177747D01*
X0562987Y0174596D01*
X0559837Y0172991D01*
X0558291Y0168236D01*
X0559897Y0165086D01*
X0556746Y0163481D01*
X0555201Y0158726D01*
X0556806Y0155575D01*
X0553656Y0153970D01*
X0552111Y0149215D01*
X0553716Y0146065D01*
X0550566Y0144460D01*
X0549021Y0139704D01*
X0550626Y0136554D01*
X0547476Y0134949D01*
X0545931Y0130194D01*
X0547536Y0127044D01*
X0544386Y0125439D01*
X0542841Y0120683D01*
X0544446Y0117533D01*
X0541296Y0115928D01*
X0539750Y0111173D01*
X0541356Y0108023D01*
X0538205Y0106417D01*
X0536660Y0101662D01*
X0538265Y0098512D01*
X0535115Y0096907D01*
X0533570Y0092152D01*
X0535175Y0089001D01*
X0532025Y0087396D01*
X0530480Y0082641D01*
X0532085Y0079491D01*
X0528935Y0077886D01*
X0527390Y0073130D01*
X0528995Y0069980D01*
X0525845Y0068375D01*
X0524300Y0063620D01*
X0525905Y0060470D01*
X0522755Y0058865D01*
X0521209Y0054109D01*
X0522815Y0050959D01*
X0519664Y0049354D01*
X0518119Y0044599D01*
X0519724Y0041449D01*
X0516574Y0039843D01*
X0515029Y0035088D01*
X0615932Y0359756D02*
X0619424Y0360309D01*
X0628241Y0372444D01*
X0627688Y0375936D01*
X0623643Y0378875D01*
X0620151Y0378322D01*
X0619598Y0381814D01*
X0615553Y0384753D01*
X0612061Y0384200D01*
X0611508Y0387692D01*
X0607463Y0390631D01*
X0603971Y0390078D01*
X0603418Y0393570D01*
X0599373Y0396509D01*
X0595881Y0395956D01*
X0595328Y0399448D01*
X0591282Y0402386D01*
X0587790Y0401833D01*
X0587237Y0405325D01*
X0583192Y0408264D01*
X0579700Y0407711D01*
X0579147Y0411203D01*
X0575102Y0414142D01*
X0571610Y0413589D01*
X0571057Y0417081D01*
X0567012Y0420020D01*
X0563520Y0419467D01*
X0562967Y0422959D01*
X0558922Y0425898D01*
X0555430Y0425345D01*
X0554877Y0428837D01*
X0550832Y0431776D01*
X0547340Y0431223D01*
X0546786Y0434715D01*
X0542741Y0437654D01*
X0539249Y0437101D01*
X0538696Y0440593D01*
X0534651Y0443531D01*
X0531159Y0442978D01*
X0530606Y0446470D01*
X0526561Y0449409D01*
X0523069Y0448856D01*
X0522516Y0452348D01*
X0518471Y0455287D01*
X0514979Y0454734D01*
X0514426Y0458226D01*
X0510381Y0461165D01*
X0506889Y0460612D01*
X0506336Y0464104D01*
X0502291Y0467043D01*
X0498799Y0466490D01*
X0498245Y0469982D01*
X0494200Y0472921D01*
X0490708Y0472368D01*
X0490155Y0475860D01*
X0486110Y0478799D01*
X0482618Y0478245D01*
X0482065Y0481737D01*
X0478020Y0484676D01*
X0474528Y0484123D01*
X0473975Y0487615D01*
X0469930Y0490554D01*
X0466438Y0490001D01*
X0465885Y0493493D01*
X0461840Y0496432D01*
X0458348Y0495879D01*
X0457795Y0499371D01*
X0453750Y0502310D01*
X0450258Y0501757D01*
X0449704Y0505249D01*
X0445659Y0508188D01*
X0442167Y0507635D01*
X0441614Y0511127D01*
X0437569Y0514066D01*
X0434077Y0513513D01*
X0433524Y0517005D01*
X0429479Y0519944D01*
X0425987Y0519390D01*
X0425434Y0522882D01*
X0421389Y0525821D01*
X0417897Y0525268D01*
X0417344Y0528760D01*
X0413299Y0531699D01*
X0409807Y0531146D01*
X0409254Y0534638D01*
X0405209Y0537577D01*
X0401717Y0537024D01*
X0401163Y0540516D01*
X0397118Y0543455D01*
X0393626Y0542902D01*
X0393073Y0546394D01*
X0389028Y0549333D01*
X0385536Y0548780D01*
X0384983Y0552272D01*
X0380938Y0555211D01*
X0377446Y0554658D01*
X0376893Y0558150D01*
X0372848Y0561088D01*
X0369356Y0560535D01*
X0368803Y0564027D01*
X0364758Y0566966D01*
X0361266Y0566413D01*
X0360713Y0569905D01*
X0356667Y0572844D01*
X0353175Y0572291D01*
X0344359Y0560156D01*
X0344912Y0556664D01*
X0348957Y0553725D01*
X0352449Y0554278D01*
X0353002Y0550786D01*
X0357047Y0547847D01*
X0360539Y0548400D01*
X0361092Y0544908D01*
X0365137Y0541969D01*
X0368629Y0542522D01*
X0369182Y0539030D01*
X0373227Y0536091D01*
X0376719Y0536644D01*
X0377272Y0533152D01*
X0381318Y0530214D01*
X0384810Y0530767D01*
X0385363Y0527275D01*
X0389408Y0524336D01*
X0392900Y0524889D01*
X0393453Y0521397D01*
X0397498Y0518458D01*
X0400990Y0519011D01*
X0401543Y0515519D01*
X0405588Y0512580D01*
X0409080Y0513133D01*
X0409633Y0509641D01*
X0413678Y0506702D01*
X0417170Y0507255D01*
X0417723Y0503763D01*
X0421768Y0500824D01*
X0425260Y0501377D01*
X0425813Y0497885D01*
X0429859Y0494946D01*
X0433351Y0495499D01*
X0433904Y0492007D01*
X0437949Y0489069D01*
X0441441Y0489622D01*
X0441994Y0486130D01*
X0446039Y0483191D01*
X0449531Y0483744D01*
X0450084Y0480252D01*
X0454129Y0477313D01*
X0457621Y0477866D01*
X0458174Y0474374D01*
X0462219Y0471435D01*
X0465711Y0471988D01*
X0466264Y0468496D01*
X0470309Y0465557D01*
X0473801Y0466110D01*
X0474355Y0462618D01*
X0478400Y0459679D01*
X0481892Y0460232D01*
X0482445Y0456740D01*
X0486490Y0453801D01*
X0489982Y0454355D01*
X0490535Y0450863D01*
X0494580Y0447924D01*
X0498072Y0448477D01*
X0498625Y0444985D01*
X0502670Y0442046D01*
X0506162Y0442599D01*
X0506715Y0439107D01*
X0510760Y0436168D01*
X0514252Y0436721D01*
X0514805Y0433229D01*
X0518850Y0430290D01*
X0522342Y0430843D01*
X0522896Y0427351D01*
X0526941Y0424412D01*
X0530433Y0424965D01*
X0530986Y0421473D01*
X0535031Y0418534D01*
X0538523Y0419087D01*
X0539076Y0415595D01*
X0543121Y0412656D01*
X0546613Y0413210D01*
X0547166Y0409718D01*
X0551211Y0406779D01*
X0554703Y0407332D01*
X0555256Y0403840D01*
X0559301Y0400901D01*
X0562793Y0401454D01*
X0563346Y0397962D01*
X0567391Y0395023D01*
X0570883Y0395576D01*
X0571437Y0392084D01*
X0575482Y0389145D01*
X0578974Y0389698D01*
X0579527Y0386206D01*
X0583572Y0383267D01*
X0587064Y0383820D01*
X0587617Y0380328D01*
X0591662Y0377389D01*
X0595154Y0377942D01*
X0595707Y0374450D01*
X0599752Y0371512D01*
X0603244Y0372065D01*
X0603797Y0368573D01*
X0607842Y0365634D01*
X0611334Y0366187D01*
X0611887Y0362695D01*
X0615932Y0359756D01*
X0337688Y0556664D02*
X0338241Y0560156D01*
X0329424Y0572291D01*
X0325932Y0572844D01*
X0321887Y0569905D01*
X0321334Y0566413D01*
X0317842Y0566966D01*
X0313797Y0564027D01*
X0313244Y0560535D01*
X0309752Y0561088D01*
X0305707Y0558150D01*
X0305154Y0554658D01*
X0301662Y0555211D01*
X0297617Y0552272D01*
X0297064Y0548780D01*
X0293572Y0549333D01*
X0289527Y0546394D01*
X0288974Y0542902D01*
X0285482Y0543455D01*
X0281437Y0540516D01*
X0280883Y0537024D01*
X0277391Y0537577D01*
X0273346Y0534638D01*
X0272793Y0531146D01*
X0269301Y0531699D01*
X0265256Y0528760D01*
X0264703Y0525268D01*
X0261211Y0525821D01*
X0257166Y0522882D01*
X0256613Y0519390D01*
X0253121Y0519944D01*
X0249076Y0517005D01*
X0248523Y0513513D01*
X0245031Y0514066D01*
X0240986Y0511127D01*
X0240433Y0507635D01*
X0236941Y0508188D01*
X0232896Y0505249D01*
X0232342Y0501757D01*
X0228850Y0502310D01*
X0224805Y0499371D01*
X0224252Y0495879D01*
X0220760Y0496432D01*
X0216715Y0493493D01*
X0216162Y0490001D01*
X0212670Y0490554D01*
X0208625Y0487615D01*
X0208072Y0484123D01*
X0204580Y0484676D01*
X0200535Y0481737D01*
X0199982Y0478245D01*
X0196490Y0478799D01*
X0192445Y0475860D01*
X0191892Y0472368D01*
X0188400Y0472921D01*
X0184355Y0469982D01*
X0183801Y0466490D01*
X0180309Y0467043D01*
X0176264Y0464104D01*
X0175711Y0460612D01*
X0172219Y0461165D01*
X0168174Y0458226D01*
X0167621Y0454734D01*
X0164129Y0455287D01*
X0160084Y0452348D01*
X0159531Y0448856D01*
X0156039Y0449409D01*
X0151994Y0446470D01*
X0151441Y0442978D01*
X0147949Y0443531D01*
X0143904Y0440593D01*
X0143351Y0437101D01*
X0139859Y0437654D01*
X0135813Y0434715D01*
X0135260Y0431223D01*
X0131768Y0431776D01*
X0127723Y0428837D01*
X0127170Y0425345D01*
X0123678Y0425898D01*
X0119633Y0422959D01*
X0119080Y0419467D01*
X0115588Y0420020D01*
X0111543Y0417081D01*
X0110990Y0413589D01*
X0107498Y0414142D01*
X0103453Y0411203D01*
X0102900Y0407711D01*
X0099408Y0408264D01*
X0095363Y0405325D01*
X0094810Y0401833D01*
X0091318Y0402386D01*
X0087272Y0399448D01*
X0086719Y0395956D01*
X0083227Y0396509D01*
X0079182Y0393570D01*
X0078629Y0390078D01*
X0075137Y0390631D01*
X0071092Y0387692D01*
X0070539Y0384200D01*
X0067047Y0384753D01*
X0063002Y0381814D01*
X0062449Y0378322D01*
X0058957Y0378875D01*
X0054912Y0375936D01*
X0054359Y0372444D01*
X0063175Y0360309D01*
X0066667Y0359756D01*
X0070713Y0362695D01*
X0071266Y0366187D01*
X0074758Y0365634D01*
X0078803Y0368573D01*
X0079356Y0372065D01*
X0082848Y0371512D01*
X0086893Y0374450D01*
X0087446Y0377942D01*
X0090938Y0377389D01*
X0094983Y0380328D01*
X0095536Y0383820D01*
X0099028Y0383267D01*
X0103073Y0386206D01*
X0103626Y0389698D01*
X0107118Y0389145D01*
X0111163Y0392084D01*
X0111717Y0395576D01*
X0115209Y0395023D01*
X0119254Y0397962D01*
X0119807Y0401454D01*
X0123299Y0400901D01*
X0127344Y0403840D01*
X0127897Y0407332D01*
X0131389Y0406779D01*
X0135434Y0409718D01*
X0135987Y0413210D01*
X0139479Y0412656D01*
X0143524Y0415595D01*
X0144077Y0419087D01*
X0147569Y0418534D01*
X0151614Y0421473D01*
X0152167Y0424965D01*
X0155659Y0424412D01*
X0159704Y0427351D01*
X0160258Y0430843D01*
X0163750Y0430290D01*
X0167795Y0433229D01*
X0168348Y0436721D01*
X0171840Y0436168D01*
X0175885Y0439107D01*
X0176438Y0442599D01*
X0179930Y0442046D01*
X0183975Y0444985D01*
X0184528Y0448477D01*
X0188020Y0447924D01*
X0192065Y0450863D01*
X0192618Y0454355D01*
X0196110Y0453801D01*
X0200155Y0456740D01*
X0200708Y0460232D01*
X0204200Y0459679D01*
X0208245Y0462618D01*
X0208799Y0466110D01*
X0212291Y0465557D01*
X0216336Y0468496D01*
X0216889Y0471988D01*
X0220381Y0471435D01*
X0224426Y0474374D01*
X0224979Y0477866D01*
X0228471Y0477313D01*
X0232516Y0480252D01*
X0233069Y0483744D01*
X0236561Y0483191D01*
X0240606Y0486130D01*
X0241159Y0489622D01*
X0244651Y0489069D01*
X0248696Y0492007D01*
X0249249Y0495499D01*
X0252741Y0494946D01*
X0256786Y0497885D01*
X0257340Y0501377D01*
X0260832Y0500824D01*
X0264877Y0503763D01*
X0265430Y0507255D01*
X0268922Y0506702D01*
X0272967Y0509641D01*
X0273520Y0513133D01*
X0277012Y0512580D01*
X0281057Y0515519D01*
X0281610Y0519011D01*
X0285102Y0518458D01*
X0289147Y0521397D01*
X0289700Y0524889D01*
X0293192Y0524336D01*
X0297237Y0527275D01*
X0297790Y0530767D01*
X0301282Y0530214D01*
X0305328Y0533152D01*
X0305881Y0536644D01*
X0309373Y0536091D01*
X0313418Y0539030D01*
X0313971Y0542522D01*
X0317463Y0541969D01*
X0321508Y0544908D01*
X0322061Y0548400D01*
X0325553Y0547847D01*
X0329598Y0550786D01*
X0330151Y0554278D01*
X0333643Y0553725D01*
X0337688Y0556664D01*
D12*
X0176300Y0026300D03*
D13*
X0177655Y0032299D02*
X0177655Y0038304D01*
X0176905Y0037554D02*
X0178406Y0037554D01*
X0179156Y0036803D01*
X0178406Y0035302D02*
X0176905Y0035302D01*
X0176154Y0036053D01*
X0176154Y0036803D01*
X0176905Y0037554D01*
X0174553Y0037554D02*
X0174553Y0033801D01*
X0173802Y0033050D01*
X0172301Y0033050D01*
X0171550Y0033801D01*
X0171550Y0037554D01*
X0176154Y0033801D02*
X0176905Y0033050D01*
X0178406Y0033050D01*
X0179156Y0033801D01*
X0179156Y0034551D01*
X0178406Y0035302D01*
X0180758Y0036053D02*
X0182259Y0037554D01*
X0182259Y0033050D01*
X0180758Y0033050D02*
X0183760Y0033050D01*
X0508386Y0034881D02*
X0511956Y0033721D01*
X0512901Y0034203D01*
X0513365Y0035631D01*
X0512883Y0036577D01*
X0509314Y0037736D01*
X0510523Y0039027D02*
X0510041Y0039973D01*
X0510505Y0041401D01*
X0511450Y0041883D01*
X0511945Y0043406D02*
X0511463Y0044352D01*
X0511927Y0045780D01*
X0512873Y0046262D01*
X0513587Y0046030D01*
X0514069Y0045084D01*
X0515015Y0045566D01*
X0515729Y0045334D01*
X0516211Y0044388D01*
X0515747Y0042960D01*
X0514801Y0042478D01*
X0514306Y0040955D02*
X0513592Y0041187D01*
X0512646Y0040705D01*
X0512182Y0039277D01*
X0511237Y0038796D01*
X0510523Y0039027D01*
X0509559Y0040919D02*
X0515270Y0039064D01*
X0514788Y0040009D02*
X0514306Y0040955D01*
X0514788Y0040009D02*
X0514324Y0038582D01*
X0513378Y0038100D01*
X0513837Y0044370D02*
X0514069Y0045084D01*
X0612581Y0354466D02*
X0615228Y0358109D01*
X0612083Y0357611D01*
X0614512Y0355846D01*
X0610346Y0357945D02*
X0610180Y0358993D01*
X0608965Y0359876D01*
X0608799Y0360924D01*
X0609240Y0361532D01*
X0610289Y0361698D01*
X0611503Y0360815D01*
X0611669Y0359767D01*
X0611337Y0361864D02*
X0607808Y0357006D01*
X0608856Y0357172D02*
X0609905Y0357338D01*
X0610346Y0357945D01*
X0608856Y0357172D02*
X0607642Y0358054D01*
X0607475Y0359103D01*
X0606180Y0360044D02*
X0608386Y0363080D01*
X0605957Y0364845D02*
X0603751Y0361809D01*
X0603917Y0360760D01*
X0605131Y0359878D01*
X0606180Y0360044D01*
X0341684Y0551841D02*
X0340469Y0550959D01*
X0339421Y0551125D01*
X0338538Y0552340D02*
X0339312Y0553829D01*
X0339919Y0554271D01*
X0340967Y0554104D01*
X0341850Y0552890D01*
X0341684Y0551841D01*
X0338538Y0552340D02*
X0337215Y0554161D01*
X0339644Y0555926D01*
X0336360Y0552613D02*
X0335312Y0552779D01*
X0334097Y0551897D01*
X0333931Y0550848D01*
X0334372Y0550241D01*
X0335421Y0550075D01*
X0336635Y0550957D01*
X0337684Y0550791D01*
X0338125Y0550184D01*
X0337959Y0549135D01*
X0336745Y0548253D01*
X0335696Y0548419D01*
X0334401Y0547478D02*
X0332194Y0550514D01*
X0329765Y0548749D02*
X0331971Y0545713D01*
X0333020Y0545547D01*
X0334234Y0546429D01*
X0334401Y0547478D01*
X0337793Y0548087D02*
X0334263Y0552945D01*
X0069303Y0357764D02*
X0065733Y0356605D01*
X0065251Y0355659D01*
X0065715Y0354231D01*
X0066661Y0353749D01*
X0070231Y0354909D01*
X0070011Y0353154D02*
X0070957Y0352672D01*
X0071421Y0351244D01*
X0070939Y0350298D01*
X0071434Y0348775D02*
X0072380Y0348293D01*
X0072844Y0346866D01*
X0072362Y0345920D01*
X0071648Y0345688D01*
X0067865Y0347616D01*
X0068792Y0344760D01*
X0068084Y0349370D02*
X0068798Y0349602D01*
X0069280Y0350548D01*
X0068816Y0351976D01*
X0069298Y0352922D01*
X0070011Y0353154D01*
X0071903Y0352190D02*
X0066192Y0350334D01*
X0067138Y0349852D02*
X0068084Y0349370D01*
X0067138Y0349852D02*
X0066674Y0351280D01*
X0067156Y0352226D01*
D14*
G36*
X0056857Y0343469D02*
X0053767Y0352979D01*
X0063277Y0356069D01*
X0066367Y0346559D01*
X0056857Y0343469D01*
G37*
G36*
X0325743Y0560345D02*
X0333833Y0566223D01*
X0339711Y0558133D01*
X0331621Y0552255D01*
X0325743Y0560345D01*
G37*
G36*
X0615743Y0372254D02*
X0623833Y0366376D01*
X0617955Y0358286D01*
X0609865Y0364164D01*
X0615743Y0372254D01*
G37*
G36*
X0526857Y0039131D02*
X0523767Y0029621D01*
X0514257Y0032711D01*
X0517347Y0042221D01*
X0526857Y0039131D01*
G37*
M02*
