G75*
%MOIN*%
%OFA0B0*%
%FSLAX25Y25*%
%IPPOS*%
%LPD*%
%AMOC8*
5,1,8,0,0,1.08239X$1,22.5*
%
%ADD10C,0.00000*%
D10*
X0147800Y0005300D02*
X0031300Y0368300D01*
X0341300Y0594300D01*
X0651300Y0368300D01*
X0534800Y0005300D01*
X0147800Y0005300D01*
X0152050Y0017300D02*
X0152052Y0017458D01*
X0152058Y0017615D01*
X0152068Y0017773D01*
X0152082Y0017930D01*
X0152100Y0018086D01*
X0152121Y0018243D01*
X0152147Y0018398D01*
X0152177Y0018553D01*
X0152210Y0018707D01*
X0152248Y0018860D01*
X0152289Y0019013D01*
X0152334Y0019164D01*
X0152383Y0019314D01*
X0152436Y0019462D01*
X0152492Y0019610D01*
X0152553Y0019755D01*
X0152616Y0019900D01*
X0152684Y0020042D01*
X0152755Y0020183D01*
X0152829Y0020322D01*
X0152907Y0020459D01*
X0152989Y0020594D01*
X0153073Y0020727D01*
X0153162Y0020858D01*
X0153253Y0020986D01*
X0153348Y0021113D01*
X0153445Y0021236D01*
X0153546Y0021358D01*
X0153650Y0021476D01*
X0153757Y0021592D01*
X0153867Y0021705D01*
X0153979Y0021816D01*
X0154095Y0021923D01*
X0154213Y0022028D01*
X0154333Y0022130D01*
X0154456Y0022228D01*
X0154582Y0022324D01*
X0154710Y0022416D01*
X0154840Y0022505D01*
X0154972Y0022591D01*
X0155107Y0022673D01*
X0155244Y0022752D01*
X0155382Y0022827D01*
X0155522Y0022899D01*
X0155665Y0022967D01*
X0155808Y0023032D01*
X0155954Y0023093D01*
X0156101Y0023150D01*
X0156249Y0023204D01*
X0156399Y0023254D01*
X0156549Y0023300D01*
X0156701Y0023342D01*
X0156854Y0023381D01*
X0157008Y0023415D01*
X0157163Y0023446D01*
X0157318Y0023472D01*
X0157474Y0023495D01*
X0157631Y0023514D01*
X0157788Y0023529D01*
X0157945Y0023540D01*
X0158103Y0023547D01*
X0158261Y0023550D01*
X0158418Y0023549D01*
X0158576Y0023544D01*
X0158733Y0023535D01*
X0158891Y0023522D01*
X0159047Y0023505D01*
X0159204Y0023484D01*
X0159359Y0023460D01*
X0159514Y0023431D01*
X0159669Y0023398D01*
X0159822Y0023362D01*
X0159975Y0023321D01*
X0160126Y0023277D01*
X0160276Y0023229D01*
X0160425Y0023178D01*
X0160573Y0023122D01*
X0160719Y0023063D01*
X0160864Y0023000D01*
X0161007Y0022933D01*
X0161148Y0022863D01*
X0161287Y0022790D01*
X0161425Y0022713D01*
X0161561Y0022632D01*
X0161694Y0022548D01*
X0161825Y0022461D01*
X0161954Y0022370D01*
X0162081Y0022276D01*
X0162206Y0022179D01*
X0162327Y0022079D01*
X0162447Y0021976D01*
X0162563Y0021870D01*
X0162677Y0021761D01*
X0162789Y0021649D01*
X0162897Y0021535D01*
X0163002Y0021417D01*
X0163105Y0021297D01*
X0163204Y0021175D01*
X0163300Y0021050D01*
X0163393Y0020922D01*
X0163483Y0020793D01*
X0163569Y0020661D01*
X0163653Y0020527D01*
X0163732Y0020391D01*
X0163809Y0020253D01*
X0163881Y0020113D01*
X0163950Y0019971D01*
X0164016Y0019828D01*
X0164078Y0019683D01*
X0164136Y0019536D01*
X0164191Y0019388D01*
X0164242Y0019239D01*
X0164289Y0019088D01*
X0164332Y0018937D01*
X0164371Y0018784D01*
X0164407Y0018630D01*
X0164438Y0018476D01*
X0164466Y0018321D01*
X0164490Y0018165D01*
X0164510Y0018008D01*
X0164526Y0017851D01*
X0164538Y0017694D01*
X0164546Y0017537D01*
X0164550Y0017379D01*
X0164550Y0017221D01*
X0164546Y0017063D01*
X0164538Y0016906D01*
X0164526Y0016749D01*
X0164510Y0016592D01*
X0164490Y0016435D01*
X0164466Y0016279D01*
X0164438Y0016124D01*
X0164407Y0015970D01*
X0164371Y0015816D01*
X0164332Y0015663D01*
X0164289Y0015512D01*
X0164242Y0015361D01*
X0164191Y0015212D01*
X0164136Y0015064D01*
X0164078Y0014917D01*
X0164016Y0014772D01*
X0163950Y0014629D01*
X0163881Y0014487D01*
X0163809Y0014347D01*
X0163732Y0014209D01*
X0163653Y0014073D01*
X0163569Y0013939D01*
X0163483Y0013807D01*
X0163393Y0013678D01*
X0163300Y0013550D01*
X0163204Y0013425D01*
X0163105Y0013303D01*
X0163002Y0013183D01*
X0162897Y0013065D01*
X0162789Y0012951D01*
X0162677Y0012839D01*
X0162563Y0012730D01*
X0162447Y0012624D01*
X0162327Y0012521D01*
X0162206Y0012421D01*
X0162081Y0012324D01*
X0161954Y0012230D01*
X0161825Y0012139D01*
X0161694Y0012052D01*
X0161561Y0011968D01*
X0161425Y0011887D01*
X0161287Y0011810D01*
X0161148Y0011737D01*
X0161007Y0011667D01*
X0160864Y0011600D01*
X0160719Y0011537D01*
X0160573Y0011478D01*
X0160425Y0011422D01*
X0160276Y0011371D01*
X0160126Y0011323D01*
X0159975Y0011279D01*
X0159822Y0011238D01*
X0159669Y0011202D01*
X0159514Y0011169D01*
X0159359Y0011140D01*
X0159204Y0011116D01*
X0159047Y0011095D01*
X0158891Y0011078D01*
X0158733Y0011065D01*
X0158576Y0011056D01*
X0158418Y0011051D01*
X0158261Y0011050D01*
X0158103Y0011053D01*
X0157945Y0011060D01*
X0157788Y0011071D01*
X0157631Y0011086D01*
X0157474Y0011105D01*
X0157318Y0011128D01*
X0157163Y0011154D01*
X0157008Y0011185D01*
X0156854Y0011219D01*
X0156701Y0011258D01*
X0156549Y0011300D01*
X0156399Y0011346D01*
X0156249Y0011396D01*
X0156101Y0011450D01*
X0155954Y0011507D01*
X0155808Y0011568D01*
X0155665Y0011633D01*
X0155522Y0011701D01*
X0155382Y0011773D01*
X0155244Y0011848D01*
X0155107Y0011927D01*
X0154972Y0012009D01*
X0154840Y0012095D01*
X0154710Y0012184D01*
X0154582Y0012276D01*
X0154456Y0012372D01*
X0154333Y0012470D01*
X0154213Y0012572D01*
X0154095Y0012677D01*
X0153979Y0012784D01*
X0153867Y0012895D01*
X0153757Y0013008D01*
X0153650Y0013124D01*
X0153546Y0013242D01*
X0153445Y0013364D01*
X0153348Y0013487D01*
X0153253Y0013614D01*
X0153162Y0013742D01*
X0153073Y0013873D01*
X0152989Y0014006D01*
X0152907Y0014141D01*
X0152829Y0014278D01*
X0152755Y0014417D01*
X0152684Y0014558D01*
X0152616Y0014700D01*
X0152553Y0014845D01*
X0152492Y0014990D01*
X0152436Y0015138D01*
X0152383Y0015286D01*
X0152334Y0015436D01*
X0152289Y0015587D01*
X0152248Y0015740D01*
X0152210Y0015893D01*
X0152177Y0016047D01*
X0152147Y0016202D01*
X0152121Y0016357D01*
X0152100Y0016514D01*
X0152082Y0016670D01*
X0152068Y0016827D01*
X0152058Y0016985D01*
X0152052Y0017142D01*
X0152050Y0017300D01*
X0518050Y0017300D02*
X0518052Y0017458D01*
X0518058Y0017615D01*
X0518068Y0017773D01*
X0518082Y0017930D01*
X0518100Y0018086D01*
X0518121Y0018243D01*
X0518147Y0018398D01*
X0518177Y0018553D01*
X0518210Y0018707D01*
X0518248Y0018860D01*
X0518289Y0019013D01*
X0518334Y0019164D01*
X0518383Y0019314D01*
X0518436Y0019462D01*
X0518492Y0019610D01*
X0518553Y0019755D01*
X0518616Y0019900D01*
X0518684Y0020042D01*
X0518755Y0020183D01*
X0518829Y0020322D01*
X0518907Y0020459D01*
X0518989Y0020594D01*
X0519073Y0020727D01*
X0519162Y0020858D01*
X0519253Y0020986D01*
X0519348Y0021113D01*
X0519445Y0021236D01*
X0519546Y0021358D01*
X0519650Y0021476D01*
X0519757Y0021592D01*
X0519867Y0021705D01*
X0519979Y0021816D01*
X0520095Y0021923D01*
X0520213Y0022028D01*
X0520333Y0022130D01*
X0520456Y0022228D01*
X0520582Y0022324D01*
X0520710Y0022416D01*
X0520840Y0022505D01*
X0520972Y0022591D01*
X0521107Y0022673D01*
X0521244Y0022752D01*
X0521382Y0022827D01*
X0521522Y0022899D01*
X0521665Y0022967D01*
X0521808Y0023032D01*
X0521954Y0023093D01*
X0522101Y0023150D01*
X0522249Y0023204D01*
X0522399Y0023254D01*
X0522549Y0023300D01*
X0522701Y0023342D01*
X0522854Y0023381D01*
X0523008Y0023415D01*
X0523163Y0023446D01*
X0523318Y0023472D01*
X0523474Y0023495D01*
X0523631Y0023514D01*
X0523788Y0023529D01*
X0523945Y0023540D01*
X0524103Y0023547D01*
X0524261Y0023550D01*
X0524418Y0023549D01*
X0524576Y0023544D01*
X0524733Y0023535D01*
X0524891Y0023522D01*
X0525047Y0023505D01*
X0525204Y0023484D01*
X0525359Y0023460D01*
X0525514Y0023431D01*
X0525669Y0023398D01*
X0525822Y0023362D01*
X0525975Y0023321D01*
X0526126Y0023277D01*
X0526276Y0023229D01*
X0526425Y0023178D01*
X0526573Y0023122D01*
X0526719Y0023063D01*
X0526864Y0023000D01*
X0527007Y0022933D01*
X0527148Y0022863D01*
X0527287Y0022790D01*
X0527425Y0022713D01*
X0527561Y0022632D01*
X0527694Y0022548D01*
X0527825Y0022461D01*
X0527954Y0022370D01*
X0528081Y0022276D01*
X0528206Y0022179D01*
X0528327Y0022079D01*
X0528447Y0021976D01*
X0528563Y0021870D01*
X0528677Y0021761D01*
X0528789Y0021649D01*
X0528897Y0021535D01*
X0529002Y0021417D01*
X0529105Y0021297D01*
X0529204Y0021175D01*
X0529300Y0021050D01*
X0529393Y0020922D01*
X0529483Y0020793D01*
X0529569Y0020661D01*
X0529653Y0020527D01*
X0529732Y0020391D01*
X0529809Y0020253D01*
X0529881Y0020113D01*
X0529950Y0019971D01*
X0530016Y0019828D01*
X0530078Y0019683D01*
X0530136Y0019536D01*
X0530191Y0019388D01*
X0530242Y0019239D01*
X0530289Y0019088D01*
X0530332Y0018937D01*
X0530371Y0018784D01*
X0530407Y0018630D01*
X0530438Y0018476D01*
X0530466Y0018321D01*
X0530490Y0018165D01*
X0530510Y0018008D01*
X0530526Y0017851D01*
X0530538Y0017694D01*
X0530546Y0017537D01*
X0530550Y0017379D01*
X0530550Y0017221D01*
X0530546Y0017063D01*
X0530538Y0016906D01*
X0530526Y0016749D01*
X0530510Y0016592D01*
X0530490Y0016435D01*
X0530466Y0016279D01*
X0530438Y0016124D01*
X0530407Y0015970D01*
X0530371Y0015816D01*
X0530332Y0015663D01*
X0530289Y0015512D01*
X0530242Y0015361D01*
X0530191Y0015212D01*
X0530136Y0015064D01*
X0530078Y0014917D01*
X0530016Y0014772D01*
X0529950Y0014629D01*
X0529881Y0014487D01*
X0529809Y0014347D01*
X0529732Y0014209D01*
X0529653Y0014073D01*
X0529569Y0013939D01*
X0529483Y0013807D01*
X0529393Y0013678D01*
X0529300Y0013550D01*
X0529204Y0013425D01*
X0529105Y0013303D01*
X0529002Y0013183D01*
X0528897Y0013065D01*
X0528789Y0012951D01*
X0528677Y0012839D01*
X0528563Y0012730D01*
X0528447Y0012624D01*
X0528327Y0012521D01*
X0528206Y0012421D01*
X0528081Y0012324D01*
X0527954Y0012230D01*
X0527825Y0012139D01*
X0527694Y0012052D01*
X0527561Y0011968D01*
X0527425Y0011887D01*
X0527287Y0011810D01*
X0527148Y0011737D01*
X0527007Y0011667D01*
X0526864Y0011600D01*
X0526719Y0011537D01*
X0526573Y0011478D01*
X0526425Y0011422D01*
X0526276Y0011371D01*
X0526126Y0011323D01*
X0525975Y0011279D01*
X0525822Y0011238D01*
X0525669Y0011202D01*
X0525514Y0011169D01*
X0525359Y0011140D01*
X0525204Y0011116D01*
X0525047Y0011095D01*
X0524891Y0011078D01*
X0524733Y0011065D01*
X0524576Y0011056D01*
X0524418Y0011051D01*
X0524261Y0011050D01*
X0524103Y0011053D01*
X0523945Y0011060D01*
X0523788Y0011071D01*
X0523631Y0011086D01*
X0523474Y0011105D01*
X0523318Y0011128D01*
X0523163Y0011154D01*
X0523008Y0011185D01*
X0522854Y0011219D01*
X0522701Y0011258D01*
X0522549Y0011300D01*
X0522399Y0011346D01*
X0522249Y0011396D01*
X0522101Y0011450D01*
X0521954Y0011507D01*
X0521808Y0011568D01*
X0521665Y0011633D01*
X0521522Y0011701D01*
X0521382Y0011773D01*
X0521244Y0011848D01*
X0521107Y0011927D01*
X0520972Y0012009D01*
X0520840Y0012095D01*
X0520710Y0012184D01*
X0520582Y0012276D01*
X0520456Y0012372D01*
X0520333Y0012470D01*
X0520213Y0012572D01*
X0520095Y0012677D01*
X0519979Y0012784D01*
X0519867Y0012895D01*
X0519757Y0013008D01*
X0519650Y0013124D01*
X0519546Y0013242D01*
X0519445Y0013364D01*
X0519348Y0013487D01*
X0519253Y0013614D01*
X0519162Y0013742D01*
X0519073Y0013873D01*
X0518989Y0014006D01*
X0518907Y0014141D01*
X0518829Y0014278D01*
X0518755Y0014417D01*
X0518684Y0014558D01*
X0518616Y0014700D01*
X0518553Y0014845D01*
X0518492Y0014990D01*
X0518436Y0015138D01*
X0518383Y0015286D01*
X0518334Y0015436D01*
X0518289Y0015587D01*
X0518248Y0015740D01*
X0518210Y0015893D01*
X0518177Y0016047D01*
X0518147Y0016202D01*
X0518121Y0016357D01*
X0518100Y0016514D01*
X0518082Y0016670D01*
X0518068Y0016827D01*
X0518058Y0016985D01*
X0518052Y0017142D01*
X0518050Y0017300D01*
X0630050Y0363300D02*
X0630052Y0363458D01*
X0630058Y0363615D01*
X0630068Y0363773D01*
X0630082Y0363930D01*
X0630100Y0364086D01*
X0630121Y0364243D01*
X0630147Y0364398D01*
X0630177Y0364553D01*
X0630210Y0364707D01*
X0630248Y0364860D01*
X0630289Y0365013D01*
X0630334Y0365164D01*
X0630383Y0365314D01*
X0630436Y0365462D01*
X0630492Y0365610D01*
X0630553Y0365755D01*
X0630616Y0365900D01*
X0630684Y0366042D01*
X0630755Y0366183D01*
X0630829Y0366322D01*
X0630907Y0366459D01*
X0630989Y0366594D01*
X0631073Y0366727D01*
X0631162Y0366858D01*
X0631253Y0366986D01*
X0631348Y0367113D01*
X0631445Y0367236D01*
X0631546Y0367358D01*
X0631650Y0367476D01*
X0631757Y0367592D01*
X0631867Y0367705D01*
X0631979Y0367816D01*
X0632095Y0367923D01*
X0632213Y0368028D01*
X0632333Y0368130D01*
X0632456Y0368228D01*
X0632582Y0368324D01*
X0632710Y0368416D01*
X0632840Y0368505D01*
X0632972Y0368591D01*
X0633107Y0368673D01*
X0633244Y0368752D01*
X0633382Y0368827D01*
X0633522Y0368899D01*
X0633665Y0368967D01*
X0633808Y0369032D01*
X0633954Y0369093D01*
X0634101Y0369150D01*
X0634249Y0369204D01*
X0634399Y0369254D01*
X0634549Y0369300D01*
X0634701Y0369342D01*
X0634854Y0369381D01*
X0635008Y0369415D01*
X0635163Y0369446D01*
X0635318Y0369472D01*
X0635474Y0369495D01*
X0635631Y0369514D01*
X0635788Y0369529D01*
X0635945Y0369540D01*
X0636103Y0369547D01*
X0636261Y0369550D01*
X0636418Y0369549D01*
X0636576Y0369544D01*
X0636733Y0369535D01*
X0636891Y0369522D01*
X0637047Y0369505D01*
X0637204Y0369484D01*
X0637359Y0369460D01*
X0637514Y0369431D01*
X0637669Y0369398D01*
X0637822Y0369362D01*
X0637975Y0369321D01*
X0638126Y0369277D01*
X0638276Y0369229D01*
X0638425Y0369178D01*
X0638573Y0369122D01*
X0638719Y0369063D01*
X0638864Y0369000D01*
X0639007Y0368933D01*
X0639148Y0368863D01*
X0639287Y0368790D01*
X0639425Y0368713D01*
X0639561Y0368632D01*
X0639694Y0368548D01*
X0639825Y0368461D01*
X0639954Y0368370D01*
X0640081Y0368276D01*
X0640206Y0368179D01*
X0640327Y0368079D01*
X0640447Y0367976D01*
X0640563Y0367870D01*
X0640677Y0367761D01*
X0640789Y0367649D01*
X0640897Y0367535D01*
X0641002Y0367417D01*
X0641105Y0367297D01*
X0641204Y0367175D01*
X0641300Y0367050D01*
X0641393Y0366922D01*
X0641483Y0366793D01*
X0641569Y0366661D01*
X0641653Y0366527D01*
X0641732Y0366391D01*
X0641809Y0366253D01*
X0641881Y0366113D01*
X0641950Y0365971D01*
X0642016Y0365828D01*
X0642078Y0365683D01*
X0642136Y0365536D01*
X0642191Y0365388D01*
X0642242Y0365239D01*
X0642289Y0365088D01*
X0642332Y0364937D01*
X0642371Y0364784D01*
X0642407Y0364630D01*
X0642438Y0364476D01*
X0642466Y0364321D01*
X0642490Y0364165D01*
X0642510Y0364008D01*
X0642526Y0363851D01*
X0642538Y0363694D01*
X0642546Y0363537D01*
X0642550Y0363379D01*
X0642550Y0363221D01*
X0642546Y0363063D01*
X0642538Y0362906D01*
X0642526Y0362749D01*
X0642510Y0362592D01*
X0642490Y0362435D01*
X0642466Y0362279D01*
X0642438Y0362124D01*
X0642407Y0361970D01*
X0642371Y0361816D01*
X0642332Y0361663D01*
X0642289Y0361512D01*
X0642242Y0361361D01*
X0642191Y0361212D01*
X0642136Y0361064D01*
X0642078Y0360917D01*
X0642016Y0360772D01*
X0641950Y0360629D01*
X0641881Y0360487D01*
X0641809Y0360347D01*
X0641732Y0360209D01*
X0641653Y0360073D01*
X0641569Y0359939D01*
X0641483Y0359807D01*
X0641393Y0359678D01*
X0641300Y0359550D01*
X0641204Y0359425D01*
X0641105Y0359303D01*
X0641002Y0359183D01*
X0640897Y0359065D01*
X0640789Y0358951D01*
X0640677Y0358839D01*
X0640563Y0358730D01*
X0640447Y0358624D01*
X0640327Y0358521D01*
X0640206Y0358421D01*
X0640081Y0358324D01*
X0639954Y0358230D01*
X0639825Y0358139D01*
X0639694Y0358052D01*
X0639561Y0357968D01*
X0639425Y0357887D01*
X0639287Y0357810D01*
X0639148Y0357737D01*
X0639007Y0357667D01*
X0638864Y0357600D01*
X0638719Y0357537D01*
X0638573Y0357478D01*
X0638425Y0357422D01*
X0638276Y0357371D01*
X0638126Y0357323D01*
X0637975Y0357279D01*
X0637822Y0357238D01*
X0637669Y0357202D01*
X0637514Y0357169D01*
X0637359Y0357140D01*
X0637204Y0357116D01*
X0637047Y0357095D01*
X0636891Y0357078D01*
X0636733Y0357065D01*
X0636576Y0357056D01*
X0636418Y0357051D01*
X0636261Y0357050D01*
X0636103Y0357053D01*
X0635945Y0357060D01*
X0635788Y0357071D01*
X0635631Y0357086D01*
X0635474Y0357105D01*
X0635318Y0357128D01*
X0635163Y0357154D01*
X0635008Y0357185D01*
X0634854Y0357219D01*
X0634701Y0357258D01*
X0634549Y0357300D01*
X0634399Y0357346D01*
X0634249Y0357396D01*
X0634101Y0357450D01*
X0633954Y0357507D01*
X0633808Y0357568D01*
X0633665Y0357633D01*
X0633522Y0357701D01*
X0633382Y0357773D01*
X0633244Y0357848D01*
X0633107Y0357927D01*
X0632972Y0358009D01*
X0632840Y0358095D01*
X0632710Y0358184D01*
X0632582Y0358276D01*
X0632456Y0358372D01*
X0632333Y0358470D01*
X0632213Y0358572D01*
X0632095Y0358677D01*
X0631979Y0358784D01*
X0631867Y0358895D01*
X0631757Y0359008D01*
X0631650Y0359124D01*
X0631546Y0359242D01*
X0631445Y0359364D01*
X0631348Y0359487D01*
X0631253Y0359614D01*
X0631162Y0359742D01*
X0631073Y0359873D01*
X0630989Y0360006D01*
X0630907Y0360141D01*
X0630829Y0360278D01*
X0630755Y0360417D01*
X0630684Y0360558D01*
X0630616Y0360700D01*
X0630553Y0360845D01*
X0630492Y0360990D01*
X0630436Y0361138D01*
X0630383Y0361286D01*
X0630334Y0361436D01*
X0630289Y0361587D01*
X0630248Y0361740D01*
X0630210Y0361893D01*
X0630177Y0362047D01*
X0630147Y0362202D01*
X0630121Y0362357D01*
X0630100Y0362514D01*
X0630082Y0362670D01*
X0630068Y0362827D01*
X0630058Y0362985D01*
X0630052Y0363142D01*
X0630050Y0363300D01*
X0335050Y0576300D02*
X0335052Y0576458D01*
X0335058Y0576615D01*
X0335068Y0576773D01*
X0335082Y0576930D01*
X0335100Y0577086D01*
X0335121Y0577243D01*
X0335147Y0577398D01*
X0335177Y0577553D01*
X0335210Y0577707D01*
X0335248Y0577860D01*
X0335289Y0578013D01*
X0335334Y0578164D01*
X0335383Y0578314D01*
X0335436Y0578462D01*
X0335492Y0578610D01*
X0335553Y0578755D01*
X0335616Y0578900D01*
X0335684Y0579042D01*
X0335755Y0579183D01*
X0335829Y0579322D01*
X0335907Y0579459D01*
X0335989Y0579594D01*
X0336073Y0579727D01*
X0336162Y0579858D01*
X0336253Y0579986D01*
X0336348Y0580113D01*
X0336445Y0580236D01*
X0336546Y0580358D01*
X0336650Y0580476D01*
X0336757Y0580592D01*
X0336867Y0580705D01*
X0336979Y0580816D01*
X0337095Y0580923D01*
X0337213Y0581028D01*
X0337333Y0581130D01*
X0337456Y0581228D01*
X0337582Y0581324D01*
X0337710Y0581416D01*
X0337840Y0581505D01*
X0337972Y0581591D01*
X0338107Y0581673D01*
X0338244Y0581752D01*
X0338382Y0581827D01*
X0338522Y0581899D01*
X0338665Y0581967D01*
X0338808Y0582032D01*
X0338954Y0582093D01*
X0339101Y0582150D01*
X0339249Y0582204D01*
X0339399Y0582254D01*
X0339549Y0582300D01*
X0339701Y0582342D01*
X0339854Y0582381D01*
X0340008Y0582415D01*
X0340163Y0582446D01*
X0340318Y0582472D01*
X0340474Y0582495D01*
X0340631Y0582514D01*
X0340788Y0582529D01*
X0340945Y0582540D01*
X0341103Y0582547D01*
X0341261Y0582550D01*
X0341418Y0582549D01*
X0341576Y0582544D01*
X0341733Y0582535D01*
X0341891Y0582522D01*
X0342047Y0582505D01*
X0342204Y0582484D01*
X0342359Y0582460D01*
X0342514Y0582431D01*
X0342669Y0582398D01*
X0342822Y0582362D01*
X0342975Y0582321D01*
X0343126Y0582277D01*
X0343276Y0582229D01*
X0343425Y0582178D01*
X0343573Y0582122D01*
X0343719Y0582063D01*
X0343864Y0582000D01*
X0344007Y0581933D01*
X0344148Y0581863D01*
X0344287Y0581790D01*
X0344425Y0581713D01*
X0344561Y0581632D01*
X0344694Y0581548D01*
X0344825Y0581461D01*
X0344954Y0581370D01*
X0345081Y0581276D01*
X0345206Y0581179D01*
X0345327Y0581079D01*
X0345447Y0580976D01*
X0345563Y0580870D01*
X0345677Y0580761D01*
X0345789Y0580649D01*
X0345897Y0580535D01*
X0346002Y0580417D01*
X0346105Y0580297D01*
X0346204Y0580175D01*
X0346300Y0580050D01*
X0346393Y0579922D01*
X0346483Y0579793D01*
X0346569Y0579661D01*
X0346653Y0579527D01*
X0346732Y0579391D01*
X0346809Y0579253D01*
X0346881Y0579113D01*
X0346950Y0578971D01*
X0347016Y0578828D01*
X0347078Y0578683D01*
X0347136Y0578536D01*
X0347191Y0578388D01*
X0347242Y0578239D01*
X0347289Y0578088D01*
X0347332Y0577937D01*
X0347371Y0577784D01*
X0347407Y0577630D01*
X0347438Y0577476D01*
X0347466Y0577321D01*
X0347490Y0577165D01*
X0347510Y0577008D01*
X0347526Y0576851D01*
X0347538Y0576694D01*
X0347546Y0576537D01*
X0347550Y0576379D01*
X0347550Y0576221D01*
X0347546Y0576063D01*
X0347538Y0575906D01*
X0347526Y0575749D01*
X0347510Y0575592D01*
X0347490Y0575435D01*
X0347466Y0575279D01*
X0347438Y0575124D01*
X0347407Y0574970D01*
X0347371Y0574816D01*
X0347332Y0574663D01*
X0347289Y0574512D01*
X0347242Y0574361D01*
X0347191Y0574212D01*
X0347136Y0574064D01*
X0347078Y0573917D01*
X0347016Y0573772D01*
X0346950Y0573629D01*
X0346881Y0573487D01*
X0346809Y0573347D01*
X0346732Y0573209D01*
X0346653Y0573073D01*
X0346569Y0572939D01*
X0346483Y0572807D01*
X0346393Y0572678D01*
X0346300Y0572550D01*
X0346204Y0572425D01*
X0346105Y0572303D01*
X0346002Y0572183D01*
X0345897Y0572065D01*
X0345789Y0571951D01*
X0345677Y0571839D01*
X0345563Y0571730D01*
X0345447Y0571624D01*
X0345327Y0571521D01*
X0345206Y0571421D01*
X0345081Y0571324D01*
X0344954Y0571230D01*
X0344825Y0571139D01*
X0344694Y0571052D01*
X0344561Y0570968D01*
X0344425Y0570887D01*
X0344287Y0570810D01*
X0344148Y0570737D01*
X0344007Y0570667D01*
X0343864Y0570600D01*
X0343719Y0570537D01*
X0343573Y0570478D01*
X0343425Y0570422D01*
X0343276Y0570371D01*
X0343126Y0570323D01*
X0342975Y0570279D01*
X0342822Y0570238D01*
X0342669Y0570202D01*
X0342514Y0570169D01*
X0342359Y0570140D01*
X0342204Y0570116D01*
X0342047Y0570095D01*
X0341891Y0570078D01*
X0341733Y0570065D01*
X0341576Y0570056D01*
X0341418Y0570051D01*
X0341261Y0570050D01*
X0341103Y0570053D01*
X0340945Y0570060D01*
X0340788Y0570071D01*
X0340631Y0570086D01*
X0340474Y0570105D01*
X0340318Y0570128D01*
X0340163Y0570154D01*
X0340008Y0570185D01*
X0339854Y0570219D01*
X0339701Y0570258D01*
X0339549Y0570300D01*
X0339399Y0570346D01*
X0339249Y0570396D01*
X0339101Y0570450D01*
X0338954Y0570507D01*
X0338808Y0570568D01*
X0338665Y0570633D01*
X0338522Y0570701D01*
X0338382Y0570773D01*
X0338244Y0570848D01*
X0338107Y0570927D01*
X0337972Y0571009D01*
X0337840Y0571095D01*
X0337710Y0571184D01*
X0337582Y0571276D01*
X0337456Y0571372D01*
X0337333Y0571470D01*
X0337213Y0571572D01*
X0337095Y0571677D01*
X0336979Y0571784D01*
X0336867Y0571895D01*
X0336757Y0572008D01*
X0336650Y0572124D01*
X0336546Y0572242D01*
X0336445Y0572364D01*
X0336348Y0572487D01*
X0336253Y0572614D01*
X0336162Y0572742D01*
X0336073Y0572873D01*
X0335989Y0573006D01*
X0335907Y0573141D01*
X0335829Y0573278D01*
X0335755Y0573417D01*
X0335684Y0573558D01*
X0335616Y0573700D01*
X0335553Y0573845D01*
X0335492Y0573990D01*
X0335436Y0574138D01*
X0335383Y0574286D01*
X0335334Y0574436D01*
X0335289Y0574587D01*
X0335248Y0574740D01*
X0335210Y0574893D01*
X0335177Y0575047D01*
X0335147Y0575202D01*
X0335121Y0575357D01*
X0335100Y0575514D01*
X0335082Y0575670D01*
X0335068Y0575827D01*
X0335058Y0575985D01*
X0335052Y0576142D01*
X0335050Y0576300D01*
X0040050Y0363300D02*
X0040052Y0363458D01*
X0040058Y0363615D01*
X0040068Y0363773D01*
X0040082Y0363930D01*
X0040100Y0364086D01*
X0040121Y0364243D01*
X0040147Y0364398D01*
X0040177Y0364553D01*
X0040210Y0364707D01*
X0040248Y0364860D01*
X0040289Y0365013D01*
X0040334Y0365164D01*
X0040383Y0365314D01*
X0040436Y0365462D01*
X0040492Y0365610D01*
X0040553Y0365755D01*
X0040616Y0365900D01*
X0040684Y0366042D01*
X0040755Y0366183D01*
X0040829Y0366322D01*
X0040907Y0366459D01*
X0040989Y0366594D01*
X0041073Y0366727D01*
X0041162Y0366858D01*
X0041253Y0366986D01*
X0041348Y0367113D01*
X0041445Y0367236D01*
X0041546Y0367358D01*
X0041650Y0367476D01*
X0041757Y0367592D01*
X0041867Y0367705D01*
X0041979Y0367816D01*
X0042095Y0367923D01*
X0042213Y0368028D01*
X0042333Y0368130D01*
X0042456Y0368228D01*
X0042582Y0368324D01*
X0042710Y0368416D01*
X0042840Y0368505D01*
X0042972Y0368591D01*
X0043107Y0368673D01*
X0043244Y0368752D01*
X0043382Y0368827D01*
X0043522Y0368899D01*
X0043665Y0368967D01*
X0043808Y0369032D01*
X0043954Y0369093D01*
X0044101Y0369150D01*
X0044249Y0369204D01*
X0044399Y0369254D01*
X0044549Y0369300D01*
X0044701Y0369342D01*
X0044854Y0369381D01*
X0045008Y0369415D01*
X0045163Y0369446D01*
X0045318Y0369472D01*
X0045474Y0369495D01*
X0045631Y0369514D01*
X0045788Y0369529D01*
X0045945Y0369540D01*
X0046103Y0369547D01*
X0046261Y0369550D01*
X0046418Y0369549D01*
X0046576Y0369544D01*
X0046733Y0369535D01*
X0046891Y0369522D01*
X0047047Y0369505D01*
X0047204Y0369484D01*
X0047359Y0369460D01*
X0047514Y0369431D01*
X0047669Y0369398D01*
X0047822Y0369362D01*
X0047975Y0369321D01*
X0048126Y0369277D01*
X0048276Y0369229D01*
X0048425Y0369178D01*
X0048573Y0369122D01*
X0048719Y0369063D01*
X0048864Y0369000D01*
X0049007Y0368933D01*
X0049148Y0368863D01*
X0049287Y0368790D01*
X0049425Y0368713D01*
X0049561Y0368632D01*
X0049694Y0368548D01*
X0049825Y0368461D01*
X0049954Y0368370D01*
X0050081Y0368276D01*
X0050206Y0368179D01*
X0050327Y0368079D01*
X0050447Y0367976D01*
X0050563Y0367870D01*
X0050677Y0367761D01*
X0050789Y0367649D01*
X0050897Y0367535D01*
X0051002Y0367417D01*
X0051105Y0367297D01*
X0051204Y0367175D01*
X0051300Y0367050D01*
X0051393Y0366922D01*
X0051483Y0366793D01*
X0051569Y0366661D01*
X0051653Y0366527D01*
X0051732Y0366391D01*
X0051809Y0366253D01*
X0051881Y0366113D01*
X0051950Y0365971D01*
X0052016Y0365828D01*
X0052078Y0365683D01*
X0052136Y0365536D01*
X0052191Y0365388D01*
X0052242Y0365239D01*
X0052289Y0365088D01*
X0052332Y0364937D01*
X0052371Y0364784D01*
X0052407Y0364630D01*
X0052438Y0364476D01*
X0052466Y0364321D01*
X0052490Y0364165D01*
X0052510Y0364008D01*
X0052526Y0363851D01*
X0052538Y0363694D01*
X0052546Y0363537D01*
X0052550Y0363379D01*
X0052550Y0363221D01*
X0052546Y0363063D01*
X0052538Y0362906D01*
X0052526Y0362749D01*
X0052510Y0362592D01*
X0052490Y0362435D01*
X0052466Y0362279D01*
X0052438Y0362124D01*
X0052407Y0361970D01*
X0052371Y0361816D01*
X0052332Y0361663D01*
X0052289Y0361512D01*
X0052242Y0361361D01*
X0052191Y0361212D01*
X0052136Y0361064D01*
X0052078Y0360917D01*
X0052016Y0360772D01*
X0051950Y0360629D01*
X0051881Y0360487D01*
X0051809Y0360347D01*
X0051732Y0360209D01*
X0051653Y0360073D01*
X0051569Y0359939D01*
X0051483Y0359807D01*
X0051393Y0359678D01*
X0051300Y0359550D01*
X0051204Y0359425D01*
X0051105Y0359303D01*
X0051002Y0359183D01*
X0050897Y0359065D01*
X0050789Y0358951D01*
X0050677Y0358839D01*
X0050563Y0358730D01*
X0050447Y0358624D01*
X0050327Y0358521D01*
X0050206Y0358421D01*
X0050081Y0358324D01*
X0049954Y0358230D01*
X0049825Y0358139D01*
X0049694Y0358052D01*
X0049561Y0357968D01*
X0049425Y0357887D01*
X0049287Y0357810D01*
X0049148Y0357737D01*
X0049007Y0357667D01*
X0048864Y0357600D01*
X0048719Y0357537D01*
X0048573Y0357478D01*
X0048425Y0357422D01*
X0048276Y0357371D01*
X0048126Y0357323D01*
X0047975Y0357279D01*
X0047822Y0357238D01*
X0047669Y0357202D01*
X0047514Y0357169D01*
X0047359Y0357140D01*
X0047204Y0357116D01*
X0047047Y0357095D01*
X0046891Y0357078D01*
X0046733Y0357065D01*
X0046576Y0357056D01*
X0046418Y0357051D01*
X0046261Y0357050D01*
X0046103Y0357053D01*
X0045945Y0357060D01*
X0045788Y0357071D01*
X0045631Y0357086D01*
X0045474Y0357105D01*
X0045318Y0357128D01*
X0045163Y0357154D01*
X0045008Y0357185D01*
X0044854Y0357219D01*
X0044701Y0357258D01*
X0044549Y0357300D01*
X0044399Y0357346D01*
X0044249Y0357396D01*
X0044101Y0357450D01*
X0043954Y0357507D01*
X0043808Y0357568D01*
X0043665Y0357633D01*
X0043522Y0357701D01*
X0043382Y0357773D01*
X0043244Y0357848D01*
X0043107Y0357927D01*
X0042972Y0358009D01*
X0042840Y0358095D01*
X0042710Y0358184D01*
X0042582Y0358276D01*
X0042456Y0358372D01*
X0042333Y0358470D01*
X0042213Y0358572D01*
X0042095Y0358677D01*
X0041979Y0358784D01*
X0041867Y0358895D01*
X0041757Y0359008D01*
X0041650Y0359124D01*
X0041546Y0359242D01*
X0041445Y0359364D01*
X0041348Y0359487D01*
X0041253Y0359614D01*
X0041162Y0359742D01*
X0041073Y0359873D01*
X0040989Y0360006D01*
X0040907Y0360141D01*
X0040829Y0360278D01*
X0040755Y0360417D01*
X0040684Y0360558D01*
X0040616Y0360700D01*
X0040553Y0360845D01*
X0040492Y0360990D01*
X0040436Y0361138D01*
X0040383Y0361286D01*
X0040334Y0361436D01*
X0040289Y0361587D01*
X0040248Y0361740D01*
X0040210Y0361893D01*
X0040177Y0362047D01*
X0040147Y0362202D01*
X0040121Y0362357D01*
X0040100Y0362514D01*
X0040082Y0362670D01*
X0040068Y0362827D01*
X0040058Y0362985D01*
X0040052Y0363142D01*
X0040050Y0363300D01*
M02*
