G75*
%MOIN*%
%OFA0B0*%
%FSLAX25Y25*%
%IPPOS*%
%LPD*%
%AMOC8*
5,1,8,0,0,1.08239X$1,22.5*
%
%ADD10C,0.05200*%
%ADD11C,0.05200*%
%ADD12R,0.06300X0.04600*%
%ADD13C,0.06000*%
%ADD14R,0.03937X0.05669*%
%ADD15R,0.04724X0.05669*%
%ADD16R,0.06000X0.06000*%
%ADD17R,0.08250X0.08250*%
%ADD18OC8,0.05200*%
%ADD19C,0.17500*%
%ADD20C,0.15000*%
%ADD21OC8,0.06300*%
%ADD22C,0.06300*%
%ADD23OC8,0.06000*%
%ADD24C,0.05600*%
%ADD25C,0.02000*%
%ADD26C,0.01000*%
%ADD27C,0.04000*%
D10*
X0101300Y0043700D02*
X0101300Y0048900D01*
X0111300Y0048900D02*
X0111300Y0043700D01*
X0121300Y0043700D02*
X0121300Y0048900D01*
X0131300Y0048900D02*
X0131300Y0043700D01*
X0141300Y0043700D02*
X0141300Y0048900D01*
X0151300Y0048900D02*
X0151300Y0043700D01*
X0161300Y0043700D02*
X0161300Y0048900D01*
X0171300Y0048900D02*
X0171300Y0043700D01*
X0181300Y0043700D02*
X0181300Y0048900D01*
X0191300Y0048900D02*
X0191300Y0043700D01*
X0201300Y0043700D02*
X0201300Y0048900D01*
X0211300Y0048900D02*
X0211300Y0043700D01*
X0211300Y0033900D02*
X0211300Y0028700D01*
X0201300Y0028700D02*
X0201300Y0033900D01*
X0221300Y0033900D02*
X0221300Y0028700D01*
X0231300Y0028700D02*
X0231300Y0033900D01*
X0231300Y0043700D02*
X0231300Y0048900D01*
X0241300Y0048900D02*
X0241300Y0043700D01*
X0241300Y0033900D02*
X0241300Y0028700D01*
X0251300Y0028700D02*
X0251300Y0033900D01*
X0251300Y0043700D02*
X0251300Y0048900D01*
X0261300Y0048900D02*
X0261300Y0043700D01*
X0261300Y0033900D02*
X0261300Y0028700D01*
X0271300Y0028700D02*
X0271300Y0033900D01*
X0271300Y0043700D02*
X0271300Y0048900D01*
X0281300Y0048900D02*
X0281300Y0043700D01*
X0281300Y0033900D02*
X0281300Y0028700D01*
X0291300Y0028700D02*
X0291300Y0033900D01*
X0291300Y0043700D02*
X0291300Y0048900D01*
X0301300Y0048900D02*
X0301300Y0043700D01*
X0301300Y0033900D02*
X0301300Y0028700D01*
X0311300Y0043700D02*
X0311300Y0048900D01*
X0321300Y0048900D02*
X0321300Y0043700D01*
X0331300Y0043700D02*
X0331300Y0048900D01*
X0331300Y0103700D02*
X0331300Y0108900D01*
X0321300Y0108900D02*
X0321300Y0103700D01*
X0311300Y0103700D02*
X0311300Y0108900D01*
X0301300Y0108900D02*
X0301300Y0103700D01*
X0291300Y0103700D02*
X0291300Y0108900D01*
X0281300Y0108900D02*
X0281300Y0103700D01*
X0271300Y0103700D02*
X0271300Y0108900D01*
X0261300Y0108900D02*
X0261300Y0103700D01*
X0251300Y0103700D02*
X0251300Y0108900D01*
X0241300Y0108900D02*
X0241300Y0103700D01*
X0231300Y0103700D02*
X0231300Y0108900D01*
X0221300Y0108900D02*
X0221300Y0103700D01*
X0211300Y0103700D02*
X0211300Y0108900D01*
X0201300Y0108900D02*
X0201300Y0103700D01*
X0191300Y0103700D02*
X0191300Y0108900D01*
X0181300Y0108900D02*
X0181300Y0103700D01*
X0171300Y0103700D02*
X0171300Y0108900D01*
X0161300Y0108900D02*
X0161300Y0103700D01*
X0151300Y0103700D02*
X0151300Y0108900D01*
X0141300Y0108900D02*
X0141300Y0103700D01*
X0131300Y0103700D02*
X0131300Y0108900D01*
X0121300Y0108900D02*
X0121300Y0103700D01*
X0111300Y0103700D02*
X0111300Y0108900D01*
X0101300Y0108900D02*
X0101300Y0103700D01*
X0101300Y0158700D02*
X0101300Y0163900D01*
X0111300Y0163900D02*
X0111300Y0158700D01*
X0121300Y0158700D02*
X0121300Y0163900D01*
X0131300Y0163900D02*
X0131300Y0158700D01*
X0131300Y0188700D02*
X0131300Y0193900D01*
X0121300Y0193900D02*
X0121300Y0188700D01*
X0111300Y0188700D02*
X0111300Y0193900D01*
X0101300Y0193900D02*
X0101300Y0188700D01*
X0091300Y0188700D02*
X0091300Y0193900D01*
X0081300Y0193900D02*
X0081300Y0188700D01*
X0071300Y0188700D02*
X0071300Y0193900D01*
X0071300Y0208700D02*
X0071300Y0213900D01*
X0081300Y0213900D02*
X0081300Y0208700D01*
X0091300Y0208700D02*
X0091300Y0213900D01*
X0101300Y0213900D02*
X0101300Y0208700D01*
X0111300Y0208700D02*
X0111300Y0213900D01*
X0121300Y0213900D02*
X0121300Y0208700D01*
X0146300Y0208700D02*
X0146300Y0213900D01*
X0156300Y0213900D02*
X0156300Y0208700D01*
X0166300Y0208700D02*
X0166300Y0213900D01*
X0176300Y0213900D02*
X0176300Y0208700D01*
X0186300Y0208700D02*
X0186300Y0213900D01*
X0196300Y0213900D02*
X0196300Y0208700D01*
X0206300Y0208700D02*
X0206300Y0213900D01*
X0216300Y0213900D02*
X0216300Y0208700D01*
X0226300Y0208700D02*
X0226300Y0213900D01*
X0236300Y0213900D02*
X0236300Y0208700D01*
X0236300Y0193900D02*
X0236300Y0188700D01*
X0226300Y0188700D02*
X0226300Y0193900D01*
X0216300Y0193900D02*
X0216300Y0188700D01*
X0206300Y0188700D02*
X0206300Y0193900D01*
X0196300Y0193900D02*
X0196300Y0188700D01*
X0186300Y0188700D02*
X0186300Y0193900D01*
X0176300Y0193900D02*
X0176300Y0188700D01*
X0166300Y0188700D02*
X0166300Y0193900D01*
X0166300Y0163900D02*
X0166300Y0158700D01*
X0176300Y0158700D02*
X0176300Y0163900D01*
X0186300Y0163900D02*
X0186300Y0158700D01*
X0196300Y0158700D02*
X0196300Y0163900D01*
X0206300Y0163900D02*
X0206300Y0158700D01*
X0216300Y0158700D02*
X0216300Y0163900D01*
X0226300Y0163900D02*
X0226300Y0158700D01*
X0236300Y0158700D02*
X0236300Y0163900D01*
X0281300Y0163900D02*
X0281300Y0158700D01*
X0291300Y0158700D02*
X0291300Y0163900D01*
X0301300Y0163900D02*
X0301300Y0158700D01*
X0311300Y0158700D02*
X0311300Y0163900D01*
X0321300Y0163900D02*
X0321300Y0158700D01*
X0331300Y0158700D02*
X0331300Y0163900D01*
X0341300Y0163900D02*
X0341300Y0158700D01*
X0351300Y0158700D02*
X0351300Y0163900D01*
X0361300Y0163900D02*
X0361300Y0158700D01*
X0371300Y0158700D02*
X0371300Y0163900D01*
X0381300Y0163900D02*
X0381300Y0158700D01*
X0391300Y0158700D02*
X0391300Y0163900D01*
X0391300Y0188700D02*
X0391300Y0193900D01*
X0381300Y0193900D02*
X0381300Y0188700D01*
X0371300Y0188700D02*
X0371300Y0193900D01*
X0361300Y0193900D02*
X0361300Y0188700D01*
X0351300Y0188700D02*
X0351300Y0193900D01*
X0341300Y0193900D02*
X0341300Y0188700D01*
X0331300Y0188700D02*
X0331300Y0193900D01*
X0321300Y0193900D02*
X0321300Y0188700D01*
X0311300Y0188700D02*
X0311300Y0193900D01*
X0301300Y0193900D02*
X0301300Y0188700D01*
X0291300Y0188700D02*
X0291300Y0193900D01*
X0281300Y0193900D02*
X0281300Y0188700D01*
X0296300Y0208700D02*
X0296300Y0213900D01*
X0306300Y0213900D02*
X0306300Y0208700D01*
X0316300Y0208700D02*
X0316300Y0213900D01*
X0326300Y0213900D02*
X0326300Y0208700D01*
X0336300Y0208700D02*
X0336300Y0213900D01*
X0346300Y0213900D02*
X0346300Y0208700D01*
X0356300Y0208700D02*
X0356300Y0213900D01*
X0366300Y0213900D02*
X0366300Y0208700D01*
X0376300Y0208700D02*
X0376300Y0213900D01*
X0386300Y0213900D02*
X0386300Y0208700D01*
X0386300Y0238700D02*
X0386300Y0243900D01*
X0376300Y0243900D02*
X0376300Y0238700D01*
X0366300Y0238700D02*
X0366300Y0243900D01*
X0356300Y0243900D02*
X0356300Y0238700D01*
X0346300Y0238700D02*
X0346300Y0243900D01*
X0336300Y0243900D02*
X0336300Y0238700D01*
X0326300Y0238700D02*
X0326300Y0243900D01*
X0316300Y0243900D02*
X0316300Y0238700D01*
X0306300Y0238700D02*
X0306300Y0243900D01*
X0296300Y0243900D02*
X0296300Y0238700D01*
X0296300Y0278700D02*
X0296300Y0283900D01*
X0286300Y0283900D02*
X0286300Y0278700D01*
X0276300Y0278700D02*
X0276300Y0283900D01*
X0276300Y0308700D02*
X0276300Y0313900D01*
X0286300Y0313900D02*
X0286300Y0308700D01*
X0296300Y0308700D02*
X0296300Y0313900D01*
X0306300Y0313900D02*
X0306300Y0308700D01*
X0316300Y0308700D02*
X0316300Y0313900D01*
X0326300Y0313900D02*
X0326300Y0308700D01*
X0336300Y0308700D02*
X0336300Y0313900D01*
X0346300Y0313900D02*
X0346300Y0308700D01*
X0356300Y0308700D02*
X0356300Y0313900D01*
X0366300Y0313900D02*
X0366300Y0308700D01*
X0376300Y0308700D02*
X0376300Y0313900D01*
X0386300Y0313900D02*
X0386300Y0308700D01*
X0386300Y0283900D02*
X0386300Y0278700D01*
X0376300Y0278700D02*
X0376300Y0283900D01*
X0366300Y0283900D02*
X0366300Y0278700D01*
X0356300Y0278700D02*
X0356300Y0283900D01*
X0346300Y0283900D02*
X0346300Y0278700D01*
X0336300Y0278700D02*
X0336300Y0283900D01*
X0326300Y0283900D02*
X0326300Y0278700D01*
X0316300Y0278700D02*
X0316300Y0283900D01*
X0306300Y0283900D02*
X0306300Y0278700D01*
X0236300Y0278900D02*
X0236300Y0273700D01*
X0226300Y0273700D02*
X0226300Y0278900D01*
X0216300Y0278900D02*
X0216300Y0273700D01*
X0206300Y0273700D02*
X0206300Y0278900D01*
X0196300Y0278900D02*
X0196300Y0273700D01*
X0186300Y0273700D02*
X0186300Y0278900D01*
X0176300Y0278900D02*
X0176300Y0273700D01*
X0166300Y0273700D02*
X0166300Y0278900D01*
X0156300Y0278900D02*
X0156300Y0273700D01*
X0146300Y0273700D02*
X0146300Y0278900D01*
X0121300Y0278900D02*
X0121300Y0273700D01*
X0111300Y0273700D02*
X0111300Y0278900D01*
X0101300Y0278900D02*
X0101300Y0273700D01*
X0091300Y0273700D02*
X0091300Y0278900D01*
X0081300Y0278900D02*
X0081300Y0273700D01*
X0071300Y0273700D02*
X0071300Y0278900D01*
X0061300Y0278900D02*
X0061300Y0273700D01*
X0051300Y0273700D02*
X0051300Y0278900D01*
X0041300Y0278900D02*
X0041300Y0273700D01*
X0031300Y0273700D02*
X0031300Y0278900D01*
X0031300Y0303700D02*
X0031300Y0308900D01*
X0041300Y0308900D02*
X0041300Y0303700D01*
X0051300Y0303700D02*
X0051300Y0308900D01*
X0061300Y0308900D02*
X0061300Y0303700D01*
X0071300Y0303700D02*
X0071300Y0308900D01*
X0081300Y0308900D02*
X0081300Y0303700D01*
X0091300Y0303700D02*
X0091300Y0308900D01*
X0101300Y0308900D02*
X0101300Y0303700D01*
X0111300Y0303700D02*
X0111300Y0308900D01*
X0121300Y0308900D02*
X0121300Y0303700D01*
X0146300Y0303700D02*
X0146300Y0308900D01*
X0156300Y0308900D02*
X0156300Y0303700D01*
X0166300Y0303700D02*
X0166300Y0308900D01*
X0176300Y0308900D02*
X0176300Y0303700D01*
X0186300Y0303700D02*
X0186300Y0308900D01*
X0196300Y0308900D02*
X0196300Y0303700D01*
X0206300Y0303700D02*
X0206300Y0308900D01*
X0216300Y0308900D02*
X0216300Y0303700D01*
X0226300Y0303700D02*
X0226300Y0308900D01*
X0236300Y0308900D02*
X0236300Y0303700D01*
X0236300Y0243900D02*
X0236300Y0238700D01*
X0226300Y0238700D02*
X0226300Y0243900D01*
X0216300Y0243900D02*
X0216300Y0238700D01*
X0206300Y0238700D02*
X0206300Y0243900D01*
X0196300Y0243900D02*
X0196300Y0238700D01*
X0186300Y0238700D02*
X0186300Y0243900D01*
X0176300Y0243900D02*
X0176300Y0238700D01*
X0166300Y0238700D02*
X0166300Y0243900D01*
X0156300Y0243900D02*
X0156300Y0238700D01*
X0146300Y0238700D02*
X0146300Y0243900D01*
X0121300Y0243900D02*
X0121300Y0238700D01*
X0111300Y0238700D02*
X0111300Y0243900D01*
X0101300Y0243900D02*
X0101300Y0238700D01*
X0091300Y0238700D02*
X0091300Y0243900D01*
X0081300Y0243900D02*
X0081300Y0238700D01*
X0071300Y0238700D02*
X0071300Y0243900D01*
X0061300Y0243900D02*
X0061300Y0238700D01*
X0051300Y0238700D02*
X0051300Y0243900D01*
X0041300Y0243900D02*
X0041300Y0238700D01*
X0031300Y0238700D02*
X0031300Y0243900D01*
X0031300Y0213900D02*
X0031300Y0208700D01*
X0041300Y0208700D02*
X0041300Y0213900D01*
X0051300Y0213900D02*
X0051300Y0208700D01*
X0061300Y0208700D02*
X0061300Y0213900D01*
X0071300Y0163900D02*
X0071300Y0158700D01*
X0081300Y0158700D02*
X0081300Y0163900D01*
X0091300Y0163900D02*
X0091300Y0158700D01*
X0221300Y0048900D02*
X0221300Y0043700D01*
D11*
X0076300Y0051300D03*
X0046300Y0051300D03*
X0046300Y0081300D03*
X0076300Y0081300D03*
D12*
X0051300Y0128300D03*
X0051300Y0134300D03*
D13*
X0029300Y0101300D02*
X0023300Y0101300D01*
X0023300Y0091300D02*
X0029300Y0091300D01*
X0029300Y0081300D02*
X0023300Y0081300D01*
D14*
X0062560Y0126969D03*
X0070040Y0126969D03*
X0062560Y0135631D03*
D15*
X0069253Y0135631D03*
D16*
X0026400Y0127450D03*
X0026400Y0145150D03*
D17*
X0036200Y0150100D03*
X0036200Y0122500D03*
D18*
X0026300Y0061300D03*
X0026300Y0051300D03*
X0141300Y0031300D03*
X0161300Y0031300D03*
X0176300Y0031300D03*
X0186300Y0031300D03*
X0311300Y0031300D03*
X0341300Y0031300D03*
X0361300Y0031300D03*
X0371300Y0031300D03*
X0271300Y0181300D03*
X0271300Y0191300D03*
X0286300Y0231300D03*
X0286300Y0241300D03*
X0266300Y0301300D03*
X0266300Y0311300D03*
X0136300Y0306300D03*
X0136300Y0296300D03*
X0136300Y0241300D03*
X0136300Y0231300D03*
X0156300Y0191300D03*
X0156300Y0181300D03*
X0061300Y0181300D03*
X0061300Y0191300D03*
X0021300Y0231300D03*
X0021300Y0241300D03*
X0021300Y0296300D03*
X0021300Y0306300D03*
D19*
X0354095Y0076300D03*
D20*
X0366300Y0095198D03*
X0378111Y0076300D03*
D21*
X0386300Y0126300D03*
D22*
X0386300Y0116300D03*
D23*
X0376300Y0336300D03*
X0376300Y0346300D03*
X0366300Y0346300D03*
X0366300Y0336300D03*
X0356300Y0336300D03*
X0356300Y0346300D03*
X0346300Y0346300D03*
X0346300Y0336300D03*
X0336300Y0336300D03*
X0336300Y0346300D03*
X0326300Y0346300D03*
X0326300Y0336300D03*
X0316300Y0336300D03*
X0316300Y0346300D03*
X0306300Y0346300D03*
X0306300Y0336300D03*
X0296300Y0336300D03*
X0296300Y0346300D03*
X0286300Y0346300D03*
X0286300Y0336300D03*
X0276300Y0336300D03*
X0276300Y0346300D03*
X0266300Y0346300D03*
X0266300Y0336300D03*
X0256300Y0336300D03*
X0256300Y0346300D03*
X0246300Y0346300D03*
X0246300Y0336300D03*
X0236300Y0336300D03*
X0236300Y0346300D03*
X0226300Y0346300D03*
X0226300Y0336300D03*
X0216300Y0336300D03*
X0216300Y0346300D03*
X0206300Y0346300D03*
X0206300Y0336300D03*
X0196300Y0336300D03*
X0196300Y0346300D03*
X0186300Y0346300D03*
X0186300Y0336300D03*
X0176300Y0336300D03*
X0176300Y0346300D03*
X0166300Y0346300D03*
X0166300Y0336300D03*
X0156300Y0336300D03*
X0156300Y0346300D03*
X0146300Y0346300D03*
X0146300Y0336300D03*
X0136300Y0336300D03*
X0136300Y0346300D03*
X0126300Y0346300D03*
X0126300Y0336300D03*
X0116300Y0336300D03*
X0116300Y0346300D03*
X0106300Y0346300D03*
X0106300Y0336300D03*
X0096300Y0336300D03*
X0096300Y0346300D03*
X0086300Y0346300D03*
X0086300Y0336300D03*
X0076300Y0336300D03*
X0076300Y0346300D03*
X0066300Y0346300D03*
X0066300Y0336300D03*
X0056300Y0336300D03*
X0056300Y0346300D03*
X0046300Y0346300D03*
X0046300Y0336300D03*
D24*
X0248500Y0266300D02*
X0254100Y0266300D01*
X0263500Y0266300D02*
X0269100Y0266300D01*
X0269100Y0256300D02*
X0263500Y0256300D01*
X0254100Y0256300D02*
X0248500Y0256300D01*
D25*
X0068800Y0151300D02*
X0068800Y0136300D01*
X0069253Y0135631D01*
X0070040Y0126969D02*
X0068800Y0126300D01*
X0067550Y0125050D01*
X0067550Y0102550D01*
X0046300Y0081300D01*
X0068800Y0151300D02*
X0061300Y0158800D01*
X0061300Y0181300D01*
D26*
X0018800Y0178800D02*
X0018800Y0046300D01*
X0101300Y0046300D01*
X0121300Y0046300D02*
X0128800Y0038800D01*
X0146300Y0038800D01*
X0146300Y0092550D01*
X0156300Y0102550D01*
X0156300Y0110050D01*
X0143800Y0122550D01*
X0143800Y0200050D01*
X0151300Y0207550D01*
X0151300Y0225050D01*
X0162550Y0225050D01*
X0166300Y0226300D02*
X0166300Y0211300D01*
X0161300Y0206300D01*
X0161300Y0180050D01*
X0158800Y0177550D01*
X0158800Y0155050D01*
X0161300Y0152550D01*
X0161300Y0137550D01*
X0147550Y0123800D01*
X0141300Y0121300D02*
X0146300Y0116300D01*
X0146300Y0102550D01*
X0143800Y0100050D01*
X0143800Y0048800D01*
X0141300Y0046300D01*
X0151300Y0046300D02*
X0158800Y0038800D01*
X0196300Y0038800D01*
X0196300Y0152550D01*
X0201300Y0157550D01*
X0201300Y0236300D01*
X0206300Y0241300D01*
X0206300Y0276300D01*
X0211300Y0272550D02*
X0216300Y0267550D01*
X0216300Y0241300D01*
X0225050Y0242550D02*
X0225050Y0252550D01*
X0225050Y0242550D02*
X0226300Y0241300D01*
X0243800Y0241300D02*
X0243800Y0325050D01*
X0236300Y0332550D01*
X0236300Y0336300D01*
X0241300Y0332550D02*
X0246300Y0327550D01*
X0246300Y0273800D01*
X0247550Y0272550D01*
X0253800Y0277550D02*
X0253800Y0333800D01*
X0256300Y0336300D01*
X0261300Y0341300D02*
X0261300Y0327550D01*
X0258800Y0325050D01*
X0258800Y0153800D01*
X0247550Y0153800D01*
X0258800Y0153800D02*
X0258800Y0112550D01*
X0256300Y0110050D01*
X0256300Y0051300D01*
X0251300Y0046300D01*
X0241300Y0046300D02*
X0241300Y0041300D01*
X0251300Y0031300D01*
X0240050Y0023800D02*
X0281300Y0023800D01*
X0327550Y0023800D01*
X0365050Y0061300D01*
X0365050Y0080050D01*
X0356300Y0088800D01*
X0356300Y0098800D01*
X0366300Y0108800D01*
X0366300Y0186300D01*
X0371300Y0191300D01*
X0361300Y0200050D02*
X0356300Y0195050D01*
X0356300Y0175050D01*
X0346300Y0165050D01*
X0346300Y0095050D01*
X0338800Y0087550D01*
X0338800Y0045050D01*
X0332550Y0038800D01*
X0316300Y0038800D01*
X0316300Y0098800D01*
X0311300Y0103800D01*
X0311300Y0106300D01*
X0316300Y0102550D02*
X0316300Y0202550D01*
X0321300Y0207550D01*
X0321300Y0251300D01*
X0326300Y0256300D01*
X0326300Y0281300D01*
X0331300Y0285050D02*
X0337550Y0291300D01*
X0351300Y0291300D01*
X0351300Y0246300D01*
X0356300Y0241300D01*
X0351300Y0235050D02*
X0351300Y0191300D01*
X0361300Y0200050D02*
X0361300Y0215050D01*
X0381300Y0235050D01*
X0381300Y0285050D01*
X0361300Y0305050D01*
X0361300Y0321300D01*
X0346300Y0336300D01*
X0351300Y0341300D02*
X0351300Y0347550D01*
X0355050Y0351300D01*
X0387550Y0351300D01*
X0387550Y0338800D01*
X0396300Y0330050D01*
X0396300Y0080050D01*
X0337550Y0021300D01*
X0231300Y0021300D01*
X0231300Y0031300D01*
X0221300Y0041300D01*
X0221300Y0046300D01*
X0211300Y0046300D02*
X0211300Y0041300D01*
X0221300Y0031300D01*
X0236300Y0027550D02*
X0240050Y0023800D01*
X0236300Y0027550D02*
X0236300Y0041300D01*
X0231300Y0046300D01*
X0266300Y0051300D02*
X0266300Y0217550D01*
X0276300Y0217550D02*
X0282550Y0211300D01*
X0296300Y0211300D01*
X0298800Y0203800D02*
X0273800Y0203800D01*
X0273800Y0275050D01*
X0271300Y0277550D01*
X0271300Y0331300D01*
X0266300Y0336300D01*
X0261300Y0341300D02*
X0266300Y0346300D01*
X0276300Y0346300D02*
X0281300Y0341300D01*
X0281300Y0335050D01*
X0283800Y0332550D01*
X0283800Y0313800D01*
X0286300Y0311300D01*
X0291300Y0307550D02*
X0291300Y0331300D01*
X0286300Y0336300D01*
X0291300Y0335050D02*
X0291300Y0341300D01*
X0286300Y0346300D01*
X0296300Y0346300D02*
X0301300Y0341300D01*
X0301300Y0335050D01*
X0303800Y0332550D01*
X0303800Y0313800D01*
X0306300Y0311300D01*
X0301300Y0307550D02*
X0301300Y0331300D01*
X0296300Y0336300D01*
X0293800Y0332550D02*
X0291300Y0335050D01*
X0293800Y0332550D02*
X0293800Y0313800D01*
X0296300Y0311300D01*
X0291300Y0307550D02*
X0301300Y0297550D01*
X0301300Y0275050D01*
X0311300Y0265050D01*
X0311300Y0237550D01*
X0317550Y0231300D01*
X0311300Y0227550D02*
X0301300Y0237550D01*
X0301300Y0255050D01*
X0291300Y0263800D02*
X0286300Y0268800D01*
X0286300Y0281300D01*
X0281300Y0277550D02*
X0281300Y0331300D01*
X0276300Y0336300D01*
X0251300Y0331300D02*
X0246300Y0336300D01*
X0251300Y0331300D02*
X0251300Y0266300D01*
X0251300Y0256300D02*
X0251300Y0168800D01*
X0255050Y0165050D01*
X0262550Y0150050D02*
X0262550Y0107550D01*
X0261300Y0106300D01*
X0243800Y0108800D02*
X0241300Y0106300D01*
X0243800Y0108800D02*
X0243800Y0217550D01*
X0247550Y0221300D01*
X0247550Y0237550D02*
X0243800Y0241300D01*
X0262550Y0252550D02*
X0266300Y0256300D01*
X0262550Y0252550D02*
X0262550Y0150050D01*
X0281300Y0161300D02*
X0281300Y0106300D01*
X0291300Y0116300D02*
X0291300Y0161300D01*
X0296300Y0153800D02*
X0296300Y0051300D01*
X0291300Y0046300D01*
X0281300Y0046300D02*
X0276300Y0051300D01*
X0276300Y0192550D01*
X0271300Y0197550D01*
X0271300Y0240050D01*
X0266300Y0245050D01*
X0281300Y0246300D02*
X0281300Y0237550D01*
X0282550Y0236300D01*
X0278800Y0230050D02*
X0278800Y0275050D01*
X0281300Y0277550D01*
X0276300Y0281300D02*
X0276300Y0217550D01*
X0280050Y0218800D02*
X0291300Y0230050D01*
X0291300Y0263800D01*
X0290050Y0270050D02*
X0290050Y0275050D01*
X0296300Y0281300D01*
X0311300Y0268800D02*
X0311300Y0297550D01*
X0301300Y0307550D01*
X0311300Y0316300D02*
X0311300Y0341300D01*
X0306300Y0346300D01*
X0316300Y0346300D02*
X0321300Y0341300D01*
X0351300Y0341300D01*
X0356300Y0346300D02*
X0361300Y0341300D01*
X0361300Y0335050D01*
X0363800Y0332550D01*
X0363800Y0313800D01*
X0366300Y0311300D01*
X0371300Y0316300D02*
X0371300Y0341300D01*
X0366300Y0346300D01*
X0376300Y0346300D02*
X0391300Y0331300D01*
X0391300Y0207550D01*
X0386300Y0202550D01*
X0386300Y0157550D01*
X0370050Y0141300D01*
X0353800Y0153800D02*
X0361300Y0161300D01*
X0351300Y0161300D02*
X0351300Y0095050D01*
X0345050Y0088800D01*
X0343800Y0082550D02*
X0353800Y0092550D01*
X0353800Y0153800D01*
X0341300Y0161300D02*
X0341300Y0096300D01*
X0330050Y0085050D01*
X0343800Y0082550D02*
X0343800Y0045050D01*
X0337550Y0038800D01*
X0331300Y0046300D02*
X0326300Y0051300D01*
X0326300Y0156300D01*
X0321300Y0161300D01*
X0331300Y0161300D02*
X0331300Y0138800D01*
X0330050Y0137550D01*
X0302550Y0118800D02*
X0301300Y0120050D01*
X0301300Y0161300D01*
X0331300Y0191300D02*
X0331300Y0230050D01*
X0331300Y0237550D02*
X0331300Y0285050D01*
X0335050Y0271300D02*
X0335050Y0242550D01*
X0336300Y0241300D01*
X0331300Y0237550D02*
X0341300Y0227550D01*
X0341300Y0191300D01*
X0316300Y0206300D02*
X0316300Y0211300D01*
X0316300Y0206300D02*
X0310050Y0200050D01*
X0306300Y0202550D02*
X0311300Y0207550D01*
X0311300Y0227550D01*
X0306300Y0211300D02*
X0298800Y0203800D01*
X0306300Y0202550D02*
X0306300Y0051300D01*
X0311300Y0046300D01*
X0318800Y0048800D02*
X0321300Y0046300D01*
X0318800Y0048800D02*
X0318800Y0100050D01*
X0316300Y0102550D01*
X0292550Y0115050D02*
X0291300Y0116300D01*
X0241300Y0116300D02*
X0231300Y0106300D01*
X0241300Y0116300D02*
X0241300Y0280050D01*
X0231300Y0290050D01*
X0231300Y0353800D01*
X0328800Y0353800D01*
X0336300Y0346300D01*
X0336300Y0336300D02*
X0336300Y0331300D01*
X0356300Y0311300D01*
X0346300Y0311300D02*
X0326300Y0331300D01*
X0326300Y0336300D01*
X0316300Y0336300D02*
X0316300Y0331300D01*
X0336300Y0311300D01*
X0341300Y0305050D02*
X0361300Y0285050D01*
X0361300Y0256300D01*
X0376300Y0241300D01*
X0346300Y0241300D02*
X0345050Y0242550D01*
X0345050Y0255050D01*
X0322550Y0257550D02*
X0311300Y0268800D01*
X0315050Y0270050D02*
X0315050Y0280050D01*
X0316300Y0281300D01*
X0321300Y0263800D02*
X0321300Y0317550D01*
X0316300Y0311300D02*
X0311300Y0316300D01*
X0363800Y0296300D02*
X0363800Y0283800D01*
X0366300Y0281300D01*
X0376300Y0311300D02*
X0371300Y0316300D01*
X0321300Y0263800D02*
X0322550Y0262550D01*
X0287550Y0252550D02*
X0281300Y0246300D01*
X0278800Y0230050D02*
X0282550Y0226300D01*
X0226300Y0211300D02*
X0221300Y0216300D01*
X0221300Y0347550D01*
X0215050Y0353800D01*
X0161300Y0353800D01*
X0161300Y0345050D01*
X0156300Y0340050D01*
X0156300Y0336300D01*
X0157550Y0331300D02*
X0161300Y0335050D01*
X0161300Y0341300D01*
X0167550Y0341300D01*
X0171300Y0345050D01*
X0171300Y0351300D01*
X0187550Y0351300D01*
X0191300Y0347550D01*
X0191300Y0335050D01*
X0188800Y0332550D01*
X0188800Y0308800D01*
X0186300Y0306300D01*
X0181300Y0310050D02*
X0186300Y0315050D01*
X0186300Y0336300D01*
X0181300Y0341300D02*
X0176300Y0346300D01*
X0181300Y0341300D02*
X0181300Y0317550D01*
X0182550Y0316300D01*
X0181300Y0310050D02*
X0181300Y0272550D01*
X0186300Y0267550D01*
X0186300Y0241300D01*
X0181300Y0237550D02*
X0181300Y0252550D01*
X0182550Y0258800D02*
X0171300Y0270050D01*
X0171300Y0331300D01*
X0166300Y0336300D01*
X0157550Y0331300D02*
X0151300Y0331300D01*
X0151300Y0341300D01*
X0156300Y0346300D01*
X0146300Y0336300D02*
X0146300Y0331300D01*
X0161300Y0316300D01*
X0161300Y0272550D01*
X0158800Y0270050D01*
X0158800Y0256300D01*
X0160050Y0255050D01*
X0156300Y0250050D02*
X0161300Y0245050D01*
X0161300Y0231300D01*
X0166300Y0226300D01*
X0171300Y0233800D02*
X0166300Y0238800D01*
X0166300Y0241300D01*
X0166300Y0263800D01*
X0165050Y0265050D01*
X0168800Y0273800D02*
X0168800Y0247550D01*
X0171300Y0245050D01*
X0171300Y0237550D01*
X0175050Y0233800D01*
X0175050Y0212550D01*
X0176300Y0211300D01*
X0183800Y0213800D02*
X0186300Y0211300D01*
X0183800Y0213800D02*
X0183800Y0227550D01*
X0181300Y0225050D02*
X0177550Y0228800D01*
X0177550Y0240050D01*
X0176300Y0241300D01*
X0176300Y0257550D01*
X0177550Y0258800D01*
X0191300Y0246300D02*
X0191300Y0328800D01*
X0192550Y0330050D01*
X0196300Y0326300D02*
X0196300Y0306300D01*
X0176300Y0306300D02*
X0176300Y0320050D01*
X0163800Y0318800D02*
X0163800Y0308800D01*
X0166300Y0306300D01*
X0151300Y0315050D02*
X0151300Y0272550D01*
X0153800Y0270050D01*
X0153800Y0243800D01*
X0156300Y0241300D01*
X0147550Y0231300D02*
X0141300Y0237550D01*
X0141300Y0331300D01*
X0136300Y0336300D01*
X0128800Y0333800D02*
X0126300Y0336300D01*
X0128800Y0333800D02*
X0128800Y0207550D01*
X0132550Y0203800D01*
X0126300Y0202550D02*
X0126300Y0187550D01*
X0123800Y0185050D01*
X0123800Y0163800D01*
X0121300Y0161300D01*
X0126300Y0165050D02*
X0126300Y0141300D01*
X0121300Y0141300D02*
X0121300Y0151300D01*
X0111300Y0161300D01*
X0101300Y0161300D02*
X0100050Y0162550D01*
X0100050Y0172550D01*
X0091300Y0161300D02*
X0081300Y0161300D01*
X0073800Y0150050D02*
X0066300Y0157550D01*
X0066300Y0202550D01*
X0061300Y0207550D01*
X0061300Y0211300D01*
X0058800Y0213800D01*
X0058800Y0235050D01*
X0056300Y0237550D01*
X0056300Y0271300D01*
X0051300Y0276300D01*
X0046300Y0271300D02*
X0046300Y0206300D01*
X0018800Y0178800D01*
X0046300Y0206300D02*
X0051300Y0211300D01*
X0041300Y0211300D02*
X0036300Y0216300D01*
X0036300Y0262550D01*
X0026300Y0272550D01*
X0026300Y0282550D01*
X0046300Y0302550D01*
X0046300Y0336300D01*
X0051300Y0341300D02*
X0056300Y0346300D01*
X0051300Y0341300D02*
X0051300Y0306300D01*
X0056300Y0302550D02*
X0056300Y0317550D01*
X0061300Y0306300D02*
X0061300Y0341300D01*
X0066300Y0346300D01*
X0071300Y0341300D02*
X0076300Y0346300D01*
X0071300Y0341300D02*
X0071300Y0306300D01*
X0081300Y0306300D02*
X0081300Y0341300D01*
X0086300Y0346300D01*
X0091300Y0341300D02*
X0096300Y0346300D01*
X0101300Y0341300D02*
X0106300Y0346300D01*
X0101300Y0341300D02*
X0101300Y0306300D01*
X0096300Y0302550D02*
X0096300Y0336300D01*
X0091300Y0341300D02*
X0091300Y0306300D01*
X0096300Y0302550D02*
X0086300Y0292550D01*
X0086300Y0246300D01*
X0081300Y0241300D01*
X0076300Y0237550D02*
X0076300Y0317550D01*
X0066300Y0336300D02*
X0066300Y0250050D01*
X0062550Y0248800D02*
X0066300Y0245050D01*
X0066300Y0206300D01*
X0076300Y0196300D01*
X0091300Y0211300D01*
X0096300Y0216300D02*
X0091300Y0221300D01*
X0091300Y0241300D01*
X0091300Y0276300D01*
X0095050Y0266300D02*
X0101300Y0260050D01*
X0101300Y0241300D01*
X0111300Y0241300D02*
X0113800Y0243800D01*
X0113800Y0270050D01*
X0116300Y0272550D01*
X0116300Y0291300D01*
X0122550Y0291300D01*
X0116300Y0291300D02*
X0116300Y0328800D01*
X0106300Y0336300D02*
X0106300Y0257550D01*
X0105050Y0256300D01*
X0116300Y0245050D02*
X0116300Y0218800D01*
X0111300Y0213800D01*
X0111300Y0211300D01*
X0116300Y0215050D02*
X0116300Y0191300D01*
X0111300Y0191300D01*
X0116300Y0191300D02*
X0121300Y0191300D01*
X0128800Y0188800D02*
X0128800Y0167550D01*
X0126300Y0165050D01*
X0131300Y0151300D02*
X0131300Y0106300D01*
X0136300Y0111300D02*
X0136300Y0210050D01*
X0132550Y0213800D01*
X0138800Y0217550D02*
X0138800Y0118800D01*
X0142550Y0115050D01*
X0141300Y0121300D02*
X0141300Y0215050D01*
X0146300Y0220050D01*
X0151300Y0225050D02*
X0151300Y0251300D01*
X0150050Y0252550D01*
X0156300Y0250050D02*
X0156300Y0276300D01*
X0166300Y0276300D02*
X0168800Y0273800D01*
X0196300Y0276300D02*
X0203800Y0283800D01*
X0211300Y0283800D01*
X0211300Y0272550D01*
X0210050Y0268800D02*
X0211300Y0267550D01*
X0211300Y0206300D01*
X0216300Y0211300D01*
X0211300Y0206300D02*
X0211300Y0157550D01*
X0206300Y0152550D01*
X0206300Y0087550D01*
X0200050Y0081300D01*
X0211300Y0106300D02*
X0231300Y0126300D01*
X0231300Y0167550D01*
X0186300Y0152550D02*
X0181300Y0157550D01*
X0181300Y0225050D01*
X0187550Y0220050D02*
X0187550Y0231300D01*
X0181300Y0237550D01*
X0171300Y0233800D02*
X0171300Y0157550D01*
X0176300Y0152550D01*
X0176300Y0051300D01*
X0181300Y0046300D01*
X0186300Y0051300D02*
X0186300Y0152550D01*
X0176300Y0161300D02*
X0176300Y0181300D01*
X0175050Y0182550D01*
X0162550Y0168800D02*
X0161300Y0167550D01*
X0161300Y0156300D01*
X0171300Y0146300D01*
X0171300Y0115050D01*
X0167550Y0112550D02*
X0167550Y0125050D01*
X0167550Y0112550D02*
X0161300Y0106300D01*
X0141300Y0106300D02*
X0136300Y0111300D01*
X0127550Y0118800D02*
X0106300Y0140050D01*
X0106300Y0206300D01*
X0101300Y0211300D01*
X0101300Y0216300D01*
X0095050Y0222550D01*
X0096300Y0216300D02*
X0096300Y0146300D01*
X0106300Y0136300D01*
X0106300Y0100050D01*
X0101300Y0097550D02*
X0076300Y0122550D01*
X0076300Y0196300D01*
X0071300Y0211300D02*
X0071300Y0232550D01*
X0076300Y0237550D01*
X0075050Y0230050D02*
X0075050Y0217550D01*
X0081300Y0211300D01*
X0056300Y0233800D02*
X0051300Y0238800D01*
X0051300Y0241300D01*
X0056300Y0233800D02*
X0056300Y0157550D01*
X0062550Y0151300D01*
X0063800Y0141300D02*
X0063800Y0136300D01*
X0062560Y0135631D01*
X0062550Y0135050D01*
X0051300Y0135050D01*
X0051300Y0134300D01*
X0051300Y0128800D02*
X0042550Y0128800D01*
X0042550Y0107550D01*
X0026300Y0091300D01*
X0026400Y0127450D02*
X0027550Y0127550D01*
X0027550Y0128800D01*
X0042550Y0128800D01*
X0051300Y0128800D02*
X0051300Y0128300D01*
X0051300Y0127550D01*
X0062550Y0127550D01*
X0062560Y0126969D01*
X0073800Y0150050D02*
X0073800Y0103800D01*
X0083800Y0093800D01*
X0111300Y0106300D02*
X0130050Y0087550D01*
X0140050Y0087550D02*
X0140050Y0085050D01*
X0140050Y0087550D02*
X0121300Y0106300D01*
X0157550Y0148800D02*
X0147550Y0158800D01*
X0147550Y0165050D01*
X0128800Y0188800D02*
X0131300Y0191300D01*
X0116300Y0215050D02*
X0118800Y0217550D01*
X0118800Y0238800D01*
X0121300Y0241300D01*
X0116300Y0245050D02*
X0126300Y0255050D01*
X0126300Y0316300D01*
X0125050Y0317550D01*
X0121300Y0306300D02*
X0121300Y0341300D01*
X0126300Y0346300D01*
X0116300Y0346300D02*
X0111300Y0341300D01*
X0111300Y0306300D01*
X0062550Y0275050D02*
X0062550Y0248800D01*
X0041300Y0241300D02*
X0038800Y0243800D01*
X0038800Y0270050D01*
X0036300Y0272550D01*
X0036300Y0282550D01*
X0056300Y0302550D01*
X0041300Y0306300D02*
X0023800Y0288800D01*
X0023800Y0245050D01*
X0026300Y0242550D01*
X0026300Y0216300D01*
X0031300Y0211300D01*
X0046300Y0271300D02*
X0041300Y0276300D01*
X0061300Y0276300D02*
X0062550Y0275050D01*
X0187550Y0220050D02*
X0196300Y0211300D01*
X0205050Y0212550D02*
X0206300Y0211300D01*
X0205050Y0212550D02*
X0205050Y0225050D01*
X0196300Y0241300D02*
X0191300Y0246300D01*
X0253800Y0277550D02*
X0255050Y0276300D01*
X0217550Y0315050D02*
X0201300Y0331300D01*
X0201300Y0341300D01*
X0196300Y0346300D01*
X0206300Y0346300D02*
X0211300Y0341300D01*
X0211300Y0331300D01*
X0217550Y0325050D01*
X0186300Y0051300D02*
X0191300Y0046300D01*
X0266300Y0051300D02*
X0271300Y0046300D01*
X0278800Y0038800D02*
X0316300Y0038800D01*
X0281300Y0031300D02*
X0281300Y0023800D01*
X0271300Y0031300D02*
X0278800Y0038800D01*
D27*
X0330050Y0085050D03*
X0345050Y0088800D03*
X0302550Y0118800D03*
X0292550Y0115050D03*
X0330050Y0137550D03*
X0296300Y0153800D03*
X0262550Y0150050D03*
X0247550Y0153800D03*
X0255050Y0165050D03*
X0231300Y0167550D03*
X0175050Y0182550D03*
X0162550Y0168800D03*
X0147550Y0165050D03*
X0131300Y0151300D03*
X0126300Y0141300D03*
X0121300Y0141300D03*
X0127550Y0118800D03*
X0142550Y0115050D03*
X0147550Y0123800D03*
X0167550Y0125050D03*
X0171300Y0115050D03*
X0140050Y0085050D03*
X0130050Y0087550D03*
X0106300Y0100050D03*
X0101300Y0097550D03*
X0083800Y0093800D03*
X0063800Y0141300D03*
X0062550Y0151300D03*
X0100050Y0172550D03*
X0126300Y0202550D03*
X0132550Y0203800D03*
X0132550Y0213800D03*
X0138800Y0217550D03*
X0146300Y0220050D03*
X0147550Y0231300D03*
X0162550Y0225050D03*
X0183800Y0227550D03*
X0205050Y0225050D03*
X0225050Y0252550D03*
X0210050Y0268800D03*
X0182550Y0258800D03*
X0177550Y0258800D03*
X0181300Y0252550D03*
X0165050Y0265050D03*
X0160050Y0255050D03*
X0150050Y0252550D03*
X0105050Y0256300D03*
X0095050Y0266300D03*
X0066300Y0250050D03*
X0075050Y0230050D03*
X0095050Y0222550D03*
X0122550Y0291300D03*
X0125050Y0317550D03*
X0116300Y0328800D03*
X0151300Y0315050D03*
X0163800Y0318800D03*
X0176300Y0320050D03*
X0182550Y0316300D03*
X0192550Y0330050D03*
X0196300Y0326300D03*
X0217550Y0325050D03*
X0217550Y0315050D03*
X0241300Y0332550D03*
X0255050Y0276300D03*
X0247550Y0272550D03*
X0266300Y0245050D03*
X0282550Y0236300D03*
X0282550Y0226300D03*
X0280050Y0218800D03*
X0266300Y0217550D03*
X0247550Y0221300D03*
X0247550Y0237550D03*
X0287550Y0252550D03*
X0301300Y0255050D03*
X0290050Y0270050D03*
X0315050Y0270050D03*
X0322550Y0262550D03*
X0322550Y0257550D03*
X0335050Y0271300D03*
X0345050Y0255050D03*
X0351300Y0235050D03*
X0331300Y0230050D03*
X0317550Y0231300D03*
X0310050Y0200050D03*
X0370050Y0141300D03*
X0337550Y0038800D03*
X0200050Y0081300D03*
X0157550Y0148800D03*
X0341300Y0305050D03*
X0321300Y0317550D03*
X0363800Y0296300D03*
X0076300Y0317550D03*
X0056300Y0317550D03*
M02*
