G75*
%MOIN*%
%OFA0B0*%
%FSLAX25Y25*%
%IPPOS*%
%LPD*%
%AMOC8*
5,1,8,0,0,1.08239X$1,22.5*
%
%ADD10C,0.00400*%
%ADD11C,0.00600*%
%ADD12C,0.00500*%
%ADD13C,0.01000*%
%ADD14C,0.01200*%
%ADD15C,0.00700*%
%ADD16C,0.00800*%
%ADD17R,0.01500X0.02000*%
%ADD18R,0.10000X0.10000*%
D10*
X0051500Y0016500D02*
X0054569Y0016500D01*
X0056104Y0017267D02*
X0056104Y0018035D01*
X0056871Y0018802D01*
X0058406Y0018802D01*
X0059173Y0018035D01*
X0059173Y0017267D01*
X0058406Y0016500D01*
X0056871Y0016500D01*
X0056104Y0017267D01*
X0056871Y0018802D02*
X0056104Y0019569D01*
X0056104Y0020337D01*
X0056871Y0021104D01*
X0058406Y0021104D01*
X0059173Y0020337D01*
X0059173Y0019569D01*
X0058406Y0018802D01*
X0060708Y0017267D02*
X0060708Y0020337D01*
X0061475Y0021104D01*
X0063010Y0021104D01*
X0063777Y0020337D01*
X0060708Y0017267D01*
X0061475Y0016500D01*
X0063010Y0016500D01*
X0063777Y0017267D01*
X0063777Y0020337D01*
X0065312Y0020337D02*
X0066079Y0021104D01*
X0067614Y0021104D01*
X0068381Y0020337D01*
X0065312Y0017267D01*
X0066079Y0016500D01*
X0067614Y0016500D01*
X0068381Y0017267D01*
X0068381Y0020337D01*
X0069916Y0020337D02*
X0070683Y0021104D01*
X0072218Y0021104D01*
X0072985Y0020337D01*
X0069916Y0017267D01*
X0070683Y0016500D01*
X0072218Y0016500D01*
X0072985Y0017267D01*
X0072985Y0020337D01*
X0074520Y0018802D02*
X0077589Y0018802D01*
X0079124Y0018802D02*
X0079124Y0017267D01*
X0079891Y0016500D01*
X0082193Y0016500D01*
X0083727Y0016500D02*
X0086029Y0016500D01*
X0086797Y0017267D01*
X0086797Y0018802D01*
X0086029Y0019569D01*
X0083727Y0019569D01*
X0083727Y0014965D01*
X0082193Y0019569D02*
X0079891Y0019569D01*
X0079124Y0018802D01*
X0069916Y0017267D02*
X0069916Y0020337D01*
X0065312Y0020337D02*
X0065312Y0017267D01*
X0054569Y0020337D02*
X0051500Y0017267D01*
X0051500Y0016500D01*
X0051500Y0021104D02*
X0054569Y0021104D01*
X0054569Y0020337D01*
X0088331Y0019569D02*
X0088331Y0017267D01*
X0089099Y0016500D01*
X0091401Y0016500D01*
X0091401Y0019569D01*
X0092935Y0018802D02*
X0096005Y0018802D01*
X0097539Y0018802D02*
X0100609Y0018802D01*
X0099841Y0016500D02*
X0099841Y0021104D01*
X0097539Y0018802D01*
X0102143Y0021104D02*
X0102910Y0021104D01*
X0102910Y0016500D01*
X0102143Y0016500D02*
X0103678Y0016500D01*
X0105212Y0017267D02*
X0105980Y0018035D01*
X0108282Y0018035D01*
X0108282Y0018802D02*
X0108282Y0016500D01*
X0105980Y0016500D01*
X0105212Y0017267D01*
X0105980Y0019569D02*
X0107514Y0019569D01*
X0108282Y0018802D01*
X0109816Y0019569D02*
X0109816Y0017267D01*
X0110584Y0016500D01*
X0112886Y0016500D01*
X0112886Y0015733D02*
X0112118Y0014965D01*
X0111351Y0014965D01*
X0112886Y0015733D02*
X0112886Y0019569D01*
X0114420Y0018802D02*
X0115188Y0019569D01*
X0116722Y0019569D01*
X0117490Y0018802D01*
X0117490Y0018035D01*
X0114420Y0018035D01*
X0114420Y0018802D02*
X0114420Y0017267D01*
X0115188Y0016500D01*
X0116722Y0016500D01*
X0119024Y0016500D02*
X0119024Y0019569D01*
X0119024Y0018035D02*
X0120559Y0019569D01*
X0121326Y0019569D01*
X0127465Y0020337D02*
X0127465Y0017267D01*
X0130534Y0020337D01*
X0130534Y0017267D01*
X0129767Y0016500D01*
X0128232Y0016500D01*
X0127465Y0017267D01*
X0127465Y0020337D02*
X0128232Y0021104D01*
X0129767Y0021104D01*
X0130534Y0020337D01*
X0132069Y0017267D02*
X0132836Y0017267D01*
X0132836Y0016500D01*
X0132069Y0016500D01*
X0132069Y0017267D01*
X0134371Y0017267D02*
X0134371Y0018035D01*
X0135138Y0018802D01*
X0136673Y0018802D01*
X0137440Y0018035D01*
X0137440Y0017267D01*
X0136673Y0016500D01*
X0135138Y0016500D01*
X0134371Y0017267D01*
X0135138Y0018802D02*
X0134371Y0019569D01*
X0134371Y0020337D01*
X0135138Y0021104D01*
X0136673Y0021104D01*
X0137440Y0020337D01*
X0137440Y0019569D01*
X0136673Y0018802D01*
X0143578Y0019569D02*
X0143578Y0017267D01*
X0144346Y0016500D01*
X0145113Y0017267D01*
X0145880Y0016500D01*
X0146648Y0017267D01*
X0146648Y0019569D01*
X0148182Y0019569D02*
X0148182Y0017267D01*
X0148950Y0016500D01*
X0149717Y0017267D01*
X0150484Y0016500D01*
X0151252Y0017267D01*
X0151252Y0019569D01*
X0152786Y0019569D02*
X0152786Y0017267D01*
X0153554Y0016500D01*
X0154321Y0017267D01*
X0155088Y0016500D01*
X0155856Y0017267D01*
X0155856Y0019569D01*
X0157390Y0017267D02*
X0158158Y0017267D01*
X0158158Y0016500D01*
X0157390Y0016500D01*
X0157390Y0017267D01*
X0159692Y0016500D02*
X0161994Y0016500D01*
X0162761Y0017267D01*
X0161994Y0018035D01*
X0160460Y0018035D01*
X0159692Y0018802D01*
X0160460Y0019569D01*
X0162761Y0019569D01*
X0164296Y0019569D02*
X0164296Y0016500D01*
X0165831Y0016500D02*
X0165831Y0018802D01*
X0166598Y0019569D01*
X0167365Y0018802D01*
X0167365Y0016500D01*
X0168900Y0016500D02*
X0171202Y0016500D01*
X0171969Y0017267D01*
X0171969Y0018802D01*
X0171202Y0019569D01*
X0168900Y0019569D01*
X0168900Y0021104D02*
X0168900Y0016500D01*
X0165831Y0018802D02*
X0165063Y0019569D01*
X0164296Y0019569D01*
X0173504Y0017267D02*
X0174271Y0018035D01*
X0176573Y0018035D01*
X0176573Y0018802D02*
X0176573Y0016500D01*
X0174271Y0016500D01*
X0173504Y0017267D01*
X0174271Y0019569D02*
X0175806Y0019569D01*
X0176573Y0018802D01*
X0178108Y0018035D02*
X0180410Y0019569D01*
X0181945Y0018802D02*
X0182712Y0019569D01*
X0184246Y0019569D01*
X0185014Y0018802D01*
X0185014Y0018035D01*
X0181945Y0018035D01*
X0181945Y0018802D02*
X0181945Y0017267D01*
X0182712Y0016500D01*
X0184246Y0016500D01*
X0186548Y0016500D02*
X0186548Y0019569D01*
X0186548Y0018035D02*
X0188083Y0019569D01*
X0188850Y0019569D01*
X0190385Y0017267D02*
X0191152Y0017267D01*
X0191152Y0016500D01*
X0190385Y0016500D01*
X0190385Y0017267D01*
X0192687Y0017267D02*
X0192687Y0018802D01*
X0193454Y0019569D01*
X0195756Y0019569D01*
X0197291Y0018802D02*
X0197291Y0017267D01*
X0198058Y0016500D01*
X0199593Y0016500D01*
X0200360Y0017267D01*
X0200360Y0018802D01*
X0199593Y0019569D01*
X0198058Y0019569D01*
X0197291Y0018802D01*
X0195756Y0016500D02*
X0193454Y0016500D01*
X0192687Y0017267D01*
X0201895Y0016500D02*
X0201895Y0019569D01*
X0202662Y0019569D01*
X0203429Y0018802D01*
X0204197Y0019569D01*
X0204964Y0018802D01*
X0204964Y0016500D01*
X0203429Y0016500D02*
X0203429Y0018802D01*
X0180410Y0016500D02*
X0178108Y0018035D01*
X0178108Y0016500D02*
X0178108Y0021104D01*
X0071698Y0119000D02*
X0071698Y0123604D01*
X0069396Y0121302D01*
X0072465Y0121302D01*
X0067861Y0120535D02*
X0067094Y0121302D01*
X0065559Y0121302D01*
X0064792Y0122069D01*
X0064792Y0122837D01*
X0065559Y0123604D01*
X0067094Y0123604D01*
X0067861Y0122837D01*
X0066327Y0124371D02*
X0066327Y0118233D01*
X0067094Y0119000D02*
X0065559Y0119000D01*
X0064792Y0119767D01*
X0063257Y0119767D02*
X0063257Y0123604D01*
X0060188Y0123604D02*
X0060188Y0119767D01*
X0060956Y0119000D01*
X0062490Y0119000D01*
X0063257Y0119767D01*
X0067094Y0119000D02*
X0067861Y0119767D01*
X0067861Y0120535D01*
X0024600Y0214500D02*
X0024600Y0216035D01*
X0024600Y0215267D02*
X0019996Y0215267D01*
X0019996Y0214500D02*
X0019996Y0216035D01*
X0020763Y0217569D02*
X0023833Y0217569D01*
X0024600Y0218337D01*
X0024600Y0219871D01*
X0023833Y0220639D01*
X0024600Y0222173D02*
X0024600Y0225242D01*
X0024600Y0223708D02*
X0019996Y0223708D01*
X0021531Y0222173D01*
X0020763Y0220639D02*
X0019996Y0219871D01*
X0019996Y0218337D01*
X0020763Y0217569D01*
X0019996Y0279500D02*
X0019996Y0281035D01*
X0019996Y0280267D02*
X0024600Y0280267D01*
X0024600Y0279500D02*
X0024600Y0281035D01*
X0023833Y0282569D02*
X0024600Y0283337D01*
X0024600Y0284871D01*
X0023833Y0285639D01*
X0023833Y0287173D02*
X0024600Y0287941D01*
X0024600Y0289475D01*
X0023833Y0290242D01*
X0023065Y0290242D01*
X0022298Y0289475D01*
X0022298Y0288708D01*
X0022298Y0289475D02*
X0021531Y0290242D01*
X0020763Y0290242D01*
X0019996Y0289475D01*
X0019996Y0287941D01*
X0020763Y0287173D01*
X0020763Y0285639D02*
X0019996Y0284871D01*
X0019996Y0283337D01*
X0020763Y0282569D01*
X0023833Y0282569D01*
X0134996Y0283337D02*
X0135763Y0282569D01*
X0138833Y0282569D01*
X0139600Y0283337D01*
X0139600Y0284871D01*
X0138833Y0285639D01*
X0137298Y0287173D02*
X0137298Y0290242D01*
X0134996Y0289475D02*
X0137298Y0287173D01*
X0135763Y0285639D02*
X0134996Y0284871D01*
X0134996Y0283337D01*
X0134996Y0281035D02*
X0134996Y0279500D01*
X0134996Y0280267D02*
X0139600Y0280267D01*
X0139600Y0279500D02*
X0139600Y0281035D01*
X0139600Y0289475D02*
X0134996Y0289475D01*
X0135763Y0225242D02*
X0134996Y0224475D01*
X0134996Y0222941D01*
X0135763Y0222173D01*
X0135763Y0220639D02*
X0134996Y0219871D01*
X0134996Y0218337D01*
X0135763Y0217569D01*
X0138833Y0217569D01*
X0139600Y0218337D01*
X0139600Y0219871D01*
X0138833Y0220639D01*
X0139600Y0222173D02*
X0136531Y0225242D01*
X0135763Y0225242D01*
X0139600Y0225242D02*
X0139600Y0222173D01*
X0139600Y0216035D02*
X0139600Y0214500D01*
X0139600Y0215267D02*
X0134996Y0215267D01*
X0134996Y0214500D02*
X0134996Y0216035D01*
X0284996Y0216035D02*
X0284996Y0214500D01*
X0284996Y0215267D02*
X0289600Y0215267D01*
X0289600Y0214500D02*
X0289600Y0216035D01*
X0288833Y0217569D02*
X0285763Y0217569D01*
X0284996Y0218337D01*
X0284996Y0219871D01*
X0285763Y0220639D01*
X0284996Y0222173D02*
X0284996Y0225242D01*
X0285763Y0225242D01*
X0288833Y0222173D01*
X0289600Y0222173D01*
X0288833Y0220639D02*
X0289600Y0219871D01*
X0289600Y0218337D01*
X0288833Y0217569D01*
X0341496Y0068406D02*
X0343798Y0066104D01*
X0343798Y0069173D01*
X0346100Y0068406D02*
X0341496Y0068406D01*
X0341496Y0064569D02*
X0341496Y0063035D01*
X0341496Y0063802D02*
X0345333Y0063802D01*
X0346100Y0063035D01*
X0346100Y0062267D01*
X0345333Y0061500D01*
X0334077Y0026003D02*
X0334077Y0022500D01*
X0335244Y0022500D02*
X0332909Y0022500D01*
X0331653Y0022500D02*
X0330486Y0023668D01*
X0331069Y0023668D02*
X0329318Y0023668D01*
X0329318Y0022500D02*
X0329318Y0026003D01*
X0331069Y0026003D01*
X0331653Y0025419D01*
X0331653Y0024251D01*
X0331069Y0023668D01*
X0332909Y0024835D02*
X0334077Y0026003D01*
D11*
X0333800Y0027300D02*
X0333300Y0027800D01*
X0319300Y0027800D01*
X0318800Y0027300D01*
X0317300Y0027300D01*
X0317240Y0027302D01*
X0317179Y0027307D01*
X0317120Y0027316D01*
X0317061Y0027329D01*
X0317002Y0027345D01*
X0316945Y0027365D01*
X0316890Y0027388D01*
X0316835Y0027415D01*
X0316783Y0027444D01*
X0316732Y0027477D01*
X0316683Y0027513D01*
X0316637Y0027551D01*
X0316593Y0027593D01*
X0316551Y0027637D01*
X0316513Y0027683D01*
X0316477Y0027732D01*
X0316444Y0027783D01*
X0316415Y0027835D01*
X0316388Y0027890D01*
X0316365Y0027945D01*
X0316345Y0028002D01*
X0316329Y0028061D01*
X0316316Y0028120D01*
X0316307Y0028179D01*
X0316302Y0028240D01*
X0316300Y0028300D01*
X0316300Y0034300D01*
X0316302Y0034360D01*
X0316307Y0034421D01*
X0316316Y0034480D01*
X0316329Y0034539D01*
X0316345Y0034598D01*
X0316365Y0034655D01*
X0316388Y0034710D01*
X0316415Y0034765D01*
X0316444Y0034817D01*
X0316477Y0034868D01*
X0316513Y0034917D01*
X0316551Y0034963D01*
X0316593Y0035007D01*
X0316637Y0035049D01*
X0316683Y0035087D01*
X0316732Y0035123D01*
X0316783Y0035156D01*
X0316835Y0035185D01*
X0316890Y0035212D01*
X0316945Y0035235D01*
X0317002Y0035255D01*
X0317061Y0035271D01*
X0317120Y0035284D01*
X0317179Y0035293D01*
X0317240Y0035298D01*
X0317300Y0035300D01*
X0318800Y0035300D01*
X0319300Y0034800D01*
X0333300Y0034800D01*
X0333800Y0035300D01*
X0335300Y0035300D01*
X0335360Y0035298D01*
X0335421Y0035293D01*
X0335480Y0035284D01*
X0335539Y0035271D01*
X0335598Y0035255D01*
X0335655Y0035235D01*
X0335710Y0035212D01*
X0335765Y0035185D01*
X0335817Y0035156D01*
X0335868Y0035123D01*
X0335917Y0035087D01*
X0335963Y0035049D01*
X0336007Y0035007D01*
X0336049Y0034963D01*
X0336087Y0034917D01*
X0336123Y0034868D01*
X0336156Y0034817D01*
X0336185Y0034765D01*
X0336212Y0034710D01*
X0336235Y0034655D01*
X0336255Y0034598D01*
X0336271Y0034539D01*
X0336284Y0034480D01*
X0336293Y0034421D01*
X0336298Y0034360D01*
X0336300Y0034300D01*
X0336300Y0028300D01*
X0336298Y0028240D01*
X0336293Y0028179D01*
X0336284Y0028120D01*
X0336271Y0028061D01*
X0336255Y0028002D01*
X0336235Y0027945D01*
X0336212Y0027890D01*
X0336185Y0027835D01*
X0336156Y0027783D01*
X0336123Y0027732D01*
X0336087Y0027683D01*
X0336049Y0027637D01*
X0336007Y0027593D01*
X0335963Y0027551D01*
X0335917Y0027513D01*
X0335868Y0027477D01*
X0335817Y0027444D01*
X0335765Y0027415D01*
X0335710Y0027388D01*
X0335655Y0027365D01*
X0335598Y0027345D01*
X0335539Y0027329D01*
X0335480Y0027316D01*
X0335421Y0027307D01*
X0335360Y0027302D01*
X0335300Y0027300D01*
X0333800Y0027300D01*
X0336300Y0049800D02*
X0336300Y0102800D01*
X0096300Y0102800D01*
X0096300Y0079800D01*
X0096426Y0079798D01*
X0096551Y0079792D01*
X0096676Y0079782D01*
X0096801Y0079768D01*
X0096926Y0079751D01*
X0097050Y0079729D01*
X0097173Y0079704D01*
X0097295Y0079674D01*
X0097416Y0079641D01*
X0097536Y0079604D01*
X0097655Y0079564D01*
X0097772Y0079519D01*
X0097889Y0079471D01*
X0098003Y0079419D01*
X0098116Y0079364D01*
X0098227Y0079305D01*
X0098336Y0079243D01*
X0098443Y0079177D01*
X0098548Y0079108D01*
X0098651Y0079036D01*
X0098752Y0078961D01*
X0098850Y0078882D01*
X0098945Y0078800D01*
X0099038Y0078716D01*
X0099128Y0078628D01*
X0099216Y0078538D01*
X0099300Y0078445D01*
X0099382Y0078350D01*
X0099461Y0078252D01*
X0099536Y0078151D01*
X0099608Y0078048D01*
X0099677Y0077943D01*
X0099743Y0077836D01*
X0099805Y0077727D01*
X0099864Y0077616D01*
X0099919Y0077503D01*
X0099971Y0077389D01*
X0100019Y0077272D01*
X0100064Y0077155D01*
X0100104Y0077036D01*
X0100141Y0076916D01*
X0100174Y0076795D01*
X0100204Y0076673D01*
X0100229Y0076550D01*
X0100251Y0076426D01*
X0100268Y0076301D01*
X0100282Y0076176D01*
X0100292Y0076051D01*
X0100298Y0075926D01*
X0100300Y0075800D01*
X0100298Y0075674D01*
X0100292Y0075549D01*
X0100282Y0075424D01*
X0100268Y0075299D01*
X0100251Y0075174D01*
X0100229Y0075050D01*
X0100204Y0074927D01*
X0100174Y0074805D01*
X0100141Y0074684D01*
X0100104Y0074564D01*
X0100064Y0074445D01*
X0100019Y0074328D01*
X0099971Y0074211D01*
X0099919Y0074097D01*
X0099864Y0073984D01*
X0099805Y0073873D01*
X0099743Y0073764D01*
X0099677Y0073657D01*
X0099608Y0073552D01*
X0099536Y0073449D01*
X0099461Y0073348D01*
X0099382Y0073250D01*
X0099300Y0073155D01*
X0099216Y0073062D01*
X0099128Y0072972D01*
X0099038Y0072884D01*
X0098945Y0072800D01*
X0098850Y0072718D01*
X0098752Y0072639D01*
X0098651Y0072564D01*
X0098548Y0072492D01*
X0098443Y0072423D01*
X0098336Y0072357D01*
X0098227Y0072295D01*
X0098116Y0072236D01*
X0098003Y0072181D01*
X0097889Y0072129D01*
X0097772Y0072081D01*
X0097655Y0072036D01*
X0097536Y0071996D01*
X0097416Y0071959D01*
X0097295Y0071926D01*
X0097173Y0071896D01*
X0097050Y0071871D01*
X0096926Y0071849D01*
X0096801Y0071832D01*
X0096676Y0071818D01*
X0096551Y0071808D01*
X0096426Y0071802D01*
X0096300Y0071800D01*
X0096300Y0049800D01*
X0336300Y0049800D01*
X0306300Y0033300D02*
X0306300Y0029300D01*
X0306298Y0029213D01*
X0306292Y0029126D01*
X0306283Y0029039D01*
X0306270Y0028953D01*
X0306253Y0028867D01*
X0306232Y0028782D01*
X0306207Y0028699D01*
X0306179Y0028616D01*
X0306148Y0028535D01*
X0306113Y0028455D01*
X0306074Y0028377D01*
X0306032Y0028300D01*
X0305987Y0028225D01*
X0305938Y0028153D01*
X0305887Y0028082D01*
X0305832Y0028014D01*
X0305775Y0027949D01*
X0305714Y0027886D01*
X0305651Y0027825D01*
X0305586Y0027768D01*
X0305518Y0027713D01*
X0305447Y0027662D01*
X0305375Y0027613D01*
X0305300Y0027568D01*
X0305223Y0027526D01*
X0305145Y0027487D01*
X0305065Y0027452D01*
X0304984Y0027421D01*
X0304901Y0027393D01*
X0304818Y0027368D01*
X0304733Y0027347D01*
X0304647Y0027330D01*
X0304561Y0027317D01*
X0304474Y0027308D01*
X0304387Y0027302D01*
X0304300Y0027300D01*
X0198300Y0027300D01*
X0197800Y0027800D02*
X0197800Y0034800D01*
X0204800Y0034800D01*
X0204800Y0027800D01*
X0197800Y0027800D01*
X0198300Y0027300D02*
X0198213Y0027302D01*
X0198126Y0027308D01*
X0198039Y0027317D01*
X0197953Y0027330D01*
X0197867Y0027347D01*
X0197782Y0027368D01*
X0197699Y0027393D01*
X0197616Y0027421D01*
X0197535Y0027452D01*
X0197455Y0027487D01*
X0197377Y0027526D01*
X0197300Y0027568D01*
X0197225Y0027613D01*
X0197153Y0027662D01*
X0197082Y0027713D01*
X0197014Y0027768D01*
X0196949Y0027825D01*
X0196886Y0027886D01*
X0196825Y0027949D01*
X0196768Y0028014D01*
X0196713Y0028082D01*
X0196662Y0028153D01*
X0196613Y0028225D01*
X0196568Y0028300D01*
X0196526Y0028377D01*
X0196487Y0028455D01*
X0196452Y0028535D01*
X0196421Y0028616D01*
X0196393Y0028699D01*
X0196368Y0028782D01*
X0196347Y0028867D01*
X0196330Y0028953D01*
X0196317Y0029039D01*
X0196308Y0029126D01*
X0196302Y0029213D01*
X0196300Y0029300D01*
X0196300Y0033300D01*
X0196302Y0033387D01*
X0196308Y0033474D01*
X0196317Y0033561D01*
X0196330Y0033647D01*
X0196347Y0033733D01*
X0196368Y0033818D01*
X0196393Y0033901D01*
X0196421Y0033984D01*
X0196452Y0034065D01*
X0196487Y0034145D01*
X0196526Y0034223D01*
X0196568Y0034300D01*
X0196613Y0034375D01*
X0196662Y0034447D01*
X0196713Y0034518D01*
X0196768Y0034586D01*
X0196825Y0034651D01*
X0196886Y0034714D01*
X0196949Y0034775D01*
X0197014Y0034832D01*
X0197082Y0034887D01*
X0197153Y0034938D01*
X0197225Y0034987D01*
X0197300Y0035032D01*
X0197377Y0035074D01*
X0197455Y0035113D01*
X0197535Y0035148D01*
X0197616Y0035179D01*
X0197699Y0035207D01*
X0197782Y0035232D01*
X0197867Y0035253D01*
X0197953Y0035270D01*
X0198039Y0035283D01*
X0198126Y0035292D01*
X0198213Y0035298D01*
X0198300Y0035300D01*
X0304300Y0035300D01*
X0304387Y0035298D01*
X0304474Y0035292D01*
X0304561Y0035283D01*
X0304647Y0035270D01*
X0304733Y0035253D01*
X0304818Y0035232D01*
X0304901Y0035207D01*
X0304984Y0035179D01*
X0305065Y0035148D01*
X0305145Y0035113D01*
X0305223Y0035074D01*
X0305300Y0035032D01*
X0305375Y0034987D01*
X0305447Y0034938D01*
X0305518Y0034887D01*
X0305586Y0034832D01*
X0305651Y0034775D01*
X0305714Y0034714D01*
X0305775Y0034651D01*
X0305832Y0034586D01*
X0305887Y0034518D01*
X0305938Y0034447D01*
X0305987Y0034375D01*
X0306032Y0034300D01*
X0306074Y0034223D01*
X0306113Y0034145D01*
X0306148Y0034065D01*
X0306179Y0033984D01*
X0306207Y0033901D01*
X0306232Y0033818D01*
X0306253Y0033733D01*
X0306270Y0033647D01*
X0306283Y0033561D01*
X0306292Y0033474D01*
X0306298Y0033387D01*
X0306300Y0033300D01*
X0356300Y0031300D02*
X0356303Y0031545D01*
X0356312Y0031791D01*
X0356327Y0032036D01*
X0356348Y0032280D01*
X0356375Y0032524D01*
X0356408Y0032767D01*
X0356447Y0033010D01*
X0356492Y0033251D01*
X0356543Y0033491D01*
X0356600Y0033730D01*
X0356662Y0033967D01*
X0356731Y0034203D01*
X0356805Y0034437D01*
X0356885Y0034669D01*
X0356970Y0034899D01*
X0357061Y0035127D01*
X0357158Y0035352D01*
X0357260Y0035576D01*
X0357368Y0035796D01*
X0357481Y0036014D01*
X0357599Y0036229D01*
X0357723Y0036441D01*
X0357851Y0036650D01*
X0357985Y0036856D01*
X0358124Y0037058D01*
X0358268Y0037257D01*
X0358417Y0037452D01*
X0358570Y0037644D01*
X0358728Y0037832D01*
X0358890Y0038016D01*
X0359058Y0038195D01*
X0359229Y0038371D01*
X0359405Y0038542D01*
X0359584Y0038710D01*
X0359768Y0038872D01*
X0359956Y0039030D01*
X0360148Y0039183D01*
X0360343Y0039332D01*
X0360542Y0039476D01*
X0360744Y0039615D01*
X0360950Y0039749D01*
X0361159Y0039877D01*
X0361371Y0040001D01*
X0361586Y0040119D01*
X0361804Y0040232D01*
X0362024Y0040340D01*
X0362248Y0040442D01*
X0362473Y0040539D01*
X0362701Y0040630D01*
X0362931Y0040715D01*
X0363163Y0040795D01*
X0363397Y0040869D01*
X0363633Y0040938D01*
X0363870Y0041000D01*
X0364109Y0041057D01*
X0364349Y0041108D01*
X0364590Y0041153D01*
X0364833Y0041192D01*
X0365076Y0041225D01*
X0365320Y0041252D01*
X0365564Y0041273D01*
X0365809Y0041288D01*
X0366055Y0041297D01*
X0366300Y0041300D01*
X0366545Y0041297D01*
X0366791Y0041288D01*
X0367036Y0041273D01*
X0367280Y0041252D01*
X0367524Y0041225D01*
X0367767Y0041192D01*
X0368010Y0041153D01*
X0368251Y0041108D01*
X0368491Y0041057D01*
X0368730Y0041000D01*
X0368967Y0040938D01*
X0369203Y0040869D01*
X0369437Y0040795D01*
X0369669Y0040715D01*
X0369899Y0040630D01*
X0370127Y0040539D01*
X0370352Y0040442D01*
X0370576Y0040340D01*
X0370796Y0040232D01*
X0371014Y0040119D01*
X0371229Y0040001D01*
X0371441Y0039877D01*
X0371650Y0039749D01*
X0371856Y0039615D01*
X0372058Y0039476D01*
X0372257Y0039332D01*
X0372452Y0039183D01*
X0372644Y0039030D01*
X0372832Y0038872D01*
X0373016Y0038710D01*
X0373195Y0038542D01*
X0373371Y0038371D01*
X0373542Y0038195D01*
X0373710Y0038016D01*
X0373872Y0037832D01*
X0374030Y0037644D01*
X0374183Y0037452D01*
X0374332Y0037257D01*
X0374476Y0037058D01*
X0374615Y0036856D01*
X0374749Y0036650D01*
X0374877Y0036441D01*
X0375001Y0036229D01*
X0375119Y0036014D01*
X0375232Y0035796D01*
X0375340Y0035576D01*
X0375442Y0035352D01*
X0375539Y0035127D01*
X0375630Y0034899D01*
X0375715Y0034669D01*
X0375795Y0034437D01*
X0375869Y0034203D01*
X0375938Y0033967D01*
X0376000Y0033730D01*
X0376057Y0033491D01*
X0376108Y0033251D01*
X0376153Y0033010D01*
X0376192Y0032767D01*
X0376225Y0032524D01*
X0376252Y0032280D01*
X0376273Y0032036D01*
X0376288Y0031791D01*
X0376297Y0031545D01*
X0376300Y0031300D01*
X0376297Y0031055D01*
X0376288Y0030809D01*
X0376273Y0030564D01*
X0376252Y0030320D01*
X0376225Y0030076D01*
X0376192Y0029833D01*
X0376153Y0029590D01*
X0376108Y0029349D01*
X0376057Y0029109D01*
X0376000Y0028870D01*
X0375938Y0028633D01*
X0375869Y0028397D01*
X0375795Y0028163D01*
X0375715Y0027931D01*
X0375630Y0027701D01*
X0375539Y0027473D01*
X0375442Y0027248D01*
X0375340Y0027024D01*
X0375232Y0026804D01*
X0375119Y0026586D01*
X0375001Y0026371D01*
X0374877Y0026159D01*
X0374749Y0025950D01*
X0374615Y0025744D01*
X0374476Y0025542D01*
X0374332Y0025343D01*
X0374183Y0025148D01*
X0374030Y0024956D01*
X0373872Y0024768D01*
X0373710Y0024584D01*
X0373542Y0024405D01*
X0373371Y0024229D01*
X0373195Y0024058D01*
X0373016Y0023890D01*
X0372832Y0023728D01*
X0372644Y0023570D01*
X0372452Y0023417D01*
X0372257Y0023268D01*
X0372058Y0023124D01*
X0371856Y0022985D01*
X0371650Y0022851D01*
X0371441Y0022723D01*
X0371229Y0022599D01*
X0371014Y0022481D01*
X0370796Y0022368D01*
X0370576Y0022260D01*
X0370352Y0022158D01*
X0370127Y0022061D01*
X0369899Y0021970D01*
X0369669Y0021885D01*
X0369437Y0021805D01*
X0369203Y0021731D01*
X0368967Y0021662D01*
X0368730Y0021600D01*
X0368491Y0021543D01*
X0368251Y0021492D01*
X0368010Y0021447D01*
X0367767Y0021408D01*
X0367524Y0021375D01*
X0367280Y0021348D01*
X0367036Y0021327D01*
X0366791Y0021312D01*
X0366545Y0021303D01*
X0366300Y0021300D01*
X0366055Y0021303D01*
X0365809Y0021312D01*
X0365564Y0021327D01*
X0365320Y0021348D01*
X0365076Y0021375D01*
X0364833Y0021408D01*
X0364590Y0021447D01*
X0364349Y0021492D01*
X0364109Y0021543D01*
X0363870Y0021600D01*
X0363633Y0021662D01*
X0363397Y0021731D01*
X0363163Y0021805D01*
X0362931Y0021885D01*
X0362701Y0021970D01*
X0362473Y0022061D01*
X0362248Y0022158D01*
X0362024Y0022260D01*
X0361804Y0022368D01*
X0361586Y0022481D01*
X0361371Y0022599D01*
X0361159Y0022723D01*
X0360950Y0022851D01*
X0360744Y0022985D01*
X0360542Y0023124D01*
X0360343Y0023268D01*
X0360148Y0023417D01*
X0359956Y0023570D01*
X0359768Y0023728D01*
X0359584Y0023890D01*
X0359405Y0024058D01*
X0359229Y0024229D01*
X0359058Y0024405D01*
X0358890Y0024584D01*
X0358728Y0024768D01*
X0358570Y0024956D01*
X0358417Y0025148D01*
X0358268Y0025343D01*
X0358124Y0025542D01*
X0357985Y0025744D01*
X0357851Y0025950D01*
X0357723Y0026159D01*
X0357599Y0026371D01*
X0357481Y0026586D01*
X0357368Y0026804D01*
X0357260Y0027024D01*
X0357158Y0027248D01*
X0357061Y0027473D01*
X0356970Y0027701D01*
X0356885Y0027931D01*
X0356805Y0028163D01*
X0356731Y0028397D01*
X0356662Y0028633D01*
X0356600Y0028870D01*
X0356543Y0029109D01*
X0356492Y0029349D01*
X0356447Y0029590D01*
X0356408Y0029833D01*
X0356375Y0030076D01*
X0356348Y0030320D01*
X0356327Y0030564D01*
X0356312Y0030809D01*
X0356303Y0031055D01*
X0356300Y0031300D01*
X0386300Y0109300D02*
X0386300Y0112300D01*
X0387800Y0110800D02*
X0384800Y0110800D01*
X0372800Y0121300D02*
X0372804Y0121631D01*
X0372816Y0121962D01*
X0372837Y0122293D01*
X0372865Y0122623D01*
X0372902Y0122953D01*
X0372946Y0123281D01*
X0372999Y0123608D01*
X0373059Y0123934D01*
X0373128Y0124258D01*
X0373205Y0124580D01*
X0373289Y0124901D01*
X0373381Y0125219D01*
X0373481Y0125535D01*
X0373589Y0125848D01*
X0373705Y0126159D01*
X0373828Y0126466D01*
X0373958Y0126771D01*
X0374096Y0127072D01*
X0374241Y0127370D01*
X0374394Y0127664D01*
X0374554Y0127954D01*
X0374721Y0128240D01*
X0374894Y0128522D01*
X0375075Y0128800D01*
X0375263Y0129073D01*
X0375457Y0129342D01*
X0375657Y0129606D01*
X0375864Y0129864D01*
X0376078Y0130118D01*
X0376297Y0130366D01*
X0376523Y0130609D01*
X0376754Y0130846D01*
X0376991Y0131077D01*
X0377234Y0131303D01*
X0377482Y0131522D01*
X0377736Y0131736D01*
X0377994Y0131943D01*
X0378258Y0132143D01*
X0378527Y0132337D01*
X0378800Y0132525D01*
X0379078Y0132706D01*
X0379360Y0132879D01*
X0379646Y0133046D01*
X0379936Y0133206D01*
X0380230Y0133359D01*
X0380528Y0133504D01*
X0380829Y0133642D01*
X0381134Y0133772D01*
X0381441Y0133895D01*
X0381752Y0134011D01*
X0382065Y0134119D01*
X0382381Y0134219D01*
X0382699Y0134311D01*
X0383020Y0134395D01*
X0383342Y0134472D01*
X0383666Y0134541D01*
X0383992Y0134601D01*
X0384319Y0134654D01*
X0384647Y0134698D01*
X0384977Y0134735D01*
X0385307Y0134763D01*
X0385638Y0134784D01*
X0385969Y0134796D01*
X0386300Y0134800D01*
X0386631Y0134796D01*
X0386962Y0134784D01*
X0387293Y0134763D01*
X0387623Y0134735D01*
X0387953Y0134698D01*
X0388281Y0134654D01*
X0388608Y0134601D01*
X0388934Y0134541D01*
X0389258Y0134472D01*
X0389580Y0134395D01*
X0389901Y0134311D01*
X0390219Y0134219D01*
X0390535Y0134119D01*
X0390848Y0134011D01*
X0391159Y0133895D01*
X0391466Y0133772D01*
X0391771Y0133642D01*
X0392072Y0133504D01*
X0392370Y0133359D01*
X0392664Y0133206D01*
X0392954Y0133046D01*
X0393240Y0132879D01*
X0393522Y0132706D01*
X0393800Y0132525D01*
X0394073Y0132337D01*
X0394342Y0132143D01*
X0394606Y0131943D01*
X0394864Y0131736D01*
X0395118Y0131522D01*
X0395366Y0131303D01*
X0395609Y0131077D01*
X0395846Y0130846D01*
X0396077Y0130609D01*
X0396303Y0130366D01*
X0396522Y0130118D01*
X0396736Y0129864D01*
X0396943Y0129606D01*
X0397143Y0129342D01*
X0397337Y0129073D01*
X0397525Y0128800D01*
X0397706Y0128522D01*
X0397879Y0128240D01*
X0398046Y0127954D01*
X0398206Y0127664D01*
X0398359Y0127370D01*
X0398504Y0127072D01*
X0398642Y0126771D01*
X0398772Y0126466D01*
X0398895Y0126159D01*
X0399011Y0125848D01*
X0399119Y0125535D01*
X0399219Y0125219D01*
X0399311Y0124901D01*
X0399395Y0124580D01*
X0399472Y0124258D01*
X0399541Y0123934D01*
X0399601Y0123608D01*
X0399654Y0123281D01*
X0399698Y0122953D01*
X0399735Y0122623D01*
X0399763Y0122293D01*
X0399784Y0121962D01*
X0399796Y0121631D01*
X0399800Y0121300D01*
X0399796Y0120969D01*
X0399784Y0120638D01*
X0399763Y0120307D01*
X0399735Y0119977D01*
X0399698Y0119647D01*
X0399654Y0119319D01*
X0399601Y0118992D01*
X0399541Y0118666D01*
X0399472Y0118342D01*
X0399395Y0118020D01*
X0399311Y0117699D01*
X0399219Y0117381D01*
X0399119Y0117065D01*
X0399011Y0116752D01*
X0398895Y0116441D01*
X0398772Y0116134D01*
X0398642Y0115829D01*
X0398504Y0115528D01*
X0398359Y0115230D01*
X0398206Y0114936D01*
X0398046Y0114646D01*
X0397879Y0114360D01*
X0397706Y0114078D01*
X0397525Y0113800D01*
X0397337Y0113527D01*
X0397143Y0113258D01*
X0396943Y0112994D01*
X0396736Y0112736D01*
X0396522Y0112482D01*
X0396303Y0112234D01*
X0396077Y0111991D01*
X0395846Y0111754D01*
X0395609Y0111523D01*
X0395366Y0111297D01*
X0395118Y0111078D01*
X0394864Y0110864D01*
X0394606Y0110657D01*
X0394342Y0110457D01*
X0394073Y0110263D01*
X0393800Y0110075D01*
X0393522Y0109894D01*
X0393240Y0109721D01*
X0392954Y0109554D01*
X0392664Y0109394D01*
X0392370Y0109241D01*
X0392072Y0109096D01*
X0391771Y0108958D01*
X0391466Y0108828D01*
X0391159Y0108705D01*
X0390848Y0108589D01*
X0390535Y0108481D01*
X0390219Y0108381D01*
X0389901Y0108289D01*
X0389580Y0108205D01*
X0389258Y0108128D01*
X0388934Y0108059D01*
X0388608Y0107999D01*
X0388281Y0107946D01*
X0387953Y0107902D01*
X0387623Y0107865D01*
X0387293Y0107837D01*
X0386962Y0107816D01*
X0386631Y0107804D01*
X0386300Y0107800D01*
X0385969Y0107804D01*
X0385638Y0107816D01*
X0385307Y0107837D01*
X0384977Y0107865D01*
X0384647Y0107902D01*
X0384319Y0107946D01*
X0383992Y0107999D01*
X0383666Y0108059D01*
X0383342Y0108128D01*
X0383020Y0108205D01*
X0382699Y0108289D01*
X0382381Y0108381D01*
X0382065Y0108481D01*
X0381752Y0108589D01*
X0381441Y0108705D01*
X0381134Y0108828D01*
X0380829Y0108958D01*
X0380528Y0109096D01*
X0380230Y0109241D01*
X0379936Y0109394D01*
X0379646Y0109554D01*
X0379360Y0109721D01*
X0379078Y0109894D01*
X0378800Y0110075D01*
X0378527Y0110263D01*
X0378258Y0110457D01*
X0377994Y0110657D01*
X0377736Y0110864D01*
X0377482Y0111078D01*
X0377234Y0111297D01*
X0376991Y0111523D01*
X0376754Y0111754D01*
X0376523Y0111991D01*
X0376297Y0112234D01*
X0376078Y0112482D01*
X0375864Y0112736D01*
X0375657Y0112994D01*
X0375457Y0113258D01*
X0375263Y0113527D01*
X0375075Y0113800D01*
X0374894Y0114078D01*
X0374721Y0114360D01*
X0374554Y0114646D01*
X0374394Y0114936D01*
X0374241Y0115230D01*
X0374096Y0115528D01*
X0373958Y0115829D01*
X0373828Y0116134D01*
X0373705Y0116441D01*
X0373589Y0116752D01*
X0373481Y0117065D01*
X0373381Y0117381D01*
X0373289Y0117699D01*
X0373205Y0118020D01*
X0373128Y0118342D01*
X0373059Y0118666D01*
X0372999Y0118992D01*
X0372946Y0119319D01*
X0372902Y0119647D01*
X0372865Y0119977D01*
X0372837Y0120307D01*
X0372816Y0120638D01*
X0372804Y0120969D01*
X0372800Y0121300D01*
X0395300Y0165300D02*
X0277300Y0165300D01*
X0277300Y0173800D01*
X0277398Y0173802D01*
X0277496Y0173808D01*
X0277594Y0173817D01*
X0277691Y0173831D01*
X0277788Y0173848D01*
X0277884Y0173869D01*
X0277979Y0173894D01*
X0278073Y0173922D01*
X0278165Y0173955D01*
X0278257Y0173990D01*
X0278347Y0174030D01*
X0278435Y0174072D01*
X0278522Y0174119D01*
X0278606Y0174168D01*
X0278689Y0174221D01*
X0278769Y0174277D01*
X0278848Y0174337D01*
X0278924Y0174399D01*
X0278997Y0174464D01*
X0279068Y0174532D01*
X0279136Y0174603D01*
X0279201Y0174676D01*
X0279263Y0174752D01*
X0279323Y0174831D01*
X0279379Y0174911D01*
X0279432Y0174994D01*
X0279481Y0175078D01*
X0279528Y0175165D01*
X0279570Y0175253D01*
X0279610Y0175343D01*
X0279645Y0175435D01*
X0279678Y0175527D01*
X0279706Y0175621D01*
X0279731Y0175716D01*
X0279752Y0175812D01*
X0279769Y0175909D01*
X0279783Y0176006D01*
X0279792Y0176104D01*
X0279798Y0176202D01*
X0279800Y0176300D01*
X0279798Y0176398D01*
X0279792Y0176496D01*
X0279783Y0176594D01*
X0279769Y0176691D01*
X0279752Y0176788D01*
X0279731Y0176884D01*
X0279706Y0176979D01*
X0279678Y0177073D01*
X0279645Y0177165D01*
X0279610Y0177257D01*
X0279570Y0177347D01*
X0279528Y0177435D01*
X0279481Y0177522D01*
X0279432Y0177606D01*
X0279379Y0177689D01*
X0279323Y0177769D01*
X0279263Y0177848D01*
X0279201Y0177924D01*
X0279136Y0177997D01*
X0279068Y0178068D01*
X0278997Y0178136D01*
X0278924Y0178201D01*
X0278848Y0178263D01*
X0278769Y0178323D01*
X0278689Y0178379D01*
X0278606Y0178432D01*
X0278522Y0178481D01*
X0278435Y0178528D01*
X0278347Y0178570D01*
X0278257Y0178610D01*
X0278165Y0178645D01*
X0278073Y0178678D01*
X0277979Y0178706D01*
X0277884Y0178731D01*
X0277788Y0178752D01*
X0277691Y0178769D01*
X0277594Y0178783D01*
X0277496Y0178792D01*
X0277398Y0178798D01*
X0277300Y0178800D01*
X0277300Y0187300D01*
X0395300Y0187300D01*
X0395300Y0165300D01*
X0391300Y0214800D02*
X0391300Y0237800D01*
X0291300Y0237800D01*
X0291300Y0230300D01*
X0291300Y0227800D02*
X0291300Y0244800D01*
X0291298Y0244860D01*
X0291293Y0244921D01*
X0291284Y0244980D01*
X0291271Y0245039D01*
X0291255Y0245098D01*
X0291235Y0245155D01*
X0291212Y0245210D01*
X0291185Y0245265D01*
X0291156Y0245317D01*
X0291123Y0245368D01*
X0291087Y0245417D01*
X0291049Y0245463D01*
X0291007Y0245507D01*
X0290963Y0245549D01*
X0290917Y0245587D01*
X0290868Y0245623D01*
X0290817Y0245656D01*
X0290765Y0245685D01*
X0290710Y0245712D01*
X0290655Y0245735D01*
X0290598Y0245755D01*
X0290539Y0245771D01*
X0290480Y0245784D01*
X0290421Y0245793D01*
X0290360Y0245798D01*
X0290300Y0245800D01*
X0282300Y0245800D01*
X0282240Y0245798D01*
X0282179Y0245793D01*
X0282120Y0245784D01*
X0282061Y0245771D01*
X0282002Y0245755D01*
X0281945Y0245735D01*
X0281890Y0245712D01*
X0281835Y0245685D01*
X0281783Y0245656D01*
X0281732Y0245623D01*
X0281683Y0245587D01*
X0281637Y0245549D01*
X0281593Y0245507D01*
X0281551Y0245463D01*
X0281513Y0245417D01*
X0281477Y0245368D01*
X0281444Y0245317D01*
X0281415Y0245265D01*
X0281388Y0245210D01*
X0281365Y0245155D01*
X0281345Y0245098D01*
X0281329Y0245039D01*
X0281316Y0244980D01*
X0281307Y0244921D01*
X0281302Y0244860D01*
X0281300Y0244800D01*
X0281300Y0227800D01*
X0281302Y0227740D01*
X0281307Y0227679D01*
X0281316Y0227620D01*
X0281329Y0227561D01*
X0281345Y0227502D01*
X0281365Y0227445D01*
X0281388Y0227390D01*
X0281415Y0227335D01*
X0281444Y0227283D01*
X0281477Y0227232D01*
X0281513Y0227183D01*
X0281551Y0227137D01*
X0281593Y0227093D01*
X0281637Y0227051D01*
X0281683Y0227013D01*
X0281732Y0226977D01*
X0281783Y0226944D01*
X0281835Y0226915D01*
X0281890Y0226888D01*
X0281945Y0226865D01*
X0282002Y0226845D01*
X0282061Y0226829D01*
X0282120Y0226816D01*
X0282179Y0226807D01*
X0282240Y0226802D01*
X0282300Y0226800D01*
X0290300Y0226800D01*
X0290360Y0226802D01*
X0290421Y0226807D01*
X0290480Y0226816D01*
X0290539Y0226829D01*
X0290598Y0226845D01*
X0290655Y0226865D01*
X0290710Y0226888D01*
X0290765Y0226915D01*
X0290817Y0226944D01*
X0290868Y0226977D01*
X0290917Y0227013D01*
X0290963Y0227051D01*
X0291007Y0227093D01*
X0291049Y0227137D01*
X0291087Y0227183D01*
X0291123Y0227232D01*
X0291156Y0227283D01*
X0291185Y0227335D01*
X0291212Y0227390D01*
X0291235Y0227445D01*
X0291255Y0227502D01*
X0291271Y0227561D01*
X0291284Y0227620D01*
X0291293Y0227679D01*
X0291298Y0227740D01*
X0291300Y0227800D01*
X0291300Y0230300D02*
X0291426Y0230298D01*
X0291551Y0230292D01*
X0291676Y0230282D01*
X0291801Y0230268D01*
X0291926Y0230251D01*
X0292050Y0230229D01*
X0292173Y0230204D01*
X0292295Y0230174D01*
X0292416Y0230141D01*
X0292536Y0230104D01*
X0292655Y0230064D01*
X0292772Y0230019D01*
X0292889Y0229971D01*
X0293003Y0229919D01*
X0293116Y0229864D01*
X0293227Y0229805D01*
X0293336Y0229743D01*
X0293443Y0229677D01*
X0293548Y0229608D01*
X0293651Y0229536D01*
X0293752Y0229461D01*
X0293850Y0229382D01*
X0293945Y0229300D01*
X0294038Y0229216D01*
X0294128Y0229128D01*
X0294216Y0229038D01*
X0294300Y0228945D01*
X0294382Y0228850D01*
X0294461Y0228752D01*
X0294536Y0228651D01*
X0294608Y0228548D01*
X0294677Y0228443D01*
X0294743Y0228336D01*
X0294805Y0228227D01*
X0294864Y0228116D01*
X0294919Y0228003D01*
X0294971Y0227889D01*
X0295019Y0227772D01*
X0295064Y0227655D01*
X0295104Y0227536D01*
X0295141Y0227416D01*
X0295174Y0227295D01*
X0295204Y0227173D01*
X0295229Y0227050D01*
X0295251Y0226926D01*
X0295268Y0226801D01*
X0295282Y0226676D01*
X0295292Y0226551D01*
X0295298Y0226426D01*
X0295300Y0226300D01*
X0295298Y0226174D01*
X0295292Y0226049D01*
X0295282Y0225924D01*
X0295268Y0225799D01*
X0295251Y0225674D01*
X0295229Y0225550D01*
X0295204Y0225427D01*
X0295174Y0225305D01*
X0295141Y0225184D01*
X0295104Y0225064D01*
X0295064Y0224945D01*
X0295019Y0224828D01*
X0294971Y0224711D01*
X0294919Y0224597D01*
X0294864Y0224484D01*
X0294805Y0224373D01*
X0294743Y0224264D01*
X0294677Y0224157D01*
X0294608Y0224052D01*
X0294536Y0223949D01*
X0294461Y0223848D01*
X0294382Y0223750D01*
X0294300Y0223655D01*
X0294216Y0223562D01*
X0294128Y0223472D01*
X0294038Y0223384D01*
X0293945Y0223300D01*
X0293850Y0223218D01*
X0293752Y0223139D01*
X0293651Y0223064D01*
X0293548Y0222992D01*
X0293443Y0222923D01*
X0293336Y0222857D01*
X0293227Y0222795D01*
X0293116Y0222736D01*
X0293003Y0222681D01*
X0292889Y0222629D01*
X0292772Y0222581D01*
X0292655Y0222536D01*
X0292536Y0222496D01*
X0292416Y0222459D01*
X0292295Y0222426D01*
X0292173Y0222396D01*
X0292050Y0222371D01*
X0291926Y0222349D01*
X0291801Y0222332D01*
X0291676Y0222318D01*
X0291551Y0222308D01*
X0291426Y0222302D01*
X0291300Y0222300D01*
X0291300Y0214800D01*
X0391300Y0214800D01*
X0390300Y0285300D02*
X0272300Y0285300D01*
X0272300Y0293800D01*
X0272398Y0293802D01*
X0272496Y0293808D01*
X0272594Y0293817D01*
X0272691Y0293831D01*
X0272788Y0293848D01*
X0272884Y0293869D01*
X0272979Y0293894D01*
X0273073Y0293922D01*
X0273165Y0293955D01*
X0273257Y0293990D01*
X0273347Y0294030D01*
X0273435Y0294072D01*
X0273522Y0294119D01*
X0273606Y0294168D01*
X0273689Y0294221D01*
X0273769Y0294277D01*
X0273848Y0294337D01*
X0273924Y0294399D01*
X0273997Y0294464D01*
X0274068Y0294532D01*
X0274136Y0294603D01*
X0274201Y0294676D01*
X0274263Y0294752D01*
X0274323Y0294831D01*
X0274379Y0294911D01*
X0274432Y0294994D01*
X0274481Y0295078D01*
X0274528Y0295165D01*
X0274570Y0295253D01*
X0274610Y0295343D01*
X0274645Y0295435D01*
X0274678Y0295527D01*
X0274706Y0295621D01*
X0274731Y0295716D01*
X0274752Y0295812D01*
X0274769Y0295909D01*
X0274783Y0296006D01*
X0274792Y0296104D01*
X0274798Y0296202D01*
X0274800Y0296300D01*
X0274798Y0296398D01*
X0274792Y0296496D01*
X0274783Y0296594D01*
X0274769Y0296691D01*
X0274752Y0296788D01*
X0274731Y0296884D01*
X0274706Y0296979D01*
X0274678Y0297073D01*
X0274645Y0297165D01*
X0274610Y0297257D01*
X0274570Y0297347D01*
X0274528Y0297435D01*
X0274481Y0297522D01*
X0274432Y0297606D01*
X0274379Y0297689D01*
X0274323Y0297769D01*
X0274263Y0297848D01*
X0274201Y0297924D01*
X0274136Y0297997D01*
X0274068Y0298068D01*
X0273997Y0298136D01*
X0273924Y0298201D01*
X0273848Y0298263D01*
X0273769Y0298323D01*
X0273689Y0298379D01*
X0273606Y0298432D01*
X0273522Y0298481D01*
X0273435Y0298528D01*
X0273347Y0298570D01*
X0273257Y0298610D01*
X0273165Y0298645D01*
X0273073Y0298678D01*
X0272979Y0298706D01*
X0272884Y0298731D01*
X0272788Y0298752D01*
X0272691Y0298769D01*
X0272594Y0298783D01*
X0272496Y0298792D01*
X0272398Y0298798D01*
X0272300Y0298800D01*
X0272300Y0307300D01*
X0390300Y0307300D01*
X0390300Y0285300D01*
X0378800Y0331300D02*
X0373800Y0331300D01*
X0371300Y0333800D01*
X0368800Y0331300D01*
X0363800Y0331300D01*
X0361300Y0333800D01*
X0358800Y0331300D01*
X0353800Y0331300D01*
X0351300Y0333800D01*
X0348800Y0331300D01*
X0343800Y0331300D01*
X0341300Y0333800D01*
X0338800Y0331300D01*
X0333800Y0331300D01*
X0331300Y0333800D01*
X0328800Y0331300D01*
X0323800Y0331300D01*
X0321300Y0333800D01*
X0318800Y0331300D01*
X0313800Y0331300D01*
X0311300Y0333800D01*
X0308800Y0331300D01*
X0303800Y0331300D01*
X0301300Y0333800D01*
X0298800Y0331300D01*
X0293800Y0331300D01*
X0291300Y0333800D01*
X0288800Y0331300D01*
X0283800Y0331300D01*
X0281300Y0333800D01*
X0278800Y0331300D01*
X0273800Y0331300D01*
X0271300Y0333800D01*
X0268800Y0331300D01*
X0263800Y0331300D01*
X0261300Y0333800D01*
X0258800Y0331300D01*
X0253800Y0331300D01*
X0251300Y0333800D01*
X0248800Y0331300D01*
X0243800Y0331300D01*
X0241300Y0333800D01*
X0238800Y0331300D01*
X0233800Y0331300D01*
X0231300Y0333800D01*
X0228800Y0331300D01*
X0223800Y0331300D01*
X0221300Y0333800D01*
X0218800Y0331300D01*
X0213800Y0331300D01*
X0211300Y0333800D01*
X0208800Y0331300D01*
X0203800Y0331300D01*
X0201300Y0333800D01*
X0198800Y0331300D01*
X0193800Y0331300D01*
X0191300Y0333800D01*
X0188800Y0331300D01*
X0183800Y0331300D01*
X0181300Y0333800D01*
X0178800Y0331300D01*
X0173800Y0331300D01*
X0171300Y0333800D01*
X0168800Y0331300D01*
X0163800Y0331300D01*
X0161300Y0333800D01*
X0158800Y0331300D01*
X0153800Y0331300D01*
X0151300Y0333800D01*
X0148800Y0331300D01*
X0143800Y0331300D01*
X0141300Y0333800D01*
X0138800Y0331300D01*
X0133800Y0331300D01*
X0131300Y0333800D01*
X0128800Y0331300D01*
X0123800Y0331300D01*
X0121300Y0333800D01*
X0118800Y0331300D01*
X0113800Y0331300D01*
X0111300Y0333800D01*
X0108800Y0331300D01*
X0103800Y0331300D01*
X0101300Y0333800D01*
X0098800Y0331300D01*
X0093800Y0331300D01*
X0091300Y0333800D01*
X0088800Y0331300D01*
X0083800Y0331300D01*
X0081300Y0333800D01*
X0078800Y0331300D01*
X0073800Y0331300D01*
X0071300Y0333800D01*
X0068800Y0331300D01*
X0063800Y0331300D01*
X0061300Y0333800D01*
X0058800Y0331300D01*
X0053800Y0331300D01*
X0051300Y0333800D01*
X0048800Y0331300D01*
X0043800Y0331300D01*
X0041300Y0333800D01*
X0041300Y0348800D01*
X0043800Y0351300D01*
X0048800Y0351300D01*
X0051300Y0348800D01*
X0053800Y0351300D01*
X0058800Y0351300D01*
X0061300Y0348800D01*
X0063800Y0351300D01*
X0068800Y0351300D01*
X0071300Y0348800D01*
X0073800Y0351300D01*
X0078800Y0351300D01*
X0081300Y0348800D01*
X0083800Y0351300D01*
X0088800Y0351300D01*
X0091300Y0348800D01*
X0093800Y0351300D01*
X0098800Y0351300D01*
X0101300Y0348800D01*
X0103800Y0351300D01*
X0108800Y0351300D01*
X0111300Y0348800D01*
X0113800Y0351300D01*
X0118800Y0351300D01*
X0121300Y0348800D01*
X0123800Y0351300D01*
X0128800Y0351300D01*
X0131300Y0348800D01*
X0133800Y0351300D01*
X0138800Y0351300D01*
X0141300Y0348800D01*
X0143800Y0351300D01*
X0148800Y0351300D01*
X0151300Y0348800D01*
X0153800Y0351300D01*
X0158800Y0351300D01*
X0161300Y0348800D01*
X0163800Y0351300D01*
X0168800Y0351300D01*
X0171300Y0348800D01*
X0173800Y0351300D01*
X0178800Y0351300D01*
X0181300Y0348800D01*
X0183800Y0351300D01*
X0188800Y0351300D01*
X0191300Y0348800D01*
X0193800Y0351300D01*
X0198800Y0351300D01*
X0201300Y0348800D01*
X0203800Y0351300D01*
X0208800Y0351300D01*
X0211300Y0348800D01*
X0213800Y0351300D01*
X0218800Y0351300D01*
X0221300Y0348800D01*
X0223800Y0351300D01*
X0228800Y0351300D01*
X0231300Y0348800D01*
X0233800Y0351300D01*
X0238800Y0351300D01*
X0241300Y0348800D01*
X0243800Y0351300D01*
X0248800Y0351300D01*
X0251300Y0348800D01*
X0253800Y0351300D01*
X0258800Y0351300D01*
X0261300Y0348800D01*
X0263800Y0351300D01*
X0268800Y0351300D01*
X0271300Y0348800D01*
X0273800Y0351300D01*
X0278800Y0351300D01*
X0281300Y0348800D01*
X0283800Y0351300D01*
X0288800Y0351300D01*
X0291300Y0348800D01*
X0293800Y0351300D01*
X0298800Y0351300D01*
X0301300Y0348800D01*
X0303800Y0351300D01*
X0308800Y0351300D01*
X0311300Y0348800D01*
X0313800Y0351300D01*
X0318800Y0351300D01*
X0321300Y0348800D01*
X0323800Y0351300D01*
X0328800Y0351300D01*
X0331300Y0348800D01*
X0333800Y0351300D01*
X0338800Y0351300D01*
X0341300Y0348800D01*
X0343800Y0351300D01*
X0348800Y0351300D01*
X0351300Y0348800D01*
X0353800Y0351300D01*
X0358800Y0351300D01*
X0361300Y0348800D01*
X0363800Y0351300D01*
X0368800Y0351300D01*
X0371300Y0348800D01*
X0373800Y0351300D01*
X0378800Y0351300D01*
X0381300Y0348800D01*
X0381300Y0333800D01*
X0378800Y0331300D01*
X0286300Y0237800D02*
X0286300Y0237300D01*
X0286300Y0235300D02*
X0286300Y0234800D01*
X0270300Y0251300D02*
X0262300Y0251300D01*
X0261300Y0252300D01*
X0261300Y0260300D01*
X0262300Y0261300D01*
X0261300Y0262300D01*
X0261300Y0270300D01*
X0262300Y0271300D01*
X0270300Y0271300D01*
X0271300Y0270300D01*
X0271300Y0262300D01*
X0270300Y0261300D01*
X0271300Y0260300D01*
X0271300Y0252300D01*
X0270300Y0251300D01*
X0256300Y0252300D02*
X0255300Y0251300D01*
X0247300Y0251300D01*
X0246300Y0252300D01*
X0246300Y0260300D01*
X0247300Y0261300D01*
X0246300Y0262300D01*
X0246300Y0270300D01*
X0247300Y0271300D01*
X0255300Y0271300D01*
X0256300Y0270300D01*
X0256300Y0262300D01*
X0255300Y0261300D01*
X0256300Y0260300D01*
X0256300Y0252300D01*
X0241300Y0237800D02*
X0241300Y0214800D01*
X0141300Y0214800D01*
X0141300Y0222300D01*
X0141426Y0222302D01*
X0141551Y0222308D01*
X0141676Y0222318D01*
X0141801Y0222332D01*
X0141926Y0222349D01*
X0142050Y0222371D01*
X0142173Y0222396D01*
X0142295Y0222426D01*
X0142416Y0222459D01*
X0142536Y0222496D01*
X0142655Y0222536D01*
X0142772Y0222581D01*
X0142889Y0222629D01*
X0143003Y0222681D01*
X0143116Y0222736D01*
X0143227Y0222795D01*
X0143336Y0222857D01*
X0143443Y0222923D01*
X0143548Y0222992D01*
X0143651Y0223064D01*
X0143752Y0223139D01*
X0143850Y0223218D01*
X0143945Y0223300D01*
X0144038Y0223384D01*
X0144128Y0223472D01*
X0144216Y0223562D01*
X0144300Y0223655D01*
X0144382Y0223750D01*
X0144461Y0223848D01*
X0144536Y0223949D01*
X0144608Y0224052D01*
X0144677Y0224157D01*
X0144743Y0224264D01*
X0144805Y0224373D01*
X0144864Y0224484D01*
X0144919Y0224597D01*
X0144971Y0224711D01*
X0145019Y0224828D01*
X0145064Y0224945D01*
X0145104Y0225064D01*
X0145141Y0225184D01*
X0145174Y0225305D01*
X0145204Y0225427D01*
X0145229Y0225550D01*
X0145251Y0225674D01*
X0145268Y0225799D01*
X0145282Y0225924D01*
X0145292Y0226049D01*
X0145298Y0226174D01*
X0145300Y0226300D01*
X0145298Y0226426D01*
X0145292Y0226551D01*
X0145282Y0226676D01*
X0145268Y0226801D01*
X0145251Y0226926D01*
X0145229Y0227050D01*
X0145204Y0227173D01*
X0145174Y0227295D01*
X0145141Y0227416D01*
X0145104Y0227536D01*
X0145064Y0227655D01*
X0145019Y0227772D01*
X0144971Y0227889D01*
X0144919Y0228003D01*
X0144864Y0228116D01*
X0144805Y0228227D01*
X0144743Y0228336D01*
X0144677Y0228443D01*
X0144608Y0228548D01*
X0144536Y0228651D01*
X0144461Y0228752D01*
X0144382Y0228850D01*
X0144300Y0228945D01*
X0144216Y0229038D01*
X0144128Y0229128D01*
X0144038Y0229216D01*
X0143945Y0229300D01*
X0143850Y0229382D01*
X0143752Y0229461D01*
X0143651Y0229536D01*
X0143548Y0229608D01*
X0143443Y0229677D01*
X0143336Y0229743D01*
X0143227Y0229805D01*
X0143116Y0229864D01*
X0143003Y0229919D01*
X0142889Y0229971D01*
X0142772Y0230019D01*
X0142655Y0230064D01*
X0142536Y0230104D01*
X0142416Y0230141D01*
X0142295Y0230174D01*
X0142173Y0230204D01*
X0142050Y0230229D01*
X0141926Y0230251D01*
X0141801Y0230268D01*
X0141676Y0230282D01*
X0141551Y0230292D01*
X0141426Y0230298D01*
X0141300Y0230300D01*
X0141300Y0237800D01*
X0241300Y0237800D01*
X0267300Y0195800D02*
X0275300Y0195800D01*
X0275360Y0195798D01*
X0275421Y0195793D01*
X0275480Y0195784D01*
X0275539Y0195771D01*
X0275598Y0195755D01*
X0275655Y0195735D01*
X0275710Y0195712D01*
X0275765Y0195685D01*
X0275817Y0195656D01*
X0275868Y0195623D01*
X0275917Y0195587D01*
X0275963Y0195549D01*
X0276007Y0195507D01*
X0276049Y0195463D01*
X0276087Y0195417D01*
X0276123Y0195368D01*
X0276156Y0195317D01*
X0276185Y0195265D01*
X0276212Y0195210D01*
X0276235Y0195155D01*
X0276255Y0195098D01*
X0276271Y0195039D01*
X0276284Y0194980D01*
X0276293Y0194921D01*
X0276298Y0194860D01*
X0276300Y0194800D01*
X0276300Y0177800D01*
X0276298Y0177740D01*
X0276293Y0177679D01*
X0276284Y0177620D01*
X0276271Y0177561D01*
X0276255Y0177502D01*
X0276235Y0177445D01*
X0276212Y0177390D01*
X0276185Y0177335D01*
X0276156Y0177283D01*
X0276123Y0177232D01*
X0276087Y0177183D01*
X0276049Y0177137D01*
X0276007Y0177093D01*
X0275963Y0177051D01*
X0275917Y0177013D01*
X0275868Y0176977D01*
X0275817Y0176944D01*
X0275765Y0176915D01*
X0275710Y0176888D01*
X0275655Y0176865D01*
X0275598Y0176845D01*
X0275539Y0176829D01*
X0275480Y0176816D01*
X0275421Y0176807D01*
X0275360Y0176802D01*
X0275300Y0176800D01*
X0267300Y0176800D01*
X0267240Y0176802D01*
X0267179Y0176807D01*
X0267120Y0176816D01*
X0267061Y0176829D01*
X0267002Y0176845D01*
X0266945Y0176865D01*
X0266890Y0176888D01*
X0266835Y0176915D01*
X0266783Y0176944D01*
X0266732Y0176977D01*
X0266683Y0177013D01*
X0266637Y0177051D01*
X0266593Y0177093D01*
X0266551Y0177137D01*
X0266513Y0177183D01*
X0266477Y0177232D01*
X0266444Y0177283D01*
X0266415Y0177335D01*
X0266388Y0177390D01*
X0266365Y0177445D01*
X0266345Y0177502D01*
X0266329Y0177561D01*
X0266316Y0177620D01*
X0266307Y0177679D01*
X0266302Y0177740D01*
X0266300Y0177800D01*
X0266300Y0194800D01*
X0266302Y0194860D01*
X0266307Y0194921D01*
X0266316Y0194980D01*
X0266329Y0195039D01*
X0266345Y0195098D01*
X0266365Y0195155D01*
X0266388Y0195210D01*
X0266415Y0195265D01*
X0266444Y0195317D01*
X0266477Y0195368D01*
X0266513Y0195417D01*
X0266551Y0195463D01*
X0266593Y0195507D01*
X0266637Y0195549D01*
X0266683Y0195587D01*
X0266732Y0195623D01*
X0266783Y0195656D01*
X0266835Y0195685D01*
X0266890Y0195712D01*
X0266945Y0195735D01*
X0267002Y0195755D01*
X0267061Y0195771D01*
X0267120Y0195784D01*
X0267179Y0195793D01*
X0267240Y0195798D01*
X0267300Y0195800D01*
X0271300Y0187800D02*
X0271300Y0187300D01*
X0271300Y0185300D02*
X0271300Y0184800D01*
X0241300Y0187800D02*
X0241300Y0164800D01*
X0161300Y0164800D01*
X0161300Y0172300D01*
X0161426Y0172302D01*
X0161551Y0172308D01*
X0161676Y0172318D01*
X0161801Y0172332D01*
X0161926Y0172349D01*
X0162050Y0172371D01*
X0162173Y0172396D01*
X0162295Y0172426D01*
X0162416Y0172459D01*
X0162536Y0172496D01*
X0162655Y0172536D01*
X0162772Y0172581D01*
X0162889Y0172629D01*
X0163003Y0172681D01*
X0163116Y0172736D01*
X0163227Y0172795D01*
X0163336Y0172857D01*
X0163443Y0172923D01*
X0163548Y0172992D01*
X0163651Y0173064D01*
X0163752Y0173139D01*
X0163850Y0173218D01*
X0163945Y0173300D01*
X0164038Y0173384D01*
X0164128Y0173472D01*
X0164216Y0173562D01*
X0164300Y0173655D01*
X0164382Y0173750D01*
X0164461Y0173848D01*
X0164536Y0173949D01*
X0164608Y0174052D01*
X0164677Y0174157D01*
X0164743Y0174264D01*
X0164805Y0174373D01*
X0164864Y0174484D01*
X0164919Y0174597D01*
X0164971Y0174711D01*
X0165019Y0174828D01*
X0165064Y0174945D01*
X0165104Y0175064D01*
X0165141Y0175184D01*
X0165174Y0175305D01*
X0165204Y0175427D01*
X0165229Y0175550D01*
X0165251Y0175674D01*
X0165268Y0175799D01*
X0165282Y0175924D01*
X0165292Y0176049D01*
X0165298Y0176174D01*
X0165300Y0176300D01*
X0165298Y0176426D01*
X0165292Y0176551D01*
X0165282Y0176676D01*
X0165268Y0176801D01*
X0165251Y0176926D01*
X0165229Y0177050D01*
X0165204Y0177173D01*
X0165174Y0177295D01*
X0165141Y0177416D01*
X0165104Y0177536D01*
X0165064Y0177655D01*
X0165019Y0177772D01*
X0164971Y0177889D01*
X0164919Y0178003D01*
X0164864Y0178116D01*
X0164805Y0178227D01*
X0164743Y0178336D01*
X0164677Y0178443D01*
X0164608Y0178548D01*
X0164536Y0178651D01*
X0164461Y0178752D01*
X0164382Y0178850D01*
X0164300Y0178945D01*
X0164216Y0179038D01*
X0164128Y0179128D01*
X0164038Y0179216D01*
X0163945Y0179300D01*
X0163850Y0179382D01*
X0163752Y0179461D01*
X0163651Y0179536D01*
X0163548Y0179608D01*
X0163443Y0179677D01*
X0163336Y0179743D01*
X0163227Y0179805D01*
X0163116Y0179864D01*
X0163003Y0179919D01*
X0162889Y0179971D01*
X0162772Y0180019D01*
X0162655Y0180064D01*
X0162536Y0180104D01*
X0162416Y0180141D01*
X0162295Y0180174D01*
X0162173Y0180204D01*
X0162050Y0180229D01*
X0161926Y0180251D01*
X0161801Y0180268D01*
X0161676Y0180282D01*
X0161551Y0180292D01*
X0161426Y0180298D01*
X0161300Y0180300D01*
X0161300Y0187800D01*
X0241300Y0187800D01*
X0161300Y0194800D02*
X0161300Y0177800D01*
X0161298Y0177740D01*
X0161293Y0177679D01*
X0161284Y0177620D01*
X0161271Y0177561D01*
X0161255Y0177502D01*
X0161235Y0177445D01*
X0161212Y0177390D01*
X0161185Y0177335D01*
X0161156Y0177283D01*
X0161123Y0177232D01*
X0161087Y0177183D01*
X0161049Y0177137D01*
X0161007Y0177093D01*
X0160963Y0177051D01*
X0160917Y0177013D01*
X0160868Y0176977D01*
X0160817Y0176944D01*
X0160765Y0176915D01*
X0160710Y0176888D01*
X0160655Y0176865D01*
X0160598Y0176845D01*
X0160539Y0176829D01*
X0160480Y0176816D01*
X0160421Y0176807D01*
X0160360Y0176802D01*
X0160300Y0176800D01*
X0152300Y0176800D01*
X0152240Y0176802D01*
X0152179Y0176807D01*
X0152120Y0176816D01*
X0152061Y0176829D01*
X0152002Y0176845D01*
X0151945Y0176865D01*
X0151890Y0176888D01*
X0151835Y0176915D01*
X0151783Y0176944D01*
X0151732Y0176977D01*
X0151683Y0177013D01*
X0151637Y0177051D01*
X0151593Y0177093D01*
X0151551Y0177137D01*
X0151513Y0177183D01*
X0151477Y0177232D01*
X0151444Y0177283D01*
X0151415Y0177335D01*
X0151388Y0177390D01*
X0151365Y0177445D01*
X0151345Y0177502D01*
X0151329Y0177561D01*
X0151316Y0177620D01*
X0151307Y0177679D01*
X0151302Y0177740D01*
X0151300Y0177800D01*
X0151300Y0194800D01*
X0151302Y0194860D01*
X0151307Y0194921D01*
X0151316Y0194980D01*
X0151329Y0195039D01*
X0151345Y0195098D01*
X0151365Y0195155D01*
X0151388Y0195210D01*
X0151415Y0195265D01*
X0151444Y0195317D01*
X0151477Y0195368D01*
X0151513Y0195417D01*
X0151551Y0195463D01*
X0151593Y0195507D01*
X0151637Y0195549D01*
X0151683Y0195587D01*
X0151732Y0195623D01*
X0151783Y0195656D01*
X0151835Y0195685D01*
X0151890Y0195712D01*
X0151945Y0195735D01*
X0152002Y0195755D01*
X0152061Y0195771D01*
X0152120Y0195784D01*
X0152179Y0195793D01*
X0152240Y0195798D01*
X0152300Y0195800D01*
X0160300Y0195800D01*
X0160360Y0195798D01*
X0160421Y0195793D01*
X0160480Y0195784D01*
X0160539Y0195771D01*
X0160598Y0195755D01*
X0160655Y0195735D01*
X0160710Y0195712D01*
X0160765Y0195685D01*
X0160817Y0195656D01*
X0160868Y0195623D01*
X0160917Y0195587D01*
X0160963Y0195549D01*
X0161007Y0195507D01*
X0161049Y0195463D01*
X0161087Y0195417D01*
X0161123Y0195368D01*
X0161156Y0195317D01*
X0161185Y0195265D01*
X0161212Y0195210D01*
X0161235Y0195155D01*
X0161255Y0195098D01*
X0161271Y0195039D01*
X0161284Y0194980D01*
X0161293Y0194921D01*
X0161298Y0194860D01*
X0161300Y0194800D01*
X0156300Y0187800D02*
X0156300Y0187300D01*
X0156300Y0185300D02*
X0156300Y0184800D01*
X0136300Y0187800D02*
X0136300Y0164800D01*
X0066300Y0164800D01*
X0066300Y0172300D01*
X0066426Y0172302D01*
X0066551Y0172308D01*
X0066676Y0172318D01*
X0066801Y0172332D01*
X0066926Y0172349D01*
X0067050Y0172371D01*
X0067173Y0172396D01*
X0067295Y0172426D01*
X0067416Y0172459D01*
X0067536Y0172496D01*
X0067655Y0172536D01*
X0067772Y0172581D01*
X0067889Y0172629D01*
X0068003Y0172681D01*
X0068116Y0172736D01*
X0068227Y0172795D01*
X0068336Y0172857D01*
X0068443Y0172923D01*
X0068548Y0172992D01*
X0068651Y0173064D01*
X0068752Y0173139D01*
X0068850Y0173218D01*
X0068945Y0173300D01*
X0069038Y0173384D01*
X0069128Y0173472D01*
X0069216Y0173562D01*
X0069300Y0173655D01*
X0069382Y0173750D01*
X0069461Y0173848D01*
X0069536Y0173949D01*
X0069608Y0174052D01*
X0069677Y0174157D01*
X0069743Y0174264D01*
X0069805Y0174373D01*
X0069864Y0174484D01*
X0069919Y0174597D01*
X0069971Y0174711D01*
X0070019Y0174828D01*
X0070064Y0174945D01*
X0070104Y0175064D01*
X0070141Y0175184D01*
X0070174Y0175305D01*
X0070204Y0175427D01*
X0070229Y0175550D01*
X0070251Y0175674D01*
X0070268Y0175799D01*
X0070282Y0175924D01*
X0070292Y0176049D01*
X0070298Y0176174D01*
X0070300Y0176300D01*
X0070298Y0176426D01*
X0070292Y0176551D01*
X0070282Y0176676D01*
X0070268Y0176801D01*
X0070251Y0176926D01*
X0070229Y0177050D01*
X0070204Y0177173D01*
X0070174Y0177295D01*
X0070141Y0177416D01*
X0070104Y0177536D01*
X0070064Y0177655D01*
X0070019Y0177772D01*
X0069971Y0177889D01*
X0069919Y0178003D01*
X0069864Y0178116D01*
X0069805Y0178227D01*
X0069743Y0178336D01*
X0069677Y0178443D01*
X0069608Y0178548D01*
X0069536Y0178651D01*
X0069461Y0178752D01*
X0069382Y0178850D01*
X0069300Y0178945D01*
X0069216Y0179038D01*
X0069128Y0179128D01*
X0069038Y0179216D01*
X0068945Y0179300D01*
X0068850Y0179382D01*
X0068752Y0179461D01*
X0068651Y0179536D01*
X0068548Y0179608D01*
X0068443Y0179677D01*
X0068336Y0179743D01*
X0068227Y0179805D01*
X0068116Y0179864D01*
X0068003Y0179919D01*
X0067889Y0179971D01*
X0067772Y0180019D01*
X0067655Y0180064D01*
X0067536Y0180104D01*
X0067416Y0180141D01*
X0067295Y0180174D01*
X0067173Y0180204D01*
X0067050Y0180229D01*
X0066926Y0180251D01*
X0066801Y0180268D01*
X0066676Y0180282D01*
X0066551Y0180292D01*
X0066426Y0180298D01*
X0066300Y0180300D01*
X0066300Y0187800D01*
X0136300Y0187800D01*
X0126300Y0214800D02*
X0126300Y0237800D01*
X0026300Y0237800D01*
X0026300Y0230300D01*
X0026300Y0227800D02*
X0026300Y0244800D01*
X0026298Y0244860D01*
X0026293Y0244921D01*
X0026284Y0244980D01*
X0026271Y0245039D01*
X0026255Y0245098D01*
X0026235Y0245155D01*
X0026212Y0245210D01*
X0026185Y0245265D01*
X0026156Y0245317D01*
X0026123Y0245368D01*
X0026087Y0245417D01*
X0026049Y0245463D01*
X0026007Y0245507D01*
X0025963Y0245549D01*
X0025917Y0245587D01*
X0025868Y0245623D01*
X0025817Y0245656D01*
X0025765Y0245685D01*
X0025710Y0245712D01*
X0025655Y0245735D01*
X0025598Y0245755D01*
X0025539Y0245771D01*
X0025480Y0245784D01*
X0025421Y0245793D01*
X0025360Y0245798D01*
X0025300Y0245800D01*
X0017300Y0245800D01*
X0017240Y0245798D01*
X0017179Y0245793D01*
X0017120Y0245784D01*
X0017061Y0245771D01*
X0017002Y0245755D01*
X0016945Y0245735D01*
X0016890Y0245712D01*
X0016835Y0245685D01*
X0016783Y0245656D01*
X0016732Y0245623D01*
X0016683Y0245587D01*
X0016637Y0245549D01*
X0016593Y0245507D01*
X0016551Y0245463D01*
X0016513Y0245417D01*
X0016477Y0245368D01*
X0016444Y0245317D01*
X0016415Y0245265D01*
X0016388Y0245210D01*
X0016365Y0245155D01*
X0016345Y0245098D01*
X0016329Y0245039D01*
X0016316Y0244980D01*
X0016307Y0244921D01*
X0016302Y0244860D01*
X0016300Y0244800D01*
X0016300Y0227800D01*
X0016302Y0227740D01*
X0016307Y0227679D01*
X0016316Y0227620D01*
X0016329Y0227561D01*
X0016345Y0227502D01*
X0016365Y0227445D01*
X0016388Y0227390D01*
X0016415Y0227335D01*
X0016444Y0227283D01*
X0016477Y0227232D01*
X0016513Y0227183D01*
X0016551Y0227137D01*
X0016593Y0227093D01*
X0016637Y0227051D01*
X0016683Y0227013D01*
X0016732Y0226977D01*
X0016783Y0226944D01*
X0016835Y0226915D01*
X0016890Y0226888D01*
X0016945Y0226865D01*
X0017002Y0226845D01*
X0017061Y0226829D01*
X0017120Y0226816D01*
X0017179Y0226807D01*
X0017240Y0226802D01*
X0017300Y0226800D01*
X0025300Y0226800D01*
X0025360Y0226802D01*
X0025421Y0226807D01*
X0025480Y0226816D01*
X0025539Y0226829D01*
X0025598Y0226845D01*
X0025655Y0226865D01*
X0025710Y0226888D01*
X0025765Y0226915D01*
X0025817Y0226944D01*
X0025868Y0226977D01*
X0025917Y0227013D01*
X0025963Y0227051D01*
X0026007Y0227093D01*
X0026049Y0227137D01*
X0026087Y0227183D01*
X0026123Y0227232D01*
X0026156Y0227283D01*
X0026185Y0227335D01*
X0026212Y0227390D01*
X0026235Y0227445D01*
X0026255Y0227502D01*
X0026271Y0227561D01*
X0026284Y0227620D01*
X0026293Y0227679D01*
X0026298Y0227740D01*
X0026300Y0227800D01*
X0026300Y0230300D02*
X0026426Y0230298D01*
X0026551Y0230292D01*
X0026676Y0230282D01*
X0026801Y0230268D01*
X0026926Y0230251D01*
X0027050Y0230229D01*
X0027173Y0230204D01*
X0027295Y0230174D01*
X0027416Y0230141D01*
X0027536Y0230104D01*
X0027655Y0230064D01*
X0027772Y0230019D01*
X0027889Y0229971D01*
X0028003Y0229919D01*
X0028116Y0229864D01*
X0028227Y0229805D01*
X0028336Y0229743D01*
X0028443Y0229677D01*
X0028548Y0229608D01*
X0028651Y0229536D01*
X0028752Y0229461D01*
X0028850Y0229382D01*
X0028945Y0229300D01*
X0029038Y0229216D01*
X0029128Y0229128D01*
X0029216Y0229038D01*
X0029300Y0228945D01*
X0029382Y0228850D01*
X0029461Y0228752D01*
X0029536Y0228651D01*
X0029608Y0228548D01*
X0029677Y0228443D01*
X0029743Y0228336D01*
X0029805Y0228227D01*
X0029864Y0228116D01*
X0029919Y0228003D01*
X0029971Y0227889D01*
X0030019Y0227772D01*
X0030064Y0227655D01*
X0030104Y0227536D01*
X0030141Y0227416D01*
X0030174Y0227295D01*
X0030204Y0227173D01*
X0030229Y0227050D01*
X0030251Y0226926D01*
X0030268Y0226801D01*
X0030282Y0226676D01*
X0030292Y0226551D01*
X0030298Y0226426D01*
X0030300Y0226300D01*
X0030298Y0226174D01*
X0030292Y0226049D01*
X0030282Y0225924D01*
X0030268Y0225799D01*
X0030251Y0225674D01*
X0030229Y0225550D01*
X0030204Y0225427D01*
X0030174Y0225305D01*
X0030141Y0225184D01*
X0030104Y0225064D01*
X0030064Y0224945D01*
X0030019Y0224828D01*
X0029971Y0224711D01*
X0029919Y0224597D01*
X0029864Y0224484D01*
X0029805Y0224373D01*
X0029743Y0224264D01*
X0029677Y0224157D01*
X0029608Y0224052D01*
X0029536Y0223949D01*
X0029461Y0223848D01*
X0029382Y0223750D01*
X0029300Y0223655D01*
X0029216Y0223562D01*
X0029128Y0223472D01*
X0029038Y0223384D01*
X0028945Y0223300D01*
X0028850Y0223218D01*
X0028752Y0223139D01*
X0028651Y0223064D01*
X0028548Y0222992D01*
X0028443Y0222923D01*
X0028336Y0222857D01*
X0028227Y0222795D01*
X0028116Y0222736D01*
X0028003Y0222681D01*
X0027889Y0222629D01*
X0027772Y0222581D01*
X0027655Y0222536D01*
X0027536Y0222496D01*
X0027416Y0222459D01*
X0027295Y0222426D01*
X0027173Y0222396D01*
X0027050Y0222371D01*
X0026926Y0222349D01*
X0026801Y0222332D01*
X0026676Y0222318D01*
X0026551Y0222308D01*
X0026426Y0222302D01*
X0026300Y0222300D01*
X0026300Y0214800D01*
X0126300Y0214800D01*
X0132300Y0226800D02*
X0140300Y0226800D01*
X0140360Y0226802D01*
X0140421Y0226807D01*
X0140480Y0226816D01*
X0140539Y0226829D01*
X0140598Y0226845D01*
X0140655Y0226865D01*
X0140710Y0226888D01*
X0140765Y0226915D01*
X0140817Y0226944D01*
X0140868Y0226977D01*
X0140917Y0227013D01*
X0140963Y0227051D01*
X0141007Y0227093D01*
X0141049Y0227137D01*
X0141087Y0227183D01*
X0141123Y0227232D01*
X0141156Y0227283D01*
X0141185Y0227335D01*
X0141212Y0227390D01*
X0141235Y0227445D01*
X0141255Y0227502D01*
X0141271Y0227561D01*
X0141284Y0227620D01*
X0141293Y0227679D01*
X0141298Y0227740D01*
X0141300Y0227800D01*
X0141300Y0244800D01*
X0141298Y0244860D01*
X0141293Y0244921D01*
X0141284Y0244980D01*
X0141271Y0245039D01*
X0141255Y0245098D01*
X0141235Y0245155D01*
X0141212Y0245210D01*
X0141185Y0245265D01*
X0141156Y0245317D01*
X0141123Y0245368D01*
X0141087Y0245417D01*
X0141049Y0245463D01*
X0141007Y0245507D01*
X0140963Y0245549D01*
X0140917Y0245587D01*
X0140868Y0245623D01*
X0140817Y0245656D01*
X0140765Y0245685D01*
X0140710Y0245712D01*
X0140655Y0245735D01*
X0140598Y0245755D01*
X0140539Y0245771D01*
X0140480Y0245784D01*
X0140421Y0245793D01*
X0140360Y0245798D01*
X0140300Y0245800D01*
X0132300Y0245800D01*
X0132240Y0245798D01*
X0132179Y0245793D01*
X0132120Y0245784D01*
X0132061Y0245771D01*
X0132002Y0245755D01*
X0131945Y0245735D01*
X0131890Y0245712D01*
X0131835Y0245685D01*
X0131783Y0245656D01*
X0131732Y0245623D01*
X0131683Y0245587D01*
X0131637Y0245549D01*
X0131593Y0245507D01*
X0131551Y0245463D01*
X0131513Y0245417D01*
X0131477Y0245368D01*
X0131444Y0245317D01*
X0131415Y0245265D01*
X0131388Y0245210D01*
X0131365Y0245155D01*
X0131345Y0245098D01*
X0131329Y0245039D01*
X0131316Y0244980D01*
X0131307Y0244921D01*
X0131302Y0244860D01*
X0131300Y0244800D01*
X0131300Y0227800D01*
X0131302Y0227740D01*
X0131307Y0227679D01*
X0131316Y0227620D01*
X0131329Y0227561D01*
X0131345Y0227502D01*
X0131365Y0227445D01*
X0131388Y0227390D01*
X0131415Y0227335D01*
X0131444Y0227283D01*
X0131477Y0227232D01*
X0131513Y0227183D01*
X0131551Y0227137D01*
X0131593Y0227093D01*
X0131637Y0227051D01*
X0131683Y0227013D01*
X0131732Y0226977D01*
X0131783Y0226944D01*
X0131835Y0226915D01*
X0131890Y0226888D01*
X0131945Y0226865D01*
X0132002Y0226845D01*
X0132061Y0226829D01*
X0132120Y0226816D01*
X0132179Y0226807D01*
X0132240Y0226802D01*
X0132300Y0226800D01*
X0136300Y0234800D02*
X0136300Y0235300D01*
X0136300Y0237300D02*
X0136300Y0237800D01*
X0141300Y0279800D02*
X0141300Y0287300D01*
X0141426Y0287302D01*
X0141551Y0287308D01*
X0141676Y0287318D01*
X0141801Y0287332D01*
X0141926Y0287349D01*
X0142050Y0287371D01*
X0142173Y0287396D01*
X0142295Y0287426D01*
X0142416Y0287459D01*
X0142536Y0287496D01*
X0142655Y0287536D01*
X0142772Y0287581D01*
X0142889Y0287629D01*
X0143003Y0287681D01*
X0143116Y0287736D01*
X0143227Y0287795D01*
X0143336Y0287857D01*
X0143443Y0287923D01*
X0143548Y0287992D01*
X0143651Y0288064D01*
X0143752Y0288139D01*
X0143850Y0288218D01*
X0143945Y0288300D01*
X0144038Y0288384D01*
X0144128Y0288472D01*
X0144216Y0288562D01*
X0144300Y0288655D01*
X0144382Y0288750D01*
X0144461Y0288848D01*
X0144536Y0288949D01*
X0144608Y0289052D01*
X0144677Y0289157D01*
X0144743Y0289264D01*
X0144805Y0289373D01*
X0144864Y0289484D01*
X0144919Y0289597D01*
X0144971Y0289711D01*
X0145019Y0289828D01*
X0145064Y0289945D01*
X0145104Y0290064D01*
X0145141Y0290184D01*
X0145174Y0290305D01*
X0145204Y0290427D01*
X0145229Y0290550D01*
X0145251Y0290674D01*
X0145268Y0290799D01*
X0145282Y0290924D01*
X0145292Y0291049D01*
X0145298Y0291174D01*
X0145300Y0291300D01*
X0145298Y0291426D01*
X0145292Y0291551D01*
X0145282Y0291676D01*
X0145268Y0291801D01*
X0145251Y0291926D01*
X0145229Y0292050D01*
X0145204Y0292173D01*
X0145174Y0292295D01*
X0145141Y0292416D01*
X0145104Y0292536D01*
X0145064Y0292655D01*
X0145019Y0292772D01*
X0144971Y0292889D01*
X0144919Y0293003D01*
X0144864Y0293116D01*
X0144805Y0293227D01*
X0144743Y0293336D01*
X0144677Y0293443D01*
X0144608Y0293548D01*
X0144536Y0293651D01*
X0144461Y0293752D01*
X0144382Y0293850D01*
X0144300Y0293945D01*
X0144216Y0294038D01*
X0144128Y0294128D01*
X0144038Y0294216D01*
X0143945Y0294300D01*
X0143850Y0294382D01*
X0143752Y0294461D01*
X0143651Y0294536D01*
X0143548Y0294608D01*
X0143443Y0294677D01*
X0143336Y0294743D01*
X0143227Y0294805D01*
X0143116Y0294864D01*
X0143003Y0294919D01*
X0142889Y0294971D01*
X0142772Y0295019D01*
X0142655Y0295064D01*
X0142536Y0295104D01*
X0142416Y0295141D01*
X0142295Y0295174D01*
X0142173Y0295204D01*
X0142050Y0295229D01*
X0141926Y0295251D01*
X0141801Y0295268D01*
X0141676Y0295282D01*
X0141551Y0295292D01*
X0141426Y0295298D01*
X0141300Y0295300D01*
X0141300Y0302800D01*
X0241300Y0302800D01*
X0241300Y0279800D01*
X0141300Y0279800D01*
X0140300Y0291800D02*
X0132300Y0291800D01*
X0132240Y0291802D01*
X0132179Y0291807D01*
X0132120Y0291816D01*
X0132061Y0291829D01*
X0132002Y0291845D01*
X0131945Y0291865D01*
X0131890Y0291888D01*
X0131835Y0291915D01*
X0131783Y0291944D01*
X0131732Y0291977D01*
X0131683Y0292013D01*
X0131637Y0292051D01*
X0131593Y0292093D01*
X0131551Y0292137D01*
X0131513Y0292183D01*
X0131477Y0292232D01*
X0131444Y0292283D01*
X0131415Y0292335D01*
X0131388Y0292390D01*
X0131365Y0292445D01*
X0131345Y0292502D01*
X0131329Y0292561D01*
X0131316Y0292620D01*
X0131307Y0292679D01*
X0131302Y0292740D01*
X0131300Y0292800D01*
X0131300Y0309800D01*
X0131302Y0309860D01*
X0131307Y0309921D01*
X0131316Y0309980D01*
X0131329Y0310039D01*
X0131345Y0310098D01*
X0131365Y0310155D01*
X0131388Y0310210D01*
X0131415Y0310265D01*
X0131444Y0310317D01*
X0131477Y0310368D01*
X0131513Y0310417D01*
X0131551Y0310463D01*
X0131593Y0310507D01*
X0131637Y0310549D01*
X0131683Y0310587D01*
X0131732Y0310623D01*
X0131783Y0310656D01*
X0131835Y0310685D01*
X0131890Y0310712D01*
X0131945Y0310735D01*
X0132002Y0310755D01*
X0132061Y0310771D01*
X0132120Y0310784D01*
X0132179Y0310793D01*
X0132240Y0310798D01*
X0132300Y0310800D01*
X0140300Y0310800D01*
X0140360Y0310798D01*
X0140421Y0310793D01*
X0140480Y0310784D01*
X0140539Y0310771D01*
X0140598Y0310755D01*
X0140655Y0310735D01*
X0140710Y0310712D01*
X0140765Y0310685D01*
X0140817Y0310656D01*
X0140868Y0310623D01*
X0140917Y0310587D01*
X0140963Y0310549D01*
X0141007Y0310507D01*
X0141049Y0310463D01*
X0141087Y0310417D01*
X0141123Y0310368D01*
X0141156Y0310317D01*
X0141185Y0310265D01*
X0141212Y0310210D01*
X0141235Y0310155D01*
X0141255Y0310098D01*
X0141271Y0310039D01*
X0141284Y0309980D01*
X0141293Y0309921D01*
X0141298Y0309860D01*
X0141300Y0309800D01*
X0141300Y0292800D01*
X0141298Y0292740D01*
X0141293Y0292679D01*
X0141284Y0292620D01*
X0141271Y0292561D01*
X0141255Y0292502D01*
X0141235Y0292445D01*
X0141212Y0292390D01*
X0141185Y0292335D01*
X0141156Y0292283D01*
X0141123Y0292232D01*
X0141087Y0292183D01*
X0141049Y0292137D01*
X0141007Y0292093D01*
X0140963Y0292051D01*
X0140917Y0292013D01*
X0140868Y0291977D01*
X0140817Y0291944D01*
X0140765Y0291915D01*
X0140710Y0291888D01*
X0140655Y0291865D01*
X0140598Y0291845D01*
X0140539Y0291829D01*
X0140480Y0291816D01*
X0140421Y0291807D01*
X0140360Y0291802D01*
X0140300Y0291800D01*
X0136300Y0299800D02*
X0136300Y0300300D01*
X0136300Y0302300D02*
X0136300Y0302800D01*
X0126300Y0302800D02*
X0126300Y0279800D01*
X0026300Y0279800D01*
X0026300Y0287300D01*
X0026426Y0287302D01*
X0026551Y0287308D01*
X0026676Y0287318D01*
X0026801Y0287332D01*
X0026926Y0287349D01*
X0027050Y0287371D01*
X0027173Y0287396D01*
X0027295Y0287426D01*
X0027416Y0287459D01*
X0027536Y0287496D01*
X0027655Y0287536D01*
X0027772Y0287581D01*
X0027889Y0287629D01*
X0028003Y0287681D01*
X0028116Y0287736D01*
X0028227Y0287795D01*
X0028336Y0287857D01*
X0028443Y0287923D01*
X0028548Y0287992D01*
X0028651Y0288064D01*
X0028752Y0288139D01*
X0028850Y0288218D01*
X0028945Y0288300D01*
X0029038Y0288384D01*
X0029128Y0288472D01*
X0029216Y0288562D01*
X0029300Y0288655D01*
X0029382Y0288750D01*
X0029461Y0288848D01*
X0029536Y0288949D01*
X0029608Y0289052D01*
X0029677Y0289157D01*
X0029743Y0289264D01*
X0029805Y0289373D01*
X0029864Y0289484D01*
X0029919Y0289597D01*
X0029971Y0289711D01*
X0030019Y0289828D01*
X0030064Y0289945D01*
X0030104Y0290064D01*
X0030141Y0290184D01*
X0030174Y0290305D01*
X0030204Y0290427D01*
X0030229Y0290550D01*
X0030251Y0290674D01*
X0030268Y0290799D01*
X0030282Y0290924D01*
X0030292Y0291049D01*
X0030298Y0291174D01*
X0030300Y0291300D01*
X0030298Y0291426D01*
X0030292Y0291551D01*
X0030282Y0291676D01*
X0030268Y0291801D01*
X0030251Y0291926D01*
X0030229Y0292050D01*
X0030204Y0292173D01*
X0030174Y0292295D01*
X0030141Y0292416D01*
X0030104Y0292536D01*
X0030064Y0292655D01*
X0030019Y0292772D01*
X0029971Y0292889D01*
X0029919Y0293003D01*
X0029864Y0293116D01*
X0029805Y0293227D01*
X0029743Y0293336D01*
X0029677Y0293443D01*
X0029608Y0293548D01*
X0029536Y0293651D01*
X0029461Y0293752D01*
X0029382Y0293850D01*
X0029300Y0293945D01*
X0029216Y0294038D01*
X0029128Y0294128D01*
X0029038Y0294216D01*
X0028945Y0294300D01*
X0028850Y0294382D01*
X0028752Y0294461D01*
X0028651Y0294536D01*
X0028548Y0294608D01*
X0028443Y0294677D01*
X0028336Y0294743D01*
X0028227Y0294805D01*
X0028116Y0294864D01*
X0028003Y0294919D01*
X0027889Y0294971D01*
X0027772Y0295019D01*
X0027655Y0295064D01*
X0027536Y0295104D01*
X0027416Y0295141D01*
X0027295Y0295174D01*
X0027173Y0295204D01*
X0027050Y0295229D01*
X0026926Y0295251D01*
X0026801Y0295268D01*
X0026676Y0295282D01*
X0026551Y0295292D01*
X0026426Y0295298D01*
X0026300Y0295300D01*
X0026300Y0302800D01*
X0126300Y0302800D01*
X0026300Y0309800D02*
X0026300Y0292800D01*
X0026298Y0292740D01*
X0026293Y0292679D01*
X0026284Y0292620D01*
X0026271Y0292561D01*
X0026255Y0292502D01*
X0026235Y0292445D01*
X0026212Y0292390D01*
X0026185Y0292335D01*
X0026156Y0292283D01*
X0026123Y0292232D01*
X0026087Y0292183D01*
X0026049Y0292137D01*
X0026007Y0292093D01*
X0025963Y0292051D01*
X0025917Y0292013D01*
X0025868Y0291977D01*
X0025817Y0291944D01*
X0025765Y0291915D01*
X0025710Y0291888D01*
X0025655Y0291865D01*
X0025598Y0291845D01*
X0025539Y0291829D01*
X0025480Y0291816D01*
X0025421Y0291807D01*
X0025360Y0291802D01*
X0025300Y0291800D01*
X0017300Y0291800D01*
X0017240Y0291802D01*
X0017179Y0291807D01*
X0017120Y0291816D01*
X0017061Y0291829D01*
X0017002Y0291845D01*
X0016945Y0291865D01*
X0016890Y0291888D01*
X0016835Y0291915D01*
X0016783Y0291944D01*
X0016732Y0291977D01*
X0016683Y0292013D01*
X0016637Y0292051D01*
X0016593Y0292093D01*
X0016551Y0292137D01*
X0016513Y0292183D01*
X0016477Y0292232D01*
X0016444Y0292283D01*
X0016415Y0292335D01*
X0016388Y0292390D01*
X0016365Y0292445D01*
X0016345Y0292502D01*
X0016329Y0292561D01*
X0016316Y0292620D01*
X0016307Y0292679D01*
X0016302Y0292740D01*
X0016300Y0292800D01*
X0016300Y0309800D01*
X0016302Y0309860D01*
X0016307Y0309921D01*
X0016316Y0309980D01*
X0016329Y0310039D01*
X0016345Y0310098D01*
X0016365Y0310155D01*
X0016388Y0310210D01*
X0016415Y0310265D01*
X0016444Y0310317D01*
X0016477Y0310368D01*
X0016513Y0310417D01*
X0016551Y0310463D01*
X0016593Y0310507D01*
X0016637Y0310549D01*
X0016683Y0310587D01*
X0016732Y0310623D01*
X0016783Y0310656D01*
X0016835Y0310685D01*
X0016890Y0310712D01*
X0016945Y0310735D01*
X0017002Y0310755D01*
X0017061Y0310771D01*
X0017120Y0310784D01*
X0017179Y0310793D01*
X0017240Y0310798D01*
X0017300Y0310800D01*
X0025300Y0310800D01*
X0025360Y0310798D01*
X0025421Y0310793D01*
X0025480Y0310784D01*
X0025539Y0310771D01*
X0025598Y0310755D01*
X0025655Y0310735D01*
X0025710Y0310712D01*
X0025765Y0310685D01*
X0025817Y0310656D01*
X0025868Y0310623D01*
X0025917Y0310587D01*
X0025963Y0310549D01*
X0026007Y0310507D01*
X0026049Y0310463D01*
X0026087Y0310417D01*
X0026123Y0310368D01*
X0026156Y0310317D01*
X0026185Y0310265D01*
X0026212Y0310210D01*
X0026235Y0310155D01*
X0026255Y0310098D01*
X0026271Y0310039D01*
X0026284Y0309980D01*
X0026293Y0309921D01*
X0026298Y0309860D01*
X0026300Y0309800D01*
X0021300Y0302800D02*
X0021300Y0302300D01*
X0021300Y0300300D02*
X0021300Y0299800D01*
X0021300Y0237800D02*
X0021300Y0237300D01*
X0021300Y0235300D02*
X0021300Y0234800D01*
X0057300Y0195800D02*
X0065300Y0195800D01*
X0065360Y0195798D01*
X0065421Y0195793D01*
X0065480Y0195784D01*
X0065539Y0195771D01*
X0065598Y0195755D01*
X0065655Y0195735D01*
X0065710Y0195712D01*
X0065765Y0195685D01*
X0065817Y0195656D01*
X0065868Y0195623D01*
X0065917Y0195587D01*
X0065963Y0195549D01*
X0066007Y0195507D01*
X0066049Y0195463D01*
X0066087Y0195417D01*
X0066123Y0195368D01*
X0066156Y0195317D01*
X0066185Y0195265D01*
X0066212Y0195210D01*
X0066235Y0195155D01*
X0066255Y0195098D01*
X0066271Y0195039D01*
X0066284Y0194980D01*
X0066293Y0194921D01*
X0066298Y0194860D01*
X0066300Y0194800D01*
X0066300Y0177800D01*
X0066298Y0177740D01*
X0066293Y0177679D01*
X0066284Y0177620D01*
X0066271Y0177561D01*
X0066255Y0177502D01*
X0066235Y0177445D01*
X0066212Y0177390D01*
X0066185Y0177335D01*
X0066156Y0177283D01*
X0066123Y0177232D01*
X0066087Y0177183D01*
X0066049Y0177137D01*
X0066007Y0177093D01*
X0065963Y0177051D01*
X0065917Y0177013D01*
X0065868Y0176977D01*
X0065817Y0176944D01*
X0065765Y0176915D01*
X0065710Y0176888D01*
X0065655Y0176865D01*
X0065598Y0176845D01*
X0065539Y0176829D01*
X0065480Y0176816D01*
X0065421Y0176807D01*
X0065360Y0176802D01*
X0065300Y0176800D01*
X0057300Y0176800D01*
X0057240Y0176802D01*
X0057179Y0176807D01*
X0057120Y0176816D01*
X0057061Y0176829D01*
X0057002Y0176845D01*
X0056945Y0176865D01*
X0056890Y0176888D01*
X0056835Y0176915D01*
X0056783Y0176944D01*
X0056732Y0176977D01*
X0056683Y0177013D01*
X0056637Y0177051D01*
X0056593Y0177093D01*
X0056551Y0177137D01*
X0056513Y0177183D01*
X0056477Y0177232D01*
X0056444Y0177283D01*
X0056415Y0177335D01*
X0056388Y0177390D01*
X0056365Y0177445D01*
X0056345Y0177502D01*
X0056329Y0177561D01*
X0056316Y0177620D01*
X0056307Y0177679D01*
X0056302Y0177740D01*
X0056300Y0177800D01*
X0056300Y0194800D01*
X0056302Y0194860D01*
X0056307Y0194921D01*
X0056316Y0194980D01*
X0056329Y0195039D01*
X0056345Y0195098D01*
X0056365Y0195155D01*
X0056388Y0195210D01*
X0056415Y0195265D01*
X0056444Y0195317D01*
X0056477Y0195368D01*
X0056513Y0195417D01*
X0056551Y0195463D01*
X0056593Y0195507D01*
X0056637Y0195549D01*
X0056683Y0195587D01*
X0056732Y0195623D01*
X0056783Y0195656D01*
X0056835Y0195685D01*
X0056890Y0195712D01*
X0056945Y0195735D01*
X0057002Y0195755D01*
X0057061Y0195771D01*
X0057120Y0195784D01*
X0057179Y0195793D01*
X0057240Y0195798D01*
X0057300Y0195800D01*
X0061300Y0187800D02*
X0061300Y0187300D01*
X0061300Y0185300D02*
X0061300Y0184800D01*
X0054300Y0137800D02*
X0048300Y0137800D01*
X0048240Y0137798D01*
X0048179Y0137793D01*
X0048120Y0137784D01*
X0048061Y0137771D01*
X0048002Y0137755D01*
X0047945Y0137735D01*
X0047890Y0137712D01*
X0047835Y0137685D01*
X0047783Y0137656D01*
X0047732Y0137623D01*
X0047683Y0137587D01*
X0047637Y0137549D01*
X0047593Y0137507D01*
X0047551Y0137463D01*
X0047513Y0137417D01*
X0047477Y0137368D01*
X0047444Y0137317D01*
X0047415Y0137265D01*
X0047388Y0137210D01*
X0047365Y0137155D01*
X0047345Y0137098D01*
X0047329Y0137039D01*
X0047316Y0136980D01*
X0047307Y0136921D01*
X0047302Y0136860D01*
X0047300Y0136800D01*
X0047300Y0125800D01*
X0047302Y0125740D01*
X0047307Y0125679D01*
X0047316Y0125620D01*
X0047329Y0125561D01*
X0047345Y0125502D01*
X0047365Y0125445D01*
X0047388Y0125390D01*
X0047415Y0125335D01*
X0047444Y0125283D01*
X0047477Y0125232D01*
X0047513Y0125183D01*
X0047551Y0125137D01*
X0047593Y0125093D01*
X0047637Y0125051D01*
X0047683Y0125013D01*
X0047732Y0124977D01*
X0047783Y0124944D01*
X0047835Y0124915D01*
X0047890Y0124888D01*
X0047945Y0124865D01*
X0048002Y0124845D01*
X0048061Y0124829D01*
X0048120Y0124816D01*
X0048179Y0124807D01*
X0048240Y0124802D01*
X0048300Y0124800D01*
X0054300Y0124800D01*
X0054360Y0124802D01*
X0054421Y0124807D01*
X0054480Y0124816D01*
X0054539Y0124829D01*
X0054598Y0124845D01*
X0054655Y0124865D01*
X0054710Y0124888D01*
X0054765Y0124915D01*
X0054817Y0124944D01*
X0054868Y0124977D01*
X0054917Y0125013D01*
X0054963Y0125051D01*
X0055007Y0125093D01*
X0055049Y0125137D01*
X0055087Y0125183D01*
X0055123Y0125232D01*
X0055156Y0125283D01*
X0055185Y0125335D01*
X0055212Y0125390D01*
X0055235Y0125445D01*
X0055255Y0125502D01*
X0055271Y0125561D01*
X0055284Y0125620D01*
X0055293Y0125679D01*
X0055298Y0125740D01*
X0055300Y0125800D01*
X0055300Y0136800D01*
X0055298Y0136860D01*
X0055293Y0136921D01*
X0055284Y0136980D01*
X0055271Y0137039D01*
X0055255Y0137098D01*
X0055235Y0137155D01*
X0055212Y0137210D01*
X0055185Y0137265D01*
X0055156Y0137317D01*
X0055123Y0137368D01*
X0055087Y0137417D01*
X0055049Y0137463D01*
X0055007Y0137507D01*
X0054963Y0137549D01*
X0054917Y0137587D01*
X0054868Y0137623D01*
X0054817Y0137656D01*
X0054765Y0137685D01*
X0054710Y0137712D01*
X0054655Y0137735D01*
X0054598Y0137755D01*
X0054539Y0137771D01*
X0054480Y0137784D01*
X0054421Y0137793D01*
X0054360Y0137798D01*
X0054300Y0137800D01*
X0028800Y0106300D02*
X0023800Y0106300D01*
X0021300Y0103800D01*
X0021300Y0098800D01*
X0023800Y0096300D01*
X0021300Y0093800D01*
X0021300Y0088800D01*
X0023800Y0086300D01*
X0021300Y0083800D01*
X0021300Y0078800D01*
X0023800Y0076300D01*
X0028800Y0076300D01*
X0031300Y0078800D01*
X0031300Y0083800D01*
X0028800Y0086300D01*
X0031300Y0088800D01*
X0031300Y0093800D01*
X0028800Y0096300D01*
X0031300Y0098800D01*
X0031300Y0103800D01*
X0028800Y0106300D01*
X0040300Y0089800D02*
X0082300Y0089800D01*
X0082398Y0089798D01*
X0082496Y0089792D01*
X0082594Y0089783D01*
X0082691Y0089769D01*
X0082788Y0089752D01*
X0082884Y0089731D01*
X0082979Y0089706D01*
X0083073Y0089678D01*
X0083165Y0089645D01*
X0083257Y0089610D01*
X0083347Y0089570D01*
X0083435Y0089528D01*
X0083522Y0089481D01*
X0083606Y0089432D01*
X0083689Y0089379D01*
X0083769Y0089323D01*
X0083848Y0089263D01*
X0083924Y0089201D01*
X0083997Y0089136D01*
X0084068Y0089068D01*
X0084136Y0088997D01*
X0084201Y0088924D01*
X0084263Y0088848D01*
X0084323Y0088769D01*
X0084379Y0088689D01*
X0084432Y0088606D01*
X0084481Y0088522D01*
X0084528Y0088435D01*
X0084570Y0088347D01*
X0084610Y0088257D01*
X0084645Y0088165D01*
X0084678Y0088073D01*
X0084706Y0087979D01*
X0084731Y0087884D01*
X0084752Y0087788D01*
X0084769Y0087691D01*
X0084783Y0087594D01*
X0084792Y0087496D01*
X0084798Y0087398D01*
X0084800Y0087300D01*
X0084800Y0045300D01*
X0084798Y0045202D01*
X0084792Y0045104D01*
X0084783Y0045006D01*
X0084769Y0044909D01*
X0084752Y0044812D01*
X0084731Y0044716D01*
X0084706Y0044621D01*
X0084678Y0044527D01*
X0084645Y0044435D01*
X0084610Y0044343D01*
X0084570Y0044253D01*
X0084528Y0044165D01*
X0084481Y0044078D01*
X0084432Y0043994D01*
X0084379Y0043911D01*
X0084323Y0043831D01*
X0084263Y0043752D01*
X0084201Y0043676D01*
X0084136Y0043603D01*
X0084068Y0043532D01*
X0083997Y0043464D01*
X0083924Y0043399D01*
X0083848Y0043337D01*
X0083769Y0043277D01*
X0083689Y0043221D01*
X0083606Y0043168D01*
X0083522Y0043119D01*
X0083435Y0043072D01*
X0083347Y0043030D01*
X0083257Y0042990D01*
X0083165Y0042955D01*
X0083073Y0042922D01*
X0082979Y0042894D01*
X0082884Y0042869D01*
X0082788Y0042848D01*
X0082691Y0042831D01*
X0082594Y0042817D01*
X0082496Y0042808D01*
X0082398Y0042802D01*
X0082300Y0042800D01*
X0040300Y0042800D01*
X0040202Y0042802D01*
X0040104Y0042808D01*
X0040006Y0042817D01*
X0039909Y0042831D01*
X0039812Y0042848D01*
X0039716Y0042869D01*
X0039621Y0042894D01*
X0039527Y0042922D01*
X0039435Y0042955D01*
X0039343Y0042990D01*
X0039253Y0043030D01*
X0039165Y0043072D01*
X0039078Y0043119D01*
X0038994Y0043168D01*
X0038911Y0043221D01*
X0038831Y0043277D01*
X0038752Y0043337D01*
X0038676Y0043399D01*
X0038603Y0043464D01*
X0038532Y0043532D01*
X0038464Y0043603D01*
X0038399Y0043676D01*
X0038337Y0043752D01*
X0038277Y0043831D01*
X0038221Y0043911D01*
X0038168Y0043994D01*
X0038119Y0044078D01*
X0038072Y0044165D01*
X0038030Y0044253D01*
X0037990Y0044343D01*
X0037955Y0044435D01*
X0037922Y0044527D01*
X0037894Y0044621D01*
X0037869Y0044716D01*
X0037848Y0044812D01*
X0037831Y0044909D01*
X0037817Y0045006D01*
X0037808Y0045104D01*
X0037802Y0045202D01*
X0037800Y0045300D01*
X0037800Y0087300D01*
X0037802Y0087398D01*
X0037808Y0087496D01*
X0037817Y0087594D01*
X0037831Y0087691D01*
X0037848Y0087788D01*
X0037869Y0087884D01*
X0037894Y0087979D01*
X0037922Y0088073D01*
X0037955Y0088165D01*
X0037990Y0088257D01*
X0038030Y0088347D01*
X0038072Y0088435D01*
X0038119Y0088522D01*
X0038168Y0088606D01*
X0038221Y0088689D01*
X0038277Y0088769D01*
X0038337Y0088848D01*
X0038399Y0088924D01*
X0038464Y0088997D01*
X0038532Y0089068D01*
X0038603Y0089136D01*
X0038676Y0089201D01*
X0038752Y0089263D01*
X0038831Y0089323D01*
X0038911Y0089379D01*
X0038994Y0089432D01*
X0039078Y0089481D01*
X0039165Y0089528D01*
X0039253Y0089570D01*
X0039343Y0089610D01*
X0039435Y0089645D01*
X0039527Y0089678D01*
X0039621Y0089706D01*
X0039716Y0089731D01*
X0039812Y0089752D01*
X0039909Y0089769D01*
X0040006Y0089783D01*
X0040104Y0089792D01*
X0040202Y0089798D01*
X0040300Y0089800D01*
X0051300Y0081300D02*
X0057600Y0081300D01*
X0065000Y0081300D02*
X0071300Y0081300D01*
X0087595Y0065626D02*
X0094000Y0065626D01*
X0094000Y0063491D02*
X0094000Y0067761D01*
X0089730Y0063491D02*
X0087595Y0065626D01*
X0088662Y0061316D02*
X0087595Y0060248D01*
X0087595Y0058113D01*
X0088662Y0057045D01*
X0089730Y0057045D01*
X0090797Y0058113D01*
X0090797Y0060248D01*
X0091865Y0061316D01*
X0092932Y0061316D01*
X0094000Y0060248D01*
X0094000Y0058113D01*
X0092932Y0057045D01*
X0092932Y0054870D02*
X0087595Y0054870D01*
X0087595Y0050600D02*
X0092932Y0050600D01*
X0094000Y0051668D01*
X0094000Y0053803D01*
X0092932Y0054870D01*
X0095068Y0059181D02*
X0086527Y0059181D01*
X0136800Y0035300D02*
X0136800Y0027300D01*
X0136802Y0027240D01*
X0136807Y0027179D01*
X0136816Y0027120D01*
X0136829Y0027061D01*
X0136845Y0027002D01*
X0136865Y0026945D01*
X0136888Y0026890D01*
X0136915Y0026835D01*
X0136944Y0026783D01*
X0136977Y0026732D01*
X0137013Y0026683D01*
X0137051Y0026637D01*
X0137093Y0026593D01*
X0137137Y0026551D01*
X0137183Y0026513D01*
X0137232Y0026477D01*
X0137283Y0026444D01*
X0137335Y0026415D01*
X0137390Y0026388D01*
X0137445Y0026365D01*
X0137502Y0026345D01*
X0137561Y0026329D01*
X0137620Y0026316D01*
X0137679Y0026307D01*
X0137740Y0026302D01*
X0137800Y0026300D01*
X0164800Y0026300D01*
X0164860Y0026302D01*
X0164921Y0026307D01*
X0164980Y0026316D01*
X0165039Y0026329D01*
X0165098Y0026345D01*
X0165155Y0026365D01*
X0165210Y0026388D01*
X0165265Y0026415D01*
X0165317Y0026444D01*
X0165368Y0026477D01*
X0165417Y0026513D01*
X0165463Y0026551D01*
X0165507Y0026593D01*
X0165549Y0026637D01*
X0165587Y0026683D01*
X0165623Y0026732D01*
X0165656Y0026783D01*
X0165685Y0026835D01*
X0165712Y0026890D01*
X0165735Y0026945D01*
X0165755Y0027002D01*
X0165771Y0027061D01*
X0165784Y0027120D01*
X0165793Y0027179D01*
X0165798Y0027240D01*
X0165800Y0027300D01*
X0165800Y0035300D01*
X0165798Y0035360D01*
X0165793Y0035421D01*
X0165784Y0035480D01*
X0165771Y0035539D01*
X0165755Y0035598D01*
X0165735Y0035655D01*
X0165712Y0035710D01*
X0165685Y0035765D01*
X0165656Y0035817D01*
X0165623Y0035868D01*
X0165587Y0035917D01*
X0165549Y0035963D01*
X0165507Y0036007D01*
X0165463Y0036049D01*
X0165417Y0036087D01*
X0165368Y0036123D01*
X0165317Y0036156D01*
X0165265Y0036185D01*
X0165210Y0036212D01*
X0165155Y0036235D01*
X0165098Y0036255D01*
X0165039Y0036271D01*
X0164980Y0036284D01*
X0164921Y0036293D01*
X0164860Y0036298D01*
X0164800Y0036300D01*
X0137800Y0036300D01*
X0137740Y0036298D01*
X0137679Y0036293D01*
X0137620Y0036284D01*
X0137561Y0036271D01*
X0137502Y0036255D01*
X0137445Y0036235D01*
X0137390Y0036212D01*
X0137335Y0036185D01*
X0137283Y0036156D01*
X0137232Y0036123D01*
X0137183Y0036087D01*
X0137137Y0036049D01*
X0137093Y0036007D01*
X0137051Y0035963D01*
X0137013Y0035917D01*
X0136977Y0035868D01*
X0136944Y0035817D01*
X0136915Y0035765D01*
X0136888Y0035710D01*
X0136865Y0035655D01*
X0136845Y0035598D01*
X0136829Y0035539D01*
X0136816Y0035480D01*
X0136807Y0035421D01*
X0136802Y0035360D01*
X0136800Y0035300D01*
X0145300Y0031300D02*
X0150100Y0031300D01*
X0152600Y0031300D02*
X0157300Y0031300D01*
X0171800Y0027300D02*
X0171800Y0035300D01*
X0171802Y0035360D01*
X0171807Y0035421D01*
X0171816Y0035480D01*
X0171829Y0035539D01*
X0171845Y0035598D01*
X0171865Y0035655D01*
X0171888Y0035710D01*
X0171915Y0035765D01*
X0171944Y0035817D01*
X0171977Y0035868D01*
X0172013Y0035917D01*
X0172051Y0035963D01*
X0172093Y0036007D01*
X0172137Y0036049D01*
X0172183Y0036087D01*
X0172232Y0036123D01*
X0172283Y0036156D01*
X0172335Y0036185D01*
X0172390Y0036212D01*
X0172445Y0036235D01*
X0172502Y0036255D01*
X0172561Y0036271D01*
X0172620Y0036284D01*
X0172679Y0036293D01*
X0172740Y0036298D01*
X0172800Y0036300D01*
X0189800Y0036300D01*
X0189860Y0036298D01*
X0189921Y0036293D01*
X0189980Y0036284D01*
X0190039Y0036271D01*
X0190098Y0036255D01*
X0190155Y0036235D01*
X0190210Y0036212D01*
X0190265Y0036185D01*
X0190317Y0036156D01*
X0190368Y0036123D01*
X0190417Y0036087D01*
X0190463Y0036049D01*
X0190507Y0036007D01*
X0190549Y0035963D01*
X0190587Y0035917D01*
X0190623Y0035868D01*
X0190656Y0035817D01*
X0190685Y0035765D01*
X0190712Y0035710D01*
X0190735Y0035655D01*
X0190755Y0035598D01*
X0190771Y0035539D01*
X0190784Y0035480D01*
X0190793Y0035421D01*
X0190798Y0035360D01*
X0190800Y0035300D01*
X0190800Y0027300D01*
X0190798Y0027240D01*
X0190793Y0027179D01*
X0190784Y0027120D01*
X0190771Y0027061D01*
X0190755Y0027002D01*
X0190735Y0026945D01*
X0190712Y0026890D01*
X0190685Y0026835D01*
X0190656Y0026783D01*
X0190623Y0026732D01*
X0190587Y0026683D01*
X0190549Y0026637D01*
X0190507Y0026593D01*
X0190463Y0026551D01*
X0190417Y0026513D01*
X0190368Y0026477D01*
X0190317Y0026444D01*
X0190265Y0026415D01*
X0190210Y0026388D01*
X0190155Y0026365D01*
X0190098Y0026345D01*
X0190039Y0026329D01*
X0189980Y0026316D01*
X0189921Y0026307D01*
X0189860Y0026302D01*
X0189800Y0026300D01*
X0172800Y0026300D01*
X0172740Y0026302D01*
X0172679Y0026307D01*
X0172620Y0026316D01*
X0172561Y0026329D01*
X0172502Y0026345D01*
X0172445Y0026365D01*
X0172390Y0026388D01*
X0172335Y0026415D01*
X0172283Y0026444D01*
X0172232Y0026477D01*
X0172183Y0026513D01*
X0172137Y0026551D01*
X0172093Y0026593D01*
X0172051Y0026637D01*
X0172013Y0026683D01*
X0171977Y0026732D01*
X0171944Y0026783D01*
X0171915Y0026835D01*
X0171888Y0026890D01*
X0171865Y0026945D01*
X0171845Y0027002D01*
X0171829Y0027061D01*
X0171816Y0027120D01*
X0171807Y0027179D01*
X0171802Y0027240D01*
X0171800Y0027300D01*
X0179800Y0031300D02*
X0180300Y0031300D01*
X0182300Y0031300D02*
X0182800Y0031300D01*
X0031300Y0047800D02*
X0031300Y0064800D01*
X0031298Y0064860D01*
X0031293Y0064921D01*
X0031284Y0064980D01*
X0031271Y0065039D01*
X0031255Y0065098D01*
X0031235Y0065155D01*
X0031212Y0065210D01*
X0031185Y0065265D01*
X0031156Y0065317D01*
X0031123Y0065368D01*
X0031087Y0065417D01*
X0031049Y0065463D01*
X0031007Y0065507D01*
X0030963Y0065549D01*
X0030917Y0065587D01*
X0030868Y0065623D01*
X0030817Y0065656D01*
X0030765Y0065685D01*
X0030710Y0065712D01*
X0030655Y0065735D01*
X0030598Y0065755D01*
X0030539Y0065771D01*
X0030480Y0065784D01*
X0030421Y0065793D01*
X0030360Y0065798D01*
X0030300Y0065800D01*
X0022300Y0065800D01*
X0022240Y0065798D01*
X0022179Y0065793D01*
X0022120Y0065784D01*
X0022061Y0065771D01*
X0022002Y0065755D01*
X0021945Y0065735D01*
X0021890Y0065712D01*
X0021835Y0065685D01*
X0021783Y0065656D01*
X0021732Y0065623D01*
X0021683Y0065587D01*
X0021637Y0065549D01*
X0021593Y0065507D01*
X0021551Y0065463D01*
X0021513Y0065417D01*
X0021477Y0065368D01*
X0021444Y0065317D01*
X0021415Y0065265D01*
X0021388Y0065210D01*
X0021365Y0065155D01*
X0021345Y0065098D01*
X0021329Y0065039D01*
X0021316Y0064980D01*
X0021307Y0064921D01*
X0021302Y0064860D01*
X0021300Y0064800D01*
X0021300Y0047800D01*
X0021302Y0047740D01*
X0021307Y0047679D01*
X0021316Y0047620D01*
X0021329Y0047561D01*
X0021345Y0047502D01*
X0021365Y0047445D01*
X0021388Y0047390D01*
X0021415Y0047335D01*
X0021444Y0047283D01*
X0021477Y0047232D01*
X0021513Y0047183D01*
X0021551Y0047137D01*
X0021593Y0047093D01*
X0021637Y0047051D01*
X0021683Y0047013D01*
X0021732Y0046977D01*
X0021783Y0046944D01*
X0021835Y0046915D01*
X0021890Y0046888D01*
X0021945Y0046865D01*
X0022002Y0046845D01*
X0022061Y0046829D01*
X0022120Y0046816D01*
X0022179Y0046807D01*
X0022240Y0046802D01*
X0022300Y0046800D01*
X0030300Y0046800D01*
X0030360Y0046802D01*
X0030421Y0046807D01*
X0030480Y0046816D01*
X0030539Y0046829D01*
X0030598Y0046845D01*
X0030655Y0046865D01*
X0030710Y0046888D01*
X0030765Y0046915D01*
X0030817Y0046944D01*
X0030868Y0046977D01*
X0030917Y0047013D01*
X0030963Y0047051D01*
X0031007Y0047093D01*
X0031049Y0047137D01*
X0031087Y0047183D01*
X0031123Y0047232D01*
X0031156Y0047283D01*
X0031185Y0047335D01*
X0031212Y0047390D01*
X0031235Y0047445D01*
X0031255Y0047502D01*
X0031271Y0047561D01*
X0031284Y0047620D01*
X0031293Y0047679D01*
X0031298Y0047740D01*
X0031300Y0047800D01*
X0026300Y0054800D02*
X0026300Y0055300D01*
X0026300Y0057300D02*
X0026300Y0057800D01*
X0262300Y0296800D02*
X0270300Y0296800D01*
X0270360Y0296802D01*
X0270421Y0296807D01*
X0270480Y0296816D01*
X0270539Y0296829D01*
X0270598Y0296845D01*
X0270655Y0296865D01*
X0270710Y0296888D01*
X0270765Y0296915D01*
X0270817Y0296944D01*
X0270868Y0296977D01*
X0270917Y0297013D01*
X0270963Y0297051D01*
X0271007Y0297093D01*
X0271049Y0297137D01*
X0271087Y0297183D01*
X0271123Y0297232D01*
X0271156Y0297283D01*
X0271185Y0297335D01*
X0271212Y0297390D01*
X0271235Y0297445D01*
X0271255Y0297502D01*
X0271271Y0297561D01*
X0271284Y0297620D01*
X0271293Y0297679D01*
X0271298Y0297740D01*
X0271300Y0297800D01*
X0271300Y0314800D01*
X0271298Y0314860D01*
X0271293Y0314921D01*
X0271284Y0314980D01*
X0271271Y0315039D01*
X0271255Y0315098D01*
X0271235Y0315155D01*
X0271212Y0315210D01*
X0271185Y0315265D01*
X0271156Y0315317D01*
X0271123Y0315368D01*
X0271087Y0315417D01*
X0271049Y0315463D01*
X0271007Y0315507D01*
X0270963Y0315549D01*
X0270917Y0315587D01*
X0270868Y0315623D01*
X0270817Y0315656D01*
X0270765Y0315685D01*
X0270710Y0315712D01*
X0270655Y0315735D01*
X0270598Y0315755D01*
X0270539Y0315771D01*
X0270480Y0315784D01*
X0270421Y0315793D01*
X0270360Y0315798D01*
X0270300Y0315800D01*
X0262300Y0315800D01*
X0262240Y0315798D01*
X0262179Y0315793D01*
X0262120Y0315784D01*
X0262061Y0315771D01*
X0262002Y0315755D01*
X0261945Y0315735D01*
X0261890Y0315712D01*
X0261835Y0315685D01*
X0261783Y0315656D01*
X0261732Y0315623D01*
X0261683Y0315587D01*
X0261637Y0315549D01*
X0261593Y0315507D01*
X0261551Y0315463D01*
X0261513Y0315417D01*
X0261477Y0315368D01*
X0261444Y0315317D01*
X0261415Y0315265D01*
X0261388Y0315210D01*
X0261365Y0315155D01*
X0261345Y0315098D01*
X0261329Y0315039D01*
X0261316Y0314980D01*
X0261307Y0314921D01*
X0261302Y0314860D01*
X0261300Y0314800D01*
X0261300Y0297800D01*
X0261302Y0297740D01*
X0261307Y0297679D01*
X0261316Y0297620D01*
X0261329Y0297561D01*
X0261345Y0297502D01*
X0261365Y0297445D01*
X0261388Y0297390D01*
X0261415Y0297335D01*
X0261444Y0297283D01*
X0261477Y0297232D01*
X0261513Y0297183D01*
X0261551Y0297137D01*
X0261593Y0297093D01*
X0261637Y0297051D01*
X0261683Y0297013D01*
X0261732Y0296977D01*
X0261783Y0296944D01*
X0261835Y0296915D01*
X0261890Y0296888D01*
X0261945Y0296865D01*
X0262002Y0296845D01*
X0262061Y0296829D01*
X0262120Y0296816D01*
X0262179Y0296807D01*
X0262240Y0296802D01*
X0262300Y0296800D01*
X0266300Y0304800D02*
X0266300Y0305300D01*
X0266300Y0307300D02*
X0266300Y0307800D01*
D12*
X0267697Y0249554D02*
X0266946Y0248803D01*
X0267697Y0249554D02*
X0269198Y0249554D01*
X0269949Y0248803D01*
X0269949Y0248053D01*
X0266946Y0245050D01*
X0269949Y0245050D01*
X0265345Y0247302D02*
X0264594Y0246551D01*
X0262342Y0246551D01*
X0262342Y0245050D02*
X0262342Y0249554D01*
X0264594Y0249554D01*
X0265345Y0248803D01*
X0265345Y0247302D01*
X0260741Y0249554D02*
X0259239Y0249554D01*
X0259990Y0249554D02*
X0259990Y0245801D01*
X0259239Y0245050D01*
X0258489Y0245050D01*
X0257738Y0245801D01*
X0254949Y0245050D02*
X0251946Y0245050D01*
X0253447Y0245050D02*
X0253447Y0249554D01*
X0251946Y0248053D01*
X0250345Y0248803D02*
X0250345Y0247302D01*
X0249594Y0246551D01*
X0247342Y0246551D01*
X0247342Y0245050D02*
X0247342Y0249554D01*
X0249594Y0249554D01*
X0250345Y0248803D01*
X0245741Y0249554D02*
X0244239Y0249554D01*
X0244990Y0249554D02*
X0244990Y0245801D01*
X0244239Y0245050D01*
X0243489Y0245050D01*
X0242738Y0245801D01*
X0159550Y0174975D02*
X0159550Y0173474D01*
X0158799Y0172723D01*
X0157298Y0172723D02*
X0156547Y0174224D01*
X0156547Y0174975D01*
X0157298Y0175726D01*
X0158799Y0175726D01*
X0159550Y0174975D01*
X0157298Y0172723D02*
X0155046Y0172723D01*
X0155046Y0175726D01*
X0155797Y0171122D02*
X0155046Y0170371D01*
X0155046Y0168870D01*
X0155797Y0168119D01*
X0158799Y0168119D01*
X0159550Y0168870D01*
X0159550Y0170371D01*
X0158799Y0171122D01*
X0159550Y0166551D02*
X0159550Y0165050D01*
X0159550Y0165801D02*
X0155046Y0165801D01*
X0155046Y0166551D02*
X0155046Y0165050D01*
X0064550Y0165301D02*
X0060046Y0165301D01*
X0060046Y0166051D02*
X0060046Y0164550D01*
X0060797Y0167619D02*
X0063799Y0167619D01*
X0064550Y0168370D01*
X0064550Y0169871D01*
X0063799Y0170622D01*
X0063799Y0172223D02*
X0062298Y0172223D01*
X0062298Y0174475D01*
X0063049Y0175226D01*
X0063799Y0175226D01*
X0064550Y0174475D01*
X0064550Y0172974D01*
X0063799Y0172223D01*
X0062298Y0172223D02*
X0060797Y0173724D01*
X0060046Y0175226D01*
X0060797Y0170622D02*
X0060046Y0169871D01*
X0060046Y0168370D01*
X0060797Y0167619D01*
X0064550Y0166051D02*
X0064550Y0164550D01*
X0042200Y0156300D02*
X0042200Y0116300D01*
X0016200Y0116300D01*
X0016200Y0126300D01*
X0015300Y0126300D01*
X0015300Y0146300D01*
X0016200Y0146300D01*
X0016200Y0156300D01*
X0042200Y0156300D01*
X0046550Y0137260D02*
X0046550Y0134258D01*
X0046550Y0135759D02*
X0042046Y0135759D01*
X0043547Y0134258D01*
X0042046Y0132656D02*
X0042046Y0131155D01*
X0042046Y0131906D02*
X0045799Y0131906D01*
X0046550Y0131155D01*
X0046550Y0130405D01*
X0045799Y0129654D01*
X0045799Y0128053D02*
X0046550Y0127302D01*
X0046550Y0125801D01*
X0045799Y0125050D01*
X0044298Y0125801D02*
X0044298Y0127302D01*
X0045049Y0128053D01*
X0045799Y0128053D01*
X0044298Y0125801D02*
X0043547Y0125050D01*
X0042797Y0125050D01*
X0042046Y0125801D01*
X0042046Y0127302D01*
X0042797Y0128053D01*
X0028550Y0109949D02*
X0028550Y0106946D01*
X0028550Y0108447D02*
X0024046Y0108447D01*
X0025547Y0106946D01*
X0033046Y0103447D02*
X0037550Y0103447D01*
X0037550Y0101946D02*
X0037550Y0104949D01*
X0034547Y0101946D02*
X0033046Y0103447D01*
X0033046Y0100345D02*
X0036049Y0100345D01*
X0037550Y0098843D01*
X0036049Y0097342D01*
X0033046Y0097342D01*
X0033797Y0095741D02*
X0033046Y0094990D01*
X0033046Y0093489D01*
X0033797Y0092738D01*
X0034547Y0092738D01*
X0035298Y0093489D01*
X0035298Y0094990D01*
X0036049Y0095741D01*
X0036799Y0095741D01*
X0037550Y0094990D01*
X0037550Y0093489D01*
X0036799Y0092738D01*
X0041550Y0095201D02*
X0042301Y0094450D01*
X0043802Y0094450D01*
X0044553Y0095201D01*
X0044553Y0098203D01*
X0043802Y0098954D01*
X0042301Y0098954D01*
X0041550Y0098203D01*
X0041550Y0095201D01*
X0043051Y0095951D02*
X0044553Y0094450D01*
X0046154Y0095201D02*
X0046154Y0098203D01*
X0046905Y0098954D01*
X0048406Y0098954D01*
X0049156Y0098203D01*
X0049156Y0096702D02*
X0047655Y0096702D01*
X0049156Y0096702D02*
X0049156Y0095201D01*
X0048406Y0094450D01*
X0046905Y0094450D01*
X0046154Y0095201D01*
X0050758Y0094450D02*
X0053760Y0094450D01*
X0052259Y0094450D02*
X0052259Y0098954D01*
X0050758Y0097453D01*
X0016200Y0126300D02*
X0016200Y0146300D01*
X0052051Y0048554D02*
X0052051Y0044050D01*
X0050550Y0044050D02*
X0053553Y0044050D01*
X0050550Y0047053D02*
X0052051Y0048554D01*
X0123050Y0036803D02*
X0123050Y0033801D01*
X0123801Y0033050D01*
X0125302Y0033050D01*
X0126053Y0033801D01*
X0127654Y0033050D02*
X0130656Y0033050D01*
X0129155Y0033050D02*
X0129155Y0037554D01*
X0127654Y0036053D01*
X0126053Y0036803D02*
X0125302Y0037554D01*
X0123801Y0037554D01*
X0123050Y0036803D01*
X0132258Y0036803D02*
X0133008Y0037554D01*
X0134510Y0037554D01*
X0135260Y0036803D01*
X0135260Y0036053D01*
X0134510Y0035302D01*
X0135260Y0034551D01*
X0135260Y0033801D01*
X0134510Y0033050D01*
X0133008Y0033050D01*
X0132258Y0033801D01*
X0133759Y0035302D02*
X0134510Y0035302D01*
X0192550Y0031819D02*
X0193684Y0032953D01*
X0193684Y0029550D01*
X0192550Y0029550D02*
X0194819Y0029550D01*
X0196550Y0026054D02*
X0198802Y0026054D01*
X0199553Y0025303D01*
X0199553Y0023802D01*
X0198802Y0023051D01*
X0196550Y0023051D01*
X0196550Y0021550D02*
X0196550Y0026054D01*
X0198051Y0023051D02*
X0199553Y0021550D01*
X0201154Y0021550D02*
X0201154Y0026054D01*
X0204156Y0021550D01*
X0204156Y0026054D01*
X0205758Y0025303D02*
X0206508Y0026054D01*
X0208010Y0026054D01*
X0208760Y0025303D01*
X0208760Y0024553D01*
X0208010Y0023802D01*
X0208760Y0023051D01*
X0208760Y0022301D01*
X0208010Y0021550D01*
X0206508Y0021550D01*
X0205758Y0022301D01*
X0207259Y0023802D02*
X0208010Y0023802D01*
X0335634Y0024450D02*
X0338637Y0024450D01*
X0340238Y0024450D02*
X0343241Y0024450D01*
X0344842Y0024450D02*
X0347094Y0024450D01*
X0347845Y0025201D01*
X0347845Y0028203D01*
X0347094Y0028954D01*
X0344842Y0028954D01*
X0344842Y0024450D01*
X0341739Y0026702D02*
X0340238Y0026702D01*
X0340238Y0028954D02*
X0340238Y0024450D01*
X0340238Y0028954D02*
X0343241Y0028954D01*
X0349446Y0027453D02*
X0350947Y0028954D01*
X0350947Y0024450D01*
X0349446Y0024450D02*
X0352449Y0024450D01*
X0335634Y0024450D02*
X0335634Y0028954D01*
X0374297Y0133550D02*
X0377299Y0133550D01*
X0378050Y0134301D01*
X0378050Y0135802D01*
X0377299Y0136553D01*
X0378050Y0138154D02*
X0378050Y0141156D01*
X0378050Y0139655D02*
X0373546Y0139655D01*
X0375047Y0138154D01*
X0374297Y0136553D02*
X0373546Y0135802D01*
X0373546Y0134301D01*
X0374297Y0133550D01*
X0374297Y0142758D02*
X0373546Y0143508D01*
X0373546Y0145010D01*
X0374297Y0145760D01*
X0375047Y0145760D01*
X0378050Y0142758D01*
X0378050Y0145760D01*
X0053760Y0353801D02*
X0053760Y0354551D01*
X0053010Y0355302D01*
X0050758Y0355302D01*
X0050758Y0353801D01*
X0051508Y0353050D01*
X0053010Y0353050D01*
X0053760Y0353801D01*
X0052259Y0356803D02*
X0050758Y0355302D01*
X0049156Y0354551D02*
X0049156Y0353801D01*
X0048406Y0353050D01*
X0046905Y0353050D01*
X0046154Y0353801D01*
X0044553Y0353801D02*
X0044553Y0357554D01*
X0046154Y0356803D02*
X0046905Y0357554D01*
X0048406Y0357554D01*
X0049156Y0356803D01*
X0048406Y0355302D02*
X0046905Y0355302D01*
X0046154Y0356053D01*
X0046154Y0356803D01*
X0047655Y0358304D02*
X0047655Y0352299D01*
X0049156Y0354551D02*
X0048406Y0355302D01*
X0052259Y0356803D02*
X0053760Y0357554D01*
X0044553Y0353801D02*
X0043802Y0353050D01*
X0042301Y0353050D01*
X0041550Y0353801D01*
X0041550Y0357554D01*
D13*
X0035300Y0087300D02*
X0035300Y0040300D01*
X0082300Y0040300D01*
X0082440Y0040302D01*
X0082580Y0040308D01*
X0082720Y0040318D01*
X0082860Y0040331D01*
X0082999Y0040349D01*
X0083138Y0040371D01*
X0083275Y0040396D01*
X0083413Y0040425D01*
X0083549Y0040458D01*
X0083684Y0040495D01*
X0083818Y0040536D01*
X0083951Y0040581D01*
X0084083Y0040629D01*
X0084213Y0040681D01*
X0084342Y0040736D01*
X0084469Y0040795D01*
X0084595Y0040858D01*
X0084719Y0040924D01*
X0084840Y0040993D01*
X0084960Y0041066D01*
X0085078Y0041143D01*
X0085193Y0041222D01*
X0085307Y0041305D01*
X0085417Y0041391D01*
X0085526Y0041480D01*
X0085632Y0041572D01*
X0085735Y0041667D01*
X0085836Y0041764D01*
X0085933Y0041865D01*
X0086028Y0041968D01*
X0086120Y0042074D01*
X0086209Y0042183D01*
X0086295Y0042293D01*
X0086378Y0042407D01*
X0086457Y0042522D01*
X0086534Y0042640D01*
X0086607Y0042760D01*
X0086676Y0042881D01*
X0086742Y0043005D01*
X0086805Y0043131D01*
X0086864Y0043258D01*
X0086919Y0043387D01*
X0086971Y0043517D01*
X0087019Y0043649D01*
X0087064Y0043782D01*
X0087105Y0043916D01*
X0087142Y0044051D01*
X0087175Y0044187D01*
X0087204Y0044325D01*
X0087229Y0044462D01*
X0087251Y0044601D01*
X0087269Y0044740D01*
X0087282Y0044880D01*
X0087292Y0045020D01*
X0087298Y0045160D01*
X0087300Y0045300D01*
X0087300Y0087300D01*
X0087298Y0087440D01*
X0087292Y0087580D01*
X0087282Y0087720D01*
X0087269Y0087860D01*
X0087251Y0087999D01*
X0087229Y0088138D01*
X0087204Y0088275D01*
X0087175Y0088413D01*
X0087142Y0088549D01*
X0087105Y0088684D01*
X0087064Y0088818D01*
X0087019Y0088951D01*
X0086971Y0089083D01*
X0086919Y0089213D01*
X0086864Y0089342D01*
X0086805Y0089469D01*
X0086742Y0089595D01*
X0086676Y0089719D01*
X0086607Y0089840D01*
X0086534Y0089960D01*
X0086457Y0090078D01*
X0086378Y0090193D01*
X0086295Y0090307D01*
X0086209Y0090417D01*
X0086120Y0090526D01*
X0086028Y0090632D01*
X0085933Y0090735D01*
X0085836Y0090836D01*
X0085735Y0090933D01*
X0085632Y0091028D01*
X0085526Y0091120D01*
X0085417Y0091209D01*
X0085307Y0091295D01*
X0085193Y0091378D01*
X0085078Y0091457D01*
X0084960Y0091534D01*
X0084840Y0091607D01*
X0084719Y0091676D01*
X0084595Y0091742D01*
X0084469Y0091805D01*
X0084342Y0091864D01*
X0084213Y0091919D01*
X0084083Y0091971D01*
X0083951Y0092019D01*
X0083818Y0092064D01*
X0083684Y0092105D01*
X0083549Y0092142D01*
X0083413Y0092175D01*
X0083275Y0092204D01*
X0083138Y0092229D01*
X0082999Y0092251D01*
X0082860Y0092269D01*
X0082720Y0092282D01*
X0082580Y0092292D01*
X0082440Y0092298D01*
X0082300Y0092300D01*
X0040300Y0092300D01*
X0040160Y0092298D01*
X0040020Y0092292D01*
X0039880Y0092282D01*
X0039740Y0092269D01*
X0039601Y0092251D01*
X0039462Y0092229D01*
X0039325Y0092204D01*
X0039187Y0092175D01*
X0039051Y0092142D01*
X0038916Y0092105D01*
X0038782Y0092064D01*
X0038649Y0092019D01*
X0038517Y0091971D01*
X0038387Y0091919D01*
X0038258Y0091864D01*
X0038131Y0091805D01*
X0038005Y0091742D01*
X0037881Y0091676D01*
X0037760Y0091607D01*
X0037640Y0091534D01*
X0037522Y0091457D01*
X0037407Y0091378D01*
X0037293Y0091295D01*
X0037183Y0091209D01*
X0037074Y0091120D01*
X0036968Y0091028D01*
X0036865Y0090933D01*
X0036764Y0090836D01*
X0036667Y0090735D01*
X0036572Y0090632D01*
X0036480Y0090526D01*
X0036391Y0090417D01*
X0036305Y0090307D01*
X0036222Y0090193D01*
X0036143Y0090078D01*
X0036066Y0089960D01*
X0035993Y0089840D01*
X0035924Y0089719D01*
X0035858Y0089595D01*
X0035795Y0089469D01*
X0035736Y0089342D01*
X0035681Y0089213D01*
X0035629Y0089083D01*
X0035581Y0088951D01*
X0035536Y0088818D01*
X0035495Y0088684D01*
X0035458Y0088549D01*
X0035425Y0088413D01*
X0035396Y0088275D01*
X0035371Y0088138D01*
X0035349Y0087999D01*
X0035331Y0087860D01*
X0035318Y0087720D01*
X0035308Y0087580D01*
X0035302Y0087440D01*
X0035300Y0087300D01*
X0029300Y0057300D02*
X0026300Y0057300D01*
X0023300Y0057300D01*
X0023300Y0055300D02*
X0026300Y0055300D01*
X0029300Y0055300D01*
X0058300Y0185300D02*
X0061300Y0185300D01*
X0064300Y0185300D01*
X0064300Y0187300D02*
X0061300Y0187300D01*
X0058300Y0187300D01*
X0024300Y0235300D02*
X0021300Y0235300D01*
X0018300Y0235300D01*
X0018300Y0237300D02*
X0021300Y0237300D01*
X0024300Y0237300D01*
X0024300Y0300300D02*
X0021300Y0300300D01*
X0018300Y0300300D01*
X0018300Y0302300D02*
X0021300Y0302300D01*
X0024300Y0302300D01*
X0133300Y0302300D02*
X0136300Y0302300D01*
X0139300Y0302300D01*
X0139300Y0300300D02*
X0136300Y0300300D01*
X0133300Y0300300D01*
X0133300Y0237300D02*
X0136300Y0237300D01*
X0139300Y0237300D01*
X0139300Y0235300D02*
X0136300Y0235300D01*
X0133300Y0235300D01*
X0153300Y0187300D02*
X0156300Y0187300D01*
X0159300Y0187300D01*
X0159300Y0185300D02*
X0156300Y0185300D01*
X0153300Y0185300D01*
X0268300Y0185300D02*
X0271300Y0185300D01*
X0274300Y0185300D01*
X0274300Y0187300D02*
X0271300Y0187300D01*
X0268300Y0187300D01*
X0283300Y0235300D02*
X0286300Y0235300D01*
X0289300Y0235300D01*
X0289300Y0237300D02*
X0286300Y0237300D01*
X0283300Y0237300D01*
X0269300Y0305300D02*
X0266300Y0305300D01*
X0263300Y0305300D01*
X0263300Y0307300D02*
X0266300Y0307300D01*
X0269300Y0307300D01*
X0182300Y0034300D02*
X0182300Y0031300D01*
X0182300Y0028300D01*
X0180300Y0028300D02*
X0180300Y0031300D01*
X0180300Y0034300D01*
X0356300Y0038800D02*
X0356487Y0039043D01*
X0356679Y0039281D01*
X0356878Y0039514D01*
X0357082Y0039742D01*
X0357291Y0039965D01*
X0357506Y0040183D01*
X0357726Y0040396D01*
X0357951Y0040603D01*
X0358182Y0040805D01*
X0358417Y0041001D01*
X0358657Y0041191D01*
X0358901Y0041375D01*
X0359150Y0041553D01*
X0359404Y0041725D01*
X0359661Y0041891D01*
X0359922Y0042051D01*
X0360187Y0042204D01*
X0360456Y0042350D01*
X0360729Y0042490D01*
X0361004Y0042623D01*
X0361283Y0042749D01*
X0361565Y0042869D01*
X0361850Y0042981D01*
X0362137Y0043086D01*
X0362427Y0043185D01*
X0362719Y0043276D01*
X0363014Y0043360D01*
X0363310Y0043437D01*
X0363608Y0043507D01*
X0363908Y0043569D01*
X0364209Y0043624D01*
X0364511Y0043671D01*
X0364815Y0043711D01*
X0365119Y0043744D01*
X0365424Y0043769D01*
X0365730Y0043787D01*
X0366036Y0043797D01*
X0366342Y0043800D01*
X0366648Y0043795D01*
X0366954Y0043783D01*
X0367260Y0043763D01*
X0367564Y0043736D01*
X0367869Y0043701D01*
X0368172Y0043659D01*
X0368474Y0043610D01*
X0368775Y0043553D01*
X0369074Y0043488D01*
X0369372Y0043417D01*
X0369667Y0043338D01*
X0369961Y0043252D01*
X0370253Y0043159D01*
X0370542Y0043058D01*
X0370829Y0042951D01*
X0371113Y0042836D01*
X0371394Y0042715D01*
X0371672Y0042587D01*
X0371947Y0042452D01*
X0372218Y0042310D01*
X0372486Y0042162D01*
X0372750Y0042007D01*
X0373010Y0041846D01*
X0373266Y0041679D01*
X0373519Y0041505D01*
X0373766Y0041325D01*
X0374010Y0041139D01*
X0374248Y0040948D01*
X0374482Y0040750D01*
X0374711Y0040547D01*
X0374935Y0040338D01*
X0375154Y0040124D01*
X0375367Y0039904D01*
X0375575Y0039680D01*
X0375778Y0039450D01*
X0375974Y0039216D01*
X0376165Y0038976D01*
X0376350Y0038733D01*
X0376529Y0038484D01*
X0376702Y0038232D01*
X0376869Y0037975D01*
X0377029Y0037714D01*
X0377183Y0037449D01*
X0377330Y0037181D01*
X0377471Y0036909D01*
X0377605Y0036634D01*
X0377732Y0036355D01*
X0377853Y0036074D01*
X0377966Y0035789D01*
X0378072Y0035502D01*
X0378172Y0035213D01*
X0378264Y0034921D01*
X0378349Y0034627D01*
X0378427Y0034331D01*
X0378498Y0034033D01*
X0378561Y0033733D01*
X0378617Y0033432D01*
X0378665Y0033130D01*
X0378706Y0032827D01*
X0378740Y0032523D01*
X0378766Y0032218D01*
X0378785Y0031912D01*
X0378796Y0031606D01*
X0378800Y0031300D01*
X0378796Y0030994D01*
X0378785Y0030688D01*
X0378766Y0030382D01*
X0378740Y0030077D01*
X0378706Y0029773D01*
X0378665Y0029470D01*
X0378617Y0029168D01*
X0378561Y0028867D01*
X0378498Y0028567D01*
X0378427Y0028269D01*
X0378349Y0027973D01*
X0378264Y0027679D01*
X0378172Y0027387D01*
X0378072Y0027098D01*
X0377966Y0026811D01*
X0377853Y0026526D01*
X0377732Y0026245D01*
X0377605Y0025966D01*
X0377471Y0025691D01*
X0377330Y0025419D01*
X0377183Y0025151D01*
X0377029Y0024886D01*
X0376869Y0024625D01*
X0376702Y0024368D01*
X0376529Y0024116D01*
X0376350Y0023867D01*
X0376165Y0023624D01*
X0375974Y0023384D01*
X0375778Y0023150D01*
X0375575Y0022920D01*
X0375367Y0022696D01*
X0375154Y0022476D01*
X0374935Y0022262D01*
X0374711Y0022053D01*
X0374482Y0021850D01*
X0374248Y0021652D01*
X0374010Y0021461D01*
X0373766Y0021275D01*
X0373519Y0021095D01*
X0373266Y0020921D01*
X0373010Y0020754D01*
X0372750Y0020593D01*
X0372486Y0020438D01*
X0372218Y0020290D01*
X0371947Y0020148D01*
X0371672Y0020013D01*
X0371394Y0019885D01*
X0371113Y0019764D01*
X0370829Y0019649D01*
X0370542Y0019542D01*
X0370253Y0019441D01*
X0369961Y0019348D01*
X0369667Y0019262D01*
X0369372Y0019183D01*
X0369074Y0019112D01*
X0368775Y0019047D01*
X0368474Y0018990D01*
X0368172Y0018941D01*
X0367869Y0018899D01*
X0367564Y0018864D01*
X0367260Y0018837D01*
X0366954Y0018817D01*
X0366648Y0018805D01*
X0366342Y0018800D01*
X0366036Y0018803D01*
X0365730Y0018813D01*
X0365424Y0018831D01*
X0365119Y0018856D01*
X0364815Y0018889D01*
X0364511Y0018929D01*
X0364209Y0018976D01*
X0363908Y0019031D01*
X0363608Y0019093D01*
X0363310Y0019163D01*
X0363014Y0019240D01*
X0362719Y0019324D01*
X0362427Y0019415D01*
X0362137Y0019514D01*
X0361850Y0019619D01*
X0361565Y0019731D01*
X0361283Y0019851D01*
X0361004Y0019977D01*
X0360729Y0020110D01*
X0360456Y0020250D01*
X0360187Y0020396D01*
X0359922Y0020549D01*
X0359661Y0020709D01*
X0359404Y0020875D01*
X0359150Y0021047D01*
X0358901Y0021225D01*
X0358657Y0021409D01*
X0358417Y0021599D01*
X0358182Y0021795D01*
X0357951Y0021997D01*
X0357726Y0022204D01*
X0357506Y0022417D01*
X0357291Y0022635D01*
X0357082Y0022858D01*
X0356878Y0023086D01*
X0356679Y0023319D01*
X0356487Y0023557D01*
X0356300Y0023800D01*
D14*
X0152600Y0028800D02*
X0152600Y0031300D01*
X0152600Y0033800D01*
X0150100Y0033800D02*
X0150100Y0031300D01*
X0150100Y0028800D01*
X0065000Y0076300D02*
X0065000Y0081300D01*
X0065000Y0086300D01*
X0062500Y0086300D02*
X0060000Y0086300D01*
X0060000Y0076300D01*
X0062500Y0076300D01*
X0062500Y0086300D01*
X0057600Y0086300D02*
X0057600Y0081300D01*
X0057600Y0076300D01*
D15*
X0283394Y0174697D02*
X0291801Y0174697D01*
X0290750Y0173646D02*
X0290750Y0175748D01*
X0289699Y0176799D01*
X0288648Y0176799D01*
X0287597Y0175748D01*
X0287597Y0173646D01*
X0286546Y0172595D01*
X0285496Y0172595D01*
X0284445Y0173646D01*
X0284445Y0175748D01*
X0285496Y0176799D01*
X0285496Y0179041D02*
X0284445Y0180092D01*
X0284445Y0182194D01*
X0285496Y0183245D01*
X0286546Y0183245D01*
X0287597Y0182194D01*
X0288648Y0183245D01*
X0289699Y0183245D01*
X0290750Y0182194D01*
X0290750Y0180092D01*
X0289699Y0179041D01*
X0287597Y0181143D02*
X0287597Y0182194D01*
X0290750Y0173646D02*
X0289699Y0172595D01*
X0289699Y0170354D02*
X0284445Y0170354D01*
X0284445Y0166150D02*
X0289699Y0166150D01*
X0290750Y0167201D01*
X0290750Y0169303D01*
X0289699Y0170354D01*
X0284699Y0286150D02*
X0279445Y0286150D01*
X0279445Y0290354D02*
X0284699Y0290354D01*
X0285750Y0289303D01*
X0285750Y0287201D01*
X0284699Y0286150D01*
X0284699Y0292595D02*
X0285750Y0293646D01*
X0285750Y0295748D01*
X0284699Y0296799D01*
X0283648Y0296799D01*
X0282597Y0295748D01*
X0282597Y0293646D01*
X0281546Y0292595D01*
X0280496Y0292595D01*
X0279445Y0293646D01*
X0279445Y0295748D01*
X0280496Y0296799D01*
X0280496Y0299041D02*
X0279445Y0300092D01*
X0279445Y0302194D01*
X0280496Y0303245D01*
X0281546Y0303245D01*
X0285750Y0299041D01*
X0285750Y0303245D01*
X0286801Y0294697D02*
X0278394Y0294697D01*
D16*
X0350946Y0093229D02*
X0357245Y0093229D01*
X0350946Y0093229D02*
X0350946Y0086930D01*
X0350946Y0065670D02*
X0350946Y0059371D01*
X0407245Y0059371D01*
X0407245Y0093229D01*
X0375946Y0093229D01*
X0356300Y0038800D02*
X0356300Y0023800D01*
D17*
X0337050Y0031300D03*
X0315550Y0031300D03*
D18*
X0046300Y0336300D03*
M02*
