G75*
%MOIN*%
%OFA0B0*%
%FSLAX25Y25*%
%IPPOS*%
%LPD*%
%AMOC8*
5,1,8,0,0,1.08239X$1,22.5*
%
%ADD10C,0.13300*%
%ADD11C,0.06000*%
%ADD12C,0.06000*%
%ADD13R,0.07100X0.05400*%
%ADD14R,0.07200X0.00600*%
%ADD15C,0.06800*%
%ADD16R,0.04737X0.06469*%
%ADD17R,0.05524X0.06469*%
%ADD18R,0.06800X0.06800*%
%ADD19R,0.09050X0.09050*%
%ADD20OC8,0.06000*%
%ADD21C,0.18300*%
%ADD22C,0.15800*%
%ADD23OC8,0.07100*%
%ADD24C,0.07100*%
%ADD25OC8,0.06800*%
%ADD26C,0.06400*%
D10*
X0026300Y0021300D03*
X0396300Y0021300D03*
X0396300Y0351300D03*
X0026300Y0351300D03*
D11*
X0031300Y0308900D02*
X0031300Y0303700D01*
X0041300Y0303700D02*
X0041300Y0308900D01*
X0051300Y0308900D02*
X0051300Y0303700D01*
X0061300Y0303700D02*
X0061300Y0308900D01*
X0071300Y0308900D02*
X0071300Y0303700D01*
X0081300Y0303700D02*
X0081300Y0308900D01*
X0091300Y0308900D02*
X0091300Y0303700D01*
X0101300Y0303700D02*
X0101300Y0308900D01*
X0111300Y0308900D02*
X0111300Y0303700D01*
X0121300Y0303700D02*
X0121300Y0308900D01*
X0146300Y0308900D02*
X0146300Y0303700D01*
X0156300Y0303700D02*
X0156300Y0308900D01*
X0166300Y0308900D02*
X0166300Y0303700D01*
X0176300Y0303700D02*
X0176300Y0308900D01*
X0186300Y0308900D02*
X0186300Y0303700D01*
X0196300Y0303700D02*
X0196300Y0308900D01*
X0206300Y0308900D02*
X0206300Y0303700D01*
X0216300Y0303700D02*
X0216300Y0308900D01*
X0226300Y0308900D02*
X0226300Y0303700D01*
X0236300Y0303700D02*
X0236300Y0308900D01*
X0236300Y0278900D02*
X0236300Y0273700D01*
X0226300Y0273700D02*
X0226300Y0278900D01*
X0216300Y0278900D02*
X0216300Y0273700D01*
X0206300Y0273700D02*
X0206300Y0278900D01*
X0196300Y0278900D02*
X0196300Y0273700D01*
X0186300Y0273700D02*
X0186300Y0278900D01*
X0176300Y0278900D02*
X0176300Y0273700D01*
X0166300Y0273700D02*
X0166300Y0278900D01*
X0156300Y0278900D02*
X0156300Y0273700D01*
X0146300Y0273700D02*
X0146300Y0278900D01*
X0121300Y0278900D02*
X0121300Y0273700D01*
X0111300Y0273700D02*
X0111300Y0278900D01*
X0101300Y0278900D02*
X0101300Y0273700D01*
X0091300Y0273700D02*
X0091300Y0278900D01*
X0081300Y0278900D02*
X0081300Y0273700D01*
X0071300Y0273700D02*
X0071300Y0278900D01*
X0061300Y0278900D02*
X0061300Y0273700D01*
X0051300Y0273700D02*
X0051300Y0278900D01*
X0041300Y0278900D02*
X0041300Y0273700D01*
X0031300Y0273700D02*
X0031300Y0278900D01*
X0031300Y0243900D02*
X0031300Y0238700D01*
X0041300Y0238700D02*
X0041300Y0243900D01*
X0051300Y0243900D02*
X0051300Y0238700D01*
X0061300Y0238700D02*
X0061300Y0243900D01*
X0071300Y0243900D02*
X0071300Y0238700D01*
X0081300Y0238700D02*
X0081300Y0243900D01*
X0091300Y0243900D02*
X0091300Y0238700D01*
X0101300Y0238700D02*
X0101300Y0243900D01*
X0111300Y0243900D02*
X0111300Y0238700D01*
X0121300Y0238700D02*
X0121300Y0243900D01*
X0146300Y0243900D02*
X0146300Y0238700D01*
X0156300Y0238700D02*
X0156300Y0243900D01*
X0166300Y0243900D02*
X0166300Y0238700D01*
X0176300Y0238700D02*
X0176300Y0243900D01*
X0186300Y0243900D02*
X0186300Y0238700D01*
X0196300Y0238700D02*
X0196300Y0243900D01*
X0206300Y0243900D02*
X0206300Y0238700D01*
X0216300Y0238700D02*
X0216300Y0243900D01*
X0226300Y0243900D02*
X0226300Y0238700D01*
X0236300Y0238700D02*
X0236300Y0243900D01*
X0236300Y0213900D02*
X0236300Y0208700D01*
X0226300Y0208700D02*
X0226300Y0213900D01*
X0216300Y0213900D02*
X0216300Y0208700D01*
X0206300Y0208700D02*
X0206300Y0213900D01*
X0196300Y0213900D02*
X0196300Y0208700D01*
X0186300Y0208700D02*
X0186300Y0213900D01*
X0176300Y0213900D02*
X0176300Y0208700D01*
X0166300Y0208700D02*
X0166300Y0213900D01*
X0156300Y0213900D02*
X0156300Y0208700D01*
X0146300Y0208700D02*
X0146300Y0213900D01*
X0131300Y0193900D02*
X0131300Y0188700D01*
X0121300Y0188700D02*
X0121300Y0193900D01*
X0111300Y0193900D02*
X0111300Y0188700D01*
X0101300Y0188700D02*
X0101300Y0193900D01*
X0091300Y0193900D02*
X0091300Y0188700D01*
X0081300Y0188700D02*
X0081300Y0193900D01*
X0071300Y0193900D02*
X0071300Y0188700D01*
X0071300Y0208700D02*
X0071300Y0213900D01*
X0081300Y0213900D02*
X0081300Y0208700D01*
X0091300Y0208700D02*
X0091300Y0213900D01*
X0101300Y0213900D02*
X0101300Y0208700D01*
X0111300Y0208700D02*
X0111300Y0213900D01*
X0121300Y0213900D02*
X0121300Y0208700D01*
X0166300Y0193900D02*
X0166300Y0188700D01*
X0176300Y0188700D02*
X0176300Y0193900D01*
X0186300Y0193900D02*
X0186300Y0188700D01*
X0196300Y0188700D02*
X0196300Y0193900D01*
X0206300Y0193900D02*
X0206300Y0188700D01*
X0216300Y0188700D02*
X0216300Y0193900D01*
X0226300Y0193900D02*
X0226300Y0188700D01*
X0236300Y0188700D02*
X0236300Y0193900D01*
X0236300Y0163900D02*
X0236300Y0158700D01*
X0226300Y0158700D02*
X0226300Y0163900D01*
X0216300Y0163900D02*
X0216300Y0158700D01*
X0206300Y0158700D02*
X0206300Y0163900D01*
X0196300Y0163900D02*
X0196300Y0158700D01*
X0186300Y0158700D02*
X0186300Y0163900D01*
X0176300Y0163900D02*
X0176300Y0158700D01*
X0166300Y0158700D02*
X0166300Y0163900D01*
X0131300Y0163900D02*
X0131300Y0158700D01*
X0121300Y0158700D02*
X0121300Y0163900D01*
X0111300Y0163900D02*
X0111300Y0158700D01*
X0101300Y0158700D02*
X0101300Y0163900D01*
X0091300Y0163900D02*
X0091300Y0158700D01*
X0081300Y0158700D02*
X0081300Y0163900D01*
X0071300Y0163900D02*
X0071300Y0158700D01*
X0101300Y0108900D02*
X0101300Y0103700D01*
X0111300Y0103700D02*
X0111300Y0108900D01*
X0121300Y0108900D02*
X0121300Y0103700D01*
X0131300Y0103700D02*
X0131300Y0108900D01*
X0141300Y0108900D02*
X0141300Y0103700D01*
X0151300Y0103700D02*
X0151300Y0108900D01*
X0161300Y0108900D02*
X0161300Y0103700D01*
X0171300Y0103700D02*
X0171300Y0108900D01*
X0181300Y0108900D02*
X0181300Y0103700D01*
X0191300Y0103700D02*
X0191300Y0108900D01*
X0201300Y0108900D02*
X0201300Y0103700D01*
X0211300Y0103700D02*
X0211300Y0108900D01*
X0221300Y0108900D02*
X0221300Y0103700D01*
X0231300Y0103700D02*
X0231300Y0108900D01*
X0241300Y0108900D02*
X0241300Y0103700D01*
X0251300Y0103700D02*
X0251300Y0108900D01*
X0261300Y0108900D02*
X0261300Y0103700D01*
X0271300Y0103700D02*
X0271300Y0108900D01*
X0281300Y0108900D02*
X0281300Y0103700D01*
X0291300Y0103700D02*
X0291300Y0108900D01*
X0301300Y0108900D02*
X0301300Y0103700D01*
X0311300Y0103700D02*
X0311300Y0108900D01*
X0321300Y0108900D02*
X0321300Y0103700D01*
X0331300Y0103700D02*
X0331300Y0108900D01*
X0331300Y0158700D02*
X0331300Y0163900D01*
X0341300Y0163900D02*
X0341300Y0158700D01*
X0351300Y0158700D02*
X0351300Y0163900D01*
X0361300Y0163900D02*
X0361300Y0158700D01*
X0371300Y0158700D02*
X0371300Y0163900D01*
X0381300Y0163900D02*
X0381300Y0158700D01*
X0391300Y0158700D02*
X0391300Y0163900D01*
X0391300Y0188700D02*
X0391300Y0193900D01*
X0381300Y0193900D02*
X0381300Y0188700D01*
X0371300Y0188700D02*
X0371300Y0193900D01*
X0361300Y0193900D02*
X0361300Y0188700D01*
X0351300Y0188700D02*
X0351300Y0193900D01*
X0341300Y0193900D02*
X0341300Y0188700D01*
X0331300Y0188700D02*
X0331300Y0193900D01*
X0321300Y0193900D02*
X0321300Y0188700D01*
X0311300Y0188700D02*
X0311300Y0193900D01*
X0301300Y0193900D02*
X0301300Y0188700D01*
X0291300Y0188700D02*
X0291300Y0193900D01*
X0281300Y0193900D02*
X0281300Y0188700D01*
X0296300Y0208700D02*
X0296300Y0213900D01*
X0306300Y0213900D02*
X0306300Y0208700D01*
X0316300Y0208700D02*
X0316300Y0213900D01*
X0326300Y0213900D02*
X0326300Y0208700D01*
X0336300Y0208700D02*
X0336300Y0213900D01*
X0346300Y0213900D02*
X0346300Y0208700D01*
X0356300Y0208700D02*
X0356300Y0213900D01*
X0366300Y0213900D02*
X0366300Y0208700D01*
X0376300Y0208700D02*
X0376300Y0213900D01*
X0386300Y0213900D02*
X0386300Y0208700D01*
X0386300Y0238700D02*
X0386300Y0243900D01*
X0376300Y0243900D02*
X0376300Y0238700D01*
X0366300Y0238700D02*
X0366300Y0243900D01*
X0356300Y0243900D02*
X0356300Y0238700D01*
X0346300Y0238700D02*
X0346300Y0243900D01*
X0336300Y0243900D02*
X0336300Y0238700D01*
X0326300Y0238700D02*
X0326300Y0243900D01*
X0316300Y0243900D02*
X0316300Y0238700D01*
X0306300Y0238700D02*
X0306300Y0243900D01*
X0296300Y0243900D02*
X0296300Y0238700D01*
X0296300Y0278700D02*
X0296300Y0283900D01*
X0286300Y0283900D02*
X0286300Y0278700D01*
X0276300Y0278700D02*
X0276300Y0283900D01*
X0276300Y0308700D02*
X0276300Y0313900D01*
X0286300Y0313900D02*
X0286300Y0308700D01*
X0296300Y0308700D02*
X0296300Y0313900D01*
X0306300Y0313900D02*
X0306300Y0308700D01*
X0316300Y0308700D02*
X0316300Y0313900D01*
X0326300Y0313900D02*
X0326300Y0308700D01*
X0336300Y0308700D02*
X0336300Y0313900D01*
X0346300Y0313900D02*
X0346300Y0308700D01*
X0356300Y0308700D02*
X0356300Y0313900D01*
X0366300Y0313900D02*
X0366300Y0308700D01*
X0376300Y0308700D02*
X0376300Y0313900D01*
X0386300Y0313900D02*
X0386300Y0308700D01*
X0386300Y0283900D02*
X0386300Y0278700D01*
X0376300Y0278700D02*
X0376300Y0283900D01*
X0366300Y0283900D02*
X0366300Y0278700D01*
X0356300Y0278700D02*
X0356300Y0283900D01*
X0346300Y0283900D02*
X0346300Y0278700D01*
X0336300Y0278700D02*
X0336300Y0283900D01*
X0326300Y0283900D02*
X0326300Y0278700D01*
X0316300Y0278700D02*
X0316300Y0283900D01*
X0306300Y0283900D02*
X0306300Y0278700D01*
X0301300Y0163900D02*
X0301300Y0158700D01*
X0311300Y0158700D02*
X0311300Y0163900D01*
X0321300Y0163900D02*
X0321300Y0158700D01*
X0291300Y0158700D02*
X0291300Y0163900D01*
X0281300Y0163900D02*
X0281300Y0158700D01*
X0281300Y0048900D02*
X0281300Y0043700D01*
X0281300Y0033900D02*
X0281300Y0028700D01*
X0291300Y0028700D02*
X0291300Y0033900D01*
X0291300Y0043700D02*
X0291300Y0048900D01*
X0301300Y0048900D02*
X0301300Y0043700D01*
X0301300Y0033900D02*
X0301300Y0028700D01*
X0311300Y0043700D02*
X0311300Y0048900D01*
X0321300Y0048900D02*
X0321300Y0043700D01*
X0331300Y0043700D02*
X0331300Y0048900D01*
X0271300Y0048900D02*
X0271300Y0043700D01*
X0271300Y0033900D02*
X0271300Y0028700D01*
X0261300Y0028700D02*
X0261300Y0033900D01*
X0261300Y0043700D02*
X0261300Y0048900D01*
X0251300Y0048900D02*
X0251300Y0043700D01*
X0251300Y0033900D02*
X0251300Y0028700D01*
X0241300Y0028700D02*
X0241300Y0033900D01*
X0241300Y0043700D02*
X0241300Y0048900D01*
X0231300Y0048900D02*
X0231300Y0043700D01*
X0231300Y0033900D02*
X0231300Y0028700D01*
X0221300Y0028700D02*
X0221300Y0033900D01*
X0221300Y0043700D02*
X0221300Y0048900D01*
X0211300Y0048900D02*
X0211300Y0043700D01*
X0211300Y0033900D02*
X0211300Y0028700D01*
X0201300Y0028700D02*
X0201300Y0033900D01*
X0201300Y0043700D02*
X0201300Y0048900D01*
X0191300Y0048900D02*
X0191300Y0043700D01*
X0181300Y0043700D02*
X0181300Y0048900D01*
X0171300Y0048900D02*
X0171300Y0043700D01*
X0161300Y0043700D02*
X0161300Y0048900D01*
X0151300Y0048900D02*
X0151300Y0043700D01*
X0141300Y0043700D02*
X0141300Y0048900D01*
X0131300Y0048900D02*
X0131300Y0043700D01*
X0121300Y0043700D02*
X0121300Y0048900D01*
X0111300Y0048900D02*
X0111300Y0043700D01*
X0101300Y0043700D02*
X0101300Y0048900D01*
X0061300Y0208700D02*
X0061300Y0213900D01*
X0051300Y0213900D02*
X0051300Y0208700D01*
X0041300Y0208700D02*
X0041300Y0213900D01*
X0031300Y0213900D02*
X0031300Y0208700D01*
D12*
X0046300Y0081300D03*
X0076300Y0081300D03*
X0076300Y0051300D03*
X0046300Y0051300D03*
D13*
X0051300Y0128300D03*
X0051300Y0134300D03*
D14*
X0051300Y0131300D03*
D15*
X0029300Y0101300D02*
X0023300Y0101300D01*
X0023300Y0091300D02*
X0029300Y0091300D01*
X0029300Y0081300D02*
X0023300Y0081300D01*
D16*
X0062560Y0126969D03*
X0070040Y0126969D03*
X0062560Y0135631D03*
D17*
X0069253Y0135631D03*
D18*
X0026400Y0127450D03*
X0026400Y0145150D03*
D19*
X0036200Y0150100D03*
X0036200Y0122500D03*
D20*
X0026300Y0061300D03*
X0026300Y0051300D03*
X0141300Y0031300D03*
X0161300Y0031300D03*
X0176300Y0031300D03*
X0186300Y0031300D03*
X0311300Y0031300D03*
X0341300Y0031300D03*
X0361300Y0031300D03*
X0371300Y0031300D03*
X0271300Y0181300D03*
X0271300Y0191300D03*
X0286300Y0231300D03*
X0286300Y0241300D03*
X0266300Y0301300D03*
X0266300Y0311300D03*
X0136300Y0306300D03*
X0136300Y0296300D03*
X0136300Y0241300D03*
X0136300Y0231300D03*
X0156300Y0191300D03*
X0156300Y0181300D03*
X0061300Y0181300D03*
X0061300Y0191300D03*
X0021300Y0231300D03*
X0021300Y0241300D03*
X0021300Y0296300D03*
X0021300Y0306300D03*
D21*
X0354095Y0076300D03*
D22*
X0366300Y0095198D03*
X0378111Y0076300D03*
D23*
X0386300Y0126300D03*
D24*
X0386300Y0116300D03*
D25*
X0376300Y0336300D03*
X0376300Y0346300D03*
X0366300Y0346300D03*
X0366300Y0336300D03*
X0356300Y0336300D03*
X0356300Y0346300D03*
X0346300Y0346300D03*
X0346300Y0336300D03*
X0336300Y0336300D03*
X0336300Y0346300D03*
X0326300Y0346300D03*
X0326300Y0336300D03*
X0316300Y0336300D03*
X0316300Y0346300D03*
X0306300Y0346300D03*
X0306300Y0336300D03*
X0296300Y0336300D03*
X0296300Y0346300D03*
X0286300Y0346300D03*
X0286300Y0336300D03*
X0276300Y0336300D03*
X0276300Y0346300D03*
X0266300Y0346300D03*
X0266300Y0336300D03*
X0256300Y0336300D03*
X0256300Y0346300D03*
X0246300Y0346300D03*
X0246300Y0336300D03*
X0236300Y0336300D03*
X0236300Y0346300D03*
X0226300Y0346300D03*
X0226300Y0336300D03*
X0216300Y0336300D03*
X0216300Y0346300D03*
X0206300Y0346300D03*
X0206300Y0336300D03*
X0196300Y0336300D03*
X0196300Y0346300D03*
X0186300Y0346300D03*
X0186300Y0336300D03*
X0176300Y0336300D03*
X0176300Y0346300D03*
X0166300Y0346300D03*
X0166300Y0336300D03*
X0156300Y0336300D03*
X0156300Y0346300D03*
X0146300Y0346300D03*
X0146300Y0336300D03*
X0136300Y0336300D03*
X0136300Y0346300D03*
X0126300Y0346300D03*
X0126300Y0336300D03*
X0116300Y0336300D03*
X0116300Y0346300D03*
X0106300Y0346300D03*
X0106300Y0336300D03*
X0096300Y0336300D03*
X0096300Y0346300D03*
X0086300Y0346300D03*
X0086300Y0336300D03*
X0076300Y0336300D03*
X0076300Y0346300D03*
X0066300Y0346300D03*
X0066300Y0336300D03*
X0056300Y0336300D03*
X0056300Y0346300D03*
X0046300Y0346300D03*
X0046300Y0336300D03*
D26*
X0248500Y0266300D02*
X0254100Y0266300D01*
X0263500Y0266300D02*
X0269100Y0266300D01*
X0269100Y0256300D02*
X0263500Y0256300D01*
X0254100Y0256300D02*
X0248500Y0256300D01*
M02*
