G75*
%MOIN*%
%OFA0B0*%
%FSLAX25Y25*%
%IPPOS*%
%LPD*%
%AMOC8*
5,1,8,0,0,1.08239X$1,22.5*
%
%ADD10C,0.00000*%
D10*
X0016300Y0011300D02*
X0016300Y0361300D01*
X0406300Y0361300D01*
X0406300Y0011300D01*
X0016300Y0011300D01*
X0020050Y0021300D02*
X0020052Y0021458D01*
X0020058Y0021615D01*
X0020068Y0021773D01*
X0020082Y0021930D01*
X0020100Y0022086D01*
X0020121Y0022243D01*
X0020147Y0022398D01*
X0020177Y0022553D01*
X0020210Y0022707D01*
X0020248Y0022860D01*
X0020289Y0023013D01*
X0020334Y0023164D01*
X0020383Y0023314D01*
X0020436Y0023462D01*
X0020492Y0023610D01*
X0020553Y0023755D01*
X0020616Y0023900D01*
X0020684Y0024042D01*
X0020755Y0024183D01*
X0020829Y0024322D01*
X0020907Y0024459D01*
X0020989Y0024594D01*
X0021073Y0024727D01*
X0021162Y0024858D01*
X0021253Y0024986D01*
X0021348Y0025113D01*
X0021445Y0025236D01*
X0021546Y0025358D01*
X0021650Y0025476D01*
X0021757Y0025592D01*
X0021867Y0025705D01*
X0021979Y0025816D01*
X0022095Y0025923D01*
X0022213Y0026028D01*
X0022333Y0026130D01*
X0022456Y0026228D01*
X0022582Y0026324D01*
X0022710Y0026416D01*
X0022840Y0026505D01*
X0022972Y0026591D01*
X0023107Y0026673D01*
X0023244Y0026752D01*
X0023382Y0026827D01*
X0023522Y0026899D01*
X0023665Y0026967D01*
X0023808Y0027032D01*
X0023954Y0027093D01*
X0024101Y0027150D01*
X0024249Y0027204D01*
X0024399Y0027254D01*
X0024549Y0027300D01*
X0024701Y0027342D01*
X0024854Y0027381D01*
X0025008Y0027415D01*
X0025163Y0027446D01*
X0025318Y0027472D01*
X0025474Y0027495D01*
X0025631Y0027514D01*
X0025788Y0027529D01*
X0025945Y0027540D01*
X0026103Y0027547D01*
X0026261Y0027550D01*
X0026418Y0027549D01*
X0026576Y0027544D01*
X0026733Y0027535D01*
X0026891Y0027522D01*
X0027047Y0027505D01*
X0027204Y0027484D01*
X0027359Y0027460D01*
X0027514Y0027431D01*
X0027669Y0027398D01*
X0027822Y0027362D01*
X0027975Y0027321D01*
X0028126Y0027277D01*
X0028276Y0027229D01*
X0028425Y0027178D01*
X0028573Y0027122D01*
X0028719Y0027063D01*
X0028864Y0027000D01*
X0029007Y0026933D01*
X0029148Y0026863D01*
X0029287Y0026790D01*
X0029425Y0026713D01*
X0029561Y0026632D01*
X0029694Y0026548D01*
X0029825Y0026461D01*
X0029954Y0026370D01*
X0030081Y0026276D01*
X0030206Y0026179D01*
X0030327Y0026079D01*
X0030447Y0025976D01*
X0030563Y0025870D01*
X0030677Y0025761D01*
X0030789Y0025649D01*
X0030897Y0025535D01*
X0031002Y0025417D01*
X0031105Y0025297D01*
X0031204Y0025175D01*
X0031300Y0025050D01*
X0031393Y0024922D01*
X0031483Y0024793D01*
X0031569Y0024661D01*
X0031653Y0024527D01*
X0031732Y0024391D01*
X0031809Y0024253D01*
X0031881Y0024113D01*
X0031950Y0023971D01*
X0032016Y0023828D01*
X0032078Y0023683D01*
X0032136Y0023536D01*
X0032191Y0023388D01*
X0032242Y0023239D01*
X0032289Y0023088D01*
X0032332Y0022937D01*
X0032371Y0022784D01*
X0032407Y0022630D01*
X0032438Y0022476D01*
X0032466Y0022321D01*
X0032490Y0022165D01*
X0032510Y0022008D01*
X0032526Y0021851D01*
X0032538Y0021694D01*
X0032546Y0021537D01*
X0032550Y0021379D01*
X0032550Y0021221D01*
X0032546Y0021063D01*
X0032538Y0020906D01*
X0032526Y0020749D01*
X0032510Y0020592D01*
X0032490Y0020435D01*
X0032466Y0020279D01*
X0032438Y0020124D01*
X0032407Y0019970D01*
X0032371Y0019816D01*
X0032332Y0019663D01*
X0032289Y0019512D01*
X0032242Y0019361D01*
X0032191Y0019212D01*
X0032136Y0019064D01*
X0032078Y0018917D01*
X0032016Y0018772D01*
X0031950Y0018629D01*
X0031881Y0018487D01*
X0031809Y0018347D01*
X0031732Y0018209D01*
X0031653Y0018073D01*
X0031569Y0017939D01*
X0031483Y0017807D01*
X0031393Y0017678D01*
X0031300Y0017550D01*
X0031204Y0017425D01*
X0031105Y0017303D01*
X0031002Y0017183D01*
X0030897Y0017065D01*
X0030789Y0016951D01*
X0030677Y0016839D01*
X0030563Y0016730D01*
X0030447Y0016624D01*
X0030327Y0016521D01*
X0030206Y0016421D01*
X0030081Y0016324D01*
X0029954Y0016230D01*
X0029825Y0016139D01*
X0029694Y0016052D01*
X0029561Y0015968D01*
X0029425Y0015887D01*
X0029287Y0015810D01*
X0029148Y0015737D01*
X0029007Y0015667D01*
X0028864Y0015600D01*
X0028719Y0015537D01*
X0028573Y0015478D01*
X0028425Y0015422D01*
X0028276Y0015371D01*
X0028126Y0015323D01*
X0027975Y0015279D01*
X0027822Y0015238D01*
X0027669Y0015202D01*
X0027514Y0015169D01*
X0027359Y0015140D01*
X0027204Y0015116D01*
X0027047Y0015095D01*
X0026891Y0015078D01*
X0026733Y0015065D01*
X0026576Y0015056D01*
X0026418Y0015051D01*
X0026261Y0015050D01*
X0026103Y0015053D01*
X0025945Y0015060D01*
X0025788Y0015071D01*
X0025631Y0015086D01*
X0025474Y0015105D01*
X0025318Y0015128D01*
X0025163Y0015154D01*
X0025008Y0015185D01*
X0024854Y0015219D01*
X0024701Y0015258D01*
X0024549Y0015300D01*
X0024399Y0015346D01*
X0024249Y0015396D01*
X0024101Y0015450D01*
X0023954Y0015507D01*
X0023808Y0015568D01*
X0023665Y0015633D01*
X0023522Y0015701D01*
X0023382Y0015773D01*
X0023244Y0015848D01*
X0023107Y0015927D01*
X0022972Y0016009D01*
X0022840Y0016095D01*
X0022710Y0016184D01*
X0022582Y0016276D01*
X0022456Y0016372D01*
X0022333Y0016470D01*
X0022213Y0016572D01*
X0022095Y0016677D01*
X0021979Y0016784D01*
X0021867Y0016895D01*
X0021757Y0017008D01*
X0021650Y0017124D01*
X0021546Y0017242D01*
X0021445Y0017364D01*
X0021348Y0017487D01*
X0021253Y0017614D01*
X0021162Y0017742D01*
X0021073Y0017873D01*
X0020989Y0018006D01*
X0020907Y0018141D01*
X0020829Y0018278D01*
X0020755Y0018417D01*
X0020684Y0018558D01*
X0020616Y0018700D01*
X0020553Y0018845D01*
X0020492Y0018990D01*
X0020436Y0019138D01*
X0020383Y0019286D01*
X0020334Y0019436D01*
X0020289Y0019587D01*
X0020248Y0019740D01*
X0020210Y0019893D01*
X0020177Y0020047D01*
X0020147Y0020202D01*
X0020121Y0020357D01*
X0020100Y0020514D01*
X0020082Y0020670D01*
X0020068Y0020827D01*
X0020058Y0020985D01*
X0020052Y0021142D01*
X0020050Y0021300D01*
X0020050Y0351300D02*
X0020052Y0351458D01*
X0020058Y0351615D01*
X0020068Y0351773D01*
X0020082Y0351930D01*
X0020100Y0352086D01*
X0020121Y0352243D01*
X0020147Y0352398D01*
X0020177Y0352553D01*
X0020210Y0352707D01*
X0020248Y0352860D01*
X0020289Y0353013D01*
X0020334Y0353164D01*
X0020383Y0353314D01*
X0020436Y0353462D01*
X0020492Y0353610D01*
X0020553Y0353755D01*
X0020616Y0353900D01*
X0020684Y0354042D01*
X0020755Y0354183D01*
X0020829Y0354322D01*
X0020907Y0354459D01*
X0020989Y0354594D01*
X0021073Y0354727D01*
X0021162Y0354858D01*
X0021253Y0354986D01*
X0021348Y0355113D01*
X0021445Y0355236D01*
X0021546Y0355358D01*
X0021650Y0355476D01*
X0021757Y0355592D01*
X0021867Y0355705D01*
X0021979Y0355816D01*
X0022095Y0355923D01*
X0022213Y0356028D01*
X0022333Y0356130D01*
X0022456Y0356228D01*
X0022582Y0356324D01*
X0022710Y0356416D01*
X0022840Y0356505D01*
X0022972Y0356591D01*
X0023107Y0356673D01*
X0023244Y0356752D01*
X0023382Y0356827D01*
X0023522Y0356899D01*
X0023665Y0356967D01*
X0023808Y0357032D01*
X0023954Y0357093D01*
X0024101Y0357150D01*
X0024249Y0357204D01*
X0024399Y0357254D01*
X0024549Y0357300D01*
X0024701Y0357342D01*
X0024854Y0357381D01*
X0025008Y0357415D01*
X0025163Y0357446D01*
X0025318Y0357472D01*
X0025474Y0357495D01*
X0025631Y0357514D01*
X0025788Y0357529D01*
X0025945Y0357540D01*
X0026103Y0357547D01*
X0026261Y0357550D01*
X0026418Y0357549D01*
X0026576Y0357544D01*
X0026733Y0357535D01*
X0026891Y0357522D01*
X0027047Y0357505D01*
X0027204Y0357484D01*
X0027359Y0357460D01*
X0027514Y0357431D01*
X0027669Y0357398D01*
X0027822Y0357362D01*
X0027975Y0357321D01*
X0028126Y0357277D01*
X0028276Y0357229D01*
X0028425Y0357178D01*
X0028573Y0357122D01*
X0028719Y0357063D01*
X0028864Y0357000D01*
X0029007Y0356933D01*
X0029148Y0356863D01*
X0029287Y0356790D01*
X0029425Y0356713D01*
X0029561Y0356632D01*
X0029694Y0356548D01*
X0029825Y0356461D01*
X0029954Y0356370D01*
X0030081Y0356276D01*
X0030206Y0356179D01*
X0030327Y0356079D01*
X0030447Y0355976D01*
X0030563Y0355870D01*
X0030677Y0355761D01*
X0030789Y0355649D01*
X0030897Y0355535D01*
X0031002Y0355417D01*
X0031105Y0355297D01*
X0031204Y0355175D01*
X0031300Y0355050D01*
X0031393Y0354922D01*
X0031483Y0354793D01*
X0031569Y0354661D01*
X0031653Y0354527D01*
X0031732Y0354391D01*
X0031809Y0354253D01*
X0031881Y0354113D01*
X0031950Y0353971D01*
X0032016Y0353828D01*
X0032078Y0353683D01*
X0032136Y0353536D01*
X0032191Y0353388D01*
X0032242Y0353239D01*
X0032289Y0353088D01*
X0032332Y0352937D01*
X0032371Y0352784D01*
X0032407Y0352630D01*
X0032438Y0352476D01*
X0032466Y0352321D01*
X0032490Y0352165D01*
X0032510Y0352008D01*
X0032526Y0351851D01*
X0032538Y0351694D01*
X0032546Y0351537D01*
X0032550Y0351379D01*
X0032550Y0351221D01*
X0032546Y0351063D01*
X0032538Y0350906D01*
X0032526Y0350749D01*
X0032510Y0350592D01*
X0032490Y0350435D01*
X0032466Y0350279D01*
X0032438Y0350124D01*
X0032407Y0349970D01*
X0032371Y0349816D01*
X0032332Y0349663D01*
X0032289Y0349512D01*
X0032242Y0349361D01*
X0032191Y0349212D01*
X0032136Y0349064D01*
X0032078Y0348917D01*
X0032016Y0348772D01*
X0031950Y0348629D01*
X0031881Y0348487D01*
X0031809Y0348347D01*
X0031732Y0348209D01*
X0031653Y0348073D01*
X0031569Y0347939D01*
X0031483Y0347807D01*
X0031393Y0347678D01*
X0031300Y0347550D01*
X0031204Y0347425D01*
X0031105Y0347303D01*
X0031002Y0347183D01*
X0030897Y0347065D01*
X0030789Y0346951D01*
X0030677Y0346839D01*
X0030563Y0346730D01*
X0030447Y0346624D01*
X0030327Y0346521D01*
X0030206Y0346421D01*
X0030081Y0346324D01*
X0029954Y0346230D01*
X0029825Y0346139D01*
X0029694Y0346052D01*
X0029561Y0345968D01*
X0029425Y0345887D01*
X0029287Y0345810D01*
X0029148Y0345737D01*
X0029007Y0345667D01*
X0028864Y0345600D01*
X0028719Y0345537D01*
X0028573Y0345478D01*
X0028425Y0345422D01*
X0028276Y0345371D01*
X0028126Y0345323D01*
X0027975Y0345279D01*
X0027822Y0345238D01*
X0027669Y0345202D01*
X0027514Y0345169D01*
X0027359Y0345140D01*
X0027204Y0345116D01*
X0027047Y0345095D01*
X0026891Y0345078D01*
X0026733Y0345065D01*
X0026576Y0345056D01*
X0026418Y0345051D01*
X0026261Y0345050D01*
X0026103Y0345053D01*
X0025945Y0345060D01*
X0025788Y0345071D01*
X0025631Y0345086D01*
X0025474Y0345105D01*
X0025318Y0345128D01*
X0025163Y0345154D01*
X0025008Y0345185D01*
X0024854Y0345219D01*
X0024701Y0345258D01*
X0024549Y0345300D01*
X0024399Y0345346D01*
X0024249Y0345396D01*
X0024101Y0345450D01*
X0023954Y0345507D01*
X0023808Y0345568D01*
X0023665Y0345633D01*
X0023522Y0345701D01*
X0023382Y0345773D01*
X0023244Y0345848D01*
X0023107Y0345927D01*
X0022972Y0346009D01*
X0022840Y0346095D01*
X0022710Y0346184D01*
X0022582Y0346276D01*
X0022456Y0346372D01*
X0022333Y0346470D01*
X0022213Y0346572D01*
X0022095Y0346677D01*
X0021979Y0346784D01*
X0021867Y0346895D01*
X0021757Y0347008D01*
X0021650Y0347124D01*
X0021546Y0347242D01*
X0021445Y0347364D01*
X0021348Y0347487D01*
X0021253Y0347614D01*
X0021162Y0347742D01*
X0021073Y0347873D01*
X0020989Y0348006D01*
X0020907Y0348141D01*
X0020829Y0348278D01*
X0020755Y0348417D01*
X0020684Y0348558D01*
X0020616Y0348700D01*
X0020553Y0348845D01*
X0020492Y0348990D01*
X0020436Y0349138D01*
X0020383Y0349286D01*
X0020334Y0349436D01*
X0020289Y0349587D01*
X0020248Y0349740D01*
X0020210Y0349893D01*
X0020177Y0350047D01*
X0020147Y0350202D01*
X0020121Y0350357D01*
X0020100Y0350514D01*
X0020082Y0350670D01*
X0020068Y0350827D01*
X0020058Y0350985D01*
X0020052Y0351142D01*
X0020050Y0351300D01*
X0390050Y0351300D02*
X0390052Y0351458D01*
X0390058Y0351615D01*
X0390068Y0351773D01*
X0390082Y0351930D01*
X0390100Y0352086D01*
X0390121Y0352243D01*
X0390147Y0352398D01*
X0390177Y0352553D01*
X0390210Y0352707D01*
X0390248Y0352860D01*
X0390289Y0353013D01*
X0390334Y0353164D01*
X0390383Y0353314D01*
X0390436Y0353462D01*
X0390492Y0353610D01*
X0390553Y0353755D01*
X0390616Y0353900D01*
X0390684Y0354042D01*
X0390755Y0354183D01*
X0390829Y0354322D01*
X0390907Y0354459D01*
X0390989Y0354594D01*
X0391073Y0354727D01*
X0391162Y0354858D01*
X0391253Y0354986D01*
X0391348Y0355113D01*
X0391445Y0355236D01*
X0391546Y0355358D01*
X0391650Y0355476D01*
X0391757Y0355592D01*
X0391867Y0355705D01*
X0391979Y0355816D01*
X0392095Y0355923D01*
X0392213Y0356028D01*
X0392333Y0356130D01*
X0392456Y0356228D01*
X0392582Y0356324D01*
X0392710Y0356416D01*
X0392840Y0356505D01*
X0392972Y0356591D01*
X0393107Y0356673D01*
X0393244Y0356752D01*
X0393382Y0356827D01*
X0393522Y0356899D01*
X0393665Y0356967D01*
X0393808Y0357032D01*
X0393954Y0357093D01*
X0394101Y0357150D01*
X0394249Y0357204D01*
X0394399Y0357254D01*
X0394549Y0357300D01*
X0394701Y0357342D01*
X0394854Y0357381D01*
X0395008Y0357415D01*
X0395163Y0357446D01*
X0395318Y0357472D01*
X0395474Y0357495D01*
X0395631Y0357514D01*
X0395788Y0357529D01*
X0395945Y0357540D01*
X0396103Y0357547D01*
X0396261Y0357550D01*
X0396418Y0357549D01*
X0396576Y0357544D01*
X0396733Y0357535D01*
X0396891Y0357522D01*
X0397047Y0357505D01*
X0397204Y0357484D01*
X0397359Y0357460D01*
X0397514Y0357431D01*
X0397669Y0357398D01*
X0397822Y0357362D01*
X0397975Y0357321D01*
X0398126Y0357277D01*
X0398276Y0357229D01*
X0398425Y0357178D01*
X0398573Y0357122D01*
X0398719Y0357063D01*
X0398864Y0357000D01*
X0399007Y0356933D01*
X0399148Y0356863D01*
X0399287Y0356790D01*
X0399425Y0356713D01*
X0399561Y0356632D01*
X0399694Y0356548D01*
X0399825Y0356461D01*
X0399954Y0356370D01*
X0400081Y0356276D01*
X0400206Y0356179D01*
X0400327Y0356079D01*
X0400447Y0355976D01*
X0400563Y0355870D01*
X0400677Y0355761D01*
X0400789Y0355649D01*
X0400897Y0355535D01*
X0401002Y0355417D01*
X0401105Y0355297D01*
X0401204Y0355175D01*
X0401300Y0355050D01*
X0401393Y0354922D01*
X0401483Y0354793D01*
X0401569Y0354661D01*
X0401653Y0354527D01*
X0401732Y0354391D01*
X0401809Y0354253D01*
X0401881Y0354113D01*
X0401950Y0353971D01*
X0402016Y0353828D01*
X0402078Y0353683D01*
X0402136Y0353536D01*
X0402191Y0353388D01*
X0402242Y0353239D01*
X0402289Y0353088D01*
X0402332Y0352937D01*
X0402371Y0352784D01*
X0402407Y0352630D01*
X0402438Y0352476D01*
X0402466Y0352321D01*
X0402490Y0352165D01*
X0402510Y0352008D01*
X0402526Y0351851D01*
X0402538Y0351694D01*
X0402546Y0351537D01*
X0402550Y0351379D01*
X0402550Y0351221D01*
X0402546Y0351063D01*
X0402538Y0350906D01*
X0402526Y0350749D01*
X0402510Y0350592D01*
X0402490Y0350435D01*
X0402466Y0350279D01*
X0402438Y0350124D01*
X0402407Y0349970D01*
X0402371Y0349816D01*
X0402332Y0349663D01*
X0402289Y0349512D01*
X0402242Y0349361D01*
X0402191Y0349212D01*
X0402136Y0349064D01*
X0402078Y0348917D01*
X0402016Y0348772D01*
X0401950Y0348629D01*
X0401881Y0348487D01*
X0401809Y0348347D01*
X0401732Y0348209D01*
X0401653Y0348073D01*
X0401569Y0347939D01*
X0401483Y0347807D01*
X0401393Y0347678D01*
X0401300Y0347550D01*
X0401204Y0347425D01*
X0401105Y0347303D01*
X0401002Y0347183D01*
X0400897Y0347065D01*
X0400789Y0346951D01*
X0400677Y0346839D01*
X0400563Y0346730D01*
X0400447Y0346624D01*
X0400327Y0346521D01*
X0400206Y0346421D01*
X0400081Y0346324D01*
X0399954Y0346230D01*
X0399825Y0346139D01*
X0399694Y0346052D01*
X0399561Y0345968D01*
X0399425Y0345887D01*
X0399287Y0345810D01*
X0399148Y0345737D01*
X0399007Y0345667D01*
X0398864Y0345600D01*
X0398719Y0345537D01*
X0398573Y0345478D01*
X0398425Y0345422D01*
X0398276Y0345371D01*
X0398126Y0345323D01*
X0397975Y0345279D01*
X0397822Y0345238D01*
X0397669Y0345202D01*
X0397514Y0345169D01*
X0397359Y0345140D01*
X0397204Y0345116D01*
X0397047Y0345095D01*
X0396891Y0345078D01*
X0396733Y0345065D01*
X0396576Y0345056D01*
X0396418Y0345051D01*
X0396261Y0345050D01*
X0396103Y0345053D01*
X0395945Y0345060D01*
X0395788Y0345071D01*
X0395631Y0345086D01*
X0395474Y0345105D01*
X0395318Y0345128D01*
X0395163Y0345154D01*
X0395008Y0345185D01*
X0394854Y0345219D01*
X0394701Y0345258D01*
X0394549Y0345300D01*
X0394399Y0345346D01*
X0394249Y0345396D01*
X0394101Y0345450D01*
X0393954Y0345507D01*
X0393808Y0345568D01*
X0393665Y0345633D01*
X0393522Y0345701D01*
X0393382Y0345773D01*
X0393244Y0345848D01*
X0393107Y0345927D01*
X0392972Y0346009D01*
X0392840Y0346095D01*
X0392710Y0346184D01*
X0392582Y0346276D01*
X0392456Y0346372D01*
X0392333Y0346470D01*
X0392213Y0346572D01*
X0392095Y0346677D01*
X0391979Y0346784D01*
X0391867Y0346895D01*
X0391757Y0347008D01*
X0391650Y0347124D01*
X0391546Y0347242D01*
X0391445Y0347364D01*
X0391348Y0347487D01*
X0391253Y0347614D01*
X0391162Y0347742D01*
X0391073Y0347873D01*
X0390989Y0348006D01*
X0390907Y0348141D01*
X0390829Y0348278D01*
X0390755Y0348417D01*
X0390684Y0348558D01*
X0390616Y0348700D01*
X0390553Y0348845D01*
X0390492Y0348990D01*
X0390436Y0349138D01*
X0390383Y0349286D01*
X0390334Y0349436D01*
X0390289Y0349587D01*
X0390248Y0349740D01*
X0390210Y0349893D01*
X0390177Y0350047D01*
X0390147Y0350202D01*
X0390121Y0350357D01*
X0390100Y0350514D01*
X0390082Y0350670D01*
X0390068Y0350827D01*
X0390058Y0350985D01*
X0390052Y0351142D01*
X0390050Y0351300D01*
X0390050Y0021300D02*
X0390052Y0021458D01*
X0390058Y0021615D01*
X0390068Y0021773D01*
X0390082Y0021930D01*
X0390100Y0022086D01*
X0390121Y0022243D01*
X0390147Y0022398D01*
X0390177Y0022553D01*
X0390210Y0022707D01*
X0390248Y0022860D01*
X0390289Y0023013D01*
X0390334Y0023164D01*
X0390383Y0023314D01*
X0390436Y0023462D01*
X0390492Y0023610D01*
X0390553Y0023755D01*
X0390616Y0023900D01*
X0390684Y0024042D01*
X0390755Y0024183D01*
X0390829Y0024322D01*
X0390907Y0024459D01*
X0390989Y0024594D01*
X0391073Y0024727D01*
X0391162Y0024858D01*
X0391253Y0024986D01*
X0391348Y0025113D01*
X0391445Y0025236D01*
X0391546Y0025358D01*
X0391650Y0025476D01*
X0391757Y0025592D01*
X0391867Y0025705D01*
X0391979Y0025816D01*
X0392095Y0025923D01*
X0392213Y0026028D01*
X0392333Y0026130D01*
X0392456Y0026228D01*
X0392582Y0026324D01*
X0392710Y0026416D01*
X0392840Y0026505D01*
X0392972Y0026591D01*
X0393107Y0026673D01*
X0393244Y0026752D01*
X0393382Y0026827D01*
X0393522Y0026899D01*
X0393665Y0026967D01*
X0393808Y0027032D01*
X0393954Y0027093D01*
X0394101Y0027150D01*
X0394249Y0027204D01*
X0394399Y0027254D01*
X0394549Y0027300D01*
X0394701Y0027342D01*
X0394854Y0027381D01*
X0395008Y0027415D01*
X0395163Y0027446D01*
X0395318Y0027472D01*
X0395474Y0027495D01*
X0395631Y0027514D01*
X0395788Y0027529D01*
X0395945Y0027540D01*
X0396103Y0027547D01*
X0396261Y0027550D01*
X0396418Y0027549D01*
X0396576Y0027544D01*
X0396733Y0027535D01*
X0396891Y0027522D01*
X0397047Y0027505D01*
X0397204Y0027484D01*
X0397359Y0027460D01*
X0397514Y0027431D01*
X0397669Y0027398D01*
X0397822Y0027362D01*
X0397975Y0027321D01*
X0398126Y0027277D01*
X0398276Y0027229D01*
X0398425Y0027178D01*
X0398573Y0027122D01*
X0398719Y0027063D01*
X0398864Y0027000D01*
X0399007Y0026933D01*
X0399148Y0026863D01*
X0399287Y0026790D01*
X0399425Y0026713D01*
X0399561Y0026632D01*
X0399694Y0026548D01*
X0399825Y0026461D01*
X0399954Y0026370D01*
X0400081Y0026276D01*
X0400206Y0026179D01*
X0400327Y0026079D01*
X0400447Y0025976D01*
X0400563Y0025870D01*
X0400677Y0025761D01*
X0400789Y0025649D01*
X0400897Y0025535D01*
X0401002Y0025417D01*
X0401105Y0025297D01*
X0401204Y0025175D01*
X0401300Y0025050D01*
X0401393Y0024922D01*
X0401483Y0024793D01*
X0401569Y0024661D01*
X0401653Y0024527D01*
X0401732Y0024391D01*
X0401809Y0024253D01*
X0401881Y0024113D01*
X0401950Y0023971D01*
X0402016Y0023828D01*
X0402078Y0023683D01*
X0402136Y0023536D01*
X0402191Y0023388D01*
X0402242Y0023239D01*
X0402289Y0023088D01*
X0402332Y0022937D01*
X0402371Y0022784D01*
X0402407Y0022630D01*
X0402438Y0022476D01*
X0402466Y0022321D01*
X0402490Y0022165D01*
X0402510Y0022008D01*
X0402526Y0021851D01*
X0402538Y0021694D01*
X0402546Y0021537D01*
X0402550Y0021379D01*
X0402550Y0021221D01*
X0402546Y0021063D01*
X0402538Y0020906D01*
X0402526Y0020749D01*
X0402510Y0020592D01*
X0402490Y0020435D01*
X0402466Y0020279D01*
X0402438Y0020124D01*
X0402407Y0019970D01*
X0402371Y0019816D01*
X0402332Y0019663D01*
X0402289Y0019512D01*
X0402242Y0019361D01*
X0402191Y0019212D01*
X0402136Y0019064D01*
X0402078Y0018917D01*
X0402016Y0018772D01*
X0401950Y0018629D01*
X0401881Y0018487D01*
X0401809Y0018347D01*
X0401732Y0018209D01*
X0401653Y0018073D01*
X0401569Y0017939D01*
X0401483Y0017807D01*
X0401393Y0017678D01*
X0401300Y0017550D01*
X0401204Y0017425D01*
X0401105Y0017303D01*
X0401002Y0017183D01*
X0400897Y0017065D01*
X0400789Y0016951D01*
X0400677Y0016839D01*
X0400563Y0016730D01*
X0400447Y0016624D01*
X0400327Y0016521D01*
X0400206Y0016421D01*
X0400081Y0016324D01*
X0399954Y0016230D01*
X0399825Y0016139D01*
X0399694Y0016052D01*
X0399561Y0015968D01*
X0399425Y0015887D01*
X0399287Y0015810D01*
X0399148Y0015737D01*
X0399007Y0015667D01*
X0398864Y0015600D01*
X0398719Y0015537D01*
X0398573Y0015478D01*
X0398425Y0015422D01*
X0398276Y0015371D01*
X0398126Y0015323D01*
X0397975Y0015279D01*
X0397822Y0015238D01*
X0397669Y0015202D01*
X0397514Y0015169D01*
X0397359Y0015140D01*
X0397204Y0015116D01*
X0397047Y0015095D01*
X0396891Y0015078D01*
X0396733Y0015065D01*
X0396576Y0015056D01*
X0396418Y0015051D01*
X0396261Y0015050D01*
X0396103Y0015053D01*
X0395945Y0015060D01*
X0395788Y0015071D01*
X0395631Y0015086D01*
X0395474Y0015105D01*
X0395318Y0015128D01*
X0395163Y0015154D01*
X0395008Y0015185D01*
X0394854Y0015219D01*
X0394701Y0015258D01*
X0394549Y0015300D01*
X0394399Y0015346D01*
X0394249Y0015396D01*
X0394101Y0015450D01*
X0393954Y0015507D01*
X0393808Y0015568D01*
X0393665Y0015633D01*
X0393522Y0015701D01*
X0393382Y0015773D01*
X0393244Y0015848D01*
X0393107Y0015927D01*
X0392972Y0016009D01*
X0392840Y0016095D01*
X0392710Y0016184D01*
X0392582Y0016276D01*
X0392456Y0016372D01*
X0392333Y0016470D01*
X0392213Y0016572D01*
X0392095Y0016677D01*
X0391979Y0016784D01*
X0391867Y0016895D01*
X0391757Y0017008D01*
X0391650Y0017124D01*
X0391546Y0017242D01*
X0391445Y0017364D01*
X0391348Y0017487D01*
X0391253Y0017614D01*
X0391162Y0017742D01*
X0391073Y0017873D01*
X0390989Y0018006D01*
X0390907Y0018141D01*
X0390829Y0018278D01*
X0390755Y0018417D01*
X0390684Y0018558D01*
X0390616Y0018700D01*
X0390553Y0018845D01*
X0390492Y0018990D01*
X0390436Y0019138D01*
X0390383Y0019286D01*
X0390334Y0019436D01*
X0390289Y0019587D01*
X0390248Y0019740D01*
X0390210Y0019893D01*
X0390177Y0020047D01*
X0390147Y0020202D01*
X0390121Y0020357D01*
X0390100Y0020514D01*
X0390082Y0020670D01*
X0390068Y0020827D01*
X0390058Y0020985D01*
X0390052Y0021142D01*
X0390050Y0021300D01*
M02*
