%
M48
M72
T01C0.02400
T02C0.03200
T03C0.03600
T04C0.04000
T05C0.05500
T06C0.10500
T07C0.12500
%
T01
X83800Y93800
X101300Y97550
X106300Y100050
X127550Y118800
X142550Y115050
X147550Y123800
X167550Y125050
X171300Y115050
X140050Y85050
X130050Y87550
X126300Y141300
X121300Y141300
X131300Y151300
X147550Y165050
X162550Y168800
X175050Y182550
X157550Y148800
X100050Y172550
X126300Y202550
X132550Y203800
X132550Y213800
X138800Y217550
X146300Y220050
X147550Y231300
X162550Y225050
X183800Y227550
X205050Y225050
X225050Y252550
X210050Y268800
X182550Y258800
X177550Y258800
X181300Y252550
X165050Y265050
X160050Y255050
X150050Y252550
X105050Y256300
X95050Y266300
X66300Y250050
X75050Y230050
X95050Y222550
X122550Y291300
X125050Y317550
X116300Y328800
X151300Y315050
X163800Y318800
X176300Y320050
X182550Y316300
X192550Y330050
X196300Y326300
X217550Y325050
X217550Y315050
X241300Y332550
X255050Y276300
X247550Y272550
X266300Y245050
X282550Y236300
X282550Y226300
X280050Y218800
X266300Y217550
X247550Y221300
X247550Y237550
X287550Y252550
X301300Y255050
X290050Y270050
X315050Y270050
X322550Y262550
X322550Y257550
X335050Y271300
X345050Y255050
X351300Y235050
X331300Y230050
X317550Y231300
X310050Y200050
X296300Y153800
X262550Y150050
X247550Y153800
X255050Y165050
X231300Y167550
X292550Y115050
X302550Y118800
X330050Y137550
X370050Y141300
X345050Y88800
X330050Y85050
X337550Y38800
X200050Y81300
X63800Y141300
X62550Y151300
X56300Y317550
X76300Y317550
X321300Y317550
X341300Y305050
X363800Y296300
T02
X366300Y281300
X356300Y281300
X346300Y281300
X336300Y281300
X326300Y281300
X316300Y281300
X306300Y281300
X296300Y281300
X286300Y281300
X276300Y281300
X266300Y301300
X266300Y311300
X276300Y311300
X286300Y311300
X296300Y311300
X306300Y311300
X316300Y311300
X326300Y311300
X336300Y311300
X346300Y311300
X356300Y311300
X366300Y311300
X376300Y311300
X386300Y311300
X386300Y281300
X376300Y281300
X376300Y241300
X386300Y241300
X366300Y241300
X356300Y241300
X346300Y241300
X336300Y241300
X326300Y241300
X316300Y241300
X306300Y241300
X296300Y241300
X286300Y241300
X286300Y231300
X296300Y211300
X306300Y211300
X316300Y211300
X326300Y211300
X336300Y211300
X346300Y211300
X356300Y211300
X366300Y211300
X376300Y211300
X386300Y211300
X381300Y191300
X391300Y191300
X371300Y191300
X361300Y191300
X351300Y191300
X341300Y191300
X331300Y191300
X321300Y191300
X311300Y191300
X301300Y191300
X291300Y191300
X281300Y191300
X271300Y191300
X271300Y181300
X281300Y161300
X291300Y161300
X301300Y161300
X311300Y161300
X321300Y161300
X331300Y161300
X341300Y161300
X351300Y161300
X361300Y161300
X371300Y161300
X381300Y161300
X391300Y161300
X386300Y126300
X386300Y116300
X331300Y106300
X321300Y106300
X311300Y106300
X301300Y106300
X291300Y106300
X281300Y106300
X271300Y106300
X261300Y106300
X251300Y106300
X241300Y106300
X231300Y106300
X221300Y106300
X211300Y106300
X201300Y106300
X191300Y106300
X181300Y106300
X171300Y106300
X161300Y106300
X151300Y106300
X141300Y106300
X131300Y106300
X121300Y106300
X111300Y106300
X101300Y106300
X76300Y81300
X46300Y81300
X26300Y61300
X26300Y51300
X46300Y51300
X76300Y51300
X101300Y46300
X111300Y46300
X121300Y46300
X131300Y46300
X141300Y46300
X151300Y46300
X161300Y46300
X171300Y46300
X181300Y46300
X191300Y46300
X201300Y46300
X211300Y46300
X221300Y46300
X231300Y46300
X241300Y46300
X251300Y46300
X261300Y46300
X271300Y46300
X281300Y46300
X291300Y46300
X301300Y46300
X311300Y46300
X321300Y46300
X331300Y46300
X341300Y31300
X361300Y31300
X371300Y31300
X311300Y31300
X301300Y31300
X291300Y31300
X281300Y31300
X271300Y31300
X261300Y31300
X251300Y31300
X241300Y31300
X231300Y31300
X221300Y31300
X211300Y31300
X201300Y31300
X186300Y31300
X176300Y31300
X161300Y31300
X141300Y31300
X131300Y161300
X121300Y161300
X111300Y161300
X101300Y161300
X91300Y161300
X81300Y161300
X71300Y161300
X61300Y181300
X61300Y191300
X71300Y191300
X81300Y191300
X91300Y191300
X101300Y191300
X111300Y191300
X121300Y191300
X131300Y191300
X121300Y211300
X111300Y211300
X101300Y211300
X91300Y211300
X81300Y211300
X71300Y211300
X61300Y211300
X51300Y211300
X41300Y211300
X31300Y211300
X21300Y231300
X21300Y241300
X31300Y241300
X41300Y241300
X51300Y241300
X61300Y241300
X71300Y241300
X81300Y241300
X91300Y241300
X101300Y241300
X111300Y241300
X121300Y241300
X136300Y241300
X136300Y231300
X146300Y241300
X156300Y241300
X166300Y241300
X176300Y241300
X186300Y241300
X196300Y241300
X206300Y241300
X216300Y241300
X226300Y241300
X236300Y241300
X236300Y211300
X226300Y211300
X216300Y211300
X206300Y211300
X196300Y211300
X186300Y211300
X176300Y211300
X166300Y211300
X156300Y211300
X146300Y211300
X156300Y191300
X166300Y191300
X176300Y191300
X186300Y191300
X196300Y191300
X206300Y191300
X216300Y191300
X226300Y191300
X236300Y191300
X236300Y161300
X226300Y161300
X216300Y161300
X206300Y161300
X196300Y161300
X186300Y161300
X176300Y161300
X166300Y161300
X156300Y181300
X156300Y276300
X146300Y276300
X166300Y276300
X176300Y276300
X186300Y276300
X196300Y276300
X206300Y276300
X216300Y276300
X226300Y276300
X236300Y276300
X236300Y306300
X226300Y306300
X216300Y306300
X206300Y306300
X196300Y306300
X186300Y306300
X176300Y306300
X166300Y306300
X156300Y306300
X146300Y306300
X136300Y306300
X136300Y296300
X121300Y306300
X111300Y306300
X101300Y306300
X91300Y306300
X81300Y306300
X71300Y306300
X61300Y306300
X51300Y306300
X41300Y306300
X31300Y306300
X21300Y306300
X21300Y296300
X31300Y276300
X41300Y276300
X51300Y276300
X61300Y276300
X71300Y276300
X81300Y276300
X91300Y276300
X101300Y276300
X111300Y276300
X121300Y276300
T03
X251300Y266300
X251300Y256300
X266300Y256300
X266300Y266300
T04
X266300Y336300
X266300Y346300
X256300Y346300
X256300Y336300
X246300Y336300
X246300Y346300
X236300Y346300
X236300Y336300
X226300Y336300
X226300Y346300
X216300Y346300
X216300Y336300
X206300Y336300
X206300Y346300
X196300Y346300
X196300Y336300
X186300Y336300
X186300Y346300
X176300Y346300
X176300Y336300
X166300Y336300
X166300Y346300
X156300Y346300
X156300Y336300
X146300Y336300
X146300Y346300
X136300Y346300
X136300Y336300
X126300Y336300
X126300Y346300
X116300Y346300
X116300Y336300
X106300Y336300
X106300Y346300
X96300Y346300
X96300Y336300
X86300Y336300
X86300Y346300
X76300Y346300
X76300Y336300
X66300Y336300
X66300Y346300
X56300Y346300
X56300Y336300
X46300Y336300
X46300Y346300
X26400Y145150
X26400Y127450
X26300Y101300
X26300Y91300
X26300Y81300
X276300Y336300
X276300Y346300
X286300Y346300
X286300Y336300
X296300Y336300
X296300Y346300
X306300Y346300
X306300Y336300
X316300Y336300
X316300Y346300
X326300Y346300
X326300Y336300
X336300Y336300
X336300Y346300
X346300Y346300
X346300Y336300
X356300Y336300
X356300Y346300
X366300Y346300
X366300Y336300
X376300Y336300
X376300Y346300
T05
X36200Y150100
X36200Y122500
T06
X366300Y95198
X378111Y76300
T07
X26300Y21300
X354095Y76300
X396300Y21300
X396300Y351300
X26300Y351300
M30
