G75*
%MOIN*%
%OFA0B0*%
%FSLAX24Y24*%
%IPPOS*%
%LPD*%
%AMOC8*
5,1,8,0,0,1.08239X$1,22.5*
%
%ADD10C,0.0000*%
D10*
X000680Y000680D02*
X000680Y019680D01*
X039680Y019680D01*
X039680Y000680D01*
X000680Y000680D01*
X001055Y002180D02*
X001057Y002230D01*
X001063Y002279D01*
X001073Y002328D01*
X001086Y002375D01*
X001104Y002422D01*
X001125Y002467D01*
X001149Y002510D01*
X001177Y002551D01*
X001208Y002590D01*
X001242Y002626D01*
X001279Y002660D01*
X001319Y002690D01*
X001360Y002717D01*
X001404Y002741D01*
X001449Y002761D01*
X001496Y002777D01*
X001544Y002790D01*
X001593Y002799D01*
X001643Y002804D01*
X001692Y002805D01*
X001742Y002802D01*
X001791Y002795D01*
X001840Y002784D01*
X001887Y002770D01*
X001933Y002751D01*
X001978Y002729D01*
X002021Y002704D01*
X002061Y002675D01*
X002099Y002643D01*
X002135Y002609D01*
X002168Y002571D01*
X002197Y002531D01*
X002223Y002489D01*
X002246Y002445D01*
X002265Y002399D01*
X002281Y002352D01*
X002293Y002303D01*
X002301Y002254D01*
X002305Y002205D01*
X002305Y002155D01*
X002301Y002106D01*
X002293Y002057D01*
X002281Y002008D01*
X002265Y001961D01*
X002246Y001915D01*
X002223Y001871D01*
X002197Y001829D01*
X002168Y001789D01*
X002135Y001751D01*
X002099Y001717D01*
X002061Y001685D01*
X002021Y001656D01*
X001978Y001631D01*
X001933Y001609D01*
X001887Y001590D01*
X001840Y001576D01*
X001791Y001565D01*
X001742Y001558D01*
X001692Y001555D01*
X001643Y001556D01*
X001593Y001561D01*
X001544Y001570D01*
X001496Y001583D01*
X001449Y001599D01*
X001404Y001619D01*
X001360Y001643D01*
X001319Y001670D01*
X001279Y001700D01*
X001242Y001734D01*
X001208Y001770D01*
X001177Y001809D01*
X001149Y001850D01*
X001125Y001893D01*
X001104Y001938D01*
X001086Y001985D01*
X001073Y002032D01*
X001063Y002081D01*
X001057Y002130D01*
X001055Y002180D01*
X001055Y018180D02*
X001057Y018230D01*
X001063Y018279D01*
X001073Y018328D01*
X001086Y018375D01*
X001104Y018422D01*
X001125Y018467D01*
X001149Y018510D01*
X001177Y018551D01*
X001208Y018590D01*
X001242Y018626D01*
X001279Y018660D01*
X001319Y018690D01*
X001360Y018717D01*
X001404Y018741D01*
X001449Y018761D01*
X001496Y018777D01*
X001544Y018790D01*
X001593Y018799D01*
X001643Y018804D01*
X001692Y018805D01*
X001742Y018802D01*
X001791Y018795D01*
X001840Y018784D01*
X001887Y018770D01*
X001933Y018751D01*
X001978Y018729D01*
X002021Y018704D01*
X002061Y018675D01*
X002099Y018643D01*
X002135Y018609D01*
X002168Y018571D01*
X002197Y018531D01*
X002223Y018489D01*
X002246Y018445D01*
X002265Y018399D01*
X002281Y018352D01*
X002293Y018303D01*
X002301Y018254D01*
X002305Y018205D01*
X002305Y018155D01*
X002301Y018106D01*
X002293Y018057D01*
X002281Y018008D01*
X002265Y017961D01*
X002246Y017915D01*
X002223Y017871D01*
X002197Y017829D01*
X002168Y017789D01*
X002135Y017751D01*
X002099Y017717D01*
X002061Y017685D01*
X002021Y017656D01*
X001978Y017631D01*
X001933Y017609D01*
X001887Y017590D01*
X001840Y017576D01*
X001791Y017565D01*
X001742Y017558D01*
X001692Y017555D01*
X001643Y017556D01*
X001593Y017561D01*
X001544Y017570D01*
X001496Y017583D01*
X001449Y017599D01*
X001404Y017619D01*
X001360Y017643D01*
X001319Y017670D01*
X001279Y017700D01*
X001242Y017734D01*
X001208Y017770D01*
X001177Y017809D01*
X001149Y017850D01*
X001125Y017893D01*
X001104Y017938D01*
X001086Y017985D01*
X001073Y018032D01*
X001063Y018081D01*
X001057Y018130D01*
X001055Y018180D01*
X038055Y018180D02*
X038057Y018230D01*
X038063Y018279D01*
X038073Y018328D01*
X038086Y018375D01*
X038104Y018422D01*
X038125Y018467D01*
X038149Y018510D01*
X038177Y018551D01*
X038208Y018590D01*
X038242Y018626D01*
X038279Y018660D01*
X038319Y018690D01*
X038360Y018717D01*
X038404Y018741D01*
X038449Y018761D01*
X038496Y018777D01*
X038544Y018790D01*
X038593Y018799D01*
X038643Y018804D01*
X038692Y018805D01*
X038742Y018802D01*
X038791Y018795D01*
X038840Y018784D01*
X038887Y018770D01*
X038933Y018751D01*
X038978Y018729D01*
X039021Y018704D01*
X039061Y018675D01*
X039099Y018643D01*
X039135Y018609D01*
X039168Y018571D01*
X039197Y018531D01*
X039223Y018489D01*
X039246Y018445D01*
X039265Y018399D01*
X039281Y018352D01*
X039293Y018303D01*
X039301Y018254D01*
X039305Y018205D01*
X039305Y018155D01*
X039301Y018106D01*
X039293Y018057D01*
X039281Y018008D01*
X039265Y017961D01*
X039246Y017915D01*
X039223Y017871D01*
X039197Y017829D01*
X039168Y017789D01*
X039135Y017751D01*
X039099Y017717D01*
X039061Y017685D01*
X039021Y017656D01*
X038978Y017631D01*
X038933Y017609D01*
X038887Y017590D01*
X038840Y017576D01*
X038791Y017565D01*
X038742Y017558D01*
X038692Y017555D01*
X038643Y017556D01*
X038593Y017561D01*
X038544Y017570D01*
X038496Y017583D01*
X038449Y017599D01*
X038404Y017619D01*
X038360Y017643D01*
X038319Y017670D01*
X038279Y017700D01*
X038242Y017734D01*
X038208Y017770D01*
X038177Y017809D01*
X038149Y017850D01*
X038125Y017893D01*
X038104Y017938D01*
X038086Y017985D01*
X038073Y018032D01*
X038063Y018081D01*
X038057Y018130D01*
X038055Y018180D01*
X038055Y002180D02*
X038057Y002230D01*
X038063Y002279D01*
X038073Y002328D01*
X038086Y002375D01*
X038104Y002422D01*
X038125Y002467D01*
X038149Y002510D01*
X038177Y002551D01*
X038208Y002590D01*
X038242Y002626D01*
X038279Y002660D01*
X038319Y002690D01*
X038360Y002717D01*
X038404Y002741D01*
X038449Y002761D01*
X038496Y002777D01*
X038544Y002790D01*
X038593Y002799D01*
X038643Y002804D01*
X038692Y002805D01*
X038742Y002802D01*
X038791Y002795D01*
X038840Y002784D01*
X038887Y002770D01*
X038933Y002751D01*
X038978Y002729D01*
X039021Y002704D01*
X039061Y002675D01*
X039099Y002643D01*
X039135Y002609D01*
X039168Y002571D01*
X039197Y002531D01*
X039223Y002489D01*
X039246Y002445D01*
X039265Y002399D01*
X039281Y002352D01*
X039293Y002303D01*
X039301Y002254D01*
X039305Y002205D01*
X039305Y002155D01*
X039301Y002106D01*
X039293Y002057D01*
X039281Y002008D01*
X039265Y001961D01*
X039246Y001915D01*
X039223Y001871D01*
X039197Y001829D01*
X039168Y001789D01*
X039135Y001751D01*
X039099Y001717D01*
X039061Y001685D01*
X039021Y001656D01*
X038978Y001631D01*
X038933Y001609D01*
X038887Y001590D01*
X038840Y001576D01*
X038791Y001565D01*
X038742Y001558D01*
X038692Y001555D01*
X038643Y001556D01*
X038593Y001561D01*
X038544Y001570D01*
X038496Y001583D01*
X038449Y001599D01*
X038404Y001619D01*
X038360Y001643D01*
X038319Y001670D01*
X038279Y001700D01*
X038242Y001734D01*
X038208Y001770D01*
X038177Y001809D01*
X038149Y001850D01*
X038125Y001893D01*
X038104Y001938D01*
X038086Y001985D01*
X038073Y002032D01*
X038063Y002081D01*
X038057Y002130D01*
X038055Y002180D01*
M02*
