%
M48
M72
T01C0.0240
T02C0.0360
T03C0.0400
T04C0.1250
%
T01
X9618Y4743
X11368Y4743
X8118Y6618
X7680Y7180
X7243Y6868
X6118Y7493
X8493Y7555
X8743Y7993
X9118Y8493
X9743Y7930
X10118Y8868
X10368Y9305
X11118Y9243
X11743Y8868
X11680Y10368
X10743Y10680
X10243Y10180
X12368Y11118
X12743Y11493
X13118Y11993
X14243Y12868
X14743Y12868
X15743Y12305
X16243Y12118
X17118Y11368
X15243Y10743
X12993Y13243
X13305Y13618
X14243Y14555
X14868Y15743
X15618Y16493
X16680Y16493
X17868Y17055
X19305Y17180
X19805Y16618
X20555Y16618
X21180Y17055
X22180Y16618
X21805Y16243
X22555Y15993
X24055Y15805
X23118Y14868
X22868Y14180
X25493Y14493
X25493Y15055
X26743Y15805
X25493Y16618
X23180Y18305
X19493Y16243
X19243Y15805
X19805Y14805
X26493Y12680
X27118Y12555
X27680Y12993
X28180Y12993
X27118Y13055
X27680Y13618
X26743Y14180
X28055Y11993
X28555Y11243
X28243Y10868
X28555Y10493
X28430Y9993
X26805Y9993
X26180Y10180
X25493Y10743
X26618Y11618
X23680Y10368
X29305Y9055
X30180Y9430
X31118Y9055
X30243Y8680
X31055Y8118
X30680Y7493
X31305Y7368
X32680Y7743
X32680Y8243
X34118Y8680
X29993Y11055
X35805Y12118
X33430Y15055
X31993Y15430
X34493Y16993
X23493Y7180
X22868Y6805
X25305Y5868
X25618Y6243
X26430Y6430
X26430Y5930
X26930Y5930
X28430Y6680
X28930Y6680
X30430Y5680
X28930Y4868
X29305Y3243
X27118Y3243
X25680Y4180
X23993Y3993
X23680Y4368
X21993Y4368
X21618Y3743
X20743Y3368
X19805Y5118
X19805Y5618
X18868Y5868
X18180Y5868
X17555Y6243
X17930Y6618
X17180Y6805
X16930Y5118
X17118Y4118
X17055Y3555
X15055Y3680
X22555Y5493
X24055Y5368
X32180Y4243
X33493Y3805
X35055Y3430
X37243Y1118
X32555Y6055
X11868Y14743
X11680Y15243
X11493Y16493
X9743Y16618
X8493Y15743
X6868Y16868
X5743Y14555
X7743Y13180
X6868Y12805
X9118Y12493
X9243Y19118
X6493Y5680
T02
X23680Y2680
X24680Y2680
X24680Y1680
X23680Y1680
X16680Y17680
X15680Y17680
X15680Y18680
X16680Y18680
T03
X3680Y1680
X4680Y1680
X5680Y1680
X6680Y1680
X7680Y1680
X8680Y1680
X9680Y1680
X10680Y1680
X11680Y1680
X12680Y1680
X13680Y1680
X14680Y1680
X15680Y1680
X16680Y1680
X17680Y1680
X18680Y1680
X19680Y1680
X20680Y1680
X21680Y1680
X22680Y1680
X22680Y2680
X21680Y2680
X20680Y2680
X19680Y2680
X18680Y2680
X17680Y2680
X16680Y2680
X15680Y2680
X14680Y2680
X13680Y2680
X12680Y2680
X11680Y2680
X10680Y2680
X9680Y2680
X8680Y2680
X7680Y2680
X6680Y2680
X5680Y2680
X4680Y2680
X3680Y2680
X25680Y2680
X26680Y2680
X27680Y2680
X28680Y2680
X29680Y2680
X30680Y2680
X31680Y2680
X32680Y2680
X33680Y2680
X34680Y2680
X35680Y2680
X36680Y2680
X36680Y1680
X35680Y1680
X34680Y1680
X33680Y1680
X32680Y1680
X31680Y1680
X30680Y1680
X29680Y1680
X28680Y1680
X27680Y1680
X26680Y1680
X25680Y1680
X25680Y17680
X24680Y17680
X23680Y17680
X22680Y17680
X21680Y17680
X20680Y17680
X19680Y17680
X18680Y17680
X17680Y17680
X17680Y18680
X18680Y18680
X19680Y18680
X20680Y18680
X21680Y18680
X22680Y18680
X23680Y18680
X24680Y18680
X25680Y18680
X26680Y18680
X27680Y18680
X28680Y18680
X29680Y18680
X30680Y18680
X31680Y18680
X32680Y18680
X33680Y18680
X34680Y18680
X35680Y18680
X36680Y18680
X36680Y17680
X35680Y17680
X34680Y17680
X33680Y17680
X32680Y17680
X31680Y17680
X30680Y17680
X29680Y17680
X28680Y17680
X27680Y17680
X26680Y17680
X14680Y17680
X13680Y17680
X12680Y17680
X11680Y17680
X10680Y17680
X9680Y17680
X8680Y17680
X7680Y17680
X6680Y17680
X5680Y17680
X4680Y17680
X3680Y17680
X3680Y18680
X4680Y18680
X5680Y18680
X6680Y18680
X7680Y18680
X8680Y18680
X9680Y18680
X10680Y18680
X11680Y18680
X12680Y18680
X13680Y18680
X14680Y18680
T04
X1680Y18180
X1680Y2180
X38680Y2180
X38680Y18180
M30
