G75*
%MOIN*%
%OFA0B0*%
%FSLAX24Y24*%
%IPPOS*%
%LPD*%
%AMOC8*
5,1,8,0,0,1.08239X$1,22.5*
%
%ADD10OC8,0.0600*%
%ADD11OC8,0.0560*%
%ADD12C,0.0200*%
%ADD13C,0.0400*%
%ADD14C,0.0160*%
%ADD15C,0.0100*%
D10*
X003680Y001680D03*
X004680Y001680D03*
X005680Y001680D03*
X006680Y001680D03*
X007680Y001680D03*
X008680Y001680D03*
X009680Y001680D03*
X010680Y001680D03*
X011680Y001680D03*
X012680Y001680D03*
X013680Y001680D03*
X014680Y001680D03*
X015680Y001680D03*
X016680Y001680D03*
X017680Y001680D03*
X018680Y001680D03*
X019680Y001680D03*
X020680Y001680D03*
X021680Y001680D03*
X022680Y001680D03*
X022680Y002680D03*
X021680Y002680D03*
X020680Y002680D03*
X019680Y002680D03*
X018680Y002680D03*
X017680Y002680D03*
X016680Y002680D03*
X015680Y002680D03*
X014680Y002680D03*
X013680Y002680D03*
X012680Y002680D03*
X011680Y002680D03*
X010680Y002680D03*
X009680Y002680D03*
X008680Y002680D03*
X007680Y002680D03*
X006680Y002680D03*
X005680Y002680D03*
X004680Y002680D03*
X003680Y002680D03*
X025680Y002680D03*
X026680Y002680D03*
X027680Y002680D03*
X028680Y002680D03*
X029680Y002680D03*
X030680Y002680D03*
X031680Y002680D03*
X032680Y002680D03*
X033680Y002680D03*
X034680Y002680D03*
X035680Y002680D03*
X036680Y002680D03*
X036680Y001680D03*
X035680Y001680D03*
X034680Y001680D03*
X033680Y001680D03*
X032680Y001680D03*
X031680Y001680D03*
X030680Y001680D03*
X029680Y001680D03*
X028680Y001680D03*
X027680Y001680D03*
X026680Y001680D03*
X025680Y001680D03*
X025680Y017680D03*
X024680Y017680D03*
X023680Y017680D03*
X022680Y017680D03*
X021680Y017680D03*
X020680Y017680D03*
X019680Y017680D03*
X018680Y017680D03*
X017680Y017680D03*
X017680Y018680D03*
X018680Y018680D03*
X019680Y018680D03*
X020680Y018680D03*
X021680Y018680D03*
X022680Y018680D03*
X023680Y018680D03*
X024680Y018680D03*
X025680Y018680D03*
X026680Y018680D03*
X027680Y018680D03*
X028680Y018680D03*
X029680Y018680D03*
X030680Y018680D03*
X031680Y018680D03*
X032680Y018680D03*
X033680Y018680D03*
X034680Y018680D03*
X035680Y018680D03*
X036680Y018680D03*
X036680Y017680D03*
X035680Y017680D03*
X034680Y017680D03*
X033680Y017680D03*
X032680Y017680D03*
X031680Y017680D03*
X030680Y017680D03*
X029680Y017680D03*
X028680Y017680D03*
X027680Y017680D03*
X026680Y017680D03*
X014680Y017680D03*
X013680Y017680D03*
X012680Y017680D03*
X011680Y017680D03*
X010680Y017680D03*
X009680Y017680D03*
X008680Y017680D03*
X007680Y017680D03*
X006680Y017680D03*
X005680Y017680D03*
X004680Y017680D03*
X003680Y017680D03*
X003680Y018680D03*
X004680Y018680D03*
X005680Y018680D03*
X006680Y018680D03*
X007680Y018680D03*
X008680Y018680D03*
X009680Y018680D03*
X010680Y018680D03*
X011680Y018680D03*
X012680Y018680D03*
X013680Y018680D03*
X014680Y018680D03*
D11*
X015680Y018680D03*
X016680Y018680D03*
X016680Y017680D03*
X015680Y017680D03*
X023680Y002680D03*
X024680Y002680D03*
X024680Y001680D03*
X023680Y001680D03*
D12*
X023680Y002680D01*
X021680Y001680D02*
X021180Y002180D01*
X021180Y017055D01*
X019305Y017180D02*
X019180Y017305D01*
X019180Y018180D01*
X018680Y018680D01*
X006680Y018680D02*
X006180Y018180D01*
X003180Y018180D01*
X003180Y002180D01*
X003680Y001680D01*
X037243Y001118D02*
X037243Y018118D01*
X036680Y018680D01*
D13*
X034493Y016993D03*
X031993Y015430D03*
X033430Y015055D03*
X028180Y012993D03*
X027680Y012993D03*
X027118Y013055D03*
X026493Y012680D03*
X027118Y012555D03*
X028055Y011993D03*
X028555Y011243D03*
X028243Y010868D03*
X028555Y010493D03*
X028430Y009993D03*
X026805Y009993D03*
X026180Y010180D03*
X025493Y010743D03*
X026618Y011618D03*
X023680Y010368D03*
X029305Y009055D03*
X030180Y009430D03*
X031118Y009055D03*
X030243Y008680D03*
X031055Y008118D03*
X030680Y007493D03*
X031305Y007368D03*
X032680Y007743D03*
X032680Y008243D03*
X034118Y008680D03*
X029993Y011055D03*
X027680Y013618D03*
X026743Y014180D03*
X025493Y014493D03*
X025493Y015055D03*
X026743Y015805D03*
X025493Y016618D03*
X024055Y015805D03*
X023118Y014868D03*
X022868Y014180D03*
X019805Y014805D03*
X019243Y015805D03*
X019493Y016243D03*
X019805Y016618D03*
X020555Y016618D03*
X021180Y017055D03*
X022180Y016618D03*
X021805Y016243D03*
X022555Y015993D03*
X019305Y017180D03*
X017868Y017055D03*
X016680Y016493D03*
X015618Y016493D03*
X014868Y015743D03*
X014243Y014555D03*
X013305Y013618D03*
X012993Y013243D03*
X014243Y012868D03*
X014743Y012868D03*
X015743Y012305D03*
X016243Y012118D03*
X017118Y011368D03*
X015243Y010743D03*
X013118Y011993D03*
X012743Y011493D03*
X012368Y011118D03*
X011680Y010368D03*
X010743Y010680D03*
X010243Y010180D03*
X010368Y009305D03*
X010118Y008868D03*
X011118Y009243D03*
X011743Y008868D03*
X009743Y007930D03*
X009118Y008493D03*
X008743Y007993D03*
X008493Y007555D03*
X007680Y007180D03*
X007243Y006868D03*
X008118Y006618D03*
X006493Y005680D03*
X009618Y004743D03*
X011368Y004743D03*
X015055Y003680D03*
X017055Y003555D03*
X017118Y004118D03*
X016930Y005118D03*
X018180Y005868D03*
X018868Y005868D03*
X019805Y005618D03*
X019805Y005118D03*
X021993Y004368D03*
X021618Y003743D03*
X020743Y003368D03*
X023680Y004368D03*
X023993Y003993D03*
X025680Y004180D03*
X027118Y003243D03*
X029305Y003243D03*
X032180Y004243D03*
X033493Y003805D03*
X035055Y003430D03*
X037243Y001118D03*
X028930Y004868D03*
X030430Y005680D03*
X028930Y006680D03*
X028430Y006680D03*
X026930Y005930D03*
X026430Y005930D03*
X026430Y006430D03*
X025618Y006243D03*
X025305Y005868D03*
X024055Y005368D03*
X022555Y005493D03*
X022868Y006805D03*
X023493Y007180D03*
X017930Y006618D03*
X017555Y006243D03*
X017180Y006805D03*
X006118Y007493D03*
X009118Y012493D03*
X007743Y013180D03*
X006868Y012805D03*
X005743Y014555D03*
X008493Y015743D03*
X009743Y016618D03*
X011493Y016493D03*
X011680Y015243D03*
X011868Y014743D03*
X006868Y016868D03*
X009243Y019118D03*
X023180Y018305D03*
X035805Y012118D03*
X032555Y006055D03*
D14*
X000960Y001620D02*
X000960Y000960D01*
X007478Y000960D01*
X007470Y000968D01*
X007044Y001394D01*
X006871Y001220D01*
X006489Y001220D01*
X006220Y001489D01*
X006220Y001871D01*
X006257Y001908D01*
X006103Y001908D01*
X006140Y001871D01*
X006140Y001489D01*
X005871Y001220D01*
X005489Y001220D01*
X005220Y001489D01*
X005220Y001871D01*
X005257Y001908D01*
X005156Y001908D01*
X004843Y002220D01*
X004489Y002220D01*
X004220Y002489D01*
X004220Y002871D01*
X004489Y003140D01*
X004871Y003140D01*
X005140Y002871D01*
X005140Y002517D01*
X005329Y002327D01*
X005382Y002327D01*
X005220Y002489D01*
X005220Y002871D01*
X005489Y003140D01*
X005843Y003140D01*
X006283Y003579D01*
X006283Y005381D01*
X006187Y005476D01*
X006133Y005608D01*
X006133Y005752D01*
X006187Y005884D01*
X006289Y005985D01*
X006421Y006040D01*
X006564Y006040D01*
X006658Y006001D01*
X006658Y012506D01*
X006562Y012601D01*
X006508Y012733D01*
X006508Y012877D01*
X006562Y013009D01*
X006664Y013110D01*
X006796Y013165D01*
X006939Y013165D01*
X007071Y013110D01*
X007173Y013009D01*
X007227Y012877D01*
X007227Y012733D01*
X007173Y012601D01*
X007077Y012506D01*
X007077Y007189D01*
X007171Y007227D01*
X007314Y007227D01*
X007320Y007225D01*
X007320Y007252D01*
X007375Y007384D01*
X007476Y007485D01*
X007608Y007540D01*
X007752Y007540D01*
X007884Y007485D01*
X007908Y007462D01*
X007908Y012859D01*
X007814Y012820D01*
X007671Y012820D01*
X007539Y012875D01*
X007437Y012976D01*
X007383Y013108D01*
X007383Y013252D01*
X007437Y013384D01*
X007533Y013479D01*
X007533Y017220D01*
X007489Y017220D01*
X007220Y017489D01*
X007220Y017871D01*
X007489Y018140D01*
X007871Y018140D01*
X007908Y018103D01*
X007908Y018156D01*
X007843Y018220D01*
X007489Y018220D01*
X007220Y018489D01*
X007220Y018871D01*
X007489Y019140D01*
X007871Y019140D01*
X008140Y018871D01*
X008140Y018517D01*
X008327Y018329D01*
X008327Y017978D01*
X008489Y018140D01*
X008871Y018140D01*
X009033Y017978D01*
X009033Y018354D01*
X008879Y018200D01*
X008700Y018200D01*
X008700Y018660D01*
X008660Y018660D01*
X008660Y018200D01*
X008481Y018200D01*
X008200Y018481D01*
X008200Y018660D01*
X008660Y018660D01*
X008660Y018700D01*
X008660Y019160D01*
X008481Y019160D01*
X008200Y018879D01*
X008200Y018700D01*
X008660Y018700D01*
X008700Y018700D01*
X008700Y019160D01*
X008879Y019160D01*
X008883Y019156D01*
X008883Y019189D01*
X008937Y019321D01*
X009016Y019400D01*
X000960Y019400D01*
X000960Y018740D01*
X001167Y018947D01*
X001500Y019085D01*
X001860Y019085D01*
X002193Y018947D01*
X002447Y018693D01*
X002585Y018360D01*
X002585Y018000D01*
X002447Y017667D01*
X002193Y017413D01*
X001860Y017275D01*
X001500Y017275D01*
X001167Y017413D01*
X000960Y017620D01*
X000960Y002740D01*
X001167Y002947D01*
X001500Y003085D01*
X001860Y003085D01*
X002193Y002947D01*
X002447Y002693D01*
X002585Y002360D01*
X002585Y002000D01*
X002447Y001667D01*
X002193Y001413D01*
X001860Y001275D01*
X001500Y001275D01*
X001167Y001413D01*
X000960Y001620D01*
X000960Y001497D02*
X001083Y001497D01*
X000960Y001339D02*
X001347Y001339D01*
X000960Y001180D02*
X007258Y001180D01*
X007100Y001339D02*
X006989Y001339D01*
X007417Y001021D02*
X000960Y001021D01*
X002013Y001339D02*
X003343Y001339D01*
X003481Y001200D02*
X003200Y001481D01*
X003200Y001660D01*
X003660Y001660D01*
X003700Y001660D01*
X003700Y001700D01*
X004160Y001700D01*
X004160Y001879D01*
X003879Y002160D01*
X003700Y002160D01*
X003700Y001700D01*
X003660Y001700D01*
X003660Y002160D01*
X003481Y002160D01*
X003200Y001879D01*
X003200Y001700D01*
X003660Y001700D01*
X003660Y001660D01*
X003660Y001200D01*
X003481Y001200D01*
X003700Y001200D02*
X003879Y001200D01*
X004160Y001481D01*
X004160Y001660D01*
X003700Y001660D01*
X003700Y001200D01*
X003700Y001339D02*
X003660Y001339D01*
X003660Y001497D02*
X003700Y001497D01*
X003700Y001656D02*
X003660Y001656D01*
X003660Y001814D02*
X003700Y001814D01*
X003700Y001973D02*
X003660Y001973D01*
X003660Y002131D02*
X003700Y002131D01*
X003871Y002220D02*
X004140Y002489D01*
X004140Y002843D01*
X005142Y003845D01*
X005265Y003968D01*
X005265Y013781D01*
X005679Y014195D01*
X005814Y014195D01*
X005908Y014234D01*
X005908Y007792D01*
X005812Y007696D01*
X005758Y007564D01*
X005758Y007421D01*
X005812Y007289D01*
X005914Y007187D01*
X006046Y007133D01*
X006189Y007133D01*
X006321Y007187D01*
X006423Y007289D01*
X006477Y007421D01*
X006477Y007564D01*
X006423Y007696D01*
X006327Y007792D01*
X006327Y015329D01*
X006204Y015452D01*
X004140Y017517D01*
X004140Y017871D01*
X003871Y018140D01*
X003489Y018140D01*
X003220Y017871D01*
X003220Y017489D01*
X003489Y017220D01*
X003843Y017220D01*
X005908Y015156D01*
X005908Y014876D01*
X005814Y014915D01*
X005671Y014915D01*
X005539Y014860D01*
X005437Y014759D01*
X005383Y014627D01*
X005383Y014492D01*
X004845Y013954D01*
X004845Y004142D01*
X003843Y003140D01*
X003489Y003140D01*
X003220Y002871D01*
X003220Y002489D01*
X003489Y002220D01*
X003871Y002220D01*
X003908Y002131D02*
X004480Y002131D01*
X004489Y002140D02*
X004220Y001871D01*
X004220Y001489D01*
X004489Y001220D01*
X004871Y001220D01*
X005140Y001489D01*
X005140Y001871D01*
X004871Y002140D01*
X004489Y002140D01*
X004420Y002290D02*
X003940Y002290D01*
X004099Y002448D02*
X004261Y002448D01*
X004220Y002607D02*
X004140Y002607D01*
X004140Y002765D02*
X004220Y002765D01*
X004220Y002924D02*
X004273Y002924D01*
X004379Y003082D02*
X004431Y003082D01*
X004537Y003241D02*
X005944Y003241D01*
X006102Y003399D02*
X004696Y003399D01*
X004854Y003558D02*
X006261Y003558D01*
X006283Y003716D02*
X005013Y003716D01*
X005171Y003875D02*
X006283Y003875D01*
X006283Y004033D02*
X005265Y004033D01*
X005265Y004192D02*
X006283Y004192D01*
X006283Y004350D02*
X005265Y004350D01*
X005265Y004509D02*
X006283Y004509D01*
X006283Y004667D02*
X005265Y004667D01*
X005265Y004826D02*
X006283Y004826D01*
X006283Y004984D02*
X005265Y004984D01*
X005265Y005143D02*
X006283Y005143D01*
X006283Y005301D02*
X005265Y005301D01*
X005265Y005460D02*
X006204Y005460D01*
X006133Y005618D02*
X005265Y005618D01*
X005265Y005777D02*
X006143Y005777D01*
X006238Y005935D02*
X005265Y005935D01*
X005265Y006094D02*
X006658Y006094D01*
X006658Y006252D02*
X005265Y006252D01*
X005265Y006411D02*
X006658Y006411D01*
X006658Y006569D02*
X005265Y006569D01*
X005265Y006728D02*
X006658Y006728D01*
X006658Y006886D02*
X005265Y006886D01*
X005265Y007045D02*
X006658Y007045D01*
X006658Y007203D02*
X006337Y007203D01*
X006453Y007362D02*
X006658Y007362D01*
X006658Y007520D02*
X006477Y007520D01*
X006430Y007679D02*
X006658Y007679D01*
X006658Y007837D02*
X006327Y007837D01*
X006327Y007996D02*
X006658Y007996D01*
X006658Y008154D02*
X006327Y008154D01*
X006327Y008313D02*
X006658Y008313D01*
X006658Y008471D02*
X006327Y008471D01*
X006327Y008630D02*
X006658Y008630D01*
X006658Y008788D02*
X006327Y008788D01*
X006327Y008947D02*
X006658Y008947D01*
X006658Y009105D02*
X006327Y009105D01*
X006327Y009264D02*
X006658Y009264D01*
X006658Y009422D02*
X006327Y009422D01*
X006327Y009581D02*
X006658Y009581D01*
X006658Y009739D02*
X006327Y009739D01*
X006327Y009898D02*
X006658Y009898D01*
X006658Y010056D02*
X006327Y010056D01*
X006327Y010215D02*
X006658Y010215D01*
X006658Y010373D02*
X006327Y010373D01*
X006327Y010532D02*
X006658Y010532D01*
X006658Y010690D02*
X006327Y010690D01*
X006327Y010849D02*
X006658Y010849D01*
X006658Y011007D02*
X006327Y011007D01*
X006327Y011166D02*
X006658Y011166D01*
X006658Y011324D02*
X006327Y011324D01*
X006327Y011483D02*
X006658Y011483D01*
X006658Y011641D02*
X006327Y011641D01*
X006327Y011800D02*
X006658Y011800D01*
X006658Y011958D02*
X006327Y011958D01*
X006327Y012117D02*
X006658Y012117D01*
X006658Y012275D02*
X006327Y012275D01*
X006327Y012434D02*
X006658Y012434D01*
X006571Y012592D02*
X006327Y012592D01*
X006327Y012751D02*
X006508Y012751D01*
X006521Y012909D02*
X006327Y012909D01*
X006327Y013068D02*
X006621Y013068D01*
X006327Y013226D02*
X007383Y013226D01*
X007399Y013068D02*
X007114Y013068D01*
X007214Y012909D02*
X007504Y012909D01*
X007227Y012751D02*
X007908Y012751D01*
X007908Y012592D02*
X007164Y012592D01*
X007077Y012434D02*
X007908Y012434D01*
X007908Y012275D02*
X007077Y012275D01*
X007077Y012117D02*
X007908Y012117D01*
X007908Y011958D02*
X007077Y011958D01*
X007077Y011800D02*
X007908Y011800D01*
X007908Y011641D02*
X007077Y011641D01*
X007077Y011483D02*
X007908Y011483D01*
X007908Y011324D02*
X007077Y011324D01*
X007077Y011166D02*
X007908Y011166D01*
X007908Y011007D02*
X007077Y011007D01*
X007077Y010849D02*
X007908Y010849D01*
X007908Y010690D02*
X007077Y010690D01*
X007077Y010532D02*
X007908Y010532D01*
X007908Y010373D02*
X007077Y010373D01*
X007077Y010215D02*
X007908Y010215D01*
X007908Y010056D02*
X007077Y010056D01*
X007077Y009898D02*
X007908Y009898D01*
X007908Y009739D02*
X007077Y009739D01*
X007077Y009581D02*
X007908Y009581D01*
X007908Y009422D02*
X007077Y009422D01*
X007077Y009264D02*
X007908Y009264D01*
X007908Y009105D02*
X007077Y009105D01*
X007077Y008947D02*
X007908Y008947D01*
X007908Y008788D02*
X007077Y008788D01*
X007077Y008630D02*
X007908Y008630D01*
X007908Y008471D02*
X007077Y008471D01*
X007077Y008313D02*
X007908Y008313D01*
X007908Y008154D02*
X007077Y008154D01*
X007077Y007996D02*
X007908Y007996D01*
X007908Y007837D02*
X007077Y007837D01*
X007077Y007679D02*
X007908Y007679D01*
X007908Y007520D02*
X007800Y007520D01*
X007560Y007520D02*
X007077Y007520D01*
X007077Y007362D02*
X007366Y007362D01*
X007112Y007203D02*
X007077Y007203D01*
X005898Y007203D02*
X005265Y007203D01*
X005265Y007362D02*
X005782Y007362D01*
X005758Y007520D02*
X005265Y007520D01*
X005265Y007679D02*
X005805Y007679D01*
X005908Y007837D02*
X005265Y007837D01*
X005265Y007996D02*
X005908Y007996D01*
X005908Y008154D02*
X005265Y008154D01*
X005265Y008313D02*
X005908Y008313D01*
X005908Y008471D02*
X005265Y008471D01*
X005265Y008630D02*
X005908Y008630D01*
X005908Y008788D02*
X005265Y008788D01*
X005265Y008947D02*
X005908Y008947D01*
X005908Y009105D02*
X005265Y009105D01*
X005265Y009264D02*
X005908Y009264D01*
X005908Y009422D02*
X005265Y009422D01*
X005265Y009581D02*
X005908Y009581D01*
X005908Y009739D02*
X005265Y009739D01*
X005265Y009898D02*
X005908Y009898D01*
X005908Y010056D02*
X005265Y010056D01*
X005265Y010215D02*
X005908Y010215D01*
X005908Y010373D02*
X005265Y010373D01*
X005265Y010532D02*
X005908Y010532D01*
X005908Y010690D02*
X005265Y010690D01*
X005265Y010849D02*
X005908Y010849D01*
X005908Y011007D02*
X005265Y011007D01*
X005265Y011166D02*
X005908Y011166D01*
X005908Y011324D02*
X005265Y011324D01*
X005265Y011483D02*
X005908Y011483D01*
X005908Y011641D02*
X005265Y011641D01*
X005265Y011800D02*
X005908Y011800D01*
X005908Y011958D02*
X005265Y011958D01*
X005265Y012117D02*
X005908Y012117D01*
X005908Y012275D02*
X005265Y012275D01*
X005265Y012434D02*
X005908Y012434D01*
X005908Y012592D02*
X005265Y012592D01*
X005265Y012751D02*
X005908Y012751D01*
X005908Y012909D02*
X005265Y012909D01*
X005265Y013068D02*
X005908Y013068D01*
X005908Y013226D02*
X005265Y013226D01*
X005265Y013385D02*
X005908Y013385D01*
X005908Y013543D02*
X005265Y013543D01*
X005265Y013702D02*
X005908Y013702D01*
X005908Y013860D02*
X005345Y013860D01*
X005503Y014019D02*
X005908Y014019D01*
X005908Y014177D02*
X005662Y014177D01*
X006327Y014177D02*
X007533Y014177D01*
X007533Y014019D02*
X006327Y014019D01*
X006327Y013860D02*
X007533Y013860D01*
X007533Y013702D02*
X006327Y013702D01*
X006327Y013543D02*
X007533Y013543D01*
X007438Y013385D02*
X006327Y013385D01*
X004845Y013385D02*
X000960Y013385D01*
X000960Y013543D02*
X004845Y013543D01*
X004845Y013702D02*
X000960Y013702D01*
X000960Y013860D02*
X004845Y013860D01*
X004909Y014019D02*
X000960Y014019D01*
X000960Y014177D02*
X005068Y014177D01*
X005226Y014336D02*
X000960Y014336D01*
X000960Y014494D02*
X005383Y014494D01*
X005393Y014653D02*
X000960Y014653D01*
X000960Y014811D02*
X005489Y014811D01*
X005908Y014970D02*
X000960Y014970D01*
X000960Y015128D02*
X005908Y015128D01*
X005776Y015287D02*
X000960Y015287D01*
X000960Y015445D02*
X005618Y015445D01*
X005459Y015604D02*
X000960Y015604D01*
X000960Y015762D02*
X005301Y015762D01*
X005142Y015921D02*
X000960Y015921D01*
X000960Y016079D02*
X004984Y016079D01*
X004825Y016238D02*
X000960Y016238D01*
X000960Y016396D02*
X004667Y016396D01*
X004508Y016555D02*
X000960Y016555D01*
X000960Y016713D02*
X004350Y016713D01*
X004191Y016872D02*
X000960Y016872D01*
X000960Y017030D02*
X004033Y017030D01*
X003874Y017189D02*
X000960Y017189D01*
X000960Y017347D02*
X001326Y017347D01*
X001075Y017506D02*
X000960Y017506D01*
X002034Y017347D02*
X003362Y017347D01*
X003220Y017506D02*
X002285Y017506D01*
X002444Y017664D02*
X003220Y017664D01*
X003220Y017823D02*
X002511Y017823D01*
X002577Y017981D02*
X003330Y017981D01*
X003489Y018140D02*
X002585Y018140D01*
X002585Y018298D02*
X003411Y018298D01*
X003489Y018220D02*
X003871Y018220D01*
X004140Y018489D01*
X004140Y018871D01*
X003871Y019140D01*
X003489Y019140D01*
X003220Y018871D01*
X003220Y018489D01*
X003489Y018220D01*
X003253Y018457D02*
X002545Y018457D01*
X002479Y018615D02*
X003220Y018615D01*
X003220Y018774D02*
X002366Y018774D01*
X002208Y018932D02*
X003281Y018932D01*
X003440Y019091D02*
X000960Y019091D01*
X000960Y019249D02*
X008907Y019249D01*
X008700Y019091D02*
X008660Y019091D01*
X008660Y018932D02*
X008700Y018932D01*
X008700Y018774D02*
X008660Y018774D01*
X008660Y018615D02*
X008700Y018615D01*
X008700Y018457D02*
X008660Y018457D01*
X008660Y018298D02*
X008700Y018298D01*
X008871Y018140D02*
X009033Y018140D01*
X009033Y018298D02*
X008977Y018298D01*
X009030Y017981D02*
X009033Y017981D01*
X008489Y018140D02*
X008327Y018140D01*
X008327Y018298D02*
X008383Y018298D01*
X008225Y018457D02*
X008200Y018457D01*
X008200Y018615D02*
X008140Y018615D01*
X008140Y018774D02*
X008200Y018774D01*
X008253Y018932D02*
X008079Y018932D01*
X007920Y019091D02*
X008412Y019091D01*
X007440Y019091D02*
X006948Y019091D01*
X006879Y019160D02*
X006700Y019160D01*
X006700Y018700D01*
X007160Y018700D01*
X007160Y018879D01*
X006879Y019160D01*
X006700Y019091D02*
X006660Y019091D01*
X006660Y019160D02*
X006481Y019160D01*
X006200Y018879D01*
X006200Y018700D01*
X006660Y018700D01*
X006660Y019160D01*
X006412Y019091D02*
X005920Y019091D01*
X005871Y019140D02*
X005489Y019140D01*
X005220Y018871D01*
X005220Y018489D01*
X005489Y018220D01*
X005871Y018220D01*
X006140Y018489D01*
X006140Y018871D01*
X005871Y019140D01*
X005440Y019091D02*
X004920Y019091D01*
X004871Y019140D02*
X004489Y019140D01*
X004220Y018871D01*
X004220Y018489D01*
X004489Y018220D01*
X004871Y018220D01*
X005140Y018489D01*
X005140Y018871D01*
X004871Y019140D01*
X004440Y019091D02*
X003920Y019091D01*
X004079Y018932D02*
X004281Y018932D01*
X004220Y018774D02*
X004140Y018774D01*
X004140Y018615D02*
X004220Y018615D01*
X004253Y018457D02*
X004107Y018457D01*
X003949Y018298D02*
X004411Y018298D01*
X004489Y018140D02*
X004220Y017871D01*
X004220Y017489D01*
X004489Y017220D01*
X004871Y017220D01*
X005140Y017489D01*
X005140Y017871D01*
X004871Y018140D01*
X004489Y018140D01*
X003871Y018140D01*
X004030Y017981D02*
X004330Y017981D01*
X004220Y017823D02*
X004140Y017823D01*
X004140Y017664D02*
X004220Y017664D01*
X004220Y017506D02*
X004151Y017506D01*
X004310Y017347D02*
X004362Y017347D01*
X004468Y017189D02*
X006658Y017189D01*
X006658Y017167D02*
X006562Y017071D01*
X006508Y016939D01*
X006508Y016796D01*
X006562Y016664D01*
X006664Y016562D01*
X006796Y016508D01*
X006939Y016508D01*
X007071Y016562D01*
X007173Y016664D01*
X007227Y016796D01*
X007227Y016939D01*
X007173Y017071D01*
X007077Y017167D01*
X007077Y017427D01*
X007140Y017489D01*
X007140Y017871D01*
X006871Y018140D01*
X006489Y018140D01*
X006220Y017871D01*
X006220Y017489D01*
X006489Y017220D01*
X006658Y017220D01*
X006658Y017167D01*
X006545Y017030D02*
X004627Y017030D01*
X004785Y016872D02*
X006508Y016872D01*
X006542Y016713D02*
X004944Y016713D01*
X005102Y016555D02*
X006682Y016555D01*
X007053Y016555D02*
X007533Y016555D01*
X007533Y016713D02*
X007193Y016713D01*
X007227Y016872D02*
X007533Y016872D01*
X007533Y017030D02*
X007190Y017030D01*
X007077Y017189D02*
X007533Y017189D01*
X007362Y017347D02*
X007077Y017347D01*
X007140Y017506D02*
X007220Y017506D01*
X007220Y017664D02*
X007140Y017664D01*
X007140Y017823D02*
X007220Y017823D01*
X007330Y017981D02*
X007030Y017981D01*
X006871Y018140D02*
X007489Y018140D01*
X007411Y018298D02*
X006977Y018298D01*
X006879Y018200D02*
X007160Y018481D01*
X007160Y018660D01*
X006700Y018660D01*
X006700Y018700D01*
X006660Y018700D01*
X006660Y018660D01*
X006700Y018660D01*
X006700Y018200D01*
X006879Y018200D01*
X006700Y018298D02*
X006660Y018298D01*
X006660Y018200D02*
X006660Y018660D01*
X006200Y018660D01*
X006200Y018481D01*
X006481Y018200D01*
X006660Y018200D01*
X006489Y018140D02*
X005871Y018140D01*
X005489Y018140D01*
X005220Y017871D01*
X005220Y017489D01*
X005489Y017220D01*
X005871Y017220D01*
X006140Y017489D01*
X006140Y017871D01*
X005871Y018140D01*
X005949Y018298D02*
X006383Y018298D01*
X006225Y018457D02*
X006107Y018457D01*
X006140Y018615D02*
X006200Y018615D01*
X006200Y018774D02*
X006140Y018774D01*
X006079Y018932D02*
X006253Y018932D01*
X006660Y018932D02*
X006700Y018932D01*
X006700Y018774D02*
X006660Y018774D01*
X006660Y018615D02*
X006700Y018615D01*
X006700Y018457D02*
X006660Y018457D01*
X007135Y018457D02*
X007253Y018457D01*
X007220Y018615D02*
X007160Y018615D01*
X007160Y018774D02*
X007220Y018774D01*
X007281Y018932D02*
X007107Y018932D01*
X007871Y018140D02*
X007908Y018140D01*
X008327Y017981D02*
X008330Y017981D01*
X006330Y017981D02*
X006030Y017981D01*
X006140Y017823D02*
X006220Y017823D01*
X006220Y017664D02*
X006140Y017664D01*
X006140Y017506D02*
X006220Y017506D01*
X006362Y017347D02*
X005998Y017347D01*
X005362Y017347D02*
X004998Y017347D01*
X005140Y017506D02*
X005220Y017506D01*
X005220Y017664D02*
X005140Y017664D01*
X005140Y017823D02*
X005220Y017823D01*
X005330Y017981D02*
X005030Y017981D01*
X004871Y018140D02*
X005489Y018140D01*
X005411Y018298D02*
X004949Y018298D01*
X005107Y018457D02*
X005253Y018457D01*
X005220Y018615D02*
X005140Y018615D01*
X005140Y018774D02*
X005220Y018774D01*
X005281Y018932D02*
X005079Y018932D01*
X001152Y018932D02*
X000960Y018932D01*
X000960Y018774D02*
X000994Y018774D01*
X005261Y016396D02*
X007533Y016396D01*
X007533Y016238D02*
X005419Y016238D01*
X005578Y016079D02*
X007533Y016079D01*
X007533Y015921D02*
X005736Y015921D01*
X005895Y015762D02*
X007533Y015762D01*
X007533Y015604D02*
X006053Y015604D01*
X006212Y015445D02*
X007533Y015445D01*
X007533Y015287D02*
X006327Y015287D01*
X006327Y015128D02*
X007533Y015128D01*
X007533Y014970D02*
X006327Y014970D01*
X006327Y014811D02*
X007533Y014811D01*
X007533Y014653D02*
X006327Y014653D01*
X006327Y014494D02*
X007533Y014494D01*
X007533Y014336D02*
X006327Y014336D01*
X004845Y013226D02*
X000960Y013226D01*
X000960Y013068D02*
X004845Y013068D01*
X004845Y012909D02*
X000960Y012909D01*
X000960Y012751D02*
X004845Y012751D01*
X004845Y012592D02*
X000960Y012592D01*
X000960Y012434D02*
X004845Y012434D01*
X004845Y012275D02*
X000960Y012275D01*
X000960Y012117D02*
X004845Y012117D01*
X004845Y011958D02*
X000960Y011958D01*
X000960Y011800D02*
X004845Y011800D01*
X004845Y011641D02*
X000960Y011641D01*
X000960Y011483D02*
X004845Y011483D01*
X004845Y011324D02*
X000960Y011324D01*
X000960Y011166D02*
X004845Y011166D01*
X004845Y011007D02*
X000960Y011007D01*
X000960Y010849D02*
X004845Y010849D01*
X004845Y010690D02*
X000960Y010690D01*
X000960Y010532D02*
X004845Y010532D01*
X004845Y010373D02*
X000960Y010373D01*
X000960Y010215D02*
X004845Y010215D01*
X004845Y010056D02*
X000960Y010056D01*
X000960Y009898D02*
X004845Y009898D01*
X004845Y009739D02*
X000960Y009739D01*
X000960Y009581D02*
X004845Y009581D01*
X004845Y009422D02*
X000960Y009422D01*
X000960Y009264D02*
X004845Y009264D01*
X004845Y009105D02*
X000960Y009105D01*
X000960Y008947D02*
X004845Y008947D01*
X004845Y008788D02*
X000960Y008788D01*
X000960Y008630D02*
X004845Y008630D01*
X004845Y008471D02*
X000960Y008471D01*
X000960Y008313D02*
X004845Y008313D01*
X004845Y008154D02*
X000960Y008154D01*
X000960Y007996D02*
X004845Y007996D01*
X004845Y007837D02*
X000960Y007837D01*
X000960Y007679D02*
X004845Y007679D01*
X004845Y007520D02*
X000960Y007520D01*
X000960Y007362D02*
X004845Y007362D01*
X004845Y007203D02*
X000960Y007203D01*
X000960Y007045D02*
X004845Y007045D01*
X004845Y006886D02*
X000960Y006886D01*
X000960Y006728D02*
X004845Y006728D01*
X004845Y006569D02*
X000960Y006569D01*
X000960Y006411D02*
X004845Y006411D01*
X004845Y006252D02*
X000960Y006252D01*
X000960Y006094D02*
X004845Y006094D01*
X004845Y005935D02*
X000960Y005935D01*
X000960Y005777D02*
X004845Y005777D01*
X004845Y005618D02*
X000960Y005618D01*
X000960Y005460D02*
X004845Y005460D01*
X004845Y005301D02*
X000960Y005301D01*
X000960Y005143D02*
X004845Y005143D01*
X004845Y004984D02*
X000960Y004984D01*
X000960Y004826D02*
X004845Y004826D01*
X004845Y004667D02*
X000960Y004667D01*
X000960Y004509D02*
X004845Y004509D01*
X004845Y004350D02*
X000960Y004350D01*
X000960Y004192D02*
X004845Y004192D01*
X004736Y004033D02*
X000960Y004033D01*
X000960Y003875D02*
X004578Y003875D01*
X004419Y003716D02*
X000960Y003716D01*
X000960Y003558D02*
X004261Y003558D01*
X004102Y003399D02*
X000960Y003399D01*
X000960Y003241D02*
X003944Y003241D01*
X003431Y003082D02*
X001867Y003082D01*
X001493Y003082D02*
X000960Y003082D01*
X000960Y002924D02*
X001144Y002924D01*
X000985Y002765D02*
X000960Y002765D01*
X002216Y002924D02*
X003273Y002924D01*
X003220Y002765D02*
X002375Y002765D01*
X002483Y002607D02*
X003220Y002607D01*
X003261Y002448D02*
X002549Y002448D01*
X002585Y002290D02*
X003420Y002290D01*
X003452Y002131D02*
X002585Y002131D01*
X002574Y001973D02*
X003294Y001973D01*
X003200Y001814D02*
X002508Y001814D01*
X002435Y001656D02*
X003200Y001656D01*
X003200Y001497D02*
X002277Y001497D01*
X004017Y001339D02*
X004371Y001339D01*
X004220Y001497D02*
X004160Y001497D01*
X004160Y001656D02*
X004220Y001656D01*
X004220Y001814D02*
X004160Y001814D01*
X004066Y001973D02*
X004322Y001973D01*
X004880Y002131D02*
X004932Y002131D01*
X005038Y001973D02*
X005091Y001973D01*
X005140Y001814D02*
X005220Y001814D01*
X005220Y001656D02*
X005140Y001656D01*
X005140Y001497D02*
X005220Y001497D01*
X005371Y001339D02*
X004989Y001339D01*
X005989Y001339D02*
X006371Y001339D01*
X006220Y001497D02*
X006140Y001497D01*
X006140Y001656D02*
X006220Y001656D01*
X006220Y001814D02*
X006140Y001814D01*
X005261Y002448D02*
X005209Y002448D01*
X005220Y002607D02*
X005140Y002607D01*
X005140Y002765D02*
X005220Y002765D01*
X005273Y002924D02*
X005087Y002924D01*
X004929Y003082D02*
X005431Y003082D01*
X020140Y001843D02*
X020140Y001489D01*
X020103Y001452D01*
X020229Y001452D01*
X020200Y001481D01*
X020200Y001660D01*
X020660Y001660D01*
X020660Y001700D01*
X020660Y002160D01*
X020481Y002160D01*
X020200Y001879D01*
X020200Y001700D01*
X020660Y001700D01*
X020700Y001700D01*
X020700Y002160D01*
X020879Y002160D01*
X020927Y002112D01*
X020920Y002128D01*
X020920Y002269D01*
X020871Y002220D01*
X020489Y002220D01*
X020390Y002319D01*
X020390Y002093D01*
X020267Y001970D01*
X020140Y001843D01*
X020140Y001814D02*
X020200Y001814D01*
X020200Y001656D02*
X020140Y001656D01*
X020140Y001497D02*
X020200Y001497D01*
X020700Y001660D02*
X020700Y001700D01*
X021160Y001700D01*
X021160Y001832D01*
X021220Y001772D01*
X021220Y001489D01*
X021257Y001452D01*
X021131Y001452D01*
X021160Y001481D01*
X021160Y001660D01*
X020700Y001660D01*
X020700Y001814D02*
X020660Y001814D01*
X020660Y001973D02*
X020700Y001973D01*
X020700Y002131D02*
X020660Y002131D01*
X020452Y002131D02*
X020390Y002131D01*
X020390Y002290D02*
X020420Y002290D01*
X020908Y002131D02*
X020920Y002131D01*
X020294Y001973D02*
X020269Y001973D01*
X021160Y001814D02*
X021178Y001814D01*
X021160Y001656D02*
X021220Y001656D01*
X021220Y001497D02*
X021160Y001497D01*
X022452Y002103D02*
X022452Y002257D01*
X022489Y002220D01*
X022871Y002220D01*
X023140Y002489D01*
X023140Y004048D01*
X023218Y003970D01*
X023908Y003281D01*
X023908Y003103D01*
X023871Y003140D01*
X023690Y003140D01*
X023690Y002690D01*
X023670Y002690D01*
X023670Y003140D01*
X023489Y003140D01*
X023220Y002871D01*
X023220Y002690D01*
X023670Y002690D01*
X023670Y002670D01*
X023690Y002670D01*
X023690Y002220D01*
X023871Y002220D01*
X023908Y002257D01*
X023908Y002103D01*
X023871Y002140D01*
X023690Y002140D01*
X023690Y001690D01*
X023670Y001690D01*
X023670Y002140D01*
X023489Y002140D01*
X023220Y001871D01*
X023220Y001690D01*
X023670Y001690D01*
X023670Y001670D01*
X023220Y001670D01*
X023220Y001489D01*
X023444Y001265D01*
X022916Y001265D01*
X023140Y001489D01*
X023140Y001871D01*
X022871Y002140D01*
X022489Y002140D01*
X022452Y002103D01*
X022452Y002131D02*
X022480Y002131D01*
X022880Y002131D02*
X023480Y002131D01*
X023489Y002220D02*
X023670Y002220D01*
X023670Y002670D01*
X023220Y002670D01*
X023220Y002489D01*
X023489Y002220D01*
X023420Y002290D02*
X022940Y002290D01*
X023099Y002448D02*
X023261Y002448D01*
X023220Y002607D02*
X023140Y002607D01*
X023140Y002765D02*
X023220Y002765D01*
X023273Y002924D02*
X023140Y002924D01*
X023140Y003082D02*
X023431Y003082D01*
X023670Y003082D02*
X023690Y003082D01*
X023690Y002924D02*
X023670Y002924D01*
X023670Y002765D02*
X023690Y002765D01*
X023690Y002607D02*
X023670Y002607D01*
X023670Y002448D02*
X023690Y002448D01*
X023690Y002290D02*
X023670Y002290D01*
X023670Y002131D02*
X023690Y002131D01*
X023690Y001973D02*
X023670Y001973D01*
X023670Y001814D02*
X023690Y001814D01*
X023322Y001973D02*
X023038Y001973D01*
X023140Y001814D02*
X023220Y001814D01*
X023220Y001656D02*
X023140Y001656D01*
X023140Y001497D02*
X023220Y001497D01*
X023371Y001339D02*
X022989Y001339D01*
X023880Y002131D02*
X023908Y002131D01*
X024327Y002131D02*
X024480Y002131D01*
X024489Y002140D02*
X024327Y001978D01*
X024327Y002382D01*
X024489Y002220D01*
X024670Y002220D01*
X024670Y002670D01*
X024690Y002670D01*
X024690Y002690D01*
X025140Y002690D01*
X025140Y002871D01*
X024871Y003140D01*
X024690Y003140D01*
X024690Y002690D01*
X024670Y002690D01*
X024670Y003140D01*
X024489Y003140D01*
X024327Y002978D01*
X024327Y003454D01*
X024124Y003658D01*
X024196Y003687D01*
X024298Y003789D01*
X024352Y003921D01*
X024352Y004056D01*
X024517Y004220D01*
X024640Y004343D01*
X024640Y017017D01*
X024140Y017517D01*
X024140Y017871D01*
X023871Y018140D01*
X023501Y018140D01*
X023534Y018220D01*
X023871Y018220D01*
X024033Y018382D01*
X024033Y018031D01*
X024220Y017843D01*
X024220Y017489D01*
X024489Y017220D01*
X024720Y017220D01*
X024720Y005406D01*
X024843Y005283D01*
X025517Y005283D01*
X025640Y005406D01*
X025845Y005611D01*
X025845Y004501D01*
X025752Y004540D01*
X025608Y004540D01*
X025476Y004485D01*
X025375Y004384D01*
X025320Y004252D01*
X025320Y004108D01*
X025375Y003976D01*
X025470Y003881D01*
X025470Y003121D01*
X025220Y002871D01*
X025220Y002489D01*
X025489Y002220D01*
X025871Y002220D01*
X025908Y002257D01*
X025908Y002204D01*
X025843Y002140D01*
X025489Y002140D01*
X025220Y001871D01*
X025220Y001489D01*
X025257Y001452D01*
X025103Y001452D01*
X025140Y001489D01*
X025140Y001670D01*
X024690Y001670D01*
X024690Y001690D01*
X024670Y001690D01*
X024670Y002140D01*
X024489Y002140D01*
X024420Y002290D02*
X024327Y002290D01*
X024670Y002290D02*
X024690Y002290D01*
X024690Y002220D02*
X024871Y002220D01*
X025140Y002489D01*
X025140Y002670D01*
X024690Y002670D01*
X024690Y002220D01*
X024690Y002140D02*
X024690Y001690D01*
X025140Y001690D01*
X025140Y001871D01*
X024871Y002140D01*
X024690Y002140D01*
X024690Y002131D02*
X024670Y002131D01*
X024670Y001973D02*
X024690Y001973D01*
X024690Y001814D02*
X024670Y001814D01*
X025038Y001973D02*
X025322Y001973D01*
X025220Y001814D02*
X025140Y001814D01*
X025140Y001656D02*
X025220Y001656D01*
X025220Y001497D02*
X025140Y001497D01*
X024880Y002131D02*
X025480Y002131D01*
X025420Y002290D02*
X024940Y002290D01*
X025099Y002448D02*
X025261Y002448D01*
X025220Y002607D02*
X025140Y002607D01*
X025140Y002765D02*
X025220Y002765D01*
X025273Y002924D02*
X025087Y002924D01*
X024929Y003082D02*
X025431Y003082D01*
X025470Y003241D02*
X024327Y003241D01*
X024327Y003399D02*
X025470Y003399D01*
X025470Y003558D02*
X024224Y003558D01*
X024225Y003716D02*
X025470Y003716D01*
X025470Y003875D02*
X024333Y003875D01*
X024352Y004033D02*
X025351Y004033D01*
X025320Y004192D02*
X024488Y004192D01*
X024640Y004350D02*
X025361Y004350D01*
X025532Y004509D02*
X024640Y004509D01*
X024640Y004667D02*
X025845Y004667D01*
X025828Y004509D02*
X025845Y004509D01*
X025845Y004826D02*
X024640Y004826D01*
X024640Y004984D02*
X025845Y004984D01*
X025845Y005143D02*
X024640Y005143D01*
X024640Y005301D02*
X024825Y005301D01*
X024720Y005460D02*
X024640Y005460D01*
X024640Y005618D02*
X024720Y005618D01*
X024720Y005777D02*
X024640Y005777D01*
X024640Y005935D02*
X024720Y005935D01*
X024720Y006094D02*
X024640Y006094D01*
X024640Y006252D02*
X024720Y006252D01*
X024720Y006411D02*
X024640Y006411D01*
X024640Y006569D02*
X024720Y006569D01*
X024720Y006728D02*
X024640Y006728D01*
X024640Y006886D02*
X024720Y006886D01*
X024720Y007045D02*
X024640Y007045D01*
X024640Y007203D02*
X024720Y007203D01*
X024720Y007362D02*
X024640Y007362D01*
X024640Y007520D02*
X024720Y007520D01*
X024720Y007679D02*
X024640Y007679D01*
X024640Y007837D02*
X024720Y007837D01*
X024720Y007996D02*
X024640Y007996D01*
X024640Y008154D02*
X024720Y008154D01*
X024720Y008313D02*
X024640Y008313D01*
X024640Y008471D02*
X024720Y008471D01*
X024720Y008630D02*
X024640Y008630D01*
X024640Y008788D02*
X024720Y008788D01*
X024720Y008947D02*
X024640Y008947D01*
X024640Y009105D02*
X024720Y009105D01*
X024720Y009264D02*
X024640Y009264D01*
X024640Y009422D02*
X024720Y009422D01*
X024720Y009581D02*
X024640Y009581D01*
X024640Y009739D02*
X024720Y009739D01*
X024720Y009898D02*
X024640Y009898D01*
X024640Y010056D02*
X024720Y010056D01*
X024720Y010215D02*
X024640Y010215D01*
X024640Y010373D02*
X024720Y010373D01*
X024720Y010532D02*
X024640Y010532D01*
X024640Y010690D02*
X024720Y010690D01*
X024720Y010849D02*
X024640Y010849D01*
X024640Y011007D02*
X024720Y011007D01*
X024720Y011166D02*
X024640Y011166D01*
X024640Y011324D02*
X024720Y011324D01*
X024720Y011483D02*
X024640Y011483D01*
X024640Y011641D02*
X024720Y011641D01*
X024720Y011800D02*
X024640Y011800D01*
X024640Y011958D02*
X024720Y011958D01*
X024720Y012117D02*
X024640Y012117D01*
X024640Y012275D02*
X024720Y012275D01*
X024720Y012434D02*
X024640Y012434D01*
X024640Y012592D02*
X024720Y012592D01*
X024720Y012751D02*
X024640Y012751D01*
X024640Y012909D02*
X024720Y012909D01*
X024720Y013068D02*
X024640Y013068D01*
X024640Y013226D02*
X024720Y013226D01*
X024720Y013385D02*
X024640Y013385D01*
X024640Y013543D02*
X024720Y013543D01*
X024720Y013702D02*
X024640Y013702D01*
X024640Y013860D02*
X024720Y013860D01*
X024720Y014019D02*
X024640Y014019D01*
X024640Y014177D02*
X024720Y014177D01*
X024720Y014336D02*
X024640Y014336D01*
X024640Y014494D02*
X024720Y014494D01*
X024720Y014653D02*
X024640Y014653D01*
X024640Y014811D02*
X024720Y014811D01*
X024720Y014970D02*
X024640Y014970D01*
X024640Y015128D02*
X024720Y015128D01*
X024720Y015287D02*
X024640Y015287D01*
X024640Y015445D02*
X024720Y015445D01*
X024720Y015604D02*
X024640Y015604D01*
X024640Y015762D02*
X024720Y015762D01*
X024720Y015921D02*
X024640Y015921D01*
X024640Y016079D02*
X024720Y016079D01*
X024720Y016238D02*
X024640Y016238D01*
X024640Y016396D02*
X024720Y016396D01*
X024720Y016555D02*
X024640Y016555D01*
X024640Y016713D02*
X024720Y016713D01*
X024720Y016872D02*
X024640Y016872D01*
X024627Y017030D02*
X024720Y017030D01*
X024720Y017189D02*
X024468Y017189D01*
X024362Y017347D02*
X024310Y017347D01*
X024220Y017506D02*
X024151Y017506D01*
X024140Y017664D02*
X024220Y017664D01*
X024220Y017823D02*
X024140Y017823D01*
X024082Y017981D02*
X024030Y017981D01*
X024033Y018140D02*
X023871Y018140D01*
X023949Y018298D02*
X024033Y018298D01*
X025140Y018517D02*
X025140Y018871D01*
X024871Y019140D01*
X024489Y019140D01*
X024452Y019103D01*
X024452Y019400D01*
X039400Y019400D01*
X039400Y018740D01*
X039193Y018947D01*
X038860Y019085D01*
X038500Y019085D01*
X038167Y018947D01*
X037913Y018693D01*
X037775Y018360D01*
X037775Y018000D01*
X037913Y017667D01*
X038167Y017413D01*
X038500Y017275D01*
X038860Y017275D01*
X039193Y017413D01*
X039400Y017620D01*
X039400Y002740D01*
X039193Y002947D01*
X038860Y003085D01*
X038500Y003085D01*
X038167Y002947D01*
X037913Y002693D01*
X037775Y002360D01*
X037775Y002000D01*
X037913Y001667D01*
X038167Y001413D01*
X038500Y001275D01*
X038860Y001275D01*
X039193Y001413D01*
X039400Y001620D01*
X039400Y000960D01*
X035444Y000960D01*
X035452Y000968D01*
X035452Y001257D01*
X035489Y001220D01*
X035871Y001220D01*
X036140Y001489D01*
X036140Y001871D01*
X035871Y002140D01*
X035489Y002140D01*
X035452Y002103D01*
X035452Y002257D01*
X035489Y002220D01*
X035871Y002220D01*
X036140Y002489D01*
X036140Y002871D01*
X036015Y002996D01*
X036015Y011818D01*
X036110Y011914D01*
X036165Y012046D01*
X036165Y012189D01*
X036110Y012321D01*
X036009Y012423D01*
X035877Y012477D01*
X035733Y012477D01*
X035640Y012439D01*
X035640Y017220D01*
X035871Y017220D01*
X036140Y017489D01*
X036140Y017871D01*
X035871Y018140D01*
X035489Y018140D01*
X035327Y017978D01*
X035327Y018329D01*
X035140Y018517D01*
X035140Y018871D01*
X034871Y019140D01*
X034489Y019140D01*
X034220Y018871D01*
X034220Y018489D01*
X034489Y018220D01*
X034843Y018220D01*
X034908Y018156D01*
X034908Y018103D01*
X034871Y018140D01*
X034489Y018140D01*
X034220Y017871D01*
X034220Y017517D01*
X033908Y017204D01*
X033908Y008979D01*
X033812Y008884D01*
X033758Y008752D01*
X033758Y008608D01*
X033812Y008476D01*
X033914Y008375D01*
X034046Y008320D01*
X034189Y008320D01*
X034321Y008375D01*
X034423Y008476D01*
X034470Y008590D01*
X034470Y003121D01*
X034220Y002871D01*
X034220Y002489D01*
X034489Y002220D01*
X034871Y002220D01*
X035033Y002382D01*
X035033Y001978D01*
X034871Y002140D01*
X034489Y002140D01*
X034239Y001890D01*
X034149Y001890D01*
X033879Y002160D01*
X033700Y002160D01*
X033700Y001700D01*
X033660Y001700D01*
X033660Y002160D01*
X033481Y002160D01*
X033200Y001879D01*
X033200Y001700D01*
X033660Y001700D01*
X033660Y001660D01*
X033200Y001660D01*
X033200Y001481D01*
X033229Y001452D01*
X033103Y001452D01*
X033140Y001489D01*
X033140Y001871D01*
X032871Y002140D01*
X032489Y002140D01*
X032220Y001871D01*
X032220Y001489D01*
X032257Y001452D01*
X032131Y001452D01*
X032160Y001481D01*
X032160Y001660D01*
X031700Y001660D01*
X031700Y001700D01*
X031660Y001700D01*
X031660Y002160D01*
X031481Y002160D01*
X031200Y001879D01*
X031200Y001700D01*
X031660Y001700D01*
X031660Y001660D01*
X031200Y001660D01*
X031200Y001481D01*
X031229Y001452D01*
X031103Y001452D01*
X031140Y001489D01*
X031140Y001843D01*
X031327Y002031D01*
X031327Y002382D01*
X031489Y002220D01*
X031871Y002220D01*
X032140Y002489D01*
X032140Y002871D01*
X031890Y003121D01*
X031890Y004023D01*
X031976Y003937D01*
X032108Y003883D01*
X032252Y003883D01*
X032384Y003937D01*
X032470Y004023D01*
X032470Y003121D01*
X032220Y002871D01*
X032220Y002489D01*
X032489Y002220D01*
X032871Y002220D01*
X033140Y002489D01*
X033140Y002871D01*
X032890Y003121D01*
X032890Y005923D01*
X032915Y005983D01*
X032915Y006127D01*
X032860Y006259D01*
X032759Y006360D01*
X032627Y006415D01*
X032483Y006415D01*
X032390Y006376D01*
X032390Y007523D01*
X032476Y007437D01*
X032608Y007383D01*
X032752Y007383D01*
X032884Y007437D01*
X032985Y007539D01*
X033040Y007671D01*
X033040Y007806D01*
X033142Y007908D01*
X033265Y008031D01*
X033265Y014734D01*
X033358Y014695D01*
X033502Y014695D01*
X033634Y014750D01*
X033735Y014851D01*
X033790Y014983D01*
X033790Y015118D01*
X033890Y015218D01*
X033890Y017239D01*
X034140Y017489D01*
X034140Y017871D01*
X033871Y018140D01*
X033489Y018140D01*
X033327Y017978D01*
X033327Y018329D01*
X033204Y018452D01*
X033140Y018517D01*
X033140Y018871D01*
X033103Y018908D01*
X033257Y018908D01*
X033220Y018871D01*
X033220Y018489D01*
X033489Y018220D01*
X033871Y018220D01*
X034140Y018489D01*
X034140Y018871D01*
X033890Y019121D01*
X033890Y019204D01*
X033767Y019327D01*
X026406Y019327D01*
X026283Y019204D01*
X026044Y018966D01*
X025871Y019140D01*
X025489Y019140D01*
X025220Y018871D01*
X025220Y018489D01*
X025489Y018220D01*
X025871Y018220D01*
X026033Y018382D01*
X026033Y017978D01*
X025871Y018140D01*
X025489Y018140D01*
X025327Y017978D01*
X025327Y018329D01*
X025140Y018517D01*
X025200Y018457D02*
X025253Y018457D01*
X025220Y018615D02*
X025140Y018615D01*
X025140Y018774D02*
X025220Y018774D01*
X025281Y018932D02*
X025079Y018932D01*
X024920Y019091D02*
X025440Y019091D01*
X025920Y019091D02*
X026169Y019091D01*
X026327Y019249D02*
X024452Y019249D01*
X025327Y018298D02*
X025411Y018298D01*
X025489Y018140D02*
X025327Y018140D01*
X025327Y017981D02*
X025330Y017981D01*
X025871Y018140D02*
X026033Y018140D01*
X026033Y018298D02*
X025949Y018298D01*
X026030Y017981D02*
X026033Y017981D01*
X020382Y019033D02*
X020220Y018871D01*
X020220Y018517D01*
X019970Y018267D01*
X019970Y018041D01*
X019871Y018140D01*
X019489Y018140D01*
X019440Y018091D01*
X019440Y018232D01*
X019433Y018248D01*
X019481Y018200D01*
X019660Y018200D01*
X019660Y018660D01*
X019200Y018660D01*
X019200Y018528D01*
X019140Y018588D01*
X019140Y018871D01*
X018978Y019033D01*
X019354Y019033D01*
X019200Y018879D01*
X019200Y018700D01*
X019660Y018700D01*
X019660Y018660D01*
X019700Y018660D01*
X019700Y018700D01*
X020160Y018700D01*
X020160Y018879D01*
X020006Y019033D01*
X020382Y019033D01*
X020281Y018932D02*
X020107Y018932D01*
X020160Y018774D02*
X020220Y018774D01*
X020160Y018660D02*
X019700Y018660D01*
X019700Y018200D01*
X019879Y018200D01*
X020160Y018481D01*
X020160Y018660D01*
X020160Y018615D02*
X020220Y018615D01*
X020160Y018457D02*
X020135Y018457D01*
X020001Y018298D02*
X019977Y018298D01*
X019970Y018140D02*
X019871Y018140D01*
X019700Y018298D02*
X019660Y018298D01*
X019660Y018457D02*
X019700Y018457D01*
X019700Y018615D02*
X019660Y018615D01*
X019200Y018615D02*
X019140Y018615D01*
X019140Y018774D02*
X019200Y018774D01*
X019253Y018932D02*
X019079Y018932D01*
X019440Y018140D02*
X019489Y018140D01*
X017298Y019220D02*
X017044Y018966D01*
X016871Y019140D01*
X016690Y019140D01*
X016690Y018690D01*
X016670Y018690D01*
X016670Y019140D01*
X016489Y019140D01*
X016316Y018966D01*
X016077Y019204D01*
X016062Y019220D01*
X017298Y019220D01*
X017169Y019091D02*
X016920Y019091D01*
X016690Y019091D02*
X016670Y019091D01*
X016670Y018932D02*
X016690Y018932D01*
X016690Y018774D02*
X016670Y018774D01*
X016670Y018670D02*
X016690Y018670D01*
X016690Y018220D01*
X016871Y018220D01*
X017033Y018382D01*
X017033Y017978D01*
X016871Y018140D01*
X016690Y018140D01*
X016690Y017690D01*
X016670Y017690D01*
X016670Y018140D01*
X016489Y018140D01*
X016327Y017978D01*
X016327Y018382D01*
X016489Y018220D01*
X016670Y018220D01*
X016670Y018670D01*
X016670Y018615D02*
X016690Y018615D01*
X016690Y018457D02*
X016670Y018457D01*
X016670Y018298D02*
X016690Y018298D01*
X016690Y018140D02*
X016670Y018140D01*
X016670Y017981D02*
X016690Y017981D01*
X016690Y017823D02*
X016670Y017823D01*
X016330Y017981D02*
X016327Y017981D01*
X016327Y018140D02*
X016489Y018140D01*
X016411Y018298D02*
X016327Y018298D01*
X015908Y018257D02*
X015908Y018103D01*
X015871Y018140D01*
X015690Y018140D01*
X015690Y017690D01*
X015670Y017690D01*
X015670Y018140D01*
X015489Y018140D01*
X015452Y018103D01*
X015452Y018204D01*
X015329Y018327D01*
X015140Y018517D01*
X015140Y018871D01*
X015103Y018908D01*
X015257Y018908D01*
X015220Y018871D01*
X015220Y018690D01*
X015670Y018690D01*
X015670Y018670D01*
X015690Y018670D01*
X015690Y018220D01*
X015871Y018220D01*
X015908Y018257D01*
X015908Y018140D02*
X015871Y018140D01*
X015690Y018140D02*
X015670Y018140D01*
X015670Y018220D02*
X015670Y018670D01*
X015220Y018670D01*
X015220Y018489D01*
X015489Y018220D01*
X015670Y018220D01*
X015670Y018298D02*
X015690Y018298D01*
X015690Y018457D02*
X015670Y018457D01*
X015670Y018615D02*
X015690Y018615D01*
X015253Y018457D02*
X015200Y018457D01*
X015220Y018615D02*
X015140Y018615D01*
X015140Y018774D02*
X015220Y018774D01*
X015359Y018298D02*
X015411Y018298D01*
X015452Y018140D02*
X015489Y018140D01*
X015670Y017981D02*
X015690Y017981D01*
X015690Y017823D02*
X015670Y017823D01*
X015670Y017670D02*
X015690Y017670D01*
X015690Y017220D01*
X015871Y017220D01*
X015908Y017257D01*
X015908Y016712D01*
X015821Y016798D01*
X015689Y016852D01*
X015546Y016852D01*
X015452Y016814D01*
X015452Y017257D01*
X015489Y017220D01*
X015670Y017220D01*
X015670Y017670D01*
X015670Y017664D02*
X015690Y017664D01*
X015690Y017506D02*
X015670Y017506D01*
X015670Y017347D02*
X015690Y017347D01*
X015908Y017189D02*
X015452Y017189D01*
X015452Y017030D02*
X015908Y017030D01*
X015908Y016872D02*
X015452Y016872D01*
X015906Y016713D02*
X015908Y016713D01*
X017030Y017981D02*
X017033Y017981D01*
X017033Y018140D02*
X016871Y018140D01*
X016949Y018298D02*
X017033Y018298D01*
X016440Y019091D02*
X016191Y019091D01*
X033140Y018774D02*
X033220Y018774D01*
X033220Y018615D02*
X033140Y018615D01*
X033200Y018457D02*
X033253Y018457D01*
X033204Y018452D02*
X033204Y018452D01*
X033327Y018298D02*
X033411Y018298D01*
X033489Y018140D02*
X033327Y018140D01*
X033327Y017981D02*
X033330Y017981D01*
X033871Y018140D02*
X034489Y018140D01*
X034411Y018298D02*
X033949Y018298D01*
X034107Y018457D02*
X034253Y018457D01*
X034220Y018615D02*
X034140Y018615D01*
X034140Y018774D02*
X034220Y018774D01*
X034281Y018932D02*
X034079Y018932D01*
X033920Y019091D02*
X034440Y019091D01*
X034920Y019091D02*
X035440Y019091D01*
X035489Y019140D02*
X035220Y018871D01*
X035220Y018489D01*
X035489Y018220D01*
X035871Y018220D01*
X036140Y018489D01*
X036140Y018871D01*
X035871Y019140D01*
X035489Y019140D01*
X035920Y019091D02*
X036412Y019091D01*
X036481Y019160D02*
X036200Y018879D01*
X036200Y018700D01*
X036660Y018700D01*
X036660Y019160D01*
X036481Y019160D01*
X036660Y019091D02*
X036700Y019091D01*
X036700Y019160D02*
X036879Y019160D01*
X037160Y018879D01*
X037160Y018700D01*
X036700Y018700D01*
X036700Y018660D01*
X037160Y018660D01*
X037160Y018481D01*
X036879Y018200D01*
X036700Y018200D01*
X036700Y018660D01*
X036660Y018660D01*
X036660Y018200D01*
X036481Y018200D01*
X036200Y018481D01*
X036200Y018660D01*
X036660Y018660D01*
X036660Y018700D01*
X036700Y018700D01*
X036700Y019160D01*
X036948Y019091D02*
X039400Y019091D01*
X039400Y019249D02*
X033845Y019249D01*
X035079Y018932D02*
X035281Y018932D01*
X035220Y018774D02*
X035140Y018774D01*
X035140Y018615D02*
X035220Y018615D01*
X035200Y018457D02*
X035253Y018457D01*
X035327Y018298D02*
X035411Y018298D01*
X035489Y018140D02*
X035327Y018140D01*
X035327Y017981D02*
X035330Y017981D01*
X034908Y018140D02*
X034871Y018140D01*
X034330Y017981D02*
X034030Y017981D01*
X034140Y017823D02*
X034220Y017823D01*
X034220Y017664D02*
X034140Y017664D01*
X034140Y017506D02*
X034209Y017506D01*
X034050Y017347D02*
X033998Y017347D01*
X033908Y017189D02*
X033890Y017189D01*
X033890Y017030D02*
X033908Y017030D01*
X033908Y016872D02*
X033890Y016872D01*
X033890Y016713D02*
X033908Y016713D01*
X033908Y016555D02*
X033890Y016555D01*
X033890Y016396D02*
X033908Y016396D01*
X033908Y016238D02*
X033890Y016238D01*
X033890Y016079D02*
X033908Y016079D01*
X033908Y015921D02*
X033890Y015921D01*
X033890Y015762D02*
X033908Y015762D01*
X033908Y015604D02*
X033890Y015604D01*
X033890Y015445D02*
X033908Y015445D01*
X033908Y015287D02*
X033890Y015287D01*
X033908Y015128D02*
X033800Y015128D01*
X033784Y014970D02*
X033908Y014970D01*
X033908Y014811D02*
X033695Y014811D01*
X033908Y014653D02*
X033265Y014653D01*
X033265Y014494D02*
X033908Y014494D01*
X033908Y014336D02*
X033265Y014336D01*
X033265Y014177D02*
X033908Y014177D01*
X033908Y014019D02*
X033265Y014019D01*
X033265Y013860D02*
X033908Y013860D01*
X033908Y013702D02*
X033265Y013702D01*
X033265Y013543D02*
X033908Y013543D01*
X033908Y013385D02*
X033265Y013385D01*
X033265Y013226D02*
X033908Y013226D01*
X033908Y013068D02*
X033265Y013068D01*
X033265Y012909D02*
X033908Y012909D01*
X033908Y012751D02*
X033265Y012751D01*
X033265Y012592D02*
X033908Y012592D01*
X033908Y012434D02*
X033265Y012434D01*
X033265Y012275D02*
X033908Y012275D01*
X033908Y012117D02*
X033265Y012117D01*
X033265Y011958D02*
X033908Y011958D01*
X033908Y011800D02*
X033265Y011800D01*
X033265Y011641D02*
X033908Y011641D01*
X033908Y011483D02*
X033265Y011483D01*
X033265Y011324D02*
X033908Y011324D01*
X033908Y011166D02*
X033265Y011166D01*
X033265Y011007D02*
X033908Y011007D01*
X033908Y010849D02*
X033265Y010849D01*
X033265Y010690D02*
X033908Y010690D01*
X033908Y010532D02*
X033265Y010532D01*
X033265Y010373D02*
X033908Y010373D01*
X033908Y010215D02*
X033265Y010215D01*
X033265Y010056D02*
X033908Y010056D01*
X033908Y009898D02*
X033265Y009898D01*
X033265Y009739D02*
X033908Y009739D01*
X033908Y009581D02*
X033265Y009581D01*
X033265Y009422D02*
X033908Y009422D01*
X033908Y009264D02*
X033265Y009264D01*
X033265Y009105D02*
X033908Y009105D01*
X033875Y008947D02*
X033265Y008947D01*
X033265Y008788D02*
X033773Y008788D01*
X033758Y008630D02*
X033265Y008630D01*
X033265Y008471D02*
X033817Y008471D01*
X033265Y008313D02*
X034470Y008313D01*
X034470Y008471D02*
X034418Y008471D01*
X034470Y008154D02*
X033265Y008154D01*
X033230Y007996D02*
X034470Y007996D01*
X034470Y007837D02*
X033071Y007837D01*
X033040Y007679D02*
X034470Y007679D01*
X034470Y007520D02*
X032967Y007520D01*
X032393Y007520D02*
X032390Y007520D01*
X032390Y007362D02*
X034470Y007362D01*
X034470Y007203D02*
X032390Y007203D01*
X032390Y007045D02*
X034470Y007045D01*
X034470Y006886D02*
X032390Y006886D01*
X032390Y006728D02*
X034470Y006728D01*
X034470Y006569D02*
X032390Y006569D01*
X032390Y006411D02*
X032473Y006411D01*
X032637Y006411D02*
X034470Y006411D01*
X034470Y006252D02*
X032863Y006252D01*
X032915Y006094D02*
X034470Y006094D01*
X034470Y005935D02*
X032895Y005935D01*
X032890Y005777D02*
X034470Y005777D01*
X034470Y005618D02*
X032890Y005618D01*
X032890Y005460D02*
X034470Y005460D01*
X034470Y005301D02*
X032890Y005301D01*
X032890Y005143D02*
X034470Y005143D01*
X034470Y004984D02*
X032890Y004984D01*
X032890Y004826D02*
X034470Y004826D01*
X034470Y004667D02*
X032890Y004667D01*
X032890Y004509D02*
X034470Y004509D01*
X034470Y004350D02*
X032890Y004350D01*
X032890Y004192D02*
X034470Y004192D01*
X034470Y004033D02*
X033774Y004033D01*
X033798Y004009D02*
X033696Y004110D01*
X033564Y004165D01*
X033421Y004165D01*
X033289Y004110D01*
X033187Y004009D01*
X033133Y003877D01*
X033133Y003733D01*
X033187Y003601D01*
X033289Y003500D01*
X033421Y003445D01*
X033470Y003445D01*
X033470Y003121D01*
X033220Y002871D01*
X033220Y002489D01*
X033489Y002220D01*
X033871Y002220D01*
X034140Y002489D01*
X034140Y002871D01*
X033890Y003121D01*
X033890Y003704D01*
X033852Y003742D01*
X033852Y003877D01*
X033798Y004009D01*
X033852Y003875D02*
X034470Y003875D01*
X034470Y003716D02*
X033878Y003716D01*
X033890Y003558D02*
X034470Y003558D01*
X034470Y003399D02*
X033890Y003399D01*
X033890Y003241D02*
X034470Y003241D01*
X034431Y003082D02*
X033929Y003082D01*
X034087Y002924D02*
X034273Y002924D01*
X034220Y002765D02*
X034140Y002765D01*
X034140Y002607D02*
X034220Y002607D01*
X034261Y002448D02*
X034099Y002448D01*
X033940Y002290D02*
X034420Y002290D01*
X034480Y002131D02*
X033908Y002131D01*
X033700Y002131D02*
X033660Y002131D01*
X033660Y001973D02*
X033700Y001973D01*
X033700Y001814D02*
X033660Y001814D01*
X033294Y001973D02*
X033038Y001973D01*
X033140Y001814D02*
X033200Y001814D01*
X033200Y001656D02*
X033140Y001656D01*
X033140Y001497D02*
X033200Y001497D01*
X034066Y001973D02*
X034322Y001973D01*
X034880Y002131D02*
X035033Y002131D01*
X035033Y002290D02*
X034940Y002290D01*
X035452Y002131D02*
X035480Y002131D01*
X035880Y002131D02*
X036480Y002131D01*
X036489Y002140D02*
X036220Y001871D01*
X036220Y001489D01*
X036489Y001220D01*
X036871Y001220D01*
X037140Y001489D01*
X037140Y001871D01*
X036871Y002140D01*
X036489Y002140D01*
X036489Y002220D02*
X036871Y002220D01*
X037140Y002489D01*
X037140Y002871D01*
X036871Y003140D01*
X036489Y003140D01*
X036220Y002871D01*
X036220Y002489D01*
X036489Y002220D01*
X036420Y002290D02*
X035940Y002290D01*
X036099Y002448D02*
X036261Y002448D01*
X036220Y002607D02*
X036140Y002607D01*
X036140Y002765D02*
X036220Y002765D01*
X036273Y002924D02*
X036087Y002924D01*
X036015Y003082D02*
X036431Y003082D01*
X036015Y003241D02*
X039400Y003241D01*
X039400Y003399D02*
X036015Y003399D01*
X036015Y003558D02*
X039400Y003558D01*
X039400Y003716D02*
X036015Y003716D01*
X036015Y003875D02*
X039400Y003875D01*
X039400Y004033D02*
X036015Y004033D01*
X036015Y004192D02*
X039400Y004192D01*
X039400Y004350D02*
X036015Y004350D01*
X036015Y004509D02*
X039400Y004509D01*
X039400Y004667D02*
X036015Y004667D01*
X036015Y004826D02*
X039400Y004826D01*
X039400Y004984D02*
X036015Y004984D01*
X036015Y005143D02*
X039400Y005143D01*
X039400Y005301D02*
X036015Y005301D01*
X036015Y005460D02*
X039400Y005460D01*
X039400Y005618D02*
X036015Y005618D01*
X036015Y005777D02*
X039400Y005777D01*
X039400Y005935D02*
X036015Y005935D01*
X036015Y006094D02*
X039400Y006094D01*
X039400Y006252D02*
X036015Y006252D01*
X036015Y006411D02*
X039400Y006411D01*
X039400Y006569D02*
X036015Y006569D01*
X036015Y006728D02*
X039400Y006728D01*
X039400Y006886D02*
X036015Y006886D01*
X036015Y007045D02*
X039400Y007045D01*
X039400Y007203D02*
X036015Y007203D01*
X036015Y007362D02*
X039400Y007362D01*
X039400Y007520D02*
X036015Y007520D01*
X036015Y007679D02*
X039400Y007679D01*
X039400Y007837D02*
X036015Y007837D01*
X036015Y007996D02*
X039400Y007996D01*
X039400Y008154D02*
X036015Y008154D01*
X036015Y008313D02*
X039400Y008313D01*
X039400Y008471D02*
X036015Y008471D01*
X036015Y008630D02*
X039400Y008630D01*
X039400Y008788D02*
X036015Y008788D01*
X036015Y008947D02*
X039400Y008947D01*
X039400Y009105D02*
X036015Y009105D01*
X036015Y009264D02*
X039400Y009264D01*
X039400Y009422D02*
X036015Y009422D01*
X036015Y009581D02*
X039400Y009581D01*
X039400Y009739D02*
X036015Y009739D01*
X036015Y009898D02*
X039400Y009898D01*
X039400Y010056D02*
X036015Y010056D01*
X036015Y010215D02*
X039400Y010215D01*
X039400Y010373D02*
X036015Y010373D01*
X036015Y010532D02*
X039400Y010532D01*
X039400Y010690D02*
X036015Y010690D01*
X036015Y010849D02*
X039400Y010849D01*
X039400Y011007D02*
X036015Y011007D01*
X036015Y011166D02*
X039400Y011166D01*
X039400Y011324D02*
X036015Y011324D01*
X036015Y011483D02*
X039400Y011483D01*
X039400Y011641D02*
X036015Y011641D01*
X036015Y011800D02*
X039400Y011800D01*
X039400Y011958D02*
X036129Y011958D01*
X036165Y012117D02*
X039400Y012117D01*
X039400Y012275D02*
X036129Y012275D01*
X035983Y012434D02*
X039400Y012434D01*
X039400Y012592D02*
X035640Y012592D01*
X035640Y012751D02*
X039400Y012751D01*
X039400Y012909D02*
X035640Y012909D01*
X035640Y013068D02*
X039400Y013068D01*
X039400Y013226D02*
X035640Y013226D01*
X035640Y013385D02*
X039400Y013385D01*
X039400Y013543D02*
X035640Y013543D01*
X035640Y013702D02*
X039400Y013702D01*
X039400Y013860D02*
X035640Y013860D01*
X035640Y014019D02*
X039400Y014019D01*
X039400Y014177D02*
X035640Y014177D01*
X035640Y014336D02*
X039400Y014336D01*
X039400Y014494D02*
X035640Y014494D01*
X035640Y014653D02*
X039400Y014653D01*
X039400Y014811D02*
X035640Y014811D01*
X035640Y014970D02*
X039400Y014970D01*
X039400Y015128D02*
X035640Y015128D01*
X035640Y015287D02*
X039400Y015287D01*
X039400Y015445D02*
X035640Y015445D01*
X035640Y015604D02*
X039400Y015604D01*
X039400Y015762D02*
X035640Y015762D01*
X035640Y015921D02*
X039400Y015921D01*
X039400Y016079D02*
X035640Y016079D01*
X035640Y016238D02*
X039400Y016238D01*
X039400Y016396D02*
X035640Y016396D01*
X035640Y016555D02*
X039400Y016555D01*
X039400Y016713D02*
X035640Y016713D01*
X035640Y016872D02*
X039400Y016872D01*
X039400Y017030D02*
X035640Y017030D01*
X035640Y017189D02*
X039400Y017189D01*
X039400Y017347D02*
X039034Y017347D01*
X039285Y017506D02*
X039400Y017506D01*
X038326Y017347D02*
X036998Y017347D01*
X036871Y017220D02*
X036489Y017220D01*
X036220Y017489D01*
X036220Y017871D01*
X036489Y018140D01*
X036871Y018140D01*
X037140Y017871D01*
X037140Y017489D01*
X036871Y017220D01*
X037140Y017506D02*
X038075Y017506D01*
X037916Y017664D02*
X037140Y017664D01*
X037140Y017823D02*
X037849Y017823D01*
X037783Y017981D02*
X037030Y017981D01*
X036871Y018140D02*
X037775Y018140D01*
X037775Y018298D02*
X036977Y018298D01*
X037135Y018457D02*
X037815Y018457D01*
X037881Y018615D02*
X037160Y018615D01*
X037160Y018774D02*
X037994Y018774D01*
X038152Y018932D02*
X037107Y018932D01*
X036700Y018932D02*
X036660Y018932D01*
X036660Y018774D02*
X036700Y018774D01*
X036700Y018615D02*
X036660Y018615D01*
X036660Y018457D02*
X036700Y018457D01*
X036700Y018298D02*
X036660Y018298D01*
X036489Y018140D02*
X035871Y018140D01*
X035949Y018298D02*
X036383Y018298D01*
X036225Y018457D02*
X036107Y018457D01*
X036140Y018615D02*
X036200Y018615D01*
X036200Y018774D02*
X036140Y018774D01*
X036079Y018932D02*
X036253Y018932D01*
X036330Y017981D02*
X036030Y017981D01*
X036140Y017823D02*
X036220Y017823D01*
X036220Y017664D02*
X036140Y017664D01*
X036140Y017506D02*
X036220Y017506D01*
X036362Y017347D02*
X035998Y017347D01*
X039208Y018932D02*
X039400Y018932D01*
X039400Y018774D02*
X039366Y018774D01*
X025845Y005460D02*
X025694Y005460D01*
X025845Y005301D02*
X025535Y005301D01*
X023314Y003875D02*
X023140Y003875D01*
X023140Y004033D02*
X023155Y004033D01*
X023140Y003716D02*
X023472Y003716D01*
X023631Y003558D02*
X023140Y003558D01*
X023140Y003399D02*
X023789Y003399D01*
X023908Y003241D02*
X023140Y003241D01*
X024327Y003082D02*
X024431Y003082D01*
X024670Y003082D02*
X024690Y003082D01*
X024690Y002924D02*
X024670Y002924D01*
X024670Y002765D02*
X024690Y002765D01*
X024690Y002607D02*
X024670Y002607D01*
X024670Y002448D02*
X024690Y002448D01*
X031140Y001814D02*
X031200Y001814D01*
X031200Y001656D02*
X031140Y001656D01*
X031140Y001497D02*
X031200Y001497D01*
X031700Y001700D02*
X031700Y002160D01*
X031879Y002160D01*
X032160Y001879D01*
X032160Y001700D01*
X031700Y001700D01*
X031700Y001814D02*
X031660Y001814D01*
X031660Y001973D02*
X031700Y001973D01*
X031700Y002131D02*
X031660Y002131D01*
X031452Y002131D02*
X031327Y002131D01*
X031327Y002290D02*
X031420Y002290D01*
X031294Y001973D02*
X031269Y001973D01*
X031908Y002131D02*
X032480Y002131D01*
X032420Y002290D02*
X031940Y002290D01*
X032099Y002448D02*
X032261Y002448D01*
X032220Y002607D02*
X032140Y002607D01*
X032140Y002765D02*
X032220Y002765D01*
X032273Y002924D02*
X032087Y002924D01*
X031929Y003082D02*
X032431Y003082D01*
X032470Y003241D02*
X031890Y003241D01*
X031890Y003399D02*
X032470Y003399D01*
X032470Y003558D02*
X031890Y003558D01*
X031890Y003716D02*
X032470Y003716D01*
X032470Y003875D02*
X031890Y003875D01*
X032890Y003875D02*
X033133Y003875D01*
X033140Y003716D02*
X032890Y003716D01*
X032890Y003558D02*
X033231Y003558D01*
X033470Y003399D02*
X032890Y003399D01*
X032890Y003241D02*
X033470Y003241D01*
X033431Y003082D02*
X032929Y003082D01*
X033087Y002924D02*
X033273Y002924D01*
X033220Y002765D02*
X033140Y002765D01*
X033140Y002607D02*
X033220Y002607D01*
X033261Y002448D02*
X033099Y002448D01*
X032940Y002290D02*
X033420Y002290D01*
X033452Y002131D02*
X032880Y002131D01*
X032322Y001973D02*
X032066Y001973D01*
X032160Y001814D02*
X032220Y001814D01*
X032220Y001656D02*
X032160Y001656D01*
X032160Y001497D02*
X032220Y001497D01*
X035452Y001180D02*
X039400Y001180D01*
X039400Y001021D02*
X035452Y001021D01*
X035989Y001339D02*
X036371Y001339D01*
X036220Y001497D02*
X036140Y001497D01*
X036140Y001656D02*
X036220Y001656D01*
X036220Y001814D02*
X036140Y001814D01*
X036038Y001973D02*
X036322Y001973D01*
X036880Y002131D02*
X037775Y002131D01*
X037775Y002290D02*
X036940Y002290D01*
X037099Y002448D02*
X037811Y002448D01*
X037877Y002607D02*
X037140Y002607D01*
X037140Y002765D02*
X037985Y002765D01*
X038144Y002924D02*
X037087Y002924D01*
X036929Y003082D02*
X038493Y003082D01*
X038867Y003082D02*
X039400Y003082D01*
X039400Y002924D02*
X039216Y002924D01*
X039375Y002765D02*
X039400Y002765D01*
X037786Y001973D02*
X037038Y001973D01*
X037140Y001814D02*
X037852Y001814D01*
X037925Y001656D02*
X037140Y001656D01*
X037140Y001497D02*
X038083Y001497D01*
X038347Y001339D02*
X036989Y001339D01*
X039013Y001339D02*
X039400Y001339D01*
X039400Y001497D02*
X039277Y001497D01*
X033211Y004033D02*
X032890Y004033D01*
D15*
X033493Y003805D02*
X033680Y003618D01*
X033680Y002680D01*
X034680Y002680D02*
X034680Y016805D01*
X034493Y016993D01*
X034118Y017118D02*
X034680Y017680D01*
X035430Y017430D02*
X035680Y017680D01*
X035430Y017430D02*
X035430Y003305D01*
X035243Y003118D01*
X035243Y001055D01*
X007680Y001055D01*
X007243Y001493D01*
X007243Y001743D01*
X007055Y001930D01*
X007055Y002118D01*
X005243Y002118D01*
X004680Y002680D01*
X003680Y002680D02*
X005055Y004055D01*
X005055Y013868D01*
X005743Y014555D01*
X006118Y015243D02*
X006118Y007493D01*
X007243Y006868D02*
X007243Y002118D01*
X007680Y001680D01*
X008243Y002118D02*
X008243Y006243D01*
X008493Y006493D01*
X008493Y007555D01*
X008868Y007868D02*
X008743Y007993D01*
X008868Y007868D02*
X008868Y002868D01*
X008680Y002680D01*
X009118Y002243D02*
X009118Y008493D01*
X009368Y008243D02*
X009493Y008368D01*
X009493Y016368D01*
X009243Y016618D01*
X009243Y019118D01*
X009680Y018680D02*
X010243Y018118D01*
X010243Y010180D01*
X010743Y010680D02*
X010743Y002743D01*
X010680Y002680D01*
X010055Y003055D02*
X010055Y007743D01*
X010118Y007805D01*
X010118Y008868D01*
X010493Y009180D02*
X010368Y009305D01*
X010493Y009180D02*
X010493Y004493D01*
X010243Y004243D01*
X010243Y002118D01*
X010680Y001680D01*
X011243Y002118D02*
X011243Y004118D01*
X012743Y005618D01*
X012743Y011493D01*
X012368Y011118D02*
X012243Y011243D01*
X012243Y018118D01*
X011680Y018680D01*
X012243Y018493D02*
X012430Y018305D01*
X012430Y018243D01*
X012743Y018243D01*
X013118Y017868D01*
X013118Y017618D01*
X013680Y017055D01*
X013680Y003368D01*
X013243Y002930D01*
X013243Y001243D01*
X014868Y001243D01*
X015118Y001493D01*
X015118Y001743D01*
X015430Y002055D01*
X015430Y002430D01*
X015680Y002680D01*
X015243Y002243D02*
X015243Y003368D01*
X016055Y004180D01*
X016055Y011430D01*
X016618Y011993D01*
X016618Y016055D01*
X016305Y016368D01*
X016305Y016680D01*
X017243Y017618D01*
X017243Y018868D01*
X017618Y019243D01*
X023180Y019243D01*
X023180Y018305D01*
X023118Y017868D02*
X022680Y018305D01*
X022680Y018680D01*
X022118Y018243D02*
X021680Y018680D01*
X022118Y018243D02*
X022118Y016680D01*
X022180Y016618D01*
X021680Y017055D02*
X021430Y016805D01*
X021430Y003930D01*
X021618Y003743D01*
X021993Y003868D02*
X021618Y004243D01*
X021618Y016055D01*
X021805Y016243D01*
X021993Y015930D02*
X022680Y016618D01*
X022680Y017680D01*
X023118Y017868D02*
X023118Y016055D01*
X022493Y015430D01*
X022493Y005555D01*
X022555Y005493D01*
X022368Y005180D02*
X022180Y005368D01*
X022180Y015618D01*
X022555Y015993D01*
X021993Y015930D02*
X021993Y004368D01*
X022243Y004118D02*
X022368Y004243D01*
X022368Y005180D01*
X023680Y005493D02*
X023680Y004368D01*
X023305Y004180D02*
X023305Y006993D01*
X023493Y007180D01*
X022930Y006743D02*
X022930Y002930D01*
X022680Y002680D01*
X021993Y002993D02*
X021993Y003868D01*
X022243Y004118D02*
X022243Y001243D01*
X019493Y001243D01*
X019243Y001493D01*
X019243Y001680D01*
X018680Y001680D01*
X019680Y001680D02*
X020180Y002180D01*
X020180Y015305D01*
X020555Y015680D01*
X020555Y016118D01*
X020180Y016493D01*
X020180Y018180D01*
X020680Y018680D01*
X020680Y017680D02*
X020680Y017055D01*
X020930Y016805D01*
X020930Y003555D01*
X020743Y003368D01*
X020368Y002993D02*
X020368Y010368D01*
X020743Y010743D01*
X020743Y016430D01*
X020555Y016618D01*
X019805Y016618D02*
X019680Y016743D01*
X019680Y017680D01*
X018680Y017680D02*
X018680Y017055D01*
X019493Y016243D01*
X019243Y015805D02*
X019243Y007430D01*
X016930Y005118D01*
X016243Y004930D02*
X017555Y006243D01*
X017930Y006618D02*
X017930Y016993D01*
X017868Y017055D01*
X017493Y017493D02*
X017493Y007118D01*
X017180Y006805D01*
X018180Y005868D02*
X019805Y007493D01*
X019805Y014805D01*
X017118Y016055D02*
X017118Y011368D01*
X016243Y012118D02*
X016118Y012243D01*
X016118Y018868D01*
X015868Y019118D01*
X012680Y019118D01*
X012680Y018680D01*
X012243Y018493D02*
X012243Y018993D01*
X012680Y019430D01*
X024243Y019430D01*
X024243Y018118D01*
X024680Y017680D01*
X024930Y017305D02*
X025118Y017493D01*
X025118Y018243D01*
X024680Y018680D01*
X026243Y018868D02*
X026493Y019118D01*
X033680Y019118D01*
X033680Y018680D01*
X033118Y018243D02*
X032680Y018680D01*
X033118Y018243D02*
X033118Y017493D01*
X033055Y017430D01*
X033055Y008118D01*
X032680Y007743D01*
X032680Y008243D02*
X032680Y017680D01*
X032118Y017493D02*
X032118Y018243D01*
X031680Y018680D01*
X031118Y018243D02*
X030680Y018680D01*
X031118Y018243D02*
X031118Y009055D01*
X031493Y008555D02*
X031493Y015118D01*
X031430Y015180D01*
X031430Y017430D01*
X031680Y017680D01*
X032118Y017493D02*
X031618Y016993D01*
X031618Y015305D01*
X031680Y015243D01*
X031680Y007743D01*
X031180Y007743D01*
X030930Y007493D01*
X030680Y007493D01*
X031305Y007368D02*
X031680Y006993D01*
X031680Y002680D01*
X030680Y002680D02*
X030055Y003305D01*
X030055Y008493D01*
X030243Y008680D01*
X029868Y009118D02*
X029868Y003118D01*
X030118Y002868D01*
X030118Y002118D01*
X029680Y001680D01*
X029118Y002118D02*
X029118Y002930D01*
X028055Y003993D01*
X028055Y010680D01*
X028243Y010868D01*
X028555Y011243D02*
X029118Y011805D01*
X029118Y018243D01*
X028680Y018680D01*
X028118Y018243D02*
X027680Y018680D01*
X028118Y018243D02*
X028118Y013055D01*
X028180Y012993D01*
X027680Y012993D02*
X027680Y002680D01*
X027243Y002868D02*
X027493Y003118D01*
X027493Y012180D01*
X027118Y012555D01*
X026493Y012680D02*
X026493Y013930D01*
X026743Y014180D01*
X027680Y013618D02*
X027680Y017680D01*
X026680Y017680D02*
X026680Y016243D01*
X025493Y015055D01*
X025493Y014493D02*
X026743Y015743D01*
X026743Y015805D01*
X025493Y016618D02*
X026243Y017368D01*
X026243Y018868D01*
X026680Y018680D02*
X027118Y018243D01*
X027118Y013055D01*
X028055Y011993D02*
X027868Y011805D01*
X027868Y003493D01*
X028680Y002680D01*
X029305Y003243D02*
X029305Y006305D01*
X028930Y006680D01*
X028930Y006180D02*
X028430Y006680D01*
X028930Y006180D02*
X028930Y004868D01*
X030430Y005680D02*
X031118Y004993D01*
X031118Y002118D01*
X030680Y001680D01*
X029118Y002118D02*
X028680Y001680D01*
X027243Y002243D02*
X027243Y002868D01*
X027118Y003243D02*
X027305Y003430D01*
X027305Y010930D01*
X026618Y011618D01*
X025493Y010743D02*
X025805Y010430D01*
X025805Y006555D01*
X026055Y006305D01*
X026055Y002930D01*
X026118Y002868D01*
X026118Y002118D01*
X025680Y001680D01*
X026680Y001680D02*
X027243Y002243D01*
X026680Y002680D02*
X026680Y005680D01*
X026430Y005930D01*
X026930Y005930D02*
X026930Y009868D01*
X026805Y009993D01*
X026430Y009930D02*
X026430Y006430D01*
X025680Y006180D02*
X025680Y005743D01*
X025430Y005493D01*
X024930Y005493D01*
X024930Y017305D01*
X025118Y017118D02*
X025680Y017680D01*
X025118Y017118D02*
X025118Y006055D01*
X025305Y005868D01*
X025680Y006180D02*
X025618Y006243D01*
X024055Y005368D02*
X024055Y012993D01*
X022868Y014180D01*
X023118Y014868D02*
X024055Y015805D01*
X024430Y016930D02*
X023680Y017680D01*
X024430Y016930D02*
X024430Y004430D01*
X023993Y003993D01*
X024118Y003368D02*
X023305Y004180D01*
X024118Y003368D02*
X024118Y001243D01*
X033868Y001243D01*
X034118Y001493D01*
X034118Y001680D01*
X034680Y001680D01*
X035680Y002680D02*
X035805Y002805D01*
X035805Y012118D01*
X030680Y010430D02*
X030680Y017680D01*
X030118Y018243D02*
X029680Y018680D01*
X030118Y018243D02*
X030118Y011180D01*
X029993Y011055D01*
X029680Y011618D02*
X029680Y017680D01*
X033680Y017680D02*
X033680Y015305D01*
X033430Y015055D01*
X032180Y015243D02*
X032180Y004243D01*
X032680Y002680D02*
X032680Y005930D01*
X032555Y006055D01*
X029680Y006430D02*
X029680Y002680D01*
X025680Y002680D02*
X025680Y004180D01*
X023868Y005680D02*
X023680Y005493D01*
X023868Y005680D02*
X023868Y010180D01*
X023680Y010368D01*
X026180Y010180D02*
X026430Y009930D01*
X028430Y009993D02*
X028930Y009493D01*
X028930Y007180D01*
X029680Y006430D01*
X031055Y008118D02*
X031493Y008555D01*
X030180Y009430D02*
X029868Y009118D01*
X029305Y009055D02*
X030680Y010430D01*
X029680Y011618D02*
X028555Y010493D01*
X034118Y008680D02*
X034118Y017118D01*
X035118Y018243D02*
X034680Y018680D01*
X035118Y018243D02*
X035118Y003493D01*
X035055Y003430D01*
X022930Y006743D02*
X022868Y006805D01*
X019805Y005618D02*
X017243Y003055D01*
X017243Y002243D01*
X016680Y001680D01*
X017680Y001680D02*
X018243Y002243D01*
X018243Y003555D01*
X019805Y005118D01*
X018868Y005868D02*
X017118Y004118D01*
X017055Y003555D02*
X017055Y003055D01*
X016680Y002680D01*
X016243Y002243D02*
X016243Y004930D01*
X015055Y003680D02*
X015055Y003055D01*
X014680Y002680D01*
X014243Y002243D02*
X014243Y012868D01*
X014618Y012993D02*
X014618Y015493D01*
X014118Y015993D01*
X014118Y018243D01*
X013680Y018680D01*
X014680Y018680D02*
X015243Y018118D01*
X015243Y010743D01*
X013118Y011993D02*
X013118Y005680D01*
X012243Y004805D01*
X012243Y002118D01*
X012680Y001680D01*
X013680Y001680D02*
X014243Y002243D01*
X013680Y002680D02*
X013868Y002868D01*
X013868Y014180D01*
X014243Y014555D01*
X013305Y013618D02*
X013493Y013430D01*
X013493Y003493D01*
X012680Y002680D01*
X011680Y001680D02*
X011243Y002118D01*
X010055Y003055D02*
X009680Y002680D01*
X009118Y002243D02*
X009680Y001680D01*
X008680Y001680D02*
X008243Y002118D01*
X007680Y002680D02*
X007680Y007180D01*
X008118Y006618D02*
X008118Y018243D01*
X007680Y018680D01*
X007680Y017680D02*
X007743Y017618D01*
X007743Y013180D01*
X008493Y013118D02*
X008493Y015743D01*
X009743Y016618D02*
X009743Y007930D01*
X009368Y008243D02*
X009368Y004993D01*
X009618Y004743D01*
X011368Y004743D02*
X012118Y005493D01*
X012118Y010430D01*
X011993Y010555D01*
X011993Y014618D01*
X011868Y014743D01*
X011493Y015055D02*
X011493Y010555D01*
X011680Y010368D01*
X011305Y009555D02*
X011743Y009118D01*
X011743Y008868D01*
X011118Y009243D02*
X011118Y018243D01*
X010680Y018680D01*
X012680Y017680D02*
X012680Y013555D01*
X012993Y013243D01*
X014618Y012993D02*
X014743Y012868D01*
X015743Y012305D02*
X015743Y016368D01*
X015618Y016493D01*
X016680Y016493D02*
X017118Y016055D01*
X014868Y015743D02*
X014868Y017493D01*
X014680Y017680D01*
X017493Y017493D02*
X017680Y017680D01*
X021680Y017680D02*
X021680Y017055D01*
X011680Y015243D02*
X011493Y015055D01*
X011305Y016305D02*
X011305Y009555D01*
X009118Y012493D02*
X008493Y013118D01*
X006868Y012805D02*
X006868Y002868D01*
X006680Y002680D01*
X006493Y003493D02*
X005680Y002680D01*
X006493Y003493D02*
X006493Y005680D01*
X014680Y001680D02*
X015243Y002243D01*
X015680Y001680D02*
X016243Y002243D01*
X020368Y002993D02*
X020680Y002680D01*
X021680Y002680D02*
X021993Y002993D01*
X032180Y015243D02*
X031993Y015430D01*
X011493Y016493D02*
X011305Y016305D01*
X006868Y016868D02*
X006868Y017493D01*
X006680Y017680D01*
X006118Y015243D02*
X003680Y017680D01*
M02*
