G75*
%MOIN*%
%OFA0B0*%
%FSLAX25Y25*%
%IPPOS*%
%LPD*%
%AMOC8*
5,1,8,0,0,1.08239X$1,22.5*
%
%ADD10C,0.00400*%
%ADD11C,0.00600*%
%ADD12R,0.10000X0.10000*%
%ADD13C,0.00500*%
D10*
X0136500Y0151500D02*
X0136500Y0156104D01*
X0139569Y0151500D01*
X0139569Y0156104D01*
X0141104Y0153802D02*
X0141104Y0152267D01*
X0141871Y0151500D01*
X0143406Y0151500D01*
X0144173Y0152267D01*
X0144173Y0153802D01*
X0143406Y0154569D01*
X0141871Y0154569D01*
X0141104Y0153802D01*
X0145708Y0154569D02*
X0147242Y0154569D01*
X0146475Y0155337D02*
X0146475Y0152267D01*
X0147242Y0151500D01*
X0148777Y0152267D02*
X0148777Y0153802D01*
X0149544Y0154569D01*
X0151079Y0154569D01*
X0151846Y0153802D01*
X0151846Y0153035D01*
X0148777Y0153035D01*
X0148777Y0152267D02*
X0149544Y0151500D01*
X0151079Y0151500D01*
X0153381Y0151500D02*
X0153381Y0152267D01*
X0154148Y0152267D01*
X0154148Y0151500D01*
X0153381Y0151500D01*
X0153381Y0153802D02*
X0153381Y0154569D01*
X0154148Y0154569D01*
X0154148Y0153802D01*
X0153381Y0153802D01*
X0160287Y0153802D02*
X0163356Y0153802D01*
X0164891Y0153802D02*
X0166425Y0153802D01*
X0164891Y0156104D02*
X0164891Y0151500D01*
X0167960Y0151500D01*
X0169495Y0151500D02*
X0169495Y0154569D01*
X0171029Y0156104D01*
X0172564Y0154569D01*
X0172564Y0151500D01*
X0174099Y0151500D02*
X0176401Y0151500D01*
X0177168Y0152267D01*
X0177168Y0155337D01*
X0176401Y0156104D01*
X0174099Y0156104D01*
X0174099Y0151500D01*
X0172564Y0153802D02*
X0169495Y0153802D01*
X0167960Y0156104D02*
X0164891Y0156104D01*
X0163356Y0156104D02*
X0163356Y0151500D01*
X0160287Y0151500D02*
X0160287Y0156104D01*
X0178703Y0156104D02*
X0178703Y0151500D01*
X0181772Y0151500D01*
X0183307Y0151500D02*
X0183307Y0156104D01*
X0185609Y0156104D01*
X0186376Y0155337D01*
X0186376Y0153802D01*
X0185609Y0153035D01*
X0183307Y0153035D01*
X0184841Y0153035D02*
X0186376Y0151500D01*
X0187910Y0152267D02*
X0188678Y0151500D01*
X0190212Y0151500D01*
X0190980Y0152267D01*
X0190980Y0153035D01*
X0190212Y0153802D01*
X0188678Y0153802D01*
X0187910Y0154569D01*
X0187910Y0155337D01*
X0188678Y0156104D01*
X0190212Y0156104D01*
X0190980Y0155337D01*
X0197118Y0153802D02*
X0197118Y0152267D01*
X0197886Y0151500D01*
X0200188Y0151500D01*
X0200188Y0150733D02*
X0200188Y0154569D01*
X0197886Y0154569D01*
X0197118Y0153802D01*
X0198653Y0149965D02*
X0199420Y0149965D01*
X0200188Y0150733D01*
X0201722Y0152267D02*
X0202490Y0151500D01*
X0204024Y0151500D01*
X0204792Y0152267D01*
X0204792Y0153802D01*
X0204024Y0154569D01*
X0202490Y0154569D01*
X0201722Y0153802D01*
X0201722Y0152267D01*
X0210930Y0152267D02*
X0211697Y0151500D01*
X0213232Y0151500D01*
X0213999Y0152267D01*
X0213999Y0153802D01*
X0213232Y0154569D01*
X0211697Y0154569D01*
X0210930Y0153802D01*
X0210930Y0152267D01*
X0215534Y0151500D02*
X0215534Y0154569D01*
X0217836Y0154569D01*
X0218603Y0153802D01*
X0218603Y0151500D01*
X0224742Y0156104D02*
X0227811Y0156104D01*
X0226277Y0156104D02*
X0226277Y0151500D01*
X0229346Y0151500D02*
X0229346Y0156104D01*
X0229346Y0153802D02*
X0232415Y0153802D01*
X0232415Y0156104D02*
X0232415Y0151500D01*
X0233950Y0151500D02*
X0235484Y0151500D01*
X0234717Y0151500D02*
X0234717Y0156104D01*
X0233950Y0156104D02*
X0235484Y0156104D01*
X0237019Y0155337D02*
X0237019Y0154569D01*
X0237786Y0153802D01*
X0239321Y0153802D01*
X0240088Y0153035D01*
X0240088Y0152267D01*
X0239321Y0151500D01*
X0237786Y0151500D01*
X0237019Y0152267D01*
X0237019Y0155337D02*
X0237786Y0156104D01*
X0239321Y0156104D01*
X0240088Y0155337D01*
X0246227Y0155337D02*
X0246227Y0154569D01*
X0246994Y0153802D01*
X0248529Y0153802D01*
X0249296Y0153035D01*
X0249296Y0152267D01*
X0248529Y0151500D01*
X0246994Y0151500D01*
X0246227Y0152267D01*
X0246227Y0155337D02*
X0246994Y0156104D01*
X0248529Y0156104D01*
X0249296Y0155337D01*
X0250831Y0156104D02*
X0252365Y0156104D01*
X0251598Y0156104D02*
X0251598Y0151500D01*
X0250831Y0151500D02*
X0252365Y0151500D01*
X0253900Y0151500D02*
X0253900Y0156104D01*
X0256202Y0156104D01*
X0256969Y0155337D01*
X0256969Y0152267D01*
X0256202Y0151500D01*
X0253900Y0151500D01*
X0258504Y0151500D02*
X0258504Y0156104D01*
X0261573Y0156104D01*
X0260039Y0153802D02*
X0258504Y0153802D01*
X0258504Y0151500D02*
X0261573Y0151500D01*
X0267712Y0151500D02*
X0267712Y0152267D01*
X0269246Y0152267D02*
X0269246Y0151500D01*
X0269246Y0153802D02*
X0269246Y0156871D01*
X0267712Y0156871D02*
X0267712Y0153802D01*
X0268108Y0186500D02*
X0268108Y0188802D01*
X0268875Y0189569D01*
X0269643Y0188802D01*
X0269643Y0186500D01*
X0268108Y0188802D02*
X0267341Y0189569D01*
X0266573Y0189569D01*
X0266573Y0186500D01*
X0265039Y0187267D02*
X0265039Y0188802D01*
X0264271Y0189569D01*
X0262737Y0189569D01*
X0261969Y0188802D01*
X0261969Y0187267D01*
X0262737Y0186500D01*
X0264271Y0186500D01*
X0265039Y0187267D01*
X0260435Y0186500D02*
X0258133Y0186500D01*
X0257365Y0187267D01*
X0257365Y0188802D01*
X0258133Y0189569D01*
X0260435Y0189569D01*
X0255831Y0187267D02*
X0255831Y0186500D01*
X0255063Y0186500D01*
X0255063Y0187267D01*
X0255831Y0187267D01*
X0253529Y0189569D02*
X0252761Y0189569D01*
X0251227Y0188035D01*
X0251227Y0189569D02*
X0251227Y0186500D01*
X0249692Y0188035D02*
X0246623Y0188035D01*
X0246623Y0188802D02*
X0247390Y0189569D01*
X0248925Y0189569D01*
X0249692Y0188802D01*
X0249692Y0188035D01*
X0248925Y0186500D02*
X0247390Y0186500D01*
X0246623Y0187267D01*
X0246623Y0188802D01*
X0245088Y0189569D02*
X0242786Y0188035D01*
X0245088Y0186500D01*
X0242786Y0186500D02*
X0242786Y0191104D01*
X0240484Y0189569D02*
X0241252Y0188802D01*
X0241252Y0186500D01*
X0238950Y0186500D01*
X0238182Y0187267D01*
X0238950Y0188035D01*
X0241252Y0188035D01*
X0240484Y0189569D02*
X0238950Y0189569D01*
X0236648Y0188802D02*
X0235880Y0189569D01*
X0233578Y0189569D01*
X0233578Y0191104D02*
X0233578Y0186500D01*
X0235880Y0186500D01*
X0236648Y0187267D01*
X0236648Y0188802D01*
X0232044Y0188802D02*
X0232044Y0186500D01*
X0230509Y0186500D02*
X0230509Y0188802D01*
X0231277Y0189569D01*
X0232044Y0188802D01*
X0230509Y0188802D02*
X0229742Y0189569D01*
X0228975Y0189569D01*
X0228975Y0186500D01*
X0227440Y0187267D02*
X0226673Y0188035D01*
X0225138Y0188035D01*
X0224371Y0188802D01*
X0225138Y0189569D01*
X0227440Y0189569D01*
X0227440Y0187267D02*
X0226673Y0186500D01*
X0224371Y0186500D01*
X0222836Y0186500D02*
X0222069Y0186500D01*
X0222069Y0187267D01*
X0222836Y0187267D01*
X0222836Y0186500D01*
X0220534Y0187267D02*
X0220534Y0189569D01*
X0220534Y0187267D02*
X0219767Y0186500D01*
X0218999Y0187267D01*
X0218232Y0186500D01*
X0217465Y0187267D01*
X0217465Y0189569D01*
X0215930Y0189569D02*
X0215930Y0187267D01*
X0215163Y0186500D01*
X0214395Y0187267D01*
X0213628Y0186500D01*
X0212861Y0187267D01*
X0212861Y0189569D01*
X0211326Y0189569D02*
X0211326Y0187267D01*
X0210559Y0186500D01*
X0209792Y0187267D01*
X0209024Y0186500D01*
X0208257Y0187267D01*
X0208257Y0189569D01*
X0202118Y0190337D02*
X0199049Y0187267D01*
X0199049Y0186500D01*
X0197514Y0186500D02*
X0196747Y0186500D01*
X0196747Y0187267D01*
X0197514Y0187267D01*
X0197514Y0186500D01*
X0195212Y0187267D02*
X0195212Y0190337D01*
X0192143Y0187267D01*
X0192910Y0186500D01*
X0194445Y0186500D01*
X0195212Y0187267D01*
X0192143Y0187267D02*
X0192143Y0190337D01*
X0192910Y0191104D01*
X0194445Y0191104D01*
X0195212Y0190337D01*
X0199049Y0191104D02*
X0202118Y0191104D01*
X0202118Y0190337D01*
X0186005Y0191104D02*
X0186005Y0186500D01*
X0183703Y0186500D01*
X0182935Y0187267D01*
X0182935Y0188802D01*
X0183703Y0189569D01*
X0186005Y0189569D01*
X0181401Y0188802D02*
X0181401Y0186500D01*
X0179099Y0186500D01*
X0178331Y0187267D01*
X0179099Y0188035D01*
X0181401Y0188035D01*
X0181401Y0188802D02*
X0180633Y0189569D01*
X0179099Y0189569D01*
X0176797Y0189569D02*
X0176797Y0186500D01*
X0174495Y0186500D01*
X0173727Y0187267D01*
X0173727Y0189569D01*
X0172193Y0189569D02*
X0169891Y0189569D01*
X0169124Y0188802D01*
X0169124Y0187267D01*
X0169891Y0186500D01*
X0172193Y0186500D01*
X0172193Y0184965D02*
X0172193Y0189569D01*
X0167589Y0188802D02*
X0164520Y0188802D01*
X0162985Y0190337D02*
X0159916Y0187267D01*
X0160683Y0186500D01*
X0162218Y0186500D01*
X0162985Y0187267D01*
X0162985Y0190337D01*
X0162218Y0191104D01*
X0160683Y0191104D01*
X0159916Y0190337D01*
X0159916Y0187267D01*
X0158381Y0187267D02*
X0158381Y0190337D01*
X0155312Y0187267D01*
X0156079Y0186500D01*
X0157614Y0186500D01*
X0158381Y0187267D01*
X0155312Y0187267D02*
X0155312Y0190337D01*
X0156079Y0191104D01*
X0157614Y0191104D01*
X0158381Y0190337D01*
X0153777Y0190337D02*
X0153777Y0187267D01*
X0153010Y0186500D01*
X0151475Y0186500D01*
X0150708Y0187267D01*
X0153777Y0190337D01*
X0153010Y0191104D01*
X0151475Y0191104D01*
X0150708Y0190337D01*
X0150708Y0187267D01*
X0149173Y0187267D02*
X0148406Y0186500D01*
X0146871Y0186500D01*
X0146104Y0187267D01*
X0146104Y0188035D01*
X0146871Y0188802D01*
X0148406Y0188802D01*
X0149173Y0188035D01*
X0149173Y0187267D01*
X0148406Y0188802D02*
X0149173Y0189569D01*
X0149173Y0190337D01*
X0148406Y0191104D01*
X0146871Y0191104D01*
X0146104Y0190337D01*
X0146104Y0189569D01*
X0146871Y0188802D01*
X0144569Y0190337D02*
X0141500Y0187267D01*
X0141500Y0186500D01*
X0144569Y0186500D01*
X0144569Y0190337D02*
X0144569Y0191104D01*
X0141500Y0191104D01*
X0178703Y0156104D02*
X0181772Y0156104D01*
X0180237Y0153802D02*
X0178703Y0153802D01*
D11*
X0008800Y0031300D02*
X0006300Y0033800D01*
X0006300Y0038800D01*
X0008800Y0041300D01*
X0006300Y0043800D01*
X0006300Y0048800D01*
X0008800Y0051300D01*
X0006300Y0053800D01*
X0006300Y0058800D01*
X0008800Y0061300D01*
X0006300Y0063800D01*
X0006300Y0068800D01*
X0008800Y0071300D01*
X0006300Y0073800D01*
X0006300Y0078800D01*
X0008800Y0081300D01*
X0006300Y0083800D01*
X0006300Y0088800D01*
X0008800Y0091300D01*
X0006300Y0093800D01*
X0006300Y0098800D01*
X0008800Y0101300D01*
X0006300Y0103800D01*
X0006300Y0108800D01*
X0008800Y0111300D01*
X0006300Y0113800D01*
X0006300Y0118800D01*
X0008800Y0121300D01*
X0006300Y0123800D01*
X0006300Y0128800D01*
X0008800Y0131300D01*
X0006300Y0133800D01*
X0006300Y0138800D01*
X0008800Y0141300D01*
X0006300Y0143800D01*
X0006300Y0148800D01*
X0008800Y0151300D01*
X0006300Y0153800D01*
X0006300Y0158800D01*
X0008800Y0161300D01*
X0006300Y0163800D01*
X0006300Y0168800D01*
X0008800Y0171300D01*
X0006300Y0173800D01*
X0006300Y0178800D01*
X0008800Y0181300D01*
X0006300Y0183800D01*
X0006300Y0188800D01*
X0008800Y0191300D01*
X0006300Y0193800D01*
X0006300Y0198800D01*
X0008800Y0201300D01*
X0006300Y0203800D01*
X0006300Y0208800D01*
X0008800Y0211300D01*
X0006300Y0213800D01*
X0006300Y0218800D01*
X0008800Y0221300D01*
X0006300Y0223800D01*
X0006300Y0228800D01*
X0008800Y0231300D01*
X0006300Y0233800D01*
X0006300Y0238800D01*
X0008800Y0241300D01*
X0006300Y0243800D01*
X0006300Y0248800D01*
X0008800Y0251300D01*
X0006300Y0253800D01*
X0006300Y0258800D01*
X0008800Y0261300D01*
X0006300Y0263800D01*
X0006300Y0268800D01*
X0008800Y0271300D01*
X0006300Y0273800D01*
X0006300Y0278800D01*
X0008800Y0281300D01*
X0006300Y0283800D01*
X0006300Y0288800D01*
X0008800Y0291300D01*
X0006300Y0293800D01*
X0006300Y0298800D01*
X0008800Y0301300D01*
X0006300Y0303800D01*
X0006300Y0308800D01*
X0008800Y0311300D01*
X0006300Y0313800D01*
X0006300Y0318800D01*
X0008800Y0321300D01*
X0006300Y0323800D01*
X0006300Y0328800D01*
X0008800Y0331300D01*
X0006300Y0333800D01*
X0006300Y0338800D01*
X0008800Y0341300D01*
X0006300Y0343800D01*
X0006300Y0348800D01*
X0008800Y0351300D01*
X0006300Y0353800D01*
X0006300Y0358800D01*
X0008800Y0361300D01*
X0006300Y0363800D01*
X0006300Y0368800D01*
X0008800Y0371300D01*
X0023800Y0371300D01*
X0026300Y0368800D01*
X0026300Y0363800D01*
X0023800Y0361300D01*
X0026300Y0358800D01*
X0026300Y0353800D01*
X0023800Y0351300D01*
X0026300Y0348800D01*
X0026300Y0343800D01*
X0023800Y0341300D01*
X0026300Y0338800D01*
X0026300Y0333800D01*
X0023800Y0331300D01*
X0026300Y0328800D01*
X0026300Y0323800D01*
X0023800Y0321300D01*
X0026300Y0318800D01*
X0026300Y0313800D01*
X0023800Y0311300D01*
X0026300Y0308800D01*
X0026300Y0303800D01*
X0023800Y0301300D01*
X0026300Y0298800D01*
X0026300Y0293800D01*
X0023800Y0291300D01*
X0026300Y0288800D01*
X0026300Y0283800D01*
X0023800Y0281300D01*
X0026300Y0278800D01*
X0026300Y0273800D01*
X0023800Y0271300D01*
X0026300Y0268800D01*
X0026300Y0263800D01*
X0023800Y0261300D01*
X0026300Y0258800D01*
X0026300Y0253800D01*
X0023800Y0251300D01*
X0026300Y0248800D01*
X0026300Y0243800D01*
X0023800Y0241300D01*
X0026300Y0238800D01*
X0026300Y0233800D01*
X0023800Y0231300D01*
X0026300Y0228800D01*
X0026300Y0223800D01*
X0023800Y0221300D01*
X0026300Y0218800D01*
X0026300Y0213800D01*
X0023800Y0211300D01*
X0026300Y0208800D01*
X0026300Y0203800D01*
X0023800Y0201300D01*
X0026300Y0198800D01*
X0026300Y0193800D01*
X0023800Y0191300D01*
X0026300Y0188800D01*
X0026300Y0183800D01*
X0023800Y0181300D01*
X0026300Y0178800D01*
X0026300Y0173800D01*
X0023800Y0171300D01*
X0026300Y0168800D01*
X0026300Y0163800D01*
X0023800Y0161300D01*
X0026300Y0158800D01*
X0026300Y0153800D01*
X0023800Y0151300D01*
X0026300Y0148800D01*
X0026300Y0143800D01*
X0023800Y0141300D01*
X0026300Y0138800D01*
X0026300Y0133800D01*
X0023800Y0131300D01*
X0026300Y0128800D01*
X0026300Y0123800D01*
X0023800Y0121300D01*
X0026300Y0118800D01*
X0026300Y0113800D01*
X0023800Y0111300D01*
X0026300Y0108800D01*
X0026300Y0103800D01*
X0023800Y0101300D01*
X0026300Y0098800D01*
X0026300Y0093800D01*
X0023800Y0091300D01*
X0026300Y0088800D01*
X0026300Y0083800D01*
X0023800Y0081300D01*
X0026300Y0078800D01*
X0026300Y0073800D01*
X0023800Y0071300D01*
X0026300Y0068800D01*
X0026300Y0063800D01*
X0023800Y0061300D01*
X0026300Y0058800D01*
X0026300Y0053800D01*
X0023800Y0051300D01*
X0026300Y0048800D01*
X0026300Y0043800D01*
X0023800Y0041300D01*
X0026300Y0038800D01*
X0026300Y0033800D01*
X0023800Y0031300D01*
X0008800Y0031300D01*
X0031300Y0023800D02*
X0031300Y0008800D01*
X0033800Y0006300D01*
X0038800Y0006300D01*
X0041300Y0008800D01*
X0043800Y0006300D01*
X0048800Y0006300D01*
X0051300Y0008800D01*
X0053800Y0006300D01*
X0058800Y0006300D01*
X0061300Y0008800D01*
X0063800Y0006300D01*
X0068800Y0006300D01*
X0071300Y0008800D01*
X0073800Y0006300D01*
X0078800Y0006300D01*
X0081300Y0008800D01*
X0083800Y0006300D01*
X0088800Y0006300D01*
X0091300Y0008800D01*
X0093800Y0006300D01*
X0098800Y0006300D01*
X0101300Y0008800D01*
X0103800Y0006300D01*
X0108800Y0006300D01*
X0111300Y0008800D01*
X0113800Y0006300D01*
X0118800Y0006300D01*
X0121300Y0008800D01*
X0123800Y0006300D01*
X0128800Y0006300D01*
X0131300Y0008800D01*
X0133800Y0006300D01*
X0138800Y0006300D01*
X0141300Y0008800D01*
X0143800Y0006300D01*
X0148800Y0006300D01*
X0151300Y0008800D01*
X0153800Y0006300D01*
X0158800Y0006300D01*
X0161300Y0008800D01*
X0163800Y0006300D01*
X0168800Y0006300D01*
X0171300Y0008800D01*
X0173800Y0006300D01*
X0178800Y0006300D01*
X0181300Y0008800D01*
X0183800Y0006300D01*
X0188800Y0006300D01*
X0191300Y0008800D01*
X0193800Y0006300D01*
X0198800Y0006300D01*
X0201300Y0008800D01*
X0203800Y0006300D01*
X0208800Y0006300D01*
X0211300Y0008800D01*
X0213800Y0006300D01*
X0218800Y0006300D01*
X0221300Y0008800D01*
X0223800Y0006300D01*
X0228800Y0006300D01*
X0231300Y0008800D01*
X0233800Y0006300D01*
X0238800Y0006300D01*
X0241300Y0008800D01*
X0243800Y0006300D01*
X0248800Y0006300D01*
X0251300Y0008800D01*
X0253800Y0006300D01*
X0258800Y0006300D01*
X0261300Y0008800D01*
X0263800Y0006300D01*
X0268800Y0006300D01*
X0271300Y0008800D01*
X0273800Y0006300D01*
X0278800Y0006300D01*
X0281300Y0008800D01*
X0283800Y0006300D01*
X0288800Y0006300D01*
X0291300Y0008800D01*
X0293800Y0006300D01*
X0298800Y0006300D01*
X0301300Y0008800D01*
X0303800Y0006300D01*
X0308800Y0006300D01*
X0311300Y0008800D01*
X0313800Y0006300D01*
X0318800Y0006300D01*
X0321300Y0008800D01*
X0323800Y0006300D01*
X0328800Y0006300D01*
X0331300Y0008800D01*
X0333800Y0006300D01*
X0338800Y0006300D01*
X0341300Y0008800D01*
X0343800Y0006300D01*
X0348800Y0006300D01*
X0351300Y0008800D01*
X0353800Y0006300D01*
X0358800Y0006300D01*
X0361300Y0008800D01*
X0363800Y0006300D01*
X0368800Y0006300D01*
X0371300Y0008800D01*
X0371300Y0023800D01*
X0368800Y0026300D01*
X0363800Y0026300D01*
X0361300Y0023800D01*
X0358800Y0026300D01*
X0353800Y0026300D01*
X0351300Y0023800D01*
X0348800Y0026300D01*
X0343800Y0026300D01*
X0341300Y0023800D01*
X0338800Y0026300D01*
X0333800Y0026300D01*
X0331300Y0023800D01*
X0328800Y0026300D01*
X0323800Y0026300D01*
X0321300Y0023800D01*
X0318800Y0026300D01*
X0313800Y0026300D01*
X0311300Y0023800D01*
X0308800Y0026300D01*
X0303800Y0026300D01*
X0301300Y0023800D01*
X0298800Y0026300D01*
X0293800Y0026300D01*
X0291300Y0023800D01*
X0288800Y0026300D01*
X0283800Y0026300D01*
X0281300Y0023800D01*
X0278800Y0026300D01*
X0273800Y0026300D01*
X0271300Y0023800D01*
X0268800Y0026300D01*
X0263800Y0026300D01*
X0261300Y0023800D01*
X0258800Y0026300D01*
X0253800Y0026300D01*
X0251300Y0023800D01*
X0248800Y0026300D01*
X0243800Y0026300D01*
X0241300Y0023800D01*
X0238800Y0026300D01*
X0233800Y0026300D01*
X0231300Y0023800D01*
X0228800Y0026300D01*
X0223800Y0026300D01*
X0221300Y0023800D01*
X0218800Y0026300D01*
X0213800Y0026300D01*
X0211300Y0023800D01*
X0208800Y0026300D01*
X0203800Y0026300D01*
X0201300Y0023800D01*
X0198800Y0026300D01*
X0193800Y0026300D01*
X0191300Y0023800D01*
X0188800Y0026300D01*
X0183800Y0026300D01*
X0181300Y0023800D01*
X0178800Y0026300D01*
X0173800Y0026300D01*
X0171300Y0023800D01*
X0168800Y0026300D01*
X0163800Y0026300D01*
X0161300Y0023800D01*
X0158800Y0026300D01*
X0153800Y0026300D01*
X0151300Y0023800D01*
X0148800Y0026300D01*
X0143800Y0026300D01*
X0141300Y0023800D01*
X0138800Y0026300D01*
X0133800Y0026300D01*
X0131300Y0023800D01*
X0128800Y0026300D01*
X0123800Y0026300D01*
X0121300Y0023800D01*
X0118800Y0026300D01*
X0113800Y0026300D01*
X0111300Y0023800D01*
X0108800Y0026300D01*
X0103800Y0026300D01*
X0101300Y0023800D01*
X0098800Y0026300D01*
X0093800Y0026300D01*
X0091300Y0023800D01*
X0088800Y0026300D01*
X0083800Y0026300D01*
X0081300Y0023800D01*
X0078800Y0026300D01*
X0073800Y0026300D01*
X0071300Y0023800D01*
X0068800Y0026300D01*
X0063800Y0026300D01*
X0061300Y0023800D01*
X0058800Y0026300D01*
X0053800Y0026300D01*
X0051300Y0023800D01*
X0048800Y0026300D01*
X0043800Y0026300D01*
X0041300Y0023800D01*
X0038800Y0026300D01*
X0033800Y0026300D01*
X0031300Y0023800D01*
X0376300Y0033800D02*
X0378800Y0031300D01*
X0393800Y0031300D01*
X0396300Y0033800D01*
X0396300Y0038800D01*
X0393800Y0041300D01*
X0396300Y0043800D01*
X0396300Y0048800D01*
X0393800Y0051300D01*
X0396300Y0053800D01*
X0396300Y0058800D01*
X0393800Y0061300D01*
X0396300Y0063800D01*
X0396300Y0068800D01*
X0393800Y0071300D01*
X0396300Y0073800D01*
X0396300Y0078800D01*
X0393800Y0081300D01*
X0396300Y0083800D01*
X0396300Y0088800D01*
X0393800Y0091300D01*
X0396300Y0093800D01*
X0396300Y0098800D01*
X0393800Y0101300D01*
X0396300Y0103800D01*
X0396300Y0108800D01*
X0393800Y0111300D01*
X0396300Y0113800D01*
X0396300Y0118800D01*
X0393800Y0121300D01*
X0396300Y0123800D01*
X0396300Y0128800D01*
X0393800Y0131300D01*
X0396300Y0133800D01*
X0396300Y0138800D01*
X0393800Y0141300D01*
X0396300Y0143800D01*
X0396300Y0148800D01*
X0393800Y0151300D01*
X0396300Y0153800D01*
X0396300Y0158800D01*
X0393800Y0161300D01*
X0396300Y0163800D01*
X0396300Y0168800D01*
X0393800Y0171300D01*
X0396300Y0173800D01*
X0396300Y0178800D01*
X0393800Y0181300D01*
X0396300Y0183800D01*
X0396300Y0188800D01*
X0393800Y0191300D01*
X0396300Y0193800D01*
X0396300Y0198800D01*
X0393800Y0201300D01*
X0396300Y0203800D01*
X0396300Y0208800D01*
X0393800Y0211300D01*
X0396300Y0213800D01*
X0396300Y0218800D01*
X0393800Y0221300D01*
X0396300Y0223800D01*
X0396300Y0228800D01*
X0393800Y0231300D01*
X0396300Y0233800D01*
X0396300Y0238800D01*
X0393800Y0241300D01*
X0396300Y0243800D01*
X0396300Y0248800D01*
X0393800Y0251300D01*
X0396300Y0253800D01*
X0396300Y0258800D01*
X0393800Y0261300D01*
X0396300Y0263800D01*
X0396300Y0268800D01*
X0393800Y0271300D01*
X0396300Y0273800D01*
X0396300Y0278800D01*
X0393800Y0281300D01*
X0396300Y0283800D01*
X0396300Y0288800D01*
X0393800Y0291300D01*
X0396300Y0293800D01*
X0396300Y0298800D01*
X0393800Y0301300D01*
X0396300Y0303800D01*
X0396300Y0308800D01*
X0393800Y0311300D01*
X0396300Y0313800D01*
X0396300Y0318800D01*
X0393800Y0321300D01*
X0396300Y0323800D01*
X0396300Y0328800D01*
X0393800Y0331300D01*
X0396300Y0333800D01*
X0396300Y0338800D01*
X0393800Y0341300D01*
X0396300Y0343800D01*
X0396300Y0348800D01*
X0393800Y0351300D01*
X0396300Y0353800D01*
X0396300Y0358800D01*
X0393800Y0361300D01*
X0396300Y0363800D01*
X0396300Y0368800D01*
X0393800Y0371300D01*
X0378800Y0371300D01*
X0376300Y0368800D01*
X0376300Y0363800D01*
X0378800Y0361300D01*
X0376300Y0358800D01*
X0376300Y0353800D01*
X0378800Y0351300D01*
X0376300Y0348800D01*
X0376300Y0343800D01*
X0378800Y0341300D01*
X0376300Y0338800D01*
X0376300Y0333800D01*
X0378800Y0331300D01*
X0376300Y0328800D01*
X0376300Y0323800D01*
X0378800Y0321300D01*
X0376300Y0318800D01*
X0376300Y0313800D01*
X0378800Y0311300D01*
X0376300Y0308800D01*
X0376300Y0303800D01*
X0378800Y0301300D01*
X0376300Y0298800D01*
X0376300Y0293800D01*
X0378800Y0291300D01*
X0376300Y0288800D01*
X0376300Y0283800D01*
X0378800Y0281300D01*
X0376300Y0278800D01*
X0376300Y0273800D01*
X0378800Y0271300D01*
X0376300Y0268800D01*
X0376300Y0263800D01*
X0378800Y0261300D01*
X0376300Y0258800D01*
X0376300Y0253800D01*
X0378800Y0251300D01*
X0376300Y0248800D01*
X0376300Y0243800D01*
X0378800Y0241300D01*
X0376300Y0238800D01*
X0376300Y0233800D01*
X0378800Y0231300D01*
X0376300Y0228800D01*
X0376300Y0223800D01*
X0378800Y0221300D01*
X0376300Y0218800D01*
X0376300Y0213800D01*
X0378800Y0211300D01*
X0376300Y0208800D01*
X0376300Y0203800D01*
X0378800Y0201300D01*
X0376300Y0198800D01*
X0376300Y0193800D01*
X0378800Y0191300D01*
X0376300Y0188800D01*
X0376300Y0183800D01*
X0378800Y0181300D01*
X0376300Y0178800D01*
X0376300Y0173800D01*
X0378800Y0171300D01*
X0376300Y0168800D01*
X0376300Y0163800D01*
X0378800Y0161300D01*
X0376300Y0158800D01*
X0376300Y0153800D01*
X0378800Y0151300D01*
X0376300Y0148800D01*
X0376300Y0143800D01*
X0378800Y0141300D01*
X0376300Y0138800D01*
X0376300Y0133800D01*
X0378800Y0131300D01*
X0376300Y0128800D01*
X0376300Y0123800D01*
X0378800Y0121300D01*
X0376300Y0118800D01*
X0376300Y0113800D01*
X0378800Y0111300D01*
X0376300Y0108800D01*
X0376300Y0103800D01*
X0378800Y0101300D01*
X0376300Y0098800D01*
X0376300Y0093800D01*
X0378800Y0091300D01*
X0376300Y0088800D01*
X0376300Y0083800D01*
X0378800Y0081300D01*
X0376300Y0078800D01*
X0376300Y0073800D01*
X0378800Y0071300D01*
X0376300Y0068800D01*
X0376300Y0063800D01*
X0378800Y0061300D01*
X0376300Y0058800D01*
X0376300Y0053800D01*
X0378800Y0051300D01*
X0376300Y0048800D01*
X0376300Y0043800D01*
X0378800Y0041300D01*
X0376300Y0038800D01*
X0376300Y0033800D01*
X0368800Y0376300D02*
X0363800Y0376300D01*
X0361300Y0378800D01*
X0358800Y0376300D01*
X0353800Y0376300D01*
X0351300Y0378800D01*
X0348800Y0376300D01*
X0343800Y0376300D01*
X0341300Y0378800D01*
X0338800Y0376300D01*
X0333800Y0376300D01*
X0331300Y0378800D01*
X0328800Y0376300D01*
X0323800Y0376300D01*
X0321300Y0378800D01*
X0318800Y0376300D01*
X0313800Y0376300D01*
X0311300Y0378800D01*
X0308800Y0376300D01*
X0303800Y0376300D01*
X0301300Y0378800D01*
X0298800Y0376300D01*
X0293800Y0376300D01*
X0291300Y0378800D01*
X0288800Y0376300D01*
X0283800Y0376300D01*
X0281300Y0378800D01*
X0278800Y0376300D01*
X0273800Y0376300D01*
X0271300Y0378800D01*
X0268800Y0376300D01*
X0263800Y0376300D01*
X0261300Y0378800D01*
X0258800Y0376300D01*
X0253800Y0376300D01*
X0251300Y0378800D01*
X0248800Y0376300D01*
X0243800Y0376300D01*
X0241300Y0378800D01*
X0238800Y0376300D01*
X0233800Y0376300D01*
X0231300Y0378800D01*
X0228800Y0376300D01*
X0223800Y0376300D01*
X0221300Y0378800D01*
X0218800Y0376300D01*
X0213800Y0376300D01*
X0211300Y0378800D01*
X0208800Y0376300D01*
X0203800Y0376300D01*
X0201300Y0378800D01*
X0198800Y0376300D01*
X0193800Y0376300D01*
X0191300Y0378800D01*
X0188800Y0376300D01*
X0183800Y0376300D01*
X0181300Y0378800D01*
X0178800Y0376300D01*
X0173800Y0376300D01*
X0171300Y0378800D01*
X0168800Y0376300D01*
X0163800Y0376300D01*
X0161300Y0378800D01*
X0158800Y0376300D01*
X0153800Y0376300D01*
X0151300Y0378800D01*
X0148800Y0376300D01*
X0143800Y0376300D01*
X0141300Y0378800D01*
X0138800Y0376300D01*
X0133800Y0376300D01*
X0131300Y0378800D01*
X0128800Y0376300D01*
X0123800Y0376300D01*
X0121300Y0378800D01*
X0118800Y0376300D01*
X0113800Y0376300D01*
X0111300Y0378800D01*
X0108800Y0376300D01*
X0103800Y0376300D01*
X0101300Y0378800D01*
X0098800Y0376300D01*
X0093800Y0376300D01*
X0091300Y0378800D01*
X0088800Y0376300D01*
X0083800Y0376300D01*
X0081300Y0378800D01*
X0078800Y0376300D01*
X0073800Y0376300D01*
X0071300Y0378800D01*
X0068800Y0376300D01*
X0063800Y0376300D01*
X0061300Y0378800D01*
X0058800Y0376300D01*
X0053800Y0376300D01*
X0051300Y0378800D01*
X0048800Y0376300D01*
X0043800Y0376300D01*
X0041300Y0378800D01*
X0038800Y0376300D01*
X0033800Y0376300D01*
X0031300Y0378800D01*
X0031300Y0393800D01*
X0033800Y0396300D01*
X0038800Y0396300D01*
X0041300Y0393800D01*
X0043800Y0396300D01*
X0048800Y0396300D01*
X0051300Y0393800D01*
X0053800Y0396300D01*
X0058800Y0396300D01*
X0061300Y0393800D01*
X0063800Y0396300D01*
X0068800Y0396300D01*
X0071300Y0393800D01*
X0073800Y0396300D01*
X0078800Y0396300D01*
X0081300Y0393800D01*
X0083800Y0396300D01*
X0088800Y0396300D01*
X0091300Y0393800D01*
X0093800Y0396300D01*
X0098800Y0396300D01*
X0101300Y0393800D01*
X0103800Y0396300D01*
X0108800Y0396300D01*
X0111300Y0393800D01*
X0113800Y0396300D01*
X0118800Y0396300D01*
X0121300Y0393800D01*
X0123800Y0396300D01*
X0128800Y0396300D01*
X0131300Y0393800D01*
X0133800Y0396300D01*
X0138800Y0396300D01*
X0141300Y0393800D01*
X0143800Y0396300D01*
X0148800Y0396300D01*
X0151300Y0393800D01*
X0153800Y0396300D01*
X0158800Y0396300D01*
X0161300Y0393800D01*
X0163800Y0396300D01*
X0168800Y0396300D01*
X0171300Y0393800D01*
X0173800Y0396300D01*
X0178800Y0396300D01*
X0181300Y0393800D01*
X0183800Y0396300D01*
X0188800Y0396300D01*
X0191300Y0393800D01*
X0193800Y0396300D01*
X0198800Y0396300D01*
X0201300Y0393800D01*
X0203800Y0396300D01*
X0208800Y0396300D01*
X0211300Y0393800D01*
X0213800Y0396300D01*
X0218800Y0396300D01*
X0221300Y0393800D01*
X0223800Y0396300D01*
X0228800Y0396300D01*
X0231300Y0393800D01*
X0233800Y0396300D01*
X0238800Y0396300D01*
X0241300Y0393800D01*
X0243800Y0396300D01*
X0248800Y0396300D01*
X0251300Y0393800D01*
X0253800Y0396300D01*
X0258800Y0396300D01*
X0261300Y0393800D01*
X0263800Y0396300D01*
X0268800Y0396300D01*
X0271300Y0393800D01*
X0273800Y0396300D01*
X0278800Y0396300D01*
X0281300Y0393800D01*
X0283800Y0396300D01*
X0288800Y0396300D01*
X0291300Y0393800D01*
X0293800Y0396300D01*
X0298800Y0396300D01*
X0301300Y0393800D01*
X0303800Y0396300D01*
X0308800Y0396300D01*
X0311300Y0393800D01*
X0313800Y0396300D01*
X0318800Y0396300D01*
X0321300Y0393800D01*
X0323800Y0396300D01*
X0328800Y0396300D01*
X0331300Y0393800D01*
X0333800Y0396300D01*
X0338800Y0396300D01*
X0341300Y0393800D01*
X0343800Y0396300D01*
X0348800Y0396300D01*
X0351300Y0393800D01*
X0353800Y0396300D01*
X0358800Y0396300D01*
X0361300Y0393800D01*
X0363800Y0396300D01*
X0368800Y0396300D01*
X0371300Y0393800D01*
X0371300Y0378800D01*
X0368800Y0376300D01*
D12*
X0366300Y0381300D03*
X0021300Y0366300D03*
X0036300Y0021300D03*
X0381300Y0036300D03*
D13*
X0375301Y0037655D02*
X0369296Y0037655D01*
X0370046Y0036905D02*
X0370046Y0038406D01*
X0370797Y0039156D01*
X0372298Y0038406D02*
X0372298Y0036905D01*
X0371547Y0036154D01*
X0370797Y0036154D01*
X0370046Y0036905D01*
X0370046Y0034553D02*
X0373799Y0034553D01*
X0374550Y0033802D01*
X0374550Y0032301D01*
X0373799Y0031550D01*
X0370046Y0031550D01*
X0373799Y0036154D02*
X0374550Y0036905D01*
X0374550Y0038406D01*
X0373799Y0039156D01*
X0373049Y0039156D01*
X0372298Y0038406D01*
X0371547Y0040758D02*
X0370046Y0042259D01*
X0374550Y0042259D01*
X0374550Y0040758D02*
X0374550Y0043760D01*
X0363843Y0369299D02*
X0363843Y0375304D01*
X0363093Y0374554D02*
X0364594Y0374554D01*
X0365345Y0373803D01*
X0366946Y0373803D02*
X0367697Y0374554D01*
X0369198Y0374554D01*
X0369949Y0373803D01*
X0369949Y0373053D01*
X0366946Y0370050D01*
X0369949Y0370050D01*
X0365345Y0370801D02*
X0365345Y0371551D01*
X0364594Y0372302D01*
X0363093Y0372302D01*
X0362342Y0373053D01*
X0362342Y0373803D01*
X0363093Y0374554D01*
X0360741Y0374554D02*
X0360741Y0370801D01*
X0359990Y0370050D01*
X0358489Y0370050D01*
X0357738Y0370801D01*
X0357738Y0374554D01*
X0362342Y0370801D02*
X0363093Y0370050D01*
X0364594Y0370050D01*
X0365345Y0370801D01*
X0033301Y0363843D02*
X0027296Y0363843D01*
X0028046Y0363093D02*
X0028046Y0364594D01*
X0028797Y0365345D01*
X0028797Y0366946D02*
X0028046Y0367697D01*
X0028046Y0369198D01*
X0028797Y0369949D01*
X0029547Y0369949D01*
X0030298Y0369198D01*
X0031049Y0369949D01*
X0031799Y0369949D01*
X0032550Y0369198D01*
X0032550Y0367697D01*
X0031799Y0366946D01*
X0031799Y0365345D02*
X0031049Y0365345D01*
X0030298Y0364594D01*
X0030298Y0363093D01*
X0029547Y0362342D01*
X0028797Y0362342D01*
X0028046Y0363093D01*
X0028046Y0360741D02*
X0031799Y0360741D01*
X0032550Y0359990D01*
X0032550Y0358489D01*
X0031799Y0357738D01*
X0028046Y0357738D01*
X0031799Y0362342D02*
X0032550Y0363093D01*
X0032550Y0364594D01*
X0031799Y0365345D01*
X0030298Y0368447D02*
X0030298Y0369198D01*
X0037655Y0033304D02*
X0037655Y0027299D01*
X0036905Y0028050D02*
X0038406Y0028050D01*
X0039156Y0028801D01*
X0039156Y0029551D01*
X0038406Y0030302D01*
X0036905Y0030302D01*
X0036154Y0031053D01*
X0036154Y0031803D01*
X0036905Y0032554D01*
X0038406Y0032554D01*
X0039156Y0031803D01*
X0040758Y0032554D02*
X0040758Y0030302D01*
X0042259Y0031053D01*
X0043010Y0031053D01*
X0043760Y0030302D01*
X0043760Y0028801D01*
X0043010Y0028050D01*
X0041508Y0028050D01*
X0040758Y0028801D01*
X0040758Y0032554D02*
X0043760Y0032554D01*
X0036905Y0028050D02*
X0036154Y0028801D01*
X0034553Y0028801D02*
X0034553Y0032554D01*
X0031550Y0032554D02*
X0031550Y0028801D01*
X0032301Y0028050D01*
X0033802Y0028050D01*
X0034553Y0028801D01*
M02*
