G75*
%MOIN*%
%OFA0B0*%
%FSLAX25Y25*%
%IPPOS*%
%LPD*%
%AMOC8*
5,1,8,0,0,1.08239X$1,22.5*
%
%ADD10OC8,0.06000*%
%ADD11C,0.02000*%
%ADD12C,0.04000*%
%ADD13C,0.00600*%
%ADD14C,0.00800*%
D10*
X0036300Y0011300D03*
X0036300Y0021300D03*
X0046300Y0021300D03*
X0056300Y0021300D03*
X0056300Y0011300D03*
X0046300Y0011300D03*
X0066300Y0011300D03*
X0076300Y0011300D03*
X0076300Y0021300D03*
X0066300Y0021300D03*
X0086300Y0021300D03*
X0096300Y0021300D03*
X0096300Y0011300D03*
X0086300Y0011300D03*
X0106300Y0011300D03*
X0116300Y0011300D03*
X0126300Y0011300D03*
X0126300Y0021300D03*
X0116300Y0021300D03*
X0106300Y0021300D03*
X0136300Y0021300D03*
X0146300Y0021300D03*
X0146300Y0011300D03*
X0136300Y0011300D03*
X0156300Y0011300D03*
X0166300Y0011300D03*
X0166300Y0021300D03*
X0156300Y0021300D03*
X0176300Y0021300D03*
X0186300Y0021300D03*
X0186300Y0011300D03*
X0176300Y0011300D03*
X0196300Y0011300D03*
X0206300Y0011300D03*
X0206300Y0021300D03*
X0196300Y0021300D03*
X0216300Y0021300D03*
X0226300Y0021300D03*
X0236300Y0021300D03*
X0236300Y0011300D03*
X0226300Y0011300D03*
X0216300Y0011300D03*
X0246300Y0011300D03*
X0256300Y0011300D03*
X0256300Y0021300D03*
X0246300Y0021300D03*
X0266300Y0021300D03*
X0276300Y0021300D03*
X0276300Y0011300D03*
X0266300Y0011300D03*
X0286300Y0011300D03*
X0296300Y0011300D03*
X0296300Y0021300D03*
X0286300Y0021300D03*
X0306300Y0021300D03*
X0316300Y0021300D03*
X0316300Y0011300D03*
X0306300Y0011300D03*
X0326300Y0011300D03*
X0336300Y0011300D03*
X0346300Y0011300D03*
X0346300Y0021300D03*
X0336300Y0021300D03*
X0326300Y0021300D03*
X0356300Y0021300D03*
X0366300Y0021300D03*
X0366300Y0011300D03*
X0356300Y0011300D03*
X0381300Y0036300D03*
X0381300Y0046300D03*
X0381300Y0056300D03*
X0381300Y0066300D03*
X0381300Y0076300D03*
X0381300Y0086300D03*
X0381300Y0096300D03*
X0381300Y0106300D03*
X0381300Y0116300D03*
X0381300Y0126300D03*
X0381300Y0136300D03*
X0381300Y0146300D03*
X0381300Y0156300D03*
X0381300Y0166300D03*
X0381300Y0176300D03*
X0381300Y0186300D03*
X0381300Y0196300D03*
X0381300Y0206300D03*
X0381300Y0216300D03*
X0381300Y0226300D03*
X0381300Y0236300D03*
X0381300Y0246300D03*
X0381300Y0256300D03*
X0381300Y0266300D03*
X0381300Y0276300D03*
X0381300Y0286300D03*
X0381300Y0296300D03*
X0381300Y0306300D03*
X0381300Y0316300D03*
X0381300Y0326300D03*
X0381300Y0336300D03*
X0381300Y0346300D03*
X0381300Y0356300D03*
X0381300Y0366300D03*
X0391300Y0366300D03*
X0391300Y0356300D03*
X0391300Y0346300D03*
X0391300Y0336300D03*
X0391300Y0326300D03*
X0391300Y0316300D03*
X0391300Y0306300D03*
X0391300Y0296300D03*
X0391300Y0286300D03*
X0391300Y0276300D03*
X0391300Y0266300D03*
X0391300Y0256300D03*
X0391300Y0246300D03*
X0391300Y0236300D03*
X0391300Y0226300D03*
X0391300Y0216300D03*
X0391300Y0206300D03*
X0391300Y0196300D03*
X0391300Y0186300D03*
X0391300Y0176300D03*
X0391300Y0166300D03*
X0391300Y0156300D03*
X0391300Y0146300D03*
X0391300Y0136300D03*
X0391300Y0126300D03*
X0391300Y0116300D03*
X0391300Y0106300D03*
X0391300Y0096300D03*
X0391300Y0086300D03*
X0391300Y0076300D03*
X0391300Y0066300D03*
X0391300Y0056300D03*
X0391300Y0046300D03*
X0391300Y0036300D03*
X0366300Y0381300D03*
X0356300Y0381300D03*
X0356300Y0391300D03*
X0366300Y0391300D03*
X0346300Y0391300D03*
X0336300Y0391300D03*
X0326300Y0391300D03*
X0326300Y0381300D03*
X0336300Y0381300D03*
X0346300Y0381300D03*
X0316300Y0381300D03*
X0306300Y0381300D03*
X0306300Y0391300D03*
X0316300Y0391300D03*
X0296300Y0391300D03*
X0286300Y0391300D03*
X0286300Y0381300D03*
X0296300Y0381300D03*
X0276300Y0381300D03*
X0266300Y0381300D03*
X0266300Y0391300D03*
X0276300Y0391300D03*
X0256300Y0391300D03*
X0246300Y0391300D03*
X0246300Y0381300D03*
X0256300Y0381300D03*
X0236300Y0381300D03*
X0226300Y0381300D03*
X0216300Y0381300D03*
X0216300Y0391300D03*
X0226300Y0391300D03*
X0236300Y0391300D03*
X0206300Y0391300D03*
X0196300Y0391300D03*
X0196300Y0381300D03*
X0206300Y0381300D03*
X0186300Y0381300D03*
X0176300Y0381300D03*
X0176300Y0391300D03*
X0186300Y0391300D03*
X0166300Y0391300D03*
X0156300Y0391300D03*
X0156300Y0381300D03*
X0166300Y0381300D03*
X0146300Y0381300D03*
X0136300Y0381300D03*
X0136300Y0391300D03*
X0146300Y0391300D03*
X0126300Y0391300D03*
X0116300Y0391300D03*
X0106300Y0391300D03*
X0106300Y0381300D03*
X0116300Y0381300D03*
X0126300Y0381300D03*
X0096300Y0381300D03*
X0086300Y0381300D03*
X0086300Y0391300D03*
X0096300Y0391300D03*
X0076300Y0391300D03*
X0066300Y0391300D03*
X0066300Y0381300D03*
X0076300Y0381300D03*
X0056300Y0381300D03*
X0046300Y0381300D03*
X0046300Y0391300D03*
X0056300Y0391300D03*
X0036300Y0391300D03*
X0036300Y0381300D03*
X0021300Y0366300D03*
X0021300Y0356300D03*
X0021300Y0346300D03*
X0021300Y0336300D03*
X0021300Y0326300D03*
X0021300Y0316300D03*
X0021300Y0306300D03*
X0021300Y0296300D03*
X0021300Y0286300D03*
X0021300Y0276300D03*
X0021300Y0266300D03*
X0021300Y0256300D03*
X0021300Y0246300D03*
X0021300Y0236300D03*
X0021300Y0226300D03*
X0021300Y0216300D03*
X0021300Y0206300D03*
X0021300Y0196300D03*
X0021300Y0186300D03*
X0021300Y0176300D03*
X0021300Y0166300D03*
X0021300Y0156300D03*
X0021300Y0146300D03*
X0021300Y0136300D03*
X0021300Y0126300D03*
X0021300Y0116300D03*
X0021300Y0106300D03*
X0021300Y0096300D03*
X0021300Y0086300D03*
X0021300Y0076300D03*
X0021300Y0066300D03*
X0021300Y0056300D03*
X0021300Y0046300D03*
X0021300Y0036300D03*
X0011300Y0036300D03*
X0011300Y0046300D03*
X0011300Y0056300D03*
X0011300Y0066300D03*
X0011300Y0076300D03*
X0011300Y0086300D03*
X0011300Y0096300D03*
X0011300Y0106300D03*
X0011300Y0116300D03*
X0011300Y0126300D03*
X0011300Y0136300D03*
X0011300Y0146300D03*
X0011300Y0156300D03*
X0011300Y0166300D03*
X0011300Y0176300D03*
X0011300Y0186300D03*
X0011300Y0196300D03*
X0011300Y0206300D03*
X0011300Y0216300D03*
X0011300Y0226300D03*
X0011300Y0236300D03*
X0011300Y0246300D03*
X0011300Y0256300D03*
X0011300Y0266300D03*
X0011300Y0276300D03*
X0011300Y0286300D03*
X0011300Y0296300D03*
X0011300Y0306300D03*
X0011300Y0316300D03*
X0011300Y0326300D03*
X0011300Y0336300D03*
X0011300Y0346300D03*
X0011300Y0356300D03*
X0011300Y0366300D03*
D11*
X0011500Y0366500D01*
X0011500Y0373700D01*
X0149500Y0373700D01*
X0150300Y0373300D01*
X0371500Y0373300D01*
X0391300Y0216300D02*
X0386300Y0211300D01*
X0218700Y0211300D01*
X0218700Y0210500D01*
X0218700Y0211300D02*
X0195900Y0211300D01*
X0195900Y0212100D01*
X0195900Y0211300D02*
X0169100Y0211300D01*
X0168300Y0212100D01*
X0168300Y0193300D02*
X0025100Y0193300D01*
X0023100Y0191300D01*
X0016300Y0191300D01*
X0011300Y0186300D01*
X0016300Y0161300D02*
X0026300Y0161300D01*
X0028700Y0158900D01*
X0061100Y0158900D01*
X0062300Y0160100D01*
X0069100Y0160100D01*
X0075500Y0153700D01*
X0080300Y0153700D01*
X0080300Y0140100D02*
X0211900Y0140100D01*
X0212700Y0140500D01*
X0213900Y0141700D01*
X0242700Y0141700D01*
X0247900Y0201300D02*
X0386300Y0201300D01*
X0391300Y0206300D01*
X0247900Y0201300D02*
X0247500Y0201700D01*
X0078700Y0062100D02*
X0075900Y0059300D01*
X0026300Y0059300D01*
X0025700Y0058700D01*
X0027100Y0057300D01*
X0025700Y0058700D02*
X0023100Y0061300D01*
X0016300Y0061300D01*
X0011300Y0066300D01*
X0011300Y0156300D02*
X0016300Y0161300D01*
X0206300Y0011300D02*
X0211100Y0016100D01*
X0231500Y0016100D01*
X0236300Y0011300D01*
X0246300Y0011300D01*
X0247100Y0011700D01*
X0251500Y0016100D01*
X0319900Y0016100D01*
X0320500Y0015500D01*
X0316300Y0011300D01*
X0320500Y0015500D02*
X0321100Y0016100D01*
X0331500Y0016100D01*
X0332100Y0015500D01*
X0332700Y0016100D01*
X0371100Y0016100D01*
X0391300Y0036300D01*
X0336300Y0011300D02*
X0332100Y0015500D01*
X0191500Y0386500D02*
X0171100Y0386500D01*
X0166300Y0391300D01*
X0156300Y0391300D02*
X0151500Y0386500D01*
X0091500Y0386500D01*
X0087100Y0390900D01*
X0086300Y0391300D01*
X0081500Y0386500D01*
X0071100Y0386500D01*
X0066300Y0391300D01*
X0191500Y0386500D02*
X0196300Y0391300D01*
D12*
X0211900Y0385300D03*
X0205100Y0369300D03*
X0227100Y0364100D03*
X0241900Y0357700D03*
X0253100Y0351700D03*
X0281100Y0345300D03*
X0285900Y0345300D03*
X0291500Y0334100D03*
X0275500Y0319300D03*
X0269100Y0312900D03*
X0279900Y0296100D03*
X0284700Y0297700D03*
X0284700Y0292900D03*
X0292700Y0283300D03*
X0297500Y0291300D03*
X0303900Y0292900D03*
X0297900Y0301300D03*
X0307100Y0312900D03*
X0326300Y0326500D03*
X0316700Y0337300D03*
X0343100Y0329700D03*
X0357500Y0339300D03*
X0352700Y0342500D03*
X0359500Y0346100D03*
X0355900Y0355300D03*
X0349500Y0354900D03*
X0343100Y0361300D03*
X0327900Y0364500D03*
X0316700Y0367700D03*
X0321500Y0377700D03*
X0360700Y0377300D03*
X0371500Y0373300D03*
X0313500Y0280100D03*
X0307100Y0280100D03*
X0308700Y0260500D03*
X0281100Y0270500D03*
X0276300Y0270500D03*
X0253100Y0256500D03*
X0249900Y0260100D03*
X0246700Y0254500D03*
X0241900Y0243300D03*
X0241900Y0234100D03*
X0235500Y0231300D03*
X0238700Y0227700D03*
X0243500Y0224900D03*
X0225900Y0237700D03*
X0208700Y0227700D03*
X0192700Y0234500D03*
X0185500Y0226500D03*
X0182300Y0215300D03*
X0174700Y0221700D03*
X0168300Y0212100D03*
X0174700Y0202100D03*
X0174700Y0194100D03*
X0168300Y0193300D03*
X0161900Y0180500D03*
X0187500Y0168900D03*
X0195500Y0170500D03*
X0195500Y0157700D03*
X0185900Y0152900D03*
X0195500Y0147300D03*
X0211900Y0140100D03*
X0222700Y0119700D03*
X0234300Y0116500D03*
X0245500Y0129300D03*
X0254700Y0140100D03*
X0260300Y0136900D03*
X0256300Y0146500D03*
X0251500Y0151300D03*
X0242700Y0141700D03*
X0266700Y0119700D03*
X0266700Y0110100D03*
X0271900Y0107300D03*
X0277100Y0106900D03*
X0278300Y0099700D03*
X0262700Y0100500D03*
X0275100Y0079700D03*
X0275100Y0066900D03*
X0279500Y0060500D03*
X0299500Y0086100D03*
X0310300Y0079700D03*
X0318300Y0079700D03*
X0321500Y0071700D03*
X0326300Y0072500D03*
X0329500Y0066100D03*
X0323100Y0062100D03*
X0329500Y0050900D03*
X0340700Y0042900D03*
X0354700Y0043300D03*
X0356300Y0038500D03*
X0363100Y0057300D03*
X0356700Y0063300D03*
X0371100Y0069700D03*
X0385500Y0060500D03*
X0356700Y0093300D03*
X0359900Y0099700D03*
X0369500Y0102900D03*
X0387100Y0122100D03*
X0369100Y0140100D03*
X0361100Y0135300D03*
X0363100Y0125300D03*
X0350700Y0140100D03*
X0361100Y0160100D03*
X0357100Y0167300D03*
X0347500Y0175300D03*
X0343900Y0178500D03*
X0369100Y0192100D03*
X0372300Y0218500D03*
X0353900Y0240500D03*
X0350700Y0251300D03*
X0337500Y0267300D03*
X0357500Y0273700D03*
X0375500Y0247300D03*
X0385500Y0262100D03*
X0385500Y0160500D03*
X0372300Y0149700D03*
X0344300Y0110100D03*
X0337500Y0110100D03*
X0313500Y0110100D03*
X0303500Y0126100D03*
X0289500Y0132100D03*
X0271500Y0156900D03*
X0269100Y0164100D03*
X0236300Y0180500D03*
X0230300Y0183700D03*
X0208700Y0187700D03*
X0199100Y0200500D03*
X0192300Y0202100D03*
X0192300Y0194100D03*
X0189100Y0188500D03*
X0202300Y0207300D03*
X0195900Y0212100D03*
X0218700Y0210500D03*
X0247500Y0201700D03*
X0263900Y0218500D03*
X0217100Y0264100D03*
X0192700Y0257700D03*
X0177900Y0237700D03*
X0168300Y0235300D03*
X0153500Y0238500D03*
X0158700Y0249700D03*
X0158700Y0264100D03*
X0165100Y0272500D03*
X0157100Y0289700D03*
X0151900Y0286500D03*
X0147100Y0286500D03*
X0135900Y0283300D03*
X0125500Y0283300D03*
X0125900Y0291300D03*
X0115900Y0291300D03*
X0111100Y0292900D03*
X0103100Y0296100D03*
X0102300Y0304100D03*
X0097900Y0306500D03*
X0094700Y0310100D03*
X0091500Y0313700D03*
X0097900Y0313700D03*
X0091500Y0321300D03*
X0086700Y0321300D03*
X0085100Y0315300D03*
X0083500Y0310500D03*
X0089900Y0295700D03*
X0081900Y0291300D03*
X0073900Y0297300D03*
X0083500Y0279700D03*
X0092300Y0275700D03*
X0088300Y0269700D03*
X0067500Y0272900D03*
X0054700Y0260100D03*
X0057900Y0253300D03*
X0059900Y0246500D03*
X0056300Y0243300D03*
X0067500Y0256500D03*
X0080300Y0243300D03*
X0065900Y0213700D03*
X0043900Y0226900D03*
X0040700Y0220500D03*
X0028700Y0218900D03*
X0036700Y0205300D03*
X0036700Y0197300D03*
X0030300Y0186900D03*
X0039900Y0182100D03*
X0033500Y0170900D03*
X0030300Y0162900D03*
X0048300Y0166500D03*
X0051500Y0162900D03*
X0063900Y0156100D03*
X0067500Y0147300D03*
X0080300Y0153700D03*
X0071900Y0162900D03*
X0080300Y0170100D03*
X0088300Y0166500D03*
X0065900Y0174100D03*
X0054700Y0177300D03*
X0054700Y0185300D03*
X0016700Y0200100D03*
X0031900Y0259700D03*
X0031900Y0271700D03*
X0027100Y0278100D03*
X0030300Y0281700D03*
X0016300Y0302100D03*
X0026300Y0339700D03*
X0041500Y0341700D03*
X0041500Y0346500D03*
X0038300Y0366500D03*
X0041500Y0377700D03*
X0031500Y0377700D03*
X0016300Y0369700D03*
X0051500Y0324500D03*
X0064300Y0350100D03*
X0069100Y0350100D03*
X0064300Y0354900D03*
X0077100Y0364900D03*
X0083100Y0343300D03*
X0080300Y0330900D03*
X0103100Y0346500D03*
X0110700Y0353700D03*
X0116300Y0353700D03*
X0124700Y0364900D03*
X0146300Y0353300D03*
X0149500Y0356900D03*
X0145500Y0348500D03*
X0147100Y0342100D03*
X0142300Y0326100D03*
X0139100Y0317700D03*
X0129100Y0321700D03*
X0121500Y0320500D03*
X0111100Y0318500D03*
X0111100Y0327700D03*
X0124700Y0339700D03*
X0129100Y0312900D03*
X0153500Y0300900D03*
X0133900Y0267700D03*
X0125500Y0266500D03*
X0112700Y0280500D03*
X0129100Y0253300D03*
X0134300Y0252900D03*
X0119100Y0248100D03*
X0119100Y0243300D03*
X0130300Y0212100D03*
X0127100Y0162900D03*
X0122300Y0133700D03*
X0115900Y0127700D03*
X0109500Y0119700D03*
X0106300Y0113300D03*
X0109900Y0110100D03*
X0103100Y0106900D03*
X0109500Y0103700D03*
X0099900Y0100500D03*
X0101500Y0092500D03*
X0096700Y0092500D03*
X0093100Y0089300D03*
X0089500Y0086100D03*
X0081900Y0086100D03*
X0079500Y0090500D03*
X0086300Y0095700D03*
X0095100Y0112100D03*
X0098300Y0136100D03*
X0080300Y0140100D03*
X0068700Y0127700D03*
X0043500Y0134100D03*
X0041900Y0140500D03*
X0017100Y0132100D03*
X0017100Y0102100D03*
X0041900Y0097300D03*
X0048300Y0097300D03*
X0064300Y0087300D03*
X0067500Y0095700D03*
X0076300Y0076500D03*
X0072300Y0068500D03*
X0078700Y0062100D03*
X0090700Y0060100D03*
X0103100Y0047700D03*
X0114300Y0044500D03*
X0120700Y0046100D03*
X0117500Y0057300D03*
X0112700Y0057300D03*
X0123900Y0065300D03*
X0123900Y0071700D03*
X0119900Y0079700D03*
X0119500Y0094100D03*
X0133100Y0106900D03*
X0130300Y0119700D03*
X0144300Y0116500D03*
X0158300Y0122900D03*
X0159900Y0116500D03*
X0168300Y0119700D03*
X0183900Y0132500D03*
X0198700Y0116500D03*
X0195500Y0090900D03*
X0177900Y0089300D03*
X0165100Y0086100D03*
X0151900Y0086100D03*
X0147100Y0086100D03*
X0168300Y0068500D03*
X0157500Y0060900D03*
X0142700Y0058900D03*
X0141100Y0054100D03*
X0130700Y0060500D03*
X0156300Y0041300D03*
X0163900Y0033300D03*
X0176300Y0031700D03*
X0187500Y0031700D03*
X0198700Y0034900D03*
X0205500Y0033300D03*
X0205500Y0038100D03*
X0215500Y0047700D03*
X0229100Y0057300D03*
X0234300Y0031700D03*
X0230700Y0025300D03*
X0253100Y0027300D03*
X0291500Y0028100D03*
X0337500Y0078500D03*
X0332700Y0082900D03*
X0183900Y0050900D03*
X0143900Y0129300D03*
X0069900Y0050900D03*
X0079900Y0045700D03*
X0083100Y0031700D03*
X0049500Y0036500D03*
X0041900Y0025300D03*
X0041900Y0048900D03*
X0027100Y0057300D03*
X0222700Y0291300D03*
X0247100Y0312900D03*
X0223900Y0338900D03*
X0171500Y0348500D03*
X0174700Y0360900D03*
X0165100Y0335700D03*
X0149500Y0373700D03*
D13*
X0008600Y0033202D02*
X0008600Y0020053D01*
X0009052Y0021143D01*
X0011457Y0023548D01*
X0014599Y0024850D01*
X0018001Y0024850D01*
X0021143Y0023548D01*
X0023548Y0021143D01*
X0024850Y0018001D01*
X0024850Y0014599D01*
X0023548Y0011457D01*
X0021143Y0009052D01*
X0020053Y0008600D01*
X0032919Y0008600D01*
X0032000Y0009519D01*
X0032000Y0011000D01*
X0036000Y0011000D01*
X0036000Y0011600D01*
X0036000Y0015600D01*
X0034519Y0015600D01*
X0032000Y0013081D01*
X0032000Y0011600D01*
X0036000Y0011600D01*
X0036600Y0011600D01*
X0036600Y0015600D01*
X0038081Y0015600D01*
X0040600Y0013081D01*
X0040600Y0011600D01*
X0036600Y0011600D01*
X0036600Y0011000D01*
X0040600Y0011000D01*
X0040600Y0009519D01*
X0039681Y0008600D01*
X0043202Y0008600D01*
X0042200Y0009602D01*
X0042200Y0012998D01*
X0044602Y0015400D01*
X0047998Y0015400D01*
X0050400Y0012998D01*
X0050400Y0009602D01*
X0049398Y0008600D01*
X0053202Y0008600D01*
X0052200Y0009602D01*
X0052200Y0012998D01*
X0054602Y0015400D01*
X0057998Y0015400D01*
X0058138Y0015260D01*
X0060400Y0017521D01*
X0061279Y0018400D01*
X0063402Y0018400D01*
X0062200Y0019602D01*
X0062200Y0022998D01*
X0063402Y0024200D01*
X0059198Y0024200D01*
X0060400Y0022998D01*
X0060400Y0019602D01*
X0057998Y0017200D01*
X0054602Y0017200D01*
X0052200Y0019602D01*
X0052200Y0022998D01*
X0053402Y0024200D01*
X0049198Y0024200D01*
X0050400Y0022998D01*
X0050400Y0019602D01*
X0047998Y0017200D01*
X0044602Y0017200D01*
X0042200Y0019602D01*
X0042200Y0022200D01*
X0041283Y0022200D01*
X0040400Y0022566D01*
X0040400Y0019602D01*
X0037998Y0017200D01*
X0034602Y0017200D01*
X0032200Y0019602D01*
X0032200Y0022998D01*
X0034602Y0025400D01*
X0037998Y0025400D01*
X0038860Y0024538D01*
X0038800Y0024683D01*
X0038800Y0025917D01*
X0039249Y0027000D01*
X0028479Y0027000D01*
X0027600Y0027879D01*
X0023138Y0032340D01*
X0022998Y0032200D01*
X0019602Y0032200D01*
X0017200Y0034602D01*
X0017200Y0037998D01*
X0018202Y0039000D01*
X0016121Y0039000D01*
X0015260Y0038138D01*
X0015400Y0037998D01*
X0015400Y0034602D01*
X0012998Y0032200D01*
X0009602Y0032200D01*
X0008600Y0033202D01*
X0008600Y0032846D02*
X0008955Y0032846D01*
X0008600Y0032248D02*
X0009554Y0032248D01*
X0008600Y0031649D02*
X0023829Y0031649D01*
X0024428Y0031051D02*
X0008600Y0031051D01*
X0008600Y0030452D02*
X0025026Y0030452D01*
X0025625Y0029854D02*
X0008600Y0029854D01*
X0008600Y0029255D02*
X0026223Y0029255D01*
X0026822Y0028657D02*
X0008600Y0028657D01*
X0008600Y0028058D02*
X0027420Y0028058D01*
X0028019Y0027460D02*
X0008600Y0027460D01*
X0008600Y0026861D02*
X0039191Y0026861D01*
X0038943Y0026263D02*
X0008600Y0026263D01*
X0008600Y0025664D02*
X0038800Y0025664D01*
X0038800Y0025066D02*
X0038332Y0025066D01*
X0040400Y0022073D02*
X0042200Y0022073D01*
X0042200Y0021475D02*
X0040400Y0021475D01*
X0040400Y0020876D02*
X0042200Y0020876D01*
X0042200Y0020278D02*
X0040400Y0020278D01*
X0040400Y0019679D02*
X0042200Y0019679D01*
X0042721Y0019081D02*
X0039879Y0019081D01*
X0039280Y0018482D02*
X0043320Y0018482D01*
X0043918Y0017884D02*
X0038682Y0017884D01*
X0038083Y0017285D02*
X0044517Y0017285D01*
X0044093Y0014891D02*
X0038790Y0014891D01*
X0039389Y0014293D02*
X0043494Y0014293D01*
X0042896Y0013694D02*
X0039987Y0013694D01*
X0040586Y0013096D02*
X0042297Y0013096D01*
X0042200Y0012497D02*
X0040600Y0012497D01*
X0040600Y0011899D02*
X0042200Y0011899D01*
X0042200Y0011300D02*
X0036600Y0011300D01*
X0036600Y0011899D02*
X0036000Y0011899D01*
X0036000Y0012497D02*
X0036600Y0012497D01*
X0036600Y0013096D02*
X0036000Y0013096D01*
X0036000Y0013694D02*
X0036600Y0013694D01*
X0036600Y0014293D02*
X0036000Y0014293D01*
X0036000Y0014891D02*
X0036600Y0014891D01*
X0036600Y0015490D02*
X0036000Y0015490D01*
X0034408Y0015490D02*
X0024850Y0015490D01*
X0024850Y0016088D02*
X0058967Y0016088D01*
X0059565Y0016687D02*
X0024850Y0016687D01*
X0024850Y0017285D02*
X0034517Y0017285D01*
X0033918Y0017884D02*
X0024850Y0017884D01*
X0024651Y0018482D02*
X0033320Y0018482D01*
X0032721Y0019081D02*
X0024403Y0019081D01*
X0024155Y0019679D02*
X0032200Y0019679D01*
X0032200Y0020278D02*
X0023907Y0020278D01*
X0023659Y0020876D02*
X0032200Y0020876D01*
X0032200Y0021475D02*
X0023217Y0021475D01*
X0022618Y0022073D02*
X0032200Y0022073D01*
X0032200Y0022672D02*
X0022020Y0022672D01*
X0021421Y0023270D02*
X0032472Y0023270D01*
X0033070Y0023869D02*
X0020370Y0023869D01*
X0018925Y0024467D02*
X0033669Y0024467D01*
X0034267Y0025066D02*
X0008600Y0025066D01*
X0008600Y0024467D02*
X0013675Y0024467D01*
X0012230Y0023869D02*
X0008600Y0023869D01*
X0008600Y0023270D02*
X0011179Y0023270D01*
X0010580Y0022672D02*
X0008600Y0022672D01*
X0008600Y0022073D02*
X0009982Y0022073D01*
X0009383Y0021475D02*
X0008600Y0021475D01*
X0008600Y0020876D02*
X0008941Y0020876D01*
X0008693Y0020278D02*
X0008600Y0020278D01*
X0013046Y0032248D02*
X0019554Y0032248D01*
X0018955Y0032846D02*
X0013645Y0032846D01*
X0014243Y0033445D02*
X0018357Y0033445D01*
X0017758Y0034043D02*
X0014842Y0034043D01*
X0015400Y0034642D02*
X0017200Y0034642D01*
X0017200Y0035240D02*
X0015400Y0035240D01*
X0015400Y0035839D02*
X0017200Y0035839D01*
X0017200Y0036437D02*
X0015400Y0036437D01*
X0015400Y0037036D02*
X0017200Y0037036D01*
X0017200Y0037634D02*
X0015400Y0037634D01*
X0015354Y0038233D02*
X0017435Y0038233D01*
X0018033Y0038832D02*
X0015953Y0038832D01*
X0023046Y0032248D02*
X0023231Y0032248D01*
X0024850Y0014891D02*
X0033810Y0014891D01*
X0033211Y0014293D02*
X0024723Y0014293D01*
X0024475Y0013694D02*
X0032613Y0013694D01*
X0032014Y0013096D02*
X0024227Y0013096D01*
X0023979Y0012497D02*
X0032000Y0012497D01*
X0032000Y0011899D02*
X0023731Y0011899D01*
X0023392Y0011300D02*
X0036000Y0011300D01*
X0032000Y0010701D02*
X0022793Y0010701D01*
X0022195Y0010103D02*
X0032000Y0010103D01*
X0032014Y0009504D02*
X0021596Y0009504D01*
X0020791Y0008906D02*
X0032613Y0008906D01*
X0039987Y0008906D02*
X0042896Y0008906D01*
X0042297Y0009504D02*
X0040586Y0009504D01*
X0040600Y0010103D02*
X0042200Y0010103D01*
X0042200Y0010701D02*
X0040600Y0010701D01*
X0038192Y0015490D02*
X0058368Y0015490D01*
X0058083Y0017285D02*
X0060164Y0017285D01*
X0060762Y0017884D02*
X0058682Y0017884D01*
X0059280Y0018482D02*
X0063320Y0018482D01*
X0062721Y0019081D02*
X0059879Y0019081D01*
X0060400Y0019679D02*
X0062200Y0019679D01*
X0062200Y0020278D02*
X0060400Y0020278D01*
X0060400Y0020876D02*
X0062200Y0020876D01*
X0062200Y0021475D02*
X0060400Y0021475D01*
X0060400Y0022073D02*
X0062200Y0022073D01*
X0062200Y0022672D02*
X0060400Y0022672D01*
X0060128Y0023270D02*
X0062472Y0023270D01*
X0063070Y0023869D02*
X0059530Y0023869D01*
X0053070Y0023869D02*
X0049530Y0023869D01*
X0050128Y0023270D02*
X0052472Y0023270D01*
X0052200Y0022672D02*
X0050400Y0022672D01*
X0050400Y0022073D02*
X0052200Y0022073D01*
X0052200Y0021475D02*
X0050400Y0021475D01*
X0050400Y0020876D02*
X0052200Y0020876D01*
X0052200Y0020278D02*
X0050400Y0020278D01*
X0050400Y0019679D02*
X0052200Y0019679D01*
X0052721Y0019081D02*
X0049879Y0019081D01*
X0049280Y0018482D02*
X0053320Y0018482D01*
X0053918Y0017884D02*
X0048682Y0017884D01*
X0048083Y0017285D02*
X0054517Y0017285D01*
X0054093Y0014891D02*
X0048507Y0014891D01*
X0049106Y0014293D02*
X0053494Y0014293D01*
X0052896Y0013694D02*
X0049704Y0013694D01*
X0050303Y0013096D02*
X0052297Y0013096D01*
X0052200Y0012497D02*
X0050400Y0012497D01*
X0050400Y0011899D02*
X0052200Y0011899D01*
X0052200Y0011300D02*
X0050400Y0011300D01*
X0050400Y0010701D02*
X0052200Y0010701D01*
X0052200Y0010103D02*
X0050400Y0010103D01*
X0050303Y0009504D02*
X0052297Y0009504D01*
X0052896Y0008906D02*
X0049704Y0008906D01*
X0059398Y0008600D02*
X0060400Y0009602D01*
X0060400Y0012998D01*
X0060260Y0013138D01*
X0062521Y0015400D01*
X0204319Y0015400D01*
X0202000Y0013081D01*
X0202000Y0011600D01*
X0206000Y0011600D01*
X0206000Y0011000D01*
X0202000Y0011000D01*
X0202000Y0009519D01*
X0202919Y0008600D01*
X0199398Y0008600D01*
X0200400Y0009602D01*
X0200400Y0012998D01*
X0197998Y0015400D01*
X0194602Y0015400D01*
X0192200Y0012998D01*
X0192200Y0009602D01*
X0193202Y0008600D01*
X0189398Y0008600D01*
X0190400Y0009602D01*
X0190400Y0012998D01*
X0187998Y0015400D01*
X0184602Y0015400D01*
X0182200Y0012998D01*
X0182200Y0009602D01*
X0183202Y0008600D01*
X0179398Y0008600D01*
X0180400Y0009602D01*
X0180400Y0012998D01*
X0177998Y0015400D01*
X0174602Y0015400D01*
X0172200Y0012998D01*
X0172200Y0009602D01*
X0173202Y0008600D01*
X0169398Y0008600D01*
X0170400Y0009602D01*
X0170400Y0012998D01*
X0167998Y0015400D01*
X0164602Y0015400D01*
X0162200Y0012998D01*
X0162200Y0009602D01*
X0163202Y0008600D01*
X0159398Y0008600D01*
X0160400Y0009602D01*
X0160400Y0012998D01*
X0157998Y0015400D01*
X0154602Y0015400D01*
X0152200Y0012998D01*
X0152200Y0009602D01*
X0153202Y0008600D01*
X0149398Y0008600D01*
X0150400Y0009602D01*
X0150400Y0012998D01*
X0147998Y0015400D01*
X0144602Y0015400D01*
X0142200Y0012998D01*
X0142200Y0009602D01*
X0143202Y0008600D01*
X0139398Y0008600D01*
X0140400Y0009602D01*
X0140400Y0012998D01*
X0137998Y0015400D01*
X0134602Y0015400D01*
X0132200Y0012998D01*
X0132200Y0009602D01*
X0133202Y0008600D01*
X0129398Y0008600D01*
X0130400Y0009602D01*
X0130400Y0012998D01*
X0127998Y0015400D01*
X0124602Y0015400D01*
X0122200Y0012998D01*
X0122200Y0009602D01*
X0123202Y0008600D01*
X0119398Y0008600D01*
X0120400Y0009602D01*
X0120400Y0012998D01*
X0117998Y0015400D01*
X0114602Y0015400D01*
X0112200Y0012998D01*
X0112200Y0009602D01*
X0113202Y0008600D01*
X0109398Y0008600D01*
X0110400Y0009602D01*
X0110400Y0012998D01*
X0107998Y0015400D01*
X0104602Y0015400D01*
X0102200Y0012998D01*
X0102200Y0009602D01*
X0103202Y0008600D01*
X0099398Y0008600D01*
X0100400Y0009602D01*
X0100400Y0012998D01*
X0097998Y0015400D01*
X0094602Y0015400D01*
X0092200Y0012998D01*
X0092200Y0009602D01*
X0093202Y0008600D01*
X0089398Y0008600D01*
X0090400Y0009602D01*
X0090400Y0012998D01*
X0087998Y0015400D01*
X0084602Y0015400D01*
X0082200Y0012998D01*
X0082200Y0009602D01*
X0083202Y0008600D01*
X0079398Y0008600D01*
X0080400Y0009602D01*
X0080400Y0012998D01*
X0077998Y0015400D01*
X0074602Y0015400D01*
X0072200Y0012998D01*
X0072200Y0009602D01*
X0073202Y0008600D01*
X0069398Y0008600D01*
X0070400Y0009602D01*
X0070400Y0012998D01*
X0067998Y0015400D01*
X0064602Y0015400D01*
X0062200Y0012998D01*
X0062200Y0009602D01*
X0063202Y0008600D01*
X0059398Y0008600D01*
X0059704Y0008906D02*
X0062896Y0008906D01*
X0062297Y0009504D02*
X0060303Y0009504D01*
X0060400Y0010103D02*
X0062200Y0010103D01*
X0062200Y0010701D02*
X0060400Y0010701D01*
X0060400Y0011300D02*
X0062200Y0011300D01*
X0062200Y0011899D02*
X0060400Y0011899D01*
X0060400Y0012497D02*
X0062200Y0012497D01*
X0062297Y0013096D02*
X0060303Y0013096D01*
X0060815Y0013694D02*
X0062896Y0013694D01*
X0063494Y0014293D02*
X0061414Y0014293D01*
X0062012Y0014891D02*
X0064093Y0014891D01*
X0068507Y0014891D02*
X0074093Y0014891D01*
X0073494Y0014293D02*
X0069106Y0014293D01*
X0069704Y0013694D02*
X0072896Y0013694D01*
X0072297Y0013096D02*
X0070303Y0013096D01*
X0070400Y0012497D02*
X0072200Y0012497D01*
X0072200Y0011899D02*
X0070400Y0011899D01*
X0070400Y0011300D02*
X0072200Y0011300D01*
X0072200Y0010701D02*
X0070400Y0010701D01*
X0070400Y0010103D02*
X0072200Y0010103D01*
X0072297Y0009504D02*
X0070303Y0009504D01*
X0069704Y0008906D02*
X0072896Y0008906D01*
X0079704Y0008906D02*
X0082896Y0008906D01*
X0082297Y0009504D02*
X0080303Y0009504D01*
X0080400Y0010103D02*
X0082200Y0010103D01*
X0082200Y0010701D02*
X0080400Y0010701D01*
X0080400Y0011300D02*
X0082200Y0011300D01*
X0082200Y0011899D02*
X0080400Y0011899D01*
X0080400Y0012497D02*
X0082200Y0012497D01*
X0082297Y0013096D02*
X0080303Y0013096D01*
X0079704Y0013694D02*
X0082896Y0013694D01*
X0083494Y0014293D02*
X0079106Y0014293D01*
X0078507Y0014891D02*
X0084093Y0014891D01*
X0088507Y0014891D02*
X0094093Y0014891D01*
X0093494Y0014293D02*
X0089106Y0014293D01*
X0089704Y0013694D02*
X0092896Y0013694D01*
X0092297Y0013096D02*
X0090303Y0013096D01*
X0090400Y0012497D02*
X0092200Y0012497D01*
X0092200Y0011899D02*
X0090400Y0011899D01*
X0090400Y0011300D02*
X0092200Y0011300D01*
X0092200Y0010701D02*
X0090400Y0010701D01*
X0090400Y0010103D02*
X0092200Y0010103D01*
X0092297Y0009504D02*
X0090303Y0009504D01*
X0089704Y0008906D02*
X0092896Y0008906D01*
X0099704Y0008906D02*
X0102896Y0008906D01*
X0102297Y0009504D02*
X0100303Y0009504D01*
X0100400Y0010103D02*
X0102200Y0010103D01*
X0102200Y0010701D02*
X0100400Y0010701D01*
X0100400Y0011300D02*
X0102200Y0011300D01*
X0102200Y0011899D02*
X0100400Y0011899D01*
X0100400Y0012497D02*
X0102200Y0012497D01*
X0102297Y0013096D02*
X0100303Y0013096D01*
X0099704Y0013694D02*
X0102896Y0013694D01*
X0103494Y0014293D02*
X0099106Y0014293D01*
X0098507Y0014891D02*
X0104093Y0014891D01*
X0108507Y0014891D02*
X0114093Y0014891D01*
X0113494Y0014293D02*
X0109106Y0014293D01*
X0109704Y0013694D02*
X0112896Y0013694D01*
X0112297Y0013096D02*
X0110303Y0013096D01*
X0110400Y0012497D02*
X0112200Y0012497D01*
X0112200Y0011899D02*
X0110400Y0011899D01*
X0110400Y0011300D02*
X0112200Y0011300D01*
X0112200Y0010701D02*
X0110400Y0010701D01*
X0110400Y0010103D02*
X0112200Y0010103D01*
X0112297Y0009504D02*
X0110303Y0009504D01*
X0109704Y0008906D02*
X0112896Y0008906D01*
X0119704Y0008906D02*
X0122896Y0008906D01*
X0122297Y0009504D02*
X0120303Y0009504D01*
X0120400Y0010103D02*
X0122200Y0010103D01*
X0122200Y0010701D02*
X0120400Y0010701D01*
X0120400Y0011300D02*
X0122200Y0011300D01*
X0122200Y0011899D02*
X0120400Y0011899D01*
X0120400Y0012497D02*
X0122200Y0012497D01*
X0122297Y0013096D02*
X0120303Y0013096D01*
X0119704Y0013694D02*
X0122896Y0013694D01*
X0123494Y0014293D02*
X0119106Y0014293D01*
X0118507Y0014891D02*
X0124093Y0014891D01*
X0128507Y0014891D02*
X0134093Y0014891D01*
X0133494Y0014293D02*
X0129106Y0014293D01*
X0129704Y0013694D02*
X0132896Y0013694D01*
X0132297Y0013096D02*
X0130303Y0013096D01*
X0130400Y0012497D02*
X0132200Y0012497D01*
X0132200Y0011899D02*
X0130400Y0011899D01*
X0130400Y0011300D02*
X0132200Y0011300D01*
X0132200Y0010701D02*
X0130400Y0010701D01*
X0130400Y0010103D02*
X0132200Y0010103D01*
X0132297Y0009504D02*
X0130303Y0009504D01*
X0129704Y0008906D02*
X0132896Y0008906D01*
X0138507Y0014891D02*
X0144093Y0014891D01*
X0143494Y0014293D02*
X0139106Y0014293D01*
X0139704Y0013694D02*
X0142896Y0013694D01*
X0142297Y0013096D02*
X0140303Y0013096D01*
X0140400Y0012497D02*
X0142200Y0012497D01*
X0142200Y0011899D02*
X0140400Y0011899D01*
X0140400Y0011300D02*
X0142200Y0011300D01*
X0142200Y0010701D02*
X0140400Y0010701D01*
X0140400Y0010103D02*
X0142200Y0010103D01*
X0142297Y0009504D02*
X0140303Y0009504D01*
X0139704Y0008906D02*
X0142896Y0008906D01*
X0149704Y0008906D02*
X0152896Y0008906D01*
X0152297Y0009504D02*
X0150303Y0009504D01*
X0150400Y0010103D02*
X0152200Y0010103D01*
X0152200Y0010701D02*
X0150400Y0010701D01*
X0150400Y0011300D02*
X0152200Y0011300D01*
X0152200Y0011899D02*
X0150400Y0011899D01*
X0150400Y0012497D02*
X0152200Y0012497D01*
X0152297Y0013096D02*
X0150303Y0013096D01*
X0149704Y0013694D02*
X0152896Y0013694D01*
X0153494Y0014293D02*
X0149106Y0014293D01*
X0148507Y0014891D02*
X0154093Y0014891D01*
X0158507Y0014891D02*
X0164093Y0014891D01*
X0163494Y0014293D02*
X0159106Y0014293D01*
X0159704Y0013694D02*
X0162896Y0013694D01*
X0162297Y0013096D02*
X0160303Y0013096D01*
X0160400Y0012497D02*
X0162200Y0012497D01*
X0162200Y0011899D02*
X0160400Y0011899D01*
X0160400Y0011300D02*
X0162200Y0011300D01*
X0162200Y0010701D02*
X0160400Y0010701D01*
X0160400Y0010103D02*
X0162200Y0010103D01*
X0162297Y0009504D02*
X0160303Y0009504D01*
X0159704Y0008906D02*
X0162896Y0008906D01*
X0169704Y0008906D02*
X0172896Y0008906D01*
X0172297Y0009504D02*
X0170303Y0009504D01*
X0170400Y0010103D02*
X0172200Y0010103D01*
X0172200Y0010701D02*
X0170400Y0010701D01*
X0170400Y0011300D02*
X0172200Y0011300D01*
X0172200Y0011899D02*
X0170400Y0011899D01*
X0170400Y0012497D02*
X0172200Y0012497D01*
X0172297Y0013096D02*
X0170303Y0013096D01*
X0169704Y0013694D02*
X0172896Y0013694D01*
X0173494Y0014293D02*
X0169106Y0014293D01*
X0168507Y0014891D02*
X0174093Y0014891D01*
X0178507Y0014891D02*
X0184093Y0014891D01*
X0183494Y0014293D02*
X0179106Y0014293D01*
X0179704Y0013694D02*
X0182896Y0013694D01*
X0182297Y0013096D02*
X0180303Y0013096D01*
X0180400Y0012497D02*
X0182200Y0012497D01*
X0182200Y0011899D02*
X0180400Y0011899D01*
X0180400Y0011300D02*
X0182200Y0011300D01*
X0182200Y0010701D02*
X0180400Y0010701D01*
X0180400Y0010103D02*
X0182200Y0010103D01*
X0182297Y0009504D02*
X0180303Y0009504D01*
X0179704Y0008906D02*
X0182896Y0008906D01*
X0189704Y0008906D02*
X0192896Y0008906D01*
X0192297Y0009504D02*
X0190303Y0009504D01*
X0190400Y0010103D02*
X0192200Y0010103D01*
X0192200Y0010701D02*
X0190400Y0010701D01*
X0190400Y0011300D02*
X0192200Y0011300D01*
X0192200Y0011899D02*
X0190400Y0011899D01*
X0190400Y0012497D02*
X0192200Y0012497D01*
X0192297Y0013096D02*
X0190303Y0013096D01*
X0189704Y0013694D02*
X0192896Y0013694D01*
X0193494Y0014293D02*
X0189106Y0014293D01*
X0188507Y0014891D02*
X0194093Y0014891D01*
X0198507Y0014891D02*
X0203810Y0014891D01*
X0203211Y0014293D02*
X0199106Y0014293D01*
X0199704Y0013694D02*
X0202613Y0013694D01*
X0202014Y0013096D02*
X0200303Y0013096D01*
X0200400Y0012497D02*
X0202000Y0012497D01*
X0202000Y0011899D02*
X0200400Y0011899D01*
X0200400Y0011300D02*
X0206000Y0011300D01*
X0206600Y0011300D02*
X0212200Y0011300D01*
X0212200Y0011899D02*
X0210600Y0011899D01*
X0210600Y0011600D02*
X0210600Y0013081D01*
X0208281Y0015400D01*
X0208521Y0015400D01*
X0212462Y0019340D01*
X0214602Y0017200D01*
X0217998Y0017200D01*
X0220400Y0019602D01*
X0220400Y0022998D01*
X0219198Y0024200D01*
X0223402Y0024200D01*
X0222200Y0022998D01*
X0222200Y0019602D01*
X0224602Y0017200D01*
X0227998Y0017200D01*
X0230400Y0019602D01*
X0230400Y0022200D01*
X0231317Y0022200D01*
X0232200Y0022566D01*
X0232200Y0019602D01*
X0234602Y0017200D01*
X0237998Y0017200D01*
X0240400Y0019602D01*
X0240400Y0022998D01*
X0237998Y0025400D01*
X0234602Y0025400D01*
X0233740Y0024538D01*
X0233800Y0024683D01*
X0233800Y0025917D01*
X0233351Y0027000D01*
X0250000Y0027000D01*
X0250000Y0026683D01*
X0250472Y0025544D01*
X0251344Y0024672D01*
X0252483Y0024200D01*
X0253402Y0024200D01*
X0252200Y0022998D01*
X0252200Y0019602D01*
X0254602Y0017200D01*
X0257998Y0017200D01*
X0260400Y0019602D01*
X0260400Y0022998D01*
X0257998Y0025400D01*
X0255584Y0025400D01*
X0255728Y0025544D01*
X0255834Y0025800D01*
X0259679Y0025800D01*
X0262340Y0023138D01*
X0262200Y0022998D01*
X0262200Y0019602D01*
X0264602Y0017200D01*
X0267998Y0017200D01*
X0270400Y0019602D01*
X0270400Y0022998D01*
X0267998Y0025400D01*
X0264602Y0025400D01*
X0264462Y0025260D01*
X0261800Y0027921D01*
X0260921Y0028800D01*
X0255834Y0028800D01*
X0255728Y0029056D01*
X0254984Y0029800D01*
X0288849Y0029800D01*
X0288400Y0028717D01*
X0288400Y0027483D01*
X0288872Y0026344D01*
X0289744Y0025472D01*
X0290883Y0025000D01*
X0292117Y0025000D01*
X0292373Y0025106D01*
X0292400Y0025079D01*
X0293279Y0024200D01*
X0293402Y0024200D01*
X0292200Y0022998D01*
X0292200Y0019602D01*
X0294602Y0017200D01*
X0297998Y0017200D01*
X0300400Y0019602D01*
X0300400Y0022998D01*
X0299198Y0024200D01*
X0303402Y0024200D01*
X0302200Y0022998D01*
X0302200Y0019602D01*
X0304602Y0017200D01*
X0307998Y0017200D01*
X0310400Y0019602D01*
X0310400Y0022998D01*
X0309198Y0024200D01*
X0313402Y0024200D01*
X0312200Y0022998D01*
X0312200Y0019602D01*
X0314602Y0017200D01*
X0317998Y0017200D01*
X0320400Y0019602D01*
X0320400Y0022998D01*
X0319198Y0024200D01*
X0323402Y0024200D01*
X0322200Y0022998D01*
X0322200Y0019602D01*
X0324602Y0017200D01*
X0327998Y0017200D01*
X0330400Y0019602D01*
X0330400Y0022998D01*
X0329198Y0024200D01*
X0331279Y0024200D01*
X0332340Y0023138D01*
X0332200Y0022998D01*
X0332200Y0019602D01*
X0334602Y0017200D01*
X0337998Y0017200D01*
X0340400Y0019602D01*
X0340400Y0022998D01*
X0337998Y0025400D01*
X0334602Y0025400D01*
X0334462Y0025260D01*
X0332521Y0027200D01*
X0294521Y0027200D01*
X0294494Y0027227D01*
X0294600Y0027483D01*
X0294600Y0028717D01*
X0294151Y0029800D01*
X0355679Y0029800D01*
X0362340Y0023138D01*
X0362200Y0022998D01*
X0362200Y0019602D01*
X0364602Y0017200D01*
X0367998Y0017200D01*
X0370400Y0019602D01*
X0370400Y0022998D01*
X0367998Y0025400D01*
X0364602Y0025400D01*
X0364462Y0025260D01*
X0356921Y0032800D01*
X0251679Y0032800D01*
X0250800Y0031921D01*
X0248879Y0030000D01*
X0236951Y0030000D01*
X0237400Y0031083D01*
X0237400Y0032317D01*
X0237294Y0032573D01*
X0238521Y0033800D01*
X0374921Y0033800D01*
X0377200Y0036079D01*
X0377200Y0034602D01*
X0379602Y0032200D01*
X0382998Y0032200D01*
X0385400Y0034602D01*
X0385400Y0037998D01*
X0382998Y0040400D01*
X0381521Y0040400D01*
X0381721Y0040600D01*
X0383721Y0040600D01*
X0387462Y0044340D01*
X0389602Y0042200D01*
X0392998Y0042200D01*
X0394000Y0043202D01*
X0394000Y0039681D01*
X0393081Y0040600D01*
X0391600Y0040600D01*
X0391600Y0036600D01*
X0391000Y0036600D01*
X0391000Y0040600D01*
X0389519Y0040600D01*
X0387000Y0038081D01*
X0387000Y0036600D01*
X0391000Y0036600D01*
X0391000Y0036000D01*
X0391600Y0036000D01*
X0391600Y0032000D01*
X0393081Y0032000D01*
X0394000Y0032919D01*
X0394000Y0020053D01*
X0393548Y0021143D01*
X0391143Y0023548D01*
X0388001Y0024850D01*
X0384599Y0024850D01*
X0381457Y0023548D01*
X0379052Y0021143D01*
X0377750Y0018001D01*
X0377750Y0014599D01*
X0379052Y0011457D01*
X0381457Y0009052D01*
X0382547Y0008600D01*
X0369398Y0008600D01*
X0370400Y0009602D01*
X0370400Y0012998D01*
X0367998Y0015400D01*
X0364602Y0015400D01*
X0362200Y0012998D01*
X0362200Y0009602D01*
X0363202Y0008600D01*
X0359398Y0008600D01*
X0360400Y0009602D01*
X0360400Y0012998D01*
X0357998Y0015400D01*
X0354602Y0015400D01*
X0352200Y0012998D01*
X0352200Y0009602D01*
X0353202Y0008600D01*
X0349398Y0008600D01*
X0350400Y0009602D01*
X0350400Y0012998D01*
X0347998Y0015400D01*
X0344602Y0015400D01*
X0342200Y0012998D01*
X0342200Y0009602D01*
X0343202Y0008600D01*
X0339681Y0008600D01*
X0340600Y0009519D01*
X0340600Y0011000D01*
X0336600Y0011000D01*
X0336600Y0011600D01*
X0336000Y0011600D01*
X0336000Y0015600D01*
X0334519Y0015600D01*
X0332000Y0013081D01*
X0332000Y0011600D01*
X0336000Y0011600D01*
X0336000Y0011000D01*
X0332000Y0011000D01*
X0332000Y0009519D01*
X0332919Y0008600D01*
X0329398Y0008600D01*
X0330400Y0009602D01*
X0330400Y0012998D01*
X0327998Y0015400D01*
X0324602Y0015400D01*
X0322200Y0012998D01*
X0322200Y0009602D01*
X0323202Y0008600D01*
X0319681Y0008600D01*
X0320600Y0009519D01*
X0320600Y0011000D01*
X0316600Y0011000D01*
X0316600Y0011600D01*
X0316000Y0011600D01*
X0316000Y0015600D01*
X0314519Y0015600D01*
X0312000Y0013081D01*
X0312000Y0011600D01*
X0316000Y0011600D01*
X0316000Y0011000D01*
X0312000Y0011000D01*
X0312000Y0009519D01*
X0312919Y0008600D01*
X0309398Y0008600D01*
X0310400Y0009602D01*
X0310400Y0012998D01*
X0307998Y0015400D01*
X0304602Y0015400D01*
X0302200Y0012998D01*
X0302200Y0009602D01*
X0303202Y0008600D01*
X0299398Y0008600D01*
X0300400Y0009602D01*
X0300400Y0012998D01*
X0297998Y0015400D01*
X0294602Y0015400D01*
X0292200Y0012998D01*
X0292200Y0009602D01*
X0293202Y0008600D01*
X0289398Y0008600D01*
X0290400Y0009602D01*
X0290400Y0012998D01*
X0287998Y0015400D01*
X0284602Y0015400D01*
X0282200Y0012998D01*
X0282200Y0009602D01*
X0283202Y0008600D01*
X0279398Y0008600D01*
X0280400Y0009602D01*
X0280400Y0012998D01*
X0277998Y0015400D01*
X0274602Y0015400D01*
X0272200Y0012998D01*
X0272200Y0009602D01*
X0273202Y0008600D01*
X0269398Y0008600D01*
X0270400Y0009602D01*
X0270400Y0012998D01*
X0267998Y0015400D01*
X0264602Y0015400D01*
X0262200Y0012998D01*
X0262200Y0009602D01*
X0263202Y0008600D01*
X0259398Y0008600D01*
X0260400Y0009602D01*
X0260400Y0012998D01*
X0257998Y0015400D01*
X0254602Y0015400D01*
X0252200Y0012998D01*
X0252200Y0009602D01*
X0253202Y0008600D01*
X0249681Y0008600D01*
X0250600Y0009519D01*
X0250600Y0011000D01*
X0246600Y0011000D01*
X0246600Y0011600D01*
X0246000Y0011600D01*
X0246000Y0015600D01*
X0244519Y0015600D01*
X0242000Y0013081D01*
X0242000Y0011600D01*
X0246000Y0011600D01*
X0246000Y0011000D01*
X0242000Y0011000D01*
X0242000Y0009519D01*
X0242919Y0008600D01*
X0239681Y0008600D01*
X0240600Y0009519D01*
X0240600Y0011000D01*
X0236600Y0011000D01*
X0236600Y0011600D01*
X0236000Y0011600D01*
X0236000Y0015600D01*
X0234519Y0015600D01*
X0232000Y0013081D01*
X0232000Y0011600D01*
X0236000Y0011600D01*
X0236000Y0011000D01*
X0232000Y0011000D01*
X0232000Y0009519D01*
X0232919Y0008600D01*
X0229398Y0008600D01*
X0230400Y0009602D01*
X0230400Y0012998D01*
X0227998Y0015400D01*
X0224602Y0015400D01*
X0222200Y0012998D01*
X0222200Y0009602D01*
X0223202Y0008600D01*
X0219398Y0008600D01*
X0220400Y0009602D01*
X0220400Y0012998D01*
X0217998Y0015400D01*
X0214602Y0015400D01*
X0212200Y0012998D01*
X0212200Y0009602D01*
X0213202Y0008600D01*
X0209681Y0008600D01*
X0210600Y0009519D01*
X0210600Y0011000D01*
X0206600Y0011000D01*
X0206600Y0011600D01*
X0210600Y0011600D01*
X0210600Y0012497D02*
X0212200Y0012497D01*
X0212297Y0013096D02*
X0210586Y0013096D01*
X0209987Y0013694D02*
X0212896Y0013694D01*
X0213494Y0014293D02*
X0209389Y0014293D01*
X0208790Y0014891D02*
X0214093Y0014891D01*
X0214517Y0017285D02*
X0210406Y0017285D01*
X0209808Y0016687D02*
X0377750Y0016687D01*
X0377750Y0017285D02*
X0368083Y0017285D01*
X0368682Y0017884D02*
X0377750Y0017884D01*
X0377949Y0018482D02*
X0369280Y0018482D01*
X0369879Y0019081D02*
X0378197Y0019081D01*
X0378445Y0019679D02*
X0370400Y0019679D01*
X0370400Y0020278D02*
X0378693Y0020278D01*
X0378941Y0020876D02*
X0370400Y0020876D01*
X0370400Y0021475D02*
X0379383Y0021475D01*
X0379982Y0022073D02*
X0370400Y0022073D01*
X0370400Y0022672D02*
X0380580Y0022672D01*
X0381179Y0023270D02*
X0370128Y0023270D01*
X0369530Y0023869D02*
X0382230Y0023869D01*
X0383675Y0024467D02*
X0368931Y0024467D01*
X0368332Y0025066D02*
X0394000Y0025066D01*
X0394000Y0025664D02*
X0364057Y0025664D01*
X0363459Y0026263D02*
X0394000Y0026263D01*
X0394000Y0026861D02*
X0362860Y0026861D01*
X0362262Y0027460D02*
X0394000Y0027460D01*
X0394000Y0028058D02*
X0361663Y0028058D01*
X0361064Y0028657D02*
X0394000Y0028657D01*
X0394000Y0029255D02*
X0360466Y0029255D01*
X0359867Y0029854D02*
X0394000Y0029854D01*
X0394000Y0030452D02*
X0359269Y0030452D01*
X0358670Y0031051D02*
X0394000Y0031051D01*
X0394000Y0031649D02*
X0358072Y0031649D01*
X0357473Y0032248D02*
X0379554Y0032248D01*
X0378955Y0032846D02*
X0237568Y0032846D01*
X0237400Y0032248D02*
X0251127Y0032248D01*
X0250528Y0031649D02*
X0237400Y0031649D01*
X0237387Y0031051D02*
X0249930Y0031051D01*
X0249331Y0030452D02*
X0237139Y0030452D01*
X0238166Y0033445D02*
X0378357Y0033445D01*
X0377758Y0034043D02*
X0375165Y0034043D01*
X0375763Y0034642D02*
X0377200Y0034642D01*
X0377200Y0035240D02*
X0376362Y0035240D01*
X0376960Y0035839D02*
X0377200Y0035839D01*
X0383046Y0032248D02*
X0389271Y0032248D01*
X0389519Y0032000D02*
X0391000Y0032000D01*
X0391000Y0036000D01*
X0387000Y0036000D01*
X0387000Y0034519D01*
X0389519Y0032000D01*
X0388672Y0032846D02*
X0383645Y0032846D01*
X0384243Y0033445D02*
X0388074Y0033445D01*
X0387475Y0034043D02*
X0384842Y0034043D01*
X0385400Y0034642D02*
X0387000Y0034642D01*
X0387000Y0035240D02*
X0385400Y0035240D01*
X0385400Y0035839D02*
X0387000Y0035839D01*
X0387000Y0037036D02*
X0385400Y0037036D01*
X0385400Y0037634D02*
X0387000Y0037634D01*
X0387152Y0038233D02*
X0385165Y0038233D01*
X0384567Y0038832D02*
X0387750Y0038832D01*
X0388349Y0039430D02*
X0383968Y0039430D01*
X0383370Y0040029D02*
X0388947Y0040029D01*
X0391000Y0040029D02*
X0391600Y0040029D01*
X0391600Y0039430D02*
X0391000Y0039430D01*
X0391000Y0038832D02*
X0391600Y0038832D01*
X0391600Y0038233D02*
X0391000Y0038233D01*
X0391000Y0037634D02*
X0391600Y0037634D01*
X0391600Y0037036D02*
X0391000Y0037036D01*
X0391000Y0036437D02*
X0385400Y0036437D01*
X0383748Y0040627D02*
X0394000Y0040627D01*
X0394000Y0040029D02*
X0393653Y0040029D01*
X0394000Y0041226D02*
X0384347Y0041226D01*
X0384945Y0041824D02*
X0394000Y0041824D01*
X0394000Y0042423D02*
X0393221Y0042423D01*
X0393819Y0043021D02*
X0394000Y0043021D01*
X0389379Y0042423D02*
X0385544Y0042423D01*
X0386142Y0043021D02*
X0388781Y0043021D01*
X0388182Y0043620D02*
X0386741Y0043620D01*
X0387339Y0044218D02*
X0387584Y0044218D01*
X0391000Y0035839D02*
X0391600Y0035839D01*
X0391600Y0035240D02*
X0391000Y0035240D01*
X0391000Y0034642D02*
X0391600Y0034642D01*
X0391600Y0034043D02*
X0391000Y0034043D01*
X0391000Y0033445D02*
X0391600Y0033445D01*
X0391600Y0032846D02*
X0391000Y0032846D01*
X0391000Y0032248D02*
X0391600Y0032248D01*
X0393329Y0032248D02*
X0394000Y0032248D01*
X0394000Y0032846D02*
X0393927Y0032846D01*
X0394000Y0024467D02*
X0388925Y0024467D01*
X0390370Y0023869D02*
X0394000Y0023869D01*
X0394000Y0023270D02*
X0391421Y0023270D01*
X0392020Y0022672D02*
X0394000Y0022672D01*
X0394000Y0022073D02*
X0392618Y0022073D01*
X0393217Y0021475D02*
X0394000Y0021475D01*
X0394000Y0020876D02*
X0393659Y0020876D01*
X0393907Y0020278D02*
X0394000Y0020278D01*
X0381809Y0008906D02*
X0369704Y0008906D01*
X0370303Y0009504D02*
X0381004Y0009504D01*
X0380405Y0010103D02*
X0370400Y0010103D01*
X0370400Y0010701D02*
X0379807Y0010701D01*
X0379208Y0011300D02*
X0370400Y0011300D01*
X0370400Y0011899D02*
X0378869Y0011899D01*
X0378621Y0012497D02*
X0370400Y0012497D01*
X0370303Y0013096D02*
X0378373Y0013096D01*
X0378125Y0013694D02*
X0369704Y0013694D01*
X0369106Y0014293D02*
X0377877Y0014293D01*
X0377750Y0014891D02*
X0368507Y0014891D01*
X0364093Y0014891D02*
X0358507Y0014891D01*
X0359106Y0014293D02*
X0363494Y0014293D01*
X0362896Y0013694D02*
X0359704Y0013694D01*
X0360303Y0013096D02*
X0362297Y0013096D01*
X0362200Y0012497D02*
X0360400Y0012497D01*
X0360400Y0011899D02*
X0362200Y0011899D01*
X0362200Y0011300D02*
X0360400Y0011300D01*
X0360400Y0010701D02*
X0362200Y0010701D01*
X0362200Y0010103D02*
X0360400Y0010103D01*
X0360303Y0009504D02*
X0362297Y0009504D01*
X0362896Y0008906D02*
X0359704Y0008906D01*
X0352896Y0008906D02*
X0349704Y0008906D01*
X0350303Y0009504D02*
X0352297Y0009504D01*
X0352200Y0010103D02*
X0350400Y0010103D01*
X0350400Y0010701D02*
X0352200Y0010701D01*
X0352200Y0011300D02*
X0350400Y0011300D01*
X0350400Y0011899D02*
X0352200Y0011899D01*
X0352200Y0012497D02*
X0350400Y0012497D01*
X0350303Y0013096D02*
X0352297Y0013096D01*
X0352896Y0013694D02*
X0349704Y0013694D01*
X0349106Y0014293D02*
X0353494Y0014293D01*
X0354093Y0014891D02*
X0348507Y0014891D01*
X0347998Y0017200D02*
X0344602Y0017200D01*
X0342200Y0019602D01*
X0342200Y0022998D01*
X0344602Y0025400D01*
X0347998Y0025400D01*
X0350400Y0022998D01*
X0350400Y0019602D01*
X0347998Y0017200D01*
X0348083Y0017285D02*
X0354517Y0017285D01*
X0354602Y0017200D02*
X0357998Y0017200D01*
X0360400Y0019602D01*
X0360400Y0022998D01*
X0357998Y0025400D01*
X0354602Y0025400D01*
X0352200Y0022998D01*
X0352200Y0019602D01*
X0354602Y0017200D01*
X0353918Y0017884D02*
X0348682Y0017884D01*
X0349280Y0018482D02*
X0353320Y0018482D01*
X0352721Y0019081D02*
X0349879Y0019081D01*
X0350400Y0019679D02*
X0352200Y0019679D01*
X0352200Y0020278D02*
X0350400Y0020278D01*
X0350400Y0020876D02*
X0352200Y0020876D01*
X0352200Y0021475D02*
X0350400Y0021475D01*
X0350400Y0022073D02*
X0352200Y0022073D01*
X0352200Y0022672D02*
X0350400Y0022672D01*
X0350128Y0023270D02*
X0352472Y0023270D01*
X0353070Y0023869D02*
X0349530Y0023869D01*
X0348931Y0024467D02*
X0353669Y0024467D01*
X0354267Y0025066D02*
X0348332Y0025066D01*
X0344267Y0025066D02*
X0338332Y0025066D01*
X0338931Y0024467D02*
X0343669Y0024467D01*
X0343070Y0023869D02*
X0339530Y0023869D01*
X0340128Y0023270D02*
X0342472Y0023270D01*
X0342200Y0022672D02*
X0340400Y0022672D01*
X0340400Y0022073D02*
X0342200Y0022073D01*
X0342200Y0021475D02*
X0340400Y0021475D01*
X0340400Y0020876D02*
X0342200Y0020876D01*
X0342200Y0020278D02*
X0340400Y0020278D01*
X0340400Y0019679D02*
X0342200Y0019679D01*
X0342721Y0019081D02*
X0339879Y0019081D01*
X0339280Y0018482D02*
X0343320Y0018482D01*
X0343918Y0017884D02*
X0338682Y0017884D01*
X0338083Y0017285D02*
X0344517Y0017285D01*
X0344093Y0014891D02*
X0338790Y0014891D01*
X0339389Y0014293D02*
X0343494Y0014293D01*
X0342896Y0013694D02*
X0339987Y0013694D01*
X0340586Y0013096D02*
X0342297Y0013096D01*
X0342200Y0012497D02*
X0340600Y0012497D01*
X0340600Y0013081D02*
X0338081Y0015600D01*
X0336600Y0015600D01*
X0336600Y0011600D01*
X0340600Y0011600D01*
X0340600Y0013081D01*
X0340600Y0011899D02*
X0342200Y0011899D01*
X0342200Y0011300D02*
X0336600Y0011300D01*
X0336600Y0011899D02*
X0336000Y0011899D01*
X0336000Y0012497D02*
X0336600Y0012497D01*
X0336600Y0013096D02*
X0336000Y0013096D01*
X0336000Y0013694D02*
X0336600Y0013694D01*
X0336600Y0014293D02*
X0336000Y0014293D01*
X0336000Y0014891D02*
X0336600Y0014891D01*
X0336600Y0015490D02*
X0336000Y0015490D01*
X0334408Y0015490D02*
X0318192Y0015490D01*
X0318081Y0015600D02*
X0316600Y0015600D01*
X0316600Y0011600D01*
X0320600Y0011600D01*
X0320600Y0013081D01*
X0318081Y0015600D01*
X0318790Y0014891D02*
X0324093Y0014891D01*
X0323494Y0014293D02*
X0319389Y0014293D01*
X0319987Y0013694D02*
X0322896Y0013694D01*
X0322297Y0013096D02*
X0320586Y0013096D01*
X0320600Y0012497D02*
X0322200Y0012497D01*
X0322200Y0011899D02*
X0320600Y0011899D01*
X0320600Y0010701D02*
X0322200Y0010701D01*
X0322200Y0010103D02*
X0320600Y0010103D01*
X0320586Y0009504D02*
X0322297Y0009504D01*
X0322896Y0008906D02*
X0319987Y0008906D01*
X0322200Y0011300D02*
X0316600Y0011300D01*
X0316600Y0011899D02*
X0316000Y0011899D01*
X0316000Y0012497D02*
X0316600Y0012497D01*
X0316600Y0013096D02*
X0316000Y0013096D01*
X0316000Y0013694D02*
X0316600Y0013694D01*
X0316600Y0014293D02*
X0316000Y0014293D01*
X0316000Y0014891D02*
X0316600Y0014891D01*
X0316600Y0015490D02*
X0316000Y0015490D01*
X0314408Y0015490D02*
X0248192Y0015490D01*
X0248081Y0015600D02*
X0246600Y0015600D01*
X0246600Y0011600D01*
X0250600Y0011600D01*
X0250600Y0013081D01*
X0248081Y0015600D01*
X0248790Y0014891D02*
X0254093Y0014891D01*
X0253494Y0014293D02*
X0249389Y0014293D01*
X0249987Y0013694D02*
X0252896Y0013694D01*
X0252297Y0013096D02*
X0250586Y0013096D01*
X0250600Y0012497D02*
X0252200Y0012497D01*
X0252200Y0011899D02*
X0250600Y0011899D01*
X0250600Y0010701D02*
X0252200Y0010701D01*
X0252200Y0010103D02*
X0250600Y0010103D01*
X0250586Y0009504D02*
X0252297Y0009504D01*
X0252896Y0008906D02*
X0249987Y0008906D01*
X0252200Y0011300D02*
X0246600Y0011300D01*
X0246600Y0011899D02*
X0246000Y0011899D01*
X0246000Y0012497D02*
X0246600Y0012497D01*
X0246600Y0013096D02*
X0246000Y0013096D01*
X0246000Y0013694D02*
X0246600Y0013694D01*
X0246600Y0014293D02*
X0246000Y0014293D01*
X0246000Y0014891D02*
X0246600Y0014891D01*
X0246600Y0015490D02*
X0246000Y0015490D01*
X0244408Y0015490D02*
X0238192Y0015490D01*
X0238081Y0015600D02*
X0236600Y0015600D01*
X0236600Y0011600D01*
X0240600Y0011600D01*
X0240600Y0013081D01*
X0238081Y0015600D01*
X0238790Y0014891D02*
X0243810Y0014891D01*
X0243211Y0014293D02*
X0239389Y0014293D01*
X0239987Y0013694D02*
X0242613Y0013694D01*
X0242014Y0013096D02*
X0240586Y0013096D01*
X0240600Y0012497D02*
X0242000Y0012497D01*
X0242000Y0011899D02*
X0240600Y0011899D01*
X0240600Y0010701D02*
X0242000Y0010701D01*
X0242000Y0010103D02*
X0240600Y0010103D01*
X0240586Y0009504D02*
X0242014Y0009504D01*
X0242613Y0008906D02*
X0239987Y0008906D01*
X0236600Y0011300D02*
X0246000Y0011300D01*
X0244602Y0017200D02*
X0242200Y0019602D01*
X0242200Y0022998D01*
X0244602Y0025400D01*
X0247998Y0025400D01*
X0250400Y0022998D01*
X0250400Y0019602D01*
X0247998Y0017200D01*
X0244602Y0017200D01*
X0244517Y0017285D02*
X0238083Y0017285D01*
X0238682Y0017884D02*
X0243918Y0017884D01*
X0243320Y0018482D02*
X0239280Y0018482D01*
X0239879Y0019081D02*
X0242721Y0019081D01*
X0242200Y0019679D02*
X0240400Y0019679D01*
X0240400Y0020278D02*
X0242200Y0020278D01*
X0242200Y0020876D02*
X0240400Y0020876D01*
X0240400Y0021475D02*
X0242200Y0021475D01*
X0242200Y0022073D02*
X0240400Y0022073D01*
X0240400Y0022672D02*
X0242200Y0022672D01*
X0242472Y0023270D02*
X0240128Y0023270D01*
X0239530Y0023869D02*
X0243070Y0023869D01*
X0243669Y0024467D02*
X0238931Y0024467D01*
X0238332Y0025066D02*
X0244267Y0025066D01*
X0248332Y0025066D02*
X0250950Y0025066D01*
X0250422Y0025664D02*
X0233800Y0025664D01*
X0233800Y0025066D02*
X0234268Y0025066D01*
X0233657Y0026263D02*
X0250174Y0026263D01*
X0250000Y0026861D02*
X0233409Y0026861D01*
X0232200Y0022073D02*
X0230400Y0022073D01*
X0230400Y0021475D02*
X0232200Y0021475D01*
X0232200Y0020876D02*
X0230400Y0020876D01*
X0230400Y0020278D02*
X0232200Y0020278D01*
X0232200Y0019679D02*
X0230400Y0019679D01*
X0229879Y0019081D02*
X0232721Y0019081D01*
X0233320Y0018482D02*
X0229280Y0018482D01*
X0228682Y0017884D02*
X0233918Y0017884D01*
X0234517Y0017285D02*
X0228083Y0017285D01*
X0228507Y0014891D02*
X0233810Y0014891D01*
X0233211Y0014293D02*
X0229106Y0014293D01*
X0229704Y0013694D02*
X0232613Y0013694D01*
X0232014Y0013096D02*
X0230303Y0013096D01*
X0230400Y0012497D02*
X0232000Y0012497D01*
X0232000Y0011899D02*
X0230400Y0011899D01*
X0230400Y0011300D02*
X0236000Y0011300D01*
X0236000Y0011899D02*
X0236600Y0011899D01*
X0236600Y0012497D02*
X0236000Y0012497D01*
X0236000Y0013096D02*
X0236600Y0013096D01*
X0236600Y0013694D02*
X0236000Y0013694D01*
X0236000Y0014293D02*
X0236600Y0014293D01*
X0236600Y0014891D02*
X0236000Y0014891D01*
X0236000Y0015490D02*
X0236600Y0015490D01*
X0234408Y0015490D02*
X0208611Y0015490D01*
X0209209Y0016088D02*
X0377750Y0016088D01*
X0377750Y0015490D02*
X0338192Y0015490D01*
X0334517Y0017285D02*
X0328083Y0017285D01*
X0328682Y0017884D02*
X0333918Y0017884D01*
X0333320Y0018482D02*
X0329280Y0018482D01*
X0329879Y0019081D02*
X0332721Y0019081D01*
X0332200Y0019679D02*
X0330400Y0019679D01*
X0330400Y0020278D02*
X0332200Y0020278D01*
X0332200Y0020876D02*
X0330400Y0020876D01*
X0330400Y0021475D02*
X0332200Y0021475D01*
X0332200Y0022073D02*
X0330400Y0022073D01*
X0330400Y0022672D02*
X0332200Y0022672D01*
X0332208Y0023270D02*
X0330128Y0023270D01*
X0329530Y0023869D02*
X0331610Y0023869D01*
X0333459Y0026263D02*
X0359216Y0026263D01*
X0358617Y0026861D02*
X0332860Y0026861D01*
X0334057Y0025664D02*
X0359814Y0025664D01*
X0360413Y0025066D02*
X0358332Y0025066D01*
X0358931Y0024467D02*
X0361011Y0024467D01*
X0361610Y0023869D02*
X0359530Y0023869D01*
X0360128Y0023270D02*
X0362208Y0023270D01*
X0362200Y0022672D02*
X0360400Y0022672D01*
X0360400Y0022073D02*
X0362200Y0022073D01*
X0362200Y0021475D02*
X0360400Y0021475D01*
X0360400Y0020876D02*
X0362200Y0020876D01*
X0362200Y0020278D02*
X0360400Y0020278D01*
X0360400Y0019679D02*
X0362200Y0019679D01*
X0362721Y0019081D02*
X0359879Y0019081D01*
X0359280Y0018482D02*
X0363320Y0018482D01*
X0363918Y0017884D02*
X0358682Y0017884D01*
X0358083Y0017285D02*
X0364517Y0017285D01*
X0358019Y0027460D02*
X0294590Y0027460D01*
X0294600Y0028058D02*
X0357420Y0028058D01*
X0356822Y0028657D02*
X0294600Y0028657D01*
X0294377Y0029255D02*
X0356223Y0029255D01*
X0342200Y0010701D02*
X0340600Y0010701D01*
X0340600Y0010103D02*
X0342200Y0010103D01*
X0342297Y0009504D02*
X0340586Y0009504D01*
X0339987Y0008906D02*
X0342896Y0008906D01*
X0336000Y0011300D02*
X0330400Y0011300D01*
X0330400Y0011899D02*
X0332000Y0011899D01*
X0332000Y0012497D02*
X0330400Y0012497D01*
X0330303Y0013096D02*
X0332014Y0013096D01*
X0332613Y0013694D02*
X0329704Y0013694D01*
X0329106Y0014293D02*
X0333211Y0014293D01*
X0333810Y0014891D02*
X0328507Y0014891D01*
X0330400Y0010701D02*
X0332000Y0010701D01*
X0332000Y0010103D02*
X0330400Y0010103D01*
X0330303Y0009504D02*
X0332014Y0009504D01*
X0332613Y0008906D02*
X0329704Y0008906D01*
X0324517Y0017285D02*
X0318083Y0017285D01*
X0318682Y0017884D02*
X0323918Y0017884D01*
X0323320Y0018482D02*
X0319280Y0018482D01*
X0319879Y0019081D02*
X0322721Y0019081D01*
X0322200Y0019679D02*
X0320400Y0019679D01*
X0320400Y0020278D02*
X0322200Y0020278D01*
X0322200Y0020876D02*
X0320400Y0020876D01*
X0320400Y0021475D02*
X0322200Y0021475D01*
X0322200Y0022073D02*
X0320400Y0022073D01*
X0320400Y0022672D02*
X0322200Y0022672D01*
X0322472Y0023270D02*
X0320128Y0023270D01*
X0319530Y0023869D02*
X0323070Y0023869D01*
X0314517Y0017285D02*
X0308083Y0017285D01*
X0308682Y0017884D02*
X0313918Y0017884D01*
X0313320Y0018482D02*
X0309280Y0018482D01*
X0309879Y0019081D02*
X0312721Y0019081D01*
X0312200Y0019679D02*
X0310400Y0019679D01*
X0310400Y0020278D02*
X0312200Y0020278D01*
X0312200Y0020876D02*
X0310400Y0020876D01*
X0310400Y0021475D02*
X0312200Y0021475D01*
X0312200Y0022073D02*
X0310400Y0022073D01*
X0310400Y0022672D02*
X0312200Y0022672D01*
X0312472Y0023270D02*
X0310128Y0023270D01*
X0309530Y0023869D02*
X0313070Y0023869D01*
X0313810Y0014891D02*
X0308507Y0014891D01*
X0309106Y0014293D02*
X0313211Y0014293D01*
X0312613Y0013694D02*
X0309704Y0013694D01*
X0310303Y0013096D02*
X0312014Y0013096D01*
X0312000Y0012497D02*
X0310400Y0012497D01*
X0310400Y0011899D02*
X0312000Y0011899D01*
X0312000Y0010701D02*
X0310400Y0010701D01*
X0310400Y0010103D02*
X0312000Y0010103D01*
X0312014Y0009504D02*
X0310303Y0009504D01*
X0309704Y0008906D02*
X0312613Y0008906D01*
X0310400Y0011300D02*
X0316000Y0011300D01*
X0304093Y0014891D02*
X0298507Y0014891D01*
X0299106Y0014293D02*
X0303494Y0014293D01*
X0302896Y0013694D02*
X0299704Y0013694D01*
X0300303Y0013096D02*
X0302297Y0013096D01*
X0302200Y0012497D02*
X0300400Y0012497D01*
X0300400Y0011899D02*
X0302200Y0011899D01*
X0302200Y0011300D02*
X0300400Y0011300D01*
X0300400Y0010701D02*
X0302200Y0010701D01*
X0302200Y0010103D02*
X0300400Y0010103D01*
X0300303Y0009504D02*
X0302297Y0009504D01*
X0302896Y0008906D02*
X0299704Y0008906D01*
X0294093Y0014891D02*
X0288507Y0014891D01*
X0289106Y0014293D02*
X0293494Y0014293D01*
X0292896Y0013694D02*
X0289704Y0013694D01*
X0290303Y0013096D02*
X0292297Y0013096D01*
X0292200Y0012497D02*
X0290400Y0012497D01*
X0290400Y0011899D02*
X0292200Y0011899D01*
X0292200Y0011300D02*
X0290400Y0011300D01*
X0290400Y0010701D02*
X0292200Y0010701D01*
X0292200Y0010103D02*
X0290400Y0010103D01*
X0290303Y0009504D02*
X0292297Y0009504D01*
X0292896Y0008906D02*
X0289704Y0008906D01*
X0282896Y0008906D02*
X0279704Y0008906D01*
X0280303Y0009504D02*
X0282297Y0009504D01*
X0282200Y0010103D02*
X0280400Y0010103D01*
X0280400Y0010701D02*
X0282200Y0010701D01*
X0282200Y0011300D02*
X0280400Y0011300D01*
X0280400Y0011899D02*
X0282200Y0011899D01*
X0282200Y0012497D02*
X0280400Y0012497D01*
X0280303Y0013096D02*
X0282297Y0013096D01*
X0282896Y0013694D02*
X0279704Y0013694D01*
X0279106Y0014293D02*
X0283494Y0014293D01*
X0284093Y0014891D02*
X0278507Y0014891D01*
X0277998Y0017200D02*
X0274602Y0017200D01*
X0272200Y0019602D01*
X0272200Y0022998D01*
X0274602Y0025400D01*
X0277998Y0025400D01*
X0280400Y0022998D01*
X0280400Y0019602D01*
X0277998Y0017200D01*
X0278083Y0017285D02*
X0284517Y0017285D01*
X0284602Y0017200D02*
X0287998Y0017200D01*
X0290400Y0019602D01*
X0290400Y0022998D01*
X0287998Y0025400D01*
X0284602Y0025400D01*
X0282200Y0022998D01*
X0282200Y0019602D01*
X0284602Y0017200D01*
X0283918Y0017884D02*
X0278682Y0017884D01*
X0279280Y0018482D02*
X0283320Y0018482D01*
X0282721Y0019081D02*
X0279879Y0019081D01*
X0280400Y0019679D02*
X0282200Y0019679D01*
X0282200Y0020278D02*
X0280400Y0020278D01*
X0280400Y0020876D02*
X0282200Y0020876D01*
X0282200Y0021475D02*
X0280400Y0021475D01*
X0280400Y0022073D02*
X0282200Y0022073D01*
X0282200Y0022672D02*
X0280400Y0022672D01*
X0280128Y0023270D02*
X0282472Y0023270D01*
X0283070Y0023869D02*
X0279530Y0023869D01*
X0278931Y0024467D02*
X0283669Y0024467D01*
X0284267Y0025066D02*
X0278332Y0025066D01*
X0274267Y0025066D02*
X0268332Y0025066D01*
X0268931Y0024467D02*
X0273669Y0024467D01*
X0273070Y0023869D02*
X0269530Y0023869D01*
X0270128Y0023270D02*
X0272472Y0023270D01*
X0272200Y0022672D02*
X0270400Y0022672D01*
X0270400Y0022073D02*
X0272200Y0022073D01*
X0272200Y0021475D02*
X0270400Y0021475D01*
X0270400Y0020876D02*
X0272200Y0020876D01*
X0272200Y0020278D02*
X0270400Y0020278D01*
X0270400Y0019679D02*
X0272200Y0019679D01*
X0272721Y0019081D02*
X0269879Y0019081D01*
X0269280Y0018482D02*
X0273320Y0018482D01*
X0273918Y0017884D02*
X0268682Y0017884D01*
X0268083Y0017285D02*
X0274517Y0017285D01*
X0274093Y0014891D02*
X0268507Y0014891D01*
X0269106Y0014293D02*
X0273494Y0014293D01*
X0272896Y0013694D02*
X0269704Y0013694D01*
X0270303Y0013096D02*
X0272297Y0013096D01*
X0272200Y0012497D02*
X0270400Y0012497D01*
X0270400Y0011899D02*
X0272200Y0011899D01*
X0272200Y0011300D02*
X0270400Y0011300D01*
X0270400Y0010701D02*
X0272200Y0010701D01*
X0272200Y0010103D02*
X0270400Y0010103D01*
X0270303Y0009504D02*
X0272297Y0009504D01*
X0272896Y0008906D02*
X0269704Y0008906D01*
X0262896Y0008906D02*
X0259704Y0008906D01*
X0260303Y0009504D02*
X0262297Y0009504D01*
X0262200Y0010103D02*
X0260400Y0010103D01*
X0260400Y0010701D02*
X0262200Y0010701D01*
X0262200Y0011300D02*
X0260400Y0011300D01*
X0260400Y0011899D02*
X0262200Y0011899D01*
X0262200Y0012497D02*
X0260400Y0012497D01*
X0260303Y0013096D02*
X0262297Y0013096D01*
X0262896Y0013694D02*
X0259704Y0013694D01*
X0259106Y0014293D02*
X0263494Y0014293D01*
X0264093Y0014891D02*
X0258507Y0014891D01*
X0258083Y0017285D02*
X0264517Y0017285D01*
X0263918Y0017884D02*
X0258682Y0017884D01*
X0259280Y0018482D02*
X0263320Y0018482D01*
X0262721Y0019081D02*
X0259879Y0019081D01*
X0260400Y0019679D02*
X0262200Y0019679D01*
X0262200Y0020278D02*
X0260400Y0020278D01*
X0260400Y0020876D02*
X0262200Y0020876D01*
X0262200Y0021475D02*
X0260400Y0021475D01*
X0260400Y0022073D02*
X0262200Y0022073D01*
X0262200Y0022672D02*
X0260400Y0022672D01*
X0260128Y0023270D02*
X0262208Y0023270D01*
X0261610Y0023869D02*
X0259530Y0023869D01*
X0258931Y0024467D02*
X0261011Y0024467D01*
X0260413Y0025066D02*
X0258332Y0025066D01*
X0259814Y0025664D02*
X0255778Y0025664D01*
X0253070Y0023869D02*
X0249530Y0023869D01*
X0250128Y0023270D02*
X0252472Y0023270D01*
X0252200Y0022672D02*
X0250400Y0022672D01*
X0250400Y0022073D02*
X0252200Y0022073D01*
X0252200Y0021475D02*
X0250400Y0021475D01*
X0250400Y0020876D02*
X0252200Y0020876D01*
X0252200Y0020278D02*
X0250400Y0020278D01*
X0250400Y0019679D02*
X0252200Y0019679D01*
X0252721Y0019081D02*
X0249879Y0019081D01*
X0249280Y0018482D02*
X0253320Y0018482D01*
X0253918Y0017884D02*
X0248682Y0017884D01*
X0248083Y0017285D02*
X0254517Y0017285D01*
X0251838Y0024467D02*
X0248931Y0024467D01*
X0255529Y0029255D02*
X0288623Y0029255D01*
X0288400Y0028657D02*
X0261064Y0028657D01*
X0261663Y0028058D02*
X0288400Y0028058D01*
X0288410Y0027460D02*
X0262262Y0027460D01*
X0262860Y0026861D02*
X0288658Y0026861D01*
X0288953Y0026263D02*
X0263459Y0026263D01*
X0264057Y0025664D02*
X0289552Y0025664D01*
X0290725Y0025066D02*
X0288332Y0025066D01*
X0288931Y0024467D02*
X0293011Y0024467D01*
X0293070Y0023869D02*
X0289530Y0023869D01*
X0290128Y0023270D02*
X0292472Y0023270D01*
X0292200Y0022672D02*
X0290400Y0022672D01*
X0290400Y0022073D02*
X0292200Y0022073D01*
X0292200Y0021475D02*
X0290400Y0021475D01*
X0290400Y0020876D02*
X0292200Y0020876D01*
X0292200Y0020278D02*
X0290400Y0020278D01*
X0290400Y0019679D02*
X0292200Y0019679D01*
X0292721Y0019081D02*
X0289879Y0019081D01*
X0289280Y0018482D02*
X0293320Y0018482D01*
X0293918Y0017884D02*
X0288682Y0017884D01*
X0288083Y0017285D02*
X0294517Y0017285D01*
X0298083Y0017285D02*
X0304517Y0017285D01*
X0303918Y0017884D02*
X0298682Y0017884D01*
X0299280Y0018482D02*
X0303320Y0018482D01*
X0302721Y0019081D02*
X0299879Y0019081D01*
X0300400Y0019679D02*
X0302200Y0019679D01*
X0302200Y0020278D02*
X0300400Y0020278D01*
X0300400Y0020876D02*
X0302200Y0020876D01*
X0302200Y0021475D02*
X0300400Y0021475D01*
X0300400Y0022073D02*
X0302200Y0022073D01*
X0302200Y0022672D02*
X0300400Y0022672D01*
X0300128Y0023270D02*
X0302472Y0023270D01*
X0303070Y0023869D02*
X0299530Y0023869D01*
X0292413Y0025066D02*
X0292275Y0025066D01*
X0232613Y0008906D02*
X0229704Y0008906D01*
X0230303Y0009504D02*
X0232014Y0009504D01*
X0232000Y0010103D02*
X0230400Y0010103D01*
X0230400Y0010701D02*
X0232000Y0010701D01*
X0224093Y0014891D02*
X0218507Y0014891D01*
X0219106Y0014293D02*
X0223494Y0014293D01*
X0222896Y0013694D02*
X0219704Y0013694D01*
X0220303Y0013096D02*
X0222297Y0013096D01*
X0222200Y0012497D02*
X0220400Y0012497D01*
X0220400Y0011899D02*
X0222200Y0011899D01*
X0222200Y0011300D02*
X0220400Y0011300D01*
X0220400Y0010701D02*
X0222200Y0010701D01*
X0222200Y0010103D02*
X0220400Y0010103D01*
X0220303Y0009504D02*
X0222297Y0009504D01*
X0222896Y0008906D02*
X0219704Y0008906D01*
X0212896Y0008906D02*
X0209987Y0008906D01*
X0210586Y0009504D02*
X0212297Y0009504D01*
X0212200Y0010103D02*
X0210600Y0010103D01*
X0210600Y0010701D02*
X0212200Y0010701D01*
X0211005Y0017884D02*
X0213918Y0017884D01*
X0213320Y0018482D02*
X0211603Y0018482D01*
X0212202Y0019081D02*
X0212721Y0019081D01*
X0218083Y0017285D02*
X0224517Y0017285D01*
X0223918Y0017884D02*
X0218682Y0017884D01*
X0219280Y0018482D02*
X0223320Y0018482D01*
X0222721Y0019081D02*
X0219879Y0019081D01*
X0220400Y0019679D02*
X0222200Y0019679D01*
X0222200Y0020278D02*
X0220400Y0020278D01*
X0220400Y0020876D02*
X0222200Y0020876D01*
X0222200Y0021475D02*
X0220400Y0021475D01*
X0220400Y0022073D02*
X0222200Y0022073D01*
X0222200Y0022672D02*
X0220400Y0022672D01*
X0220128Y0023270D02*
X0222472Y0023270D01*
X0223070Y0023869D02*
X0219530Y0023869D01*
X0202000Y0010701D02*
X0200400Y0010701D01*
X0200400Y0010103D02*
X0202000Y0010103D01*
X0202014Y0009504D02*
X0200303Y0009504D01*
X0199704Y0008906D02*
X0202613Y0008906D01*
X0088049Y0058400D02*
X0068079Y0058400D01*
X0067200Y0057521D01*
X0063279Y0053600D01*
X0024398Y0053600D01*
X0025400Y0054602D01*
X0025400Y0057998D01*
X0022998Y0060400D01*
X0019602Y0060400D01*
X0017200Y0057998D01*
X0017200Y0054602D01*
X0018202Y0053600D01*
X0016121Y0053600D01*
X0015260Y0054462D01*
X0015400Y0054602D01*
X0015400Y0057998D01*
X0012998Y0060400D01*
X0009602Y0060400D01*
X0008600Y0059398D01*
X0008600Y0062919D01*
X0009519Y0062000D01*
X0011000Y0062000D01*
X0011000Y0066000D01*
X0011600Y0066000D01*
X0011600Y0066600D01*
X0011000Y0066600D01*
X0011000Y0070600D01*
X0009519Y0070600D01*
X0008600Y0069681D01*
X0008600Y0073202D01*
X0009602Y0072200D01*
X0012998Y0072200D01*
X0014000Y0073202D01*
X0014000Y0071479D01*
X0014879Y0070600D01*
X0017340Y0068138D01*
X0017200Y0067998D01*
X0017200Y0064602D01*
X0019602Y0062200D01*
X0022998Y0062200D01*
X0025400Y0064602D01*
X0025400Y0067998D01*
X0022998Y0070400D01*
X0019602Y0070400D01*
X0019462Y0070260D01*
X0017000Y0072721D01*
X0017000Y0076600D01*
X0017200Y0076600D01*
X0017200Y0074602D01*
X0019602Y0072200D01*
X0022998Y0072200D01*
X0023138Y0072340D01*
X0023679Y0071800D01*
X0066000Y0071800D01*
X0066000Y0066279D01*
X0066879Y0065400D01*
X0068479Y0063800D01*
X0084879Y0063800D01*
X0087706Y0060973D01*
X0087600Y0060717D01*
X0087600Y0059483D01*
X0088049Y0058400D01*
X0087973Y0058582D02*
X0024816Y0058582D01*
X0025400Y0057984D02*
X0067663Y0057984D01*
X0067064Y0057385D02*
X0025400Y0057385D01*
X0025400Y0056787D02*
X0066466Y0056787D01*
X0065867Y0056188D02*
X0025400Y0056188D01*
X0025400Y0055590D02*
X0065269Y0055590D01*
X0064670Y0054991D02*
X0025400Y0054991D01*
X0025191Y0054393D02*
X0064071Y0054393D01*
X0063473Y0053794D02*
X0024593Y0053794D01*
X0024217Y0059181D02*
X0087725Y0059181D01*
X0087600Y0059779D02*
X0023619Y0059779D01*
X0023020Y0060378D02*
X0087600Y0060378D01*
X0087702Y0060976D02*
X0008600Y0060976D01*
X0008600Y0060378D02*
X0009580Y0060378D01*
X0008981Y0059779D02*
X0008600Y0059779D01*
X0008600Y0061575D02*
X0087104Y0061575D01*
X0086505Y0062173D02*
X0013255Y0062173D01*
X0013081Y0062000D02*
X0015600Y0064519D01*
X0015600Y0066000D01*
X0011600Y0066000D01*
X0011600Y0062000D01*
X0013081Y0062000D01*
X0013853Y0062772D02*
X0019030Y0062772D01*
X0018431Y0063370D02*
X0014452Y0063370D01*
X0015050Y0063969D02*
X0017833Y0063969D01*
X0017234Y0064568D02*
X0015600Y0064568D01*
X0015600Y0065166D02*
X0017200Y0065166D01*
X0017200Y0065765D02*
X0015600Y0065765D01*
X0015600Y0066600D02*
X0015600Y0068081D01*
X0013081Y0070600D01*
X0011600Y0070600D01*
X0011600Y0066600D01*
X0015600Y0066600D01*
X0015600Y0066962D02*
X0017200Y0066962D01*
X0017200Y0067560D02*
X0015600Y0067560D01*
X0015523Y0068159D02*
X0017320Y0068159D01*
X0016722Y0068757D02*
X0014924Y0068757D01*
X0014325Y0069356D02*
X0016123Y0069356D01*
X0015525Y0069954D02*
X0013727Y0069954D01*
X0013128Y0070553D02*
X0014926Y0070553D01*
X0014328Y0071151D02*
X0008600Y0071151D01*
X0008600Y0070553D02*
X0009472Y0070553D01*
X0008873Y0069954D02*
X0008600Y0069954D01*
X0008600Y0071750D02*
X0014000Y0071750D01*
X0014000Y0072348D02*
X0013146Y0072348D01*
X0013745Y0072947D02*
X0014000Y0072947D01*
X0017000Y0072947D02*
X0018855Y0072947D01*
X0018257Y0073545D02*
X0017000Y0073545D01*
X0017000Y0074144D02*
X0017658Y0074144D01*
X0017200Y0074742D02*
X0017000Y0074742D01*
X0017000Y0075341D02*
X0017200Y0075341D01*
X0017200Y0075939D02*
X0017000Y0075939D01*
X0017000Y0076538D02*
X0017200Y0076538D01*
X0013138Y0080260D02*
X0015600Y0082721D01*
X0015600Y0090600D01*
X0014879Y0090600D01*
X0014000Y0091479D01*
X0013138Y0092340D01*
X0012998Y0092200D01*
X0009602Y0092200D01*
X0008600Y0093202D01*
X0008600Y0089681D01*
X0009519Y0090600D01*
X0011000Y0090600D01*
X0011000Y0086600D01*
X0011600Y0086600D01*
X0011600Y0090600D01*
X0013081Y0090600D01*
X0015600Y0088081D01*
X0015600Y0086600D01*
X0011600Y0086600D01*
X0011600Y0086000D01*
X0015600Y0086000D01*
X0015600Y0084519D01*
X0013081Y0082000D01*
X0011600Y0082000D01*
X0011600Y0086000D01*
X0011000Y0086000D01*
X0011000Y0082000D01*
X0009519Y0082000D01*
X0008600Y0082919D01*
X0008600Y0079398D01*
X0009602Y0080400D01*
X0012998Y0080400D01*
X0013138Y0080260D01*
X0013606Y0080727D02*
X0008600Y0080727D01*
X0008600Y0080129D02*
X0009331Y0080129D01*
X0008732Y0079530D02*
X0008600Y0079530D01*
X0008600Y0081326D02*
X0014205Y0081326D01*
X0014803Y0081924D02*
X0008600Y0081924D01*
X0008600Y0082523D02*
X0008996Y0082523D01*
X0011000Y0082523D02*
X0011600Y0082523D01*
X0011600Y0083121D02*
X0011000Y0083121D01*
X0011000Y0083720D02*
X0011600Y0083720D01*
X0011600Y0084318D02*
X0011000Y0084318D01*
X0011000Y0084917D02*
X0011600Y0084917D01*
X0011600Y0085515D02*
X0011000Y0085515D01*
X0011600Y0086114D02*
X0015600Y0086114D01*
X0015600Y0086712D02*
X0015600Y0086712D01*
X0015600Y0087311D02*
X0015600Y0087311D01*
X0015600Y0087909D02*
X0015600Y0087909D01*
X0015600Y0088508D02*
X0015173Y0088508D01*
X0015600Y0089106D02*
X0014575Y0089106D01*
X0013976Y0089705D02*
X0015600Y0089705D01*
X0015600Y0090303D02*
X0013378Y0090303D01*
X0013978Y0091501D02*
X0008600Y0091501D01*
X0008600Y0092099D02*
X0013380Y0092099D01*
X0014577Y0090902D02*
X0008600Y0090902D01*
X0008600Y0090303D02*
X0009222Y0090303D01*
X0008624Y0089705D02*
X0008600Y0089705D01*
X0011000Y0089705D02*
X0011600Y0089705D01*
X0011600Y0090303D02*
X0011000Y0090303D01*
X0011000Y0089106D02*
X0011600Y0089106D01*
X0011600Y0088508D02*
X0011000Y0088508D01*
X0011000Y0087909D02*
X0011600Y0087909D01*
X0011600Y0087311D02*
X0011000Y0087311D01*
X0011000Y0086712D02*
X0011600Y0086712D01*
X0015600Y0085515D02*
X0015600Y0085515D01*
X0015600Y0084917D02*
X0015600Y0084917D01*
X0015600Y0084318D02*
X0015399Y0084318D01*
X0015600Y0083720D02*
X0014801Y0083720D01*
X0014202Y0083121D02*
X0015600Y0083121D01*
X0015402Y0082523D02*
X0013604Y0082523D01*
X0008855Y0072947D02*
X0008600Y0072947D01*
X0008600Y0072348D02*
X0009454Y0072348D01*
X0011000Y0070553D02*
X0011600Y0070553D01*
X0011600Y0069954D02*
X0011000Y0069954D01*
X0011000Y0069356D02*
X0011600Y0069356D01*
X0011600Y0068757D02*
X0011000Y0068757D01*
X0011000Y0068159D02*
X0011600Y0068159D01*
X0011600Y0067560D02*
X0011000Y0067560D01*
X0011000Y0066962D02*
X0011600Y0066962D01*
X0011600Y0066363D02*
X0017200Y0066363D01*
X0019169Y0070553D02*
X0066000Y0070553D01*
X0066000Y0071151D02*
X0018570Y0071151D01*
X0017972Y0071750D02*
X0066000Y0071750D01*
X0066000Y0069954D02*
X0023444Y0069954D01*
X0024043Y0069356D02*
X0066000Y0069356D01*
X0066000Y0068757D02*
X0024641Y0068757D01*
X0025240Y0068159D02*
X0066000Y0068159D01*
X0066000Y0067560D02*
X0025400Y0067560D01*
X0025400Y0066962D02*
X0066000Y0066962D01*
X0066000Y0066363D02*
X0025400Y0066363D01*
X0025400Y0065765D02*
X0066514Y0065765D01*
X0067113Y0065166D02*
X0025400Y0065166D01*
X0025366Y0064568D02*
X0067711Y0064568D01*
X0068310Y0063969D02*
X0024767Y0063969D01*
X0024169Y0063370D02*
X0085308Y0063370D01*
X0085907Y0062772D02*
X0023570Y0062772D01*
X0019580Y0060378D02*
X0013020Y0060378D01*
X0013619Y0059779D02*
X0018981Y0059779D01*
X0018383Y0059181D02*
X0014217Y0059181D01*
X0014816Y0058582D02*
X0017784Y0058582D01*
X0017200Y0057984D02*
X0015400Y0057984D01*
X0015400Y0057385D02*
X0017200Y0057385D01*
X0017200Y0056787D02*
X0015400Y0056787D01*
X0015400Y0056188D02*
X0017200Y0056188D01*
X0017200Y0055590D02*
X0015400Y0055590D01*
X0015400Y0054991D02*
X0017200Y0054991D01*
X0017409Y0054393D02*
X0015328Y0054393D01*
X0015927Y0053794D02*
X0018007Y0053794D01*
X0011600Y0062173D02*
X0011000Y0062173D01*
X0011000Y0062772D02*
X0011600Y0062772D01*
X0011600Y0063370D02*
X0011000Y0063370D01*
X0011000Y0063969D02*
X0011600Y0063969D01*
X0011600Y0064568D02*
X0011000Y0064568D01*
X0011000Y0065166D02*
X0011600Y0065166D01*
X0011600Y0065765D02*
X0011000Y0065765D01*
X0008747Y0062772D02*
X0008600Y0062772D01*
X0008600Y0062173D02*
X0009345Y0062173D01*
X0017373Y0072348D02*
X0019454Y0072348D01*
X0009104Y0092698D02*
X0008600Y0092698D01*
X0046151Y0132400D02*
X0046600Y0133483D01*
X0046600Y0134600D01*
X0095566Y0134600D01*
X0095672Y0134344D01*
X0096544Y0133472D01*
X0097683Y0133000D01*
X0098917Y0133000D01*
X0100056Y0133472D01*
X0100928Y0134344D01*
X0101400Y0135483D01*
X0101400Y0136717D01*
X0100928Y0137856D01*
X0100056Y0138728D01*
X0098917Y0139200D01*
X0097683Y0139200D01*
X0096544Y0138728D01*
X0095672Y0137856D01*
X0095566Y0137600D01*
X0045921Y0137600D01*
X0046600Y0138279D01*
X0046600Y0143800D01*
X0064079Y0143800D01*
X0064400Y0143479D01*
X0065279Y0142600D01*
X0240921Y0142600D01*
X0241721Y0143400D01*
X0249279Y0143400D01*
X0251706Y0140973D01*
X0251600Y0140717D01*
X0251600Y0139483D01*
X0252049Y0138400D01*
X0187679Y0138400D01*
X0186800Y0137521D01*
X0184773Y0135494D01*
X0184517Y0135600D01*
X0183283Y0135600D01*
X0182144Y0135128D01*
X0181416Y0134400D01*
X0125365Y0134400D01*
X0124928Y0135456D01*
X0124056Y0136328D01*
X0122917Y0136800D01*
X0121683Y0136800D01*
X0120544Y0136328D01*
X0119672Y0135456D01*
X0119200Y0134317D01*
X0119200Y0133083D01*
X0119483Y0132400D01*
X0046151Y0132400D01*
X0046316Y0132798D02*
X0119318Y0132798D01*
X0119200Y0133396D02*
X0099873Y0133396D01*
X0100579Y0133995D02*
X0119200Y0133995D01*
X0119315Y0134593D02*
X0101031Y0134593D01*
X0101279Y0135192D02*
X0119563Y0135192D01*
X0120006Y0135790D02*
X0101400Y0135790D01*
X0101400Y0136389D02*
X0120691Y0136389D01*
X0123909Y0136389D02*
X0185668Y0136389D01*
X0186266Y0136987D02*
X0101288Y0136987D01*
X0101040Y0137586D02*
X0186865Y0137586D01*
X0187463Y0138184D02*
X0100600Y0138184D01*
X0099924Y0138783D02*
X0251890Y0138783D01*
X0251642Y0139381D02*
X0046600Y0139381D01*
X0046600Y0138783D02*
X0096676Y0138783D01*
X0096000Y0138184D02*
X0046506Y0138184D01*
X0046600Y0139980D02*
X0251600Y0139980D01*
X0251600Y0140578D02*
X0046600Y0140578D01*
X0046600Y0141177D02*
X0251502Y0141177D01*
X0250903Y0141775D02*
X0046600Y0141775D01*
X0046600Y0142374D02*
X0250305Y0142374D01*
X0249706Y0142972D02*
X0241294Y0142972D01*
X0248872Y0149544D02*
X0249744Y0148672D01*
X0250883Y0148200D01*
X0252117Y0148200D01*
X0253256Y0148672D01*
X0254128Y0149544D01*
X0254600Y0150683D01*
X0254600Y0151917D01*
X0254128Y0153056D01*
X0253256Y0153928D01*
X0252117Y0154400D01*
X0250883Y0154400D01*
X0249744Y0153928D01*
X0248872Y0153056D01*
X0248766Y0152800D01*
X0193279Y0152800D01*
X0192400Y0151921D01*
X0191679Y0151200D01*
X0188551Y0151200D01*
X0189000Y0152283D01*
X0189000Y0153517D01*
X0188894Y0153773D01*
X0191321Y0156200D01*
X0192766Y0156200D01*
X0192872Y0155944D01*
X0193744Y0155072D01*
X0194883Y0154600D01*
X0196117Y0154600D01*
X0197256Y0155072D01*
X0198128Y0155944D01*
X0198600Y0157083D01*
X0198600Y0158317D01*
X0198128Y0159456D01*
X0197256Y0160328D01*
X0196117Y0160800D01*
X0194883Y0160800D01*
X0193744Y0160328D01*
X0192872Y0159456D01*
X0192766Y0159200D01*
X0190079Y0159200D01*
X0189200Y0158321D01*
X0186773Y0155894D01*
X0186517Y0156000D01*
X0185283Y0156000D01*
X0184144Y0155528D01*
X0183272Y0154656D01*
X0182800Y0153517D01*
X0182800Y0152283D01*
X0182917Y0152000D01*
X0016479Y0152000D01*
X0015600Y0151121D01*
X0015600Y0143879D01*
X0016479Y0143000D01*
X0017479Y0142000D01*
X0014879Y0142000D01*
X0014000Y0141121D01*
X0013138Y0140260D01*
X0012998Y0140400D01*
X0009602Y0140400D01*
X0008600Y0139398D01*
X0008600Y0143202D01*
X0009602Y0142200D01*
X0012998Y0142200D01*
X0015400Y0144602D01*
X0015400Y0147998D01*
X0012998Y0150400D01*
X0009602Y0150400D01*
X0008600Y0149398D01*
X0008600Y0152919D01*
X0009519Y0152000D01*
X0011000Y0152000D01*
X0011000Y0156000D01*
X0011600Y0156000D01*
X0011600Y0156600D01*
X0011000Y0156600D01*
X0011000Y0160600D01*
X0009519Y0160600D01*
X0008600Y0159681D01*
X0008600Y0162919D01*
X0009519Y0162000D01*
X0011000Y0162000D01*
X0011000Y0166000D01*
X0011600Y0166000D01*
X0011600Y0166600D01*
X0011000Y0166600D01*
X0011000Y0170600D01*
X0009519Y0170600D01*
X0008600Y0169681D01*
X0008600Y0173202D01*
X0009602Y0172200D01*
X0012998Y0172200D01*
X0015400Y0174602D01*
X0015400Y0177998D01*
X0012998Y0180400D01*
X0009602Y0180400D01*
X0008600Y0179398D01*
X0008600Y0183202D01*
X0009602Y0182200D01*
X0012998Y0182200D01*
X0015400Y0184602D01*
X0015400Y0187430D01*
X0017170Y0189200D01*
X0018402Y0189200D01*
X0017200Y0187998D01*
X0017200Y0184602D01*
X0019602Y0182200D01*
X0022998Y0182200D01*
X0025400Y0184602D01*
X0025400Y0187998D01*
X0025260Y0188138D01*
X0025721Y0188600D01*
X0027649Y0188600D01*
X0027200Y0187517D01*
X0027200Y0186283D01*
X0027672Y0185144D01*
X0028544Y0184272D01*
X0029683Y0183800D01*
X0030917Y0183800D01*
X0032056Y0184272D01*
X0032928Y0185144D01*
X0033400Y0186283D01*
X0033400Y0187000D01*
X0052049Y0187000D01*
X0051600Y0185917D01*
X0051600Y0184683D01*
X0052049Y0183600D01*
X0042634Y0183600D01*
X0042528Y0183856D01*
X0041656Y0184728D01*
X0040517Y0185200D01*
X0039283Y0185200D01*
X0038144Y0184728D01*
X0037272Y0183856D01*
X0036800Y0182717D01*
X0036800Y0181483D01*
X0037272Y0180344D01*
X0038144Y0179472D01*
X0039283Y0179000D01*
X0040517Y0179000D01*
X0041656Y0179472D01*
X0042528Y0180344D01*
X0042634Y0180600D01*
X0051079Y0180600D01*
X0046079Y0175600D01*
X0044121Y0175600D01*
X0043321Y0176400D01*
X0029279Y0176400D01*
X0028400Y0175521D01*
X0023138Y0170260D01*
X0022998Y0170400D01*
X0019602Y0170400D01*
X0017200Y0167998D01*
X0017200Y0164602D01*
X0019602Y0162200D01*
X0022998Y0162200D01*
X0025400Y0164602D01*
X0025400Y0167998D01*
X0025260Y0168138D01*
X0030521Y0173400D01*
X0031616Y0173400D01*
X0030872Y0172656D01*
X0030400Y0171517D01*
X0030400Y0170283D01*
X0030872Y0169144D01*
X0031744Y0168272D01*
X0032883Y0167800D01*
X0033079Y0167800D01*
X0031173Y0165894D01*
X0030917Y0166000D01*
X0029683Y0166000D01*
X0028544Y0165528D01*
X0027672Y0164656D01*
X0027200Y0163517D01*
X0027200Y0162283D01*
X0027672Y0161144D01*
X0028544Y0160272D01*
X0029683Y0159800D01*
X0030917Y0159800D01*
X0032056Y0160272D01*
X0032928Y0161144D01*
X0033400Y0162283D01*
X0033400Y0163517D01*
X0033294Y0163773D01*
X0038121Y0168600D01*
X0046016Y0168600D01*
X0045672Y0168256D01*
X0045200Y0167117D01*
X0045200Y0165883D01*
X0045672Y0164744D01*
X0046544Y0163872D01*
X0047683Y0163400D01*
X0048400Y0163400D01*
X0048400Y0162283D01*
X0048872Y0161144D01*
X0049744Y0160272D01*
X0050883Y0159800D01*
X0052117Y0159800D01*
X0053256Y0160272D01*
X0054128Y0161144D01*
X0054234Y0161400D01*
X0069166Y0161400D01*
X0069272Y0161144D01*
X0070144Y0160272D01*
X0071283Y0159800D01*
X0072517Y0159800D01*
X0073656Y0160272D01*
X0074528Y0161144D01*
X0075000Y0162283D01*
X0075000Y0163517D01*
X0074551Y0164600D01*
X0085816Y0164600D01*
X0086544Y0163872D01*
X0087683Y0163400D01*
X0088917Y0163400D01*
X0090056Y0163872D01*
X0090784Y0164600D01*
X0124449Y0164600D01*
X0124000Y0163517D01*
X0124000Y0162283D01*
X0124472Y0161144D01*
X0125344Y0160272D01*
X0126483Y0159800D01*
X0127717Y0159800D01*
X0128856Y0160272D01*
X0129728Y0161144D01*
X0130000Y0161800D01*
X0267016Y0161800D01*
X0267344Y0161472D01*
X0268483Y0161000D01*
X0269717Y0161000D01*
X0270856Y0161472D01*
X0271184Y0161800D01*
X0358449Y0161800D01*
X0358000Y0160717D01*
X0358000Y0159483D01*
X0358449Y0158400D01*
X0274234Y0158400D01*
X0274128Y0158656D01*
X0273256Y0159528D01*
X0272117Y0160000D01*
X0270883Y0160000D01*
X0269744Y0159528D01*
X0268872Y0158656D01*
X0268400Y0157517D01*
X0268400Y0156283D01*
X0268872Y0155144D01*
X0269744Y0154272D01*
X0270883Y0153800D01*
X0272117Y0153800D01*
X0273256Y0154272D01*
X0274128Y0155144D01*
X0274234Y0155400D01*
X0364479Y0155400D01*
X0369306Y0150573D01*
X0369200Y0150317D01*
X0369200Y0149083D01*
X0369649Y0148000D01*
X0259034Y0148000D01*
X0258928Y0148256D01*
X0258056Y0149128D01*
X0256917Y0149600D01*
X0255683Y0149600D01*
X0254544Y0149128D01*
X0253672Y0148256D01*
X0253566Y0148000D01*
X0198565Y0148000D01*
X0198128Y0149056D01*
X0197384Y0149800D01*
X0248766Y0149800D01*
X0248872Y0149544D01*
X0248867Y0149556D02*
X0197628Y0149556D01*
X0198169Y0148958D02*
X0249458Y0148958D01*
X0250499Y0148359D02*
X0198417Y0148359D01*
X0193027Y0152549D02*
X0189000Y0152549D01*
X0189000Y0153147D02*
X0248963Y0153147D01*
X0249562Y0153746D02*
X0188905Y0153746D01*
X0189466Y0154344D02*
X0250749Y0154344D01*
X0252251Y0154344D02*
X0269672Y0154344D01*
X0269073Y0154943D02*
X0196944Y0154943D01*
X0197725Y0155541D02*
X0268707Y0155541D01*
X0268459Y0156140D02*
X0198209Y0156140D01*
X0198457Y0156738D02*
X0268400Y0156738D01*
X0268400Y0157337D02*
X0198600Y0157337D01*
X0198600Y0157935D02*
X0268573Y0157935D01*
X0268821Y0158534D02*
X0198510Y0158534D01*
X0198262Y0159132D02*
X0269348Y0159132D01*
X0270234Y0159731D02*
X0197853Y0159731D01*
X0197253Y0160329D02*
X0358000Y0160329D01*
X0358000Y0159731D02*
X0272766Y0159731D01*
X0273652Y0159132D02*
X0358145Y0159132D01*
X0358393Y0158534D02*
X0274179Y0158534D01*
X0273927Y0154943D02*
X0364936Y0154943D01*
X0365534Y0154344D02*
X0273328Y0154344D01*
X0270910Y0161526D02*
X0358335Y0161526D01*
X0358087Y0160928D02*
X0129512Y0160928D01*
X0129886Y0161526D02*
X0267290Y0161526D01*
X0254037Y0153147D02*
X0366731Y0153147D01*
X0366133Y0153746D02*
X0253438Y0153746D01*
X0254338Y0152549D02*
X0367330Y0152549D01*
X0367929Y0151950D02*
X0254586Y0151950D01*
X0254600Y0151352D02*
X0368527Y0151352D01*
X0369126Y0150753D02*
X0254600Y0150753D01*
X0254381Y0150155D02*
X0369200Y0150155D01*
X0369200Y0149556D02*
X0257023Y0149556D01*
X0258226Y0148958D02*
X0369252Y0148958D01*
X0369500Y0148359D02*
X0258825Y0148359D01*
X0255577Y0149556D02*
X0254133Y0149556D01*
X0254374Y0148958D02*
X0253542Y0148958D01*
X0253775Y0148359D02*
X0252501Y0148359D01*
X0237521Y0200000D02*
X0242121Y0204600D01*
X0377202Y0204600D01*
X0379602Y0202200D01*
X0382998Y0202200D01*
X0385400Y0204602D01*
X0385400Y0207998D01*
X0384198Y0209200D01*
X0387170Y0209200D01*
X0390170Y0212200D01*
X0392998Y0212200D01*
X0394000Y0213202D01*
X0394000Y0209681D01*
X0393081Y0210600D01*
X0391600Y0210600D01*
X0391600Y0206600D01*
X0391000Y0206600D01*
X0391000Y0210600D01*
X0389519Y0210600D01*
X0387000Y0208081D01*
X0387000Y0206600D01*
X0391000Y0206600D01*
X0391000Y0206000D01*
X0391600Y0206000D01*
X0391600Y0202000D01*
X0393081Y0202000D01*
X0394000Y0202919D01*
X0394000Y0199398D01*
X0392998Y0200400D01*
X0389602Y0200400D01*
X0387200Y0197998D01*
X0387200Y0194602D01*
X0387340Y0194462D01*
X0386479Y0193600D01*
X0384398Y0193600D01*
X0385400Y0194602D01*
X0385400Y0197998D01*
X0382998Y0200400D01*
X0379602Y0200400D01*
X0379202Y0200000D01*
X0237521Y0200000D01*
X0237951Y0200430D02*
X0394000Y0200430D01*
X0394000Y0201028D02*
X0238549Y0201028D01*
X0239148Y0201627D02*
X0394000Y0201627D01*
X0394000Y0202225D02*
X0393306Y0202225D01*
X0393905Y0202824D02*
X0394000Y0202824D01*
X0391600Y0202824D02*
X0391000Y0202824D01*
X0391000Y0203422D02*
X0391600Y0203422D01*
X0391600Y0204021D02*
X0391000Y0204021D01*
X0391000Y0204619D02*
X0391600Y0204619D01*
X0391600Y0205218D02*
X0391000Y0205218D01*
X0391000Y0205816D02*
X0391600Y0205816D01*
X0391000Y0206000D02*
X0391000Y0202000D01*
X0389519Y0202000D01*
X0387000Y0204519D01*
X0387000Y0206000D01*
X0391000Y0206000D01*
X0391000Y0206415D02*
X0385400Y0206415D01*
X0385400Y0207013D02*
X0387000Y0207013D01*
X0387000Y0207612D02*
X0385400Y0207612D01*
X0385188Y0208210D02*
X0387129Y0208210D01*
X0387728Y0208809D02*
X0384590Y0208809D01*
X0387377Y0209407D02*
X0388326Y0209407D01*
X0387976Y0210006D02*
X0388925Y0210006D01*
X0388574Y0210604D02*
X0394000Y0210604D01*
X0394000Y0210006D02*
X0393675Y0210006D01*
X0394000Y0211203D02*
X0389173Y0211203D01*
X0389771Y0211801D02*
X0394000Y0211801D01*
X0394000Y0212400D02*
X0393198Y0212400D01*
X0393797Y0212998D02*
X0394000Y0212998D01*
X0391600Y0210006D02*
X0391000Y0210006D01*
X0391000Y0209407D02*
X0391600Y0209407D01*
X0391600Y0208809D02*
X0391000Y0208809D01*
X0391000Y0208210D02*
X0391600Y0208210D01*
X0391600Y0207612D02*
X0391000Y0207612D01*
X0391000Y0207013D02*
X0391600Y0207013D01*
X0391600Y0202225D02*
X0391000Y0202225D01*
X0389294Y0202225D02*
X0383023Y0202225D01*
X0383622Y0202824D02*
X0388695Y0202824D01*
X0388097Y0203422D02*
X0384220Y0203422D01*
X0384819Y0204021D02*
X0387498Y0204021D01*
X0387000Y0204619D02*
X0385400Y0204619D01*
X0385400Y0205218D02*
X0387000Y0205218D01*
X0387000Y0205816D02*
X0385400Y0205816D01*
X0379577Y0202225D02*
X0239746Y0202225D01*
X0240345Y0202824D02*
X0378978Y0202824D01*
X0378380Y0203422D02*
X0240943Y0203422D01*
X0241542Y0204021D02*
X0377781Y0204021D01*
X0383567Y0199831D02*
X0389033Y0199831D01*
X0388434Y0199233D02*
X0384166Y0199233D01*
X0384764Y0198634D02*
X0387836Y0198634D01*
X0387237Y0198036D02*
X0385363Y0198036D01*
X0385400Y0197437D02*
X0387200Y0197437D01*
X0387200Y0196839D02*
X0385400Y0196839D01*
X0385400Y0196240D02*
X0387200Y0196240D01*
X0387200Y0195641D02*
X0385400Y0195641D01*
X0385400Y0195043D02*
X0387200Y0195043D01*
X0387323Y0194444D02*
X0385243Y0194444D01*
X0384644Y0193846D02*
X0386725Y0193846D01*
X0393567Y0199831D02*
X0394000Y0199831D01*
X0385430Y0213400D02*
X0384198Y0213400D01*
X0385400Y0214602D01*
X0385400Y0217998D01*
X0382998Y0220400D01*
X0379602Y0220400D01*
X0377200Y0217998D01*
X0377200Y0216800D01*
X0374951Y0216800D01*
X0375400Y0217883D01*
X0375400Y0219117D01*
X0374928Y0220256D01*
X0374056Y0221128D01*
X0372917Y0221600D01*
X0371683Y0221600D01*
X0371427Y0221494D01*
X0371121Y0221800D01*
X0377679Y0221800D01*
X0378000Y0221479D01*
X0378000Y0221479D01*
X0378879Y0220600D01*
X0383721Y0220600D01*
X0386121Y0223000D01*
X0387000Y0223879D01*
X0387000Y0236721D01*
X0386121Y0237600D01*
X0385400Y0237600D01*
X0385400Y0237998D01*
X0384398Y0239000D01*
X0386121Y0239000D01*
X0387000Y0239879D01*
X0387000Y0249879D01*
X0389462Y0252340D01*
X0389602Y0252200D01*
X0392998Y0252200D01*
X0394000Y0253202D01*
X0394000Y0249681D01*
X0393081Y0250600D01*
X0391600Y0250600D01*
X0391600Y0246600D01*
X0391000Y0246600D01*
X0391000Y0250600D01*
X0389519Y0250600D01*
X0387000Y0248081D01*
X0387000Y0246600D01*
X0391000Y0246600D01*
X0391000Y0246000D01*
X0391600Y0246000D01*
X0391600Y0242000D01*
X0393081Y0242000D01*
X0394000Y0242919D01*
X0394000Y0239681D01*
X0393081Y0240600D01*
X0391600Y0240600D01*
X0391600Y0236600D01*
X0391000Y0236600D01*
X0391000Y0240600D01*
X0389519Y0240600D01*
X0387000Y0238081D01*
X0387000Y0236600D01*
X0391000Y0236600D01*
X0391000Y0236000D01*
X0391600Y0236000D01*
X0391600Y0232000D01*
X0393081Y0232000D01*
X0394000Y0232919D01*
X0394000Y0229398D01*
X0392998Y0230400D01*
X0389602Y0230400D01*
X0387200Y0227998D01*
X0387200Y0224602D01*
X0389602Y0222200D01*
X0392998Y0222200D01*
X0394000Y0223202D01*
X0394000Y0219398D01*
X0392998Y0220400D01*
X0389602Y0220400D01*
X0387200Y0217998D01*
X0387200Y0215170D01*
X0385430Y0213400D01*
X0385627Y0213597D02*
X0384395Y0213597D01*
X0384994Y0214195D02*
X0386225Y0214195D01*
X0386824Y0214794D02*
X0385400Y0214794D01*
X0385400Y0215392D02*
X0387200Y0215392D01*
X0387200Y0215991D02*
X0385400Y0215991D01*
X0385400Y0216589D02*
X0387200Y0216589D01*
X0387200Y0217188D02*
X0385400Y0217188D01*
X0385400Y0217786D02*
X0387200Y0217786D01*
X0387587Y0218385D02*
X0385013Y0218385D01*
X0384415Y0218983D02*
X0388185Y0218983D01*
X0388784Y0219582D02*
X0383816Y0219582D01*
X0383218Y0220180D02*
X0389382Y0220180D01*
X0389227Y0222574D02*
X0385696Y0222574D01*
X0385097Y0221976D02*
X0394000Y0221976D01*
X0394000Y0222574D02*
X0393373Y0222574D01*
X0393971Y0223173D02*
X0394000Y0223173D01*
X0394000Y0221377D02*
X0384499Y0221377D01*
X0383900Y0220779D02*
X0394000Y0220779D01*
X0394000Y0220180D02*
X0393218Y0220180D01*
X0393816Y0219582D02*
X0394000Y0219582D01*
X0388629Y0223173D02*
X0386294Y0223173D01*
X0386893Y0223772D02*
X0388030Y0223772D01*
X0387432Y0224370D02*
X0387000Y0224370D01*
X0387000Y0224969D02*
X0387200Y0224969D01*
X0387200Y0225567D02*
X0387000Y0225567D01*
X0387000Y0226166D02*
X0387200Y0226166D01*
X0387200Y0226764D02*
X0387000Y0226764D01*
X0387000Y0227363D02*
X0387200Y0227363D01*
X0387200Y0227961D02*
X0387000Y0227961D01*
X0387000Y0228560D02*
X0387761Y0228560D01*
X0388360Y0229158D02*
X0387000Y0229158D01*
X0387000Y0229757D02*
X0388958Y0229757D01*
X0389557Y0230355D02*
X0387000Y0230355D01*
X0387000Y0230954D02*
X0394000Y0230954D01*
X0394000Y0231552D02*
X0387000Y0231552D01*
X0387000Y0232151D02*
X0389368Y0232151D01*
X0389519Y0232000D02*
X0391000Y0232000D01*
X0391000Y0236000D01*
X0387000Y0236000D01*
X0387000Y0234519D01*
X0389519Y0232000D01*
X0388770Y0232749D02*
X0387000Y0232749D01*
X0387000Y0233348D02*
X0388171Y0233348D01*
X0387573Y0233946D02*
X0387000Y0233946D01*
X0387000Y0234545D02*
X0387000Y0234545D01*
X0387000Y0235143D02*
X0387000Y0235143D01*
X0387000Y0235742D02*
X0387000Y0235742D01*
X0387000Y0236340D02*
X0391000Y0236340D01*
X0391000Y0235742D02*
X0391600Y0235742D01*
X0391600Y0235143D02*
X0391000Y0235143D01*
X0391000Y0234545D02*
X0391600Y0234545D01*
X0391600Y0233946D02*
X0391000Y0233946D01*
X0391000Y0233348D02*
X0391600Y0233348D01*
X0391600Y0232749D02*
X0391000Y0232749D01*
X0391000Y0232151D02*
X0391600Y0232151D01*
X0393232Y0232151D02*
X0394000Y0232151D01*
X0394000Y0232749D02*
X0393830Y0232749D01*
X0394000Y0230355D02*
X0393043Y0230355D01*
X0393642Y0229757D02*
X0394000Y0229757D01*
X0391600Y0236939D02*
X0391000Y0236939D01*
X0391000Y0237537D02*
X0391600Y0237537D01*
X0391600Y0238136D02*
X0391000Y0238136D01*
X0391000Y0238734D02*
X0391600Y0238734D01*
X0391600Y0239333D02*
X0391000Y0239333D01*
X0391000Y0239931D02*
X0391600Y0239931D01*
X0391600Y0240530D02*
X0391000Y0240530D01*
X0391000Y0242000D02*
X0391000Y0246000D01*
X0387000Y0246000D01*
X0387000Y0244519D01*
X0389519Y0242000D01*
X0391000Y0242000D01*
X0391000Y0242325D02*
X0391600Y0242325D01*
X0391600Y0242924D02*
X0391000Y0242924D01*
X0391000Y0243522D02*
X0391600Y0243522D01*
X0391600Y0244121D02*
X0391000Y0244121D01*
X0391000Y0244719D02*
X0391600Y0244719D01*
X0391600Y0245318D02*
X0391000Y0245318D01*
X0391000Y0245916D02*
X0391600Y0245916D01*
X0391000Y0246515D02*
X0387000Y0246515D01*
X0387000Y0247113D02*
X0387000Y0247113D01*
X0387000Y0247712D02*
X0387000Y0247712D01*
X0387000Y0248310D02*
X0387229Y0248310D01*
X0387000Y0248909D02*
X0387828Y0248909D01*
X0388426Y0249508D02*
X0387000Y0249508D01*
X0387227Y0250106D02*
X0389025Y0250106D01*
X0388424Y0251303D02*
X0394000Y0251303D01*
X0394000Y0250705D02*
X0387826Y0250705D01*
X0389023Y0251902D02*
X0394000Y0251902D01*
X0394000Y0252500D02*
X0393298Y0252500D01*
X0393897Y0253099D02*
X0394000Y0253099D01*
X0394000Y0250106D02*
X0393575Y0250106D01*
X0391600Y0250106D02*
X0391000Y0250106D01*
X0391000Y0249508D02*
X0391600Y0249508D01*
X0391600Y0248909D02*
X0391000Y0248909D01*
X0391000Y0248310D02*
X0391600Y0248310D01*
X0391600Y0247712D02*
X0391000Y0247712D01*
X0391000Y0247113D02*
X0391600Y0247113D01*
X0387996Y0243522D02*
X0387000Y0243522D01*
X0387000Y0242924D02*
X0388595Y0242924D01*
X0389194Y0242325D02*
X0387000Y0242325D01*
X0387000Y0241727D02*
X0394000Y0241727D01*
X0394000Y0242325D02*
X0393406Y0242325D01*
X0394000Y0241128D02*
X0387000Y0241128D01*
X0387000Y0240530D02*
X0389449Y0240530D01*
X0388850Y0239931D02*
X0387000Y0239931D01*
X0386454Y0239333D02*
X0388252Y0239333D01*
X0387653Y0238734D02*
X0384664Y0238734D01*
X0385262Y0238136D02*
X0387055Y0238136D01*
X0387000Y0237537D02*
X0386184Y0237537D01*
X0386783Y0236939D02*
X0387000Y0236939D01*
X0393151Y0240530D02*
X0394000Y0240530D01*
X0394000Y0239931D02*
X0393750Y0239931D01*
X0387398Y0244121D02*
X0387000Y0244121D01*
X0387000Y0244719D02*
X0387000Y0244719D01*
X0387000Y0245318D02*
X0387000Y0245318D01*
X0387000Y0245916D02*
X0387000Y0245916D01*
X0378101Y0221377D02*
X0373454Y0221377D01*
X0374405Y0220779D02*
X0378700Y0220779D01*
X0379382Y0220180D02*
X0374959Y0220180D01*
X0375207Y0219582D02*
X0378784Y0219582D01*
X0378185Y0218983D02*
X0375400Y0218983D01*
X0375400Y0218385D02*
X0377587Y0218385D01*
X0377200Y0217786D02*
X0375360Y0217786D01*
X0375112Y0217188D02*
X0377200Y0217188D01*
X0394000Y0299398D02*
X0392998Y0300400D01*
X0389602Y0300400D01*
X0389462Y0300260D01*
X0387000Y0302721D01*
X0387000Y0311121D01*
X0386121Y0312000D01*
X0379121Y0312000D01*
X0379462Y0312340D01*
X0379602Y0312200D01*
X0382998Y0312200D01*
X0385400Y0314602D01*
X0385400Y0317998D01*
X0382998Y0320400D01*
X0379602Y0320400D01*
X0377200Y0317998D01*
X0377200Y0314602D01*
X0377340Y0314462D01*
X0376479Y0313600D01*
X0310479Y0313600D01*
X0310200Y0313321D01*
X0310200Y0313517D01*
X0310094Y0313773D01*
X0316921Y0320600D01*
X0387721Y0320600D01*
X0389462Y0322340D01*
X0389602Y0322200D01*
X0392998Y0322200D01*
X0394000Y0323202D01*
X0394000Y0319681D01*
X0393081Y0320600D01*
X0391600Y0320600D01*
X0391600Y0316600D01*
X0391000Y0316600D01*
X0391000Y0320600D01*
X0389519Y0320600D01*
X0387000Y0318081D01*
X0387000Y0316600D01*
X0391000Y0316600D01*
X0391000Y0316000D01*
X0391600Y0316000D01*
X0391600Y0312000D01*
X0393081Y0312000D01*
X0394000Y0312919D01*
X0394000Y0309398D01*
X0392998Y0310400D01*
X0389602Y0310400D01*
X0387200Y0307998D01*
X0387200Y0304602D01*
X0389602Y0302200D01*
X0392998Y0302200D01*
X0394000Y0303202D01*
X0394000Y0299398D01*
X0394000Y0299782D02*
X0393616Y0299782D01*
X0394000Y0300381D02*
X0393017Y0300381D01*
X0394000Y0300979D02*
X0388742Y0300979D01*
X0389340Y0300381D02*
X0389583Y0300381D01*
X0388143Y0301578D02*
X0394000Y0301578D01*
X0394000Y0302177D02*
X0387545Y0302177D01*
X0387000Y0302775D02*
X0389027Y0302775D01*
X0388428Y0303374D02*
X0387000Y0303374D01*
X0387000Y0303972D02*
X0387830Y0303972D01*
X0387231Y0304571D02*
X0387000Y0304571D01*
X0387000Y0305169D02*
X0387200Y0305169D01*
X0387200Y0305768D02*
X0387000Y0305768D01*
X0387000Y0306366D02*
X0387200Y0306366D01*
X0387200Y0306965D02*
X0387000Y0306965D01*
X0387000Y0307563D02*
X0387200Y0307563D01*
X0387363Y0308162D02*
X0387000Y0308162D01*
X0387000Y0308760D02*
X0387962Y0308760D01*
X0388560Y0309359D02*
X0387000Y0309359D01*
X0387000Y0309957D02*
X0389159Y0309957D01*
X0389519Y0312000D02*
X0391000Y0312000D01*
X0391000Y0316000D01*
X0387000Y0316000D01*
X0387000Y0314519D01*
X0389519Y0312000D01*
X0389168Y0312351D02*
X0383149Y0312351D01*
X0383748Y0312950D02*
X0388569Y0312950D01*
X0387971Y0313548D02*
X0384346Y0313548D01*
X0384945Y0314147D02*
X0387372Y0314147D01*
X0387000Y0314745D02*
X0385400Y0314745D01*
X0385400Y0315344D02*
X0387000Y0315344D01*
X0387000Y0315942D02*
X0385400Y0315942D01*
X0385400Y0316541D02*
X0391000Y0316541D01*
X0391000Y0317139D02*
X0391600Y0317139D01*
X0391600Y0317738D02*
X0391000Y0317738D01*
X0391000Y0318336D02*
X0391600Y0318336D01*
X0391600Y0318935D02*
X0391000Y0318935D01*
X0391000Y0319533D02*
X0391600Y0319533D01*
X0391600Y0320132D02*
X0391000Y0320132D01*
X0389051Y0320132D02*
X0383266Y0320132D01*
X0383865Y0319533D02*
X0388452Y0319533D01*
X0387854Y0318935D02*
X0384463Y0318935D01*
X0385062Y0318336D02*
X0387255Y0318336D01*
X0387000Y0317738D02*
X0385400Y0317738D01*
X0385400Y0317139D02*
X0387000Y0317139D01*
X0387852Y0320730D02*
X0394000Y0320730D01*
X0394000Y0320132D02*
X0393549Y0320132D01*
X0394000Y0321329D02*
X0388450Y0321329D01*
X0389049Y0321927D02*
X0394000Y0321927D01*
X0394000Y0322526D02*
X0393324Y0322526D01*
X0393923Y0323124D02*
X0394000Y0323124D01*
X0394000Y0329398D02*
X0392998Y0330400D01*
X0389602Y0330400D01*
X0387200Y0327998D01*
X0387200Y0324602D01*
X0387340Y0324462D01*
X0386479Y0323600D01*
X0384398Y0323600D01*
X0385400Y0324602D01*
X0385400Y0327998D01*
X0382998Y0330400D01*
X0379602Y0330400D01*
X0377202Y0328000D01*
X0345751Y0328000D01*
X0346200Y0329083D01*
X0346200Y0330317D01*
X0346094Y0330573D01*
X0350121Y0334600D01*
X0375721Y0334600D01*
X0377200Y0336079D01*
X0377200Y0334602D01*
X0379602Y0332200D01*
X0382998Y0332200D01*
X0385400Y0334602D01*
X0385400Y0337998D01*
X0382998Y0340400D01*
X0381521Y0340400D01*
X0381721Y0340600D01*
X0387721Y0340600D01*
X0389462Y0342340D01*
X0389602Y0342200D01*
X0392998Y0342200D01*
X0394000Y0343202D01*
X0394000Y0339681D01*
X0393081Y0340600D01*
X0391600Y0340600D01*
X0391600Y0336600D01*
X0391000Y0336600D01*
X0391000Y0340600D01*
X0389519Y0340600D01*
X0387000Y0338081D01*
X0387000Y0336600D01*
X0391000Y0336600D01*
X0391000Y0336000D01*
X0391600Y0336000D01*
X0391600Y0332000D01*
X0393081Y0332000D01*
X0394000Y0332919D01*
X0394000Y0329398D01*
X0394000Y0329708D02*
X0393690Y0329708D01*
X0394000Y0330307D02*
X0393092Y0330307D01*
X0394000Y0330905D02*
X0346426Y0330905D01*
X0346200Y0330307D02*
X0379508Y0330307D01*
X0378910Y0329708D02*
X0346200Y0329708D01*
X0346200Y0329110D02*
X0378311Y0329110D01*
X0377713Y0328511D02*
X0345963Y0328511D01*
X0347025Y0331504D02*
X0394000Y0331504D01*
X0394000Y0332102D02*
X0393183Y0332102D01*
X0393782Y0332701D02*
X0394000Y0332701D01*
X0391600Y0332701D02*
X0391000Y0332701D01*
X0391000Y0333299D02*
X0391600Y0333299D01*
X0391600Y0333898D02*
X0391000Y0333898D01*
X0391000Y0334496D02*
X0391600Y0334496D01*
X0391600Y0335095D02*
X0391000Y0335095D01*
X0391000Y0335693D02*
X0391600Y0335693D01*
X0391000Y0336000D02*
X0391000Y0332000D01*
X0389519Y0332000D01*
X0387000Y0334519D01*
X0387000Y0336000D01*
X0391000Y0336000D01*
X0391000Y0336292D02*
X0385400Y0336292D01*
X0385400Y0336890D02*
X0387000Y0336890D01*
X0387000Y0337489D02*
X0385400Y0337489D01*
X0385311Y0338087D02*
X0387006Y0338087D01*
X0387605Y0338686D02*
X0384713Y0338686D01*
X0384114Y0339284D02*
X0388203Y0339284D01*
X0388802Y0339883D02*
X0383516Y0339883D01*
X0381603Y0340481D02*
X0389400Y0340481D01*
X0388800Y0341678D02*
X0394000Y0341678D01*
X0394000Y0341080D02*
X0388201Y0341080D01*
X0389398Y0342277D02*
X0389525Y0342277D01*
X0391000Y0340481D02*
X0391600Y0340481D01*
X0391600Y0339883D02*
X0391000Y0339883D01*
X0391000Y0339284D02*
X0391600Y0339284D01*
X0391600Y0338686D02*
X0391000Y0338686D01*
X0391000Y0338087D02*
X0391600Y0338087D01*
X0391600Y0337489D02*
X0391000Y0337489D01*
X0391000Y0336890D02*
X0391600Y0336890D01*
X0393798Y0339883D02*
X0394000Y0339883D01*
X0394000Y0340481D02*
X0393200Y0340481D01*
X0393075Y0342277D02*
X0394000Y0342277D01*
X0394000Y0342875D02*
X0393674Y0342875D01*
X0387000Y0335693D02*
X0385400Y0335693D01*
X0385400Y0335095D02*
X0387000Y0335095D01*
X0387023Y0334496D02*
X0385294Y0334496D01*
X0384696Y0333898D02*
X0387621Y0333898D01*
X0388220Y0333299D02*
X0384097Y0333299D01*
X0383499Y0332701D02*
X0388818Y0332701D01*
X0389417Y0332102D02*
X0347623Y0332102D01*
X0348222Y0332701D02*
X0379101Y0332701D01*
X0378503Y0333299D02*
X0348820Y0333299D01*
X0349419Y0333898D02*
X0377904Y0333898D01*
X0377306Y0334496D02*
X0350017Y0334496D01*
X0376216Y0335095D02*
X0377200Y0335095D01*
X0377200Y0335693D02*
X0376814Y0335693D01*
X0383092Y0330307D02*
X0389508Y0330307D01*
X0388910Y0329708D02*
X0383690Y0329708D01*
X0384289Y0329110D02*
X0388311Y0329110D01*
X0387713Y0328511D02*
X0384887Y0328511D01*
X0385400Y0327912D02*
X0387200Y0327912D01*
X0387200Y0327314D02*
X0385400Y0327314D01*
X0385400Y0326715D02*
X0387200Y0326715D01*
X0387200Y0326117D02*
X0385400Y0326117D01*
X0385400Y0325518D02*
X0387200Y0325518D01*
X0387200Y0324920D02*
X0385400Y0324920D01*
X0385120Y0324321D02*
X0387200Y0324321D01*
X0386602Y0323723D02*
X0384521Y0323723D01*
X0379334Y0320132D02*
X0316453Y0320132D01*
X0315855Y0319533D02*
X0378735Y0319533D01*
X0378137Y0318935D02*
X0315256Y0318935D01*
X0314658Y0318336D02*
X0377538Y0318336D01*
X0377200Y0317738D02*
X0314059Y0317738D01*
X0313461Y0317139D02*
X0377200Y0317139D01*
X0377200Y0316541D02*
X0312862Y0316541D01*
X0312264Y0315942D02*
X0377200Y0315942D01*
X0377200Y0315344D02*
X0311665Y0315344D01*
X0311067Y0314745D02*
X0377200Y0314745D01*
X0377025Y0314147D02*
X0310468Y0314147D01*
X0310427Y0313548D02*
X0310187Y0313548D01*
X0330184Y0362400D02*
X0330528Y0362744D01*
X0331000Y0363883D01*
X0331000Y0365117D01*
X0330528Y0366256D01*
X0329656Y0367128D01*
X0328517Y0367600D01*
X0327283Y0367600D01*
X0326144Y0367128D01*
X0325272Y0366256D01*
X0325166Y0366000D01*
X0319351Y0366000D01*
X0319800Y0367083D01*
X0319800Y0368317D01*
X0319683Y0368600D01*
X0375321Y0368600D01*
X0376200Y0369479D01*
X0376200Y0375521D01*
X0375321Y0376400D01*
X0373721Y0378000D01*
X0371721Y0378000D01*
X0370260Y0379462D01*
X0370400Y0379602D01*
X0370400Y0382998D01*
X0367998Y0385400D01*
X0364602Y0385400D01*
X0362200Y0382998D01*
X0362200Y0380034D01*
X0361317Y0380400D01*
X0360400Y0380400D01*
X0360400Y0382998D01*
X0357998Y0385400D01*
X0354602Y0385400D01*
X0352200Y0382998D01*
X0352200Y0379602D01*
X0353402Y0378400D01*
X0349198Y0378400D01*
X0350400Y0379602D01*
X0350400Y0382998D01*
X0347998Y0385400D01*
X0344602Y0385400D01*
X0342200Y0382998D01*
X0342200Y0379602D01*
X0343402Y0378400D01*
X0339198Y0378400D01*
X0340400Y0379602D01*
X0340400Y0382998D01*
X0337998Y0385400D01*
X0334602Y0385400D01*
X0332200Y0382998D01*
X0332200Y0379602D01*
X0333402Y0378400D01*
X0329198Y0378400D01*
X0330400Y0379602D01*
X0330400Y0382998D01*
X0327998Y0385400D01*
X0324602Y0385400D01*
X0322200Y0382998D01*
X0322200Y0380765D01*
X0322117Y0380800D01*
X0320883Y0380800D01*
X0320400Y0380600D01*
X0320400Y0382998D01*
X0317998Y0385400D01*
X0314602Y0385400D01*
X0312200Y0382998D01*
X0312200Y0379602D01*
X0314602Y0377200D01*
X0317998Y0377200D01*
X0318400Y0377602D01*
X0318400Y0377083D01*
X0318872Y0375944D01*
X0319744Y0375072D01*
X0320883Y0374600D01*
X0322117Y0374600D01*
X0323256Y0375072D01*
X0323584Y0375400D01*
X0358216Y0375400D01*
X0358944Y0374672D01*
X0360083Y0374200D01*
X0361317Y0374200D01*
X0362456Y0374672D01*
X0363328Y0375544D01*
X0363800Y0376683D01*
X0363800Y0377917D01*
X0363740Y0378062D01*
X0364602Y0377200D01*
X0367998Y0377200D01*
X0368138Y0377340D01*
X0369600Y0375879D01*
X0370479Y0375000D01*
X0372479Y0375000D01*
X0373200Y0374279D01*
X0373200Y0371600D01*
X0319721Y0371600D01*
X0318921Y0372400D01*
X0210879Y0372400D01*
X0208200Y0369721D01*
X0208200Y0369917D01*
X0207728Y0371056D01*
X0206856Y0371928D01*
X0205717Y0372400D01*
X0204483Y0372400D01*
X0203518Y0372000D01*
X0018384Y0372000D01*
X0018056Y0372328D01*
X0016917Y0372800D01*
X0015683Y0372800D01*
X0014544Y0372328D01*
X0013672Y0371456D01*
X0013248Y0370433D01*
X0013081Y0370600D01*
X0011600Y0370600D01*
X0011600Y0366600D01*
X0015600Y0366600D01*
X0015600Y0366635D01*
X0015683Y0366600D01*
X0016917Y0366600D01*
X0017200Y0366717D01*
X0017200Y0364602D01*
X0019602Y0362200D01*
X0022998Y0362200D01*
X0025400Y0364602D01*
X0025400Y0365000D01*
X0035566Y0365000D01*
X0035649Y0364800D01*
X0027679Y0364800D01*
X0023138Y0360260D01*
X0022998Y0360400D01*
X0019602Y0360400D01*
X0017200Y0357998D01*
X0017200Y0354602D01*
X0018202Y0353600D01*
X0016121Y0353600D01*
X0015260Y0354462D01*
X0015400Y0354602D01*
X0015400Y0357998D01*
X0012998Y0360400D01*
X0009602Y0360400D01*
X0008600Y0359398D01*
X0008600Y0362919D01*
X0009519Y0362000D01*
X0011000Y0362000D01*
X0011000Y0366000D01*
X0011600Y0366000D01*
X0011600Y0366600D01*
X0011000Y0366600D01*
X0011000Y0370600D01*
X0009519Y0370600D01*
X0008600Y0369681D01*
X0008600Y0382547D01*
X0009052Y0381457D01*
X0011457Y0379052D01*
X0014599Y0377750D01*
X0018001Y0377750D01*
X0021143Y0379052D01*
X0023548Y0381457D01*
X0024850Y0384599D01*
X0024850Y0388001D01*
X0023548Y0391143D01*
X0021143Y0393548D01*
X0020053Y0394000D01*
X0033202Y0394000D01*
X0032200Y0392998D01*
X0032200Y0389602D01*
X0034602Y0387200D01*
X0037998Y0387200D01*
X0040400Y0389602D01*
X0040400Y0392998D01*
X0039398Y0394000D01*
X0043202Y0394000D01*
X0042200Y0392998D01*
X0042200Y0389602D01*
X0042340Y0389462D01*
X0040079Y0387200D01*
X0034079Y0387200D01*
X0030879Y0384000D01*
X0030000Y0383121D01*
X0030000Y0380434D01*
X0029744Y0380328D01*
X0028872Y0379456D01*
X0028400Y0378317D01*
X0028400Y0377083D01*
X0028872Y0375944D01*
X0029744Y0375072D01*
X0030883Y0374600D01*
X0032117Y0374600D01*
X0033256Y0375072D01*
X0034128Y0375944D01*
X0034600Y0377083D01*
X0034600Y0377202D01*
X0034602Y0377200D01*
X0037998Y0377200D01*
X0038400Y0377602D01*
X0038400Y0377083D01*
X0038872Y0375944D01*
X0039744Y0375072D01*
X0040883Y0374600D01*
X0042117Y0374600D01*
X0043256Y0375072D01*
X0043584Y0375400D01*
X0202521Y0375400D01*
X0203400Y0376279D01*
X0204462Y0377340D01*
X0204602Y0377200D01*
X0207998Y0377200D01*
X0210400Y0379602D01*
X0210400Y0382566D01*
X0211283Y0382200D01*
X0212200Y0382200D01*
X0212200Y0379602D01*
X0214602Y0377200D01*
X0217998Y0377200D01*
X0220400Y0379602D01*
X0220400Y0382998D01*
X0217998Y0385400D01*
X0215000Y0385400D01*
X0342521Y0385400D01*
X0344462Y0387340D01*
X0344602Y0387200D01*
X0347998Y0387200D01*
X0350400Y0389602D01*
X0350400Y0392998D01*
X0349398Y0394000D01*
X0353202Y0394000D01*
X0352200Y0392998D01*
X0352200Y0389602D01*
X0354602Y0387200D01*
X0357998Y0387200D01*
X0360400Y0389602D01*
X0360400Y0392998D01*
X0359398Y0394000D01*
X0362919Y0394000D01*
X0362000Y0393081D01*
X0362000Y0391600D01*
X0366000Y0391600D01*
X0366000Y0391000D01*
X0366600Y0391000D01*
X0366600Y0391600D01*
X0370600Y0391600D01*
X0370600Y0393081D01*
X0369681Y0394000D01*
X0382547Y0394000D01*
X0381457Y0393548D01*
X0379052Y0391143D01*
X0377750Y0388001D01*
X0377750Y0384599D01*
X0379052Y0381457D01*
X0381457Y0379052D01*
X0384599Y0377750D01*
X0388001Y0377750D01*
X0391143Y0379052D01*
X0393548Y0381457D01*
X0394000Y0382547D01*
X0394000Y0369398D01*
X0392998Y0370400D01*
X0389602Y0370400D01*
X0387200Y0367998D01*
X0387200Y0364602D01*
X0387340Y0364462D01*
X0385679Y0362800D01*
X0383598Y0362800D01*
X0385400Y0364602D01*
X0385400Y0367998D01*
X0382998Y0370400D01*
X0379602Y0370400D01*
X0377200Y0367998D01*
X0377200Y0367600D01*
X0342479Y0367600D01*
X0341600Y0366721D01*
X0337279Y0362400D01*
X0330184Y0362400D01*
X0330410Y0362626D02*
X0337505Y0362626D01*
X0338103Y0363225D02*
X0330727Y0363225D01*
X0330975Y0363823D02*
X0338702Y0363823D01*
X0339300Y0364422D02*
X0331000Y0364422D01*
X0331000Y0365020D02*
X0339899Y0365020D01*
X0340497Y0365619D02*
X0330792Y0365619D01*
X0330544Y0366217D02*
X0341096Y0366217D01*
X0341694Y0366816D02*
X0329968Y0366816D01*
X0328965Y0367414D02*
X0342293Y0367414D01*
X0343016Y0378786D02*
X0339584Y0378786D01*
X0340183Y0379384D02*
X0342417Y0379384D01*
X0342200Y0379983D02*
X0340400Y0379983D01*
X0340400Y0380581D02*
X0342200Y0380581D01*
X0342200Y0381180D02*
X0340400Y0381180D01*
X0340400Y0381779D02*
X0342200Y0381779D01*
X0342200Y0382377D02*
X0340400Y0382377D01*
X0340400Y0382976D02*
X0342200Y0382976D01*
X0342776Y0383574D02*
X0339824Y0383574D01*
X0339226Y0384173D02*
X0343374Y0384173D01*
X0343973Y0384771D02*
X0338627Y0384771D01*
X0338029Y0385370D02*
X0344571Y0385370D01*
X0343688Y0386567D02*
X0377750Y0386567D01*
X0377750Y0387165D02*
X0368246Y0387165D01*
X0368081Y0387000D02*
X0370600Y0389519D01*
X0370600Y0391000D01*
X0366600Y0391000D01*
X0366600Y0387000D01*
X0368081Y0387000D01*
X0368845Y0387764D02*
X0377750Y0387764D01*
X0377900Y0388362D02*
X0369443Y0388362D01*
X0370042Y0388961D02*
X0378148Y0388961D01*
X0378396Y0389559D02*
X0370600Y0389559D01*
X0370600Y0390158D02*
X0378643Y0390158D01*
X0378891Y0390756D02*
X0370600Y0390756D01*
X0370600Y0391953D02*
X0379862Y0391953D01*
X0380460Y0392552D02*
X0370600Y0392552D01*
X0370531Y0393150D02*
X0381059Y0393150D01*
X0381941Y0393749D02*
X0369932Y0393749D01*
X0366600Y0391355D02*
X0379263Y0391355D01*
X0377750Y0385968D02*
X0343089Y0385968D01*
X0344286Y0387165D02*
X0364354Y0387165D01*
X0364519Y0387000D02*
X0366000Y0387000D01*
X0366000Y0391000D01*
X0362000Y0391000D01*
X0362000Y0389519D01*
X0364519Y0387000D01*
X0363755Y0387764D02*
X0358562Y0387764D01*
X0359160Y0388362D02*
X0363157Y0388362D01*
X0362558Y0388961D02*
X0359759Y0388961D01*
X0360357Y0389559D02*
X0362000Y0389559D01*
X0362000Y0390158D02*
X0360400Y0390158D01*
X0360400Y0390756D02*
X0362000Y0390756D01*
X0362000Y0391953D02*
X0360400Y0391953D01*
X0360400Y0391355D02*
X0366000Y0391355D01*
X0366000Y0390756D02*
X0366600Y0390756D01*
X0366600Y0390158D02*
X0366000Y0390158D01*
X0366000Y0389559D02*
X0366600Y0389559D01*
X0366600Y0388961D02*
X0366000Y0388961D01*
X0366000Y0388362D02*
X0366600Y0388362D01*
X0366600Y0387764D02*
X0366000Y0387764D01*
X0366000Y0387165D02*
X0366600Y0387165D01*
X0368029Y0385370D02*
X0377750Y0385370D01*
X0377750Y0384771D02*
X0368627Y0384771D01*
X0369226Y0384173D02*
X0377927Y0384173D01*
X0378175Y0383574D02*
X0369824Y0383574D01*
X0370400Y0382976D02*
X0378423Y0382976D01*
X0378670Y0382377D02*
X0370400Y0382377D01*
X0370400Y0381779D02*
X0378918Y0381779D01*
X0379328Y0381180D02*
X0370400Y0381180D01*
X0370400Y0380581D02*
X0379927Y0380581D01*
X0380525Y0379983D02*
X0370400Y0379983D01*
X0370337Y0379384D02*
X0381124Y0379384D01*
X0382098Y0378786D02*
X0370935Y0378786D01*
X0371534Y0378187D02*
X0383543Y0378187D01*
X0389057Y0378187D02*
X0394000Y0378187D01*
X0394000Y0377589D02*
X0374132Y0377589D01*
X0374731Y0376990D02*
X0394000Y0376990D01*
X0394000Y0376392D02*
X0375329Y0376392D01*
X0375928Y0375793D02*
X0394000Y0375793D01*
X0394000Y0375195D02*
X0376200Y0375195D01*
X0376200Y0374596D02*
X0394000Y0374596D01*
X0394000Y0373998D02*
X0376200Y0373998D01*
X0376200Y0373399D02*
X0394000Y0373399D01*
X0394000Y0372801D02*
X0376200Y0372801D01*
X0376200Y0372202D02*
X0394000Y0372202D01*
X0394000Y0371604D02*
X0376200Y0371604D01*
X0376200Y0371005D02*
X0394000Y0371005D01*
X0394000Y0370407D02*
X0376200Y0370407D01*
X0376200Y0369808D02*
X0379010Y0369808D01*
X0378412Y0369210D02*
X0375931Y0369210D01*
X0375333Y0368611D02*
X0377813Y0368611D01*
X0377214Y0368013D02*
X0319800Y0368013D01*
X0319800Y0367414D02*
X0326835Y0367414D01*
X0325832Y0366816D02*
X0319689Y0366816D01*
X0319441Y0366217D02*
X0325256Y0366217D01*
X0319717Y0371604D02*
X0373200Y0371604D01*
X0373200Y0372202D02*
X0319119Y0372202D01*
X0319621Y0375195D02*
X0043379Y0375195D01*
X0039621Y0375195D02*
X0033379Y0375195D01*
X0033977Y0375793D02*
X0039023Y0375793D01*
X0038686Y0376392D02*
X0034314Y0376392D01*
X0034561Y0376990D02*
X0038438Y0376990D01*
X0038400Y0377589D02*
X0038387Y0377589D01*
X0040400Y0380600D02*
X0040400Y0382998D01*
X0039198Y0384200D01*
X0041321Y0384200D01*
X0042200Y0385079D01*
X0044462Y0387340D01*
X0044602Y0387200D01*
X0047998Y0387200D01*
X0050400Y0389602D01*
X0050400Y0392998D01*
X0049398Y0394000D01*
X0053202Y0394000D01*
X0052200Y0392998D01*
X0052200Y0389602D01*
X0054602Y0387200D01*
X0057998Y0387200D01*
X0060400Y0389602D01*
X0060400Y0392998D01*
X0059398Y0394000D01*
X0062919Y0394000D01*
X0062000Y0393081D01*
X0062000Y0391600D01*
X0066000Y0391600D01*
X0066000Y0391000D01*
X0066600Y0391000D01*
X0066600Y0391600D01*
X0070600Y0391600D01*
X0070600Y0393081D01*
X0069681Y0394000D01*
X0073202Y0394000D01*
X0072200Y0392998D01*
X0072200Y0389602D01*
X0074602Y0387200D01*
X0077998Y0387200D01*
X0080400Y0389602D01*
X0080400Y0392998D01*
X0079398Y0394000D01*
X0082919Y0394000D01*
X0082000Y0393081D01*
X0082000Y0391600D01*
X0086000Y0391600D01*
X0086000Y0391000D01*
X0086600Y0391000D01*
X0086600Y0391600D01*
X0090600Y0391600D01*
X0090600Y0393081D01*
X0089681Y0394000D01*
X0093202Y0394000D01*
X0092200Y0392998D01*
X0092200Y0389602D01*
X0094602Y0387200D01*
X0097998Y0387200D01*
X0100400Y0389602D01*
X0100400Y0392998D01*
X0099398Y0394000D01*
X0103202Y0394000D01*
X0102200Y0392998D01*
X0102200Y0389602D01*
X0104602Y0387200D01*
X0107998Y0387200D01*
X0110400Y0389602D01*
X0110400Y0392998D01*
X0109398Y0394000D01*
X0113202Y0394000D01*
X0112200Y0392998D01*
X0112200Y0389602D01*
X0114602Y0387200D01*
X0117998Y0387200D01*
X0120400Y0389602D01*
X0120400Y0392998D01*
X0119398Y0394000D01*
X0123202Y0394000D01*
X0122200Y0392998D01*
X0122200Y0389602D01*
X0124602Y0387200D01*
X0127998Y0387200D01*
X0130400Y0389602D01*
X0130400Y0392998D01*
X0129398Y0394000D01*
X0133202Y0394000D01*
X0132200Y0392998D01*
X0132200Y0389602D01*
X0134602Y0387200D01*
X0137998Y0387200D01*
X0140400Y0389602D01*
X0140400Y0392998D01*
X0139398Y0394000D01*
X0143202Y0394000D01*
X0142200Y0392998D01*
X0142200Y0389602D01*
X0144602Y0387200D01*
X0147998Y0387200D01*
X0150400Y0389602D01*
X0150400Y0392998D01*
X0149398Y0394000D01*
X0152919Y0394000D01*
X0152000Y0393081D01*
X0152000Y0391600D01*
X0156000Y0391600D01*
X0156000Y0391000D01*
X0156600Y0391000D01*
X0156600Y0391600D01*
X0160600Y0391600D01*
X0160600Y0393081D01*
X0159681Y0394000D01*
X0162919Y0394000D01*
X0162000Y0393081D01*
X0162000Y0391600D01*
X0166000Y0391600D01*
X0166000Y0391000D01*
X0166600Y0391000D01*
X0166600Y0391600D01*
X0170600Y0391600D01*
X0170600Y0393081D01*
X0169681Y0394000D01*
X0173202Y0394000D01*
X0172200Y0392998D01*
X0172200Y0389602D01*
X0174602Y0387200D01*
X0177998Y0387200D01*
X0180400Y0389602D01*
X0180400Y0392998D01*
X0179398Y0394000D01*
X0183202Y0394000D01*
X0182200Y0392998D01*
X0182200Y0389602D01*
X0184602Y0387200D01*
X0187998Y0387200D01*
X0190400Y0389602D01*
X0190400Y0392998D01*
X0189398Y0394000D01*
X0192919Y0394000D01*
X0192000Y0393081D01*
X0192000Y0391600D01*
X0196000Y0391600D01*
X0196000Y0391000D01*
X0196600Y0391000D01*
X0196600Y0391600D01*
X0200600Y0391600D01*
X0200600Y0393081D01*
X0199681Y0394000D01*
X0203202Y0394000D01*
X0202200Y0392998D01*
X0202200Y0389602D01*
X0204602Y0387200D01*
X0207998Y0387200D01*
X0210400Y0389602D01*
X0210400Y0392998D01*
X0209398Y0394000D01*
X0213202Y0394000D01*
X0212200Y0392998D01*
X0212200Y0389602D01*
X0213402Y0388400D01*
X0212879Y0388400D01*
X0212773Y0388294D01*
X0212517Y0388400D01*
X0211283Y0388400D01*
X0210144Y0387928D01*
X0209272Y0387056D01*
X0208800Y0385917D01*
X0208800Y0384683D01*
X0208860Y0384538D01*
X0207998Y0385400D01*
X0204602Y0385400D01*
X0202200Y0382998D01*
X0202200Y0379602D01*
X0202340Y0379462D01*
X0201279Y0378400D01*
X0199198Y0378400D01*
X0200400Y0379602D01*
X0200400Y0382998D01*
X0197998Y0385400D01*
X0194602Y0385400D01*
X0192200Y0382998D01*
X0192200Y0379602D01*
X0193402Y0378400D01*
X0189198Y0378400D01*
X0190400Y0379602D01*
X0190400Y0382998D01*
X0187998Y0385400D01*
X0184602Y0385400D01*
X0182200Y0382998D01*
X0182200Y0379602D01*
X0183402Y0378400D01*
X0179198Y0378400D01*
X0180400Y0379602D01*
X0180400Y0382998D01*
X0177998Y0385400D01*
X0174602Y0385400D01*
X0172200Y0382998D01*
X0172200Y0379602D01*
X0173402Y0378400D01*
X0169198Y0378400D01*
X0170400Y0379602D01*
X0170400Y0382998D01*
X0167998Y0385400D01*
X0164602Y0385400D01*
X0162200Y0382998D01*
X0162200Y0379602D01*
X0163402Y0378400D01*
X0159198Y0378400D01*
X0160400Y0379602D01*
X0160400Y0382998D01*
X0157998Y0385400D01*
X0154602Y0385400D01*
X0152200Y0382998D01*
X0152200Y0379602D01*
X0153402Y0378400D01*
X0149198Y0378400D01*
X0150400Y0379602D01*
X0150400Y0382998D01*
X0147998Y0385400D01*
X0144602Y0385400D01*
X0142200Y0382998D01*
X0142200Y0379602D01*
X0143402Y0378400D01*
X0139198Y0378400D01*
X0140400Y0379602D01*
X0140400Y0382998D01*
X0137998Y0385400D01*
X0134602Y0385400D01*
X0132200Y0382998D01*
X0132200Y0379602D01*
X0133402Y0378400D01*
X0129198Y0378400D01*
X0130400Y0379602D01*
X0130400Y0382998D01*
X0127998Y0385400D01*
X0124602Y0385400D01*
X0122200Y0382998D01*
X0122200Y0379602D01*
X0123402Y0378400D01*
X0119198Y0378400D01*
X0120400Y0379602D01*
X0120400Y0382998D01*
X0117998Y0385400D01*
X0114602Y0385400D01*
X0112200Y0382998D01*
X0112200Y0379602D01*
X0113402Y0378400D01*
X0109198Y0378400D01*
X0110400Y0379602D01*
X0110400Y0382998D01*
X0107998Y0385400D01*
X0104602Y0385400D01*
X0102200Y0382998D01*
X0102200Y0379602D01*
X0103402Y0378400D01*
X0099198Y0378400D01*
X0100400Y0379602D01*
X0100400Y0382998D01*
X0097998Y0385400D01*
X0094602Y0385400D01*
X0092200Y0382998D01*
X0092200Y0379602D01*
X0093402Y0378400D01*
X0089198Y0378400D01*
X0090400Y0379602D01*
X0090400Y0382998D01*
X0087998Y0385400D01*
X0084602Y0385400D01*
X0082200Y0382998D01*
X0082200Y0379602D01*
X0083402Y0378400D01*
X0079198Y0378400D01*
X0080400Y0379602D01*
X0080400Y0382998D01*
X0077998Y0385400D01*
X0074602Y0385400D01*
X0072200Y0382998D01*
X0072200Y0379602D01*
X0073402Y0378400D01*
X0069198Y0378400D01*
X0070400Y0379602D01*
X0070400Y0382998D01*
X0067998Y0385400D01*
X0064602Y0385400D01*
X0062200Y0382998D01*
X0062200Y0379602D01*
X0063402Y0378400D01*
X0059198Y0378400D01*
X0060400Y0379602D01*
X0060400Y0382998D01*
X0057998Y0385400D01*
X0054602Y0385400D01*
X0052200Y0382998D01*
X0052200Y0379602D01*
X0053402Y0378400D01*
X0049198Y0378400D01*
X0050400Y0379602D01*
X0050400Y0382998D01*
X0047998Y0385400D01*
X0044602Y0385400D01*
X0042200Y0382998D01*
X0042200Y0380765D01*
X0042117Y0380800D01*
X0040883Y0380800D01*
X0040400Y0380600D01*
X0040400Y0381180D02*
X0042200Y0381180D01*
X0042200Y0381779D02*
X0040400Y0381779D01*
X0040400Y0382377D02*
X0042200Y0382377D01*
X0042200Y0382976D02*
X0040400Y0382976D01*
X0039824Y0383574D02*
X0042776Y0383574D01*
X0043374Y0384173D02*
X0039226Y0384173D01*
X0041892Y0384771D02*
X0043973Y0384771D01*
X0044571Y0385370D02*
X0042491Y0385370D01*
X0043089Y0385968D02*
X0208821Y0385968D01*
X0208800Y0385370D02*
X0208029Y0385370D01*
X0208627Y0384771D02*
X0208800Y0384771D01*
X0209069Y0386567D02*
X0043688Y0386567D01*
X0044286Y0387165D02*
X0064354Y0387165D01*
X0064519Y0387000D02*
X0066000Y0387000D01*
X0066000Y0391000D01*
X0062000Y0391000D01*
X0062000Y0389519D01*
X0064519Y0387000D01*
X0063755Y0387764D02*
X0058562Y0387764D01*
X0059160Y0388362D02*
X0063157Y0388362D01*
X0062558Y0388961D02*
X0059759Y0388961D01*
X0060357Y0389559D02*
X0062000Y0389559D01*
X0062000Y0390158D02*
X0060400Y0390158D01*
X0060400Y0390756D02*
X0062000Y0390756D01*
X0062000Y0391953D02*
X0060400Y0391953D01*
X0060400Y0391355D02*
X0066000Y0391355D01*
X0066000Y0390756D02*
X0066600Y0390756D01*
X0066600Y0391000D02*
X0066600Y0387000D01*
X0068081Y0387000D01*
X0070600Y0389519D01*
X0070600Y0391000D01*
X0066600Y0391000D01*
X0066600Y0391355D02*
X0072200Y0391355D01*
X0072200Y0391953D02*
X0070600Y0391953D01*
X0070600Y0392552D02*
X0072200Y0392552D01*
X0072352Y0393150D02*
X0070531Y0393150D01*
X0069932Y0393749D02*
X0072950Y0393749D01*
X0072200Y0390756D02*
X0070600Y0390756D01*
X0070600Y0390158D02*
X0072200Y0390158D01*
X0072243Y0389559D02*
X0070600Y0389559D01*
X0070042Y0388961D02*
X0072841Y0388961D01*
X0073440Y0388362D02*
X0069443Y0388362D01*
X0068845Y0387764D02*
X0074038Y0387764D01*
X0074571Y0385370D02*
X0068029Y0385370D01*
X0068627Y0384771D02*
X0073973Y0384771D01*
X0073374Y0384173D02*
X0069226Y0384173D01*
X0069824Y0383574D02*
X0072776Y0383574D01*
X0072200Y0382976D02*
X0070400Y0382976D01*
X0070400Y0382377D02*
X0072200Y0382377D01*
X0072200Y0381779D02*
X0070400Y0381779D01*
X0070400Y0381180D02*
X0072200Y0381180D01*
X0072200Y0380581D02*
X0070400Y0380581D01*
X0070400Y0379983D02*
X0072200Y0379983D01*
X0072417Y0379384D02*
X0070183Y0379384D01*
X0069584Y0378786D02*
X0073016Y0378786D01*
X0079584Y0378786D02*
X0083016Y0378786D01*
X0082417Y0379384D02*
X0080183Y0379384D01*
X0080400Y0379983D02*
X0082200Y0379983D01*
X0082200Y0380581D02*
X0080400Y0380581D01*
X0080400Y0381180D02*
X0082200Y0381180D01*
X0082200Y0381779D02*
X0080400Y0381779D01*
X0080400Y0382377D02*
X0082200Y0382377D01*
X0082200Y0382976D02*
X0080400Y0382976D01*
X0079824Y0383574D02*
X0082776Y0383574D01*
X0083374Y0384173D02*
X0079226Y0384173D01*
X0078627Y0384771D02*
X0083973Y0384771D01*
X0084571Y0385370D02*
X0078029Y0385370D01*
X0078562Y0387764D02*
X0083755Y0387764D01*
X0083157Y0388362D02*
X0079160Y0388362D01*
X0079759Y0388961D02*
X0082558Y0388961D01*
X0082000Y0389519D02*
X0084519Y0387000D01*
X0086000Y0387000D01*
X0086000Y0391000D01*
X0082000Y0391000D01*
X0082000Y0389519D01*
X0082000Y0389559D02*
X0080357Y0389559D01*
X0080400Y0390158D02*
X0082000Y0390158D01*
X0082000Y0390756D02*
X0080400Y0390756D01*
X0080400Y0391355D02*
X0086000Y0391355D01*
X0086000Y0390756D02*
X0086600Y0390756D01*
X0086600Y0391000D02*
X0086600Y0387000D01*
X0088081Y0387000D01*
X0090600Y0389519D01*
X0090600Y0391000D01*
X0086600Y0391000D01*
X0086600Y0391355D02*
X0092200Y0391355D01*
X0092200Y0391953D02*
X0090600Y0391953D01*
X0090600Y0392552D02*
X0092200Y0392552D01*
X0092352Y0393150D02*
X0090531Y0393150D01*
X0089932Y0393749D02*
X0092950Y0393749D01*
X0092200Y0390756D02*
X0090600Y0390756D01*
X0090600Y0390158D02*
X0092200Y0390158D01*
X0092243Y0389559D02*
X0090600Y0389559D01*
X0090042Y0388961D02*
X0092841Y0388961D01*
X0093440Y0388362D02*
X0089443Y0388362D01*
X0088845Y0387764D02*
X0094038Y0387764D01*
X0094571Y0385370D02*
X0088029Y0385370D01*
X0088627Y0384771D02*
X0093973Y0384771D01*
X0093374Y0384173D02*
X0089226Y0384173D01*
X0089824Y0383574D02*
X0092776Y0383574D01*
X0092200Y0382976D02*
X0090400Y0382976D01*
X0090400Y0382377D02*
X0092200Y0382377D01*
X0092200Y0381779D02*
X0090400Y0381779D01*
X0090400Y0381180D02*
X0092200Y0381180D01*
X0092200Y0380581D02*
X0090400Y0380581D01*
X0090400Y0379983D02*
X0092200Y0379983D01*
X0092417Y0379384D02*
X0090183Y0379384D01*
X0089584Y0378786D02*
X0093016Y0378786D01*
X0099584Y0378786D02*
X0103016Y0378786D01*
X0102417Y0379384D02*
X0100183Y0379384D01*
X0100400Y0379983D02*
X0102200Y0379983D01*
X0102200Y0380581D02*
X0100400Y0380581D01*
X0100400Y0381180D02*
X0102200Y0381180D01*
X0102200Y0381779D02*
X0100400Y0381779D01*
X0100400Y0382377D02*
X0102200Y0382377D01*
X0102200Y0382976D02*
X0100400Y0382976D01*
X0099824Y0383574D02*
X0102776Y0383574D01*
X0103374Y0384173D02*
X0099226Y0384173D01*
X0098627Y0384771D02*
X0103973Y0384771D01*
X0104571Y0385370D02*
X0098029Y0385370D01*
X0098562Y0387764D02*
X0104038Y0387764D01*
X0103440Y0388362D02*
X0099160Y0388362D01*
X0099759Y0388961D02*
X0102841Y0388961D01*
X0102243Y0389559D02*
X0100357Y0389559D01*
X0100400Y0390158D02*
X0102200Y0390158D01*
X0102200Y0390756D02*
X0100400Y0390756D01*
X0100400Y0391355D02*
X0102200Y0391355D01*
X0102200Y0391953D02*
X0100400Y0391953D01*
X0100400Y0392552D02*
X0102200Y0392552D01*
X0102352Y0393150D02*
X0100248Y0393150D01*
X0099650Y0393749D02*
X0102950Y0393749D01*
X0109650Y0393749D02*
X0112950Y0393749D01*
X0112352Y0393150D02*
X0110248Y0393150D01*
X0110400Y0392552D02*
X0112200Y0392552D01*
X0112200Y0391953D02*
X0110400Y0391953D01*
X0110400Y0391355D02*
X0112200Y0391355D01*
X0112200Y0390756D02*
X0110400Y0390756D01*
X0110400Y0390158D02*
X0112200Y0390158D01*
X0112243Y0389559D02*
X0110357Y0389559D01*
X0109759Y0388961D02*
X0112841Y0388961D01*
X0113440Y0388362D02*
X0109160Y0388362D01*
X0108562Y0387764D02*
X0114038Y0387764D01*
X0114571Y0385370D02*
X0108029Y0385370D01*
X0108627Y0384771D02*
X0113973Y0384771D01*
X0113374Y0384173D02*
X0109226Y0384173D01*
X0109824Y0383574D02*
X0112776Y0383574D01*
X0112200Y0382976D02*
X0110400Y0382976D01*
X0110400Y0382377D02*
X0112200Y0382377D01*
X0112200Y0381779D02*
X0110400Y0381779D01*
X0110400Y0381180D02*
X0112200Y0381180D01*
X0112200Y0380581D02*
X0110400Y0380581D01*
X0110400Y0379983D02*
X0112200Y0379983D01*
X0112417Y0379384D02*
X0110183Y0379384D01*
X0109584Y0378786D02*
X0113016Y0378786D01*
X0118029Y0385370D02*
X0124571Y0385370D01*
X0123973Y0384771D02*
X0118627Y0384771D01*
X0119226Y0384173D02*
X0123374Y0384173D01*
X0122776Y0383574D02*
X0119824Y0383574D01*
X0120400Y0382976D02*
X0122200Y0382976D01*
X0122200Y0382377D02*
X0120400Y0382377D01*
X0120400Y0381779D02*
X0122200Y0381779D01*
X0122200Y0381180D02*
X0120400Y0381180D01*
X0120400Y0380581D02*
X0122200Y0380581D01*
X0122200Y0379983D02*
X0120400Y0379983D01*
X0120183Y0379384D02*
X0122417Y0379384D01*
X0123016Y0378786D02*
X0119584Y0378786D01*
X0118562Y0387764D02*
X0124038Y0387764D01*
X0123440Y0388362D02*
X0119160Y0388362D01*
X0119759Y0388961D02*
X0122841Y0388961D01*
X0122243Y0389559D02*
X0120357Y0389559D01*
X0120400Y0390158D02*
X0122200Y0390158D01*
X0122200Y0390756D02*
X0120400Y0390756D01*
X0120400Y0391355D02*
X0122200Y0391355D01*
X0122200Y0391953D02*
X0120400Y0391953D01*
X0120400Y0392552D02*
X0122200Y0392552D01*
X0122352Y0393150D02*
X0120248Y0393150D01*
X0119650Y0393749D02*
X0122950Y0393749D01*
X0129650Y0393749D02*
X0132950Y0393749D01*
X0132352Y0393150D02*
X0130248Y0393150D01*
X0130400Y0392552D02*
X0132200Y0392552D01*
X0132200Y0391953D02*
X0130400Y0391953D01*
X0130400Y0391355D02*
X0132200Y0391355D01*
X0132200Y0390756D02*
X0130400Y0390756D01*
X0130400Y0390158D02*
X0132200Y0390158D01*
X0132243Y0389559D02*
X0130357Y0389559D01*
X0129759Y0388961D02*
X0132841Y0388961D01*
X0133440Y0388362D02*
X0129160Y0388362D01*
X0128562Y0387764D02*
X0134038Y0387764D01*
X0134571Y0385370D02*
X0128029Y0385370D01*
X0128627Y0384771D02*
X0133973Y0384771D01*
X0133374Y0384173D02*
X0129226Y0384173D01*
X0129824Y0383574D02*
X0132776Y0383574D01*
X0132200Y0382976D02*
X0130400Y0382976D01*
X0130400Y0382377D02*
X0132200Y0382377D01*
X0132200Y0381779D02*
X0130400Y0381779D01*
X0130400Y0381180D02*
X0132200Y0381180D01*
X0132200Y0380581D02*
X0130400Y0380581D01*
X0130400Y0379983D02*
X0132200Y0379983D01*
X0132417Y0379384D02*
X0130183Y0379384D01*
X0129584Y0378786D02*
X0133016Y0378786D01*
X0138029Y0385370D02*
X0144571Y0385370D01*
X0143973Y0384771D02*
X0138627Y0384771D01*
X0139226Y0384173D02*
X0143374Y0384173D01*
X0142776Y0383574D02*
X0139824Y0383574D01*
X0140400Y0382976D02*
X0142200Y0382976D01*
X0142200Y0382377D02*
X0140400Y0382377D01*
X0140400Y0381779D02*
X0142200Y0381779D01*
X0142200Y0381180D02*
X0140400Y0381180D01*
X0140400Y0380581D02*
X0142200Y0380581D01*
X0142200Y0379983D02*
X0140400Y0379983D01*
X0140183Y0379384D02*
X0142417Y0379384D01*
X0143016Y0378786D02*
X0139584Y0378786D01*
X0138562Y0387764D02*
X0144038Y0387764D01*
X0143440Y0388362D02*
X0139160Y0388362D01*
X0139759Y0388961D02*
X0142841Y0388961D01*
X0142243Y0389559D02*
X0140357Y0389559D01*
X0140400Y0390158D02*
X0142200Y0390158D01*
X0142200Y0390756D02*
X0140400Y0390756D01*
X0140400Y0391355D02*
X0142200Y0391355D01*
X0142200Y0391953D02*
X0140400Y0391953D01*
X0140400Y0392552D02*
X0142200Y0392552D01*
X0142352Y0393150D02*
X0140248Y0393150D01*
X0139650Y0393749D02*
X0142950Y0393749D01*
X0149650Y0393749D02*
X0152668Y0393749D01*
X0152069Y0393150D02*
X0150248Y0393150D01*
X0150400Y0392552D02*
X0152000Y0392552D01*
X0152000Y0391953D02*
X0150400Y0391953D01*
X0150400Y0391355D02*
X0156000Y0391355D01*
X0156000Y0391000D02*
X0152000Y0391000D01*
X0152000Y0389519D01*
X0154519Y0387000D01*
X0156000Y0387000D01*
X0156000Y0391000D01*
X0156000Y0390756D02*
X0156600Y0390756D01*
X0156600Y0391000D02*
X0156600Y0387000D01*
X0158081Y0387000D01*
X0160600Y0389519D01*
X0160600Y0391000D01*
X0156600Y0391000D01*
X0156600Y0391355D02*
X0166000Y0391355D01*
X0166000Y0391000D02*
X0162000Y0391000D01*
X0162000Y0389519D01*
X0164519Y0387000D01*
X0166000Y0387000D01*
X0166000Y0391000D01*
X0166000Y0390756D02*
X0166600Y0390756D01*
X0166600Y0391000D02*
X0166600Y0387000D01*
X0168081Y0387000D01*
X0170600Y0389519D01*
X0170600Y0391000D01*
X0166600Y0391000D01*
X0166600Y0391355D02*
X0172200Y0391355D01*
X0172200Y0391953D02*
X0170600Y0391953D01*
X0170600Y0392552D02*
X0172200Y0392552D01*
X0172352Y0393150D02*
X0170531Y0393150D01*
X0169932Y0393749D02*
X0172950Y0393749D01*
X0172200Y0390756D02*
X0170600Y0390756D01*
X0170600Y0390158D02*
X0172200Y0390158D01*
X0172243Y0389559D02*
X0170600Y0389559D01*
X0170042Y0388961D02*
X0172841Y0388961D01*
X0173440Y0388362D02*
X0169443Y0388362D01*
X0168845Y0387764D02*
X0174038Y0387764D01*
X0174571Y0385370D02*
X0168029Y0385370D01*
X0168627Y0384771D02*
X0173973Y0384771D01*
X0173374Y0384173D02*
X0169226Y0384173D01*
X0169824Y0383574D02*
X0172776Y0383574D01*
X0172200Y0382976D02*
X0170400Y0382976D01*
X0170400Y0382377D02*
X0172200Y0382377D01*
X0172200Y0381779D02*
X0170400Y0381779D01*
X0170400Y0381180D02*
X0172200Y0381180D01*
X0172200Y0380581D02*
X0170400Y0380581D01*
X0170400Y0379983D02*
X0172200Y0379983D01*
X0172417Y0379384D02*
X0170183Y0379384D01*
X0169584Y0378786D02*
X0173016Y0378786D01*
X0178627Y0384771D02*
X0183973Y0384771D01*
X0184571Y0385370D02*
X0178029Y0385370D01*
X0179226Y0384173D02*
X0183374Y0384173D01*
X0182776Y0383574D02*
X0179824Y0383574D01*
X0180400Y0382976D02*
X0182200Y0382976D01*
X0182200Y0382377D02*
X0180400Y0382377D01*
X0180400Y0381779D02*
X0182200Y0381779D01*
X0182200Y0381180D02*
X0180400Y0381180D01*
X0180400Y0380581D02*
X0182200Y0380581D01*
X0182200Y0379983D02*
X0180400Y0379983D01*
X0180183Y0379384D02*
X0182417Y0379384D01*
X0183016Y0378786D02*
X0179584Y0378786D01*
X0178562Y0387764D02*
X0184038Y0387764D01*
X0183440Y0388362D02*
X0179160Y0388362D01*
X0179759Y0388961D02*
X0182841Y0388961D01*
X0182243Y0389559D02*
X0180357Y0389559D01*
X0180400Y0390158D02*
X0182200Y0390158D01*
X0182200Y0390756D02*
X0180400Y0390756D01*
X0180400Y0391355D02*
X0182200Y0391355D01*
X0182200Y0391953D02*
X0180400Y0391953D01*
X0180400Y0392552D02*
X0182200Y0392552D01*
X0182352Y0393150D02*
X0180248Y0393150D01*
X0179650Y0393749D02*
X0182950Y0393749D01*
X0189650Y0393749D02*
X0192668Y0393749D01*
X0192069Y0393150D02*
X0190248Y0393150D01*
X0190400Y0392552D02*
X0192000Y0392552D01*
X0192000Y0391953D02*
X0190400Y0391953D01*
X0190400Y0391355D02*
X0196000Y0391355D01*
X0196000Y0391000D02*
X0192000Y0391000D01*
X0192000Y0389519D01*
X0194519Y0387000D01*
X0196000Y0387000D01*
X0196000Y0391000D01*
X0196000Y0390756D02*
X0196600Y0390756D01*
X0196600Y0391000D02*
X0196600Y0387000D01*
X0198081Y0387000D01*
X0200600Y0389519D01*
X0200600Y0391000D01*
X0196600Y0391000D01*
X0196600Y0391355D02*
X0202200Y0391355D01*
X0202200Y0391953D02*
X0200600Y0391953D01*
X0200600Y0392552D02*
X0202200Y0392552D01*
X0202352Y0393150D02*
X0200531Y0393150D01*
X0199932Y0393749D02*
X0202950Y0393749D01*
X0202200Y0390756D02*
X0200600Y0390756D01*
X0200600Y0390158D02*
X0202200Y0390158D01*
X0202243Y0389559D02*
X0200600Y0389559D01*
X0200042Y0388961D02*
X0202841Y0388961D01*
X0203440Y0388362D02*
X0199443Y0388362D01*
X0198845Y0387764D02*
X0204038Y0387764D01*
X0204571Y0385370D02*
X0198029Y0385370D01*
X0198627Y0384771D02*
X0203973Y0384771D01*
X0203374Y0384173D02*
X0199226Y0384173D01*
X0199824Y0383574D02*
X0202776Y0383574D01*
X0202200Y0382976D02*
X0200400Y0382976D01*
X0200400Y0382377D02*
X0202200Y0382377D01*
X0202200Y0381779D02*
X0200400Y0381779D01*
X0200400Y0381180D02*
X0202200Y0381180D01*
X0202200Y0380581D02*
X0200400Y0380581D01*
X0200400Y0379983D02*
X0202200Y0379983D01*
X0202263Y0379384D02*
X0200183Y0379384D01*
X0199584Y0378786D02*
X0201665Y0378786D01*
X0203513Y0376392D02*
X0318686Y0376392D01*
X0318438Y0376990D02*
X0204112Y0376990D01*
X0202915Y0375793D02*
X0319023Y0375793D01*
X0318400Y0377589D02*
X0318387Y0377589D01*
X0320400Y0381180D02*
X0322200Y0381180D01*
X0322200Y0381779D02*
X0320400Y0381779D01*
X0320400Y0382377D02*
X0322200Y0382377D01*
X0322200Y0382976D02*
X0320400Y0382976D01*
X0319824Y0383574D02*
X0322776Y0383574D01*
X0323374Y0384173D02*
X0319226Y0384173D01*
X0318627Y0384771D02*
X0323973Y0384771D01*
X0324571Y0385370D02*
X0318029Y0385370D01*
X0314571Y0385370D02*
X0308029Y0385370D01*
X0307998Y0385400D02*
X0304602Y0385400D01*
X0302200Y0382998D01*
X0302200Y0379602D01*
X0304602Y0377200D01*
X0307998Y0377200D01*
X0310400Y0379602D01*
X0310400Y0382998D01*
X0307998Y0385400D01*
X0308627Y0384771D02*
X0313973Y0384771D01*
X0313374Y0384173D02*
X0309226Y0384173D01*
X0309824Y0383574D02*
X0312776Y0383574D01*
X0312200Y0382976D02*
X0310400Y0382976D01*
X0310400Y0382377D02*
X0312200Y0382377D01*
X0312200Y0381779D02*
X0310400Y0381779D01*
X0310400Y0381180D02*
X0312200Y0381180D01*
X0312200Y0380581D02*
X0310400Y0380581D01*
X0310400Y0379983D02*
X0312200Y0379983D01*
X0312417Y0379384D02*
X0310183Y0379384D01*
X0309584Y0378786D02*
X0313016Y0378786D01*
X0313614Y0378187D02*
X0308986Y0378187D01*
X0308387Y0377589D02*
X0314213Y0377589D01*
X0323379Y0375195D02*
X0358421Y0375195D01*
X0359126Y0374596D02*
X0008600Y0374596D01*
X0008600Y0373998D02*
X0373200Y0373998D01*
X0373200Y0373399D02*
X0008600Y0373399D01*
X0008600Y0372801D02*
X0373200Y0372801D01*
X0372882Y0374596D02*
X0362274Y0374596D01*
X0362979Y0375195D02*
X0370284Y0375195D01*
X0369685Y0375793D02*
X0363431Y0375793D01*
X0363679Y0376392D02*
X0369087Y0376392D01*
X0368488Y0376990D02*
X0363800Y0376990D01*
X0363800Y0377589D02*
X0364213Y0377589D01*
X0362200Y0380581D02*
X0360400Y0380581D01*
X0360400Y0381180D02*
X0362200Y0381180D01*
X0362200Y0381779D02*
X0360400Y0381779D01*
X0360400Y0382377D02*
X0362200Y0382377D01*
X0362200Y0382976D02*
X0360400Y0382976D01*
X0359824Y0383574D02*
X0362776Y0383574D01*
X0363374Y0384173D02*
X0359226Y0384173D01*
X0358627Y0384771D02*
X0363973Y0384771D01*
X0364571Y0385370D02*
X0358029Y0385370D01*
X0354571Y0385370D02*
X0348029Y0385370D01*
X0348627Y0384771D02*
X0353973Y0384771D01*
X0353374Y0384173D02*
X0349226Y0384173D01*
X0349824Y0383574D02*
X0352776Y0383574D01*
X0352200Y0382976D02*
X0350400Y0382976D01*
X0350400Y0382377D02*
X0352200Y0382377D01*
X0352200Y0381779D02*
X0350400Y0381779D01*
X0350400Y0381180D02*
X0352200Y0381180D01*
X0352200Y0380581D02*
X0350400Y0380581D01*
X0350400Y0379983D02*
X0352200Y0379983D01*
X0352417Y0379384D02*
X0350183Y0379384D01*
X0349584Y0378786D02*
X0353016Y0378786D01*
X0354038Y0387764D02*
X0348562Y0387764D01*
X0349160Y0388362D02*
X0353440Y0388362D01*
X0352841Y0388961D02*
X0349759Y0388961D01*
X0350357Y0389559D02*
X0352243Y0389559D01*
X0352200Y0390158D02*
X0350400Y0390158D01*
X0350400Y0390756D02*
X0352200Y0390756D01*
X0352200Y0391355D02*
X0350400Y0391355D01*
X0350400Y0391953D02*
X0352200Y0391953D01*
X0352200Y0392552D02*
X0350400Y0392552D01*
X0350248Y0393150D02*
X0352352Y0393150D01*
X0352950Y0393749D02*
X0349650Y0393749D01*
X0359650Y0393749D02*
X0362668Y0393749D01*
X0362069Y0393150D02*
X0360248Y0393150D01*
X0360400Y0392552D02*
X0362000Y0392552D01*
X0334571Y0385370D02*
X0328029Y0385370D01*
X0328627Y0384771D02*
X0333973Y0384771D01*
X0333374Y0384173D02*
X0329226Y0384173D01*
X0329824Y0383574D02*
X0332776Y0383574D01*
X0332200Y0382976D02*
X0330400Y0382976D01*
X0330400Y0382377D02*
X0332200Y0382377D01*
X0332200Y0381779D02*
X0330400Y0381779D01*
X0330400Y0381180D02*
X0332200Y0381180D01*
X0332200Y0380581D02*
X0330400Y0380581D01*
X0330400Y0379983D02*
X0332200Y0379983D01*
X0332417Y0379384D02*
X0330183Y0379384D01*
X0329584Y0378786D02*
X0333016Y0378786D01*
X0304213Y0377589D02*
X0298387Y0377589D01*
X0297998Y0377200D02*
X0300400Y0379602D01*
X0300400Y0382998D01*
X0297998Y0385400D01*
X0294602Y0385400D01*
X0292200Y0382998D01*
X0292200Y0379602D01*
X0294602Y0377200D01*
X0297998Y0377200D01*
X0298986Y0378187D02*
X0303614Y0378187D01*
X0303016Y0378786D02*
X0299584Y0378786D01*
X0300183Y0379384D02*
X0302417Y0379384D01*
X0302200Y0379983D02*
X0300400Y0379983D01*
X0300400Y0380581D02*
X0302200Y0380581D01*
X0302200Y0381180D02*
X0300400Y0381180D01*
X0300400Y0381779D02*
X0302200Y0381779D01*
X0302200Y0382377D02*
X0300400Y0382377D01*
X0300400Y0382976D02*
X0302200Y0382976D01*
X0302776Y0383574D02*
X0299824Y0383574D01*
X0299226Y0384173D02*
X0303374Y0384173D01*
X0303973Y0384771D02*
X0298627Y0384771D01*
X0298029Y0385370D02*
X0304571Y0385370D01*
X0294571Y0385370D02*
X0288029Y0385370D01*
X0287998Y0385400D02*
X0284602Y0385400D01*
X0282200Y0382998D01*
X0282200Y0379602D01*
X0284602Y0377200D01*
X0287998Y0377200D01*
X0290400Y0379602D01*
X0290400Y0382998D01*
X0287998Y0385400D01*
X0288627Y0384771D02*
X0293973Y0384771D01*
X0293374Y0384173D02*
X0289226Y0384173D01*
X0289824Y0383574D02*
X0292776Y0383574D01*
X0292200Y0382976D02*
X0290400Y0382976D01*
X0290400Y0382377D02*
X0292200Y0382377D01*
X0292200Y0381779D02*
X0290400Y0381779D01*
X0290400Y0381180D02*
X0292200Y0381180D01*
X0292200Y0380581D02*
X0290400Y0380581D01*
X0290400Y0379983D02*
X0292200Y0379983D01*
X0292417Y0379384D02*
X0290183Y0379384D01*
X0289584Y0378786D02*
X0293016Y0378786D01*
X0293614Y0378187D02*
X0288986Y0378187D01*
X0288387Y0377589D02*
X0294213Y0377589D01*
X0284213Y0377589D02*
X0278387Y0377589D01*
X0277998Y0377200D02*
X0280400Y0379602D01*
X0280400Y0382998D01*
X0277998Y0385400D01*
X0274602Y0385400D01*
X0272200Y0382998D01*
X0272200Y0379602D01*
X0274602Y0377200D01*
X0277998Y0377200D01*
X0278986Y0378187D02*
X0283614Y0378187D01*
X0283016Y0378786D02*
X0279584Y0378786D01*
X0280183Y0379384D02*
X0282417Y0379384D01*
X0282200Y0379983D02*
X0280400Y0379983D01*
X0280400Y0380581D02*
X0282200Y0380581D01*
X0282200Y0381180D02*
X0280400Y0381180D01*
X0280400Y0381779D02*
X0282200Y0381779D01*
X0282200Y0382377D02*
X0280400Y0382377D01*
X0280400Y0382976D02*
X0282200Y0382976D01*
X0282776Y0383574D02*
X0279824Y0383574D01*
X0279226Y0384173D02*
X0283374Y0384173D01*
X0283973Y0384771D02*
X0278627Y0384771D01*
X0278029Y0385370D02*
X0284571Y0385370D01*
X0274571Y0385370D02*
X0268029Y0385370D01*
X0267998Y0385400D02*
X0264602Y0385400D01*
X0262200Y0382998D01*
X0262200Y0379602D01*
X0264602Y0377200D01*
X0267998Y0377200D01*
X0270400Y0379602D01*
X0270400Y0382998D01*
X0267998Y0385400D01*
X0268627Y0384771D02*
X0273973Y0384771D01*
X0273374Y0384173D02*
X0269226Y0384173D01*
X0269824Y0383574D02*
X0272776Y0383574D01*
X0272200Y0382976D02*
X0270400Y0382976D01*
X0270400Y0382377D02*
X0272200Y0382377D01*
X0272200Y0381779D02*
X0270400Y0381779D01*
X0270400Y0381180D02*
X0272200Y0381180D01*
X0272200Y0380581D02*
X0270400Y0380581D01*
X0270400Y0379983D02*
X0272200Y0379983D01*
X0272417Y0379384D02*
X0270183Y0379384D01*
X0269584Y0378786D02*
X0273016Y0378786D01*
X0273614Y0378187D02*
X0268986Y0378187D01*
X0268387Y0377589D02*
X0274213Y0377589D01*
X0264213Y0377589D02*
X0258387Y0377589D01*
X0257998Y0377200D02*
X0260400Y0379602D01*
X0260400Y0382998D01*
X0257998Y0385400D01*
X0254602Y0385400D01*
X0252200Y0382998D01*
X0252200Y0379602D01*
X0254602Y0377200D01*
X0257998Y0377200D01*
X0258986Y0378187D02*
X0263614Y0378187D01*
X0263016Y0378786D02*
X0259584Y0378786D01*
X0260183Y0379384D02*
X0262417Y0379384D01*
X0262200Y0379983D02*
X0260400Y0379983D01*
X0260400Y0380581D02*
X0262200Y0380581D01*
X0262200Y0381180D02*
X0260400Y0381180D01*
X0260400Y0381779D02*
X0262200Y0381779D01*
X0262200Y0382377D02*
X0260400Y0382377D01*
X0260400Y0382976D02*
X0262200Y0382976D01*
X0262776Y0383574D02*
X0259824Y0383574D01*
X0259226Y0384173D02*
X0263374Y0384173D01*
X0263973Y0384771D02*
X0258627Y0384771D01*
X0258029Y0385370D02*
X0264571Y0385370D01*
X0254571Y0385370D02*
X0248029Y0385370D01*
X0247998Y0385400D02*
X0244602Y0385400D01*
X0242200Y0382998D01*
X0242200Y0379602D01*
X0244602Y0377200D01*
X0247998Y0377200D01*
X0250400Y0379602D01*
X0250400Y0382998D01*
X0247998Y0385400D01*
X0248627Y0384771D02*
X0253973Y0384771D01*
X0253374Y0384173D02*
X0249226Y0384173D01*
X0249824Y0383574D02*
X0252776Y0383574D01*
X0252200Y0382976D02*
X0250400Y0382976D01*
X0250400Y0382377D02*
X0252200Y0382377D01*
X0252200Y0381779D02*
X0250400Y0381779D01*
X0250400Y0381180D02*
X0252200Y0381180D01*
X0252200Y0380581D02*
X0250400Y0380581D01*
X0250400Y0379983D02*
X0252200Y0379983D01*
X0252417Y0379384D02*
X0250183Y0379384D01*
X0249584Y0378786D02*
X0253016Y0378786D01*
X0253614Y0378187D02*
X0248986Y0378187D01*
X0248387Y0377589D02*
X0254213Y0377589D01*
X0244571Y0385370D02*
X0238029Y0385370D01*
X0237998Y0385400D02*
X0234602Y0385400D01*
X0232200Y0382998D01*
X0232200Y0379602D01*
X0234602Y0377200D01*
X0237998Y0377200D01*
X0240400Y0379602D01*
X0240400Y0382998D01*
X0237998Y0385400D01*
X0238627Y0384771D02*
X0243973Y0384771D01*
X0243374Y0384173D02*
X0239226Y0384173D01*
X0239824Y0383574D02*
X0242776Y0383574D01*
X0242200Y0382976D02*
X0240400Y0382976D01*
X0240400Y0382377D02*
X0242200Y0382377D01*
X0242200Y0381779D02*
X0240400Y0381779D01*
X0240400Y0381180D02*
X0242200Y0381180D01*
X0242200Y0380581D02*
X0240400Y0380581D01*
X0240400Y0379983D02*
X0242200Y0379983D01*
X0242417Y0379384D02*
X0240183Y0379384D01*
X0239584Y0378786D02*
X0243016Y0378786D01*
X0243614Y0378187D02*
X0238986Y0378187D01*
X0238387Y0377589D02*
X0244213Y0377589D01*
X0234213Y0377589D02*
X0228387Y0377589D01*
X0227998Y0377200D02*
X0230400Y0379602D01*
X0230400Y0382998D01*
X0227998Y0385400D01*
X0224602Y0385400D01*
X0222200Y0382998D01*
X0222200Y0379602D01*
X0224602Y0377200D01*
X0227998Y0377200D01*
X0228986Y0378187D02*
X0233614Y0378187D01*
X0233016Y0378786D02*
X0229584Y0378786D01*
X0230183Y0379384D02*
X0232417Y0379384D01*
X0232200Y0379983D02*
X0230400Y0379983D01*
X0230400Y0380581D02*
X0232200Y0380581D01*
X0232200Y0381180D02*
X0230400Y0381180D01*
X0230400Y0381779D02*
X0232200Y0381779D01*
X0232200Y0382377D02*
X0230400Y0382377D01*
X0230400Y0382976D02*
X0232200Y0382976D01*
X0232776Y0383574D02*
X0229824Y0383574D01*
X0229226Y0384173D02*
X0233374Y0384173D01*
X0233973Y0384771D02*
X0228627Y0384771D01*
X0228029Y0385370D02*
X0234571Y0385370D01*
X0224571Y0385370D02*
X0218029Y0385370D01*
X0218627Y0384771D02*
X0223973Y0384771D01*
X0223374Y0384173D02*
X0219226Y0384173D01*
X0219824Y0383574D02*
X0222776Y0383574D01*
X0222200Y0382976D02*
X0220400Y0382976D01*
X0220400Y0382377D02*
X0222200Y0382377D01*
X0222200Y0381779D02*
X0220400Y0381779D01*
X0220400Y0381180D02*
X0222200Y0381180D01*
X0222200Y0380581D02*
X0220400Y0380581D01*
X0220400Y0379983D02*
X0222200Y0379983D01*
X0222417Y0379384D02*
X0220183Y0379384D01*
X0219584Y0378786D02*
X0223016Y0378786D01*
X0223614Y0378187D02*
X0218986Y0378187D01*
X0218387Y0377589D02*
X0224213Y0377589D01*
X0214213Y0377589D02*
X0208387Y0377589D01*
X0208986Y0378187D02*
X0213614Y0378187D01*
X0213016Y0378786D02*
X0209584Y0378786D01*
X0210183Y0379384D02*
X0212417Y0379384D01*
X0212200Y0379983D02*
X0210400Y0379983D01*
X0210400Y0380581D02*
X0212200Y0380581D01*
X0212200Y0381180D02*
X0210400Y0381180D01*
X0210400Y0381779D02*
X0212200Y0381779D01*
X0210856Y0382377D02*
X0210400Y0382377D01*
X0215000Y0385400D02*
X0215000Y0385400D01*
X0212841Y0388362D02*
X0212608Y0388362D01*
X0212841Y0388961D02*
X0209759Y0388961D01*
X0210357Y0389559D02*
X0212243Y0389559D01*
X0212200Y0390158D02*
X0210400Y0390158D01*
X0210400Y0390756D02*
X0212200Y0390756D01*
X0212200Y0391355D02*
X0210400Y0391355D01*
X0210400Y0391953D02*
X0212200Y0391953D01*
X0212200Y0392552D02*
X0210400Y0392552D01*
X0210248Y0393150D02*
X0212352Y0393150D01*
X0212950Y0393749D02*
X0209650Y0393749D01*
X0209160Y0388362D02*
X0211192Y0388362D01*
X0209980Y0387764D02*
X0208562Y0387764D01*
X0209381Y0387165D02*
X0198246Y0387165D01*
X0196600Y0387165D02*
X0196000Y0387165D01*
X0196000Y0387764D02*
X0196600Y0387764D01*
X0196600Y0388362D02*
X0196000Y0388362D01*
X0196000Y0388961D02*
X0196600Y0388961D01*
X0196600Y0389559D02*
X0196000Y0389559D01*
X0196000Y0390158D02*
X0196600Y0390158D01*
X0193755Y0387764D02*
X0188562Y0387764D01*
X0189160Y0388362D02*
X0193157Y0388362D01*
X0192558Y0388961D02*
X0189759Y0388961D01*
X0190357Y0389559D02*
X0192000Y0389559D01*
X0192000Y0390158D02*
X0190400Y0390158D01*
X0190400Y0390756D02*
X0192000Y0390756D01*
X0194354Y0387165D02*
X0168246Y0387165D01*
X0166600Y0387165D02*
X0166000Y0387165D01*
X0166000Y0387764D02*
X0166600Y0387764D01*
X0166600Y0388362D02*
X0166000Y0388362D01*
X0166000Y0388961D02*
X0166600Y0388961D01*
X0166600Y0389559D02*
X0166000Y0389559D01*
X0166000Y0390158D02*
X0166600Y0390158D01*
X0163755Y0387764D02*
X0158845Y0387764D01*
X0159443Y0388362D02*
X0163157Y0388362D01*
X0162558Y0388961D02*
X0160042Y0388961D01*
X0160600Y0389559D02*
X0162000Y0389559D01*
X0162000Y0390158D02*
X0160600Y0390158D01*
X0160600Y0390756D02*
X0162000Y0390756D01*
X0162000Y0391953D02*
X0160600Y0391953D01*
X0160600Y0392552D02*
X0162000Y0392552D01*
X0162069Y0393150D02*
X0160531Y0393150D01*
X0159932Y0393749D02*
X0162668Y0393749D01*
X0164354Y0387165D02*
X0158246Y0387165D01*
X0156600Y0387165D02*
X0156000Y0387165D01*
X0156000Y0387764D02*
X0156600Y0387764D01*
X0156600Y0388362D02*
X0156000Y0388362D01*
X0156000Y0388961D02*
X0156600Y0388961D01*
X0156600Y0389559D02*
X0156000Y0389559D01*
X0156000Y0390158D02*
X0156600Y0390158D01*
X0153755Y0387764D02*
X0148562Y0387764D01*
X0149160Y0388362D02*
X0153157Y0388362D01*
X0152558Y0388961D02*
X0149759Y0388961D01*
X0150357Y0389559D02*
X0152000Y0389559D01*
X0152000Y0390158D02*
X0150400Y0390158D01*
X0150400Y0390756D02*
X0152000Y0390756D01*
X0154354Y0387165D02*
X0088246Y0387165D01*
X0086600Y0387165D02*
X0086000Y0387165D01*
X0086000Y0387764D02*
X0086600Y0387764D01*
X0086600Y0388362D02*
X0086000Y0388362D01*
X0086000Y0388961D02*
X0086600Y0388961D01*
X0086600Y0389559D02*
X0086000Y0389559D01*
X0086000Y0390158D02*
X0086600Y0390158D01*
X0084354Y0387165D02*
X0068246Y0387165D01*
X0066600Y0387165D02*
X0066000Y0387165D01*
X0066000Y0387764D02*
X0066600Y0387764D01*
X0066600Y0388362D02*
X0066000Y0388362D01*
X0066000Y0388961D02*
X0066600Y0388961D01*
X0066600Y0389559D02*
X0066000Y0389559D01*
X0066000Y0390158D02*
X0066600Y0390158D01*
X0062000Y0392552D02*
X0060400Y0392552D01*
X0060248Y0393150D02*
X0062069Y0393150D01*
X0062668Y0393749D02*
X0059650Y0393749D01*
X0054038Y0387764D02*
X0048562Y0387764D01*
X0049160Y0388362D02*
X0053440Y0388362D01*
X0052841Y0388961D02*
X0049759Y0388961D01*
X0050357Y0389559D02*
X0052243Y0389559D01*
X0052200Y0390158D02*
X0050400Y0390158D01*
X0050400Y0390756D02*
X0052200Y0390756D01*
X0052200Y0391355D02*
X0050400Y0391355D01*
X0050400Y0391953D02*
X0052200Y0391953D01*
X0052200Y0392552D02*
X0050400Y0392552D01*
X0050248Y0393150D02*
X0052352Y0393150D01*
X0052950Y0393749D02*
X0049650Y0393749D01*
X0042950Y0393749D02*
X0039650Y0393749D01*
X0040248Y0393150D02*
X0042352Y0393150D01*
X0042200Y0392552D02*
X0040400Y0392552D01*
X0040400Y0391953D02*
X0042200Y0391953D01*
X0042200Y0391355D02*
X0040400Y0391355D01*
X0040400Y0390756D02*
X0042200Y0390756D01*
X0042200Y0390158D02*
X0040400Y0390158D01*
X0040357Y0389559D02*
X0042243Y0389559D01*
X0041839Y0388961D02*
X0039759Y0388961D01*
X0039160Y0388362D02*
X0041241Y0388362D01*
X0040642Y0387764D02*
X0038562Y0387764D01*
X0034038Y0387764D02*
X0024850Y0387764D01*
X0024850Y0387165D02*
X0034044Y0387165D01*
X0033445Y0386567D02*
X0024850Y0386567D01*
X0024850Y0385968D02*
X0032847Y0385968D01*
X0032248Y0385370D02*
X0024850Y0385370D01*
X0024850Y0384771D02*
X0031650Y0384771D01*
X0031051Y0384173D02*
X0024673Y0384173D01*
X0024425Y0383574D02*
X0030453Y0383574D01*
X0030000Y0382976D02*
X0024177Y0382976D01*
X0023929Y0382377D02*
X0030000Y0382377D01*
X0030000Y0381779D02*
X0023682Y0381779D01*
X0023272Y0381180D02*
X0030000Y0381180D01*
X0030000Y0380581D02*
X0022673Y0380581D01*
X0022074Y0379983D02*
X0029399Y0379983D01*
X0028842Y0379384D02*
X0021476Y0379384D01*
X0020502Y0378786D02*
X0028594Y0378786D01*
X0028400Y0378187D02*
X0019057Y0378187D01*
X0013543Y0378187D02*
X0008600Y0378187D01*
X0008600Y0377589D02*
X0028400Y0377589D01*
X0028438Y0376990D02*
X0008600Y0376990D01*
X0008600Y0376392D02*
X0028686Y0376392D01*
X0029023Y0375793D02*
X0008600Y0375793D01*
X0008600Y0375195D02*
X0029621Y0375195D01*
X0027300Y0364422D02*
X0025220Y0364422D01*
X0024621Y0363823D02*
X0026702Y0363823D01*
X0026103Y0363225D02*
X0024023Y0363225D01*
X0023424Y0362626D02*
X0025505Y0362626D01*
X0024906Y0362028D02*
X0013109Y0362028D01*
X0013081Y0362000D02*
X0015600Y0364519D01*
X0015600Y0366000D01*
X0011600Y0366000D01*
X0011600Y0362000D01*
X0013081Y0362000D01*
X0013707Y0362626D02*
X0019176Y0362626D01*
X0018577Y0363225D02*
X0014306Y0363225D01*
X0014904Y0363823D02*
X0017979Y0363823D01*
X0017380Y0364422D02*
X0015503Y0364422D01*
X0015600Y0365020D02*
X0017200Y0365020D01*
X0017200Y0365619D02*
X0015600Y0365619D01*
X0017200Y0366217D02*
X0011600Y0366217D01*
X0011600Y0365619D02*
X0011000Y0365619D01*
X0011000Y0365020D02*
X0011600Y0365020D01*
X0011600Y0364422D02*
X0011000Y0364422D01*
X0011000Y0363823D02*
X0011600Y0363823D01*
X0011600Y0363225D02*
X0011000Y0363225D01*
X0011000Y0362626D02*
X0011600Y0362626D01*
X0011600Y0362028D02*
X0011000Y0362028D01*
X0009491Y0362028D02*
X0008600Y0362028D01*
X0008600Y0362626D02*
X0008893Y0362626D01*
X0008600Y0361429D02*
X0024308Y0361429D01*
X0023709Y0360831D02*
X0008600Y0360831D01*
X0008600Y0360232D02*
X0009434Y0360232D01*
X0008835Y0359634D02*
X0008600Y0359634D01*
X0013166Y0360232D02*
X0019434Y0360232D01*
X0018835Y0359634D02*
X0013765Y0359634D01*
X0014363Y0359035D02*
X0018237Y0359035D01*
X0017638Y0358437D02*
X0014962Y0358437D01*
X0015400Y0357838D02*
X0017200Y0357838D01*
X0017200Y0357240D02*
X0015400Y0357240D01*
X0015400Y0356641D02*
X0017200Y0356641D01*
X0017200Y0356043D02*
X0015400Y0356043D01*
X0015400Y0355444D02*
X0017200Y0355444D01*
X0017200Y0354845D02*
X0015400Y0354845D01*
X0015474Y0354247D02*
X0017555Y0354247D01*
X0018153Y0353648D02*
X0016073Y0353648D01*
X0011600Y0366816D02*
X0011000Y0366816D01*
X0011000Y0367414D02*
X0011600Y0367414D01*
X0011600Y0368013D02*
X0011000Y0368013D01*
X0011000Y0368611D02*
X0011600Y0368611D01*
X0011600Y0369210D02*
X0011000Y0369210D01*
X0011000Y0369808D02*
X0011600Y0369808D01*
X0011600Y0370407D02*
X0011000Y0370407D01*
X0009326Y0370407D02*
X0008600Y0370407D01*
X0008600Y0371005D02*
X0013485Y0371005D01*
X0013820Y0371604D02*
X0008600Y0371604D01*
X0008600Y0372202D02*
X0014418Y0372202D01*
X0018182Y0372202D02*
X0204006Y0372202D01*
X0206194Y0372202D02*
X0210681Y0372202D01*
X0210083Y0371604D02*
X0207180Y0371604D01*
X0207749Y0371005D02*
X0209484Y0371005D01*
X0208885Y0370407D02*
X0207997Y0370407D01*
X0208200Y0369808D02*
X0208287Y0369808D01*
X0193016Y0378786D02*
X0189584Y0378786D01*
X0190183Y0379384D02*
X0192417Y0379384D01*
X0192200Y0379983D02*
X0190400Y0379983D01*
X0190400Y0380581D02*
X0192200Y0380581D01*
X0192200Y0381180D02*
X0190400Y0381180D01*
X0190400Y0381779D02*
X0192200Y0381779D01*
X0192200Y0382377D02*
X0190400Y0382377D01*
X0190400Y0382976D02*
X0192200Y0382976D01*
X0192776Y0383574D02*
X0189824Y0383574D01*
X0189226Y0384173D02*
X0193374Y0384173D01*
X0193973Y0384771D02*
X0188627Y0384771D01*
X0188029Y0385370D02*
X0194571Y0385370D01*
X0164571Y0385370D02*
X0158029Y0385370D01*
X0158627Y0384771D02*
X0163973Y0384771D01*
X0163374Y0384173D02*
X0159226Y0384173D01*
X0159824Y0383574D02*
X0162776Y0383574D01*
X0162200Y0382976D02*
X0160400Y0382976D01*
X0160400Y0382377D02*
X0162200Y0382377D01*
X0162200Y0381779D02*
X0160400Y0381779D01*
X0160400Y0381180D02*
X0162200Y0381180D01*
X0162200Y0380581D02*
X0160400Y0380581D01*
X0160400Y0379983D02*
X0162200Y0379983D01*
X0162417Y0379384D02*
X0160183Y0379384D01*
X0159584Y0378786D02*
X0163016Y0378786D01*
X0153016Y0378786D02*
X0149584Y0378786D01*
X0150183Y0379384D02*
X0152417Y0379384D01*
X0152200Y0379983D02*
X0150400Y0379983D01*
X0150400Y0380581D02*
X0152200Y0380581D01*
X0152200Y0381180D02*
X0150400Y0381180D01*
X0150400Y0381779D02*
X0152200Y0381779D01*
X0152200Y0382377D02*
X0150400Y0382377D01*
X0150400Y0382976D02*
X0152200Y0382976D01*
X0152776Y0383574D02*
X0149824Y0383574D01*
X0149226Y0384173D02*
X0153374Y0384173D01*
X0153973Y0384771D02*
X0148627Y0384771D01*
X0148029Y0385370D02*
X0154571Y0385370D01*
X0082668Y0393749D02*
X0079650Y0393749D01*
X0080248Y0393150D02*
X0082069Y0393150D01*
X0082000Y0392552D02*
X0080400Y0392552D01*
X0080400Y0391953D02*
X0082000Y0391953D01*
X0064571Y0385370D02*
X0058029Y0385370D01*
X0058627Y0384771D02*
X0063973Y0384771D01*
X0063374Y0384173D02*
X0059226Y0384173D01*
X0059824Y0383574D02*
X0062776Y0383574D01*
X0062200Y0382976D02*
X0060400Y0382976D01*
X0060400Y0382377D02*
X0062200Y0382377D01*
X0062200Y0381779D02*
X0060400Y0381779D01*
X0060400Y0381180D02*
X0062200Y0381180D01*
X0062200Y0380581D02*
X0060400Y0380581D01*
X0060400Y0379983D02*
X0062200Y0379983D01*
X0062417Y0379384D02*
X0060183Y0379384D01*
X0059584Y0378786D02*
X0063016Y0378786D01*
X0053016Y0378786D02*
X0049584Y0378786D01*
X0050183Y0379384D02*
X0052417Y0379384D01*
X0052200Y0379983D02*
X0050400Y0379983D01*
X0050400Y0380581D02*
X0052200Y0380581D01*
X0052200Y0381180D02*
X0050400Y0381180D01*
X0050400Y0381779D02*
X0052200Y0381779D01*
X0052200Y0382377D02*
X0050400Y0382377D01*
X0050400Y0382976D02*
X0052200Y0382976D01*
X0052776Y0383574D02*
X0049824Y0383574D01*
X0049226Y0384173D02*
X0053374Y0384173D01*
X0053973Y0384771D02*
X0048627Y0384771D01*
X0048029Y0385370D02*
X0054571Y0385370D01*
X0033440Y0388362D02*
X0024700Y0388362D01*
X0024452Y0388961D02*
X0032841Y0388961D01*
X0032243Y0389559D02*
X0024204Y0389559D01*
X0023957Y0390158D02*
X0032200Y0390158D01*
X0032200Y0390756D02*
X0023709Y0390756D01*
X0023337Y0391355D02*
X0032200Y0391355D01*
X0032200Y0391953D02*
X0022738Y0391953D01*
X0022140Y0392552D02*
X0032200Y0392552D01*
X0032352Y0393150D02*
X0021541Y0393150D01*
X0020659Y0393749D02*
X0032950Y0393749D01*
X0012098Y0378786D02*
X0008600Y0378786D01*
X0008600Y0379384D02*
X0011124Y0379384D01*
X0010525Y0379983D02*
X0008600Y0379983D01*
X0008600Y0380581D02*
X0009927Y0380581D01*
X0009328Y0381180D02*
X0008600Y0381180D01*
X0008600Y0381779D02*
X0008918Y0381779D01*
X0008670Y0382377D02*
X0008600Y0382377D01*
X0008600Y0369808D02*
X0008727Y0369808D01*
X0016121Y0209000D02*
X0018202Y0209000D01*
X0017200Y0207998D01*
X0017200Y0204602D01*
X0018202Y0203600D01*
X0018079Y0203600D01*
X0017573Y0203094D01*
X0017317Y0203200D01*
X0016083Y0203200D01*
X0014944Y0202728D01*
X0014072Y0201856D01*
X0013600Y0200717D01*
X0013600Y0200081D01*
X0013081Y0200600D01*
X0011600Y0200600D01*
X0011600Y0196600D01*
X0011000Y0196600D01*
X0011000Y0200600D01*
X0009519Y0200600D01*
X0008600Y0199681D01*
X0008600Y0203202D01*
X0009602Y0202200D01*
X0012998Y0202200D01*
X0015400Y0204602D01*
X0015400Y0207998D01*
X0015260Y0208138D01*
X0016121Y0209000D01*
X0015930Y0208809D02*
X0018010Y0208809D01*
X0017412Y0208210D02*
X0015332Y0208210D01*
X0015400Y0207612D02*
X0017200Y0207612D01*
X0017200Y0207013D02*
X0015400Y0207013D01*
X0015400Y0206415D02*
X0017200Y0206415D01*
X0017200Y0205816D02*
X0015400Y0205816D01*
X0015400Y0205218D02*
X0017200Y0205218D01*
X0017200Y0204619D02*
X0015400Y0204619D01*
X0014819Y0204021D02*
X0017781Y0204021D01*
X0017901Y0203422D02*
X0014220Y0203422D01*
X0013622Y0202824D02*
X0015175Y0202824D01*
X0014441Y0202225D02*
X0013023Y0202225D01*
X0013977Y0201627D02*
X0008600Y0201627D01*
X0008600Y0202225D02*
X0009577Y0202225D01*
X0008978Y0202824D02*
X0008600Y0202824D01*
X0008600Y0201028D02*
X0013729Y0201028D01*
X0013600Y0200430D02*
X0013252Y0200430D01*
X0011600Y0200430D02*
X0011000Y0200430D01*
X0011000Y0199831D02*
X0011600Y0199831D01*
X0011600Y0199233D02*
X0011000Y0199233D01*
X0011000Y0198634D02*
X0011600Y0198634D01*
X0011600Y0198036D02*
X0011000Y0198036D01*
X0011000Y0197437D02*
X0011600Y0197437D01*
X0011600Y0196839D02*
X0011000Y0196839D01*
X0011600Y0196600D02*
X0015600Y0196600D01*
X0015600Y0197200D01*
X0016083Y0197000D01*
X0017200Y0197000D01*
X0017200Y0194602D01*
X0018402Y0193400D01*
X0015430Y0193400D01*
X0014200Y0192170D01*
X0012430Y0190400D01*
X0009602Y0190400D01*
X0008600Y0189398D01*
X0008600Y0192919D01*
X0009519Y0192000D01*
X0011000Y0192000D01*
X0011000Y0196000D01*
X0011600Y0196000D01*
X0011600Y0196600D01*
X0011600Y0196240D02*
X0017200Y0196240D01*
X0017200Y0196839D02*
X0015600Y0196839D01*
X0015600Y0196000D02*
X0011600Y0196000D01*
X0011600Y0192000D01*
X0013081Y0192000D01*
X0015600Y0194519D01*
X0015600Y0196000D01*
X0015600Y0195641D02*
X0017200Y0195641D01*
X0017200Y0195043D02*
X0015600Y0195043D01*
X0015526Y0194444D02*
X0017357Y0194444D01*
X0017956Y0193846D02*
X0014927Y0193846D01*
X0015278Y0193247D02*
X0014329Y0193247D01*
X0014679Y0192649D02*
X0013730Y0192649D01*
X0014081Y0192050D02*
X0013132Y0192050D01*
X0013482Y0191452D02*
X0008600Y0191452D01*
X0008600Y0192050D02*
X0009468Y0192050D01*
X0008870Y0192649D02*
X0008600Y0192649D01*
X0008600Y0190853D02*
X0012884Y0190853D01*
X0011600Y0192050D02*
X0011000Y0192050D01*
X0011000Y0192649D02*
X0011600Y0192649D01*
X0011600Y0193247D02*
X0011000Y0193247D01*
X0011000Y0193846D02*
X0011600Y0193846D01*
X0011600Y0194444D02*
X0011000Y0194444D01*
X0011000Y0195043D02*
X0011600Y0195043D01*
X0011600Y0195641D02*
X0011000Y0195641D01*
X0008750Y0199831D02*
X0008600Y0199831D01*
X0008600Y0200430D02*
X0009348Y0200430D01*
X0009457Y0190255D02*
X0008600Y0190255D01*
X0008600Y0189656D02*
X0008858Y0189656D01*
X0015400Y0187262D02*
X0017200Y0187262D01*
X0017200Y0186664D02*
X0015400Y0186664D01*
X0015400Y0186065D02*
X0017200Y0186065D01*
X0017200Y0185467D02*
X0015400Y0185467D01*
X0015400Y0184868D02*
X0017200Y0184868D01*
X0017532Y0184270D02*
X0015068Y0184270D01*
X0014470Y0183671D02*
X0018130Y0183671D01*
X0018729Y0183073D02*
X0013871Y0183073D01*
X0013273Y0182474D02*
X0019327Y0182474D01*
X0019602Y0180400D02*
X0017200Y0177998D01*
X0017200Y0174602D01*
X0019602Y0172200D01*
X0022998Y0172200D01*
X0025400Y0174602D01*
X0025400Y0177998D01*
X0022998Y0180400D01*
X0019602Y0180400D01*
X0019282Y0180080D02*
X0013318Y0180080D01*
X0013917Y0179482D02*
X0018683Y0179482D01*
X0018085Y0178883D02*
X0014515Y0178883D01*
X0015114Y0178285D02*
X0017486Y0178285D01*
X0017200Y0177686D02*
X0015400Y0177686D01*
X0015400Y0177088D02*
X0017200Y0177088D01*
X0017200Y0176489D02*
X0015400Y0176489D01*
X0015400Y0175891D02*
X0017200Y0175891D01*
X0017200Y0175292D02*
X0015400Y0175292D01*
X0015400Y0174694D02*
X0017200Y0174694D01*
X0017707Y0174095D02*
X0014893Y0174095D01*
X0014295Y0173497D02*
X0018305Y0173497D01*
X0018904Y0172898D02*
X0013696Y0172898D01*
X0013098Y0172300D02*
X0019502Y0172300D01*
X0019107Y0169905D02*
X0013776Y0169905D01*
X0014374Y0169307D02*
X0018509Y0169307D01*
X0017910Y0168708D02*
X0014973Y0168708D01*
X0015571Y0168110D02*
X0017312Y0168110D01*
X0017200Y0167511D02*
X0015600Y0167511D01*
X0015600Y0168081D02*
X0013081Y0170600D01*
X0011600Y0170600D01*
X0011600Y0166600D01*
X0015600Y0166600D01*
X0015600Y0168081D01*
X0015600Y0166913D02*
X0017200Y0166913D01*
X0017200Y0166314D02*
X0011600Y0166314D01*
X0011600Y0166000D02*
X0015600Y0166000D01*
X0015600Y0164519D01*
X0017283Y0164519D01*
X0017200Y0165117D02*
X0015600Y0165117D01*
X0015600Y0164519D02*
X0013081Y0162000D01*
X0011600Y0162000D01*
X0011600Y0166000D01*
X0011600Y0165716D02*
X0011000Y0165716D01*
X0011000Y0165117D02*
X0011600Y0165117D01*
X0011600Y0164519D02*
X0011000Y0164519D01*
X0011000Y0163920D02*
X0011600Y0163920D01*
X0011600Y0163322D02*
X0011000Y0163322D01*
X0011000Y0162723D02*
X0011600Y0162723D01*
X0011600Y0162125D02*
X0011000Y0162125D01*
X0009394Y0162125D02*
X0008600Y0162125D01*
X0008600Y0162723D02*
X0008796Y0162723D01*
X0008600Y0161526D02*
X0027514Y0161526D01*
X0027266Y0162125D02*
X0013206Y0162125D01*
X0013804Y0162723D02*
X0019078Y0162723D01*
X0018480Y0163322D02*
X0014403Y0163322D01*
X0015001Y0163920D02*
X0017881Y0163920D01*
X0017200Y0165716D02*
X0015600Y0165716D01*
X0011600Y0166913D02*
X0011000Y0166913D01*
X0011000Y0167511D02*
X0011600Y0167511D01*
X0011600Y0168110D02*
X0011000Y0168110D01*
X0011000Y0168708D02*
X0011600Y0168708D01*
X0011600Y0169307D02*
X0011000Y0169307D01*
X0011000Y0169905D02*
X0011600Y0169905D01*
X0011600Y0170504D02*
X0011000Y0170504D01*
X0009423Y0170504D02*
X0008600Y0170504D01*
X0008600Y0169905D02*
X0008824Y0169905D01*
X0008600Y0171103D02*
X0023981Y0171103D01*
X0024580Y0171701D02*
X0008600Y0171701D01*
X0008600Y0172300D02*
X0009502Y0172300D01*
X0008904Y0172898D02*
X0008600Y0172898D01*
X0013177Y0170504D02*
X0023383Y0170504D01*
X0023098Y0172300D02*
X0025178Y0172300D01*
X0025777Y0172898D02*
X0023696Y0172898D01*
X0024295Y0173497D02*
X0026375Y0173497D01*
X0026974Y0174095D02*
X0024893Y0174095D01*
X0025400Y0174694D02*
X0027572Y0174694D01*
X0028171Y0175292D02*
X0025400Y0175292D01*
X0025400Y0175891D02*
X0028769Y0175891D01*
X0030019Y0172898D02*
X0031114Y0172898D01*
X0030724Y0172300D02*
X0029421Y0172300D01*
X0028822Y0171701D02*
X0030476Y0171701D01*
X0030400Y0171103D02*
X0028224Y0171103D01*
X0027625Y0170504D02*
X0030400Y0170504D01*
X0030557Y0169905D02*
X0027027Y0169905D01*
X0026428Y0169307D02*
X0030804Y0169307D01*
X0031307Y0168708D02*
X0025830Y0168708D01*
X0025288Y0168110D02*
X0032135Y0168110D01*
X0032790Y0167511D02*
X0025400Y0167511D01*
X0025400Y0166913D02*
X0032192Y0166913D01*
X0031593Y0166314D02*
X0025400Y0166314D01*
X0025400Y0165716D02*
X0028998Y0165716D01*
X0028133Y0165117D02*
X0025400Y0165117D01*
X0025317Y0164519D02*
X0027615Y0164519D01*
X0027367Y0163920D02*
X0024719Y0163920D01*
X0024120Y0163322D02*
X0027200Y0163322D01*
X0027200Y0162723D02*
X0023522Y0162723D01*
X0022998Y0160400D02*
X0019602Y0160400D01*
X0017200Y0157998D01*
X0017200Y0154602D01*
X0019602Y0152200D01*
X0022998Y0152200D01*
X0025398Y0154600D01*
X0061166Y0154600D01*
X0061272Y0154344D01*
X0062144Y0153472D01*
X0063283Y0153000D01*
X0064517Y0153000D01*
X0065656Y0153472D01*
X0066528Y0154344D01*
X0067000Y0155483D01*
X0067000Y0156717D01*
X0066528Y0157856D01*
X0065656Y0158728D01*
X0064517Y0159200D01*
X0063283Y0159200D01*
X0062144Y0158728D01*
X0061272Y0157856D01*
X0061166Y0157600D01*
X0025400Y0157600D01*
X0025400Y0157998D01*
X0022998Y0160400D01*
X0023069Y0160329D02*
X0028487Y0160329D01*
X0027888Y0160928D02*
X0008600Y0160928D01*
X0008600Y0160329D02*
X0009248Y0160329D01*
X0008650Y0159731D02*
X0008600Y0159731D01*
X0011000Y0159731D02*
X0011600Y0159731D01*
X0011600Y0160329D02*
X0011000Y0160329D01*
X0011600Y0160600D02*
X0011600Y0156600D01*
X0015600Y0156600D01*
X0015600Y0158081D01*
X0013081Y0160600D01*
X0011600Y0160600D01*
X0011600Y0159132D02*
X0011000Y0159132D01*
X0011000Y0158534D02*
X0011600Y0158534D01*
X0011600Y0157935D02*
X0011000Y0157935D01*
X0011000Y0157337D02*
X0011600Y0157337D01*
X0011600Y0156738D02*
X0011000Y0156738D01*
X0011600Y0156140D02*
X0017200Y0156140D01*
X0017200Y0156738D02*
X0015600Y0156738D01*
X0015600Y0157337D02*
X0017200Y0157337D01*
X0017200Y0157935D02*
X0015600Y0157935D01*
X0015147Y0158534D02*
X0017736Y0158534D01*
X0018334Y0159132D02*
X0014549Y0159132D01*
X0013950Y0159731D02*
X0018933Y0159731D01*
X0019531Y0160329D02*
X0013352Y0160329D01*
X0011600Y0156000D02*
X0015600Y0156000D01*
X0015600Y0154519D01*
X0013081Y0152000D01*
X0011600Y0152000D01*
X0011600Y0156000D01*
X0011600Y0155541D02*
X0011000Y0155541D01*
X0011000Y0154943D02*
X0011600Y0154943D01*
X0011600Y0154344D02*
X0011000Y0154344D01*
X0011000Y0153746D02*
X0011600Y0153746D01*
X0011600Y0153147D02*
X0011000Y0153147D01*
X0011000Y0152549D02*
X0011600Y0152549D01*
X0013630Y0152549D02*
X0019253Y0152549D01*
X0018655Y0153147D02*
X0014228Y0153147D01*
X0014827Y0153746D02*
X0018056Y0153746D01*
X0017458Y0154344D02*
X0015425Y0154344D01*
X0015600Y0154943D02*
X0017200Y0154943D01*
X0017200Y0155541D02*
X0015600Y0155541D01*
X0016429Y0151950D02*
X0008600Y0151950D01*
X0008600Y0151352D02*
X0015830Y0151352D01*
X0015600Y0150753D02*
X0008600Y0150753D01*
X0008600Y0150155D02*
X0009356Y0150155D01*
X0008758Y0149556D02*
X0008600Y0149556D01*
X0008600Y0152549D02*
X0008970Y0152549D01*
X0013244Y0150155D02*
X0015600Y0150155D01*
X0015600Y0149556D02*
X0013842Y0149556D01*
X0014441Y0148958D02*
X0015600Y0148958D01*
X0015600Y0148359D02*
X0015039Y0148359D01*
X0015400Y0147761D02*
X0015600Y0147761D01*
X0015600Y0147162D02*
X0015400Y0147162D01*
X0015400Y0146564D02*
X0015600Y0146564D01*
X0015600Y0145965D02*
X0015400Y0145965D01*
X0015400Y0145367D02*
X0015600Y0145367D01*
X0015600Y0144768D02*
X0015400Y0144768D01*
X0015600Y0144170D02*
X0014968Y0144170D01*
X0014369Y0143571D02*
X0015908Y0143571D01*
X0016506Y0142972D02*
X0013771Y0142972D01*
X0013172Y0142374D02*
X0017105Y0142374D01*
X0014654Y0141775D02*
X0008600Y0141775D01*
X0008600Y0141177D02*
X0014056Y0141177D01*
X0013457Y0140578D02*
X0008600Y0140578D01*
X0008600Y0139980D02*
X0009182Y0139980D01*
X0009428Y0142374D02*
X0008600Y0142374D01*
X0008600Y0142972D02*
X0008829Y0142972D01*
X0023347Y0152549D02*
X0182800Y0152549D01*
X0182800Y0153147D02*
X0064872Y0153147D01*
X0065930Y0153746D02*
X0182895Y0153746D01*
X0183143Y0154344D02*
X0066528Y0154344D01*
X0066776Y0154943D02*
X0183559Y0154943D01*
X0184176Y0155541D02*
X0067000Y0155541D01*
X0067000Y0156140D02*
X0187018Y0156140D01*
X0187617Y0156738D02*
X0066991Y0156738D01*
X0066743Y0157337D02*
X0188215Y0157337D01*
X0188814Y0157935D02*
X0066449Y0157935D01*
X0065850Y0158534D02*
X0189412Y0158534D01*
X0190011Y0159132D02*
X0064680Y0159132D01*
X0063120Y0159132D02*
X0024266Y0159132D01*
X0024864Y0158534D02*
X0061950Y0158534D01*
X0061351Y0157935D02*
X0025400Y0157935D01*
X0023667Y0159731D02*
X0193147Y0159731D01*
X0193747Y0160329D02*
X0128913Y0160329D01*
X0125287Y0160329D02*
X0073713Y0160329D01*
X0074312Y0160928D02*
X0124688Y0160928D01*
X0124314Y0161526D02*
X0074686Y0161526D01*
X0074934Y0162125D02*
X0124066Y0162125D01*
X0124000Y0162723D02*
X0075000Y0162723D01*
X0075000Y0163322D02*
X0124000Y0163322D01*
X0124167Y0163920D02*
X0090104Y0163920D01*
X0090703Y0164519D02*
X0124415Y0164519D01*
X0124594Y0135790D02*
X0185069Y0135790D01*
X0182298Y0135192D02*
X0125037Y0135192D01*
X0125285Y0134593D02*
X0181609Y0134593D01*
X0188614Y0151352D02*
X0191830Y0151352D01*
X0192429Y0151950D02*
X0188862Y0151950D01*
X0190064Y0154943D02*
X0194056Y0154943D01*
X0193275Y0155541D02*
X0190663Y0155541D01*
X0191261Y0156140D02*
X0192791Y0156140D01*
X0096727Y0133396D02*
X0046564Y0133396D01*
X0046600Y0133995D02*
X0096021Y0133995D01*
X0095569Y0134593D02*
X0046600Y0134593D01*
X0046600Y0142972D02*
X0064906Y0142972D01*
X0064308Y0143571D02*
X0046600Y0143571D01*
X0049687Y0160329D02*
X0032113Y0160329D01*
X0032712Y0160928D02*
X0049088Y0160928D01*
X0048714Y0161526D02*
X0033086Y0161526D01*
X0033334Y0162125D02*
X0048466Y0162125D01*
X0048400Y0162723D02*
X0033400Y0162723D01*
X0033400Y0163322D02*
X0048400Y0163322D01*
X0046496Y0163920D02*
X0033442Y0163920D01*
X0034040Y0164519D02*
X0045897Y0164519D01*
X0045517Y0165117D02*
X0034639Y0165117D01*
X0035237Y0165716D02*
X0045269Y0165716D01*
X0045200Y0166314D02*
X0035836Y0166314D01*
X0036434Y0166913D02*
X0045200Y0166913D01*
X0045364Y0167511D02*
X0037033Y0167511D01*
X0037631Y0168110D02*
X0045611Y0168110D01*
X0046369Y0175891D02*
X0043831Y0175891D01*
X0046968Y0176489D02*
X0025400Y0176489D01*
X0025400Y0177088D02*
X0047566Y0177088D01*
X0048165Y0177686D02*
X0025400Y0177686D01*
X0025114Y0178285D02*
X0048763Y0178285D01*
X0049362Y0178883D02*
X0024515Y0178883D01*
X0023917Y0179482D02*
X0038134Y0179482D01*
X0037536Y0180080D02*
X0023318Y0180080D01*
X0023273Y0182474D02*
X0036800Y0182474D01*
X0036800Y0181876D02*
X0008600Y0181876D01*
X0008600Y0182474D02*
X0009327Y0182474D01*
X0008729Y0183073D02*
X0008600Y0183073D01*
X0008600Y0181277D02*
X0036885Y0181277D01*
X0037133Y0180679D02*
X0008600Y0180679D01*
X0008600Y0180080D02*
X0009282Y0180080D01*
X0008683Y0179482D02*
X0008600Y0179482D01*
X0015831Y0187861D02*
X0017200Y0187861D01*
X0017661Y0188459D02*
X0016429Y0188459D01*
X0017028Y0189058D02*
X0018260Y0189058D01*
X0023871Y0183073D02*
X0036948Y0183073D01*
X0037195Y0183671D02*
X0024470Y0183671D01*
X0025068Y0184270D02*
X0028549Y0184270D01*
X0027948Y0184868D02*
X0025400Y0184868D01*
X0025400Y0185467D02*
X0027538Y0185467D01*
X0027290Y0186065D02*
X0025400Y0186065D01*
X0025400Y0186664D02*
X0027200Y0186664D01*
X0027200Y0187262D02*
X0025400Y0187262D01*
X0025400Y0187861D02*
X0027343Y0187861D01*
X0027591Y0188459D02*
X0025581Y0188459D01*
X0032051Y0184270D02*
X0037686Y0184270D01*
X0038483Y0184868D02*
X0032652Y0184868D01*
X0033062Y0185467D02*
X0051600Y0185467D01*
X0051600Y0184868D02*
X0041317Y0184868D01*
X0042114Y0184270D02*
X0051771Y0184270D01*
X0052019Y0183671D02*
X0042605Y0183671D01*
X0042264Y0180080D02*
X0050559Y0180080D01*
X0049960Y0179482D02*
X0041666Y0179482D01*
X0033310Y0186065D02*
X0051662Y0186065D01*
X0051910Y0186664D02*
X0033400Y0186664D01*
X0053912Y0160928D02*
X0069488Y0160928D01*
X0070087Y0160329D02*
X0053313Y0160329D01*
X0061272Y0154344D02*
X0025142Y0154344D01*
X0024544Y0153746D02*
X0061870Y0153746D01*
X0062928Y0153147D02*
X0023945Y0153147D01*
X0074585Y0164519D02*
X0085897Y0164519D01*
X0086496Y0163920D02*
X0074833Y0163920D01*
X0386369Y0311753D02*
X0394000Y0311753D01*
X0394000Y0312351D02*
X0393432Y0312351D01*
X0394000Y0311154D02*
X0386967Y0311154D01*
X0387000Y0310556D02*
X0394000Y0310556D01*
X0394000Y0309957D02*
X0393441Y0309957D01*
X0391600Y0312351D02*
X0391000Y0312351D01*
X0391000Y0312950D02*
X0391600Y0312950D01*
X0391600Y0313548D02*
X0391000Y0313548D01*
X0391000Y0314147D02*
X0391600Y0314147D01*
X0391600Y0314745D02*
X0391000Y0314745D01*
X0391000Y0315344D02*
X0391600Y0315344D01*
X0391600Y0315942D02*
X0391000Y0315942D01*
X0393573Y0302775D02*
X0394000Y0302775D01*
X0391600Y0332102D02*
X0391000Y0332102D01*
X0386103Y0363225D02*
X0384023Y0363225D01*
X0384621Y0363823D02*
X0386702Y0363823D01*
X0387300Y0364422D02*
X0385220Y0364422D01*
X0385400Y0365020D02*
X0387200Y0365020D01*
X0387200Y0365619D02*
X0385400Y0365619D01*
X0385400Y0366217D02*
X0387200Y0366217D01*
X0387200Y0366816D02*
X0385400Y0366816D01*
X0385400Y0367414D02*
X0387200Y0367414D01*
X0387214Y0368013D02*
X0385386Y0368013D01*
X0384787Y0368611D02*
X0387813Y0368611D01*
X0388412Y0369210D02*
X0384188Y0369210D01*
X0383590Y0369808D02*
X0389010Y0369808D01*
X0393590Y0369808D02*
X0394000Y0369808D01*
X0394000Y0378786D02*
X0390502Y0378786D01*
X0391476Y0379384D02*
X0394000Y0379384D01*
X0394000Y0379983D02*
X0392074Y0379983D01*
X0392673Y0380581D02*
X0394000Y0380581D01*
X0394000Y0381180D02*
X0393272Y0381180D01*
X0393682Y0381779D02*
X0394000Y0381779D01*
X0394000Y0382377D02*
X0393929Y0382377D01*
D14*
X0391300Y0366300D02*
X0386300Y0361300D01*
X0343100Y0361300D01*
X0343100Y0366100D02*
X0381100Y0366100D01*
X0381300Y0366300D01*
X0374700Y0370100D02*
X0319100Y0370100D01*
X0318300Y0370900D01*
X0211500Y0370900D01*
X0206700Y0366100D01*
X0128300Y0366100D01*
X0126300Y0368100D01*
X0039900Y0368100D01*
X0038300Y0366500D01*
X0021500Y0366500D01*
X0021300Y0366300D01*
X0028300Y0363300D02*
X0021300Y0356300D01*
X0015500Y0352100D02*
X0011300Y0356300D01*
X0015500Y0352100D02*
X0035900Y0352100D01*
X0041500Y0346500D01*
X0037100Y0346100D02*
X0021500Y0346100D01*
X0021300Y0346300D01*
X0026300Y0339700D02*
X0027500Y0338500D01*
X0043100Y0338500D01*
X0066300Y0361700D01*
X0170700Y0361700D01*
X0173500Y0364500D01*
X0222700Y0364500D01*
X0225900Y0367700D01*
X0316700Y0367700D01*
X0322300Y0376900D02*
X0321500Y0377700D01*
X0322300Y0376900D02*
X0360300Y0376900D01*
X0360700Y0377300D01*
X0366300Y0381300D02*
X0371100Y0376500D01*
X0373100Y0376500D01*
X0374700Y0374900D01*
X0374700Y0370100D01*
X0381300Y0356300D02*
X0378700Y0353700D01*
X0359100Y0353700D01*
X0345900Y0340500D01*
X0230300Y0340500D01*
X0215900Y0326100D01*
X0142300Y0326100D01*
X0114300Y0326100D01*
X0112700Y0324500D01*
X0051500Y0324500D01*
X0049900Y0327700D02*
X0111100Y0327700D01*
X0111100Y0318500D02*
X0094300Y0318500D01*
X0091500Y0321300D01*
X0091100Y0316900D02*
X0086700Y0321300D01*
X0085100Y0315300D02*
X0022300Y0315300D01*
X0021300Y0316300D01*
X0017100Y0322100D02*
X0044300Y0322100D01*
X0049900Y0327700D01*
X0041500Y0341700D02*
X0037100Y0346100D01*
X0021500Y0336500D02*
X0021300Y0336300D01*
X0021500Y0336500D02*
X0161100Y0336500D01*
X0163500Y0338900D01*
X0223900Y0338900D01*
X0229500Y0337300D02*
X0213900Y0321700D01*
X0129100Y0321700D01*
X0121500Y0320500D02*
X0129100Y0312900D01*
X0139100Y0317700D02*
X0143900Y0312900D01*
X0247100Y0312900D01*
X0269100Y0312900D02*
X0275500Y0319300D01*
X0291500Y0334100D02*
X0299100Y0326500D01*
X0326300Y0326500D01*
X0381100Y0326500D01*
X0381300Y0326300D01*
X0387100Y0322100D02*
X0391300Y0326300D01*
X0387100Y0322100D02*
X0316300Y0322100D01*
X0307100Y0312900D01*
X0308700Y0309700D02*
X0106700Y0309700D01*
X0099500Y0316900D01*
X0091100Y0316900D01*
X0091500Y0313700D02*
X0097900Y0313700D01*
X0099900Y0313700D01*
X0105500Y0308100D01*
X0309500Y0308100D01*
X0311900Y0310500D01*
X0385500Y0310500D01*
X0385500Y0302100D01*
X0391300Y0296300D01*
X0387100Y0290500D02*
X0391300Y0286300D01*
X0387100Y0290500D02*
X0308700Y0290500D01*
X0306300Y0288100D01*
X0158700Y0288100D01*
X0157100Y0289700D01*
X0151900Y0286500D02*
X0381100Y0286500D01*
X0381300Y0286300D01*
X0376700Y0284900D02*
X0381100Y0280500D01*
X0387100Y0280500D01*
X0391300Y0276300D01*
X0387100Y0270500D02*
X0391300Y0266300D01*
X0387100Y0270500D02*
X0355900Y0270500D01*
X0343100Y0283300D01*
X0321500Y0283300D01*
X0313500Y0275300D01*
X0285900Y0275300D01*
X0281100Y0270500D01*
X0276300Y0270500D02*
X0275100Y0269300D01*
X0135500Y0269300D01*
X0133900Y0267700D01*
X0129500Y0263300D01*
X0024300Y0263300D01*
X0023100Y0262100D01*
X0015500Y0262100D01*
X0011300Y0266300D01*
X0011300Y0276300D02*
X0015500Y0280500D01*
X0021500Y0280500D01*
X0025900Y0284900D01*
X0108300Y0284900D01*
X0112700Y0280500D01*
X0112700Y0280900D01*
X0123100Y0280900D01*
X0125500Y0283300D01*
X0125900Y0291300D02*
X0129100Y0294500D01*
X0278300Y0294500D01*
X0279900Y0296100D01*
X0278300Y0299300D02*
X0283100Y0299300D01*
X0284700Y0297700D01*
X0284700Y0292900D02*
X0222700Y0292900D01*
X0222700Y0291300D01*
X0222700Y0292900D02*
X0148700Y0292900D01*
X0143900Y0288100D01*
X0029500Y0288100D01*
X0021300Y0296300D01*
X0017900Y0298900D02*
X0019500Y0300500D01*
X0093900Y0300500D01*
X0101500Y0292900D01*
X0111100Y0292900D01*
X0114300Y0289700D02*
X0115900Y0291300D01*
X0114300Y0289700D02*
X0095900Y0289700D01*
X0089900Y0295700D01*
X0081900Y0291300D02*
X0075900Y0297300D01*
X0073900Y0297300D01*
X0083500Y0310500D02*
X0015500Y0310500D01*
X0011300Y0306300D01*
X0016300Y0302100D02*
X0097100Y0302100D01*
X0103100Y0296100D01*
X0275100Y0296100D01*
X0278300Y0299300D01*
X0287900Y0283300D02*
X0291100Y0280100D01*
X0302300Y0280100D01*
X0305500Y0283300D01*
X0321500Y0283300D01*
X0313500Y0280100D02*
X0310300Y0276900D01*
X0161500Y0276900D01*
X0160300Y0275700D01*
X0092300Y0275700D01*
X0090700Y0272500D02*
X0165100Y0272500D01*
X0159500Y0277300D02*
X0163900Y0281700D01*
X0287100Y0281700D01*
X0290300Y0278500D01*
X0305500Y0278500D01*
X0307100Y0280100D01*
X0305500Y0289700D02*
X0299100Y0289700D01*
X0297500Y0291300D01*
X0303900Y0292900D02*
X0316500Y0305500D01*
X0316300Y0305700D01*
X0105500Y0305700D01*
X0101500Y0309700D01*
X0095100Y0309700D01*
X0094700Y0310100D01*
X0095100Y0306500D02*
X0100700Y0300900D01*
X0103100Y0300900D01*
X0106300Y0297700D01*
X0155100Y0297700D01*
X0158300Y0300900D01*
X0297500Y0300900D01*
X0297900Y0301300D01*
X0307900Y0292100D02*
X0305500Y0289700D01*
X0307900Y0292100D02*
X0377100Y0292100D01*
X0381300Y0296300D01*
X0381100Y0306100D02*
X0381300Y0306300D01*
X0381100Y0306100D02*
X0317100Y0306100D01*
X0316500Y0305500D01*
X0311100Y0312100D02*
X0308700Y0309700D01*
X0311100Y0312100D02*
X0377100Y0312100D01*
X0381300Y0316300D01*
X0375100Y0336100D02*
X0381100Y0342100D01*
X0387100Y0342100D01*
X0391300Y0346300D01*
X0387100Y0352100D02*
X0391300Y0356300D01*
X0387100Y0352100D02*
X0365500Y0352100D01*
X0359500Y0346100D01*
X0364300Y0346100D02*
X0357500Y0339300D01*
X0352700Y0342500D02*
X0347500Y0337300D01*
X0316700Y0337300D01*
X0229500Y0337300D01*
X0241900Y0357700D02*
X0242300Y0358100D01*
X0353100Y0358100D01*
X0355900Y0355300D01*
X0349500Y0354900D02*
X0343100Y0348500D01*
X0171500Y0348500D01*
X0174700Y0360900D02*
X0337900Y0360900D01*
X0343100Y0366100D01*
X0327900Y0364500D02*
X0227500Y0364500D01*
X0227100Y0364100D01*
X0241900Y0357700D02*
X0153500Y0357700D01*
X0151100Y0360100D01*
X0069500Y0360100D01*
X0064300Y0354900D01*
X0064300Y0350100D02*
X0071100Y0356900D01*
X0149500Y0356900D01*
X0146300Y0353300D02*
X0147900Y0351700D01*
X0253100Y0351700D01*
X0281100Y0345300D02*
X0145500Y0345300D01*
X0143500Y0343300D01*
X0083100Y0343300D01*
X0079500Y0339700D02*
X0124700Y0339700D01*
X0121500Y0348500D02*
X0145500Y0348500D01*
X0147100Y0342100D02*
X0282700Y0342100D01*
X0285900Y0345300D01*
X0341900Y0386900D02*
X0346300Y0391300D01*
X0341900Y0386900D02*
X0213500Y0386900D01*
X0211900Y0385300D01*
X0206300Y0381300D02*
X0201900Y0376900D01*
X0042300Y0376900D01*
X0041500Y0377700D01*
X0040700Y0385700D02*
X0034700Y0385700D01*
X0031500Y0382500D01*
X0031500Y0377700D01*
X0040700Y0385700D02*
X0046300Y0391300D01*
X0028300Y0363300D02*
X0075500Y0363300D01*
X0077100Y0364900D01*
X0124700Y0364900D01*
X0116300Y0353700D02*
X0121500Y0348500D01*
X0110700Y0353700D02*
X0103500Y0346500D01*
X0103100Y0346500D01*
X0079500Y0339700D02*
X0069100Y0350100D01*
X0080300Y0330900D02*
X0160300Y0330900D01*
X0165100Y0335700D01*
X0150300Y0304100D02*
X0102300Y0304100D01*
X0097900Y0306500D02*
X0095100Y0306500D01*
X0021500Y0306500D01*
X0021300Y0306300D01*
X0017900Y0298900D02*
X0013900Y0298900D01*
X0011300Y0296300D01*
X0021300Y0286300D02*
X0021500Y0286500D01*
X0147100Y0286500D01*
X0135900Y0283300D02*
X0287900Y0283300D01*
X0292700Y0283300D02*
X0294300Y0284900D01*
X0376700Y0284900D01*
X0381300Y0276300D02*
X0378700Y0273700D01*
X0357500Y0273700D01*
X0373100Y0254500D02*
X0381300Y0246300D01*
X0375500Y0247300D02*
X0374700Y0246500D01*
X0122700Y0246500D01*
X0122500Y0246700D01*
X0129100Y0253300D01*
X0124300Y0253300D02*
X0138300Y0267300D01*
X0337500Y0267300D01*
X0350700Y0251300D02*
X0347500Y0248100D01*
X0160300Y0248100D01*
X0158700Y0249700D01*
X0137500Y0249700D01*
X0134300Y0252900D01*
X0124300Y0253300D02*
X0057900Y0253300D01*
X0055900Y0250500D02*
X0056700Y0249700D01*
X0117500Y0249700D01*
X0119100Y0248100D01*
X0122500Y0246700D02*
X0119100Y0243300D01*
X0125500Y0266500D02*
X0031100Y0266500D01*
X0021300Y0276300D01*
X0027100Y0278100D02*
X0030300Y0274900D01*
X0065500Y0274900D01*
X0067500Y0272900D01*
X0054700Y0260100D02*
X0054300Y0259700D01*
X0031900Y0259700D01*
X0033900Y0269700D02*
X0088300Y0269700D01*
X0090700Y0272500D02*
X0086700Y0276500D01*
X0035500Y0276500D01*
X0030300Y0281700D01*
X0031900Y0271700D02*
X0033900Y0269700D01*
X0021500Y0256500D02*
X0021300Y0256300D01*
X0021500Y0256500D02*
X0067500Y0256500D01*
X0059900Y0246500D02*
X0021500Y0246500D01*
X0021300Y0246300D01*
X0021500Y0242100D02*
X0015500Y0242100D01*
X0011300Y0246300D01*
X0017100Y0250500D02*
X0011300Y0256300D01*
X0017100Y0250500D02*
X0055900Y0250500D01*
X0056300Y0243300D02*
X0080300Y0243300D01*
X0059100Y0220500D02*
X0040700Y0220500D01*
X0043500Y0226500D02*
X0021500Y0226500D01*
X0021300Y0226300D01*
X0015500Y0230500D02*
X0181500Y0230500D01*
X0185500Y0226500D01*
X0185500Y0226900D01*
X0185900Y0226900D01*
X0189900Y0230900D01*
X0235100Y0230900D01*
X0235500Y0231300D01*
X0238700Y0227700D02*
X0232900Y0221900D01*
X0233100Y0221700D01*
X0369100Y0221700D01*
X0372300Y0218500D01*
X0378300Y0223300D02*
X0379500Y0222100D01*
X0383100Y0222100D01*
X0385500Y0224500D01*
X0385500Y0236100D01*
X0381500Y0236100D01*
X0381300Y0236300D01*
X0385500Y0240500D02*
X0353900Y0240500D01*
X0370300Y0237300D02*
X0226300Y0237300D01*
X0225900Y0237700D01*
X0177900Y0237700D01*
X0168300Y0235300D02*
X0022300Y0235300D01*
X0021300Y0236300D01*
X0023500Y0240100D02*
X0021500Y0242100D01*
X0023500Y0240100D02*
X0151900Y0240100D01*
X0153500Y0238500D01*
X0153500Y0238900D01*
X0155500Y0240900D01*
X0239500Y0240900D01*
X0241900Y0243300D01*
X0241500Y0234500D02*
X0241900Y0234100D01*
X0241500Y0234500D02*
X0192700Y0234500D01*
X0191100Y0234500D01*
X0188700Y0232100D01*
X0015500Y0232100D01*
X0011300Y0236300D01*
X0015500Y0230500D02*
X0011300Y0226300D01*
X0021300Y0216300D02*
X0028700Y0223700D01*
X0171900Y0223700D01*
X0173100Y0224900D01*
X0182300Y0224900D01*
X0183900Y0223300D01*
X0204300Y0223300D01*
X0208700Y0227700D01*
X0202300Y0207300D02*
X0198700Y0203700D01*
X0191100Y0203700D01*
X0192300Y0202100D01*
X0185500Y0208900D01*
X0024700Y0208900D01*
X0023100Y0210500D01*
X0015500Y0210500D01*
X0011300Y0206300D01*
X0016700Y0200100D02*
X0018700Y0202100D01*
X0174700Y0202100D01*
X0173100Y0198900D02*
X0199100Y0198900D01*
X0199100Y0200500D01*
X0199100Y0198900D02*
X0234300Y0198900D01*
X0241500Y0206100D01*
X0381100Y0206100D01*
X0381300Y0206300D01*
X0379100Y0198500D02*
X0236300Y0198500D01*
X0235100Y0197300D01*
X0036700Y0197300D01*
X0036700Y0205300D02*
X0035900Y0206100D01*
X0021500Y0206100D01*
X0021300Y0206300D01*
X0025500Y0200500D02*
X0171500Y0200500D01*
X0173100Y0198900D01*
X0174700Y0194100D02*
X0170700Y0190100D01*
X0025100Y0190100D01*
X0021300Y0186300D01*
X0030300Y0186900D02*
X0031900Y0188500D01*
X0189100Y0188500D01*
X0191500Y0190900D01*
X0196700Y0190900D01*
X0198300Y0192500D01*
X0239900Y0192500D01*
X0242700Y0195300D01*
X0371900Y0195300D01*
X0376700Y0190500D01*
X0387100Y0190500D01*
X0391300Y0186300D01*
X0387100Y0192100D02*
X0391300Y0196300D01*
X0387100Y0192100D02*
X0377500Y0192100D01*
X0372700Y0196900D01*
X0237100Y0196900D01*
X0234300Y0194100D01*
X0192300Y0194100D01*
X0199100Y0190900D02*
X0193500Y0185300D01*
X0054700Y0185300D01*
X0056300Y0182100D02*
X0039900Y0182100D01*
X0042700Y0174900D02*
X0029900Y0174900D01*
X0021300Y0166300D01*
X0030300Y0162900D02*
X0037500Y0170100D01*
X0080300Y0170100D01*
X0183900Y0170100D01*
X0189100Y0175300D01*
X0347500Y0175300D01*
X0345900Y0172100D02*
X0387100Y0172100D01*
X0391300Y0176300D01*
X0387100Y0170500D02*
X0391300Y0166300D01*
X0387100Y0170500D02*
X0195500Y0170500D01*
X0192300Y0173700D02*
X0187500Y0168900D01*
X0185500Y0166100D02*
X0185900Y0165700D01*
X0265900Y0165700D01*
X0267500Y0167300D01*
X0357100Y0167300D01*
X0362700Y0163300D02*
X0269100Y0163300D01*
X0269100Y0164100D01*
X0269100Y0163300D02*
X0127500Y0163300D01*
X0127100Y0162900D01*
X0122300Y0133700D02*
X0123100Y0132900D01*
X0183900Y0132900D01*
X0183900Y0132500D01*
X0188300Y0136900D01*
X0260300Y0136900D01*
X0270700Y0136900D01*
X0277100Y0143300D01*
X0378300Y0143300D01*
X0379500Y0142100D01*
X0387100Y0142100D01*
X0391300Y0146300D01*
X0391300Y0136300D02*
X0387100Y0132100D01*
X0289500Y0132100D01*
X0303500Y0126100D02*
X0115900Y0126100D01*
X0115900Y0127700D01*
X0115900Y0126100D02*
X0070300Y0126100D01*
X0068700Y0127700D01*
X0065900Y0144100D02*
X0240300Y0144100D01*
X0241100Y0144900D01*
X0249900Y0144900D01*
X0254700Y0140100D01*
X0256300Y0146500D02*
X0195500Y0146500D01*
X0195500Y0147300D01*
X0195500Y0146500D02*
X0068300Y0146500D01*
X0067500Y0147300D01*
X0064700Y0145300D02*
X0065900Y0144100D01*
X0064700Y0145300D02*
X0022300Y0145300D01*
X0021300Y0146300D01*
X0024700Y0143700D02*
X0023100Y0142100D01*
X0019500Y0142100D01*
X0017100Y0144500D01*
X0017100Y0150500D01*
X0183500Y0150500D01*
X0184300Y0149700D01*
X0192300Y0149700D01*
X0193900Y0151300D01*
X0251500Y0151300D01*
X0256300Y0146500D02*
X0381100Y0146500D01*
X0381300Y0146300D01*
X0372300Y0149700D02*
X0365100Y0156900D01*
X0271500Y0156900D01*
X0273100Y0136900D02*
X0265500Y0129300D01*
X0245500Y0129300D01*
X0143900Y0129300D01*
X0121900Y0129300D01*
X0120300Y0130900D01*
X0018300Y0130900D01*
X0017100Y0132100D01*
X0021300Y0136300D02*
X0022300Y0137300D01*
X0043500Y0137300D01*
X0045100Y0138900D01*
X0045100Y0143700D01*
X0024700Y0143700D01*
X0015500Y0140500D02*
X0041900Y0140500D01*
X0045500Y0136100D02*
X0043500Y0134100D01*
X0045500Y0136100D02*
X0098300Y0136100D01*
X0108700Y0120500D02*
X0109500Y0119700D01*
X0130300Y0119700D01*
X0133100Y0106900D02*
X0271500Y0106900D01*
X0271900Y0107300D01*
X0269100Y0105300D02*
X0270700Y0103700D01*
X0313500Y0103700D01*
X0313500Y0110100D01*
X0313500Y0103700D02*
X0326300Y0103700D01*
X0335900Y0113300D01*
X0368300Y0113300D01*
X0379500Y0102100D01*
X0387100Y0102100D01*
X0391300Y0106300D01*
X0391300Y0116300D02*
X0388700Y0118900D01*
X0384700Y0118900D01*
X0383100Y0120500D01*
X0267500Y0120500D01*
X0266700Y0119700D01*
X0269100Y0122100D02*
X0268300Y0122900D01*
X0166300Y0122900D01*
X0159900Y0116500D01*
X0158300Y0122900D02*
X0024700Y0122900D01*
X0021300Y0126300D01*
X0017100Y0120500D02*
X0108700Y0120500D01*
X0106300Y0113300D02*
X0222700Y0113300D01*
X0222700Y0119700D01*
X0222700Y0113300D02*
X0262700Y0113300D01*
X0264300Y0114900D01*
X0372700Y0114900D01*
X0381300Y0106300D01*
X0381300Y0116300D02*
X0381100Y0116500D01*
X0234300Y0116500D01*
X0258700Y0103700D02*
X0260300Y0105300D01*
X0269100Y0105300D01*
X0268300Y0103700D02*
X0272300Y0099700D01*
X0278300Y0099700D01*
X0277100Y0106900D02*
X0270700Y0113300D01*
X0265100Y0113300D01*
X0263500Y0111700D01*
X0111500Y0111700D01*
X0109900Y0110100D01*
X0101500Y0110100D01*
X0100300Y0108900D01*
X0023900Y0108900D01*
X0021300Y0106300D01*
X0017100Y0102100D02*
X0018700Y0100500D01*
X0099900Y0100500D01*
X0116300Y0100500D01*
X0117900Y0102100D01*
X0259500Y0102100D01*
X0261100Y0103700D01*
X0268300Y0103700D01*
X0262700Y0100500D02*
X0118700Y0100500D01*
X0115500Y0097300D01*
X0098300Y0097300D01*
X0096700Y0098900D01*
X0049900Y0098900D01*
X0048300Y0097300D01*
X0041900Y0097300D02*
X0022300Y0097300D01*
X0021300Y0096300D01*
X0017100Y0090500D02*
X0079500Y0090500D01*
X0081900Y0086100D02*
X0065500Y0086100D01*
X0064300Y0087300D01*
X0063900Y0092100D02*
X0067500Y0095700D01*
X0063900Y0092100D02*
X0015500Y0092100D01*
X0011300Y0096300D01*
X0017100Y0090500D02*
X0017100Y0082100D01*
X0011300Y0076300D01*
X0015500Y0078100D02*
X0015500Y0072100D01*
X0021300Y0066300D01*
X0024300Y0073300D02*
X0119900Y0073300D01*
X0121500Y0074900D01*
X0323900Y0074900D01*
X0326300Y0072500D01*
X0328300Y0075300D02*
X0327100Y0076500D01*
X0076300Y0076500D01*
X0072300Y0068500D02*
X0163500Y0068500D01*
X0166700Y0071700D01*
X0316700Y0071700D01*
X0321500Y0066900D01*
X0329500Y0066900D01*
X0329500Y0066100D01*
X0329500Y0066900D02*
X0369100Y0066900D01*
X0369500Y0066500D01*
X0381100Y0066500D01*
X0381300Y0066300D01*
X0383900Y0062100D02*
X0357900Y0062100D01*
X0356700Y0063300D01*
X0360300Y0060100D02*
X0329900Y0060100D01*
X0324700Y0065300D01*
X0278300Y0065300D01*
X0276700Y0063700D01*
X0159500Y0063700D01*
X0159100Y0064100D01*
X0127500Y0064100D01*
X0127300Y0063900D01*
X0130700Y0060500D01*
X0127300Y0063900D02*
X0125900Y0065300D01*
X0123900Y0065300D01*
X0123900Y0071700D02*
X0067500Y0071700D01*
X0067500Y0066900D01*
X0069100Y0065300D01*
X0085500Y0065300D01*
X0090700Y0060100D01*
X0085100Y0050900D02*
X0179100Y0050900D01*
X0185500Y0044500D01*
X0323100Y0044500D01*
X0329500Y0050900D01*
X0326700Y0058500D02*
X0323100Y0062100D01*
X0326700Y0058500D02*
X0341900Y0058500D01*
X0346300Y0054100D01*
X0373500Y0054100D01*
X0381300Y0046300D01*
X0381100Y0042100D02*
X0383100Y0042100D01*
X0387100Y0046100D01*
X0387100Y0056100D01*
X0391100Y0056100D01*
X0391300Y0056300D01*
X0385500Y0060500D02*
X0383900Y0062100D01*
X0391300Y0066300D02*
X0385500Y0072100D01*
X0373500Y0072100D01*
X0370300Y0075300D01*
X0328300Y0075300D01*
X0324700Y0069300D02*
X0370700Y0069300D01*
X0371100Y0069700D01*
X0380700Y0076900D02*
X0381300Y0076300D01*
X0380700Y0076900D02*
X0339100Y0076900D01*
X0337500Y0078500D01*
X0336300Y0079700D01*
X0318300Y0079700D01*
X0320700Y0073300D02*
X0321700Y0072300D01*
X0321500Y0072100D01*
X0321500Y0071700D01*
X0321700Y0072300D02*
X0324700Y0069300D01*
X0320700Y0073300D02*
X0165900Y0073300D01*
X0164300Y0071700D01*
X0123900Y0071700D01*
X0119900Y0079700D02*
X0119900Y0080500D01*
X0019500Y0080500D01*
X0017100Y0078100D01*
X0015500Y0078100D01*
X0021300Y0076300D02*
X0024300Y0073300D01*
X0024700Y0082900D02*
X0021300Y0086300D01*
X0024700Y0082900D02*
X0086300Y0082900D01*
X0086300Y0095700D01*
X0093100Y0089300D02*
X0119500Y0089300D01*
X0125900Y0095700D01*
X0197900Y0095700D01*
X0200300Y0093300D01*
X0292300Y0093300D01*
X0299500Y0086100D01*
X0301100Y0082900D02*
X0295100Y0082900D01*
X0286300Y0091700D01*
X0199500Y0091700D01*
X0197100Y0094100D01*
X0126700Y0094100D01*
X0118700Y0086100D01*
X0089500Y0086100D01*
X0086300Y0082900D02*
X0276700Y0082900D01*
X0279900Y0079700D01*
X0310300Y0079700D01*
X0308700Y0082900D02*
X0332700Y0082900D01*
X0378700Y0082900D01*
X0381100Y0080500D01*
X0387100Y0080500D01*
X0391300Y0076300D01*
X0381300Y0086300D02*
X0381100Y0086100D01*
X0304300Y0086100D01*
X0301100Y0082900D01*
X0307100Y0081300D02*
X0294300Y0081300D01*
X0291100Y0084500D01*
X0166700Y0084500D01*
X0165100Y0086100D01*
X0155100Y0089300D02*
X0177900Y0089300D01*
X0193900Y0092500D02*
X0195500Y0090900D01*
X0193900Y0092500D02*
X0153500Y0092500D01*
X0147100Y0086100D01*
X0151900Y0086100D02*
X0155100Y0089300D01*
X0168300Y0068500D02*
X0169900Y0066900D01*
X0275100Y0066900D01*
X0279500Y0060500D02*
X0157900Y0060500D01*
X0157500Y0060900D01*
X0142700Y0058900D02*
X0142700Y0057300D01*
X0117500Y0057300D01*
X0112700Y0057300D02*
X0112300Y0056900D01*
X0068700Y0056900D01*
X0063900Y0052100D01*
X0015500Y0052100D01*
X0011300Y0056300D01*
X0015500Y0050500D02*
X0040300Y0050500D01*
X0041900Y0048900D01*
X0049500Y0036500D02*
X0171500Y0036500D01*
X0176300Y0031700D01*
X0187500Y0031700D02*
X0193900Y0038100D01*
X0200700Y0038100D01*
X0205500Y0033300D01*
X0205500Y0038100D02*
X0228300Y0038100D01*
X0234300Y0032100D01*
X0234300Y0031700D01*
X0237900Y0035300D01*
X0374300Y0035300D01*
X0381100Y0042100D01*
X0363100Y0057300D02*
X0360300Y0060100D01*
X0343900Y0054100D02*
X0354700Y0043300D01*
X0356300Y0038500D02*
X0340300Y0038500D01*
X0337500Y0041300D01*
X0194700Y0041300D01*
X0191500Y0038100D01*
X0080300Y0038100D01*
X0077900Y0040500D01*
X0015500Y0040500D01*
X0011300Y0036300D01*
X0011300Y0046300D02*
X0015500Y0050500D01*
X0021300Y0046300D02*
X0021900Y0045700D01*
X0059900Y0045700D01*
X0068300Y0054100D01*
X0141100Y0054100D01*
X0343900Y0054100D01*
X0340700Y0042900D02*
X0184700Y0042900D01*
X0183100Y0044500D01*
X0154700Y0044500D01*
X0153100Y0042900D01*
X0115900Y0042900D01*
X0114300Y0044500D01*
X0119100Y0047700D02*
X0103100Y0047700D01*
X0119100Y0047700D02*
X0120700Y0046100D01*
X0142700Y0057300D02*
X0229100Y0057300D01*
X0215500Y0047700D02*
X0212300Y0050900D01*
X0183900Y0050900D01*
X0198700Y0034900D02*
X0198700Y0028500D01*
X0029100Y0028500D01*
X0021300Y0036300D01*
X0041900Y0025300D02*
X0042300Y0025700D01*
X0191900Y0025700D01*
X0196300Y0021300D01*
X0198700Y0028500D02*
X0249500Y0028500D01*
X0252300Y0031300D01*
X0356300Y0031300D01*
X0366300Y0021300D01*
X0336300Y0021300D02*
X0331900Y0025700D01*
X0293900Y0025700D01*
X0291500Y0028100D01*
X0266300Y0021300D02*
X0260300Y0027300D01*
X0253100Y0027300D01*
X0230700Y0025300D02*
X0230300Y0025700D01*
X0211900Y0025700D01*
X0211900Y0020900D01*
X0207900Y0016900D01*
X0061900Y0016900D01*
X0056300Y0011300D01*
X0083100Y0031700D02*
X0084700Y0033300D01*
X0163900Y0033300D01*
X0156300Y0041300D02*
X0079500Y0041300D01*
X0069900Y0050900D01*
X0079900Y0045700D02*
X0085100Y0050900D01*
X0119900Y0080500D02*
X0274300Y0080500D01*
X0275100Y0079700D01*
X0261100Y0094900D02*
X0356700Y0094900D01*
X0356700Y0093300D01*
X0356700Y0094900D02*
X0376700Y0094900D01*
X0379500Y0092100D01*
X0387100Y0092100D01*
X0391300Y0096300D01*
X0381300Y0096300D02*
X0381100Y0096500D01*
X0261900Y0096500D01*
X0259500Y0098900D01*
X0119500Y0098900D01*
X0116300Y0095700D01*
X0099900Y0095700D01*
X0096700Y0092500D01*
X0101500Y0092500D02*
X0103100Y0094100D01*
X0119500Y0094100D01*
X0121900Y0094100D01*
X0125100Y0097300D01*
X0258700Y0097300D01*
X0261100Y0094900D01*
X0258700Y0103700D02*
X0109500Y0103700D01*
X0111500Y0106900D02*
X0103100Y0106900D01*
X0111500Y0106900D02*
X0114700Y0110100D01*
X0266700Y0110100D01*
X0269100Y0122100D02*
X0387100Y0122100D01*
X0391300Y0126300D02*
X0387100Y0130500D01*
X0368300Y0130500D01*
X0363100Y0125300D01*
X0361100Y0135300D02*
X0365900Y0140100D01*
X0369100Y0140100D01*
X0350700Y0140100D02*
X0347500Y0136900D01*
X0273100Y0136900D01*
X0236300Y0180500D02*
X0161900Y0180500D01*
X0053100Y0180500D01*
X0046700Y0174100D01*
X0043500Y0174100D01*
X0042700Y0174900D01*
X0035100Y0172500D02*
X0064300Y0172500D01*
X0065900Y0174100D01*
X0056300Y0182100D02*
X0057900Y0183700D01*
X0230300Y0183700D01*
X0373900Y0183700D01*
X0381300Y0176300D01*
X0381300Y0186300D02*
X0378700Y0188900D01*
X0231900Y0188900D01*
X0231500Y0189300D01*
X0210300Y0189300D01*
X0208700Y0187700D01*
X0199100Y0190900D02*
X0367900Y0190900D01*
X0369100Y0192100D01*
X0379100Y0198500D02*
X0381300Y0196300D01*
X0380300Y0215300D02*
X0182300Y0215300D01*
X0174700Y0221700D02*
X0232700Y0221700D01*
X0232900Y0221900D01*
X0243500Y0224900D02*
X0245100Y0223300D01*
X0378300Y0223300D01*
X0381300Y0226300D02*
X0370300Y0237300D01*
X0385500Y0240500D02*
X0385500Y0250500D01*
X0391300Y0256300D01*
X0385500Y0262100D02*
X0383900Y0260500D01*
X0308700Y0260500D01*
X0282700Y0254500D02*
X0281500Y0253300D01*
X0247900Y0253300D01*
X0246700Y0254500D01*
X0168300Y0254500D01*
X0158700Y0264100D01*
X0159500Y0277300D02*
X0111100Y0277300D01*
X0109500Y0278900D01*
X0084300Y0278900D01*
X0083500Y0279700D01*
X0080300Y0330900D02*
X0016700Y0330900D01*
X0011300Y0336300D01*
X0017100Y0322100D02*
X0011300Y0316300D01*
X0016300Y0369700D02*
X0017100Y0370500D01*
X0203900Y0370500D01*
X0205100Y0369300D01*
X0150300Y0304100D02*
X0153500Y0300900D01*
X0192700Y0257700D02*
X0210700Y0257700D01*
X0217100Y0264100D01*
X0249900Y0260100D02*
X0253900Y0264100D01*
X0379100Y0264100D01*
X0381300Y0266300D01*
X0381100Y0256500D02*
X0381300Y0256300D01*
X0381100Y0256500D02*
X0253100Y0256500D01*
X0282700Y0254500D02*
X0373100Y0254500D01*
X0381300Y0216300D02*
X0380300Y0215300D01*
X0343900Y0178500D02*
X0342700Y0177300D01*
X0054700Y0177300D01*
X0048300Y0166500D02*
X0048700Y0166100D01*
X0088300Y0166100D01*
X0088300Y0166500D01*
X0088300Y0166100D02*
X0185500Y0166100D01*
X0190700Y0157700D02*
X0195500Y0157700D01*
X0190700Y0157700D02*
X0185900Y0152900D01*
X0192300Y0173700D02*
X0344300Y0173700D01*
X0345900Y0172100D01*
X0362700Y0163300D02*
X0363900Y0162100D01*
X0383900Y0162100D01*
X0385500Y0160500D01*
X0381300Y0156300D02*
X0377500Y0160100D01*
X0361100Y0160100D01*
X0344300Y0110100D02*
X0351500Y0102900D01*
X0369500Y0102900D01*
X0359900Y0099700D02*
X0347900Y0099700D01*
X0337500Y0110100D01*
X0308700Y0082900D02*
X0307100Y0081300D01*
X0198700Y0116500D02*
X0195500Y0119700D01*
X0168300Y0119700D01*
X0144300Y0116500D02*
X0021500Y0116500D01*
X0021300Y0116300D01*
X0017100Y0112100D02*
X0095100Y0112100D01*
X0063900Y0156100D02*
X0021500Y0156100D01*
X0021300Y0156300D01*
X0015500Y0140500D02*
X0011300Y0136300D01*
X0011300Y0126300D02*
X0017100Y0120500D01*
X0017100Y0112100D02*
X0011300Y0106300D01*
X0051500Y0162900D02*
X0071900Y0162900D01*
X0035100Y0172500D02*
X0033500Y0170900D01*
X0021300Y0196300D02*
X0025500Y0200500D01*
X0037100Y0210500D02*
X0128700Y0210500D01*
X0130300Y0212100D01*
X0136700Y0218500D01*
X0263900Y0218500D01*
X0343100Y0329700D02*
X0349500Y0336100D01*
X0375100Y0336100D01*
X0381100Y0346100D02*
X0381300Y0346300D01*
X0381100Y0346100D02*
X0364300Y0346100D01*
X0065900Y0213700D02*
X0059100Y0220500D01*
X0043900Y0226900D02*
X0043500Y0226500D01*
X0028700Y0218900D02*
X0037100Y0210500D01*
M02*
