%
M48
M72
T01C0.02400
T02C0.04000
T03C0.12500
%
T01
X41900Y25300
X49500Y36500
X41900Y48900
X27100Y57300
X64300Y87300
X67500Y95700
X79500Y90500
X81900Y86100
X89500Y86100
X93100Y89300
X96700Y92500
X101500Y92500
X99900Y100500
X103100Y106900
X109500Y103700
X109900Y110100
X106300Y113300
X109500Y119700
X115900Y127700
X122300Y133700
X130300Y119700
X133100Y106900
X144300Y116500
X158300Y122900
X159900Y116500
X168300Y119700
X183900Y132500
X195500Y147300
X185900Y152900
X195500Y157700
X187500Y168900
X195500Y170500
X189100Y188500
X192300Y194100
X199100Y200500
X192300Y202100
X195900Y212100
X202300Y207300
X218700Y210500
X208700Y227700
X192700Y234500
X185500Y226500
X182300Y215300
X174700Y221700
X168300Y212100
X174700Y202100
X174700Y194100
X168300Y193300
X161900Y180500
X127100Y162900
X98300Y136100
X80300Y140100
X67500Y147300
X63900Y156100
X71900Y162900
X80300Y170100
X88300Y166500
X80300Y153700
X65900Y174100
X54700Y177300
X54700Y185300
X39900Y182100
X30300Y186900
X36700Y197300
X36700Y205300
X40700Y220500
X43900Y226900
X28700Y218900
X16700Y200100
X33500Y170900
X30300Y162900
X48300Y166500
X51500Y162900
X41900Y140500
X43500Y134100
X68700Y127700
X95100Y112100
X86300Y95700
X76300Y76500
X72300Y68500
X78700Y62100
X90700Y60100
X103100Y47700
X114300Y44500
X120700Y46100
X117500Y57300
X112700Y57300
X123900Y65300
X123900Y71700
X119900Y79700
X119500Y94100
X147100Y86100
X151900Y86100
X165100Y86100
X177900Y89300
X195500Y90900
X198700Y116500
X222700Y119700
X234300Y116500
X245500Y129300
X254700Y140100
X260300Y136900
X256300Y146500
X251500Y151300
X242700Y141700
X266700Y119700
X266700Y110100
X271900Y107300
X277100Y106900
X278300Y99700
X262700Y100500
X275100Y79700
X275100Y66900
X279500Y60500
X299500Y86100
X310300Y79700
X318300Y79700
X321500Y71700
X326300Y72500
X329500Y66100
X323100Y62100
X329500Y50900
X340700Y42900
X354700Y43300
X356300Y38500
X363100Y57300
X356700Y63300
X371100Y69700
X385500Y60500
X356700Y93300
X359900Y99700
X369500Y102900
X387100Y122100
X369100Y140100
X361100Y135300
X363100Y125300
X350700Y140100
X361100Y160100
X357100Y167300
X347500Y175300
X343900Y178500
X369100Y192100
X372300Y218500
X353900Y240500
X350700Y251300
X337500Y267300
X357500Y273700
X375500Y247300
X385500Y262100
X343100Y329700
X357500Y339300
X352700Y342500
X359500Y346100
X355900Y355300
X349500Y354900
X343100Y361300
X327900Y364500
X316700Y367700
X321500Y377700
X285900Y345300
X281100Y345300
X291500Y334100
X275500Y319300
X269100Y312900
X279900Y296100
X284700Y297700
X284700Y292900
X292700Y283300
X297500Y291300
X303900Y292900
X297900Y301300
X307100Y312900
X326300Y326500
X316700Y337300
X360700Y377300
X371500Y373300
X313500Y280100
X307100Y280100
X308700Y260500
X281100Y270500
X276300Y270500
X253100Y256500
X249900Y260100
X246700Y254500
X241900Y243300
X241900Y234100
X235500Y231300
X238700Y227700
X243500Y224900
X225900Y237700
X217100Y264100
X192700Y257700
X177900Y237700
X168300Y235300
X153500Y238500
X158700Y249700
X158700Y264100
X165100Y272500
X157100Y289700
X151900Y286500
X147100Y286500
X135900Y283300
X125500Y283300
X125900Y291300
X115900Y291300
X111100Y292900
X103100Y296100
X102300Y304100
X97900Y306500
X94700Y310100
X91500Y313700
X97900Y313700
X91500Y321300
X86700Y321300
X85100Y315300
X83500Y310500
X89900Y295700
X81900Y291300
X73900Y297300
X83500Y279700
X92300Y275700
X88300Y269700
X67500Y272900
X54700Y260100
X57900Y253300
X59900Y246500
X56300Y243300
X67500Y256500
X80300Y243300
X65900Y213700
X31900Y259700
X31900Y271700
X27100Y278100
X30300Y281700
X16300Y302100
X26300Y339700
X41500Y341700
X41500Y346500
X38300Y366500
X41500Y377700
X31500Y377700
X16300Y369700
X51500Y324500
X64300Y350100
X69100Y350100
X64300Y354900
X77100Y364900
X83100Y343300
X80300Y330900
X103100Y346500
X110700Y353700
X116300Y353700
X124700Y364900
X146300Y353300
X149500Y356900
X145500Y348500
X147100Y342100
X142300Y326100
X139100Y317700
X129100Y321700
X121500Y320500
X111100Y318500
X111100Y327700
X124700Y339700
X129100Y312900
X153500Y300900
X133900Y267700
X125500Y266500
X112700Y280500
X129100Y253300
X134300Y252900
X119100Y248100
X119100Y243300
X130300Y212100
X208700Y187700
X230300Y183700
X236300Y180500
X247500Y201700
X263900Y218500
X269100Y164100
X271500Y156900
X289500Y132100
X303500Y126100
X313500Y110100
X337500Y110100
X344300Y110100
X332700Y82900
X337500Y78500
X291500Y28100
X253100Y27300
X234300Y31700
X230700Y25300
X215500Y47700
X205500Y38100
X205500Y33300
X198700Y34900
X187500Y31700
X176300Y31700
X163900Y33300
X156300Y41300
X141100Y54100
X142700Y58900
X130700Y60500
X157500Y60900
X168300Y68500
X183900Y50900
X229100Y57300
X211900Y140100
X143900Y129300
X69900Y50900
X79900Y45700
X83100Y31700
X48300Y97300
X41900Y97300
X17100Y102100
X17100Y132100
X222700Y291300
X247100Y312900
X223900Y338900
X241900Y357700
X253100Y351700
X227100Y364100
X205100Y369300
X211900Y385300
X174700Y360900
X171500Y348500
X165100Y335700
X149500Y373700
X372300Y149700
X385500Y160500
T02
X381300Y156300
X381300Y146300
X381300Y136300
X381300Y126300
X381300Y116300
X381300Y106300
X381300Y96300
X381300Y86300
X381300Y76300
X381300Y66300
X381300Y56300
X381300Y46300
X381300Y36300
X391300Y36300
X391300Y46300
X391300Y56300
X391300Y66300
X391300Y76300
X391300Y86300
X391300Y96300
X391300Y106300
X391300Y116300
X391300Y126300
X391300Y136300
X391300Y146300
X391300Y156300
X391300Y166300
X391300Y176300
X391300Y186300
X391300Y196300
X391300Y206300
X391300Y216300
X391300Y226300
X391300Y236300
X391300Y246300
X391300Y256300
X391300Y266300
X391300Y276300
X391300Y286300
X391300Y296300
X391300Y306300
X391300Y316300
X391300Y326300
X391300Y336300
X391300Y346300
X391300Y356300
X391300Y366300
X381300Y366300
X381300Y356300
X381300Y346300
X381300Y336300
X381300Y326300
X381300Y316300
X381300Y306300
X381300Y296300
X381300Y286300
X381300Y276300
X381300Y266300
X381300Y256300
X381300Y246300
X381300Y236300
X381300Y226300
X381300Y216300
X381300Y206300
X381300Y196300
X381300Y186300
X381300Y176300
X381300Y166300
X366300Y21300
X356300Y21300
X356300Y11300
X366300Y11300
X346300Y11300
X336300Y11300
X326300Y11300
X326300Y21300
X336300Y21300
X346300Y21300
X316300Y21300
X306300Y21300
X306300Y11300
X316300Y11300
X296300Y11300
X286300Y11300
X286300Y21300
X296300Y21300
X276300Y21300
X266300Y21300
X266300Y11300
X276300Y11300
X256300Y11300
X246300Y11300
X246300Y21300
X256300Y21300
X236300Y21300
X226300Y21300
X216300Y21300
X216300Y11300
X226300Y11300
X236300Y11300
X206300Y11300
X196300Y11300
X196300Y21300
X206300Y21300
X186300Y21300
X176300Y21300
X176300Y11300
X186300Y11300
X166300Y11300
X156300Y11300
X156300Y21300
X166300Y21300
X146300Y21300
X136300Y21300
X136300Y11300
X146300Y11300
X126300Y11300
X116300Y11300
X106300Y11300
X106300Y21300
X116300Y21300
X126300Y21300
X96300Y21300
X86300Y21300
X86300Y11300
X96300Y11300
X76300Y11300
X66300Y11300
X66300Y21300
X76300Y21300
X56300Y21300
X46300Y21300
X46300Y11300
X56300Y11300
X36300Y11300
X36300Y21300
X21300Y36300
X21300Y46300
X21300Y56300
X21300Y66300
X21300Y76300
X21300Y86300
X21300Y96300
X21300Y106300
X21300Y116300
X21300Y126300
X21300Y136300
X21300Y146300
X21300Y156300
X21300Y166300
X21300Y176300
X21300Y186300
X21300Y196300
X21300Y206300
X21300Y216300
X21300Y226300
X21300Y236300
X21300Y246300
X21300Y256300
X21300Y266300
X21300Y276300
X21300Y286300
X21300Y296300
X21300Y306300
X21300Y316300
X21300Y326300
X21300Y336300
X21300Y346300
X21300Y356300
X21300Y366300
X11300Y366300
X11300Y356300
X11300Y346300
X11300Y336300
X11300Y326300
X11300Y316300
X11300Y306300
X11300Y296300
X11300Y286300
X11300Y276300
X11300Y266300
X11300Y256300
X11300Y246300
X11300Y236300
X11300Y226300
X11300Y216300
X11300Y206300
X11300Y196300
X11300Y186300
X11300Y176300
X11300Y166300
X11300Y156300
X11300Y146300
X11300Y136300
X11300Y126300
X11300Y116300
X11300Y106300
X11300Y96300
X11300Y86300
X11300Y76300
X11300Y66300
X11300Y56300
X11300Y46300
X11300Y36300
X36300Y381300
X36300Y391300
X46300Y391300
X56300Y391300
X56300Y381300
X46300Y381300
X66300Y381300
X76300Y381300
X76300Y391300
X66300Y391300
X86300Y391300
X96300Y391300
X96300Y381300
X86300Y381300
X106300Y381300
X116300Y381300
X126300Y381300
X126300Y391300
X116300Y391300
X106300Y391300
X136300Y391300
X146300Y391300
X146300Y381300
X136300Y381300
X156300Y381300
X166300Y381300
X166300Y391300
X156300Y391300
X176300Y391300
X186300Y391300
X186300Y381300
X176300Y381300
X196300Y381300
X206300Y381300
X206300Y391300
X196300Y391300
X216300Y391300
X226300Y391300
X236300Y391300
X236300Y381300
X226300Y381300
X216300Y381300
X246300Y381300
X256300Y381300
X256300Y391300
X246300Y391300
X266300Y391300
X276300Y391300
X276300Y381300
X266300Y381300
X286300Y381300
X296300Y381300
X296300Y391300
X286300Y391300
X306300Y391300
X316300Y391300
X316300Y381300
X306300Y381300
X326300Y381300
X336300Y381300
X346300Y381300
X346300Y391300
X336300Y391300
X326300Y391300
X356300Y391300
X366300Y391300
X366300Y381300
X356300Y381300
T03
X16300Y16300
X16300Y386300
X386300Y386300
X386300Y16300
M30
