G75*
%MOIN*%
%OFA0B0*%
%FSLAX25Y25*%
%IPPOS*%
%LPD*%
%AMOC8*
5,1,8,0,0,1.08239X$1,22.5*
%
%ADD10C,0.13300*%
%ADD11C,0.01360*%
%ADD12C,0.01280*%
%ADD13OC8,0.06800*%
%ADD14OC8,0.06400*%
D10*
X0046300Y0025200D03*
X0231300Y0345200D03*
X0416300Y0025200D03*
D11*
X0407266Y0046733D02*
X0406586Y0047413D01*
X0408762Y0046830D01*
X0409888Y0044879D01*
X0409305Y0042703D01*
X0407354Y0041577D01*
X0405178Y0042160D01*
X0404052Y0044111D01*
X0404635Y0046287D01*
X0406586Y0047413D01*
X0406730Y0046319D01*
X0408090Y0045954D01*
X0408794Y0044735D01*
X0408429Y0043375D01*
X0407210Y0042671D01*
X0405850Y0043036D01*
X0405146Y0044255D01*
X0405511Y0045615D01*
X0406730Y0046319D01*
X0406874Y0045224D01*
X0407418Y0045078D01*
X0407699Y0044591D01*
X0407553Y0044047D01*
X0407066Y0043766D01*
X0406522Y0043912D01*
X0406241Y0044399D01*
X0406387Y0044943D01*
X0406874Y0045224D01*
X0402266Y0055393D02*
X0401586Y0056073D01*
X0403762Y0055490D01*
X0404888Y0053539D01*
X0404305Y0051363D01*
X0402354Y0050237D01*
X0400178Y0050820D01*
X0399052Y0052771D01*
X0399635Y0054947D01*
X0401586Y0056073D01*
X0401730Y0054979D01*
X0403090Y0054614D01*
X0403794Y0053395D01*
X0403429Y0052035D01*
X0402210Y0051331D01*
X0400850Y0051696D01*
X0400146Y0052915D01*
X0400511Y0054275D01*
X0401730Y0054979D01*
X0401874Y0053884D01*
X0402418Y0053738D01*
X0402699Y0053251D01*
X0402553Y0052707D01*
X0402066Y0052426D01*
X0401522Y0052572D01*
X0401241Y0053059D01*
X0401387Y0053603D01*
X0401874Y0053884D01*
X0397266Y0064053D02*
X0396586Y0064733D01*
X0398762Y0064150D01*
X0399888Y0062199D01*
X0399305Y0060023D01*
X0397354Y0058897D01*
X0395178Y0059480D01*
X0394052Y0061431D01*
X0394635Y0063607D01*
X0396586Y0064733D01*
X0396730Y0063639D01*
X0398090Y0063274D01*
X0398794Y0062055D01*
X0398429Y0060695D01*
X0397210Y0059991D01*
X0395850Y0060356D01*
X0395146Y0061575D01*
X0395511Y0062935D01*
X0396730Y0063639D01*
X0396874Y0062544D01*
X0397418Y0062398D01*
X0397699Y0061911D01*
X0397553Y0061367D01*
X0397066Y0061086D01*
X0396522Y0061232D01*
X0396241Y0061719D01*
X0396387Y0062263D01*
X0396874Y0062544D01*
X0392266Y0072714D02*
X0391586Y0073394D01*
X0393762Y0072811D01*
X0394888Y0070860D01*
X0394305Y0068684D01*
X0392354Y0067558D01*
X0390178Y0068141D01*
X0389052Y0070092D01*
X0389635Y0072268D01*
X0391586Y0073394D01*
X0391730Y0072300D01*
X0393090Y0071935D01*
X0393794Y0070716D01*
X0393429Y0069356D01*
X0392210Y0068652D01*
X0390850Y0069017D01*
X0390146Y0070236D01*
X0390511Y0071596D01*
X0391730Y0072300D01*
X0391874Y0071205D01*
X0392418Y0071059D01*
X0392699Y0070572D01*
X0392553Y0070028D01*
X0392066Y0069747D01*
X0391522Y0069893D01*
X0391241Y0070380D01*
X0391387Y0070924D01*
X0391874Y0071205D01*
X0387266Y0081374D02*
X0386586Y0082054D01*
X0388762Y0081471D01*
X0389888Y0079520D01*
X0389305Y0077344D01*
X0387354Y0076218D01*
X0385178Y0076801D01*
X0384052Y0078752D01*
X0384635Y0080928D01*
X0386586Y0082054D01*
X0386730Y0080960D01*
X0388090Y0080595D01*
X0388794Y0079376D01*
X0388429Y0078016D01*
X0387210Y0077312D01*
X0385850Y0077677D01*
X0385146Y0078896D01*
X0385511Y0080256D01*
X0386730Y0080960D01*
X0386874Y0079865D01*
X0387418Y0079719D01*
X0387699Y0079232D01*
X0387553Y0078688D01*
X0387066Y0078407D01*
X0386522Y0078553D01*
X0386241Y0079040D01*
X0386387Y0079584D01*
X0386874Y0079865D01*
X0382266Y0090034D02*
X0381586Y0090714D01*
X0383762Y0090131D01*
X0384888Y0088180D01*
X0384305Y0086004D01*
X0382354Y0084878D01*
X0380178Y0085461D01*
X0379052Y0087412D01*
X0379635Y0089588D01*
X0381586Y0090714D01*
X0381730Y0089620D01*
X0383090Y0089255D01*
X0383794Y0088036D01*
X0383429Y0086676D01*
X0382210Y0085972D01*
X0380850Y0086337D01*
X0380146Y0087556D01*
X0380511Y0088916D01*
X0381730Y0089620D01*
X0381874Y0088525D01*
X0382418Y0088379D01*
X0382699Y0087892D01*
X0382553Y0087348D01*
X0382066Y0087067D01*
X0381522Y0087213D01*
X0381241Y0087700D01*
X0381387Y0088244D01*
X0381874Y0088525D01*
X0377266Y0098694D02*
X0376586Y0099374D01*
X0378762Y0098791D01*
X0379888Y0096840D01*
X0379305Y0094664D01*
X0377354Y0093538D01*
X0375178Y0094121D01*
X0374052Y0096072D01*
X0374635Y0098248D01*
X0376586Y0099374D01*
X0376730Y0098280D01*
X0378090Y0097915D01*
X0378794Y0096696D01*
X0378429Y0095336D01*
X0377210Y0094632D01*
X0375850Y0094997D01*
X0375146Y0096216D01*
X0375511Y0097576D01*
X0376730Y0098280D01*
X0376874Y0097185D01*
X0377418Y0097039D01*
X0377699Y0096552D01*
X0377553Y0096008D01*
X0377066Y0095727D01*
X0376522Y0095873D01*
X0376241Y0096360D01*
X0376387Y0096904D01*
X0376874Y0097185D01*
X0372266Y0107355D02*
X0371586Y0108035D01*
X0373762Y0107452D01*
X0374888Y0105501D01*
X0374305Y0103325D01*
X0372354Y0102199D01*
X0370178Y0102782D01*
X0369052Y0104733D01*
X0369635Y0106909D01*
X0371586Y0108035D01*
X0371730Y0106941D01*
X0373090Y0106576D01*
X0373794Y0105357D01*
X0373429Y0103997D01*
X0372210Y0103293D01*
X0370850Y0103658D01*
X0370146Y0104877D01*
X0370511Y0106237D01*
X0371730Y0106941D01*
X0371874Y0105846D01*
X0372418Y0105700D01*
X0372699Y0105213D01*
X0372553Y0104669D01*
X0372066Y0104388D01*
X0371522Y0104534D01*
X0371241Y0105021D01*
X0371387Y0105565D01*
X0371874Y0105846D01*
X0380926Y0112355D02*
X0380246Y0113035D01*
X0382422Y0112452D01*
X0383548Y0110501D01*
X0382965Y0108325D01*
X0381014Y0107199D01*
X0378838Y0107782D01*
X0377712Y0109733D01*
X0378295Y0111909D01*
X0380246Y0113035D01*
X0380390Y0111941D01*
X0381750Y0111576D01*
X0382454Y0110357D01*
X0382089Y0108997D01*
X0380870Y0108293D01*
X0379510Y0108658D01*
X0378806Y0109877D01*
X0379171Y0111237D01*
X0380390Y0111941D01*
X0380534Y0110846D01*
X0381078Y0110700D01*
X0381359Y0110213D01*
X0381213Y0109669D01*
X0380726Y0109388D01*
X0380182Y0109534D01*
X0379901Y0110021D01*
X0380047Y0110565D01*
X0380534Y0110846D01*
X0375926Y0121015D02*
X0375246Y0121695D01*
X0377422Y0121112D01*
X0378548Y0119161D01*
X0377965Y0116985D01*
X0376014Y0115859D01*
X0373838Y0116442D01*
X0372712Y0118393D01*
X0373295Y0120569D01*
X0375246Y0121695D01*
X0375390Y0120601D01*
X0376750Y0120236D01*
X0377454Y0119017D01*
X0377089Y0117657D01*
X0375870Y0116953D01*
X0374510Y0117318D01*
X0373806Y0118537D01*
X0374171Y0119897D01*
X0375390Y0120601D01*
X0375534Y0119506D01*
X0376078Y0119360D01*
X0376359Y0118873D01*
X0376213Y0118329D01*
X0375726Y0118048D01*
X0375182Y0118194D01*
X0374901Y0118681D01*
X0375047Y0119225D01*
X0375534Y0119506D01*
X0370926Y0129675D02*
X0370246Y0130355D01*
X0372422Y0129772D01*
X0373548Y0127821D01*
X0372965Y0125645D01*
X0371014Y0124519D01*
X0368838Y0125102D01*
X0367712Y0127053D01*
X0368295Y0129229D01*
X0370246Y0130355D01*
X0370390Y0129261D01*
X0371750Y0128896D01*
X0372454Y0127677D01*
X0372089Y0126317D01*
X0370870Y0125613D01*
X0369510Y0125978D01*
X0368806Y0127197D01*
X0369171Y0128557D01*
X0370390Y0129261D01*
X0370534Y0128166D01*
X0371078Y0128020D01*
X0371359Y0127533D01*
X0371213Y0126989D01*
X0370726Y0126708D01*
X0370182Y0126854D01*
X0369901Y0127341D01*
X0370047Y0127885D01*
X0370534Y0128166D01*
X0365926Y0138335D02*
X0365246Y0139015D01*
X0367422Y0138432D01*
X0368548Y0136481D01*
X0367965Y0134305D01*
X0366014Y0133179D01*
X0363838Y0133762D01*
X0362712Y0135713D01*
X0363295Y0137889D01*
X0365246Y0139015D01*
X0365390Y0137921D01*
X0366750Y0137556D01*
X0367454Y0136337D01*
X0367089Y0134977D01*
X0365870Y0134273D01*
X0364510Y0134638D01*
X0363806Y0135857D01*
X0364171Y0137217D01*
X0365390Y0137921D01*
X0365534Y0136826D01*
X0366078Y0136680D01*
X0366359Y0136193D01*
X0366213Y0135649D01*
X0365726Y0135368D01*
X0365182Y0135514D01*
X0364901Y0136001D01*
X0365047Y0136545D01*
X0365534Y0136826D01*
X0360926Y0146996D02*
X0360246Y0147676D01*
X0362422Y0147093D01*
X0363548Y0145142D01*
X0362965Y0142966D01*
X0361014Y0141840D01*
X0358838Y0142423D01*
X0357712Y0144374D01*
X0358295Y0146550D01*
X0360246Y0147676D01*
X0360390Y0146582D01*
X0361750Y0146217D01*
X0362454Y0144998D01*
X0362089Y0143638D01*
X0360870Y0142934D01*
X0359510Y0143299D01*
X0358806Y0144518D01*
X0359171Y0145878D01*
X0360390Y0146582D01*
X0360534Y0145487D01*
X0361078Y0145341D01*
X0361359Y0144854D01*
X0361213Y0144310D01*
X0360726Y0144029D01*
X0360182Y0144175D01*
X0359901Y0144662D01*
X0360047Y0145206D01*
X0360534Y0145487D01*
X0355926Y0155656D02*
X0355246Y0156336D01*
X0357422Y0155753D01*
X0358548Y0153802D01*
X0357965Y0151626D01*
X0356014Y0150500D01*
X0353838Y0151083D01*
X0352712Y0153034D01*
X0353295Y0155210D01*
X0355246Y0156336D01*
X0355390Y0155242D01*
X0356750Y0154877D01*
X0357454Y0153658D01*
X0357089Y0152298D01*
X0355870Y0151594D01*
X0354510Y0151959D01*
X0353806Y0153178D01*
X0354171Y0154538D01*
X0355390Y0155242D01*
X0355534Y0154147D01*
X0356078Y0154001D01*
X0356359Y0153514D01*
X0356213Y0152970D01*
X0355726Y0152689D01*
X0355182Y0152835D01*
X0354901Y0153322D01*
X0355047Y0153866D01*
X0355534Y0154147D01*
X0350926Y0164316D02*
X0350246Y0164996D01*
X0352422Y0164413D01*
X0353548Y0162462D01*
X0352965Y0160286D01*
X0351014Y0159160D01*
X0348838Y0159743D01*
X0347712Y0161694D01*
X0348295Y0163870D01*
X0350246Y0164996D01*
X0350390Y0163902D01*
X0351750Y0163537D01*
X0352454Y0162318D01*
X0352089Y0160958D01*
X0350870Y0160254D01*
X0349510Y0160619D01*
X0348806Y0161838D01*
X0349171Y0163198D01*
X0350390Y0163902D01*
X0350534Y0162807D01*
X0351078Y0162661D01*
X0351359Y0162174D01*
X0351213Y0161630D01*
X0350726Y0161349D01*
X0350182Y0161495D01*
X0349901Y0161982D01*
X0350047Y0162526D01*
X0350534Y0162807D01*
X0345926Y0172976D02*
X0345246Y0173656D01*
X0347422Y0173073D01*
X0348548Y0171122D01*
X0347965Y0168946D01*
X0346014Y0167820D01*
X0343838Y0168403D01*
X0342712Y0170354D01*
X0343295Y0172530D01*
X0345246Y0173656D01*
X0345390Y0172562D01*
X0346750Y0172197D01*
X0347454Y0170978D01*
X0347089Y0169618D01*
X0345870Y0168914D01*
X0344510Y0169279D01*
X0343806Y0170498D01*
X0344171Y0171858D01*
X0345390Y0172562D01*
X0345534Y0171467D01*
X0346078Y0171321D01*
X0346359Y0170834D01*
X0346213Y0170290D01*
X0345726Y0170009D01*
X0345182Y0170155D01*
X0344901Y0170642D01*
X0345047Y0171186D01*
X0345534Y0171467D01*
X0340926Y0181637D02*
X0340246Y0182317D01*
X0342422Y0181734D01*
X0343548Y0179783D01*
X0342965Y0177607D01*
X0341014Y0176481D01*
X0338838Y0177064D01*
X0337712Y0179015D01*
X0338295Y0181191D01*
X0340246Y0182317D01*
X0340390Y0181223D01*
X0341750Y0180858D01*
X0342454Y0179639D01*
X0342089Y0178279D01*
X0340870Y0177575D01*
X0339510Y0177940D01*
X0338806Y0179159D01*
X0339171Y0180519D01*
X0340390Y0181223D01*
X0340534Y0180128D01*
X0341078Y0179982D01*
X0341359Y0179495D01*
X0341213Y0178951D01*
X0340726Y0178670D01*
X0340182Y0178816D01*
X0339901Y0179303D01*
X0340047Y0179847D01*
X0340534Y0180128D01*
X0335926Y0190297D02*
X0335246Y0190977D01*
X0337422Y0190394D01*
X0338548Y0188443D01*
X0337965Y0186267D01*
X0336014Y0185141D01*
X0333838Y0185724D01*
X0332712Y0187675D01*
X0333295Y0189851D01*
X0335246Y0190977D01*
X0335390Y0189883D01*
X0336750Y0189518D01*
X0337454Y0188299D01*
X0337089Y0186939D01*
X0335870Y0186235D01*
X0334510Y0186600D01*
X0333806Y0187819D01*
X0334171Y0189179D01*
X0335390Y0189883D01*
X0335534Y0188788D01*
X0336078Y0188642D01*
X0336359Y0188155D01*
X0336213Y0187611D01*
X0335726Y0187330D01*
X0335182Y0187476D01*
X0334901Y0187963D01*
X0335047Y0188507D01*
X0335534Y0188788D01*
X0330926Y0198957D02*
X0330246Y0199637D01*
X0332422Y0199054D01*
X0333548Y0197103D01*
X0332965Y0194927D01*
X0331014Y0193801D01*
X0328838Y0194384D01*
X0327712Y0196335D01*
X0328295Y0198511D01*
X0330246Y0199637D01*
X0330390Y0198543D01*
X0331750Y0198178D01*
X0332454Y0196959D01*
X0332089Y0195599D01*
X0330870Y0194895D01*
X0329510Y0195260D01*
X0328806Y0196479D01*
X0329171Y0197839D01*
X0330390Y0198543D01*
X0330534Y0197448D01*
X0331078Y0197302D01*
X0331359Y0196815D01*
X0331213Y0196271D01*
X0330726Y0195990D01*
X0330182Y0196136D01*
X0329901Y0196623D01*
X0330047Y0197167D01*
X0330534Y0197448D01*
X0325926Y0207617D02*
X0325246Y0208297D01*
X0327422Y0207714D01*
X0328548Y0205763D01*
X0327965Y0203587D01*
X0326014Y0202461D01*
X0323838Y0203044D01*
X0322712Y0204995D01*
X0323295Y0207171D01*
X0325246Y0208297D01*
X0325390Y0207203D01*
X0326750Y0206838D01*
X0327454Y0205619D01*
X0327089Y0204259D01*
X0325870Y0203555D01*
X0324510Y0203920D01*
X0323806Y0205139D01*
X0324171Y0206499D01*
X0325390Y0207203D01*
X0325534Y0206108D01*
X0326078Y0205962D01*
X0326359Y0205475D01*
X0326213Y0204931D01*
X0325726Y0204650D01*
X0325182Y0204796D01*
X0324901Y0205283D01*
X0325047Y0205827D01*
X0325534Y0206108D01*
X0320926Y0216278D02*
X0320246Y0216958D01*
X0322422Y0216375D01*
X0323548Y0214424D01*
X0322965Y0212248D01*
X0321014Y0211122D01*
X0318838Y0211705D01*
X0317712Y0213656D01*
X0318295Y0215832D01*
X0320246Y0216958D01*
X0320390Y0215864D01*
X0321750Y0215499D01*
X0322454Y0214280D01*
X0322089Y0212920D01*
X0320870Y0212216D01*
X0319510Y0212581D01*
X0318806Y0213800D01*
X0319171Y0215160D01*
X0320390Y0215864D01*
X0320534Y0214769D01*
X0321078Y0214623D01*
X0321359Y0214136D01*
X0321213Y0213592D01*
X0320726Y0213311D01*
X0320182Y0213457D01*
X0319901Y0213944D01*
X0320047Y0214488D01*
X0320534Y0214769D01*
X0312266Y0211278D02*
X0311586Y0211958D01*
X0313762Y0211375D01*
X0314888Y0209424D01*
X0314305Y0207248D01*
X0312354Y0206122D01*
X0310178Y0206705D01*
X0309052Y0208656D01*
X0309635Y0210832D01*
X0311586Y0211958D01*
X0311730Y0210864D01*
X0313090Y0210499D01*
X0313794Y0209280D01*
X0313429Y0207920D01*
X0312210Y0207216D01*
X0310850Y0207581D01*
X0310146Y0208800D01*
X0310511Y0210160D01*
X0311730Y0210864D01*
X0311874Y0209769D01*
X0312418Y0209623D01*
X0312699Y0209136D01*
X0312553Y0208592D01*
X0312066Y0208311D01*
X0311522Y0208457D01*
X0311241Y0208944D01*
X0311387Y0209488D01*
X0311874Y0209769D01*
X0317266Y0202617D02*
X0316586Y0203297D01*
X0318762Y0202714D01*
X0319888Y0200763D01*
X0319305Y0198587D01*
X0317354Y0197461D01*
X0315178Y0198044D01*
X0314052Y0199995D01*
X0314635Y0202171D01*
X0316586Y0203297D01*
X0316730Y0202203D01*
X0318090Y0201838D01*
X0318794Y0200619D01*
X0318429Y0199259D01*
X0317210Y0198555D01*
X0315850Y0198920D01*
X0315146Y0200139D01*
X0315511Y0201499D01*
X0316730Y0202203D01*
X0316874Y0201108D01*
X0317418Y0200962D01*
X0317699Y0200475D01*
X0317553Y0199931D01*
X0317066Y0199650D01*
X0316522Y0199796D01*
X0316241Y0200283D01*
X0316387Y0200827D01*
X0316874Y0201108D01*
X0322266Y0193957D02*
X0321586Y0194637D01*
X0323762Y0194054D01*
X0324888Y0192103D01*
X0324305Y0189927D01*
X0322354Y0188801D01*
X0320178Y0189384D01*
X0319052Y0191335D01*
X0319635Y0193511D01*
X0321586Y0194637D01*
X0321730Y0193543D01*
X0323090Y0193178D01*
X0323794Y0191959D01*
X0323429Y0190599D01*
X0322210Y0189895D01*
X0320850Y0190260D01*
X0320146Y0191479D01*
X0320511Y0192839D01*
X0321730Y0193543D01*
X0321874Y0192448D01*
X0322418Y0192302D01*
X0322699Y0191815D01*
X0322553Y0191271D01*
X0322066Y0190990D01*
X0321522Y0191136D01*
X0321241Y0191623D01*
X0321387Y0192167D01*
X0321874Y0192448D01*
X0327266Y0185297D02*
X0326586Y0185977D01*
X0328762Y0185394D01*
X0329888Y0183443D01*
X0329305Y0181267D01*
X0327354Y0180141D01*
X0325178Y0180724D01*
X0324052Y0182675D01*
X0324635Y0184851D01*
X0326586Y0185977D01*
X0326730Y0184883D01*
X0328090Y0184518D01*
X0328794Y0183299D01*
X0328429Y0181939D01*
X0327210Y0181235D01*
X0325850Y0181600D01*
X0325146Y0182819D01*
X0325511Y0184179D01*
X0326730Y0184883D01*
X0326874Y0183788D01*
X0327418Y0183642D01*
X0327699Y0183155D01*
X0327553Y0182611D01*
X0327066Y0182330D01*
X0326522Y0182476D01*
X0326241Y0182963D01*
X0326387Y0183507D01*
X0326874Y0183788D01*
X0332266Y0176637D02*
X0331586Y0177317D01*
X0333762Y0176734D01*
X0334888Y0174783D01*
X0334305Y0172607D01*
X0332354Y0171481D01*
X0330178Y0172064D01*
X0329052Y0174015D01*
X0329635Y0176191D01*
X0331586Y0177317D01*
X0331730Y0176223D01*
X0333090Y0175858D01*
X0333794Y0174639D01*
X0333429Y0173279D01*
X0332210Y0172575D01*
X0330850Y0172940D01*
X0330146Y0174159D01*
X0330511Y0175519D01*
X0331730Y0176223D01*
X0331874Y0175128D01*
X0332418Y0174982D01*
X0332699Y0174495D01*
X0332553Y0173951D01*
X0332066Y0173670D01*
X0331522Y0173816D01*
X0331241Y0174303D01*
X0331387Y0174847D01*
X0331874Y0175128D01*
X0337266Y0167976D02*
X0336586Y0168656D01*
X0338762Y0168073D01*
X0339888Y0166122D01*
X0339305Y0163946D01*
X0337354Y0162820D01*
X0335178Y0163403D01*
X0334052Y0165354D01*
X0334635Y0167530D01*
X0336586Y0168656D01*
X0336730Y0167562D01*
X0338090Y0167197D01*
X0338794Y0165978D01*
X0338429Y0164618D01*
X0337210Y0163914D01*
X0335850Y0164279D01*
X0335146Y0165498D01*
X0335511Y0166858D01*
X0336730Y0167562D01*
X0336874Y0166467D01*
X0337418Y0166321D01*
X0337699Y0165834D01*
X0337553Y0165290D01*
X0337066Y0165009D01*
X0336522Y0165155D01*
X0336241Y0165642D01*
X0336387Y0166186D01*
X0336874Y0166467D01*
X0342266Y0159316D02*
X0341586Y0159996D01*
X0343762Y0159413D01*
X0344888Y0157462D01*
X0344305Y0155286D01*
X0342354Y0154160D01*
X0340178Y0154743D01*
X0339052Y0156694D01*
X0339635Y0158870D01*
X0341586Y0159996D01*
X0341730Y0158902D01*
X0343090Y0158537D01*
X0343794Y0157318D01*
X0343429Y0155958D01*
X0342210Y0155254D01*
X0340850Y0155619D01*
X0340146Y0156838D01*
X0340511Y0158198D01*
X0341730Y0158902D01*
X0341874Y0157807D01*
X0342418Y0157661D01*
X0342699Y0157174D01*
X0342553Y0156630D01*
X0342066Y0156349D01*
X0341522Y0156495D01*
X0341241Y0156982D01*
X0341387Y0157526D01*
X0341874Y0157807D01*
X0347266Y0150656D02*
X0346586Y0151336D01*
X0348762Y0150753D01*
X0349888Y0148802D01*
X0349305Y0146626D01*
X0347354Y0145500D01*
X0345178Y0146083D01*
X0344052Y0148034D01*
X0344635Y0150210D01*
X0346586Y0151336D01*
X0346730Y0150242D01*
X0348090Y0149877D01*
X0348794Y0148658D01*
X0348429Y0147298D01*
X0347210Y0146594D01*
X0345850Y0146959D01*
X0345146Y0148178D01*
X0345511Y0149538D01*
X0346730Y0150242D01*
X0346874Y0149147D01*
X0347418Y0149001D01*
X0347699Y0148514D01*
X0347553Y0147970D01*
X0347066Y0147689D01*
X0346522Y0147835D01*
X0346241Y0148322D01*
X0346387Y0148866D01*
X0346874Y0149147D01*
X0352266Y0141996D02*
X0351586Y0142676D01*
X0353762Y0142093D01*
X0354888Y0140142D01*
X0354305Y0137966D01*
X0352354Y0136840D01*
X0350178Y0137423D01*
X0349052Y0139374D01*
X0349635Y0141550D01*
X0351586Y0142676D01*
X0351730Y0141582D01*
X0353090Y0141217D01*
X0353794Y0139998D01*
X0353429Y0138638D01*
X0352210Y0137934D01*
X0350850Y0138299D01*
X0350146Y0139518D01*
X0350511Y0140878D01*
X0351730Y0141582D01*
X0351874Y0140487D01*
X0352418Y0140341D01*
X0352699Y0139854D01*
X0352553Y0139310D01*
X0352066Y0139029D01*
X0351522Y0139175D01*
X0351241Y0139662D01*
X0351387Y0140206D01*
X0351874Y0140487D01*
X0357266Y0133335D02*
X0356586Y0134015D01*
X0358762Y0133432D01*
X0359888Y0131481D01*
X0359305Y0129305D01*
X0357354Y0128179D01*
X0355178Y0128762D01*
X0354052Y0130713D01*
X0354635Y0132889D01*
X0356586Y0134015D01*
X0356730Y0132921D01*
X0358090Y0132556D01*
X0358794Y0131337D01*
X0358429Y0129977D01*
X0357210Y0129273D01*
X0355850Y0129638D01*
X0355146Y0130857D01*
X0355511Y0132217D01*
X0356730Y0132921D01*
X0356874Y0131826D01*
X0357418Y0131680D01*
X0357699Y0131193D01*
X0357553Y0130649D01*
X0357066Y0130368D01*
X0356522Y0130514D01*
X0356241Y0131001D01*
X0356387Y0131545D01*
X0356874Y0131826D01*
X0362266Y0124675D02*
X0361586Y0125355D01*
X0363762Y0124772D01*
X0364888Y0122821D01*
X0364305Y0120645D01*
X0362354Y0119519D01*
X0360178Y0120102D01*
X0359052Y0122053D01*
X0359635Y0124229D01*
X0361586Y0125355D01*
X0361730Y0124261D01*
X0363090Y0123896D01*
X0363794Y0122677D01*
X0363429Y0121317D01*
X0362210Y0120613D01*
X0360850Y0120978D01*
X0360146Y0122197D01*
X0360511Y0123557D01*
X0361730Y0124261D01*
X0361874Y0123166D01*
X0362418Y0123020D01*
X0362699Y0122533D01*
X0362553Y0121989D01*
X0362066Y0121708D01*
X0361522Y0121854D01*
X0361241Y0122341D01*
X0361387Y0122885D01*
X0361874Y0123166D01*
X0367266Y0116015D02*
X0366586Y0116695D01*
X0368762Y0116112D01*
X0369888Y0114161D01*
X0369305Y0111985D01*
X0367354Y0110859D01*
X0365178Y0111442D01*
X0364052Y0113393D01*
X0364635Y0115569D01*
X0366586Y0116695D01*
X0366730Y0115601D01*
X0368090Y0115236D01*
X0368794Y0114017D01*
X0368429Y0112657D01*
X0367210Y0111953D01*
X0365850Y0112318D01*
X0365146Y0113537D01*
X0365511Y0114897D01*
X0366730Y0115601D01*
X0366874Y0114506D01*
X0367418Y0114360D01*
X0367699Y0113873D01*
X0367553Y0113329D01*
X0367066Y0113048D01*
X0366522Y0113194D01*
X0366241Y0113681D01*
X0366387Y0114225D01*
X0366874Y0114506D01*
X0385926Y0103694D02*
X0385246Y0104374D01*
X0387422Y0103791D01*
X0388548Y0101840D01*
X0387965Y0099664D01*
X0386014Y0098538D01*
X0383838Y0099121D01*
X0382712Y0101072D01*
X0383295Y0103248D01*
X0385246Y0104374D01*
X0385390Y0103280D01*
X0386750Y0102915D01*
X0387454Y0101696D01*
X0387089Y0100336D01*
X0385870Y0099632D01*
X0384510Y0099997D01*
X0383806Y0101216D01*
X0384171Y0102576D01*
X0385390Y0103280D01*
X0385534Y0102185D01*
X0386078Y0102039D01*
X0386359Y0101552D01*
X0386213Y0101008D01*
X0385726Y0100727D01*
X0385182Y0100873D01*
X0384901Y0101360D01*
X0385047Y0101904D01*
X0385534Y0102185D01*
X0390926Y0095034D02*
X0390246Y0095714D01*
X0392422Y0095131D01*
X0393548Y0093180D01*
X0392965Y0091004D01*
X0391014Y0089878D01*
X0388838Y0090461D01*
X0387712Y0092412D01*
X0388295Y0094588D01*
X0390246Y0095714D01*
X0390390Y0094620D01*
X0391750Y0094255D01*
X0392454Y0093036D01*
X0392089Y0091676D01*
X0390870Y0090972D01*
X0389510Y0091337D01*
X0388806Y0092556D01*
X0389171Y0093916D01*
X0390390Y0094620D01*
X0390534Y0093525D01*
X0391078Y0093379D01*
X0391359Y0092892D01*
X0391213Y0092348D01*
X0390726Y0092067D01*
X0390182Y0092213D01*
X0389901Y0092700D01*
X0390047Y0093244D01*
X0390534Y0093525D01*
X0395926Y0086374D02*
X0395246Y0087054D01*
X0397422Y0086471D01*
X0398548Y0084520D01*
X0397965Y0082344D01*
X0396014Y0081218D01*
X0393838Y0081801D01*
X0392712Y0083752D01*
X0393295Y0085928D01*
X0395246Y0087054D01*
X0395390Y0085960D01*
X0396750Y0085595D01*
X0397454Y0084376D01*
X0397089Y0083016D01*
X0395870Y0082312D01*
X0394510Y0082677D01*
X0393806Y0083896D01*
X0394171Y0085256D01*
X0395390Y0085960D01*
X0395534Y0084865D01*
X0396078Y0084719D01*
X0396359Y0084232D01*
X0396213Y0083688D01*
X0395726Y0083407D01*
X0395182Y0083553D01*
X0394901Y0084040D01*
X0395047Y0084584D01*
X0395534Y0084865D01*
X0400926Y0077714D02*
X0400246Y0078394D01*
X0402422Y0077811D01*
X0403548Y0075860D01*
X0402965Y0073684D01*
X0401014Y0072558D01*
X0398838Y0073141D01*
X0397712Y0075092D01*
X0398295Y0077268D01*
X0400246Y0078394D01*
X0400390Y0077300D01*
X0401750Y0076935D01*
X0402454Y0075716D01*
X0402089Y0074356D01*
X0400870Y0073652D01*
X0399510Y0074017D01*
X0398806Y0075236D01*
X0399171Y0076596D01*
X0400390Y0077300D01*
X0400534Y0076205D01*
X0401078Y0076059D01*
X0401359Y0075572D01*
X0401213Y0075028D01*
X0400726Y0074747D01*
X0400182Y0074893D01*
X0399901Y0075380D01*
X0400047Y0075924D01*
X0400534Y0076205D01*
X0405926Y0069053D02*
X0405246Y0069733D01*
X0407422Y0069150D01*
X0408548Y0067199D01*
X0407965Y0065023D01*
X0406014Y0063897D01*
X0403838Y0064480D01*
X0402712Y0066431D01*
X0403295Y0068607D01*
X0405246Y0069733D01*
X0405390Y0068639D01*
X0406750Y0068274D01*
X0407454Y0067055D01*
X0407089Y0065695D01*
X0405870Y0064991D01*
X0404510Y0065356D01*
X0403806Y0066575D01*
X0404171Y0067935D01*
X0405390Y0068639D01*
X0405534Y0067544D01*
X0406078Y0067398D01*
X0406359Y0066911D01*
X0406213Y0066367D01*
X0405726Y0066086D01*
X0405182Y0066232D01*
X0404901Y0066719D01*
X0405047Y0067263D01*
X0405534Y0067544D01*
X0410926Y0060393D02*
X0410246Y0061073D01*
X0412422Y0060490D01*
X0413548Y0058539D01*
X0412965Y0056363D01*
X0411014Y0055237D01*
X0408838Y0055820D01*
X0407712Y0057771D01*
X0408295Y0059947D01*
X0410246Y0061073D01*
X0410390Y0059979D01*
X0411750Y0059614D01*
X0412454Y0058395D01*
X0412089Y0057035D01*
X0410870Y0056331D01*
X0409510Y0056696D01*
X0408806Y0057915D01*
X0409171Y0059275D01*
X0410390Y0059979D01*
X0410534Y0058884D01*
X0411078Y0058738D01*
X0411359Y0058251D01*
X0411213Y0057707D01*
X0410726Y0057426D01*
X0410182Y0057572D01*
X0409901Y0058059D01*
X0410047Y0058603D01*
X0410534Y0058884D01*
X0415926Y0051733D02*
X0415246Y0052413D01*
X0417422Y0051830D01*
X0418548Y0049879D01*
X0417965Y0047703D01*
X0416014Y0046577D01*
X0413838Y0047160D01*
X0412712Y0049111D01*
X0413295Y0051287D01*
X0415246Y0052413D01*
X0415390Y0051319D01*
X0416750Y0050954D01*
X0417454Y0049735D01*
X0417089Y0048375D01*
X0415870Y0047671D01*
X0414510Y0048036D01*
X0413806Y0049255D01*
X0414171Y0050615D01*
X0415390Y0051319D01*
X0415534Y0050224D01*
X0416078Y0050078D01*
X0416359Y0049591D01*
X0416213Y0049047D01*
X0415726Y0048766D01*
X0415182Y0048912D01*
X0414901Y0049399D01*
X0415047Y0049943D01*
X0415534Y0050224D01*
X0297266Y0237258D02*
X0296586Y0237938D01*
X0298762Y0237355D01*
X0299888Y0235404D01*
X0299305Y0233228D01*
X0297354Y0232102D01*
X0295178Y0232685D01*
X0294052Y0234636D01*
X0294635Y0236812D01*
X0296586Y0237938D01*
X0296730Y0236844D01*
X0298090Y0236479D01*
X0298794Y0235260D01*
X0298429Y0233900D01*
X0297210Y0233196D01*
X0295850Y0233561D01*
X0295146Y0234780D01*
X0295511Y0236140D01*
X0296730Y0236844D01*
X0296874Y0235749D01*
X0297418Y0235603D01*
X0297699Y0235116D01*
X0297553Y0234572D01*
X0297066Y0234291D01*
X0296522Y0234437D01*
X0296241Y0234924D01*
X0296387Y0235468D01*
X0296874Y0235749D01*
X0292266Y0245919D02*
X0291586Y0246599D01*
X0293762Y0246016D01*
X0294888Y0244065D01*
X0294305Y0241889D01*
X0292354Y0240763D01*
X0290178Y0241346D01*
X0289052Y0243297D01*
X0289635Y0245473D01*
X0291586Y0246599D01*
X0291730Y0245505D01*
X0293090Y0245140D01*
X0293794Y0243921D01*
X0293429Y0242561D01*
X0292210Y0241857D01*
X0290850Y0242222D01*
X0290146Y0243441D01*
X0290511Y0244801D01*
X0291730Y0245505D01*
X0291874Y0244410D01*
X0292418Y0244264D01*
X0292699Y0243777D01*
X0292553Y0243233D01*
X0292066Y0242952D01*
X0291522Y0243098D01*
X0291241Y0243585D01*
X0291387Y0244129D01*
X0291874Y0244410D01*
X0287266Y0254579D02*
X0286586Y0255259D01*
X0288762Y0254676D01*
X0289888Y0252725D01*
X0289305Y0250549D01*
X0287354Y0249423D01*
X0285178Y0250006D01*
X0284052Y0251957D01*
X0284635Y0254133D01*
X0286586Y0255259D01*
X0286730Y0254165D01*
X0288090Y0253800D01*
X0288794Y0252581D01*
X0288429Y0251221D01*
X0287210Y0250517D01*
X0285850Y0250882D01*
X0285146Y0252101D01*
X0285511Y0253461D01*
X0286730Y0254165D01*
X0286874Y0253070D01*
X0287418Y0252924D01*
X0287699Y0252437D01*
X0287553Y0251893D01*
X0287066Y0251612D01*
X0286522Y0251758D01*
X0286241Y0252245D01*
X0286387Y0252789D01*
X0286874Y0253070D01*
X0282266Y0263239D02*
X0281586Y0263919D01*
X0283762Y0263336D01*
X0284888Y0261385D01*
X0284305Y0259209D01*
X0282354Y0258083D01*
X0280178Y0258666D01*
X0279052Y0260617D01*
X0279635Y0262793D01*
X0281586Y0263919D01*
X0281730Y0262825D01*
X0283090Y0262460D01*
X0283794Y0261241D01*
X0283429Y0259881D01*
X0282210Y0259177D01*
X0280850Y0259542D01*
X0280146Y0260761D01*
X0280511Y0262121D01*
X0281730Y0262825D01*
X0281874Y0261730D01*
X0282418Y0261584D01*
X0282699Y0261097D01*
X0282553Y0260553D01*
X0282066Y0260272D01*
X0281522Y0260418D01*
X0281241Y0260905D01*
X0281387Y0261449D01*
X0281874Y0261730D01*
X0277266Y0271900D02*
X0276586Y0272580D01*
X0278762Y0271997D01*
X0279888Y0270046D01*
X0279305Y0267870D01*
X0277354Y0266744D01*
X0275178Y0267327D01*
X0274052Y0269278D01*
X0274635Y0271454D01*
X0276586Y0272580D01*
X0276730Y0271486D01*
X0278090Y0271121D01*
X0278794Y0269902D01*
X0278429Y0268542D01*
X0277210Y0267838D01*
X0275850Y0268203D01*
X0275146Y0269422D01*
X0275511Y0270782D01*
X0276730Y0271486D01*
X0276874Y0270391D01*
X0277418Y0270245D01*
X0277699Y0269758D01*
X0277553Y0269214D01*
X0277066Y0268933D01*
X0276522Y0269079D01*
X0276241Y0269566D01*
X0276387Y0270110D01*
X0276874Y0270391D01*
X0272266Y0280560D02*
X0271586Y0281240D01*
X0273762Y0280657D01*
X0274888Y0278706D01*
X0274305Y0276530D01*
X0272354Y0275404D01*
X0270178Y0275987D01*
X0269052Y0277938D01*
X0269635Y0280114D01*
X0271586Y0281240D01*
X0271730Y0280146D01*
X0273090Y0279781D01*
X0273794Y0278562D01*
X0273429Y0277202D01*
X0272210Y0276498D01*
X0270850Y0276863D01*
X0270146Y0278082D01*
X0270511Y0279442D01*
X0271730Y0280146D01*
X0271874Y0279051D01*
X0272418Y0278905D01*
X0272699Y0278418D01*
X0272553Y0277874D01*
X0272066Y0277593D01*
X0271522Y0277739D01*
X0271241Y0278226D01*
X0271387Y0278770D01*
X0271874Y0279051D01*
X0267266Y0289220D02*
X0266586Y0289900D01*
X0268762Y0289317D01*
X0269888Y0287366D01*
X0269305Y0285190D01*
X0267354Y0284064D01*
X0265178Y0284647D01*
X0264052Y0286598D01*
X0264635Y0288774D01*
X0266586Y0289900D01*
X0266730Y0288806D01*
X0268090Y0288441D01*
X0268794Y0287222D01*
X0268429Y0285862D01*
X0267210Y0285158D01*
X0265850Y0285523D01*
X0265146Y0286742D01*
X0265511Y0288102D01*
X0266730Y0288806D01*
X0266874Y0287711D01*
X0267418Y0287565D01*
X0267699Y0287078D01*
X0267553Y0286534D01*
X0267066Y0286253D01*
X0266522Y0286399D01*
X0266241Y0286886D01*
X0266387Y0287430D01*
X0266874Y0287711D01*
X0262266Y0297880D02*
X0261586Y0298560D01*
X0263762Y0297977D01*
X0264888Y0296026D01*
X0264305Y0293850D01*
X0262354Y0292724D01*
X0260178Y0293307D01*
X0259052Y0295258D01*
X0259635Y0297434D01*
X0261586Y0298560D01*
X0261730Y0297466D01*
X0263090Y0297101D01*
X0263794Y0295882D01*
X0263429Y0294522D01*
X0262210Y0293818D01*
X0260850Y0294183D01*
X0260146Y0295402D01*
X0260511Y0296762D01*
X0261730Y0297466D01*
X0261874Y0296371D01*
X0262418Y0296225D01*
X0262699Y0295738D01*
X0262553Y0295194D01*
X0262066Y0294913D01*
X0261522Y0295059D01*
X0261241Y0295546D01*
X0261387Y0296090D01*
X0261874Y0296371D01*
X0257266Y0306541D02*
X0256586Y0307221D01*
X0258762Y0306638D01*
X0259888Y0304687D01*
X0259305Y0302511D01*
X0257354Y0301385D01*
X0255178Y0301968D01*
X0254052Y0303919D01*
X0254635Y0306095D01*
X0256586Y0307221D01*
X0256730Y0306127D01*
X0258090Y0305762D01*
X0258794Y0304543D01*
X0258429Y0303183D01*
X0257210Y0302479D01*
X0255850Y0302844D01*
X0255146Y0304063D01*
X0255511Y0305423D01*
X0256730Y0306127D01*
X0256874Y0305032D01*
X0257418Y0304886D01*
X0257699Y0304399D01*
X0257553Y0303855D01*
X0257066Y0303574D01*
X0256522Y0303720D01*
X0256241Y0304207D01*
X0256387Y0304751D01*
X0256874Y0305032D01*
X0252266Y0315201D02*
X0251586Y0315881D01*
X0253762Y0315298D01*
X0254888Y0313347D01*
X0254305Y0311171D01*
X0252354Y0310045D01*
X0250178Y0310628D01*
X0249052Y0312579D01*
X0249635Y0314755D01*
X0251586Y0315881D01*
X0251730Y0314787D01*
X0253090Y0314422D01*
X0253794Y0313203D01*
X0253429Y0311843D01*
X0252210Y0311139D01*
X0250850Y0311504D01*
X0250146Y0312723D01*
X0250511Y0314083D01*
X0251730Y0314787D01*
X0251874Y0313692D01*
X0252418Y0313546D01*
X0252699Y0313059D01*
X0252553Y0312515D01*
X0252066Y0312234D01*
X0251522Y0312380D01*
X0251241Y0312867D01*
X0251387Y0313411D01*
X0251874Y0313692D01*
X0247266Y0323861D02*
X0246586Y0324541D01*
X0248762Y0323958D01*
X0249888Y0322007D01*
X0249305Y0319831D01*
X0247354Y0318705D01*
X0245178Y0319288D01*
X0244052Y0321239D01*
X0244635Y0323415D01*
X0246586Y0324541D01*
X0246730Y0323447D01*
X0248090Y0323082D01*
X0248794Y0321863D01*
X0248429Y0320503D01*
X0247210Y0319799D01*
X0245850Y0320164D01*
X0245146Y0321383D01*
X0245511Y0322743D01*
X0246730Y0323447D01*
X0246874Y0322352D01*
X0247418Y0322206D01*
X0247699Y0321719D01*
X0247553Y0321175D01*
X0247066Y0320894D01*
X0246522Y0321040D01*
X0246241Y0321527D01*
X0246387Y0322071D01*
X0246874Y0322352D01*
X0242266Y0332521D02*
X0241586Y0333201D01*
X0243762Y0332618D01*
X0244888Y0330667D01*
X0244305Y0328491D01*
X0242354Y0327365D01*
X0240178Y0327948D01*
X0239052Y0329899D01*
X0239635Y0332075D01*
X0241586Y0333201D01*
X0241730Y0332107D01*
X0243090Y0331742D01*
X0243794Y0330523D01*
X0243429Y0329163D01*
X0242210Y0328459D01*
X0240850Y0328824D01*
X0240146Y0330043D01*
X0240511Y0331403D01*
X0241730Y0332107D01*
X0241874Y0331012D01*
X0242418Y0330866D01*
X0242699Y0330379D01*
X0242553Y0329835D01*
X0242066Y0329554D01*
X0241522Y0329700D01*
X0241241Y0330187D01*
X0241387Y0330731D01*
X0241874Y0331012D01*
X0250926Y0337521D02*
X0250246Y0338201D01*
X0252422Y0337618D01*
X0253548Y0335667D01*
X0252965Y0333491D01*
X0251014Y0332365D01*
X0248838Y0332948D01*
X0247712Y0334899D01*
X0248295Y0337075D01*
X0250246Y0338201D01*
X0250390Y0337107D01*
X0251750Y0336742D01*
X0252454Y0335523D01*
X0252089Y0334163D01*
X0250870Y0333459D01*
X0249510Y0333824D01*
X0248806Y0335043D01*
X0249171Y0336403D01*
X0250390Y0337107D01*
X0250534Y0336012D01*
X0251078Y0335866D01*
X0251359Y0335379D01*
X0251213Y0334835D01*
X0250726Y0334554D01*
X0250182Y0334700D01*
X0249901Y0335187D01*
X0250047Y0335731D01*
X0250534Y0336012D01*
X0255926Y0328861D02*
X0255246Y0329541D01*
X0257422Y0328958D01*
X0258548Y0327007D01*
X0257965Y0324831D01*
X0256014Y0323705D01*
X0253838Y0324288D01*
X0252712Y0326239D01*
X0253295Y0328415D01*
X0255246Y0329541D01*
X0255390Y0328447D01*
X0256750Y0328082D01*
X0257454Y0326863D01*
X0257089Y0325503D01*
X0255870Y0324799D01*
X0254510Y0325164D01*
X0253806Y0326383D01*
X0254171Y0327743D01*
X0255390Y0328447D01*
X0255534Y0327352D01*
X0256078Y0327206D01*
X0256359Y0326719D01*
X0256213Y0326175D01*
X0255726Y0325894D01*
X0255182Y0326040D01*
X0254901Y0326527D01*
X0255047Y0327071D01*
X0255534Y0327352D01*
X0260926Y0320201D02*
X0260246Y0320881D01*
X0262422Y0320298D01*
X0263548Y0318347D01*
X0262965Y0316171D01*
X0261014Y0315045D01*
X0258838Y0315628D01*
X0257712Y0317579D01*
X0258295Y0319755D01*
X0260246Y0320881D01*
X0260390Y0319787D01*
X0261750Y0319422D01*
X0262454Y0318203D01*
X0262089Y0316843D01*
X0260870Y0316139D01*
X0259510Y0316504D01*
X0258806Y0317723D01*
X0259171Y0319083D01*
X0260390Y0319787D01*
X0260534Y0318692D01*
X0261078Y0318546D01*
X0261359Y0318059D01*
X0261213Y0317515D01*
X0260726Y0317234D01*
X0260182Y0317380D01*
X0259901Y0317867D01*
X0260047Y0318411D01*
X0260534Y0318692D01*
X0265926Y0311541D02*
X0265246Y0312221D01*
X0267422Y0311638D01*
X0268548Y0309687D01*
X0267965Y0307511D01*
X0266014Y0306385D01*
X0263838Y0306968D01*
X0262712Y0308919D01*
X0263295Y0311095D01*
X0265246Y0312221D01*
X0265390Y0311127D01*
X0266750Y0310762D01*
X0267454Y0309543D01*
X0267089Y0308183D01*
X0265870Y0307479D01*
X0264510Y0307844D01*
X0263806Y0309063D01*
X0264171Y0310423D01*
X0265390Y0311127D01*
X0265534Y0310032D01*
X0266078Y0309886D01*
X0266359Y0309399D01*
X0266213Y0308855D01*
X0265726Y0308574D01*
X0265182Y0308720D01*
X0264901Y0309207D01*
X0265047Y0309751D01*
X0265534Y0310032D01*
X0270926Y0302880D02*
X0270246Y0303560D01*
X0272422Y0302977D01*
X0273548Y0301026D01*
X0272965Y0298850D01*
X0271014Y0297724D01*
X0268838Y0298307D01*
X0267712Y0300258D01*
X0268295Y0302434D01*
X0270246Y0303560D01*
X0270390Y0302466D01*
X0271750Y0302101D01*
X0272454Y0300882D01*
X0272089Y0299522D01*
X0270870Y0298818D01*
X0269510Y0299183D01*
X0268806Y0300402D01*
X0269171Y0301762D01*
X0270390Y0302466D01*
X0270534Y0301371D01*
X0271078Y0301225D01*
X0271359Y0300738D01*
X0271213Y0300194D01*
X0270726Y0299913D01*
X0270182Y0300059D01*
X0269901Y0300546D01*
X0270047Y0301090D01*
X0270534Y0301371D01*
X0275926Y0294220D02*
X0275246Y0294900D01*
X0277422Y0294317D01*
X0278548Y0292366D01*
X0277965Y0290190D01*
X0276014Y0289064D01*
X0273838Y0289647D01*
X0272712Y0291598D01*
X0273295Y0293774D01*
X0275246Y0294900D01*
X0275390Y0293806D01*
X0276750Y0293441D01*
X0277454Y0292222D01*
X0277089Y0290862D01*
X0275870Y0290158D01*
X0274510Y0290523D01*
X0273806Y0291742D01*
X0274171Y0293102D01*
X0275390Y0293806D01*
X0275534Y0292711D01*
X0276078Y0292565D01*
X0276359Y0292078D01*
X0276213Y0291534D01*
X0275726Y0291253D01*
X0275182Y0291399D01*
X0274901Y0291886D01*
X0275047Y0292430D01*
X0275534Y0292711D01*
X0280926Y0285560D02*
X0280246Y0286240D01*
X0282422Y0285657D01*
X0283548Y0283706D01*
X0282965Y0281530D01*
X0281014Y0280404D01*
X0278838Y0280987D01*
X0277712Y0282938D01*
X0278295Y0285114D01*
X0280246Y0286240D01*
X0280390Y0285146D01*
X0281750Y0284781D01*
X0282454Y0283562D01*
X0282089Y0282202D01*
X0280870Y0281498D01*
X0279510Y0281863D01*
X0278806Y0283082D01*
X0279171Y0284442D01*
X0280390Y0285146D01*
X0280534Y0284051D01*
X0281078Y0283905D01*
X0281359Y0283418D01*
X0281213Y0282874D01*
X0280726Y0282593D01*
X0280182Y0282739D01*
X0279901Y0283226D01*
X0280047Y0283770D01*
X0280534Y0284051D01*
X0285926Y0276900D02*
X0285246Y0277580D01*
X0287422Y0276997D01*
X0288548Y0275046D01*
X0287965Y0272870D01*
X0286014Y0271744D01*
X0283838Y0272327D01*
X0282712Y0274278D01*
X0283295Y0276454D01*
X0285246Y0277580D01*
X0285390Y0276486D01*
X0286750Y0276121D01*
X0287454Y0274902D01*
X0287089Y0273542D01*
X0285870Y0272838D01*
X0284510Y0273203D01*
X0283806Y0274422D01*
X0284171Y0275782D01*
X0285390Y0276486D01*
X0285534Y0275391D01*
X0286078Y0275245D01*
X0286359Y0274758D01*
X0286213Y0274214D01*
X0285726Y0273933D01*
X0285182Y0274079D01*
X0284901Y0274566D01*
X0285047Y0275110D01*
X0285534Y0275391D01*
X0290926Y0268239D02*
X0290246Y0268919D01*
X0292422Y0268336D01*
X0293548Y0266385D01*
X0292965Y0264209D01*
X0291014Y0263083D01*
X0288838Y0263666D01*
X0287712Y0265617D01*
X0288295Y0267793D01*
X0290246Y0268919D01*
X0290390Y0267825D01*
X0291750Y0267460D01*
X0292454Y0266241D01*
X0292089Y0264881D01*
X0290870Y0264177D01*
X0289510Y0264542D01*
X0288806Y0265761D01*
X0289171Y0267121D01*
X0290390Y0267825D01*
X0290534Y0266730D01*
X0291078Y0266584D01*
X0291359Y0266097D01*
X0291213Y0265553D01*
X0290726Y0265272D01*
X0290182Y0265418D01*
X0289901Y0265905D01*
X0290047Y0266449D01*
X0290534Y0266730D01*
X0295926Y0259579D02*
X0295246Y0260259D01*
X0297422Y0259676D01*
X0298548Y0257725D01*
X0297965Y0255549D01*
X0296014Y0254423D01*
X0293838Y0255006D01*
X0292712Y0256957D01*
X0293295Y0259133D01*
X0295246Y0260259D01*
X0295390Y0259165D01*
X0296750Y0258800D01*
X0297454Y0257581D01*
X0297089Y0256221D01*
X0295870Y0255517D01*
X0294510Y0255882D01*
X0293806Y0257101D01*
X0294171Y0258461D01*
X0295390Y0259165D01*
X0295534Y0258070D01*
X0296078Y0257924D01*
X0296359Y0257437D01*
X0296213Y0256893D01*
X0295726Y0256612D01*
X0295182Y0256758D01*
X0294901Y0257245D01*
X0295047Y0257789D01*
X0295534Y0258070D01*
X0300926Y0250919D02*
X0300246Y0251599D01*
X0302422Y0251016D01*
X0303548Y0249065D01*
X0302965Y0246889D01*
X0301014Y0245763D01*
X0298838Y0246346D01*
X0297712Y0248297D01*
X0298295Y0250473D01*
X0300246Y0251599D01*
X0300390Y0250505D01*
X0301750Y0250140D01*
X0302454Y0248921D01*
X0302089Y0247561D01*
X0300870Y0246857D01*
X0299510Y0247222D01*
X0298806Y0248441D01*
X0299171Y0249801D01*
X0300390Y0250505D01*
X0300534Y0249410D01*
X0301078Y0249264D01*
X0301359Y0248777D01*
X0301213Y0248233D01*
X0300726Y0247952D01*
X0300182Y0248098D01*
X0299901Y0248585D01*
X0300047Y0249129D01*
X0300534Y0249410D01*
X0305926Y0242258D02*
X0305246Y0242938D01*
X0307422Y0242355D01*
X0308548Y0240404D01*
X0307965Y0238228D01*
X0306014Y0237102D01*
X0303838Y0237685D01*
X0302712Y0239636D01*
X0303295Y0241812D01*
X0305246Y0242938D01*
X0305390Y0241844D01*
X0306750Y0241479D01*
X0307454Y0240260D01*
X0307089Y0238900D01*
X0305870Y0238196D01*
X0304510Y0238561D01*
X0303806Y0239780D01*
X0304171Y0241140D01*
X0305390Y0241844D01*
X0305534Y0240749D01*
X0306078Y0240603D01*
X0306359Y0240116D01*
X0306213Y0239572D01*
X0305726Y0239291D01*
X0305182Y0239437D01*
X0304901Y0239924D01*
X0305047Y0240468D01*
X0305534Y0240749D01*
X0214645Y0318633D02*
X0213965Y0317953D01*
X0213382Y0320129D01*
X0214508Y0322080D01*
X0216684Y0322663D01*
X0218635Y0321537D01*
X0219218Y0319361D01*
X0218092Y0317410D01*
X0215916Y0316827D01*
X0213965Y0317953D01*
X0214841Y0318625D01*
X0214476Y0319985D01*
X0215180Y0321204D01*
X0216540Y0321569D01*
X0217759Y0320865D01*
X0218124Y0319505D01*
X0217420Y0318286D01*
X0216060Y0317921D01*
X0214841Y0318625D01*
X0215717Y0319297D01*
X0215571Y0319841D01*
X0215852Y0320328D01*
X0216396Y0320474D01*
X0216883Y0320193D01*
X0217029Y0319649D01*
X0216748Y0319162D01*
X0216204Y0319016D01*
X0215717Y0319297D01*
X0209645Y0309973D02*
X0208965Y0309293D01*
X0208382Y0311469D01*
X0209508Y0313420D01*
X0211684Y0314003D01*
X0213635Y0312877D01*
X0214218Y0310701D01*
X0213092Y0308750D01*
X0210916Y0308167D01*
X0208965Y0309293D01*
X0209841Y0309965D01*
X0209476Y0311325D01*
X0210180Y0312544D01*
X0211540Y0312909D01*
X0212759Y0312205D01*
X0213124Y0310845D01*
X0212420Y0309626D01*
X0211060Y0309261D01*
X0209841Y0309965D01*
X0210717Y0310637D01*
X0210571Y0311181D01*
X0210852Y0311668D01*
X0211396Y0311814D01*
X0211883Y0311533D01*
X0212029Y0310989D01*
X0211748Y0310502D01*
X0211204Y0310356D01*
X0210717Y0310637D01*
X0204645Y0301312D02*
X0203965Y0300632D01*
X0203382Y0302808D01*
X0204508Y0304759D01*
X0206684Y0305342D01*
X0208635Y0304216D01*
X0209218Y0302040D01*
X0208092Y0300089D01*
X0205916Y0299506D01*
X0203965Y0300632D01*
X0204841Y0301304D01*
X0204476Y0302664D01*
X0205180Y0303883D01*
X0206540Y0304248D01*
X0207759Y0303544D01*
X0208124Y0302184D01*
X0207420Y0300965D01*
X0206060Y0300600D01*
X0204841Y0301304D01*
X0205717Y0301976D01*
X0205571Y0302520D01*
X0205852Y0303007D01*
X0206396Y0303153D01*
X0206883Y0302872D01*
X0207029Y0302328D01*
X0206748Y0301841D01*
X0206204Y0301695D01*
X0205717Y0301976D01*
X0199645Y0292652D02*
X0198965Y0291972D01*
X0198382Y0294148D01*
X0199508Y0296099D01*
X0201684Y0296682D01*
X0203635Y0295556D01*
X0204218Y0293380D01*
X0203092Y0291429D01*
X0200916Y0290846D01*
X0198965Y0291972D01*
X0199841Y0292644D01*
X0199476Y0294004D01*
X0200180Y0295223D01*
X0201540Y0295588D01*
X0202759Y0294884D01*
X0203124Y0293524D01*
X0202420Y0292305D01*
X0201060Y0291940D01*
X0199841Y0292644D01*
X0200717Y0293316D01*
X0200571Y0293860D01*
X0200852Y0294347D01*
X0201396Y0294493D01*
X0201883Y0294212D01*
X0202029Y0293668D01*
X0201748Y0293181D01*
X0201204Y0293035D01*
X0200717Y0293316D01*
X0194645Y0283992D02*
X0193965Y0283312D01*
X0193382Y0285488D01*
X0194508Y0287439D01*
X0196684Y0288022D01*
X0198635Y0286896D01*
X0199218Y0284720D01*
X0198092Y0282769D01*
X0195916Y0282186D01*
X0193965Y0283312D01*
X0194841Y0283984D01*
X0194476Y0285344D01*
X0195180Y0286563D01*
X0196540Y0286928D01*
X0197759Y0286224D01*
X0198124Y0284864D01*
X0197420Y0283645D01*
X0196060Y0283280D01*
X0194841Y0283984D01*
X0195717Y0284656D01*
X0195571Y0285200D01*
X0195852Y0285687D01*
X0196396Y0285833D01*
X0196883Y0285552D01*
X0197029Y0285008D01*
X0196748Y0284521D01*
X0196204Y0284375D01*
X0195717Y0284656D01*
X0189645Y0275332D02*
X0188965Y0274652D01*
X0188382Y0276828D01*
X0189508Y0278779D01*
X0191684Y0279362D01*
X0193635Y0278236D01*
X0194218Y0276060D01*
X0193092Y0274109D01*
X0190916Y0273526D01*
X0188965Y0274652D01*
X0189841Y0275324D01*
X0189476Y0276684D01*
X0190180Y0277903D01*
X0191540Y0278268D01*
X0192759Y0277564D01*
X0193124Y0276204D01*
X0192420Y0274985D01*
X0191060Y0274620D01*
X0189841Y0275324D01*
X0190717Y0275996D01*
X0190571Y0276540D01*
X0190852Y0277027D01*
X0191396Y0277173D01*
X0191883Y0276892D01*
X0192029Y0276348D01*
X0191748Y0275861D01*
X0191204Y0275715D01*
X0190717Y0275996D01*
X0184645Y0266671D02*
X0183965Y0265991D01*
X0183382Y0268167D01*
X0184508Y0270118D01*
X0186684Y0270701D01*
X0188635Y0269575D01*
X0189218Y0267399D01*
X0188092Y0265448D01*
X0185916Y0264865D01*
X0183965Y0265991D01*
X0184841Y0266663D01*
X0184476Y0268023D01*
X0185180Y0269242D01*
X0186540Y0269607D01*
X0187759Y0268903D01*
X0188124Y0267543D01*
X0187420Y0266324D01*
X0186060Y0265959D01*
X0184841Y0266663D01*
X0185717Y0267335D01*
X0185571Y0267879D01*
X0185852Y0268366D01*
X0186396Y0268512D01*
X0186883Y0268231D01*
X0187029Y0267687D01*
X0186748Y0267200D01*
X0186204Y0267054D01*
X0185717Y0267335D01*
X0175985Y0271671D02*
X0175305Y0270991D01*
X0174722Y0273167D01*
X0175848Y0275118D01*
X0178024Y0275701D01*
X0179975Y0274575D01*
X0180558Y0272399D01*
X0179432Y0270448D01*
X0177256Y0269865D01*
X0175305Y0270991D01*
X0176181Y0271663D01*
X0175816Y0273023D01*
X0176520Y0274242D01*
X0177880Y0274607D01*
X0179099Y0273903D01*
X0179464Y0272543D01*
X0178760Y0271324D01*
X0177400Y0270959D01*
X0176181Y0271663D01*
X0177057Y0272335D01*
X0176911Y0272879D01*
X0177192Y0273366D01*
X0177736Y0273512D01*
X0178223Y0273231D01*
X0178369Y0272687D01*
X0178088Y0272200D01*
X0177544Y0272054D01*
X0177057Y0272335D01*
X0170985Y0263011D02*
X0170305Y0262331D01*
X0169722Y0264507D01*
X0170848Y0266458D01*
X0173024Y0267041D01*
X0174975Y0265915D01*
X0175558Y0263739D01*
X0174432Y0261788D01*
X0172256Y0261205D01*
X0170305Y0262331D01*
X0171181Y0263003D01*
X0170816Y0264363D01*
X0171520Y0265582D01*
X0172880Y0265947D01*
X0174099Y0265243D01*
X0174464Y0263883D01*
X0173760Y0262664D01*
X0172400Y0262299D01*
X0171181Y0263003D01*
X0172057Y0263675D01*
X0171911Y0264219D01*
X0172192Y0264706D01*
X0172736Y0264852D01*
X0173223Y0264571D01*
X0173369Y0264027D01*
X0173088Y0263540D01*
X0172544Y0263394D01*
X0172057Y0263675D01*
X0165985Y0254351D02*
X0165305Y0253671D01*
X0164722Y0255847D01*
X0165848Y0257798D01*
X0168024Y0258381D01*
X0169975Y0257255D01*
X0170558Y0255079D01*
X0169432Y0253128D01*
X0167256Y0252545D01*
X0165305Y0253671D01*
X0166181Y0254343D01*
X0165816Y0255703D01*
X0166520Y0256922D01*
X0167880Y0257287D01*
X0169099Y0256583D01*
X0169464Y0255223D01*
X0168760Y0254004D01*
X0167400Y0253639D01*
X0166181Y0254343D01*
X0167057Y0255015D01*
X0166911Y0255559D01*
X0167192Y0256046D01*
X0167736Y0256192D01*
X0168223Y0255911D01*
X0168369Y0255367D01*
X0168088Y0254880D01*
X0167544Y0254734D01*
X0167057Y0255015D01*
X0160985Y0245691D02*
X0160305Y0245011D01*
X0159722Y0247187D01*
X0160848Y0249138D01*
X0163024Y0249721D01*
X0164975Y0248595D01*
X0165558Y0246419D01*
X0164432Y0244468D01*
X0162256Y0243885D01*
X0160305Y0245011D01*
X0161181Y0245683D01*
X0160816Y0247043D01*
X0161520Y0248262D01*
X0162880Y0248627D01*
X0164099Y0247923D01*
X0164464Y0246563D01*
X0163760Y0245344D01*
X0162400Y0244979D01*
X0161181Y0245683D01*
X0162057Y0246355D01*
X0161911Y0246899D01*
X0162192Y0247386D01*
X0162736Y0247532D01*
X0163223Y0247251D01*
X0163369Y0246707D01*
X0163088Y0246220D01*
X0162544Y0246074D01*
X0162057Y0246355D01*
X0155985Y0237030D02*
X0155305Y0236350D01*
X0154722Y0238526D01*
X0155848Y0240477D01*
X0158024Y0241060D01*
X0159975Y0239934D01*
X0160558Y0237758D01*
X0159432Y0235807D01*
X0157256Y0235224D01*
X0155305Y0236350D01*
X0156181Y0237022D01*
X0155816Y0238382D01*
X0156520Y0239601D01*
X0157880Y0239966D01*
X0159099Y0239262D01*
X0159464Y0237902D01*
X0158760Y0236683D01*
X0157400Y0236318D01*
X0156181Y0237022D01*
X0157057Y0237694D01*
X0156911Y0238238D01*
X0157192Y0238725D01*
X0157736Y0238871D01*
X0158223Y0238590D01*
X0158369Y0238046D01*
X0158088Y0237559D01*
X0157544Y0237413D01*
X0157057Y0237694D01*
X0150985Y0228370D02*
X0150305Y0227690D01*
X0149722Y0229866D01*
X0150848Y0231817D01*
X0153024Y0232400D01*
X0154975Y0231274D01*
X0155558Y0229098D01*
X0154432Y0227147D01*
X0152256Y0226564D01*
X0150305Y0227690D01*
X0151181Y0228362D01*
X0150816Y0229722D01*
X0151520Y0230941D01*
X0152880Y0231306D01*
X0154099Y0230602D01*
X0154464Y0229242D01*
X0153760Y0228023D01*
X0152400Y0227658D01*
X0151181Y0228362D01*
X0152057Y0229034D01*
X0151911Y0229578D01*
X0152192Y0230065D01*
X0152736Y0230211D01*
X0153223Y0229930D01*
X0153369Y0229386D01*
X0153088Y0228899D01*
X0152544Y0228753D01*
X0152057Y0229034D01*
X0145985Y0219710D02*
X0145305Y0219030D01*
X0144722Y0221206D01*
X0145848Y0223157D01*
X0148024Y0223740D01*
X0149975Y0222614D01*
X0150558Y0220438D01*
X0149432Y0218487D01*
X0147256Y0217904D01*
X0145305Y0219030D01*
X0146181Y0219702D01*
X0145816Y0221062D01*
X0146520Y0222281D01*
X0147880Y0222646D01*
X0149099Y0221942D01*
X0149464Y0220582D01*
X0148760Y0219363D01*
X0147400Y0218998D01*
X0146181Y0219702D01*
X0147057Y0220374D01*
X0146911Y0220918D01*
X0147192Y0221405D01*
X0147736Y0221551D01*
X0148223Y0221270D01*
X0148369Y0220726D01*
X0148088Y0220239D01*
X0147544Y0220093D01*
X0147057Y0220374D01*
X0140985Y0211050D02*
X0140305Y0210370D01*
X0139722Y0212546D01*
X0140848Y0214497D01*
X0143024Y0215080D01*
X0144975Y0213954D01*
X0145558Y0211778D01*
X0144432Y0209827D01*
X0142256Y0209244D01*
X0140305Y0210370D01*
X0141181Y0211042D01*
X0140816Y0212402D01*
X0141520Y0213621D01*
X0142880Y0213986D01*
X0144099Y0213282D01*
X0144464Y0211922D01*
X0143760Y0210703D01*
X0142400Y0210338D01*
X0141181Y0211042D01*
X0142057Y0211714D01*
X0141911Y0212258D01*
X0142192Y0212745D01*
X0142736Y0212891D01*
X0143223Y0212610D01*
X0143369Y0212066D01*
X0143088Y0211579D01*
X0142544Y0211433D01*
X0142057Y0211714D01*
X0135985Y0202389D02*
X0135305Y0201709D01*
X0134722Y0203885D01*
X0135848Y0205836D01*
X0138024Y0206419D01*
X0139975Y0205293D01*
X0140558Y0203117D01*
X0139432Y0201166D01*
X0137256Y0200583D01*
X0135305Y0201709D01*
X0136181Y0202381D01*
X0135816Y0203741D01*
X0136520Y0204960D01*
X0137880Y0205325D01*
X0139099Y0204621D01*
X0139464Y0203261D01*
X0138760Y0202042D01*
X0137400Y0201677D01*
X0136181Y0202381D01*
X0137057Y0203053D01*
X0136911Y0203597D01*
X0137192Y0204084D01*
X0137736Y0204230D01*
X0138223Y0203949D01*
X0138369Y0203405D01*
X0138088Y0202918D01*
X0137544Y0202772D01*
X0137057Y0203053D01*
X0130985Y0193729D02*
X0130305Y0193049D01*
X0129722Y0195225D01*
X0130848Y0197176D01*
X0133024Y0197759D01*
X0134975Y0196633D01*
X0135558Y0194457D01*
X0134432Y0192506D01*
X0132256Y0191923D01*
X0130305Y0193049D01*
X0131181Y0193721D01*
X0130816Y0195081D01*
X0131520Y0196300D01*
X0132880Y0196665D01*
X0134099Y0195961D01*
X0134464Y0194601D01*
X0133760Y0193382D01*
X0132400Y0193017D01*
X0131181Y0193721D01*
X0132057Y0194393D01*
X0131911Y0194937D01*
X0132192Y0195424D01*
X0132736Y0195570D01*
X0133223Y0195289D01*
X0133369Y0194745D01*
X0133088Y0194258D01*
X0132544Y0194112D01*
X0132057Y0194393D01*
X0139645Y0188729D02*
X0138965Y0188049D01*
X0138382Y0190225D01*
X0139508Y0192176D01*
X0141684Y0192759D01*
X0143635Y0191633D01*
X0144218Y0189457D01*
X0143092Y0187506D01*
X0140916Y0186923D01*
X0138965Y0188049D01*
X0139841Y0188721D01*
X0139476Y0190081D01*
X0140180Y0191300D01*
X0141540Y0191665D01*
X0142759Y0190961D01*
X0143124Y0189601D01*
X0142420Y0188382D01*
X0141060Y0188017D01*
X0139841Y0188721D01*
X0140717Y0189393D01*
X0140571Y0189937D01*
X0140852Y0190424D01*
X0141396Y0190570D01*
X0141883Y0190289D01*
X0142029Y0189745D01*
X0141748Y0189258D01*
X0141204Y0189112D01*
X0140717Y0189393D01*
X0134645Y0180069D02*
X0133965Y0179389D01*
X0133382Y0181565D01*
X0134508Y0183516D01*
X0136684Y0184099D01*
X0138635Y0182973D01*
X0139218Y0180797D01*
X0138092Y0178846D01*
X0135916Y0178263D01*
X0133965Y0179389D01*
X0134841Y0180061D01*
X0134476Y0181421D01*
X0135180Y0182640D01*
X0136540Y0183005D01*
X0137759Y0182301D01*
X0138124Y0180941D01*
X0137420Y0179722D01*
X0136060Y0179357D01*
X0134841Y0180061D01*
X0135717Y0180733D01*
X0135571Y0181277D01*
X0135852Y0181764D01*
X0136396Y0181910D01*
X0136883Y0181629D01*
X0137029Y0181085D01*
X0136748Y0180598D01*
X0136204Y0180452D01*
X0135717Y0180733D01*
X0129645Y0171408D02*
X0128965Y0170728D01*
X0128382Y0172904D01*
X0129508Y0174855D01*
X0131684Y0175438D01*
X0133635Y0174312D01*
X0134218Y0172136D01*
X0133092Y0170185D01*
X0130916Y0169602D01*
X0128965Y0170728D01*
X0129841Y0171400D01*
X0129476Y0172760D01*
X0130180Y0173979D01*
X0131540Y0174344D01*
X0132759Y0173640D01*
X0133124Y0172280D01*
X0132420Y0171061D01*
X0131060Y0170696D01*
X0129841Y0171400D01*
X0130717Y0172072D01*
X0130571Y0172616D01*
X0130852Y0173103D01*
X0131396Y0173249D01*
X0131883Y0172968D01*
X0132029Y0172424D01*
X0131748Y0171937D01*
X0131204Y0171791D01*
X0130717Y0172072D01*
X0124645Y0162748D02*
X0123965Y0162068D01*
X0123382Y0164244D01*
X0124508Y0166195D01*
X0126684Y0166778D01*
X0128635Y0165652D01*
X0129218Y0163476D01*
X0128092Y0161525D01*
X0125916Y0160942D01*
X0123965Y0162068D01*
X0124841Y0162740D01*
X0124476Y0164100D01*
X0125180Y0165319D01*
X0126540Y0165684D01*
X0127759Y0164980D01*
X0128124Y0163620D01*
X0127420Y0162401D01*
X0126060Y0162036D01*
X0124841Y0162740D01*
X0125717Y0163412D01*
X0125571Y0163956D01*
X0125852Y0164443D01*
X0126396Y0164589D01*
X0126883Y0164308D01*
X0127029Y0163764D01*
X0126748Y0163277D01*
X0126204Y0163131D01*
X0125717Y0163412D01*
X0115985Y0167748D02*
X0115305Y0167068D01*
X0114722Y0169244D01*
X0115848Y0171195D01*
X0118024Y0171778D01*
X0119975Y0170652D01*
X0120558Y0168476D01*
X0119432Y0166525D01*
X0117256Y0165942D01*
X0115305Y0167068D01*
X0116181Y0167740D01*
X0115816Y0169100D01*
X0116520Y0170319D01*
X0117880Y0170684D01*
X0119099Y0169980D01*
X0119464Y0168620D01*
X0118760Y0167401D01*
X0117400Y0167036D01*
X0116181Y0167740D01*
X0117057Y0168412D01*
X0116911Y0168956D01*
X0117192Y0169443D01*
X0117736Y0169589D01*
X0118223Y0169308D01*
X0118369Y0168764D01*
X0118088Y0168277D01*
X0117544Y0168131D01*
X0117057Y0168412D01*
X0120985Y0176408D02*
X0120305Y0175728D01*
X0119722Y0177904D01*
X0120848Y0179855D01*
X0123024Y0180438D01*
X0124975Y0179312D01*
X0125558Y0177136D01*
X0124432Y0175185D01*
X0122256Y0174602D01*
X0120305Y0175728D01*
X0121181Y0176400D01*
X0120816Y0177760D01*
X0121520Y0178979D01*
X0122880Y0179344D01*
X0124099Y0178640D01*
X0124464Y0177280D01*
X0123760Y0176061D01*
X0122400Y0175696D01*
X0121181Y0176400D01*
X0122057Y0177072D01*
X0121911Y0177616D01*
X0122192Y0178103D01*
X0122736Y0178249D01*
X0123223Y0177968D01*
X0123369Y0177424D01*
X0123088Y0176937D01*
X0122544Y0176791D01*
X0122057Y0177072D01*
X0125985Y0185069D02*
X0125305Y0184389D01*
X0124722Y0186565D01*
X0125848Y0188516D01*
X0128024Y0189099D01*
X0129975Y0187973D01*
X0130558Y0185797D01*
X0129432Y0183846D01*
X0127256Y0183263D01*
X0125305Y0184389D01*
X0126181Y0185061D01*
X0125816Y0186421D01*
X0126520Y0187640D01*
X0127880Y0188005D01*
X0129099Y0187301D01*
X0129464Y0185941D01*
X0128760Y0184722D01*
X0127400Y0184357D01*
X0126181Y0185061D01*
X0127057Y0185733D01*
X0126911Y0186277D01*
X0127192Y0186764D01*
X0127736Y0186910D01*
X0128223Y0186629D01*
X0128369Y0186085D01*
X0128088Y0185598D01*
X0127544Y0185452D01*
X0127057Y0185733D01*
X0144645Y0197389D02*
X0143965Y0196709D01*
X0143382Y0198885D01*
X0144508Y0200836D01*
X0146684Y0201419D01*
X0148635Y0200293D01*
X0149218Y0198117D01*
X0148092Y0196166D01*
X0145916Y0195583D01*
X0143965Y0196709D01*
X0144841Y0197381D01*
X0144476Y0198741D01*
X0145180Y0199960D01*
X0146540Y0200325D01*
X0147759Y0199621D01*
X0148124Y0198261D01*
X0147420Y0197042D01*
X0146060Y0196677D01*
X0144841Y0197381D01*
X0145717Y0198053D01*
X0145571Y0198597D01*
X0145852Y0199084D01*
X0146396Y0199230D01*
X0146883Y0198949D01*
X0147029Y0198405D01*
X0146748Y0197918D01*
X0146204Y0197772D01*
X0145717Y0198053D01*
X0149645Y0206050D02*
X0148965Y0205370D01*
X0148382Y0207546D01*
X0149508Y0209497D01*
X0151684Y0210080D01*
X0153635Y0208954D01*
X0154218Y0206778D01*
X0153092Y0204827D01*
X0150916Y0204244D01*
X0148965Y0205370D01*
X0149841Y0206042D01*
X0149476Y0207402D01*
X0150180Y0208621D01*
X0151540Y0208986D01*
X0152759Y0208282D01*
X0153124Y0206922D01*
X0152420Y0205703D01*
X0151060Y0205338D01*
X0149841Y0206042D01*
X0150717Y0206714D01*
X0150571Y0207258D01*
X0150852Y0207745D01*
X0151396Y0207891D01*
X0151883Y0207610D01*
X0152029Y0207066D01*
X0151748Y0206579D01*
X0151204Y0206433D01*
X0150717Y0206714D01*
X0154645Y0214710D02*
X0153965Y0214030D01*
X0153382Y0216206D01*
X0154508Y0218157D01*
X0156684Y0218740D01*
X0158635Y0217614D01*
X0159218Y0215438D01*
X0158092Y0213487D01*
X0155916Y0212904D01*
X0153965Y0214030D01*
X0154841Y0214702D01*
X0154476Y0216062D01*
X0155180Y0217281D01*
X0156540Y0217646D01*
X0157759Y0216942D01*
X0158124Y0215582D01*
X0157420Y0214363D01*
X0156060Y0213998D01*
X0154841Y0214702D01*
X0155717Y0215374D01*
X0155571Y0215918D01*
X0155852Y0216405D01*
X0156396Y0216551D01*
X0156883Y0216270D01*
X0157029Y0215726D01*
X0156748Y0215239D01*
X0156204Y0215093D01*
X0155717Y0215374D01*
X0159645Y0223370D02*
X0158965Y0222690D01*
X0158382Y0224866D01*
X0159508Y0226817D01*
X0161684Y0227400D01*
X0163635Y0226274D01*
X0164218Y0224098D01*
X0163092Y0222147D01*
X0160916Y0221564D01*
X0158965Y0222690D01*
X0159841Y0223362D01*
X0159476Y0224722D01*
X0160180Y0225941D01*
X0161540Y0226306D01*
X0162759Y0225602D01*
X0163124Y0224242D01*
X0162420Y0223023D01*
X0161060Y0222658D01*
X0159841Y0223362D01*
X0160717Y0224034D01*
X0160571Y0224578D01*
X0160852Y0225065D01*
X0161396Y0225211D01*
X0161883Y0224930D01*
X0162029Y0224386D01*
X0161748Y0223899D01*
X0161204Y0223753D01*
X0160717Y0224034D01*
X0164645Y0232030D02*
X0163965Y0231350D01*
X0163382Y0233526D01*
X0164508Y0235477D01*
X0166684Y0236060D01*
X0168635Y0234934D01*
X0169218Y0232758D01*
X0168092Y0230807D01*
X0165916Y0230224D01*
X0163965Y0231350D01*
X0164841Y0232022D01*
X0164476Y0233382D01*
X0165180Y0234601D01*
X0166540Y0234966D01*
X0167759Y0234262D01*
X0168124Y0232902D01*
X0167420Y0231683D01*
X0166060Y0231318D01*
X0164841Y0232022D01*
X0165717Y0232694D01*
X0165571Y0233238D01*
X0165852Y0233725D01*
X0166396Y0233871D01*
X0166883Y0233590D01*
X0167029Y0233046D01*
X0166748Y0232559D01*
X0166204Y0232413D01*
X0165717Y0232694D01*
X0169645Y0240691D02*
X0168965Y0240011D01*
X0168382Y0242187D01*
X0169508Y0244138D01*
X0171684Y0244721D01*
X0173635Y0243595D01*
X0174218Y0241419D01*
X0173092Y0239468D01*
X0170916Y0238885D01*
X0168965Y0240011D01*
X0169841Y0240683D01*
X0169476Y0242043D01*
X0170180Y0243262D01*
X0171540Y0243627D01*
X0172759Y0242923D01*
X0173124Y0241563D01*
X0172420Y0240344D01*
X0171060Y0239979D01*
X0169841Y0240683D01*
X0170717Y0241355D01*
X0170571Y0241899D01*
X0170852Y0242386D01*
X0171396Y0242532D01*
X0171883Y0242251D01*
X0172029Y0241707D01*
X0171748Y0241220D01*
X0171204Y0241074D01*
X0170717Y0241355D01*
X0174645Y0249351D02*
X0173965Y0248671D01*
X0173382Y0250847D01*
X0174508Y0252798D01*
X0176684Y0253381D01*
X0178635Y0252255D01*
X0179218Y0250079D01*
X0178092Y0248128D01*
X0175916Y0247545D01*
X0173965Y0248671D01*
X0174841Y0249343D01*
X0174476Y0250703D01*
X0175180Y0251922D01*
X0176540Y0252287D01*
X0177759Y0251583D01*
X0178124Y0250223D01*
X0177420Y0249004D01*
X0176060Y0248639D01*
X0174841Y0249343D01*
X0175717Y0250015D01*
X0175571Y0250559D01*
X0175852Y0251046D01*
X0176396Y0251192D01*
X0176883Y0250911D01*
X0177029Y0250367D01*
X0176748Y0249880D01*
X0176204Y0249734D01*
X0175717Y0250015D01*
X0179645Y0258011D02*
X0178965Y0257331D01*
X0178382Y0259507D01*
X0179508Y0261458D01*
X0181684Y0262041D01*
X0183635Y0260915D01*
X0184218Y0258739D01*
X0183092Y0256788D01*
X0180916Y0256205D01*
X0178965Y0257331D01*
X0179841Y0258003D01*
X0179476Y0259363D01*
X0180180Y0260582D01*
X0181540Y0260947D01*
X0182759Y0260243D01*
X0183124Y0258883D01*
X0182420Y0257664D01*
X0181060Y0257299D01*
X0179841Y0258003D01*
X0180717Y0258675D01*
X0180571Y0259219D01*
X0180852Y0259706D01*
X0181396Y0259852D01*
X0181883Y0259571D01*
X0182029Y0259027D01*
X0181748Y0258540D01*
X0181204Y0258394D01*
X0180717Y0258675D01*
X0180985Y0280332D02*
X0180305Y0279652D01*
X0179722Y0281828D01*
X0180848Y0283779D01*
X0183024Y0284362D01*
X0184975Y0283236D01*
X0185558Y0281060D01*
X0184432Y0279109D01*
X0182256Y0278526D01*
X0180305Y0279652D01*
X0181181Y0280324D01*
X0180816Y0281684D01*
X0181520Y0282903D01*
X0182880Y0283268D01*
X0184099Y0282564D01*
X0184464Y0281204D01*
X0183760Y0279985D01*
X0182400Y0279620D01*
X0181181Y0280324D01*
X0182057Y0280996D01*
X0181911Y0281540D01*
X0182192Y0282027D01*
X0182736Y0282173D01*
X0183223Y0281892D01*
X0183369Y0281348D01*
X0183088Y0280861D01*
X0182544Y0280715D01*
X0182057Y0280996D01*
X0185985Y0288992D02*
X0185305Y0288312D01*
X0184722Y0290488D01*
X0185848Y0292439D01*
X0188024Y0293022D01*
X0189975Y0291896D01*
X0190558Y0289720D01*
X0189432Y0287769D01*
X0187256Y0287186D01*
X0185305Y0288312D01*
X0186181Y0288984D01*
X0185816Y0290344D01*
X0186520Y0291563D01*
X0187880Y0291928D01*
X0189099Y0291224D01*
X0189464Y0289864D01*
X0188760Y0288645D01*
X0187400Y0288280D01*
X0186181Y0288984D01*
X0187057Y0289656D01*
X0186911Y0290200D01*
X0187192Y0290687D01*
X0187736Y0290833D01*
X0188223Y0290552D01*
X0188369Y0290008D01*
X0188088Y0289521D01*
X0187544Y0289375D01*
X0187057Y0289656D01*
X0190985Y0297652D02*
X0190305Y0296972D01*
X0189722Y0299148D01*
X0190848Y0301099D01*
X0193024Y0301682D01*
X0194975Y0300556D01*
X0195558Y0298380D01*
X0194432Y0296429D01*
X0192256Y0295846D01*
X0190305Y0296972D01*
X0191181Y0297644D01*
X0190816Y0299004D01*
X0191520Y0300223D01*
X0192880Y0300588D01*
X0194099Y0299884D01*
X0194464Y0298524D01*
X0193760Y0297305D01*
X0192400Y0296940D01*
X0191181Y0297644D01*
X0192057Y0298316D01*
X0191911Y0298860D01*
X0192192Y0299347D01*
X0192736Y0299493D01*
X0193223Y0299212D01*
X0193369Y0298668D01*
X0193088Y0298181D01*
X0192544Y0298035D01*
X0192057Y0298316D01*
X0195985Y0306312D02*
X0195305Y0305632D01*
X0194722Y0307808D01*
X0195848Y0309759D01*
X0198024Y0310342D01*
X0199975Y0309216D01*
X0200558Y0307040D01*
X0199432Y0305089D01*
X0197256Y0304506D01*
X0195305Y0305632D01*
X0196181Y0306304D01*
X0195816Y0307664D01*
X0196520Y0308883D01*
X0197880Y0309248D01*
X0199099Y0308544D01*
X0199464Y0307184D01*
X0198760Y0305965D01*
X0197400Y0305600D01*
X0196181Y0306304D01*
X0197057Y0306976D01*
X0196911Y0307520D01*
X0197192Y0308007D01*
X0197736Y0308153D01*
X0198223Y0307872D01*
X0198369Y0307328D01*
X0198088Y0306841D01*
X0197544Y0306695D01*
X0197057Y0306976D01*
X0200985Y0314973D02*
X0200305Y0314293D01*
X0199722Y0316469D01*
X0200848Y0318420D01*
X0203024Y0319003D01*
X0204975Y0317877D01*
X0205558Y0315701D01*
X0204432Y0313750D01*
X0202256Y0313167D01*
X0200305Y0314293D01*
X0201181Y0314965D01*
X0200816Y0316325D01*
X0201520Y0317544D01*
X0202880Y0317909D01*
X0204099Y0317205D01*
X0204464Y0315845D01*
X0203760Y0314626D01*
X0202400Y0314261D01*
X0201181Y0314965D01*
X0202057Y0315637D01*
X0201911Y0316181D01*
X0202192Y0316668D01*
X0202736Y0316814D01*
X0203223Y0316533D01*
X0203369Y0315989D01*
X0203088Y0315502D01*
X0202544Y0315356D01*
X0202057Y0315637D01*
X0205985Y0323633D02*
X0205305Y0322953D01*
X0204722Y0325129D01*
X0205848Y0327080D01*
X0208024Y0327663D01*
X0209975Y0326537D01*
X0210558Y0324361D01*
X0209432Y0322410D01*
X0207256Y0321827D01*
X0205305Y0322953D01*
X0206181Y0323625D01*
X0205816Y0324985D01*
X0206520Y0326204D01*
X0207880Y0326569D01*
X0209099Y0325865D01*
X0209464Y0324505D01*
X0208760Y0323286D01*
X0207400Y0322921D01*
X0206181Y0323625D01*
X0207057Y0324297D01*
X0206911Y0324841D01*
X0207192Y0325328D01*
X0207736Y0325474D01*
X0208223Y0325193D01*
X0208369Y0324649D01*
X0208088Y0324162D01*
X0207544Y0324016D01*
X0207057Y0324297D01*
X0210985Y0332293D02*
X0210305Y0331613D01*
X0209722Y0333789D01*
X0210848Y0335740D01*
X0213024Y0336323D01*
X0214975Y0335197D01*
X0215558Y0333021D01*
X0214432Y0331070D01*
X0212256Y0330487D01*
X0210305Y0331613D01*
X0211181Y0332285D01*
X0210816Y0333645D01*
X0211520Y0334864D01*
X0212880Y0335229D01*
X0214099Y0334525D01*
X0214464Y0333165D01*
X0213760Y0331946D01*
X0212400Y0331581D01*
X0211181Y0332285D01*
X0212057Y0332957D01*
X0211911Y0333501D01*
X0212192Y0333988D01*
X0212736Y0334134D01*
X0213223Y0333853D01*
X0213369Y0333309D01*
X0213088Y0332822D01*
X0212544Y0332676D01*
X0212057Y0332957D01*
X0219645Y0327293D02*
X0218965Y0326613D01*
X0218382Y0328789D01*
X0219508Y0330740D01*
X0221684Y0331323D01*
X0223635Y0330197D01*
X0224218Y0328021D01*
X0223092Y0326070D01*
X0220916Y0325487D01*
X0218965Y0326613D01*
X0219841Y0327285D01*
X0219476Y0328645D01*
X0220180Y0329864D01*
X0221540Y0330229D01*
X0222759Y0329525D01*
X0223124Y0328165D01*
X0222420Y0326946D01*
X0221060Y0326581D01*
X0219841Y0327285D01*
X0220717Y0327957D01*
X0220571Y0328501D01*
X0220852Y0328988D01*
X0221396Y0329134D01*
X0221883Y0328853D01*
X0222029Y0328309D01*
X0221748Y0327822D01*
X0221204Y0327676D01*
X0220717Y0327957D01*
X0100985Y0141767D02*
X0100305Y0141087D01*
X0099722Y0143263D01*
X0100848Y0145214D01*
X0103024Y0145797D01*
X0104975Y0144671D01*
X0105558Y0142495D01*
X0104432Y0140544D01*
X0102256Y0139961D01*
X0100305Y0141087D01*
X0101181Y0141759D01*
X0100816Y0143119D01*
X0101520Y0144338D01*
X0102880Y0144703D01*
X0104099Y0143999D01*
X0104464Y0142639D01*
X0103760Y0141420D01*
X0102400Y0141055D01*
X0101181Y0141759D01*
X0102057Y0142431D01*
X0101911Y0142975D01*
X0102192Y0143462D01*
X0102736Y0143608D01*
X0103223Y0143327D01*
X0103369Y0142783D01*
X0103088Y0142296D01*
X0102544Y0142150D01*
X0102057Y0142431D01*
X0095985Y0133107D02*
X0095305Y0132427D01*
X0094722Y0134603D01*
X0095848Y0136554D01*
X0098024Y0137137D01*
X0099975Y0136011D01*
X0100558Y0133835D01*
X0099432Y0131884D01*
X0097256Y0131301D01*
X0095305Y0132427D01*
X0096181Y0133099D01*
X0095816Y0134459D01*
X0096520Y0135678D01*
X0097880Y0136043D01*
X0099099Y0135339D01*
X0099464Y0133979D01*
X0098760Y0132760D01*
X0097400Y0132395D01*
X0096181Y0133099D01*
X0097057Y0133771D01*
X0096911Y0134315D01*
X0097192Y0134802D01*
X0097736Y0134948D01*
X0098223Y0134667D01*
X0098369Y0134123D01*
X0098088Y0133636D01*
X0097544Y0133490D01*
X0097057Y0133771D01*
X0090985Y0124447D02*
X0090305Y0123767D01*
X0089722Y0125943D01*
X0090848Y0127894D01*
X0093024Y0128477D01*
X0094975Y0127351D01*
X0095558Y0125175D01*
X0094432Y0123224D01*
X0092256Y0122641D01*
X0090305Y0123767D01*
X0091181Y0124439D01*
X0090816Y0125799D01*
X0091520Y0127018D01*
X0092880Y0127383D01*
X0094099Y0126679D01*
X0094464Y0125319D01*
X0093760Y0124100D01*
X0092400Y0123735D01*
X0091181Y0124439D01*
X0092057Y0125111D01*
X0091911Y0125655D01*
X0092192Y0126142D01*
X0092736Y0126288D01*
X0093223Y0126007D01*
X0093369Y0125463D01*
X0093088Y0124976D01*
X0092544Y0124830D01*
X0092057Y0125111D01*
X0085985Y0115787D02*
X0085305Y0115107D01*
X0084722Y0117283D01*
X0085848Y0119234D01*
X0088024Y0119817D01*
X0089975Y0118691D01*
X0090558Y0116515D01*
X0089432Y0114564D01*
X0087256Y0113981D01*
X0085305Y0115107D01*
X0086181Y0115779D01*
X0085816Y0117139D01*
X0086520Y0118358D01*
X0087880Y0118723D01*
X0089099Y0118019D01*
X0089464Y0116659D01*
X0088760Y0115440D01*
X0087400Y0115075D01*
X0086181Y0115779D01*
X0087057Y0116451D01*
X0086911Y0116995D01*
X0087192Y0117482D01*
X0087736Y0117628D01*
X0088223Y0117347D01*
X0088369Y0116803D01*
X0088088Y0116316D01*
X0087544Y0116170D01*
X0087057Y0116451D01*
X0080985Y0107126D02*
X0080305Y0106446D01*
X0079722Y0108622D01*
X0080848Y0110573D01*
X0083024Y0111156D01*
X0084975Y0110030D01*
X0085558Y0107854D01*
X0084432Y0105903D01*
X0082256Y0105320D01*
X0080305Y0106446D01*
X0081181Y0107118D01*
X0080816Y0108478D01*
X0081520Y0109697D01*
X0082880Y0110062D01*
X0084099Y0109358D01*
X0084464Y0107998D01*
X0083760Y0106779D01*
X0082400Y0106414D01*
X0081181Y0107118D01*
X0082057Y0107790D01*
X0081911Y0108334D01*
X0082192Y0108821D01*
X0082736Y0108967D01*
X0083223Y0108686D01*
X0083369Y0108142D01*
X0083088Y0107655D01*
X0082544Y0107509D01*
X0082057Y0107790D01*
X0075985Y0098466D02*
X0075305Y0097786D01*
X0074722Y0099962D01*
X0075848Y0101913D01*
X0078024Y0102496D01*
X0079975Y0101370D01*
X0080558Y0099194D01*
X0079432Y0097243D01*
X0077256Y0096660D01*
X0075305Y0097786D01*
X0076181Y0098458D01*
X0075816Y0099818D01*
X0076520Y0101037D01*
X0077880Y0101402D01*
X0079099Y0100698D01*
X0079464Y0099338D01*
X0078760Y0098119D01*
X0077400Y0097754D01*
X0076181Y0098458D01*
X0077057Y0099130D01*
X0076911Y0099674D01*
X0077192Y0100161D01*
X0077736Y0100307D01*
X0078223Y0100026D01*
X0078369Y0099482D01*
X0078088Y0098995D01*
X0077544Y0098849D01*
X0077057Y0099130D01*
X0084645Y0093466D02*
X0083965Y0092786D01*
X0083382Y0094962D01*
X0084508Y0096913D01*
X0086684Y0097496D01*
X0088635Y0096370D01*
X0089218Y0094194D01*
X0088092Y0092243D01*
X0085916Y0091660D01*
X0083965Y0092786D01*
X0084841Y0093458D01*
X0084476Y0094818D01*
X0085180Y0096037D01*
X0086540Y0096402D01*
X0087759Y0095698D01*
X0088124Y0094338D01*
X0087420Y0093119D01*
X0086060Y0092754D01*
X0084841Y0093458D01*
X0085717Y0094130D01*
X0085571Y0094674D01*
X0085852Y0095161D01*
X0086396Y0095307D01*
X0086883Y0095026D01*
X0087029Y0094482D01*
X0086748Y0093995D01*
X0086204Y0093849D01*
X0085717Y0094130D01*
X0079645Y0084806D02*
X0078965Y0084126D01*
X0078382Y0086302D01*
X0079508Y0088253D01*
X0081684Y0088836D01*
X0083635Y0087710D01*
X0084218Y0085534D01*
X0083092Y0083583D01*
X0080916Y0083000D01*
X0078965Y0084126D01*
X0079841Y0084798D01*
X0079476Y0086158D01*
X0080180Y0087377D01*
X0081540Y0087742D01*
X0082759Y0087038D01*
X0083124Y0085678D01*
X0082420Y0084459D01*
X0081060Y0084094D01*
X0079841Y0084798D01*
X0080717Y0085470D01*
X0080571Y0086014D01*
X0080852Y0086501D01*
X0081396Y0086647D01*
X0081883Y0086366D01*
X0082029Y0085822D01*
X0081748Y0085335D01*
X0081204Y0085189D01*
X0080717Y0085470D01*
X0074645Y0076146D02*
X0073965Y0075466D01*
X0073382Y0077642D01*
X0074508Y0079593D01*
X0076684Y0080176D01*
X0078635Y0079050D01*
X0079218Y0076874D01*
X0078092Y0074923D01*
X0075916Y0074340D01*
X0073965Y0075466D01*
X0074841Y0076138D01*
X0074476Y0077498D01*
X0075180Y0078717D01*
X0076540Y0079082D01*
X0077759Y0078378D01*
X0078124Y0077018D01*
X0077420Y0075799D01*
X0076060Y0075434D01*
X0074841Y0076138D01*
X0075717Y0076810D01*
X0075571Y0077354D01*
X0075852Y0077841D01*
X0076396Y0077987D01*
X0076883Y0077706D01*
X0077029Y0077162D01*
X0076748Y0076675D01*
X0076204Y0076529D01*
X0075717Y0076810D01*
X0069645Y0067485D02*
X0068965Y0066805D01*
X0068382Y0068981D01*
X0069508Y0070932D01*
X0071684Y0071515D01*
X0073635Y0070389D01*
X0074218Y0068213D01*
X0073092Y0066262D01*
X0070916Y0065679D01*
X0068965Y0066805D01*
X0069841Y0067477D01*
X0069476Y0068837D01*
X0070180Y0070056D01*
X0071540Y0070421D01*
X0072759Y0069717D01*
X0073124Y0068357D01*
X0072420Y0067138D01*
X0071060Y0066773D01*
X0069841Y0067477D01*
X0070717Y0068149D01*
X0070571Y0068693D01*
X0070852Y0069180D01*
X0071396Y0069326D01*
X0071883Y0069045D01*
X0072029Y0068501D01*
X0071748Y0068014D01*
X0071204Y0067868D01*
X0070717Y0068149D01*
X0060985Y0072485D02*
X0060305Y0071805D01*
X0059722Y0073981D01*
X0060848Y0075932D01*
X0063024Y0076515D01*
X0064975Y0075389D01*
X0065558Y0073213D01*
X0064432Y0071262D01*
X0062256Y0070679D01*
X0060305Y0071805D01*
X0061181Y0072477D01*
X0060816Y0073837D01*
X0061520Y0075056D01*
X0062880Y0075421D01*
X0064099Y0074717D01*
X0064464Y0073357D01*
X0063760Y0072138D01*
X0062400Y0071773D01*
X0061181Y0072477D01*
X0062057Y0073149D01*
X0061911Y0073693D01*
X0062192Y0074180D01*
X0062736Y0074326D01*
X0063223Y0074045D01*
X0063369Y0073501D01*
X0063088Y0073014D01*
X0062544Y0072868D01*
X0062057Y0073149D01*
X0055985Y0063825D02*
X0055305Y0063145D01*
X0054722Y0065321D01*
X0055848Y0067272D01*
X0058024Y0067855D01*
X0059975Y0066729D01*
X0060558Y0064553D01*
X0059432Y0062602D01*
X0057256Y0062019D01*
X0055305Y0063145D01*
X0056181Y0063817D01*
X0055816Y0065177D01*
X0056520Y0066396D01*
X0057880Y0066761D01*
X0059099Y0066057D01*
X0059464Y0064697D01*
X0058760Y0063478D01*
X0057400Y0063113D01*
X0056181Y0063817D01*
X0057057Y0064489D01*
X0056911Y0065033D01*
X0057192Y0065520D01*
X0057736Y0065666D01*
X0058223Y0065385D01*
X0058369Y0064841D01*
X0058088Y0064354D01*
X0057544Y0064208D01*
X0057057Y0064489D01*
X0050985Y0055165D02*
X0050305Y0054485D01*
X0049722Y0056661D01*
X0050848Y0058612D01*
X0053024Y0059195D01*
X0054975Y0058069D01*
X0055558Y0055893D01*
X0054432Y0053942D01*
X0052256Y0053359D01*
X0050305Y0054485D01*
X0051181Y0055157D01*
X0050816Y0056517D01*
X0051520Y0057736D01*
X0052880Y0058101D01*
X0054099Y0057397D01*
X0054464Y0056037D01*
X0053760Y0054818D01*
X0052400Y0054453D01*
X0051181Y0055157D01*
X0052057Y0055829D01*
X0051911Y0056373D01*
X0052192Y0056860D01*
X0052736Y0057006D01*
X0053223Y0056725D01*
X0053369Y0056181D01*
X0053088Y0055694D01*
X0052544Y0055548D01*
X0052057Y0055829D01*
X0045985Y0046505D02*
X0045305Y0045825D01*
X0044722Y0048001D01*
X0045848Y0049952D01*
X0048024Y0050535D01*
X0049975Y0049409D01*
X0050558Y0047233D01*
X0049432Y0045282D01*
X0047256Y0044699D01*
X0045305Y0045825D01*
X0046181Y0046497D01*
X0045816Y0047857D01*
X0046520Y0049076D01*
X0047880Y0049441D01*
X0049099Y0048737D01*
X0049464Y0047377D01*
X0048760Y0046158D01*
X0047400Y0045793D01*
X0046181Y0046497D01*
X0047057Y0047169D01*
X0046911Y0047713D01*
X0047192Y0048200D01*
X0047736Y0048346D01*
X0048223Y0048065D01*
X0048369Y0047521D01*
X0048088Y0047034D01*
X0047544Y0046888D01*
X0047057Y0047169D01*
X0054645Y0041505D02*
X0053965Y0040825D01*
X0053382Y0043001D01*
X0054508Y0044952D01*
X0056684Y0045535D01*
X0058635Y0044409D01*
X0059218Y0042233D01*
X0058092Y0040282D01*
X0055916Y0039699D01*
X0053965Y0040825D01*
X0054841Y0041497D01*
X0054476Y0042857D01*
X0055180Y0044076D01*
X0056540Y0044441D01*
X0057759Y0043737D01*
X0058124Y0042377D01*
X0057420Y0041158D01*
X0056060Y0040793D01*
X0054841Y0041497D01*
X0055717Y0042169D01*
X0055571Y0042713D01*
X0055852Y0043200D01*
X0056396Y0043346D01*
X0056883Y0043065D01*
X0057029Y0042521D01*
X0056748Y0042034D01*
X0056204Y0041888D01*
X0055717Y0042169D01*
X0059645Y0050165D02*
X0058965Y0049485D01*
X0058382Y0051661D01*
X0059508Y0053612D01*
X0061684Y0054195D01*
X0063635Y0053069D01*
X0064218Y0050893D01*
X0063092Y0048942D01*
X0060916Y0048359D01*
X0058965Y0049485D01*
X0059841Y0050157D01*
X0059476Y0051517D01*
X0060180Y0052736D01*
X0061540Y0053101D01*
X0062759Y0052397D01*
X0063124Y0051037D01*
X0062420Y0049818D01*
X0061060Y0049453D01*
X0059841Y0050157D01*
X0060717Y0050829D01*
X0060571Y0051373D01*
X0060852Y0051860D01*
X0061396Y0052006D01*
X0061883Y0051725D01*
X0062029Y0051181D01*
X0061748Y0050694D01*
X0061204Y0050548D01*
X0060717Y0050829D01*
X0064645Y0058825D02*
X0063965Y0058145D01*
X0063382Y0060321D01*
X0064508Y0062272D01*
X0066684Y0062855D01*
X0068635Y0061729D01*
X0069218Y0059553D01*
X0068092Y0057602D01*
X0065916Y0057019D01*
X0063965Y0058145D01*
X0064841Y0058817D01*
X0064476Y0060177D01*
X0065180Y0061396D01*
X0066540Y0061761D01*
X0067759Y0061057D01*
X0068124Y0059697D01*
X0067420Y0058478D01*
X0066060Y0058113D01*
X0064841Y0058817D01*
X0065717Y0059489D01*
X0065571Y0060033D01*
X0065852Y0060520D01*
X0066396Y0060666D01*
X0066883Y0060385D01*
X0067029Y0059841D01*
X0066748Y0059354D01*
X0066204Y0059208D01*
X0065717Y0059489D01*
X0065985Y0081146D02*
X0065305Y0080466D01*
X0064722Y0082642D01*
X0065848Y0084593D01*
X0068024Y0085176D01*
X0069975Y0084050D01*
X0070558Y0081874D01*
X0069432Y0079923D01*
X0067256Y0079340D01*
X0065305Y0080466D01*
X0066181Y0081138D01*
X0065816Y0082498D01*
X0066520Y0083717D01*
X0067880Y0084082D01*
X0069099Y0083378D01*
X0069464Y0082018D01*
X0068760Y0080799D01*
X0067400Y0080434D01*
X0066181Y0081138D01*
X0067057Y0081810D01*
X0066911Y0082354D01*
X0067192Y0082841D01*
X0067736Y0082987D01*
X0068223Y0082706D01*
X0068369Y0082162D01*
X0068088Y0081675D01*
X0067544Y0081529D01*
X0067057Y0081810D01*
X0070985Y0089806D02*
X0070305Y0089126D01*
X0069722Y0091302D01*
X0070848Y0093253D01*
X0073024Y0093836D01*
X0074975Y0092710D01*
X0075558Y0090534D01*
X0074432Y0088583D01*
X0072256Y0088000D01*
X0070305Y0089126D01*
X0071181Y0089798D01*
X0070816Y0091158D01*
X0071520Y0092377D01*
X0072880Y0092742D01*
X0074099Y0092038D01*
X0074464Y0090678D01*
X0073760Y0089459D01*
X0072400Y0089094D01*
X0071181Y0089798D01*
X0072057Y0090470D01*
X0071911Y0091014D01*
X0072192Y0091501D01*
X0072736Y0091647D01*
X0073223Y0091366D01*
X0073369Y0090822D01*
X0073088Y0090335D01*
X0072544Y0090189D01*
X0072057Y0090470D01*
X0089645Y0102126D02*
X0088965Y0101446D01*
X0088382Y0103622D01*
X0089508Y0105573D01*
X0091684Y0106156D01*
X0093635Y0105030D01*
X0094218Y0102854D01*
X0093092Y0100903D01*
X0090916Y0100320D01*
X0088965Y0101446D01*
X0089841Y0102118D01*
X0089476Y0103478D01*
X0090180Y0104697D01*
X0091540Y0105062D01*
X0092759Y0104358D01*
X0093124Y0102998D01*
X0092420Y0101779D01*
X0091060Y0101414D01*
X0089841Y0102118D01*
X0090717Y0102790D01*
X0090571Y0103334D01*
X0090852Y0103821D01*
X0091396Y0103967D01*
X0091883Y0103686D01*
X0092029Y0103142D01*
X0091748Y0102655D01*
X0091204Y0102509D01*
X0090717Y0102790D01*
X0094645Y0110787D02*
X0093965Y0110107D01*
X0093382Y0112283D01*
X0094508Y0114234D01*
X0096684Y0114817D01*
X0098635Y0113691D01*
X0099218Y0111515D01*
X0098092Y0109564D01*
X0095916Y0108981D01*
X0093965Y0110107D01*
X0094841Y0110779D01*
X0094476Y0112139D01*
X0095180Y0113358D01*
X0096540Y0113723D01*
X0097759Y0113019D01*
X0098124Y0111659D01*
X0097420Y0110440D01*
X0096060Y0110075D01*
X0094841Y0110779D01*
X0095717Y0111451D01*
X0095571Y0111995D01*
X0095852Y0112482D01*
X0096396Y0112628D01*
X0096883Y0112347D01*
X0097029Y0111803D01*
X0096748Y0111316D01*
X0096204Y0111170D01*
X0095717Y0111451D01*
X0099645Y0119447D02*
X0098965Y0118767D01*
X0098382Y0120943D01*
X0099508Y0122894D01*
X0101684Y0123477D01*
X0103635Y0122351D01*
X0104218Y0120175D01*
X0103092Y0118224D01*
X0100916Y0117641D01*
X0098965Y0118767D01*
X0099841Y0119439D01*
X0099476Y0120799D01*
X0100180Y0122018D01*
X0101540Y0122383D01*
X0102759Y0121679D01*
X0103124Y0120319D01*
X0102420Y0119100D01*
X0101060Y0118735D01*
X0099841Y0119439D01*
X0100717Y0120111D01*
X0100571Y0120655D01*
X0100852Y0121142D01*
X0101396Y0121288D01*
X0101883Y0121007D01*
X0102029Y0120463D01*
X0101748Y0119976D01*
X0101204Y0119830D01*
X0100717Y0120111D01*
X0104645Y0128107D02*
X0103965Y0127427D01*
X0103382Y0129603D01*
X0104508Y0131554D01*
X0106684Y0132137D01*
X0108635Y0131011D01*
X0109218Y0128835D01*
X0108092Y0126884D01*
X0105916Y0126301D01*
X0103965Y0127427D01*
X0104841Y0128099D01*
X0104476Y0129459D01*
X0105180Y0130678D01*
X0106540Y0131043D01*
X0107759Y0130339D01*
X0108124Y0128979D01*
X0107420Y0127760D01*
X0106060Y0127395D01*
X0104841Y0128099D01*
X0105717Y0128771D01*
X0105571Y0129315D01*
X0105852Y0129802D01*
X0106396Y0129948D01*
X0106883Y0129667D01*
X0107029Y0129123D01*
X0106748Y0128636D01*
X0106204Y0128490D01*
X0105717Y0128771D01*
X0109645Y0136767D02*
X0108965Y0136087D01*
X0108382Y0138263D01*
X0109508Y0140214D01*
X0111684Y0140797D01*
X0113635Y0139671D01*
X0114218Y0137495D01*
X0113092Y0135544D01*
X0110916Y0134961D01*
X0108965Y0136087D01*
X0109841Y0136759D01*
X0109476Y0138119D01*
X0110180Y0139338D01*
X0111540Y0139703D01*
X0112759Y0138999D01*
X0113124Y0137639D01*
X0112420Y0136420D01*
X0111060Y0136055D01*
X0109841Y0136759D01*
X0110717Y0137431D01*
X0110571Y0137975D01*
X0110852Y0138462D01*
X0111396Y0138608D01*
X0111883Y0138327D01*
X0112029Y0137783D01*
X0111748Y0137296D01*
X0111204Y0137150D01*
X0110717Y0137431D01*
D12*
X0114743Y0145493D02*
X0114103Y0144853D01*
X0113553Y0146902D01*
X0114613Y0148737D01*
X0116662Y0149287D01*
X0118497Y0148227D01*
X0119047Y0146178D01*
X0117987Y0144343D01*
X0115938Y0143793D01*
X0114103Y0144853D01*
X0114927Y0145486D01*
X0114584Y0146766D01*
X0115246Y0147913D01*
X0116526Y0148256D01*
X0117673Y0147594D01*
X0118016Y0146314D01*
X0117354Y0145167D01*
X0116074Y0144824D01*
X0114927Y0145486D01*
X0115751Y0146119D01*
X0115614Y0146630D01*
X0115879Y0147089D01*
X0116390Y0147226D01*
X0116849Y0146961D01*
X0116986Y0146450D01*
X0116721Y0145991D01*
X0116210Y0145854D01*
X0115751Y0146119D01*
X0106083Y0150493D02*
X0105443Y0149853D01*
X0104893Y0151902D01*
X0105953Y0153737D01*
X0108002Y0154287D01*
X0109837Y0153227D01*
X0110387Y0151178D01*
X0109327Y0149343D01*
X0107278Y0148793D01*
X0105443Y0149853D01*
X0106267Y0150486D01*
X0105924Y0151766D01*
X0106586Y0152913D01*
X0107866Y0153256D01*
X0109013Y0152594D01*
X0109356Y0151314D01*
X0108694Y0150167D01*
X0107414Y0149824D01*
X0106267Y0150486D01*
X0107091Y0151119D01*
X0106954Y0151630D01*
X0107219Y0152089D01*
X0107730Y0152226D01*
X0108189Y0151961D01*
X0108326Y0151450D01*
X0108061Y0150991D01*
X0107550Y0150854D01*
X0107091Y0151119D01*
X0111083Y0159153D02*
X0110443Y0158513D01*
X0109893Y0160562D01*
X0110953Y0162397D01*
X0113002Y0162947D01*
X0114837Y0161887D01*
X0115387Y0159838D01*
X0114327Y0158003D01*
X0112278Y0157453D01*
X0110443Y0158513D01*
X0111267Y0159146D01*
X0110924Y0160426D01*
X0111586Y0161573D01*
X0112866Y0161916D01*
X0114013Y0161254D01*
X0114356Y0159974D01*
X0113694Y0158827D01*
X0112414Y0158484D01*
X0111267Y0159146D01*
X0112091Y0159779D01*
X0111954Y0160290D01*
X0112219Y0160749D01*
X0112730Y0160886D01*
X0113189Y0160621D01*
X0113326Y0160110D01*
X0113061Y0159651D01*
X0112550Y0159514D01*
X0112091Y0159779D01*
X0119743Y0154153D02*
X0119103Y0153513D01*
X0118553Y0155562D01*
X0119613Y0157397D01*
X0121662Y0157947D01*
X0123497Y0156887D01*
X0124047Y0154838D01*
X0122987Y0153003D01*
X0120938Y0152453D01*
X0119103Y0153513D01*
X0119927Y0154146D01*
X0119584Y0155426D01*
X0120246Y0156573D01*
X0121526Y0156916D01*
X0122673Y0156254D01*
X0123016Y0154974D01*
X0122354Y0153827D01*
X0121074Y0153484D01*
X0119927Y0154146D01*
X0120751Y0154779D01*
X0120614Y0155290D01*
X0120879Y0155749D01*
X0121390Y0155886D01*
X0121849Y0155621D01*
X0121986Y0155110D01*
X0121721Y0154651D01*
X0121210Y0154514D01*
X0120751Y0154779D01*
X0302248Y0228467D02*
X0301608Y0229107D01*
X0303657Y0228557D01*
X0304717Y0226722D01*
X0304167Y0224673D01*
X0302332Y0223613D01*
X0300283Y0224163D01*
X0299223Y0225998D01*
X0299773Y0228047D01*
X0301608Y0229107D01*
X0301744Y0228076D01*
X0303024Y0227733D01*
X0303686Y0226586D01*
X0303343Y0225306D01*
X0302196Y0224644D01*
X0300916Y0224987D01*
X0300254Y0226134D01*
X0300597Y0227414D01*
X0301744Y0228076D01*
X0301880Y0227046D01*
X0302391Y0226909D01*
X0302656Y0226450D01*
X0302519Y0225939D01*
X0302060Y0225674D01*
X0301549Y0225811D01*
X0301284Y0226270D01*
X0301421Y0226781D01*
X0301880Y0227046D01*
X0310908Y0233467D02*
X0310268Y0234107D01*
X0312317Y0233557D01*
X0313377Y0231722D01*
X0312827Y0229673D01*
X0310992Y0228613D01*
X0308943Y0229163D01*
X0307883Y0230998D01*
X0308433Y0233047D01*
X0310268Y0234107D01*
X0310404Y0233076D01*
X0311684Y0232733D01*
X0312346Y0231586D01*
X0312003Y0230306D01*
X0310856Y0229644D01*
X0309576Y0229987D01*
X0308914Y0231134D01*
X0309257Y0232414D01*
X0310404Y0233076D01*
X0310540Y0232046D01*
X0311051Y0231909D01*
X0311316Y0231450D01*
X0311179Y0230939D01*
X0310720Y0230674D01*
X0310209Y0230811D01*
X0309944Y0231270D01*
X0310081Y0231781D01*
X0310540Y0232046D01*
X0315908Y0224807D02*
X0315268Y0225447D01*
X0317317Y0224897D01*
X0318377Y0223062D01*
X0317827Y0221013D01*
X0315992Y0219953D01*
X0313943Y0220503D01*
X0312883Y0222338D01*
X0313433Y0224387D01*
X0315268Y0225447D01*
X0315404Y0224416D01*
X0316684Y0224073D01*
X0317346Y0222926D01*
X0317003Y0221646D01*
X0315856Y0220984D01*
X0314576Y0221327D01*
X0313914Y0222474D01*
X0314257Y0223754D01*
X0315404Y0224416D01*
X0315540Y0223386D01*
X0316051Y0223249D01*
X0316316Y0222790D01*
X0316179Y0222279D01*
X0315720Y0222014D01*
X0315209Y0222151D01*
X0314944Y0222610D01*
X0315081Y0223121D01*
X0315540Y0223386D01*
X0307248Y0219807D02*
X0306608Y0220447D01*
X0308657Y0219897D01*
X0309717Y0218062D01*
X0309167Y0216013D01*
X0307332Y0214953D01*
X0305283Y0215503D01*
X0304223Y0217338D01*
X0304773Y0219387D01*
X0306608Y0220447D01*
X0306744Y0219416D01*
X0308024Y0219073D01*
X0308686Y0217926D01*
X0308343Y0216646D01*
X0307196Y0215984D01*
X0305916Y0216327D01*
X0305254Y0217474D01*
X0305597Y0218754D01*
X0306744Y0219416D01*
X0306880Y0218386D01*
X0307391Y0218249D01*
X0307656Y0217790D01*
X0307519Y0217279D01*
X0307060Y0217014D01*
X0306549Y0217151D01*
X0306284Y0217610D01*
X0306421Y0218121D01*
X0306880Y0218386D01*
D13*
X0306300Y0030200D03*
X0306300Y0020200D03*
X0316300Y0020200D03*
X0316300Y0030200D03*
X0326300Y0030200D03*
X0326300Y0020200D03*
X0336300Y0020200D03*
X0336300Y0030200D03*
X0346300Y0030200D03*
X0346300Y0020200D03*
X0356300Y0020200D03*
X0356300Y0030200D03*
X0366300Y0030200D03*
X0366300Y0020200D03*
X0376300Y0020200D03*
X0376300Y0030200D03*
X0386300Y0030200D03*
X0386300Y0020200D03*
X0396300Y0020200D03*
X0396300Y0030200D03*
X0296300Y0030200D03*
X0296300Y0020200D03*
X0286300Y0020200D03*
X0286300Y0030200D03*
X0256300Y0030200D03*
X0256300Y0020200D03*
X0246300Y0020200D03*
X0246300Y0030200D03*
X0236300Y0030200D03*
X0236300Y0020200D03*
X0226300Y0020200D03*
X0226300Y0030200D03*
X0216300Y0030200D03*
X0216300Y0020200D03*
X0206300Y0020200D03*
X0206300Y0030200D03*
X0196300Y0030200D03*
X0196300Y0020200D03*
X0186300Y0020200D03*
X0186300Y0030200D03*
X0176300Y0030200D03*
X0176300Y0020200D03*
X0166300Y0020200D03*
X0166300Y0030200D03*
X0156300Y0030200D03*
X0156300Y0020200D03*
X0146300Y0020200D03*
X0146300Y0030200D03*
X0136300Y0030200D03*
X0136300Y0020200D03*
X0126300Y0020200D03*
X0126300Y0030200D03*
X0116300Y0030200D03*
X0116300Y0020200D03*
X0106300Y0020200D03*
X0106300Y0030200D03*
X0096300Y0030200D03*
X0096300Y0020200D03*
X0086300Y0020200D03*
X0086300Y0030200D03*
X0076300Y0030200D03*
X0076300Y0020200D03*
X0066300Y0020200D03*
X0066300Y0030200D03*
D14*
X0266300Y0030200D03*
X0266300Y0020200D03*
X0276300Y0020200D03*
X0276300Y0030200D03*
M02*
