G75*
%MOIN*%
%OFA0B0*%
%FSLAX25Y25*%
%IPPOS*%
%LPD*%
%AMOC8*
5,1,8,0,0,1.08239X$1,22.5*
%
%ADD10C,0.00600*%
%ADD11C,0.00500*%
D10*
X0042975Y0044537D02*
X0055965Y0037037D01*
X0059380Y0037952D01*
X0061880Y0042282D01*
X0060965Y0045697D01*
X0064380Y0046612D01*
X0066880Y0050942D01*
X0065965Y0054357D01*
X0069380Y0055272D01*
X0071880Y0059602D01*
X0070965Y0063017D01*
X0074380Y0063932D01*
X0076880Y0068263D01*
X0075965Y0071678D01*
X0079380Y0072593D01*
X0081880Y0076923D01*
X0080965Y0080338D01*
X0084380Y0081253D01*
X0086880Y0085583D01*
X0085965Y0088998D01*
X0089380Y0089913D01*
X0091880Y0094243D01*
X0090965Y0097658D01*
X0094380Y0098573D01*
X0096880Y0102904D01*
X0095965Y0106319D01*
X0099380Y0107234D01*
X0101880Y0111564D01*
X0100965Y0114979D01*
X0104380Y0115894D01*
X0106880Y0120224D01*
X0105965Y0123639D01*
X0109380Y0124554D01*
X0111880Y0128884D01*
X0110965Y0132299D01*
X0114380Y0133214D01*
X0116880Y0137545D01*
X0115965Y0140960D01*
X0102975Y0148460D01*
X0099560Y0147545D01*
X0097060Y0143214D01*
X0097975Y0139799D01*
X0094560Y0138884D01*
X0092060Y0134554D01*
X0092975Y0131139D01*
X0089560Y0130224D01*
X0087060Y0125894D01*
X0087975Y0122479D01*
X0084560Y0121564D01*
X0082060Y0117234D01*
X0082975Y0113819D01*
X0079560Y0112904D01*
X0077060Y0108573D01*
X0077975Y0105158D01*
X0074560Y0104243D01*
X0072060Y0099913D01*
X0072975Y0096498D01*
X0069560Y0095583D01*
X0067060Y0091253D01*
X0067975Y0087838D01*
X0064560Y0086923D01*
X0062060Y0082593D01*
X0062975Y0079178D01*
X0059560Y0078263D01*
X0057060Y0073932D01*
X0057975Y0070517D01*
X0054560Y0069602D01*
X0052060Y0065272D01*
X0052975Y0061857D01*
X0049560Y0060942D01*
X0047060Y0056612D01*
X0047975Y0053197D01*
X0044560Y0052282D01*
X0042060Y0047952D01*
X0042975Y0044537D01*
X0061300Y0032700D02*
X0063800Y0035200D01*
X0068800Y0035200D01*
X0071300Y0032700D01*
X0073800Y0035200D01*
X0078800Y0035200D01*
X0081300Y0032700D01*
X0083800Y0035200D01*
X0088800Y0035200D01*
X0091300Y0032700D01*
X0093800Y0035200D01*
X0098800Y0035200D01*
X0101300Y0032700D01*
X0103800Y0035200D01*
X0108800Y0035200D01*
X0111300Y0032700D01*
X0113800Y0035200D01*
X0118800Y0035200D01*
X0121300Y0032700D01*
X0123800Y0035200D01*
X0128800Y0035200D01*
X0131300Y0032700D01*
X0133800Y0035200D01*
X0138800Y0035200D01*
X0141300Y0032700D01*
X0143800Y0035200D01*
X0148800Y0035200D01*
X0151300Y0032700D01*
X0153800Y0035200D01*
X0158800Y0035200D01*
X0161300Y0032700D01*
X0163800Y0035200D01*
X0168800Y0035200D01*
X0171300Y0032700D01*
X0173800Y0035200D01*
X0178800Y0035200D01*
X0181300Y0032700D01*
X0183800Y0035200D01*
X0188800Y0035200D01*
X0191300Y0032700D01*
X0193800Y0035200D01*
X0198800Y0035200D01*
X0201300Y0032700D01*
X0203800Y0035200D01*
X0208800Y0035200D01*
X0211300Y0032700D01*
X0213800Y0035200D01*
X0218800Y0035200D01*
X0221300Y0032700D01*
X0223800Y0035200D01*
X0228800Y0035200D01*
X0231300Y0032700D01*
X0233800Y0035200D01*
X0238800Y0035200D01*
X0241300Y0032700D01*
X0243800Y0035200D01*
X0248800Y0035200D01*
X0251300Y0032700D01*
X0253800Y0035200D01*
X0258800Y0035200D01*
X0261300Y0032700D01*
X0261300Y0017700D01*
X0258800Y0015200D01*
X0253800Y0015200D01*
X0251300Y0017700D01*
X0248800Y0015200D01*
X0243800Y0015200D01*
X0241300Y0017700D01*
X0238800Y0015200D01*
X0233800Y0015200D01*
X0231300Y0017700D01*
X0228800Y0015200D01*
X0223800Y0015200D01*
X0221300Y0017700D01*
X0218800Y0015200D01*
X0213800Y0015200D01*
X0211300Y0017700D01*
X0208800Y0015200D01*
X0203800Y0015200D01*
X0201300Y0017700D01*
X0198800Y0015200D01*
X0193800Y0015200D01*
X0191300Y0017700D01*
X0188800Y0015200D01*
X0183800Y0015200D01*
X0181300Y0017700D01*
X0178800Y0015200D01*
X0173800Y0015200D01*
X0171300Y0017700D01*
X0168800Y0015200D01*
X0163800Y0015200D01*
X0161300Y0017700D01*
X0158800Y0015200D01*
X0153800Y0015200D01*
X0151300Y0017700D01*
X0148800Y0015200D01*
X0143800Y0015200D01*
X0141300Y0017700D01*
X0138800Y0015200D01*
X0133800Y0015200D01*
X0131300Y0017700D01*
X0128800Y0015200D01*
X0123800Y0015200D01*
X0121300Y0017700D01*
X0118800Y0015200D01*
X0113800Y0015200D01*
X0111300Y0017700D01*
X0108800Y0015200D01*
X0103800Y0015200D01*
X0101300Y0017700D01*
X0098800Y0015200D01*
X0093800Y0015200D01*
X0091300Y0017700D01*
X0088800Y0015200D01*
X0083800Y0015200D01*
X0081300Y0017700D01*
X0078800Y0015200D01*
X0073800Y0015200D01*
X0071300Y0017700D01*
X0068800Y0015200D01*
X0063800Y0015200D01*
X0061300Y0017700D01*
X0061300Y0032700D01*
X0116831Y0140460D02*
X0118880Y0141009D01*
X0122380Y0147071D01*
X0121831Y0149120D01*
X0123880Y0149669D01*
X0127380Y0155731D01*
X0126831Y0157780D01*
X0112109Y0166280D01*
X0110060Y0165731D01*
X0106560Y0159669D01*
X0107109Y0157620D01*
X0105060Y0157071D01*
X0101560Y0151009D01*
X0102109Y0148960D01*
X0116831Y0140460D01*
X0125965Y0158280D02*
X0129380Y0159195D01*
X0131880Y0163525D01*
X0130965Y0166940D01*
X0134380Y0167855D01*
X0136880Y0172186D01*
X0135965Y0175601D01*
X0139380Y0176516D01*
X0141880Y0180846D01*
X0140965Y0184261D01*
X0144380Y0185176D01*
X0146880Y0189506D01*
X0145965Y0192921D01*
X0149380Y0193836D01*
X0151880Y0198166D01*
X0150965Y0201581D01*
X0154380Y0202496D01*
X0156880Y0206827D01*
X0155965Y0210242D01*
X0159380Y0211157D01*
X0161880Y0215487D01*
X0160965Y0218902D01*
X0164380Y0219817D01*
X0166880Y0224147D01*
X0165965Y0227562D01*
X0169380Y0228477D01*
X0171880Y0232807D01*
X0170965Y0236222D01*
X0174380Y0237137D01*
X0176880Y0241468D01*
X0175965Y0244883D01*
X0179380Y0245798D01*
X0181880Y0250128D01*
X0180965Y0253543D01*
X0184380Y0254458D01*
X0186880Y0258788D01*
X0185965Y0262203D01*
X0189380Y0263118D01*
X0191880Y0267448D01*
X0190965Y0270863D01*
X0194380Y0271778D01*
X0196880Y0276109D01*
X0195965Y0279524D01*
X0199380Y0280439D01*
X0201880Y0284769D01*
X0200965Y0288184D01*
X0204380Y0289099D01*
X0206880Y0293429D01*
X0205965Y0296844D01*
X0209380Y0297759D01*
X0211880Y0302089D01*
X0210965Y0305504D01*
X0214380Y0306420D01*
X0216880Y0310750D01*
X0215965Y0314165D01*
X0219380Y0315080D01*
X0221880Y0319410D01*
X0220965Y0322825D01*
X0224380Y0323740D01*
X0226880Y0328070D01*
X0225965Y0331485D01*
X0212975Y0338985D01*
X0209560Y0338070D01*
X0207060Y0333740D01*
X0207975Y0330325D01*
X0204560Y0329410D01*
X0202060Y0325080D01*
X0202975Y0321665D01*
X0199560Y0320750D01*
X0197060Y0316420D01*
X0197975Y0313004D01*
X0194560Y0312089D01*
X0192060Y0307759D01*
X0192975Y0304344D01*
X0189560Y0303429D01*
X0187060Y0299099D01*
X0187975Y0295684D01*
X0184560Y0294769D01*
X0182060Y0290439D01*
X0182975Y0287024D01*
X0179560Y0286109D01*
X0177060Y0281778D01*
X0177975Y0278363D01*
X0174560Y0277448D01*
X0172060Y0273118D01*
X0172975Y0269703D01*
X0169560Y0268788D01*
X0167060Y0264458D01*
X0167975Y0261043D01*
X0164560Y0260128D01*
X0162060Y0255798D01*
X0162975Y0252383D01*
X0159560Y0251468D01*
X0157060Y0247137D01*
X0157975Y0243722D01*
X0154560Y0242807D01*
X0152060Y0238477D01*
X0152975Y0235062D01*
X0149560Y0234147D01*
X0147060Y0229817D01*
X0147975Y0226402D01*
X0144560Y0225487D01*
X0142060Y0221157D01*
X0142975Y0217742D01*
X0139560Y0216827D01*
X0137060Y0212496D01*
X0137975Y0209081D01*
X0134560Y0208166D01*
X0132060Y0203836D01*
X0132975Y0200421D01*
X0129560Y0199506D01*
X0127060Y0195176D01*
X0127975Y0191761D01*
X0124560Y0190846D01*
X0122060Y0186516D01*
X0122975Y0183101D01*
X0119560Y0182186D01*
X0117060Y0177855D01*
X0117975Y0174440D01*
X0114560Y0173525D01*
X0112060Y0169195D01*
X0112975Y0165780D01*
X0125965Y0158280D01*
X0261300Y0033700D02*
X0262800Y0035200D01*
X0269800Y0035200D01*
X0271300Y0033700D01*
X0272800Y0035200D01*
X0279800Y0035200D01*
X0281300Y0033700D01*
X0281300Y0016700D01*
X0279800Y0015200D01*
X0272800Y0015200D01*
X0271300Y0016700D01*
X0269800Y0015200D01*
X0262800Y0015200D01*
X0261300Y0016700D01*
X0261300Y0033700D01*
X0281300Y0032700D02*
X0281300Y0017700D01*
X0283800Y0015200D01*
X0288800Y0015200D01*
X0291300Y0017700D01*
X0293800Y0015200D01*
X0298800Y0015200D01*
X0301300Y0017700D01*
X0303800Y0015200D01*
X0308800Y0015200D01*
X0311300Y0017700D01*
X0313800Y0015200D01*
X0318800Y0015200D01*
X0321300Y0017700D01*
X0323800Y0015200D01*
X0328800Y0015200D01*
X0331300Y0017700D01*
X0333800Y0015200D01*
X0338800Y0015200D01*
X0341300Y0017700D01*
X0343800Y0015200D01*
X0348800Y0015200D01*
X0351300Y0017700D01*
X0353800Y0015200D01*
X0358800Y0015200D01*
X0361300Y0017700D01*
X0363800Y0015200D01*
X0368800Y0015200D01*
X0371300Y0017700D01*
X0373800Y0015200D01*
X0378800Y0015200D01*
X0381300Y0017700D01*
X0383800Y0015200D01*
X0388800Y0015200D01*
X0391300Y0017700D01*
X0393800Y0015200D01*
X0398800Y0015200D01*
X0401300Y0017700D01*
X0401300Y0032700D01*
X0398800Y0035200D01*
X0393800Y0035200D01*
X0391300Y0032700D01*
X0388800Y0035200D01*
X0383800Y0035200D01*
X0381300Y0032700D01*
X0378800Y0035200D01*
X0373800Y0035200D01*
X0371300Y0032700D01*
X0368800Y0035200D01*
X0363800Y0035200D01*
X0361300Y0032700D01*
X0358800Y0035200D01*
X0353800Y0035200D01*
X0351300Y0032700D01*
X0348800Y0035200D01*
X0343800Y0035200D01*
X0341300Y0032700D01*
X0338800Y0035200D01*
X0333800Y0035200D01*
X0331300Y0032700D01*
X0328800Y0035200D01*
X0323800Y0035200D01*
X0321300Y0032700D01*
X0318800Y0035200D01*
X0313800Y0035200D01*
X0311300Y0032700D01*
X0308800Y0035200D01*
X0303800Y0035200D01*
X0301300Y0032700D01*
X0298800Y0035200D01*
X0293800Y0035200D01*
X0291300Y0032700D01*
X0288800Y0035200D01*
X0283800Y0035200D01*
X0281300Y0032700D01*
X0368890Y0100452D02*
X0366390Y0104782D01*
X0367305Y0108197D01*
X0363890Y0109112D01*
X0361390Y0113442D01*
X0362305Y0116857D01*
X0358890Y0117772D01*
X0356390Y0122102D01*
X0357305Y0125517D01*
X0353890Y0126432D01*
X0351390Y0130763D01*
X0352305Y0134178D01*
X0348890Y0135093D01*
X0346390Y0139423D01*
X0347305Y0142838D01*
X0343890Y0143753D01*
X0341390Y0148083D01*
X0342305Y0151498D01*
X0338890Y0152413D01*
X0336390Y0156743D01*
X0337305Y0160158D01*
X0333890Y0161073D01*
X0331390Y0165404D01*
X0332305Y0168819D01*
X0328890Y0169734D01*
X0326390Y0174064D01*
X0327305Y0177479D01*
X0323890Y0178394D01*
X0321390Y0182724D01*
X0322305Y0186139D01*
X0318890Y0187054D01*
X0316390Y0191384D01*
X0317305Y0194799D01*
X0313890Y0195714D01*
X0311390Y0200045D01*
X0312305Y0203460D01*
X0308890Y0204375D01*
X0306390Y0208705D01*
X0307305Y0212120D01*
X0320295Y0219620D01*
X0323710Y0218705D01*
X0326210Y0214375D01*
X0325295Y0210960D01*
X0328710Y0210045D01*
X0331210Y0205714D01*
X0330295Y0202299D01*
X0333710Y0201384D01*
X0336210Y0197054D01*
X0335295Y0193639D01*
X0338710Y0192724D01*
X0341210Y0188394D01*
X0340295Y0184979D01*
X0343710Y0184064D01*
X0346210Y0179734D01*
X0345295Y0176319D01*
X0348710Y0175404D01*
X0351210Y0171073D01*
X0350295Y0167658D01*
X0353710Y0166743D01*
X0356210Y0162413D01*
X0355295Y0158998D01*
X0358710Y0158083D01*
X0361210Y0153753D01*
X0360295Y0150338D01*
X0363710Y0149423D01*
X0366210Y0145093D01*
X0365295Y0141678D01*
X0368710Y0140763D01*
X0371210Y0136432D01*
X0370295Y0133017D01*
X0373710Y0132102D01*
X0376210Y0127772D01*
X0375295Y0124357D01*
X0378710Y0123442D01*
X0381210Y0119112D01*
X0380295Y0115697D01*
X0383710Y0114782D01*
X0386210Y0110452D01*
X0385295Y0107037D01*
X0388710Y0106121D01*
X0391210Y0101791D01*
X0390295Y0098376D01*
X0393710Y0097461D01*
X0396210Y0093131D01*
X0395295Y0089716D01*
X0398710Y0088801D01*
X0401210Y0084471D01*
X0400295Y0081056D01*
X0403710Y0080141D01*
X0406210Y0075811D01*
X0405295Y0072396D01*
X0408710Y0071480D01*
X0411210Y0067150D01*
X0410295Y0063735D01*
X0413710Y0062820D01*
X0416210Y0058490D01*
X0415295Y0055075D01*
X0418710Y0054160D01*
X0421210Y0049830D01*
X0420295Y0046415D01*
X0407305Y0038915D01*
X0403890Y0039830D01*
X0401390Y0044160D01*
X0402305Y0047575D01*
X0398890Y0048490D01*
X0396390Y0052820D01*
X0397305Y0056235D01*
X0393890Y0057150D01*
X0391390Y0061480D01*
X0392305Y0064896D01*
X0388890Y0065811D01*
X0386390Y0070141D01*
X0387305Y0073556D01*
X0383890Y0074471D01*
X0381390Y0078801D01*
X0382305Y0082216D01*
X0378890Y0083131D01*
X0376390Y0087461D01*
X0377305Y0090876D01*
X0373890Y0091791D01*
X0371390Y0096121D01*
X0372305Y0099537D01*
X0368890Y0100452D01*
X0306439Y0211620D02*
X0304390Y0212169D01*
X0300890Y0218231D01*
X0301439Y0220280D01*
X0299390Y0220829D01*
X0295890Y0226891D01*
X0296439Y0228940D01*
X0311161Y0237440D01*
X0313210Y0236891D01*
X0316710Y0230829D01*
X0316161Y0228780D01*
X0318210Y0228231D01*
X0321710Y0222169D01*
X0321161Y0220120D01*
X0306439Y0211620D01*
X0297305Y0229440D02*
X0293890Y0230355D01*
X0291390Y0234686D01*
X0292305Y0238101D01*
X0288890Y0239016D01*
X0286390Y0243346D01*
X0287305Y0246761D01*
X0283890Y0247676D01*
X0281390Y0252006D01*
X0282305Y0255421D01*
X0278890Y0256336D01*
X0276390Y0260666D01*
X0277305Y0264081D01*
X0273890Y0264996D01*
X0271390Y0269327D01*
X0272305Y0272742D01*
X0268890Y0273657D01*
X0266390Y0277987D01*
X0267305Y0281402D01*
X0263890Y0282317D01*
X0261390Y0286647D01*
X0262305Y0290062D01*
X0258890Y0290977D01*
X0256390Y0295307D01*
X0257305Y0298722D01*
X0253890Y0299637D01*
X0251390Y0303968D01*
X0252305Y0307383D01*
X0248890Y0308298D01*
X0246390Y0312628D01*
X0247305Y0316043D01*
X0243890Y0316958D01*
X0241390Y0321288D01*
X0242305Y0324703D01*
X0238890Y0325618D01*
X0236390Y0329948D01*
X0237305Y0333363D01*
X0250295Y0340863D01*
X0253710Y0339948D01*
X0256210Y0335618D01*
X0255295Y0332203D01*
X0258710Y0331288D01*
X0261210Y0326958D01*
X0260295Y0323543D01*
X0263710Y0322628D01*
X0266210Y0318298D01*
X0265295Y0314883D01*
X0268710Y0313968D01*
X0271210Y0309637D01*
X0270295Y0306222D01*
X0273710Y0305307D01*
X0276210Y0300977D01*
X0275295Y0297562D01*
X0278710Y0296647D01*
X0281210Y0292317D01*
X0280295Y0288902D01*
X0283710Y0287987D01*
X0286210Y0283657D01*
X0285295Y0280242D01*
X0288710Y0279327D01*
X0291210Y0274996D01*
X0290295Y0271581D01*
X0293710Y0270666D01*
X0296210Y0266336D01*
X0295295Y0262921D01*
X0298710Y0262006D01*
X0301210Y0257676D01*
X0300295Y0254261D01*
X0303710Y0253346D01*
X0306210Y0249016D01*
X0305295Y0245601D01*
X0308710Y0244686D01*
X0311210Y0240355D01*
X0310295Y0236940D01*
X0297305Y0229440D01*
D11*
X0295877Y0223422D02*
X0296627Y0222122D01*
X0296352Y0221096D01*
X0295877Y0223422D02*
X0294851Y0223697D01*
X0294201Y0223321D01*
X0293102Y0219220D01*
X0291601Y0221820D01*
X0287852Y0228313D02*
X0286351Y0230913D01*
X0287101Y0229613D02*
X0291002Y0231865D01*
X0290452Y0229814D01*
X0301252Y0214111D02*
X0297351Y0211860D01*
X0296601Y0213160D02*
X0298102Y0210559D01*
X0300702Y0212061D02*
X0301252Y0214111D01*
X0321982Y0226198D02*
X0325882Y0228450D01*
X0324756Y0230401D01*
X0323731Y0230675D01*
X0322431Y0229925D01*
X0322156Y0228899D01*
X0323282Y0226949D01*
X0323808Y0224537D02*
X0327058Y0226413D01*
X0327434Y0225763D02*
X0326683Y0227064D01*
X0323808Y0224537D02*
X0323533Y0223512D01*
X0323908Y0222861D01*
X0324934Y0222587D01*
X0325698Y0220264D02*
X0325423Y0219238D01*
X0326174Y0217938D01*
X0327199Y0217664D01*
X0328298Y0221765D01*
X0325698Y0220264D01*
X0328298Y0221765D02*
X0329323Y0221490D01*
X0330074Y0220190D01*
X0329799Y0219165D01*
X0327199Y0217664D01*
X0329300Y0217027D02*
X0330801Y0214427D01*
X0331625Y0217503D01*
X0327725Y0215251D01*
X0319680Y0230186D02*
X0318179Y0232786D01*
X0320779Y0234287D02*
X0321429Y0234662D01*
X0322454Y0234388D01*
X0323205Y0233088D01*
X0322930Y0232062D01*
X0320779Y0234287D02*
X0319680Y0230186D01*
X0314501Y0239657D02*
X0313475Y0239932D01*
X0312725Y0241232D01*
X0313000Y0242257D01*
X0313650Y0242633D01*
X0314675Y0242358D01*
X0315426Y0241058D01*
X0316451Y0240783D01*
X0317101Y0241158D01*
X0317376Y0242184D01*
X0316625Y0243484D01*
X0315600Y0243759D01*
X0315449Y0245521D02*
X0312849Y0244020D01*
X0310798Y0244569D01*
X0311348Y0246620D01*
X0313948Y0248121D01*
X0311197Y0248382D02*
X0310071Y0250332D01*
X0309046Y0250607D01*
X0308396Y0250232D01*
X0308121Y0249206D01*
X0308872Y0247906D01*
X0309897Y0247631D01*
X0311197Y0248382D01*
X0311747Y0250433D01*
X0311646Y0252108D01*
X0230417Y0321695D02*
X0231918Y0324296D01*
X0231167Y0322995D02*
X0227267Y0325247D01*
X0229318Y0325797D01*
X0206294Y0335913D02*
X0206019Y0336939D01*
X0206294Y0335913D02*
X0205543Y0334613D01*
X0204518Y0334339D01*
X0203868Y0334714D01*
X0203593Y0335739D01*
X0204344Y0337039D01*
X0204069Y0338065D01*
X0203419Y0338440D01*
X0202393Y0338165D01*
X0201643Y0336865D01*
X0201917Y0335840D01*
X0200467Y0334828D02*
X0203067Y0333327D01*
X0203616Y0331276D01*
X0201566Y0330727D01*
X0198965Y0332228D01*
X0198815Y0330466D02*
X0197789Y0330191D01*
X0197039Y0328891D01*
X0197314Y0327866D01*
X0197964Y0327490D01*
X0198989Y0327765D01*
X0199264Y0326740D01*
X0199914Y0326364D01*
X0200939Y0326639D01*
X0201690Y0327939D01*
X0201415Y0328965D01*
X0199364Y0328415D02*
X0198989Y0327765D01*
X0255423Y0340482D02*
X0259323Y0342734D01*
X0258499Y0339658D01*
X0256998Y0342258D01*
X0259950Y0338646D02*
X0260600Y0339022D01*
X0261625Y0338747D01*
X0262376Y0337447D01*
X0262101Y0336421D01*
X0259950Y0338646D02*
X0258851Y0334545D01*
X0257350Y0337145D01*
X0112219Y0177475D02*
X0109143Y0176651D01*
X0113043Y0174399D01*
X0110718Y0174875D02*
X0112219Y0177475D01*
X0111217Y0172737D02*
X0107115Y0171638D01*
X0109716Y0170137D01*
X0110741Y0170412D01*
X0111492Y0171712D01*
X0111217Y0172737D01*
X0108617Y0174238D01*
X0107591Y0173964D01*
X0106841Y0172663D01*
X0107115Y0171638D01*
X0108086Y0168314D02*
X0108361Y0167289D01*
X0107985Y0166638D01*
X0106960Y0166364D01*
X0103710Y0168240D01*
X0104085Y0168890D02*
X0103334Y0167590D01*
X0102534Y0166203D02*
X0101408Y0164253D01*
X0101682Y0163228D01*
X0102983Y0162477D01*
X0104008Y0162752D01*
X0105134Y0164702D01*
X0106434Y0163951D02*
X0102534Y0166203D01*
X0100882Y0161841D02*
X0099856Y0161566D01*
X0099106Y0160266D01*
X0099381Y0159241D01*
X0100031Y0158865D01*
X0101056Y0159140D01*
X0101331Y0158115D01*
X0101981Y0157739D01*
X0103006Y0158014D01*
X0103757Y0159314D01*
X0103482Y0160340D01*
X0101431Y0159790D02*
X0101056Y0159140D01*
X0096569Y0151869D02*
X0096844Y0150844D01*
X0096093Y0149544D01*
X0096368Y0148518D01*
X0097018Y0148143D01*
X0098043Y0148418D01*
X0098794Y0149718D01*
X0098519Y0150743D01*
X0096569Y0151869D02*
X0095919Y0152245D01*
X0094893Y0151970D01*
X0094143Y0150670D01*
X0094417Y0149644D01*
X0092967Y0148633D02*
X0095567Y0147132D01*
X0096116Y0145081D01*
X0094066Y0144531D01*
X0091465Y0146033D01*
X0092615Y0143520D02*
X0091114Y0140920D01*
X0093439Y0140444D02*
X0089539Y0142696D01*
X0092615Y0143520D01*
X0117017Y0134289D02*
X0120917Y0132037D01*
X0120167Y0130737D02*
X0121668Y0133337D01*
X0119068Y0134838D02*
X0117017Y0134289D01*
X0122166Y0141707D02*
X0121891Y0142732D01*
X0122642Y0144032D01*
X0123667Y0144307D01*
X0122166Y0141707D02*
X0122816Y0141331D01*
X0126918Y0142430D01*
X0125417Y0139830D01*
X0130417Y0148490D02*
X0131918Y0151091D01*
X0131167Y0149790D02*
X0127267Y0152042D01*
X0129318Y0152592D01*
X0040919Y0056982D02*
X0039893Y0056707D01*
X0039143Y0055407D01*
X0039417Y0054382D01*
X0040068Y0054006D01*
X0044169Y0055105D01*
X0042668Y0052505D01*
X0039917Y0052244D02*
X0038416Y0049644D01*
X0040741Y0049168D02*
X0036841Y0051420D01*
X0039917Y0052244D01*
X0065651Y0036950D02*
X0068654Y0036950D01*
X0067153Y0036950D02*
X0067153Y0041454D01*
X0068654Y0039953D01*
X0067255Y0008454D02*
X0067255Y0005451D01*
X0068757Y0003950D01*
X0070258Y0005451D01*
X0070258Y0008454D01*
X0071859Y0007703D02*
X0072610Y0008454D01*
X0074111Y0008454D01*
X0074862Y0007703D01*
X0074862Y0006953D01*
X0074111Y0006202D01*
X0072610Y0006202D01*
X0071859Y0005451D01*
X0071859Y0004701D01*
X0072610Y0003950D01*
X0074111Y0003950D01*
X0074862Y0004701D01*
X0065654Y0003950D02*
X0062651Y0003950D01*
X0064153Y0003950D02*
X0064153Y0008454D01*
X0065654Y0006953D01*
X0252651Y0009701D02*
X0253402Y0008950D01*
X0254903Y0008950D01*
X0255654Y0009701D01*
X0252651Y0012703D01*
X0252651Y0009701D01*
X0252651Y0012703D02*
X0253402Y0013454D01*
X0254903Y0013454D01*
X0255654Y0012703D01*
X0255654Y0009701D01*
X0257255Y0011202D02*
X0260258Y0011202D01*
X0258006Y0013454D01*
X0258006Y0008950D01*
X0264153Y0007954D02*
X0264153Y0003450D01*
X0265654Y0003450D02*
X0262651Y0003450D01*
X0265654Y0006453D02*
X0264153Y0007954D01*
X0267255Y0007203D02*
X0267255Y0005702D01*
X0268006Y0004951D01*
X0270258Y0004951D01*
X0270258Y0003450D02*
X0270258Y0007954D01*
X0268006Y0007954D01*
X0267255Y0007203D01*
X0271859Y0007954D02*
X0273361Y0007954D01*
X0272610Y0007954D02*
X0272610Y0004201D01*
X0273361Y0003450D01*
X0274111Y0003450D01*
X0274862Y0004201D01*
X0282651Y0003950D02*
X0285654Y0003950D01*
X0282651Y0006953D01*
X0282651Y0007703D01*
X0283402Y0008454D01*
X0284903Y0008454D01*
X0285654Y0007703D01*
X0287255Y0008454D02*
X0287255Y0005451D01*
X0288757Y0003950D01*
X0290258Y0005451D01*
X0290258Y0008454D01*
X0291859Y0007703D02*
X0292610Y0008454D01*
X0294111Y0008454D01*
X0294862Y0007703D01*
X0294862Y0006953D01*
X0294111Y0006202D01*
X0292610Y0006202D01*
X0291859Y0005451D01*
X0291859Y0004701D01*
X0292610Y0003950D01*
X0294111Y0003950D01*
X0294862Y0004701D01*
X0289154Y0036950D02*
X0286151Y0036950D01*
X0287653Y0036950D02*
X0287653Y0041454D01*
X0289154Y0039953D01*
X0278654Y0040703D02*
X0277903Y0041454D01*
X0276402Y0041454D01*
X0275651Y0040703D01*
X0275651Y0039953D01*
X0278654Y0036950D01*
X0275651Y0036950D01*
X0268654Y0036950D02*
X0265651Y0036950D01*
X0267153Y0036950D02*
X0267153Y0041454D01*
X0268654Y0039953D01*
X0392651Y0011202D02*
X0395654Y0011202D01*
X0393402Y0013454D01*
X0393402Y0008950D01*
X0397255Y0008950D02*
X0400258Y0008950D01*
X0397255Y0011953D01*
X0397255Y0012703D01*
X0398006Y0013454D01*
X0399507Y0013454D01*
X0400258Y0012703D01*
X0398102Y0037354D02*
X0396601Y0039955D01*
X0397351Y0038654D02*
X0401252Y0040906D01*
X0400702Y0038856D01*
X0422725Y0050706D02*
X0423475Y0049406D01*
X0424501Y0049132D01*
X0425426Y0050532D02*
X0424675Y0051832D01*
X0423650Y0052107D01*
X0423000Y0051732D01*
X0422725Y0050706D01*
X0425426Y0050532D02*
X0426451Y0050258D01*
X0427101Y0050633D01*
X0427376Y0051658D01*
X0426625Y0052958D01*
X0425600Y0053233D01*
X0425449Y0054995D02*
X0422849Y0053494D01*
X0420798Y0054044D01*
X0421348Y0056094D01*
X0423948Y0057596D01*
X0423147Y0058982D02*
X0421197Y0057856D01*
X0421097Y0059532D01*
X0420721Y0060182D01*
X0419696Y0060457D01*
X0418396Y0059706D01*
X0418121Y0058681D01*
X0418872Y0057381D01*
X0419897Y0057106D01*
X0423147Y0058982D02*
X0421646Y0061583D01*
M02*
