%
M48
M72
T01C0.02400
T02C0.03600
T03C0.04000
T04C0.12500
%
T01
X57900Y17800
X90300Y34600
X99500Y49000
X109500Y55800
X111900Y60200
X103100Y68200
X99900Y71800
X95500Y69400
X89100Y69400
X92300Y79800
X98700Y83000
X106300Y79800
X123100Y83000
X121500Y69800
X120300Y49000
X129500Y42600
X140300Y49400
X143500Y57000
X149900Y71800
X165100Y66600
X165900Y50600
X165100Y44200
X171500Y45800
X172300Y36200
X181100Y39400
X184700Y36200
X189900Y44600
X187500Y49000
X196700Y53800
X199900Y45800
X199900Y41000
X201500Y36200
X218300Y49000
X218700Y55400
X223500Y55400
X229900Y55400
X228300Y61800
X233100Y66600
X234700Y73000
X240300Y71400
X242700Y75800
X239500Y79400
X236300Y83000
X247500Y76600
X250700Y73000
X244300Y68200
X247500Y55400
X249100Y49800
X246300Y45800
X241100Y49000
X237500Y52200
X234300Y37800
X255500Y39400
X255500Y46200
X252300Y55400
X272300Y52200
X275900Y41400
X269100Y38200
X292700Y41400
X299100Y44600
X306300Y41400
X302300Y52200
X312700Y57000
X331100Y68200
X345900Y66600
X351500Y75000
X356300Y75000
X359500Y66600
X371100Y68200
X376300Y53400
X390300Y25800
X339500Y48600
X330700Y38200
X296700Y73400
X301500Y86200
X293500Y91000
X312700Y105800
X316300Y109000
X319500Y99400
X331900Y91000
X337900Y99400
X345900Y118600
X355500Y121800
X344300Y128200
X335100Y132600
X337900Y136600
X341100Y144600
X341100Y149400
X333500Y146200
X325500Y146200
X319100Y147800
X325500Y153000
X322300Y161000
X330300Y161800
X334300Y156200
X347900Y156600
X329500Y169000
X321900Y178600
X315100Y172600
X311900Y169000
X308700Y187800
X308700Y195400
X315100Y192600
X327900Y191400
X341900Y187400
X321500Y222600
X302700Y233000
X291500Y221400
X291500Y207800
X293100Y197400
X297900Y187800
X281900Y175400
X281900Y170600
X270700Y170600
X265100Y181400
X260300Y181400
X257100Y177800
X253900Y169000
X240700Y172200
X253900Y190200
X264300Y188600
X271500Y185000
X266300Y199000
X260700Y204200
X256700Y207000
X255500Y213800
X260700Y213400
X253900Y199000
X242700Y194200
X240700Y200600
X239100Y223000
X258700Y237800
X268300Y229800
X273100Y229800
X278300Y238200
X277100Y243000
X283500Y246600
X275500Y252600
X266700Y246200
X250700Y255800
X244300Y259000
X249100Y262200
X242700Y249400
X229500Y254200
X226300Y250600
X227900Y245800
X215100Y231800
X205100Y223000
X209100Y218600
X202300Y216600
X192700Y211000
X187500Y206600
X195900Y198200
X203900Y195000
X207100Y203400
X179500Y219800
X169900Y228200
X165100Y214200
X168300Y203400
X157100Y191800
X150700Y190200
X147500Y177800
X144300Y174200
X145100Y169400
X139500Y173400
X153900Y176200
X158700Y159000
X165100Y156600
X167500Y150200
X173100Y146200
X176300Y139800
X179900Y143000
X171500Y135000
X182700Y131800
X182700Y118600
X187500Y113800
X190300Y107400
X196700Y108600
X213500Y98600
X218300Y97000
X221500Y93400
X245900Y101800
X249100Y105400
X242700Y121800
X240700Y127000
X245900Y152600
X241100Y154600
X266700Y149400
X278300Y147800
X280300Y135000
X280700Y128200
X286700Y121800
X283500Y115400
X293500Y115400
X293100Y107400
X272300Y101800
X301500Y132600
X309500Y131800
X312700Y128200
X315900Y135000
X327100Y131800
X327100Y120200
X293100Y135000
X272300Y135000
X215100Y149400
X211900Y159400
X206300Y165800
X201500Y159000
X198300Y155400
X198300Y150600
X187500Y159400
X187500Y170600
X206300Y176200
X212700Y123800
X168300Y93400
X165500Y89400
X160700Y89800
X136700Y97000
X130300Y97000
X150700Y113800
X150700Y123800
X139500Y135000
X124700Y122200
X118300Y122200
X101500Y151800
X134700Y211400
X198700Y258600
X206300Y246200
X215100Y261000
X221500Y257800
X227900Y261000
X231100Y265800
X231100Y273000
X244700Y295800
X238300Y309000
X211900Y296600
X188300Y284200
X257100Y284600
X260300Y279800
X291500Y271800
X302700Y207800
X365100Y91000
X362700Y86200
X222300Y68200
X217500Y68200
X212700Y68200
X211100Y57000
X193500Y67400
X155100Y42600
X155100Y37800
X84300Y52200
X69500Y74200
T02
X116300Y146540
X107640Y151540
X112640Y160200
X121300Y155200
X266300Y30200
X266300Y20200
X276300Y20200
X276300Y30200
X306970Y217700
X315630Y222700
X310630Y231360
X301970Y226360
T03
X296970Y235020
X305630Y240020
X300630Y248681
X295630Y257341
X286970Y252341
X291970Y243681
X281970Y261001
X290630Y266001
X285630Y274662
X280630Y283322
X275630Y291982
X266970Y286982
X271970Y278322
X276970Y269662
X261970Y295642
X270630Y300642
X265630Y309303
X260630Y317963
X255630Y326623
X246970Y321623
X241970Y330283
X250630Y335283
X251970Y312963
X256970Y304303
X221300Y328405
X216300Y319745
X207640Y324745
X202640Y316085
X211300Y311085
X206300Y302424
X201300Y293764
X192640Y298764
X197640Y307424
X187640Y290104
X196300Y285104
X191300Y276444
X182640Y281444
X177640Y272783
X186300Y267783
X181300Y259123
X172640Y264123
X167640Y255463
X176300Y250463
X171300Y241803
X162640Y246803
X157640Y238142
X166300Y233142
X161300Y224482
X156300Y215822
X147640Y220822
X152640Y229482
X142640Y212162
X151300Y207162
X146300Y198501
X137640Y203501
X132640Y194841
X141300Y189841
X136300Y181181
X127640Y186181
X122640Y177520
X131300Y172520
X126300Y163860
X117640Y168860
X102640Y142879
X111300Y137879
X106300Y129219
X101300Y120559
X92640Y125559
X97640Y134219
X87640Y116899
X96300Y111899
X91300Y103238
X82640Y108238
X77640Y99578
X86300Y94578
X81300Y85918
X72640Y90918
X67640Y82258
X76300Y77258
X71300Y68597
X66300Y59937
X57640Y64937
X52640Y56277
X61300Y51277
X56300Y42617
X47640Y47617
X66300Y30200
X66300Y20200
X76300Y20200
X76300Y30200
X86300Y30200
X86300Y20200
X96300Y20200
X96300Y30200
X106300Y30200
X106300Y20200
X116300Y20200
X116300Y30200
X126300Y30200
X126300Y20200
X136300Y20200
X136300Y30200
X146300Y30200
X146300Y20200
X156300Y20200
X156300Y30200
X166300Y30200
X166300Y20200
X176300Y20200
X176300Y30200
X186300Y30200
X186300Y20200
X196300Y20200
X196300Y30200
X206300Y30200
X206300Y20200
X216300Y20200
X216300Y30200
X226300Y30200
X226300Y20200
X236300Y20200
X236300Y30200
X246300Y30200
X246300Y20200
X256300Y20200
X256300Y30200
X286300Y30200
X286300Y20200
X296300Y20200
X296300Y30200
X306300Y30200
X306300Y20200
X316300Y20200
X316300Y30200
X326300Y30200
X326300Y20200
X336300Y20200
X336300Y30200
X346300Y30200
X346300Y20200
X356300Y20200
X356300Y30200
X366300Y30200
X366300Y20200
X376300Y20200
X376300Y30200
X386300Y30200
X386300Y20200
X396300Y20200
X396300Y30200
X406970Y44495
X415630Y49495
X410630Y58155
X401970Y53155
X396970Y61815
X405630Y66815
X400630Y75476
X395630Y84136
X390630Y92796
X381970Y87796
X376970Y96456
X385630Y101456
X380630Y110117
X371970Y105117
X366970Y113777
X375630Y118777
X370630Y127437
X361970Y122437
X356970Y131097
X365630Y136097
X360630Y144758
X355630Y153418
X350630Y162078
X341970Y157078
X346970Y148418
X351970Y139758
X336970Y165738
X345630Y170738
X340630Y179399
X335630Y188059
X330630Y196719
X321970Y191719
X326970Y183059
X331970Y174399
X316970Y200379
X325630Y205379
X320630Y214040
X311970Y209040
X212640Y333405
X386970Y79136
X391970Y70476
X62640Y73597
T04
X46300Y25200
X231300Y345200
X416300Y25200
M30
