G75*
%MOIN*%
%OFA0B0*%
%FSLAX25Y25*%
%IPPOS*%
%LPD*%
%AMOC8*
5,1,8,0,0,1.08239X$1,22.5*
%
%ADD10C,0.01200*%
%ADD11C,0.01120*%
%ADD12OC8,0.06000*%
%ADD13OC8,0.05600*%
%ADD14C,0.04000*%
%ADD15C,0.00800*%
D10*
X0046180Y0046636D02*
X0045580Y0046036D01*
X0045065Y0047956D01*
X0046059Y0049677D01*
X0047979Y0050192D01*
X0049700Y0049198D01*
X0050215Y0047278D01*
X0049221Y0045557D01*
X0047301Y0045042D01*
X0045580Y0046036D01*
X0046353Y0046629D01*
X0046031Y0047829D01*
X0046652Y0048904D01*
X0047852Y0049226D01*
X0048927Y0048605D01*
X0049249Y0047405D01*
X0048628Y0046330D01*
X0047428Y0046008D01*
X0046353Y0046629D01*
X0047126Y0047222D01*
X0046997Y0047702D01*
X0047245Y0048131D01*
X0047725Y0048260D01*
X0048154Y0048012D01*
X0048283Y0047532D01*
X0048035Y0047103D01*
X0047555Y0046974D01*
X0047126Y0047222D01*
X0054840Y0041636D02*
X0054240Y0041036D01*
X0053725Y0042956D01*
X0054719Y0044677D01*
X0056639Y0045192D01*
X0058360Y0044198D01*
X0058875Y0042278D01*
X0057881Y0040557D01*
X0055961Y0040042D01*
X0054240Y0041036D01*
X0055013Y0041629D01*
X0054691Y0042829D01*
X0055312Y0043904D01*
X0056512Y0044226D01*
X0057587Y0043605D01*
X0057909Y0042405D01*
X0057288Y0041330D01*
X0056088Y0041008D01*
X0055013Y0041629D01*
X0055786Y0042222D01*
X0055657Y0042702D01*
X0055905Y0043131D01*
X0056385Y0043260D01*
X0056814Y0043012D01*
X0056943Y0042532D01*
X0056695Y0042103D01*
X0056215Y0041974D01*
X0055786Y0042222D01*
X0059840Y0050296D02*
X0059240Y0049696D01*
X0058725Y0051616D01*
X0059719Y0053337D01*
X0061639Y0053852D01*
X0063360Y0052858D01*
X0063875Y0050938D01*
X0062881Y0049217D01*
X0060961Y0048702D01*
X0059240Y0049696D01*
X0060013Y0050289D01*
X0059691Y0051489D01*
X0060312Y0052564D01*
X0061512Y0052886D01*
X0062587Y0052265D01*
X0062909Y0051065D01*
X0062288Y0049990D01*
X0061088Y0049668D01*
X0060013Y0050289D01*
X0060786Y0050882D01*
X0060657Y0051362D01*
X0060905Y0051791D01*
X0061385Y0051920D01*
X0061814Y0051672D01*
X0061943Y0051192D01*
X0061695Y0050763D01*
X0061215Y0050634D01*
X0060786Y0050882D01*
X0061500Y0057800D02*
X0061500Y0062600D01*
X0062700Y0063800D01*
X0062700Y0073400D01*
X0062640Y0073597D01*
X0061180Y0072616D02*
X0060580Y0072016D01*
X0060065Y0073936D01*
X0061059Y0075657D01*
X0062979Y0076172D01*
X0064700Y0075178D01*
X0065215Y0073258D01*
X0064221Y0071537D01*
X0062301Y0071022D01*
X0060580Y0072016D01*
X0061353Y0072609D01*
X0061031Y0073809D01*
X0061652Y0074884D01*
X0062852Y0075206D01*
X0063927Y0074585D01*
X0064249Y0073385D01*
X0063628Y0072310D01*
X0062428Y0071988D01*
X0061353Y0072609D01*
X0062126Y0073202D01*
X0061997Y0073682D01*
X0062245Y0074111D01*
X0062725Y0074240D01*
X0063154Y0073992D01*
X0063283Y0073512D01*
X0063035Y0073083D01*
X0062555Y0072954D01*
X0062126Y0073202D01*
X0062640Y0073597D02*
X0062700Y0074200D01*
X0062700Y0083000D01*
X0063100Y0083400D01*
X0063100Y0090600D01*
X0072300Y0090600D01*
X0072640Y0090918D01*
X0071180Y0089937D02*
X0070580Y0089337D01*
X0070065Y0091257D01*
X0071059Y0092978D01*
X0072979Y0093493D01*
X0074700Y0092499D01*
X0075215Y0090579D01*
X0074221Y0088858D01*
X0072301Y0088343D01*
X0070580Y0089337D01*
X0071353Y0089930D01*
X0071031Y0091130D01*
X0071652Y0092205D01*
X0072852Y0092527D01*
X0073927Y0091906D01*
X0074249Y0090706D01*
X0073628Y0089631D01*
X0072428Y0089309D01*
X0071353Y0089930D01*
X0072126Y0090523D01*
X0071997Y0091003D01*
X0072245Y0091432D01*
X0072725Y0091561D01*
X0073154Y0091313D01*
X0073283Y0090833D01*
X0073035Y0090404D01*
X0072555Y0090275D01*
X0072126Y0090523D01*
X0066180Y0081277D02*
X0065580Y0080677D01*
X0065065Y0082597D01*
X0066059Y0084318D01*
X0067979Y0084833D01*
X0069700Y0083839D01*
X0070215Y0081919D01*
X0069221Y0080198D01*
X0067301Y0079683D01*
X0065580Y0080677D01*
X0066353Y0081270D01*
X0066031Y0082470D01*
X0066652Y0083545D01*
X0067852Y0083867D01*
X0068927Y0083246D01*
X0069249Y0082046D01*
X0068628Y0080971D01*
X0067428Y0080649D01*
X0066353Y0081270D01*
X0067126Y0081863D01*
X0066997Y0082343D01*
X0067245Y0082772D01*
X0067725Y0082901D01*
X0068154Y0082653D01*
X0068283Y0082173D01*
X0068035Y0081744D01*
X0067555Y0081615D01*
X0067126Y0081863D01*
X0074840Y0076277D02*
X0074240Y0075677D01*
X0073725Y0077597D01*
X0074719Y0079318D01*
X0076639Y0079833D01*
X0078360Y0078839D01*
X0078875Y0076919D01*
X0077881Y0075198D01*
X0075961Y0074683D01*
X0074240Y0075677D01*
X0075013Y0076270D01*
X0074691Y0077470D01*
X0075312Y0078545D01*
X0076512Y0078867D01*
X0077587Y0078246D01*
X0077909Y0077046D01*
X0077288Y0075971D01*
X0076088Y0075649D01*
X0075013Y0076270D01*
X0075786Y0076863D01*
X0075657Y0077343D01*
X0075905Y0077772D01*
X0076385Y0077901D01*
X0076814Y0077653D01*
X0076943Y0077173D01*
X0076695Y0076744D01*
X0076215Y0076615D01*
X0075786Y0076863D01*
X0069840Y0067616D02*
X0069240Y0067016D01*
X0068725Y0068936D01*
X0069719Y0070657D01*
X0071639Y0071172D01*
X0073360Y0070178D01*
X0073875Y0068258D01*
X0072881Y0066537D01*
X0070961Y0066022D01*
X0069240Y0067016D01*
X0070013Y0067609D01*
X0069691Y0068809D01*
X0070312Y0069884D01*
X0071512Y0070206D01*
X0072587Y0069585D01*
X0072909Y0068385D01*
X0072288Y0067310D01*
X0071088Y0066988D01*
X0070013Y0067609D01*
X0070786Y0068202D01*
X0070657Y0068682D01*
X0070905Y0069111D01*
X0071385Y0069240D01*
X0071814Y0068992D01*
X0071943Y0068512D01*
X0071695Y0068083D01*
X0071215Y0067954D01*
X0070786Y0068202D01*
X0064840Y0058956D02*
X0064240Y0058356D01*
X0063725Y0060276D01*
X0064719Y0061997D01*
X0066639Y0062512D01*
X0068360Y0061518D01*
X0068875Y0059598D01*
X0067881Y0057877D01*
X0065961Y0057362D01*
X0064240Y0058356D01*
X0065013Y0058949D01*
X0064691Y0060149D01*
X0065312Y0061224D01*
X0066512Y0061546D01*
X0067587Y0060925D01*
X0067909Y0059725D01*
X0067288Y0058650D01*
X0066088Y0058328D01*
X0065013Y0058949D01*
X0065786Y0059542D01*
X0065657Y0060022D01*
X0065905Y0060451D01*
X0066385Y0060580D01*
X0066814Y0060332D01*
X0066943Y0059852D01*
X0066695Y0059423D01*
X0066215Y0059294D01*
X0065786Y0059542D01*
X0061500Y0057800D02*
X0070700Y0048600D01*
X0070700Y0024600D01*
X0066300Y0020200D01*
X0051180Y0055296D02*
X0050580Y0054696D01*
X0050065Y0056616D01*
X0051059Y0058337D01*
X0052979Y0058852D01*
X0054700Y0057858D01*
X0055215Y0055938D01*
X0054221Y0054217D01*
X0052301Y0053702D01*
X0050580Y0054696D01*
X0051353Y0055289D01*
X0051031Y0056489D01*
X0051652Y0057564D01*
X0052852Y0057886D01*
X0053927Y0057265D01*
X0054249Y0056065D01*
X0053628Y0054990D01*
X0052428Y0054668D01*
X0051353Y0055289D01*
X0052126Y0055882D01*
X0051997Y0056362D01*
X0052245Y0056791D01*
X0052725Y0056920D01*
X0053154Y0056672D01*
X0053283Y0056192D01*
X0053035Y0055763D01*
X0052555Y0055634D01*
X0052126Y0055882D01*
X0056180Y0063956D02*
X0055580Y0063356D01*
X0055065Y0065276D01*
X0056059Y0066997D01*
X0057979Y0067512D01*
X0059700Y0066518D01*
X0060215Y0064598D01*
X0059221Y0062877D01*
X0057301Y0062362D01*
X0055580Y0063356D01*
X0056353Y0063949D01*
X0056031Y0065149D01*
X0056652Y0066224D01*
X0057852Y0066546D01*
X0058927Y0065925D01*
X0059249Y0064725D01*
X0058628Y0063650D01*
X0057428Y0063328D01*
X0056353Y0063949D01*
X0057126Y0064542D01*
X0056997Y0065022D01*
X0057245Y0065451D01*
X0057725Y0065580D01*
X0058154Y0065332D01*
X0058283Y0064852D01*
X0058035Y0064423D01*
X0057555Y0064294D01*
X0057126Y0064542D01*
X0079840Y0084937D02*
X0079240Y0084337D01*
X0078725Y0086257D01*
X0079719Y0087978D01*
X0081639Y0088493D01*
X0083360Y0087499D01*
X0083875Y0085579D01*
X0082881Y0083858D01*
X0080961Y0083343D01*
X0079240Y0084337D01*
X0080013Y0084930D01*
X0079691Y0086130D01*
X0080312Y0087205D01*
X0081512Y0087527D01*
X0082587Y0086906D01*
X0082909Y0085706D01*
X0082288Y0084631D01*
X0081088Y0084309D01*
X0080013Y0084930D01*
X0080786Y0085523D01*
X0080657Y0086003D01*
X0080905Y0086432D01*
X0081385Y0086561D01*
X0081814Y0086313D01*
X0081943Y0085833D01*
X0081695Y0085404D01*
X0081215Y0085275D01*
X0080786Y0085523D01*
X0084840Y0093597D02*
X0084240Y0092997D01*
X0083725Y0094917D01*
X0084719Y0096638D01*
X0086639Y0097153D01*
X0088360Y0096159D01*
X0088875Y0094239D01*
X0087881Y0092518D01*
X0085961Y0092003D01*
X0084240Y0092997D01*
X0085013Y0093590D01*
X0084691Y0094790D01*
X0085312Y0095865D01*
X0086512Y0096187D01*
X0087587Y0095566D01*
X0087909Y0094366D01*
X0087288Y0093291D01*
X0086088Y0092969D01*
X0085013Y0093590D01*
X0085786Y0094183D01*
X0085657Y0094663D01*
X0085905Y0095092D01*
X0086385Y0095221D01*
X0086814Y0094973D01*
X0086943Y0094493D01*
X0086695Y0094064D01*
X0086215Y0093935D01*
X0085786Y0094183D01*
X0076180Y0098597D02*
X0075580Y0097997D01*
X0075065Y0099917D01*
X0076059Y0101638D01*
X0077979Y0102153D01*
X0079700Y0101159D01*
X0080215Y0099239D01*
X0079221Y0097518D01*
X0077301Y0097003D01*
X0075580Y0097997D01*
X0076353Y0098590D01*
X0076031Y0099790D01*
X0076652Y0100865D01*
X0077852Y0101187D01*
X0078927Y0100566D01*
X0079249Y0099366D01*
X0078628Y0098291D01*
X0077428Y0097969D01*
X0076353Y0098590D01*
X0077126Y0099183D01*
X0076997Y0099663D01*
X0077245Y0100092D01*
X0077725Y0100221D01*
X0078154Y0099973D01*
X0078283Y0099493D01*
X0078035Y0099064D01*
X0077555Y0098935D01*
X0077126Y0099183D01*
X0081180Y0107257D02*
X0080580Y0106657D01*
X0080065Y0108577D01*
X0081059Y0110298D01*
X0082979Y0110813D01*
X0084700Y0109819D01*
X0085215Y0107899D01*
X0084221Y0106178D01*
X0082301Y0105663D01*
X0080580Y0106657D01*
X0081353Y0107250D01*
X0081031Y0108450D01*
X0081652Y0109525D01*
X0082852Y0109847D01*
X0083927Y0109226D01*
X0084249Y0108026D01*
X0083628Y0106951D01*
X0082428Y0106629D01*
X0081353Y0107250D01*
X0082126Y0107843D01*
X0081997Y0108323D01*
X0082245Y0108752D01*
X0082725Y0108881D01*
X0083154Y0108633D01*
X0083283Y0108153D01*
X0083035Y0107724D01*
X0082555Y0107595D01*
X0082126Y0107843D01*
X0089840Y0102257D02*
X0089240Y0101657D01*
X0088725Y0103577D01*
X0089719Y0105298D01*
X0091639Y0105813D01*
X0093360Y0104819D01*
X0093875Y0102899D01*
X0092881Y0101178D01*
X0090961Y0100663D01*
X0089240Y0101657D01*
X0090013Y0102250D01*
X0089691Y0103450D01*
X0090312Y0104525D01*
X0091512Y0104847D01*
X0092587Y0104226D01*
X0092909Y0103026D01*
X0092288Y0101951D01*
X0091088Y0101629D01*
X0090013Y0102250D01*
X0090786Y0102843D01*
X0090657Y0103323D01*
X0090905Y0103752D01*
X0091385Y0103881D01*
X0091814Y0103633D01*
X0091943Y0103153D01*
X0091695Y0102724D01*
X0091215Y0102595D01*
X0090786Y0102843D01*
X0094840Y0110918D02*
X0094240Y0110318D01*
X0093725Y0112238D01*
X0094719Y0113959D01*
X0096639Y0114474D01*
X0098360Y0113480D01*
X0098875Y0111560D01*
X0097881Y0109839D01*
X0095961Y0109324D01*
X0094240Y0110318D01*
X0095013Y0110911D01*
X0094691Y0112111D01*
X0095312Y0113186D01*
X0096512Y0113508D01*
X0097587Y0112887D01*
X0097909Y0111687D01*
X0097288Y0110612D01*
X0096088Y0110290D01*
X0095013Y0110911D01*
X0095786Y0111504D01*
X0095657Y0111984D01*
X0095905Y0112413D01*
X0096385Y0112542D01*
X0096814Y0112294D01*
X0096943Y0111814D01*
X0096695Y0111385D01*
X0096215Y0111256D01*
X0095786Y0111504D01*
X0086180Y0115918D02*
X0085580Y0115318D01*
X0085065Y0117238D01*
X0086059Y0118959D01*
X0087979Y0119474D01*
X0089700Y0118480D01*
X0090215Y0116560D01*
X0089221Y0114839D01*
X0087301Y0114324D01*
X0085580Y0115318D01*
X0086353Y0115911D01*
X0086031Y0117111D01*
X0086652Y0118186D01*
X0087852Y0118508D01*
X0088927Y0117887D01*
X0089249Y0116687D01*
X0088628Y0115612D01*
X0087428Y0115290D01*
X0086353Y0115911D01*
X0087126Y0116504D01*
X0086997Y0116984D01*
X0087245Y0117413D01*
X0087725Y0117542D01*
X0088154Y0117294D01*
X0088283Y0116814D01*
X0088035Y0116385D01*
X0087555Y0116256D01*
X0087126Y0116504D01*
X0091180Y0124578D02*
X0090580Y0123978D01*
X0090065Y0125898D01*
X0091059Y0127619D01*
X0092979Y0128134D01*
X0094700Y0127140D01*
X0095215Y0125220D01*
X0094221Y0123499D01*
X0092301Y0122984D01*
X0090580Y0123978D01*
X0091353Y0124571D01*
X0091031Y0125771D01*
X0091652Y0126846D01*
X0092852Y0127168D01*
X0093927Y0126547D01*
X0094249Y0125347D01*
X0093628Y0124272D01*
X0092428Y0123950D01*
X0091353Y0124571D01*
X0092126Y0125164D01*
X0091997Y0125644D01*
X0092245Y0126073D01*
X0092725Y0126202D01*
X0093154Y0125954D01*
X0093283Y0125474D01*
X0093035Y0125045D01*
X0092555Y0124916D01*
X0092126Y0125164D01*
X0099840Y0119578D02*
X0099240Y0118978D01*
X0098725Y0120898D01*
X0099719Y0122619D01*
X0101639Y0123134D01*
X0103360Y0122140D01*
X0103875Y0120220D01*
X0102881Y0118499D01*
X0100961Y0117984D01*
X0099240Y0118978D01*
X0100013Y0119571D01*
X0099691Y0120771D01*
X0100312Y0121846D01*
X0101512Y0122168D01*
X0102587Y0121547D01*
X0102909Y0120347D01*
X0102288Y0119272D01*
X0101088Y0118950D01*
X0100013Y0119571D01*
X0100786Y0120164D01*
X0100657Y0120644D01*
X0100905Y0121073D01*
X0101385Y0121202D01*
X0101814Y0120954D01*
X0101943Y0120474D01*
X0101695Y0120045D01*
X0101215Y0119916D01*
X0100786Y0120164D01*
X0104840Y0128238D02*
X0104240Y0127638D01*
X0103725Y0129558D01*
X0104719Y0131279D01*
X0106639Y0131794D01*
X0108360Y0130800D01*
X0108875Y0128880D01*
X0107881Y0127159D01*
X0105961Y0126644D01*
X0104240Y0127638D01*
X0105013Y0128231D01*
X0104691Y0129431D01*
X0105312Y0130506D01*
X0106512Y0130828D01*
X0107587Y0130207D01*
X0107909Y0129007D01*
X0107288Y0127932D01*
X0106088Y0127610D01*
X0105013Y0128231D01*
X0105786Y0128824D01*
X0105657Y0129304D01*
X0105905Y0129733D01*
X0106385Y0129862D01*
X0106814Y0129614D01*
X0106943Y0129134D01*
X0106695Y0128705D01*
X0106215Y0128576D01*
X0105786Y0128824D01*
X0096180Y0133238D02*
X0095580Y0132638D01*
X0095065Y0134558D01*
X0096059Y0136279D01*
X0097979Y0136794D01*
X0099700Y0135800D01*
X0100215Y0133880D01*
X0099221Y0132159D01*
X0097301Y0131644D01*
X0095580Y0132638D01*
X0096353Y0133231D01*
X0096031Y0134431D01*
X0096652Y0135506D01*
X0097852Y0135828D01*
X0098927Y0135207D01*
X0099249Y0134007D01*
X0098628Y0132932D01*
X0097428Y0132610D01*
X0096353Y0133231D01*
X0097126Y0133824D01*
X0096997Y0134304D01*
X0097245Y0134733D01*
X0097725Y0134862D01*
X0098154Y0134614D01*
X0098283Y0134134D01*
X0098035Y0133705D01*
X0097555Y0133576D01*
X0097126Y0133824D01*
X0101180Y0141898D02*
X0100580Y0141298D01*
X0100065Y0143218D01*
X0101059Y0144939D01*
X0102979Y0145454D01*
X0104700Y0144460D01*
X0105215Y0142540D01*
X0104221Y0140819D01*
X0102301Y0140304D01*
X0100580Y0141298D01*
X0101353Y0141891D01*
X0101031Y0143091D01*
X0101652Y0144166D01*
X0102852Y0144488D01*
X0103927Y0143867D01*
X0104249Y0142667D01*
X0103628Y0141592D01*
X0102428Y0141270D01*
X0101353Y0141891D01*
X0102126Y0142484D01*
X0101997Y0142964D01*
X0102245Y0143393D01*
X0102725Y0143522D01*
X0103154Y0143274D01*
X0103283Y0142794D01*
X0103035Y0142365D01*
X0102555Y0142236D01*
X0102126Y0142484D01*
X0109840Y0136898D02*
X0109240Y0136298D01*
X0108725Y0138218D01*
X0109719Y0139939D01*
X0111639Y0140454D01*
X0113360Y0139460D01*
X0113875Y0137540D01*
X0112881Y0135819D01*
X0110961Y0135304D01*
X0109240Y0136298D01*
X0110013Y0136891D01*
X0109691Y0138091D01*
X0110312Y0139166D01*
X0111512Y0139488D01*
X0112587Y0138867D01*
X0112909Y0137667D01*
X0112288Y0136592D01*
X0111088Y0136270D01*
X0110013Y0136891D01*
X0110786Y0137484D01*
X0110657Y0137964D01*
X0110905Y0138393D01*
X0111385Y0138522D01*
X0111814Y0138274D01*
X0111943Y0137794D01*
X0111695Y0137365D01*
X0111215Y0137236D01*
X0110786Y0137484D01*
X0116300Y0146540D02*
X0116300Y0146600D01*
X0109900Y0153000D01*
X0107640Y0151540D01*
X0107900Y0151800D01*
X0111900Y0155800D01*
X0112300Y0155400D01*
X0121100Y0155400D01*
X0121300Y0155200D01*
X0112300Y0156200D02*
X0112300Y0159800D01*
X0112640Y0160200D01*
X0112700Y0160600D01*
X0112700Y0173400D01*
X0118300Y0179000D01*
X0118300Y0185800D01*
X0127500Y0185800D01*
X0127640Y0186181D01*
X0126180Y0185200D02*
X0125580Y0184600D01*
X0125065Y0186520D01*
X0126059Y0188241D01*
X0127979Y0188756D01*
X0129700Y0187762D01*
X0130215Y0185842D01*
X0129221Y0184121D01*
X0127301Y0183606D01*
X0125580Y0184600D01*
X0126353Y0185193D01*
X0126031Y0186393D01*
X0126652Y0187468D01*
X0127852Y0187790D01*
X0128927Y0187169D01*
X0129249Y0185969D01*
X0128628Y0184894D01*
X0127428Y0184572D01*
X0126353Y0185193D01*
X0127126Y0185786D01*
X0126997Y0186266D01*
X0127245Y0186695D01*
X0127725Y0186824D01*
X0128154Y0186576D01*
X0128283Y0186096D01*
X0128035Y0185667D01*
X0127555Y0185538D01*
X0127126Y0185786D01*
X0121180Y0176539D02*
X0120580Y0175939D01*
X0120065Y0177859D01*
X0121059Y0179580D01*
X0122979Y0180095D01*
X0124700Y0179101D01*
X0125215Y0177181D01*
X0124221Y0175460D01*
X0122301Y0174945D01*
X0120580Y0175939D01*
X0121353Y0176532D01*
X0121031Y0177732D01*
X0121652Y0178807D01*
X0122852Y0179129D01*
X0123927Y0178508D01*
X0124249Y0177308D01*
X0123628Y0176233D01*
X0122428Y0175911D01*
X0121353Y0176532D01*
X0122126Y0177125D01*
X0121997Y0177605D01*
X0122245Y0178034D01*
X0122725Y0178163D01*
X0123154Y0177915D01*
X0123283Y0177435D01*
X0123035Y0177006D01*
X0122555Y0176877D01*
X0122126Y0177125D01*
X0122300Y0177400D02*
X0122640Y0177520D01*
X0122300Y0177400D02*
X0122300Y0173400D01*
X0117900Y0169000D01*
X0117640Y0168860D01*
X0116180Y0167879D02*
X0115580Y0167279D01*
X0115065Y0169199D01*
X0116059Y0170920D01*
X0117979Y0171435D01*
X0119700Y0170441D01*
X0120215Y0168521D01*
X0119221Y0166800D01*
X0117301Y0166285D01*
X0115580Y0167279D01*
X0116353Y0167872D01*
X0116031Y0169072D01*
X0116652Y0170147D01*
X0117852Y0170469D01*
X0118927Y0169848D01*
X0119249Y0168648D01*
X0118628Y0167573D01*
X0117428Y0167251D01*
X0116353Y0167872D01*
X0117126Y0168465D01*
X0116997Y0168945D01*
X0117245Y0169374D01*
X0117725Y0169503D01*
X0118154Y0169255D01*
X0118283Y0168775D01*
X0118035Y0168346D01*
X0117555Y0168217D01*
X0117126Y0168465D01*
X0124840Y0162879D02*
X0124240Y0162279D01*
X0123725Y0164199D01*
X0124719Y0165920D01*
X0126639Y0166435D01*
X0128360Y0165441D01*
X0128875Y0163521D01*
X0127881Y0161800D01*
X0125961Y0161285D01*
X0124240Y0162279D01*
X0125013Y0162872D01*
X0124691Y0164072D01*
X0125312Y0165147D01*
X0126512Y0165469D01*
X0127587Y0164848D01*
X0127909Y0163648D01*
X0127288Y0162573D01*
X0126088Y0162251D01*
X0125013Y0162872D01*
X0125786Y0163465D01*
X0125657Y0163945D01*
X0125905Y0164374D01*
X0126385Y0164503D01*
X0126814Y0164255D01*
X0126943Y0163775D01*
X0126695Y0163346D01*
X0126215Y0163217D01*
X0125786Y0163465D01*
X0129840Y0171539D02*
X0129240Y0170939D01*
X0128725Y0172859D01*
X0129719Y0174580D01*
X0131639Y0175095D01*
X0133360Y0174101D01*
X0133875Y0172181D01*
X0132881Y0170460D01*
X0130961Y0169945D01*
X0129240Y0170939D01*
X0130013Y0171532D01*
X0129691Y0172732D01*
X0130312Y0173807D01*
X0131512Y0174129D01*
X0132587Y0173508D01*
X0132909Y0172308D01*
X0132288Y0171233D01*
X0131088Y0170911D01*
X0130013Y0171532D01*
X0130786Y0172125D01*
X0130657Y0172605D01*
X0130905Y0173034D01*
X0131385Y0173163D01*
X0131814Y0172915D01*
X0131943Y0172435D01*
X0131695Y0172006D01*
X0131215Y0171877D01*
X0130786Y0172125D01*
X0134840Y0180200D02*
X0134240Y0179600D01*
X0133725Y0181520D01*
X0134719Y0183241D01*
X0136639Y0183756D01*
X0138360Y0182762D01*
X0138875Y0180842D01*
X0137881Y0179121D01*
X0135961Y0178606D01*
X0134240Y0179600D01*
X0135013Y0180193D01*
X0134691Y0181393D01*
X0135312Y0182468D01*
X0136512Y0182790D01*
X0137587Y0182169D01*
X0137909Y0180969D01*
X0137288Y0179894D01*
X0136088Y0179572D01*
X0135013Y0180193D01*
X0135786Y0180786D01*
X0135657Y0181266D01*
X0135905Y0181695D01*
X0136385Y0181824D01*
X0136814Y0181576D01*
X0136943Y0181096D01*
X0136695Y0180667D01*
X0136215Y0180538D01*
X0135786Y0180786D01*
X0139840Y0188860D02*
X0139240Y0188260D01*
X0138725Y0190180D01*
X0139719Y0191901D01*
X0141639Y0192416D01*
X0143360Y0191422D01*
X0143875Y0189502D01*
X0142881Y0187781D01*
X0140961Y0187266D01*
X0139240Y0188260D01*
X0140013Y0188853D01*
X0139691Y0190053D01*
X0140312Y0191128D01*
X0141512Y0191450D01*
X0142587Y0190829D01*
X0142909Y0189629D01*
X0142288Y0188554D01*
X0141088Y0188232D01*
X0140013Y0188853D01*
X0140786Y0189446D01*
X0140657Y0189926D01*
X0140905Y0190355D01*
X0141385Y0190484D01*
X0141814Y0190236D01*
X0141943Y0189756D01*
X0141695Y0189327D01*
X0141215Y0189198D01*
X0140786Y0189446D01*
X0131180Y0193860D02*
X0130580Y0193260D01*
X0130065Y0195180D01*
X0131059Y0196901D01*
X0132979Y0197416D01*
X0134700Y0196422D01*
X0135215Y0194502D01*
X0134221Y0192781D01*
X0132301Y0192266D01*
X0130580Y0193260D01*
X0131353Y0193853D01*
X0131031Y0195053D01*
X0131652Y0196128D01*
X0132852Y0196450D01*
X0133927Y0195829D01*
X0134249Y0194629D01*
X0133628Y0193554D01*
X0132428Y0193232D01*
X0131353Y0193853D01*
X0132126Y0194446D01*
X0131997Y0194926D01*
X0132245Y0195355D01*
X0132725Y0195484D01*
X0133154Y0195236D01*
X0133283Y0194756D01*
X0133035Y0194327D01*
X0132555Y0194198D01*
X0132126Y0194446D01*
X0136180Y0202520D02*
X0135580Y0201920D01*
X0135065Y0203840D01*
X0136059Y0205561D01*
X0137979Y0206076D01*
X0139700Y0205082D01*
X0140215Y0203162D01*
X0139221Y0201441D01*
X0137301Y0200926D01*
X0135580Y0201920D01*
X0136353Y0202513D01*
X0136031Y0203713D01*
X0136652Y0204788D01*
X0137852Y0205110D01*
X0138927Y0204489D01*
X0139249Y0203289D01*
X0138628Y0202214D01*
X0137428Y0201892D01*
X0136353Y0202513D01*
X0137126Y0203106D01*
X0136997Y0203586D01*
X0137245Y0204015D01*
X0137725Y0204144D01*
X0138154Y0203896D01*
X0138283Y0203416D01*
X0138035Y0202987D01*
X0137555Y0202858D01*
X0137126Y0203106D01*
X0141180Y0211181D02*
X0140580Y0210581D01*
X0140065Y0212501D01*
X0141059Y0214222D01*
X0142979Y0214737D01*
X0144700Y0213743D01*
X0145215Y0211823D01*
X0144221Y0210102D01*
X0142301Y0209587D01*
X0140580Y0210581D01*
X0141353Y0211174D01*
X0141031Y0212374D01*
X0141652Y0213449D01*
X0142852Y0213771D01*
X0143927Y0213150D01*
X0144249Y0211950D01*
X0143628Y0210875D01*
X0142428Y0210553D01*
X0141353Y0211174D01*
X0142126Y0211767D01*
X0141997Y0212247D01*
X0142245Y0212676D01*
X0142725Y0212805D01*
X0143154Y0212557D01*
X0143283Y0212077D01*
X0143035Y0211648D01*
X0142555Y0211519D01*
X0142126Y0211767D01*
X0149840Y0206181D02*
X0149240Y0205581D01*
X0148725Y0207501D01*
X0149719Y0209222D01*
X0151639Y0209737D01*
X0153360Y0208743D01*
X0153875Y0206823D01*
X0152881Y0205102D01*
X0150961Y0204587D01*
X0149240Y0205581D01*
X0150013Y0206174D01*
X0149691Y0207374D01*
X0150312Y0208449D01*
X0151512Y0208771D01*
X0152587Y0208150D01*
X0152909Y0206950D01*
X0152288Y0205875D01*
X0151088Y0205553D01*
X0150013Y0206174D01*
X0150786Y0206767D01*
X0150657Y0207247D01*
X0150905Y0207676D01*
X0151385Y0207805D01*
X0151814Y0207557D01*
X0151943Y0207077D01*
X0151695Y0206648D01*
X0151215Y0206519D01*
X0150786Y0206767D01*
X0144840Y0197520D02*
X0144240Y0196920D01*
X0143725Y0198840D01*
X0144719Y0200561D01*
X0146639Y0201076D01*
X0148360Y0200082D01*
X0148875Y0198162D01*
X0147881Y0196441D01*
X0145961Y0195926D01*
X0144240Y0196920D01*
X0145013Y0197513D01*
X0144691Y0198713D01*
X0145312Y0199788D01*
X0146512Y0200110D01*
X0147587Y0199489D01*
X0147909Y0198289D01*
X0147288Y0197214D01*
X0146088Y0196892D01*
X0145013Y0197513D01*
X0145786Y0198106D01*
X0145657Y0198586D01*
X0145905Y0199015D01*
X0146385Y0199144D01*
X0146814Y0198896D01*
X0146943Y0198416D01*
X0146695Y0197987D01*
X0146215Y0197858D01*
X0145786Y0198106D01*
X0154840Y0214841D02*
X0154240Y0214241D01*
X0153725Y0216161D01*
X0154719Y0217882D01*
X0156639Y0218397D01*
X0158360Y0217403D01*
X0158875Y0215483D01*
X0157881Y0213762D01*
X0155961Y0213247D01*
X0154240Y0214241D01*
X0155013Y0214834D01*
X0154691Y0216034D01*
X0155312Y0217109D01*
X0156512Y0217431D01*
X0157587Y0216810D01*
X0157909Y0215610D01*
X0157288Y0214535D01*
X0156088Y0214213D01*
X0155013Y0214834D01*
X0155786Y0215427D01*
X0155657Y0215907D01*
X0155905Y0216336D01*
X0156385Y0216465D01*
X0156814Y0216217D01*
X0156943Y0215737D01*
X0156695Y0215308D01*
X0156215Y0215179D01*
X0155786Y0215427D01*
X0146180Y0219841D02*
X0145580Y0219241D01*
X0145065Y0221161D01*
X0146059Y0222882D01*
X0147979Y0223397D01*
X0149700Y0222403D01*
X0150215Y0220483D01*
X0149221Y0218762D01*
X0147301Y0218247D01*
X0145580Y0219241D01*
X0146353Y0219834D01*
X0146031Y0221034D01*
X0146652Y0222109D01*
X0147852Y0222431D01*
X0148927Y0221810D01*
X0149249Y0220610D01*
X0148628Y0219535D01*
X0147428Y0219213D01*
X0146353Y0219834D01*
X0147126Y0220427D01*
X0146997Y0220907D01*
X0147245Y0221336D01*
X0147725Y0221465D01*
X0148154Y0221217D01*
X0148283Y0220737D01*
X0148035Y0220308D01*
X0147555Y0220179D01*
X0147126Y0220427D01*
X0151180Y0228501D02*
X0150580Y0227901D01*
X0150065Y0229821D01*
X0151059Y0231542D01*
X0152979Y0232057D01*
X0154700Y0231063D01*
X0155215Y0229143D01*
X0154221Y0227422D01*
X0152301Y0226907D01*
X0150580Y0227901D01*
X0151353Y0228494D01*
X0151031Y0229694D01*
X0151652Y0230769D01*
X0152852Y0231091D01*
X0153927Y0230470D01*
X0154249Y0229270D01*
X0153628Y0228195D01*
X0152428Y0227873D01*
X0151353Y0228494D01*
X0152126Y0229087D01*
X0151997Y0229567D01*
X0152245Y0229996D01*
X0152725Y0230125D01*
X0153154Y0229877D01*
X0153283Y0229397D01*
X0153035Y0228968D01*
X0152555Y0228839D01*
X0152126Y0229087D01*
X0159840Y0223501D02*
X0159240Y0222901D01*
X0158725Y0224821D01*
X0159719Y0226542D01*
X0161639Y0227057D01*
X0163360Y0226063D01*
X0163875Y0224143D01*
X0162881Y0222422D01*
X0160961Y0221907D01*
X0159240Y0222901D01*
X0160013Y0223494D01*
X0159691Y0224694D01*
X0160312Y0225769D01*
X0161512Y0226091D01*
X0162587Y0225470D01*
X0162909Y0224270D01*
X0162288Y0223195D01*
X0161088Y0222873D01*
X0160013Y0223494D01*
X0160786Y0224087D01*
X0160657Y0224567D01*
X0160905Y0224996D01*
X0161385Y0225125D01*
X0161814Y0224877D01*
X0161943Y0224397D01*
X0161695Y0223968D01*
X0161215Y0223839D01*
X0160786Y0224087D01*
X0164840Y0232161D02*
X0164240Y0231561D01*
X0163725Y0233481D01*
X0164719Y0235202D01*
X0166639Y0235717D01*
X0168360Y0234723D01*
X0168875Y0232803D01*
X0167881Y0231082D01*
X0165961Y0230567D01*
X0164240Y0231561D01*
X0165013Y0232154D01*
X0164691Y0233354D01*
X0165312Y0234429D01*
X0166512Y0234751D01*
X0167587Y0234130D01*
X0167909Y0232930D01*
X0167288Y0231855D01*
X0166088Y0231533D01*
X0165013Y0232154D01*
X0165786Y0232747D01*
X0165657Y0233227D01*
X0165905Y0233656D01*
X0166385Y0233785D01*
X0166814Y0233537D01*
X0166943Y0233057D01*
X0166695Y0232628D01*
X0166215Y0232499D01*
X0165786Y0232747D01*
X0156180Y0237161D02*
X0155580Y0236561D01*
X0155065Y0238481D01*
X0156059Y0240202D01*
X0157979Y0240717D01*
X0159700Y0239723D01*
X0160215Y0237803D01*
X0159221Y0236082D01*
X0157301Y0235567D01*
X0155580Y0236561D01*
X0156353Y0237154D01*
X0156031Y0238354D01*
X0156652Y0239429D01*
X0157852Y0239751D01*
X0158927Y0239130D01*
X0159249Y0237930D01*
X0158628Y0236855D01*
X0157428Y0236533D01*
X0156353Y0237154D01*
X0157126Y0237747D01*
X0156997Y0238227D01*
X0157245Y0238656D01*
X0157725Y0238785D01*
X0158154Y0238537D01*
X0158283Y0238057D01*
X0158035Y0237628D01*
X0157555Y0237499D01*
X0157126Y0237747D01*
X0161180Y0245822D02*
X0160580Y0245222D01*
X0160065Y0247142D01*
X0161059Y0248863D01*
X0162979Y0249378D01*
X0164700Y0248384D01*
X0165215Y0246464D01*
X0164221Y0244743D01*
X0162301Y0244228D01*
X0160580Y0245222D01*
X0161353Y0245815D01*
X0161031Y0247015D01*
X0161652Y0248090D01*
X0162852Y0248412D01*
X0163927Y0247791D01*
X0164249Y0246591D01*
X0163628Y0245516D01*
X0162428Y0245194D01*
X0161353Y0245815D01*
X0162126Y0246408D01*
X0161997Y0246888D01*
X0162245Y0247317D01*
X0162725Y0247446D01*
X0163154Y0247198D01*
X0163283Y0246718D01*
X0163035Y0246289D01*
X0162555Y0246160D01*
X0162126Y0246408D01*
X0169840Y0240822D02*
X0169240Y0240222D01*
X0168725Y0242142D01*
X0169719Y0243863D01*
X0171639Y0244378D01*
X0173360Y0243384D01*
X0173875Y0241464D01*
X0172881Y0239743D01*
X0170961Y0239228D01*
X0169240Y0240222D01*
X0170013Y0240815D01*
X0169691Y0242015D01*
X0170312Y0243090D01*
X0171512Y0243412D01*
X0172587Y0242791D01*
X0172909Y0241591D01*
X0172288Y0240516D01*
X0171088Y0240194D01*
X0170013Y0240815D01*
X0170786Y0241408D01*
X0170657Y0241888D01*
X0170905Y0242317D01*
X0171385Y0242446D01*
X0171814Y0242198D01*
X0171943Y0241718D01*
X0171695Y0241289D01*
X0171215Y0241160D01*
X0170786Y0241408D01*
X0174840Y0249482D02*
X0174240Y0248882D01*
X0173725Y0250802D01*
X0174719Y0252523D01*
X0176639Y0253038D01*
X0178360Y0252044D01*
X0178875Y0250124D01*
X0177881Y0248403D01*
X0175961Y0247888D01*
X0174240Y0248882D01*
X0175013Y0249475D01*
X0174691Y0250675D01*
X0175312Y0251750D01*
X0176512Y0252072D01*
X0177587Y0251451D01*
X0177909Y0250251D01*
X0177288Y0249176D01*
X0176088Y0248854D01*
X0175013Y0249475D01*
X0175786Y0250068D01*
X0175657Y0250548D01*
X0175905Y0250977D01*
X0176385Y0251106D01*
X0176814Y0250858D01*
X0176943Y0250378D01*
X0176695Y0249949D01*
X0176215Y0249820D01*
X0175786Y0250068D01*
X0166180Y0254482D02*
X0165580Y0253882D01*
X0165065Y0255802D01*
X0166059Y0257523D01*
X0167979Y0258038D01*
X0169700Y0257044D01*
X0170215Y0255124D01*
X0169221Y0253403D01*
X0167301Y0252888D01*
X0165580Y0253882D01*
X0166353Y0254475D01*
X0166031Y0255675D01*
X0166652Y0256750D01*
X0167852Y0257072D01*
X0168927Y0256451D01*
X0169249Y0255251D01*
X0168628Y0254176D01*
X0167428Y0253854D01*
X0166353Y0254475D01*
X0167126Y0255068D01*
X0166997Y0255548D01*
X0167245Y0255977D01*
X0167725Y0256106D01*
X0168154Y0255858D01*
X0168283Y0255378D01*
X0168035Y0254949D01*
X0167555Y0254820D01*
X0167126Y0255068D01*
X0171180Y0263142D02*
X0170580Y0262542D01*
X0170065Y0264462D01*
X0171059Y0266183D01*
X0172979Y0266698D01*
X0174700Y0265704D01*
X0175215Y0263784D01*
X0174221Y0262063D01*
X0172301Y0261548D01*
X0170580Y0262542D01*
X0171353Y0263135D01*
X0171031Y0264335D01*
X0171652Y0265410D01*
X0172852Y0265732D01*
X0173927Y0265111D01*
X0174249Y0263911D01*
X0173628Y0262836D01*
X0172428Y0262514D01*
X0171353Y0263135D01*
X0172126Y0263728D01*
X0171997Y0264208D01*
X0172245Y0264637D01*
X0172725Y0264766D01*
X0173154Y0264518D01*
X0173283Y0264038D01*
X0173035Y0263609D01*
X0172555Y0263480D01*
X0172126Y0263728D01*
X0179840Y0258142D02*
X0179240Y0257542D01*
X0178725Y0259462D01*
X0179719Y0261183D01*
X0181639Y0261698D01*
X0183360Y0260704D01*
X0183875Y0258784D01*
X0182881Y0257063D01*
X0180961Y0256548D01*
X0179240Y0257542D01*
X0180013Y0258135D01*
X0179691Y0259335D01*
X0180312Y0260410D01*
X0181512Y0260732D01*
X0182587Y0260111D01*
X0182909Y0258911D01*
X0182288Y0257836D01*
X0181088Y0257514D01*
X0180013Y0258135D01*
X0180786Y0258728D01*
X0180657Y0259208D01*
X0180905Y0259637D01*
X0181385Y0259766D01*
X0181814Y0259518D01*
X0181943Y0259038D01*
X0181695Y0258609D01*
X0181215Y0258480D01*
X0180786Y0258728D01*
X0184840Y0266802D02*
X0184240Y0266202D01*
X0183725Y0268122D01*
X0184719Y0269843D01*
X0186639Y0270358D01*
X0188360Y0269364D01*
X0188875Y0267444D01*
X0187881Y0265723D01*
X0185961Y0265208D01*
X0184240Y0266202D01*
X0185013Y0266795D01*
X0184691Y0267995D01*
X0185312Y0269070D01*
X0186512Y0269392D01*
X0187587Y0268771D01*
X0187909Y0267571D01*
X0187288Y0266496D01*
X0186088Y0266174D01*
X0185013Y0266795D01*
X0185786Y0267388D01*
X0185657Y0267868D01*
X0185905Y0268297D01*
X0186385Y0268426D01*
X0186814Y0268178D01*
X0186943Y0267698D01*
X0186695Y0267269D01*
X0186215Y0267140D01*
X0185786Y0267388D01*
X0176180Y0271802D02*
X0175580Y0271202D01*
X0175065Y0273122D01*
X0176059Y0274843D01*
X0177979Y0275358D01*
X0179700Y0274364D01*
X0180215Y0272444D01*
X0179221Y0270723D01*
X0177301Y0270208D01*
X0175580Y0271202D01*
X0176353Y0271795D01*
X0176031Y0272995D01*
X0176652Y0274070D01*
X0177852Y0274392D01*
X0178927Y0273771D01*
X0179249Y0272571D01*
X0178628Y0271496D01*
X0177428Y0271174D01*
X0176353Y0271795D01*
X0177126Y0272388D01*
X0176997Y0272868D01*
X0177245Y0273297D01*
X0177725Y0273426D01*
X0178154Y0273178D01*
X0178283Y0272698D01*
X0178035Y0272269D01*
X0177555Y0272140D01*
X0177126Y0272388D01*
X0181180Y0280463D02*
X0180580Y0279863D01*
X0180065Y0281783D01*
X0181059Y0283504D01*
X0182979Y0284019D01*
X0184700Y0283025D01*
X0185215Y0281105D01*
X0184221Y0279384D01*
X0182301Y0278869D01*
X0180580Y0279863D01*
X0181353Y0280456D01*
X0181031Y0281656D01*
X0181652Y0282731D01*
X0182852Y0283053D01*
X0183927Y0282432D01*
X0184249Y0281232D01*
X0183628Y0280157D01*
X0182428Y0279835D01*
X0181353Y0280456D01*
X0182126Y0281049D01*
X0181997Y0281529D01*
X0182245Y0281958D01*
X0182725Y0282087D01*
X0183154Y0281839D01*
X0183283Y0281359D01*
X0183035Y0280930D01*
X0182555Y0280801D01*
X0182126Y0281049D01*
X0189840Y0275463D02*
X0189240Y0274863D01*
X0188725Y0276783D01*
X0189719Y0278504D01*
X0191639Y0279019D01*
X0193360Y0278025D01*
X0193875Y0276105D01*
X0192881Y0274384D01*
X0190961Y0273869D01*
X0189240Y0274863D01*
X0190013Y0275456D01*
X0189691Y0276656D01*
X0190312Y0277731D01*
X0191512Y0278053D01*
X0192587Y0277432D01*
X0192909Y0276232D01*
X0192288Y0275157D01*
X0191088Y0274835D01*
X0190013Y0275456D01*
X0190786Y0276049D01*
X0190657Y0276529D01*
X0190905Y0276958D01*
X0191385Y0277087D01*
X0191814Y0276839D01*
X0191943Y0276359D01*
X0191695Y0275930D01*
X0191215Y0275801D01*
X0190786Y0276049D01*
X0194840Y0284123D02*
X0194240Y0283523D01*
X0193725Y0285443D01*
X0194719Y0287164D01*
X0196639Y0287679D01*
X0198360Y0286685D01*
X0198875Y0284765D01*
X0197881Y0283044D01*
X0195961Y0282529D01*
X0194240Y0283523D01*
X0195013Y0284116D01*
X0194691Y0285316D01*
X0195312Y0286391D01*
X0196512Y0286713D01*
X0197587Y0286092D01*
X0197909Y0284892D01*
X0197288Y0283817D01*
X0196088Y0283495D01*
X0195013Y0284116D01*
X0195786Y0284709D01*
X0195657Y0285189D01*
X0195905Y0285618D01*
X0196385Y0285747D01*
X0196814Y0285499D01*
X0196943Y0285019D01*
X0196695Y0284590D01*
X0196215Y0284461D01*
X0195786Y0284709D01*
X0186180Y0289123D02*
X0185580Y0288523D01*
X0185065Y0290443D01*
X0186059Y0292164D01*
X0187979Y0292679D01*
X0189700Y0291685D01*
X0190215Y0289765D01*
X0189221Y0288044D01*
X0187301Y0287529D01*
X0185580Y0288523D01*
X0186353Y0289116D01*
X0186031Y0290316D01*
X0186652Y0291391D01*
X0187852Y0291713D01*
X0188927Y0291092D01*
X0189249Y0289892D01*
X0188628Y0288817D01*
X0187428Y0288495D01*
X0186353Y0289116D01*
X0187126Y0289709D01*
X0186997Y0290189D01*
X0187245Y0290618D01*
X0187725Y0290747D01*
X0188154Y0290499D01*
X0188283Y0290019D01*
X0188035Y0289590D01*
X0187555Y0289461D01*
X0187126Y0289709D01*
X0191180Y0297783D02*
X0190580Y0297183D01*
X0190065Y0299103D01*
X0191059Y0300824D01*
X0192979Y0301339D01*
X0194700Y0300345D01*
X0195215Y0298425D01*
X0194221Y0296704D01*
X0192301Y0296189D01*
X0190580Y0297183D01*
X0191353Y0297776D01*
X0191031Y0298976D01*
X0191652Y0300051D01*
X0192852Y0300373D01*
X0193927Y0299752D01*
X0194249Y0298552D01*
X0193628Y0297477D01*
X0192428Y0297155D01*
X0191353Y0297776D01*
X0192126Y0298369D01*
X0191997Y0298849D01*
X0192245Y0299278D01*
X0192725Y0299407D01*
X0193154Y0299159D01*
X0193283Y0298679D01*
X0193035Y0298250D01*
X0192555Y0298121D01*
X0192126Y0298369D01*
X0199840Y0292783D02*
X0199240Y0292183D01*
X0198725Y0294103D01*
X0199719Y0295824D01*
X0201639Y0296339D01*
X0203360Y0295345D01*
X0203875Y0293425D01*
X0202881Y0291704D01*
X0200961Y0291189D01*
X0199240Y0292183D01*
X0200013Y0292776D01*
X0199691Y0293976D01*
X0200312Y0295051D01*
X0201512Y0295373D01*
X0202587Y0294752D01*
X0202909Y0293552D01*
X0202288Y0292477D01*
X0201088Y0292155D01*
X0200013Y0292776D01*
X0200786Y0293369D01*
X0200657Y0293849D01*
X0200905Y0294278D01*
X0201385Y0294407D01*
X0201814Y0294159D01*
X0201943Y0293679D01*
X0201695Y0293250D01*
X0201215Y0293121D01*
X0200786Y0293369D01*
X0204840Y0301443D02*
X0204240Y0300843D01*
X0203725Y0302763D01*
X0204719Y0304484D01*
X0206639Y0304999D01*
X0208360Y0304005D01*
X0208875Y0302085D01*
X0207881Y0300364D01*
X0205961Y0299849D01*
X0204240Y0300843D01*
X0205013Y0301436D01*
X0204691Y0302636D01*
X0205312Y0303711D01*
X0206512Y0304033D01*
X0207587Y0303412D01*
X0207909Y0302212D01*
X0207288Y0301137D01*
X0206088Y0300815D01*
X0205013Y0301436D01*
X0205786Y0302029D01*
X0205657Y0302509D01*
X0205905Y0302938D01*
X0206385Y0303067D01*
X0206814Y0302819D01*
X0206943Y0302339D01*
X0206695Y0301910D01*
X0206215Y0301781D01*
X0205786Y0302029D01*
X0196180Y0306443D02*
X0195580Y0305843D01*
X0195065Y0307763D01*
X0196059Y0309484D01*
X0197979Y0309999D01*
X0199700Y0309005D01*
X0200215Y0307085D01*
X0199221Y0305364D01*
X0197301Y0304849D01*
X0195580Y0305843D01*
X0196353Y0306436D01*
X0196031Y0307636D01*
X0196652Y0308711D01*
X0197852Y0309033D01*
X0198927Y0308412D01*
X0199249Y0307212D01*
X0198628Y0306137D01*
X0197428Y0305815D01*
X0196353Y0306436D01*
X0197126Y0307029D01*
X0196997Y0307509D01*
X0197245Y0307938D01*
X0197725Y0308067D01*
X0198154Y0307819D01*
X0198283Y0307339D01*
X0198035Y0306910D01*
X0197555Y0306781D01*
X0197126Y0307029D01*
X0201180Y0315104D02*
X0200580Y0314504D01*
X0200065Y0316424D01*
X0201059Y0318145D01*
X0202979Y0318660D01*
X0204700Y0317666D01*
X0205215Y0315746D01*
X0204221Y0314025D01*
X0202301Y0313510D01*
X0200580Y0314504D01*
X0201353Y0315097D01*
X0201031Y0316297D01*
X0201652Y0317372D01*
X0202852Y0317694D01*
X0203927Y0317073D01*
X0204249Y0315873D01*
X0203628Y0314798D01*
X0202428Y0314476D01*
X0201353Y0315097D01*
X0202126Y0315690D01*
X0201997Y0316170D01*
X0202245Y0316599D01*
X0202725Y0316728D01*
X0203154Y0316480D01*
X0203283Y0316000D01*
X0203035Y0315571D01*
X0202555Y0315442D01*
X0202126Y0315690D01*
X0209840Y0310104D02*
X0209240Y0309504D01*
X0208725Y0311424D01*
X0209719Y0313145D01*
X0211639Y0313660D01*
X0213360Y0312666D01*
X0213875Y0310746D01*
X0212881Y0309025D01*
X0210961Y0308510D01*
X0209240Y0309504D01*
X0210013Y0310097D01*
X0209691Y0311297D01*
X0210312Y0312372D01*
X0211512Y0312694D01*
X0212587Y0312073D01*
X0212909Y0310873D01*
X0212288Y0309798D01*
X0211088Y0309476D01*
X0210013Y0310097D01*
X0210786Y0310690D01*
X0210657Y0311170D01*
X0210905Y0311599D01*
X0211385Y0311728D01*
X0211814Y0311480D01*
X0211943Y0311000D01*
X0211695Y0310571D01*
X0211215Y0310442D01*
X0210786Y0310690D01*
X0214840Y0318764D02*
X0214240Y0318164D01*
X0213725Y0320084D01*
X0214719Y0321805D01*
X0216639Y0322320D01*
X0218360Y0321326D01*
X0218875Y0319406D01*
X0217881Y0317685D01*
X0215961Y0317170D01*
X0214240Y0318164D01*
X0215013Y0318757D01*
X0214691Y0319957D01*
X0215312Y0321032D01*
X0216512Y0321354D01*
X0217587Y0320733D01*
X0217909Y0319533D01*
X0217288Y0318458D01*
X0216088Y0318136D01*
X0215013Y0318757D01*
X0215786Y0319350D01*
X0215657Y0319830D01*
X0215905Y0320259D01*
X0216385Y0320388D01*
X0216814Y0320140D01*
X0216943Y0319660D01*
X0216695Y0319231D01*
X0216215Y0319102D01*
X0215786Y0319350D01*
X0206180Y0323764D02*
X0205580Y0323164D01*
X0205065Y0325084D01*
X0206059Y0326805D01*
X0207979Y0327320D01*
X0209700Y0326326D01*
X0210215Y0324406D01*
X0209221Y0322685D01*
X0207301Y0322170D01*
X0205580Y0323164D01*
X0206353Y0323757D01*
X0206031Y0324957D01*
X0206652Y0326032D01*
X0207852Y0326354D01*
X0208927Y0325733D01*
X0209249Y0324533D01*
X0208628Y0323458D01*
X0207428Y0323136D01*
X0206353Y0323757D01*
X0207126Y0324350D01*
X0206997Y0324830D01*
X0207245Y0325259D01*
X0207725Y0325388D01*
X0208154Y0325140D01*
X0208283Y0324660D01*
X0208035Y0324231D01*
X0207555Y0324102D01*
X0207126Y0324350D01*
X0211180Y0332424D02*
X0210580Y0331824D01*
X0210065Y0333744D01*
X0211059Y0335465D01*
X0212979Y0335980D01*
X0214700Y0334986D01*
X0215215Y0333066D01*
X0214221Y0331345D01*
X0212301Y0330830D01*
X0210580Y0331824D01*
X0211353Y0332417D01*
X0211031Y0333617D01*
X0211652Y0334692D01*
X0212852Y0335014D01*
X0213927Y0334393D01*
X0214249Y0333193D01*
X0213628Y0332118D01*
X0212428Y0331796D01*
X0211353Y0332417D01*
X0212126Y0333010D01*
X0211997Y0333490D01*
X0212245Y0333919D01*
X0212725Y0334048D01*
X0213154Y0333800D01*
X0213283Y0333320D01*
X0213035Y0332891D01*
X0212555Y0332762D01*
X0212126Y0333010D01*
X0219840Y0327424D02*
X0219240Y0326824D01*
X0218725Y0328744D01*
X0219719Y0330465D01*
X0221639Y0330980D01*
X0223360Y0329986D01*
X0223875Y0328066D01*
X0222881Y0326345D01*
X0220961Y0325830D01*
X0219240Y0326824D01*
X0220013Y0327417D01*
X0219691Y0328617D01*
X0220312Y0329692D01*
X0221512Y0330014D01*
X0222587Y0329393D01*
X0222909Y0328193D01*
X0222288Y0327118D01*
X0221088Y0326796D01*
X0220013Y0327417D01*
X0220786Y0328010D01*
X0220657Y0328490D01*
X0220905Y0328919D01*
X0221385Y0329048D01*
X0221814Y0328800D01*
X0221943Y0328320D01*
X0221695Y0327891D01*
X0221215Y0327762D01*
X0220786Y0328010D01*
X0242231Y0332258D02*
X0241631Y0332858D01*
X0243551Y0332343D01*
X0244545Y0330622D01*
X0244030Y0328702D01*
X0242309Y0327708D01*
X0240389Y0328223D01*
X0239395Y0329944D01*
X0239910Y0331864D01*
X0241631Y0332858D01*
X0241758Y0331892D01*
X0242958Y0331570D01*
X0243579Y0330495D01*
X0243257Y0329295D01*
X0242182Y0328674D01*
X0240982Y0328996D01*
X0240361Y0330071D01*
X0240683Y0331271D01*
X0241758Y0331892D01*
X0241885Y0330926D01*
X0242365Y0330797D01*
X0242613Y0330368D01*
X0242484Y0329888D01*
X0242055Y0329640D01*
X0241575Y0329769D01*
X0241327Y0330198D01*
X0241456Y0330678D01*
X0241885Y0330926D01*
X0250891Y0337258D02*
X0250291Y0337858D01*
X0252211Y0337343D01*
X0253205Y0335622D01*
X0252690Y0333702D01*
X0250969Y0332708D01*
X0249049Y0333223D01*
X0248055Y0334944D01*
X0248570Y0336864D01*
X0250291Y0337858D01*
X0250418Y0336892D01*
X0251618Y0336570D01*
X0252239Y0335495D01*
X0251917Y0334295D01*
X0250842Y0333674D01*
X0249642Y0333996D01*
X0249021Y0335071D01*
X0249343Y0336271D01*
X0250418Y0336892D01*
X0250545Y0335926D01*
X0251025Y0335797D01*
X0251273Y0335368D01*
X0251144Y0334888D01*
X0250715Y0334640D01*
X0250235Y0334769D01*
X0249987Y0335198D01*
X0250116Y0335678D01*
X0250545Y0335926D01*
X0255891Y0328598D02*
X0255291Y0329198D01*
X0257211Y0328683D01*
X0258205Y0326962D01*
X0257690Y0325042D01*
X0255969Y0324048D01*
X0254049Y0324563D01*
X0253055Y0326284D01*
X0253570Y0328204D01*
X0255291Y0329198D01*
X0255418Y0328232D01*
X0256618Y0327910D01*
X0257239Y0326835D01*
X0256917Y0325635D01*
X0255842Y0325014D01*
X0254642Y0325336D01*
X0254021Y0326411D01*
X0254343Y0327611D01*
X0255418Y0328232D01*
X0255545Y0327266D01*
X0256025Y0327137D01*
X0256273Y0326708D01*
X0256144Y0326228D01*
X0255715Y0325980D01*
X0255235Y0326109D01*
X0254987Y0326538D01*
X0255116Y0327018D01*
X0255545Y0327266D01*
X0247231Y0323598D02*
X0246631Y0324198D01*
X0248551Y0323683D01*
X0249545Y0321962D01*
X0249030Y0320042D01*
X0247309Y0319048D01*
X0245389Y0319563D01*
X0244395Y0321284D01*
X0244910Y0323204D01*
X0246631Y0324198D01*
X0246758Y0323232D01*
X0247958Y0322910D01*
X0248579Y0321835D01*
X0248257Y0320635D01*
X0247182Y0320014D01*
X0245982Y0320336D01*
X0245361Y0321411D01*
X0245683Y0322611D01*
X0246758Y0323232D01*
X0246885Y0322266D01*
X0247365Y0322137D01*
X0247613Y0321708D01*
X0247484Y0321228D01*
X0247055Y0320980D01*
X0246575Y0321109D01*
X0246327Y0321538D01*
X0246456Y0322018D01*
X0246885Y0322266D01*
X0252231Y0314938D02*
X0251631Y0315538D01*
X0253551Y0315023D01*
X0254545Y0313302D01*
X0254030Y0311382D01*
X0252309Y0310388D01*
X0250389Y0310903D01*
X0249395Y0312624D01*
X0249910Y0314544D01*
X0251631Y0315538D01*
X0251758Y0314572D01*
X0252958Y0314250D01*
X0253579Y0313175D01*
X0253257Y0311975D01*
X0252182Y0311354D01*
X0250982Y0311676D01*
X0250361Y0312751D01*
X0250683Y0313951D01*
X0251758Y0314572D01*
X0251885Y0313606D01*
X0252365Y0313477D01*
X0252613Y0313048D01*
X0252484Y0312568D01*
X0252055Y0312320D01*
X0251575Y0312449D01*
X0251327Y0312878D01*
X0251456Y0313358D01*
X0251885Y0313606D01*
X0260891Y0319938D02*
X0260291Y0320538D01*
X0262211Y0320023D01*
X0263205Y0318302D01*
X0262690Y0316382D01*
X0260969Y0315388D01*
X0259049Y0315903D01*
X0258055Y0317624D01*
X0258570Y0319544D01*
X0260291Y0320538D01*
X0260418Y0319572D01*
X0261618Y0319250D01*
X0262239Y0318175D01*
X0261917Y0316975D01*
X0260842Y0316354D01*
X0259642Y0316676D01*
X0259021Y0317751D01*
X0259343Y0318951D01*
X0260418Y0319572D01*
X0260545Y0318606D01*
X0261025Y0318477D01*
X0261273Y0318048D01*
X0261144Y0317568D01*
X0260715Y0317320D01*
X0260235Y0317449D01*
X0259987Y0317878D01*
X0260116Y0318358D01*
X0260545Y0318606D01*
X0265891Y0311278D02*
X0265291Y0311878D01*
X0267211Y0311363D01*
X0268205Y0309642D01*
X0267690Y0307722D01*
X0265969Y0306728D01*
X0264049Y0307243D01*
X0263055Y0308964D01*
X0263570Y0310884D01*
X0265291Y0311878D01*
X0265418Y0310912D01*
X0266618Y0310590D01*
X0267239Y0309515D01*
X0266917Y0308315D01*
X0265842Y0307694D01*
X0264642Y0308016D01*
X0264021Y0309091D01*
X0264343Y0310291D01*
X0265418Y0310912D01*
X0265545Y0309946D01*
X0266025Y0309817D01*
X0266273Y0309388D01*
X0266144Y0308908D01*
X0265715Y0308660D01*
X0265235Y0308789D01*
X0264987Y0309218D01*
X0265116Y0309698D01*
X0265545Y0309946D01*
X0265630Y0309303D02*
X0265900Y0309000D01*
X0265900Y0299400D01*
X0266700Y0298600D01*
X0266700Y0292200D01*
X0275500Y0292200D01*
X0275630Y0291982D01*
X0275891Y0293957D02*
X0275291Y0294557D01*
X0277211Y0294042D01*
X0278205Y0292321D01*
X0277690Y0290401D01*
X0275969Y0289407D01*
X0274049Y0289922D01*
X0273055Y0291643D01*
X0273570Y0293563D01*
X0275291Y0294557D01*
X0275418Y0293591D01*
X0276618Y0293269D01*
X0277239Y0292194D01*
X0276917Y0290994D01*
X0275842Y0290373D01*
X0274642Y0290695D01*
X0274021Y0291770D01*
X0274343Y0292970D01*
X0275418Y0293591D01*
X0275545Y0292625D01*
X0276025Y0292496D01*
X0276273Y0292067D01*
X0276144Y0291587D01*
X0275715Y0291339D01*
X0275235Y0291468D01*
X0274987Y0291897D01*
X0275116Y0292377D01*
X0275545Y0292625D01*
X0275630Y0291982D02*
X0275500Y0291400D01*
X0275500Y0282200D01*
X0276700Y0281000D01*
X0276700Y0276200D01*
X0271900Y0271400D01*
X0271900Y0231000D01*
X0273100Y0229800D01*
X0271900Y0228600D01*
X0271900Y0185400D01*
X0271500Y0185000D01*
X0260700Y0181400D02*
X0260300Y0181400D01*
X0260700Y0181400D02*
X0260700Y0024600D01*
X0256300Y0020200D01*
X0246300Y0020200D01*
X0266300Y0020200D02*
X0266300Y0030200D01*
X0276300Y0030200D02*
X0276300Y0020200D01*
X0372231Y0107092D02*
X0371631Y0107692D01*
X0373551Y0107177D01*
X0374545Y0105456D01*
X0374030Y0103536D01*
X0372309Y0102542D01*
X0370389Y0103057D01*
X0369395Y0104778D01*
X0369910Y0106698D01*
X0371631Y0107692D01*
X0371758Y0106726D01*
X0372958Y0106404D01*
X0373579Y0105329D01*
X0373257Y0104129D01*
X0372182Y0103508D01*
X0370982Y0103830D01*
X0370361Y0104905D01*
X0370683Y0106105D01*
X0371758Y0106726D01*
X0371885Y0105760D01*
X0372365Y0105631D01*
X0372613Y0105202D01*
X0372484Y0104722D01*
X0372055Y0104474D01*
X0371575Y0104603D01*
X0371327Y0105032D01*
X0371456Y0105512D01*
X0371885Y0105760D01*
X0380891Y0112092D02*
X0380291Y0112692D01*
X0382211Y0112177D01*
X0383205Y0110456D01*
X0382690Y0108536D01*
X0380969Y0107542D01*
X0379049Y0108057D01*
X0378055Y0109778D01*
X0378570Y0111698D01*
X0380291Y0112692D01*
X0380418Y0111726D01*
X0381618Y0111404D01*
X0382239Y0110329D01*
X0381917Y0109129D01*
X0380842Y0108508D01*
X0379642Y0108830D01*
X0379021Y0109905D01*
X0379343Y0111105D01*
X0380418Y0111726D01*
X0380545Y0110760D01*
X0381025Y0110631D01*
X0381273Y0110202D01*
X0381144Y0109722D01*
X0380715Y0109474D01*
X0380235Y0109603D01*
X0379987Y0110032D01*
X0380116Y0110512D01*
X0380545Y0110760D01*
X0375891Y0120752D02*
X0375291Y0121352D01*
X0377211Y0120837D01*
X0378205Y0119116D01*
X0377690Y0117196D01*
X0375969Y0116202D01*
X0374049Y0116717D01*
X0373055Y0118438D01*
X0373570Y0120358D01*
X0375291Y0121352D01*
X0375418Y0120386D01*
X0376618Y0120064D01*
X0377239Y0118989D01*
X0376917Y0117789D01*
X0375842Y0117168D01*
X0374642Y0117490D01*
X0374021Y0118565D01*
X0374343Y0119765D01*
X0375418Y0120386D01*
X0375545Y0119420D01*
X0376025Y0119291D01*
X0376273Y0118862D01*
X0376144Y0118382D01*
X0375715Y0118134D01*
X0375235Y0118263D01*
X0374987Y0118692D01*
X0375116Y0119172D01*
X0375545Y0119420D01*
X0370891Y0129412D02*
X0370291Y0130012D01*
X0372211Y0129497D01*
X0373205Y0127776D01*
X0372690Y0125856D01*
X0370969Y0124862D01*
X0369049Y0125377D01*
X0368055Y0127098D01*
X0368570Y0129018D01*
X0370291Y0130012D01*
X0370418Y0129046D01*
X0371618Y0128724D01*
X0372239Y0127649D01*
X0371917Y0126449D01*
X0370842Y0125828D01*
X0369642Y0126150D01*
X0369021Y0127225D01*
X0369343Y0128425D01*
X0370418Y0129046D01*
X0370545Y0128080D01*
X0371025Y0127951D01*
X0371273Y0127522D01*
X0371144Y0127042D01*
X0370715Y0126794D01*
X0370235Y0126923D01*
X0369987Y0127352D01*
X0370116Y0127832D01*
X0370545Y0128080D01*
X0365891Y0138072D02*
X0365291Y0138672D01*
X0367211Y0138157D01*
X0368205Y0136436D01*
X0367690Y0134516D01*
X0365969Y0133522D01*
X0364049Y0134037D01*
X0363055Y0135758D01*
X0363570Y0137678D01*
X0365291Y0138672D01*
X0365418Y0137706D01*
X0366618Y0137384D01*
X0367239Y0136309D01*
X0366917Y0135109D01*
X0365842Y0134488D01*
X0364642Y0134810D01*
X0364021Y0135885D01*
X0364343Y0137085D01*
X0365418Y0137706D01*
X0365545Y0136740D01*
X0366025Y0136611D01*
X0366273Y0136182D01*
X0366144Y0135702D01*
X0365715Y0135454D01*
X0365235Y0135583D01*
X0364987Y0136012D01*
X0365116Y0136492D01*
X0365545Y0136740D01*
X0360891Y0146733D02*
X0360291Y0147333D01*
X0362211Y0146818D01*
X0363205Y0145097D01*
X0362690Y0143177D01*
X0360969Y0142183D01*
X0359049Y0142698D01*
X0358055Y0144419D01*
X0358570Y0146339D01*
X0360291Y0147333D01*
X0360418Y0146367D01*
X0361618Y0146045D01*
X0362239Y0144970D01*
X0361917Y0143770D01*
X0360842Y0143149D01*
X0359642Y0143471D01*
X0359021Y0144546D01*
X0359343Y0145746D01*
X0360418Y0146367D01*
X0360545Y0145401D01*
X0361025Y0145272D01*
X0361273Y0144843D01*
X0361144Y0144363D01*
X0360715Y0144115D01*
X0360235Y0144244D01*
X0359987Y0144673D01*
X0360116Y0145153D01*
X0360545Y0145401D01*
X0355891Y0155393D02*
X0355291Y0155993D01*
X0357211Y0155478D01*
X0358205Y0153757D01*
X0357690Y0151837D01*
X0355969Y0150843D01*
X0354049Y0151358D01*
X0353055Y0153079D01*
X0353570Y0154999D01*
X0355291Y0155993D01*
X0355418Y0155027D01*
X0356618Y0154705D01*
X0357239Y0153630D01*
X0356917Y0152430D01*
X0355842Y0151809D01*
X0354642Y0152131D01*
X0354021Y0153206D01*
X0354343Y0154406D01*
X0355418Y0155027D01*
X0355545Y0154061D01*
X0356025Y0153932D01*
X0356273Y0153503D01*
X0356144Y0153023D01*
X0355715Y0152775D01*
X0355235Y0152904D01*
X0354987Y0153333D01*
X0355116Y0153813D01*
X0355545Y0154061D01*
X0350891Y0164053D02*
X0350291Y0164653D01*
X0352211Y0164138D01*
X0353205Y0162417D01*
X0352690Y0160497D01*
X0350969Y0159503D01*
X0349049Y0160018D01*
X0348055Y0161739D01*
X0348570Y0163659D01*
X0350291Y0164653D01*
X0350418Y0163687D01*
X0351618Y0163365D01*
X0352239Y0162290D01*
X0351917Y0161090D01*
X0350842Y0160469D01*
X0349642Y0160791D01*
X0349021Y0161866D01*
X0349343Y0163066D01*
X0350418Y0163687D01*
X0350545Y0162721D01*
X0351025Y0162592D01*
X0351273Y0162163D01*
X0351144Y0161683D01*
X0350715Y0161435D01*
X0350235Y0161564D01*
X0349987Y0161993D01*
X0350116Y0162473D01*
X0350545Y0162721D01*
X0345891Y0172713D02*
X0345291Y0173313D01*
X0347211Y0172798D01*
X0348205Y0171077D01*
X0347690Y0169157D01*
X0345969Y0168163D01*
X0344049Y0168678D01*
X0343055Y0170399D01*
X0343570Y0172319D01*
X0345291Y0173313D01*
X0345418Y0172347D01*
X0346618Y0172025D01*
X0347239Y0170950D01*
X0346917Y0169750D01*
X0345842Y0169129D01*
X0344642Y0169451D01*
X0344021Y0170526D01*
X0344343Y0171726D01*
X0345418Y0172347D01*
X0345545Y0171381D01*
X0346025Y0171252D01*
X0346273Y0170823D01*
X0346144Y0170343D01*
X0345715Y0170095D01*
X0345235Y0170224D01*
X0344987Y0170653D01*
X0345116Y0171133D01*
X0345545Y0171381D01*
X0340891Y0181374D02*
X0340291Y0181974D01*
X0342211Y0181459D01*
X0343205Y0179738D01*
X0342690Y0177818D01*
X0340969Y0176824D01*
X0339049Y0177339D01*
X0338055Y0179060D01*
X0338570Y0180980D01*
X0340291Y0181974D01*
X0340418Y0181008D01*
X0341618Y0180686D01*
X0342239Y0179611D01*
X0341917Y0178411D01*
X0340842Y0177790D01*
X0339642Y0178112D01*
X0339021Y0179187D01*
X0339343Y0180387D01*
X0340418Y0181008D01*
X0340545Y0180042D01*
X0341025Y0179913D01*
X0341273Y0179484D01*
X0341144Y0179004D01*
X0340715Y0178756D01*
X0340235Y0178885D01*
X0339987Y0179314D01*
X0340116Y0179794D01*
X0340545Y0180042D01*
X0335891Y0190034D02*
X0335291Y0190634D01*
X0337211Y0190119D01*
X0338205Y0188398D01*
X0337690Y0186478D01*
X0335969Y0185484D01*
X0334049Y0185999D01*
X0333055Y0187720D01*
X0333570Y0189640D01*
X0335291Y0190634D01*
X0335418Y0189668D01*
X0336618Y0189346D01*
X0337239Y0188271D01*
X0336917Y0187071D01*
X0335842Y0186450D01*
X0334642Y0186772D01*
X0334021Y0187847D01*
X0334343Y0189047D01*
X0335418Y0189668D01*
X0335545Y0188702D01*
X0336025Y0188573D01*
X0336273Y0188144D01*
X0336144Y0187664D01*
X0335715Y0187416D01*
X0335235Y0187545D01*
X0334987Y0187974D01*
X0335116Y0188454D01*
X0335545Y0188702D01*
X0330891Y0198694D02*
X0330291Y0199294D01*
X0332211Y0198779D01*
X0333205Y0197058D01*
X0332690Y0195138D01*
X0330969Y0194144D01*
X0329049Y0194659D01*
X0328055Y0196380D01*
X0328570Y0198300D01*
X0330291Y0199294D01*
X0330418Y0198328D01*
X0331618Y0198006D01*
X0332239Y0196931D01*
X0331917Y0195731D01*
X0330842Y0195110D01*
X0329642Y0195432D01*
X0329021Y0196507D01*
X0329343Y0197707D01*
X0330418Y0198328D01*
X0330545Y0197362D01*
X0331025Y0197233D01*
X0331273Y0196804D01*
X0331144Y0196324D01*
X0330715Y0196076D01*
X0330235Y0196205D01*
X0329987Y0196634D01*
X0330116Y0197114D01*
X0330545Y0197362D01*
X0330300Y0197000D02*
X0330630Y0196719D01*
X0330300Y0197000D02*
X0325900Y0197000D01*
X0325900Y0198200D01*
X0316700Y0207400D01*
X0316700Y0211800D01*
X0315900Y0212600D01*
X0315900Y0222600D01*
X0315630Y0222700D01*
X0310300Y0231000D02*
X0310630Y0231360D01*
X0310300Y0231000D02*
X0302700Y0223400D01*
X0302300Y0223400D01*
X0302300Y0222200D01*
X0306700Y0217800D01*
X0306970Y0217700D01*
X0302300Y0223400D02*
X0302300Y0226200D01*
X0301970Y0226360D01*
X0297231Y0236995D02*
X0296631Y0237595D01*
X0298551Y0237080D01*
X0299545Y0235359D01*
X0299030Y0233439D01*
X0297309Y0232445D01*
X0295389Y0232960D01*
X0294395Y0234681D01*
X0294910Y0236601D01*
X0296631Y0237595D01*
X0296758Y0236629D01*
X0297958Y0236307D01*
X0298579Y0235232D01*
X0298257Y0234032D01*
X0297182Y0233411D01*
X0295982Y0233733D01*
X0295361Y0234808D01*
X0295683Y0236008D01*
X0296758Y0236629D01*
X0296885Y0235663D01*
X0297365Y0235534D01*
X0297613Y0235105D01*
X0297484Y0234625D01*
X0297055Y0234377D01*
X0296575Y0234506D01*
X0296327Y0234935D01*
X0296456Y0235415D01*
X0296885Y0235663D01*
X0292231Y0245656D02*
X0291631Y0246256D01*
X0293551Y0245741D01*
X0294545Y0244020D01*
X0294030Y0242100D01*
X0292309Y0241106D01*
X0290389Y0241621D01*
X0289395Y0243342D01*
X0289910Y0245262D01*
X0291631Y0246256D01*
X0291758Y0245290D01*
X0292958Y0244968D01*
X0293579Y0243893D01*
X0293257Y0242693D01*
X0292182Y0242072D01*
X0290982Y0242394D01*
X0290361Y0243469D01*
X0290683Y0244669D01*
X0291758Y0245290D01*
X0291885Y0244324D01*
X0292365Y0244195D01*
X0292613Y0243766D01*
X0292484Y0243286D01*
X0292055Y0243038D01*
X0291575Y0243167D01*
X0291327Y0243596D01*
X0291456Y0244076D01*
X0291885Y0244324D01*
X0287231Y0254316D02*
X0286631Y0254916D01*
X0288551Y0254401D01*
X0289545Y0252680D01*
X0289030Y0250760D01*
X0287309Y0249766D01*
X0285389Y0250281D01*
X0284395Y0252002D01*
X0284910Y0253922D01*
X0286631Y0254916D01*
X0286758Y0253950D01*
X0287958Y0253628D01*
X0288579Y0252553D01*
X0288257Y0251353D01*
X0287182Y0250732D01*
X0285982Y0251054D01*
X0285361Y0252129D01*
X0285683Y0253329D01*
X0286758Y0253950D01*
X0286885Y0252984D01*
X0287365Y0252855D01*
X0287613Y0252426D01*
X0287484Y0251946D01*
X0287055Y0251698D01*
X0286575Y0251827D01*
X0286327Y0252256D01*
X0286456Y0252736D01*
X0286885Y0252984D01*
X0282231Y0262976D02*
X0281631Y0263576D01*
X0283551Y0263061D01*
X0284545Y0261340D01*
X0284030Y0259420D01*
X0282309Y0258426D01*
X0280389Y0258941D01*
X0279395Y0260662D01*
X0279910Y0262582D01*
X0281631Y0263576D01*
X0281758Y0262610D01*
X0282958Y0262288D01*
X0283579Y0261213D01*
X0283257Y0260013D01*
X0282182Y0259392D01*
X0280982Y0259714D01*
X0280361Y0260789D01*
X0280683Y0261989D01*
X0281758Y0262610D01*
X0281885Y0261644D01*
X0282365Y0261515D01*
X0282613Y0261086D01*
X0282484Y0260606D01*
X0282055Y0260358D01*
X0281575Y0260487D01*
X0281327Y0260916D01*
X0281456Y0261396D01*
X0281885Y0261644D01*
X0290891Y0267976D02*
X0290291Y0268576D01*
X0292211Y0268061D01*
X0293205Y0266340D01*
X0292690Y0264420D01*
X0290969Y0263426D01*
X0289049Y0263941D01*
X0288055Y0265662D01*
X0288570Y0267582D01*
X0290291Y0268576D01*
X0290418Y0267610D01*
X0291618Y0267288D01*
X0292239Y0266213D01*
X0291917Y0265013D01*
X0290842Y0264392D01*
X0289642Y0264714D01*
X0289021Y0265789D01*
X0289343Y0266989D01*
X0290418Y0267610D01*
X0290545Y0266644D01*
X0291025Y0266515D01*
X0291273Y0266086D01*
X0291144Y0265606D01*
X0290715Y0265358D01*
X0290235Y0265487D01*
X0289987Y0265916D01*
X0290116Y0266396D01*
X0290545Y0266644D01*
X0285891Y0276637D02*
X0285291Y0277237D01*
X0287211Y0276722D01*
X0288205Y0275001D01*
X0287690Y0273081D01*
X0285969Y0272087D01*
X0284049Y0272602D01*
X0283055Y0274323D01*
X0283570Y0276243D01*
X0285291Y0277237D01*
X0285418Y0276271D01*
X0286618Y0275949D01*
X0287239Y0274874D01*
X0286917Y0273674D01*
X0285842Y0273053D01*
X0284642Y0273375D01*
X0284021Y0274450D01*
X0284343Y0275650D01*
X0285418Y0276271D01*
X0285545Y0275305D01*
X0286025Y0275176D01*
X0286273Y0274747D01*
X0286144Y0274267D01*
X0285715Y0274019D01*
X0285235Y0274148D01*
X0284987Y0274577D01*
X0285116Y0275057D01*
X0285545Y0275305D01*
X0280891Y0285297D02*
X0280291Y0285897D01*
X0282211Y0285382D01*
X0283205Y0283661D01*
X0282690Y0281741D01*
X0280969Y0280747D01*
X0279049Y0281262D01*
X0278055Y0282983D01*
X0278570Y0284903D01*
X0280291Y0285897D01*
X0280418Y0284931D01*
X0281618Y0284609D01*
X0282239Y0283534D01*
X0281917Y0282334D01*
X0280842Y0281713D01*
X0279642Y0282035D01*
X0279021Y0283110D01*
X0279343Y0284310D01*
X0280418Y0284931D01*
X0280545Y0283965D01*
X0281025Y0283836D01*
X0281273Y0283407D01*
X0281144Y0282927D01*
X0280715Y0282679D01*
X0280235Y0282808D01*
X0279987Y0283237D01*
X0280116Y0283717D01*
X0280545Y0283965D01*
X0272231Y0280297D02*
X0271631Y0280897D01*
X0273551Y0280382D01*
X0274545Y0278661D01*
X0274030Y0276741D01*
X0272309Y0275747D01*
X0270389Y0276262D01*
X0269395Y0277983D01*
X0269910Y0279903D01*
X0271631Y0280897D01*
X0271758Y0279931D01*
X0272958Y0279609D01*
X0273579Y0278534D01*
X0273257Y0277334D01*
X0272182Y0276713D01*
X0270982Y0277035D01*
X0270361Y0278110D01*
X0270683Y0279310D01*
X0271758Y0279931D01*
X0271885Y0278965D01*
X0272365Y0278836D01*
X0272613Y0278407D01*
X0272484Y0277927D01*
X0272055Y0277679D01*
X0271575Y0277808D01*
X0271327Y0278237D01*
X0271456Y0278717D01*
X0271885Y0278965D01*
X0267231Y0288957D02*
X0266631Y0289557D01*
X0268551Y0289042D01*
X0269545Y0287321D01*
X0269030Y0285401D01*
X0267309Y0284407D01*
X0265389Y0284922D01*
X0264395Y0286643D01*
X0264910Y0288563D01*
X0266631Y0289557D01*
X0266758Y0288591D01*
X0267958Y0288269D01*
X0268579Y0287194D01*
X0268257Y0285994D01*
X0267182Y0285373D01*
X0265982Y0285695D01*
X0265361Y0286770D01*
X0265683Y0287970D01*
X0266758Y0288591D01*
X0266885Y0287625D01*
X0267365Y0287496D01*
X0267613Y0287067D01*
X0267484Y0286587D01*
X0267055Y0286339D01*
X0266575Y0286468D01*
X0266327Y0286897D01*
X0266456Y0287377D01*
X0266885Y0287625D01*
X0262231Y0297617D02*
X0261631Y0298217D01*
X0263551Y0297702D01*
X0264545Y0295981D01*
X0264030Y0294061D01*
X0262309Y0293067D01*
X0260389Y0293582D01*
X0259395Y0295303D01*
X0259910Y0297223D01*
X0261631Y0298217D01*
X0261758Y0297251D01*
X0262958Y0296929D01*
X0263579Y0295854D01*
X0263257Y0294654D01*
X0262182Y0294033D01*
X0260982Y0294355D01*
X0260361Y0295430D01*
X0260683Y0296630D01*
X0261758Y0297251D01*
X0261885Y0296285D01*
X0262365Y0296156D01*
X0262613Y0295727D01*
X0262484Y0295247D01*
X0262055Y0294999D01*
X0261575Y0295128D01*
X0261327Y0295557D01*
X0261456Y0296037D01*
X0261885Y0296285D01*
X0257231Y0306278D02*
X0256631Y0306878D01*
X0258551Y0306363D01*
X0259545Y0304642D01*
X0259030Y0302722D01*
X0257309Y0301728D01*
X0255389Y0302243D01*
X0254395Y0303964D01*
X0254910Y0305884D01*
X0256631Y0306878D01*
X0256758Y0305912D01*
X0257958Y0305590D01*
X0258579Y0304515D01*
X0258257Y0303315D01*
X0257182Y0302694D01*
X0255982Y0303016D01*
X0255361Y0304091D01*
X0255683Y0305291D01*
X0256758Y0305912D01*
X0256885Y0304946D01*
X0257365Y0304817D01*
X0257613Y0304388D01*
X0257484Y0303908D01*
X0257055Y0303660D01*
X0256575Y0303789D01*
X0256327Y0304218D01*
X0256456Y0304698D01*
X0256885Y0304946D01*
X0270891Y0302617D02*
X0270291Y0303217D01*
X0272211Y0302702D01*
X0273205Y0300981D01*
X0272690Y0299061D01*
X0270969Y0298067D01*
X0269049Y0298582D01*
X0268055Y0300303D01*
X0268570Y0302223D01*
X0270291Y0303217D01*
X0270418Y0302251D01*
X0271618Y0301929D01*
X0272239Y0300854D01*
X0271917Y0299654D01*
X0270842Y0299033D01*
X0269642Y0299355D01*
X0269021Y0300430D01*
X0269343Y0301630D01*
X0270418Y0302251D01*
X0270545Y0301285D01*
X0271025Y0301156D01*
X0271273Y0300727D01*
X0271144Y0300247D01*
X0270715Y0299999D01*
X0270235Y0300128D01*
X0269987Y0300557D01*
X0270116Y0301037D01*
X0270545Y0301285D01*
X0277231Y0271637D02*
X0276631Y0272237D01*
X0278551Y0271722D01*
X0279545Y0270001D01*
X0279030Y0268081D01*
X0277309Y0267087D01*
X0275389Y0267602D01*
X0274395Y0269323D01*
X0274910Y0271243D01*
X0276631Y0272237D01*
X0276758Y0271271D01*
X0277958Y0270949D01*
X0278579Y0269874D01*
X0278257Y0268674D01*
X0277182Y0268053D01*
X0275982Y0268375D01*
X0275361Y0269450D01*
X0275683Y0270650D01*
X0276758Y0271271D01*
X0276885Y0270305D01*
X0277365Y0270176D01*
X0277613Y0269747D01*
X0277484Y0269267D01*
X0277055Y0269019D01*
X0276575Y0269148D01*
X0276327Y0269577D01*
X0276456Y0270057D01*
X0276885Y0270305D01*
X0295891Y0259316D02*
X0295291Y0259916D01*
X0297211Y0259401D01*
X0298205Y0257680D01*
X0297690Y0255760D01*
X0295969Y0254766D01*
X0294049Y0255281D01*
X0293055Y0257002D01*
X0293570Y0258922D01*
X0295291Y0259916D01*
X0295418Y0258950D01*
X0296618Y0258628D01*
X0297239Y0257553D01*
X0296917Y0256353D01*
X0295842Y0255732D01*
X0294642Y0256054D01*
X0294021Y0257129D01*
X0294343Y0258329D01*
X0295418Y0258950D01*
X0295545Y0257984D01*
X0296025Y0257855D01*
X0296273Y0257426D01*
X0296144Y0256946D01*
X0295715Y0256698D01*
X0295235Y0256827D01*
X0294987Y0257256D01*
X0295116Y0257736D01*
X0295545Y0257984D01*
X0300891Y0250656D02*
X0300291Y0251256D01*
X0302211Y0250741D01*
X0303205Y0249020D01*
X0302690Y0247100D01*
X0300969Y0246106D01*
X0299049Y0246621D01*
X0298055Y0248342D01*
X0298570Y0250262D01*
X0300291Y0251256D01*
X0300418Y0250290D01*
X0301618Y0249968D01*
X0302239Y0248893D01*
X0301917Y0247693D01*
X0300842Y0247072D01*
X0299642Y0247394D01*
X0299021Y0248469D01*
X0299343Y0249669D01*
X0300418Y0250290D01*
X0300545Y0249324D01*
X0301025Y0249195D01*
X0301273Y0248766D01*
X0301144Y0248286D01*
X0300715Y0248038D01*
X0300235Y0248167D01*
X0299987Y0248596D01*
X0300116Y0249076D01*
X0300545Y0249324D01*
X0305891Y0241995D02*
X0305291Y0242595D01*
X0307211Y0242080D01*
X0308205Y0240359D01*
X0307690Y0238439D01*
X0305969Y0237445D01*
X0304049Y0237960D01*
X0303055Y0239681D01*
X0303570Y0241601D01*
X0305291Y0242595D01*
X0305418Y0241629D01*
X0306618Y0241307D01*
X0307239Y0240232D01*
X0306917Y0239032D01*
X0305842Y0238411D01*
X0304642Y0238733D01*
X0304021Y0239808D01*
X0304343Y0241008D01*
X0305418Y0241629D01*
X0305545Y0240663D01*
X0306025Y0240534D01*
X0306273Y0240105D01*
X0306144Y0239625D01*
X0305715Y0239377D01*
X0305235Y0239506D01*
X0304987Y0239935D01*
X0305116Y0240415D01*
X0305545Y0240663D01*
X0320891Y0216015D02*
X0320291Y0216615D01*
X0322211Y0216100D01*
X0323205Y0214379D01*
X0322690Y0212459D01*
X0320969Y0211465D01*
X0319049Y0211980D01*
X0318055Y0213701D01*
X0318570Y0215621D01*
X0320291Y0216615D01*
X0320418Y0215649D01*
X0321618Y0215327D01*
X0322239Y0214252D01*
X0321917Y0213052D01*
X0320842Y0212431D01*
X0319642Y0212753D01*
X0319021Y0213828D01*
X0319343Y0215028D01*
X0320418Y0215649D01*
X0320545Y0214683D01*
X0321025Y0214554D01*
X0321273Y0214125D01*
X0321144Y0213645D01*
X0320715Y0213397D01*
X0320235Y0213526D01*
X0319987Y0213955D01*
X0320116Y0214435D01*
X0320545Y0214683D01*
X0320630Y0214040D02*
X0320700Y0213800D01*
X0320700Y0210200D01*
X0325500Y0205400D01*
X0325630Y0205379D01*
X0325891Y0207354D02*
X0325291Y0207954D01*
X0327211Y0207439D01*
X0328205Y0205718D01*
X0327690Y0203798D01*
X0325969Y0202804D01*
X0324049Y0203319D01*
X0323055Y0205040D01*
X0323570Y0206960D01*
X0325291Y0207954D01*
X0325418Y0206988D01*
X0326618Y0206666D01*
X0327239Y0205591D01*
X0326917Y0204391D01*
X0325842Y0203770D01*
X0324642Y0204092D01*
X0324021Y0205167D01*
X0324343Y0206367D01*
X0325418Y0206988D01*
X0325545Y0206022D01*
X0326025Y0205893D01*
X0326273Y0205464D01*
X0326144Y0204984D01*
X0325715Y0204736D01*
X0325235Y0204865D01*
X0324987Y0205294D01*
X0325116Y0205774D01*
X0325545Y0206022D01*
X0317231Y0202354D02*
X0316631Y0202954D01*
X0318551Y0202439D01*
X0319545Y0200718D01*
X0319030Y0198798D01*
X0317309Y0197804D01*
X0315389Y0198319D01*
X0314395Y0200040D01*
X0314910Y0201960D01*
X0316631Y0202954D01*
X0316758Y0201988D01*
X0317958Y0201666D01*
X0318579Y0200591D01*
X0318257Y0199391D01*
X0317182Y0198770D01*
X0315982Y0199092D01*
X0315361Y0200167D01*
X0315683Y0201367D01*
X0316758Y0201988D01*
X0316885Y0201022D01*
X0317365Y0200893D01*
X0317613Y0200464D01*
X0317484Y0199984D01*
X0317055Y0199736D01*
X0316575Y0199865D01*
X0316327Y0200294D01*
X0316456Y0200774D01*
X0316885Y0201022D01*
X0312231Y0211015D02*
X0311631Y0211615D01*
X0313551Y0211100D01*
X0314545Y0209379D01*
X0314030Y0207459D01*
X0312309Y0206465D01*
X0310389Y0206980D01*
X0309395Y0208701D01*
X0309910Y0210621D01*
X0311631Y0211615D01*
X0311758Y0210649D01*
X0312958Y0210327D01*
X0313579Y0209252D01*
X0313257Y0208052D01*
X0312182Y0207431D01*
X0310982Y0207753D01*
X0310361Y0208828D01*
X0310683Y0210028D01*
X0311758Y0210649D01*
X0311885Y0209683D01*
X0312365Y0209554D01*
X0312613Y0209125D01*
X0312484Y0208645D01*
X0312055Y0208397D01*
X0311575Y0208526D01*
X0311327Y0208955D01*
X0311456Y0209435D01*
X0311885Y0209683D01*
X0322231Y0193694D02*
X0321631Y0194294D01*
X0323551Y0193779D01*
X0324545Y0192058D01*
X0324030Y0190138D01*
X0322309Y0189144D01*
X0320389Y0189659D01*
X0319395Y0191380D01*
X0319910Y0193300D01*
X0321631Y0194294D01*
X0321758Y0193328D01*
X0322958Y0193006D01*
X0323579Y0191931D01*
X0323257Y0190731D01*
X0322182Y0190110D01*
X0320982Y0190432D01*
X0320361Y0191507D01*
X0320683Y0192707D01*
X0321758Y0193328D01*
X0321885Y0192362D01*
X0322365Y0192233D01*
X0322613Y0191804D01*
X0322484Y0191324D01*
X0322055Y0191076D01*
X0321575Y0191205D01*
X0321327Y0191634D01*
X0321456Y0192114D01*
X0321885Y0192362D01*
X0327231Y0185034D02*
X0326631Y0185634D01*
X0328551Y0185119D01*
X0329545Y0183398D01*
X0329030Y0181478D01*
X0327309Y0180484D01*
X0325389Y0180999D01*
X0324395Y0182720D01*
X0324910Y0184640D01*
X0326631Y0185634D01*
X0326758Y0184668D01*
X0327958Y0184346D01*
X0328579Y0183271D01*
X0328257Y0182071D01*
X0327182Y0181450D01*
X0325982Y0181772D01*
X0325361Y0182847D01*
X0325683Y0184047D01*
X0326758Y0184668D01*
X0326885Y0183702D01*
X0327365Y0183573D01*
X0327613Y0183144D01*
X0327484Y0182664D01*
X0327055Y0182416D01*
X0326575Y0182545D01*
X0326327Y0182974D01*
X0326456Y0183454D01*
X0326885Y0183702D01*
X0332231Y0176374D02*
X0331631Y0176974D01*
X0333551Y0176459D01*
X0334545Y0174738D01*
X0334030Y0172818D01*
X0332309Y0171824D01*
X0330389Y0172339D01*
X0329395Y0174060D01*
X0329910Y0175980D01*
X0331631Y0176974D01*
X0331758Y0176008D01*
X0332958Y0175686D01*
X0333579Y0174611D01*
X0333257Y0173411D01*
X0332182Y0172790D01*
X0330982Y0173112D01*
X0330361Y0174187D01*
X0330683Y0175387D01*
X0331758Y0176008D01*
X0331885Y0175042D01*
X0332365Y0174913D01*
X0332613Y0174484D01*
X0332484Y0174004D01*
X0332055Y0173756D01*
X0331575Y0173885D01*
X0331327Y0174314D01*
X0331456Y0174794D01*
X0331885Y0175042D01*
X0337231Y0167713D02*
X0336631Y0168313D01*
X0338551Y0167798D01*
X0339545Y0166077D01*
X0339030Y0164157D01*
X0337309Y0163163D01*
X0335389Y0163678D01*
X0334395Y0165399D01*
X0334910Y0167319D01*
X0336631Y0168313D01*
X0336758Y0167347D01*
X0337958Y0167025D01*
X0338579Y0165950D01*
X0338257Y0164750D01*
X0337182Y0164129D01*
X0335982Y0164451D01*
X0335361Y0165526D01*
X0335683Y0166726D01*
X0336758Y0167347D01*
X0336885Y0166381D01*
X0337365Y0166252D01*
X0337613Y0165823D01*
X0337484Y0165343D01*
X0337055Y0165095D01*
X0336575Y0165224D01*
X0336327Y0165653D01*
X0336456Y0166133D01*
X0336885Y0166381D01*
X0342231Y0159053D02*
X0341631Y0159653D01*
X0343551Y0159138D01*
X0344545Y0157417D01*
X0344030Y0155497D01*
X0342309Y0154503D01*
X0340389Y0155018D01*
X0339395Y0156739D01*
X0339910Y0158659D01*
X0341631Y0159653D01*
X0341758Y0158687D01*
X0342958Y0158365D01*
X0343579Y0157290D01*
X0343257Y0156090D01*
X0342182Y0155469D01*
X0340982Y0155791D01*
X0340361Y0156866D01*
X0340683Y0158066D01*
X0341758Y0158687D01*
X0341885Y0157721D01*
X0342365Y0157592D01*
X0342613Y0157163D01*
X0342484Y0156683D01*
X0342055Y0156435D01*
X0341575Y0156564D01*
X0341327Y0156993D01*
X0341456Y0157473D01*
X0341885Y0157721D01*
X0347231Y0150393D02*
X0346631Y0150993D01*
X0348551Y0150478D01*
X0349545Y0148757D01*
X0349030Y0146837D01*
X0347309Y0145843D01*
X0345389Y0146358D01*
X0344395Y0148079D01*
X0344910Y0149999D01*
X0346631Y0150993D01*
X0346758Y0150027D01*
X0347958Y0149705D01*
X0348579Y0148630D01*
X0348257Y0147430D01*
X0347182Y0146809D01*
X0345982Y0147131D01*
X0345361Y0148206D01*
X0345683Y0149406D01*
X0346758Y0150027D01*
X0346885Y0149061D01*
X0347365Y0148932D01*
X0347613Y0148503D01*
X0347484Y0148023D01*
X0347055Y0147775D01*
X0346575Y0147904D01*
X0346327Y0148333D01*
X0346456Y0148813D01*
X0346885Y0149061D01*
X0352231Y0141733D02*
X0351631Y0142333D01*
X0353551Y0141818D01*
X0354545Y0140097D01*
X0354030Y0138177D01*
X0352309Y0137183D01*
X0350389Y0137698D01*
X0349395Y0139419D01*
X0349910Y0141339D01*
X0351631Y0142333D01*
X0351758Y0141367D01*
X0352958Y0141045D01*
X0353579Y0139970D01*
X0353257Y0138770D01*
X0352182Y0138149D01*
X0350982Y0138471D01*
X0350361Y0139546D01*
X0350683Y0140746D01*
X0351758Y0141367D01*
X0351885Y0140401D01*
X0352365Y0140272D01*
X0352613Y0139843D01*
X0352484Y0139363D01*
X0352055Y0139115D01*
X0351575Y0139244D01*
X0351327Y0139673D01*
X0351456Y0140153D01*
X0351885Y0140401D01*
X0357231Y0133072D02*
X0356631Y0133672D01*
X0358551Y0133157D01*
X0359545Y0131436D01*
X0359030Y0129516D01*
X0357309Y0128522D01*
X0355389Y0129037D01*
X0354395Y0130758D01*
X0354910Y0132678D01*
X0356631Y0133672D01*
X0356758Y0132706D01*
X0357958Y0132384D01*
X0358579Y0131309D01*
X0358257Y0130109D01*
X0357182Y0129488D01*
X0355982Y0129810D01*
X0355361Y0130885D01*
X0355683Y0132085D01*
X0356758Y0132706D01*
X0356885Y0131740D01*
X0357365Y0131611D01*
X0357613Y0131182D01*
X0357484Y0130702D01*
X0357055Y0130454D01*
X0356575Y0130583D01*
X0356327Y0131012D01*
X0356456Y0131492D01*
X0356885Y0131740D01*
X0362231Y0124412D02*
X0361631Y0125012D01*
X0363551Y0124497D01*
X0364545Y0122776D01*
X0364030Y0120856D01*
X0362309Y0119862D01*
X0360389Y0120377D01*
X0359395Y0122098D01*
X0359910Y0124018D01*
X0361631Y0125012D01*
X0361758Y0124046D01*
X0362958Y0123724D01*
X0363579Y0122649D01*
X0363257Y0121449D01*
X0362182Y0120828D01*
X0360982Y0121150D01*
X0360361Y0122225D01*
X0360683Y0123425D01*
X0361758Y0124046D01*
X0361885Y0123080D01*
X0362365Y0122951D01*
X0362613Y0122522D01*
X0362484Y0122042D01*
X0362055Y0121794D01*
X0361575Y0121923D01*
X0361327Y0122352D01*
X0361456Y0122832D01*
X0361885Y0123080D01*
X0367231Y0115752D02*
X0366631Y0116352D01*
X0368551Y0115837D01*
X0369545Y0114116D01*
X0369030Y0112196D01*
X0367309Y0111202D01*
X0365389Y0111717D01*
X0364395Y0113438D01*
X0364910Y0115358D01*
X0366631Y0116352D01*
X0366758Y0115386D01*
X0367958Y0115064D01*
X0368579Y0113989D01*
X0368257Y0112789D01*
X0367182Y0112168D01*
X0365982Y0112490D01*
X0365361Y0113565D01*
X0365683Y0114765D01*
X0366758Y0115386D01*
X0366885Y0114420D01*
X0367365Y0114291D01*
X0367613Y0113862D01*
X0367484Y0113382D01*
X0367055Y0113134D01*
X0366575Y0113263D01*
X0366327Y0113692D01*
X0366456Y0114172D01*
X0366885Y0114420D01*
X0377231Y0098431D02*
X0376631Y0099031D01*
X0378551Y0098516D01*
X0379545Y0096795D01*
X0379030Y0094875D01*
X0377309Y0093881D01*
X0375389Y0094396D01*
X0374395Y0096117D01*
X0374910Y0098037D01*
X0376631Y0099031D01*
X0376758Y0098065D01*
X0377958Y0097743D01*
X0378579Y0096668D01*
X0378257Y0095468D01*
X0377182Y0094847D01*
X0375982Y0095169D01*
X0375361Y0096244D01*
X0375683Y0097444D01*
X0376758Y0098065D01*
X0376885Y0097099D01*
X0377365Y0096970D01*
X0377613Y0096541D01*
X0377484Y0096061D01*
X0377055Y0095813D01*
X0376575Y0095942D01*
X0376327Y0096371D01*
X0376456Y0096851D01*
X0376885Y0097099D01*
X0385891Y0103431D02*
X0385291Y0104031D01*
X0387211Y0103516D01*
X0388205Y0101795D01*
X0387690Y0099875D01*
X0385969Y0098881D01*
X0384049Y0099396D01*
X0383055Y0101117D01*
X0383570Y0103037D01*
X0385291Y0104031D01*
X0385418Y0103065D01*
X0386618Y0102743D01*
X0387239Y0101668D01*
X0386917Y0100468D01*
X0385842Y0099847D01*
X0384642Y0100169D01*
X0384021Y0101244D01*
X0384343Y0102444D01*
X0385418Y0103065D01*
X0385545Y0102099D01*
X0386025Y0101970D01*
X0386273Y0101541D01*
X0386144Y0101061D01*
X0385715Y0100813D01*
X0385235Y0100942D01*
X0384987Y0101371D01*
X0385116Y0101851D01*
X0385545Y0102099D01*
X0390891Y0094771D02*
X0390291Y0095371D01*
X0392211Y0094856D01*
X0393205Y0093135D01*
X0392690Y0091215D01*
X0390969Y0090221D01*
X0389049Y0090736D01*
X0388055Y0092457D01*
X0388570Y0094377D01*
X0390291Y0095371D01*
X0390418Y0094405D01*
X0391618Y0094083D01*
X0392239Y0093008D01*
X0391917Y0091808D01*
X0390842Y0091187D01*
X0389642Y0091509D01*
X0389021Y0092584D01*
X0389343Y0093784D01*
X0390418Y0094405D01*
X0390545Y0093439D01*
X0391025Y0093310D01*
X0391273Y0092881D01*
X0391144Y0092401D01*
X0390715Y0092153D01*
X0390235Y0092282D01*
X0389987Y0092711D01*
X0390116Y0093191D01*
X0390545Y0093439D01*
X0382231Y0089771D02*
X0381631Y0090371D01*
X0383551Y0089856D01*
X0384545Y0088135D01*
X0384030Y0086215D01*
X0382309Y0085221D01*
X0380389Y0085736D01*
X0379395Y0087457D01*
X0379910Y0089377D01*
X0381631Y0090371D01*
X0381758Y0089405D01*
X0382958Y0089083D01*
X0383579Y0088008D01*
X0383257Y0086808D01*
X0382182Y0086187D01*
X0380982Y0086509D01*
X0380361Y0087584D01*
X0380683Y0088784D01*
X0381758Y0089405D01*
X0381885Y0088439D01*
X0382365Y0088310D01*
X0382613Y0087881D01*
X0382484Y0087401D01*
X0382055Y0087153D01*
X0381575Y0087282D01*
X0381327Y0087711D01*
X0381456Y0088191D01*
X0381885Y0088439D01*
X0387231Y0081111D02*
X0386631Y0081711D01*
X0388551Y0081196D01*
X0389545Y0079475D01*
X0389030Y0077555D01*
X0387309Y0076561D01*
X0385389Y0077076D01*
X0384395Y0078797D01*
X0384910Y0080717D01*
X0386631Y0081711D01*
X0386758Y0080745D01*
X0387958Y0080423D01*
X0388579Y0079348D01*
X0388257Y0078148D01*
X0387182Y0077527D01*
X0385982Y0077849D01*
X0385361Y0078924D01*
X0385683Y0080124D01*
X0386758Y0080745D01*
X0386885Y0079779D01*
X0387365Y0079650D01*
X0387613Y0079221D01*
X0387484Y0078741D01*
X0387055Y0078493D01*
X0386575Y0078622D01*
X0386327Y0079051D01*
X0386456Y0079531D01*
X0386885Y0079779D01*
X0395891Y0086111D02*
X0395291Y0086711D01*
X0397211Y0086196D01*
X0398205Y0084475D01*
X0397690Y0082555D01*
X0395969Y0081561D01*
X0394049Y0082076D01*
X0393055Y0083797D01*
X0393570Y0085717D01*
X0395291Y0086711D01*
X0395418Y0085745D01*
X0396618Y0085423D01*
X0397239Y0084348D01*
X0396917Y0083148D01*
X0395842Y0082527D01*
X0394642Y0082849D01*
X0394021Y0083924D01*
X0394343Y0085124D01*
X0395418Y0085745D01*
X0395545Y0084779D01*
X0396025Y0084650D01*
X0396273Y0084221D01*
X0396144Y0083741D01*
X0395715Y0083493D01*
X0395235Y0083622D01*
X0394987Y0084051D01*
X0395116Y0084531D01*
X0395545Y0084779D01*
X0400891Y0077451D02*
X0400291Y0078051D01*
X0402211Y0077536D01*
X0403205Y0075815D01*
X0402690Y0073895D01*
X0400969Y0072901D01*
X0399049Y0073416D01*
X0398055Y0075137D01*
X0398570Y0077057D01*
X0400291Y0078051D01*
X0400418Y0077085D01*
X0401618Y0076763D01*
X0402239Y0075688D01*
X0401917Y0074488D01*
X0400842Y0073867D01*
X0399642Y0074189D01*
X0399021Y0075264D01*
X0399343Y0076464D01*
X0400418Y0077085D01*
X0400545Y0076119D01*
X0401025Y0075990D01*
X0401273Y0075561D01*
X0401144Y0075081D01*
X0400715Y0074833D01*
X0400235Y0074962D01*
X0399987Y0075391D01*
X0400116Y0075871D01*
X0400545Y0076119D01*
X0392231Y0072451D02*
X0391631Y0073051D01*
X0393551Y0072536D01*
X0394545Y0070815D01*
X0394030Y0068895D01*
X0392309Y0067901D01*
X0390389Y0068416D01*
X0389395Y0070137D01*
X0389910Y0072057D01*
X0391631Y0073051D01*
X0391758Y0072085D01*
X0392958Y0071763D01*
X0393579Y0070688D01*
X0393257Y0069488D01*
X0392182Y0068867D01*
X0390982Y0069189D01*
X0390361Y0070264D01*
X0390683Y0071464D01*
X0391758Y0072085D01*
X0391885Y0071119D01*
X0392365Y0070990D01*
X0392613Y0070561D01*
X0392484Y0070081D01*
X0392055Y0069833D01*
X0391575Y0069962D01*
X0391327Y0070391D01*
X0391456Y0070871D01*
X0391885Y0071119D01*
X0397231Y0063790D02*
X0396631Y0064390D01*
X0398551Y0063875D01*
X0399545Y0062154D01*
X0399030Y0060234D01*
X0397309Y0059240D01*
X0395389Y0059755D01*
X0394395Y0061476D01*
X0394910Y0063396D01*
X0396631Y0064390D01*
X0396758Y0063424D01*
X0397958Y0063102D01*
X0398579Y0062027D01*
X0398257Y0060827D01*
X0397182Y0060206D01*
X0395982Y0060528D01*
X0395361Y0061603D01*
X0395683Y0062803D01*
X0396758Y0063424D01*
X0396885Y0062458D01*
X0397365Y0062329D01*
X0397613Y0061900D01*
X0397484Y0061420D01*
X0397055Y0061172D01*
X0396575Y0061301D01*
X0396327Y0061730D01*
X0396456Y0062210D01*
X0396885Y0062458D01*
X0405891Y0068790D02*
X0405291Y0069390D01*
X0407211Y0068875D01*
X0408205Y0067154D01*
X0407690Y0065234D01*
X0405969Y0064240D01*
X0404049Y0064755D01*
X0403055Y0066476D01*
X0403570Y0068396D01*
X0405291Y0069390D01*
X0405418Y0068424D01*
X0406618Y0068102D01*
X0407239Y0067027D01*
X0406917Y0065827D01*
X0405842Y0065206D01*
X0404642Y0065528D01*
X0404021Y0066603D01*
X0404343Y0067803D01*
X0405418Y0068424D01*
X0405545Y0067458D01*
X0406025Y0067329D01*
X0406273Y0066900D01*
X0406144Y0066420D01*
X0405715Y0066172D01*
X0405235Y0066301D01*
X0404987Y0066730D01*
X0405116Y0067210D01*
X0405545Y0067458D01*
X0410891Y0060130D02*
X0410291Y0060730D01*
X0412211Y0060215D01*
X0413205Y0058494D01*
X0412690Y0056574D01*
X0410969Y0055580D01*
X0409049Y0056095D01*
X0408055Y0057816D01*
X0408570Y0059736D01*
X0410291Y0060730D01*
X0410418Y0059764D01*
X0411618Y0059442D01*
X0412239Y0058367D01*
X0411917Y0057167D01*
X0410842Y0056546D01*
X0409642Y0056868D01*
X0409021Y0057943D01*
X0409343Y0059143D01*
X0410418Y0059764D01*
X0410545Y0058798D01*
X0411025Y0058669D01*
X0411273Y0058240D01*
X0411144Y0057760D01*
X0410715Y0057512D01*
X0410235Y0057641D01*
X0409987Y0058070D01*
X0410116Y0058550D01*
X0410545Y0058798D01*
X0402231Y0055130D02*
X0401631Y0055730D01*
X0403551Y0055215D01*
X0404545Y0053494D01*
X0404030Y0051574D01*
X0402309Y0050580D01*
X0400389Y0051095D01*
X0399395Y0052816D01*
X0399910Y0054736D01*
X0401631Y0055730D01*
X0401758Y0054764D01*
X0402958Y0054442D01*
X0403579Y0053367D01*
X0403257Y0052167D01*
X0402182Y0051546D01*
X0400982Y0051868D01*
X0400361Y0052943D01*
X0400683Y0054143D01*
X0401758Y0054764D01*
X0401885Y0053798D01*
X0402365Y0053669D01*
X0402613Y0053240D01*
X0402484Y0052760D01*
X0402055Y0052512D01*
X0401575Y0052641D01*
X0401327Y0053070D01*
X0401456Y0053550D01*
X0401885Y0053798D01*
X0407231Y0046470D02*
X0406631Y0047070D01*
X0408551Y0046555D01*
X0409545Y0044834D01*
X0409030Y0042914D01*
X0407309Y0041920D01*
X0405389Y0042435D01*
X0404395Y0044156D01*
X0404910Y0046076D01*
X0406631Y0047070D01*
X0406758Y0046104D01*
X0407958Y0045782D01*
X0408579Y0044707D01*
X0408257Y0043507D01*
X0407182Y0042886D01*
X0405982Y0043208D01*
X0405361Y0044283D01*
X0405683Y0045483D01*
X0406758Y0046104D01*
X0406885Y0045138D01*
X0407365Y0045009D01*
X0407613Y0044580D01*
X0407484Y0044100D01*
X0407055Y0043852D01*
X0406575Y0043981D01*
X0406327Y0044410D01*
X0406456Y0044890D01*
X0406885Y0045138D01*
X0415891Y0051470D02*
X0415291Y0052070D01*
X0417211Y0051555D01*
X0418205Y0049834D01*
X0417690Y0047914D01*
X0415969Y0046920D01*
X0414049Y0047435D01*
X0413055Y0049156D01*
X0413570Y0051076D01*
X0415291Y0052070D01*
X0415418Y0051104D01*
X0416618Y0050782D01*
X0417239Y0049707D01*
X0416917Y0048507D01*
X0415842Y0047886D01*
X0414642Y0048208D01*
X0414021Y0049283D01*
X0414343Y0050483D01*
X0415418Y0051104D01*
X0415545Y0050138D01*
X0416025Y0050009D01*
X0416273Y0049580D01*
X0416144Y0049100D01*
X0415715Y0048852D01*
X0415235Y0048981D01*
X0414987Y0049410D01*
X0415116Y0049890D01*
X0415545Y0050138D01*
X0260700Y0181400D02*
X0260700Y0204200D01*
X0112300Y0156200D02*
X0111900Y0155800D01*
D11*
X0111278Y0159284D02*
X0110718Y0158724D01*
X0110237Y0160517D01*
X0111164Y0162122D01*
X0112957Y0162603D01*
X0114562Y0161676D01*
X0115043Y0159883D01*
X0114116Y0158278D01*
X0112323Y0157797D01*
X0110718Y0158724D01*
X0111439Y0159278D01*
X0111139Y0160398D01*
X0111718Y0161401D01*
X0112838Y0161701D01*
X0113841Y0161122D01*
X0114141Y0160002D01*
X0113562Y0158999D01*
X0112442Y0158699D01*
X0111439Y0159278D01*
X0112160Y0159831D01*
X0112040Y0160279D01*
X0112271Y0160680D01*
X0112719Y0160800D01*
X0113120Y0160569D01*
X0113240Y0160121D01*
X0113009Y0159720D01*
X0112561Y0159600D01*
X0112160Y0159831D01*
X0106278Y0150624D02*
X0105718Y0150064D01*
X0105237Y0151857D01*
X0106164Y0153462D01*
X0107957Y0153943D01*
X0109562Y0153016D01*
X0110043Y0151223D01*
X0109116Y0149618D01*
X0107323Y0149137D01*
X0105718Y0150064D01*
X0106439Y0150618D01*
X0106139Y0151738D01*
X0106718Y0152741D01*
X0107838Y0153041D01*
X0108841Y0152462D01*
X0109141Y0151342D01*
X0108562Y0150339D01*
X0107442Y0150039D01*
X0106439Y0150618D01*
X0107160Y0151171D01*
X0107040Y0151619D01*
X0107271Y0152020D01*
X0107719Y0152140D01*
X0108120Y0151909D01*
X0108240Y0151461D01*
X0108009Y0151060D01*
X0107561Y0150940D01*
X0107160Y0151171D01*
X0114938Y0145624D02*
X0114378Y0145064D01*
X0113897Y0146857D01*
X0114824Y0148462D01*
X0116617Y0148943D01*
X0118222Y0148016D01*
X0118703Y0146223D01*
X0117776Y0144618D01*
X0115983Y0144137D01*
X0114378Y0145064D01*
X0115099Y0145618D01*
X0114799Y0146738D01*
X0115378Y0147741D01*
X0116498Y0148041D01*
X0117501Y0147462D01*
X0117801Y0146342D01*
X0117222Y0145339D01*
X0116102Y0145039D01*
X0115099Y0145618D01*
X0115820Y0146171D01*
X0115700Y0146619D01*
X0115931Y0147020D01*
X0116379Y0147140D01*
X0116780Y0146909D01*
X0116900Y0146461D01*
X0116669Y0146060D01*
X0116221Y0145940D01*
X0115820Y0146171D01*
X0119938Y0154284D02*
X0119378Y0153724D01*
X0118897Y0155517D01*
X0119824Y0157122D01*
X0121617Y0157603D01*
X0123222Y0156676D01*
X0123703Y0154883D01*
X0122776Y0153278D01*
X0120983Y0152797D01*
X0119378Y0153724D01*
X0120099Y0154278D01*
X0119799Y0155398D01*
X0120378Y0156401D01*
X0121498Y0156701D01*
X0122501Y0156122D01*
X0122801Y0155002D01*
X0122222Y0153999D01*
X0121102Y0153699D01*
X0120099Y0154278D01*
X0120820Y0154831D01*
X0120700Y0155279D01*
X0120931Y0155680D01*
X0121379Y0155800D01*
X0121780Y0155569D01*
X0121900Y0155121D01*
X0121669Y0154720D01*
X0121221Y0154600D01*
X0120820Y0154831D01*
X0302213Y0228203D02*
X0301653Y0228763D01*
X0303446Y0228282D01*
X0304373Y0226677D01*
X0303892Y0224884D01*
X0302287Y0223957D01*
X0300494Y0224438D01*
X0299567Y0226043D01*
X0300048Y0227836D01*
X0301653Y0228763D01*
X0301772Y0227861D01*
X0302892Y0227561D01*
X0303471Y0226558D01*
X0303171Y0225438D01*
X0302168Y0224859D01*
X0301048Y0225159D01*
X0300469Y0226162D01*
X0300769Y0227282D01*
X0301772Y0227861D01*
X0301891Y0226960D01*
X0302339Y0226840D01*
X0302570Y0226439D01*
X0302450Y0225991D01*
X0302049Y0225760D01*
X0301601Y0225880D01*
X0301370Y0226281D01*
X0301490Y0226729D01*
X0301891Y0226960D01*
X0310873Y0233203D02*
X0310313Y0233763D01*
X0312106Y0233282D01*
X0313033Y0231677D01*
X0312552Y0229884D01*
X0310947Y0228957D01*
X0309154Y0229438D01*
X0308227Y0231043D01*
X0308708Y0232836D01*
X0310313Y0233763D01*
X0310432Y0232861D01*
X0311552Y0232561D01*
X0312131Y0231558D01*
X0311831Y0230438D01*
X0310828Y0229859D01*
X0309708Y0230159D01*
X0309129Y0231162D01*
X0309429Y0232282D01*
X0310432Y0232861D01*
X0310551Y0231960D01*
X0310999Y0231840D01*
X0311230Y0231439D01*
X0311110Y0230991D01*
X0310709Y0230760D01*
X0310261Y0230880D01*
X0310030Y0231281D01*
X0310150Y0231729D01*
X0310551Y0231960D01*
X0315873Y0224543D02*
X0315313Y0225103D01*
X0317106Y0224622D01*
X0318033Y0223017D01*
X0317552Y0221224D01*
X0315947Y0220297D01*
X0314154Y0220778D01*
X0313227Y0222383D01*
X0313708Y0224176D01*
X0315313Y0225103D01*
X0315432Y0224201D01*
X0316552Y0223901D01*
X0317131Y0222898D01*
X0316831Y0221778D01*
X0315828Y0221199D01*
X0314708Y0221499D01*
X0314129Y0222502D01*
X0314429Y0223622D01*
X0315432Y0224201D01*
X0315551Y0223300D01*
X0315999Y0223180D01*
X0316230Y0222779D01*
X0316110Y0222331D01*
X0315709Y0222100D01*
X0315261Y0222220D01*
X0315030Y0222621D01*
X0315150Y0223069D01*
X0315551Y0223300D01*
X0307213Y0219543D02*
X0306653Y0220103D01*
X0308446Y0219622D01*
X0309373Y0218017D01*
X0308892Y0216224D01*
X0307287Y0215297D01*
X0305494Y0215778D01*
X0304567Y0217383D01*
X0305048Y0219176D01*
X0306653Y0220103D01*
X0306772Y0219201D01*
X0307892Y0218901D01*
X0308471Y0217898D01*
X0308171Y0216778D01*
X0307168Y0216199D01*
X0306048Y0216499D01*
X0305469Y0217502D01*
X0305769Y0218622D01*
X0306772Y0219201D01*
X0306891Y0218300D01*
X0307339Y0218180D01*
X0307570Y0217779D01*
X0307450Y0217331D01*
X0307049Y0217100D01*
X0306601Y0217220D01*
X0306370Y0217621D01*
X0306490Y0218069D01*
X0306891Y0218300D01*
D12*
X0306300Y0030200D03*
X0306300Y0020200D03*
X0316300Y0020200D03*
X0316300Y0030200D03*
X0326300Y0030200D03*
X0326300Y0020200D03*
X0336300Y0020200D03*
X0336300Y0030200D03*
X0346300Y0030200D03*
X0346300Y0020200D03*
X0356300Y0020200D03*
X0356300Y0030200D03*
X0366300Y0030200D03*
X0366300Y0020200D03*
X0376300Y0020200D03*
X0376300Y0030200D03*
X0386300Y0030200D03*
X0386300Y0020200D03*
X0396300Y0020200D03*
X0396300Y0030200D03*
X0296300Y0030200D03*
X0296300Y0020200D03*
X0286300Y0020200D03*
X0286300Y0030200D03*
X0256300Y0030200D03*
X0256300Y0020200D03*
X0246300Y0020200D03*
X0246300Y0030200D03*
X0236300Y0030200D03*
X0236300Y0020200D03*
X0226300Y0020200D03*
X0226300Y0030200D03*
X0216300Y0030200D03*
X0216300Y0020200D03*
X0206300Y0020200D03*
X0206300Y0030200D03*
X0196300Y0030200D03*
X0196300Y0020200D03*
X0186300Y0020200D03*
X0186300Y0030200D03*
X0176300Y0030200D03*
X0176300Y0020200D03*
X0166300Y0020200D03*
X0166300Y0030200D03*
X0156300Y0030200D03*
X0156300Y0020200D03*
X0146300Y0020200D03*
X0146300Y0030200D03*
X0136300Y0030200D03*
X0136300Y0020200D03*
X0126300Y0020200D03*
X0126300Y0030200D03*
X0116300Y0030200D03*
X0116300Y0020200D03*
X0106300Y0020200D03*
X0106300Y0030200D03*
X0096300Y0030200D03*
X0096300Y0020200D03*
X0086300Y0020200D03*
X0086300Y0030200D03*
X0076300Y0030200D03*
X0076300Y0020200D03*
X0066300Y0020200D03*
X0066300Y0030200D03*
D13*
X0266300Y0030200D03*
X0266300Y0020200D03*
X0276300Y0020200D03*
X0276300Y0030200D03*
D14*
X0269100Y0038200D03*
X0275900Y0041400D03*
X0272300Y0052200D03*
X0255500Y0046200D03*
X0249100Y0049800D03*
X0246300Y0045800D03*
X0241100Y0049000D03*
X0237500Y0052200D03*
X0229900Y0055400D03*
X0223500Y0055400D03*
X0218700Y0055400D03*
X0218300Y0049000D03*
X0211100Y0057000D03*
X0212700Y0068200D03*
X0217500Y0068200D03*
X0222300Y0068200D03*
X0228300Y0061800D03*
X0233100Y0066600D03*
X0234700Y0073000D03*
X0240300Y0071400D03*
X0242700Y0075800D03*
X0239500Y0079400D03*
X0236300Y0083000D03*
X0247500Y0076600D03*
X0250700Y0073000D03*
X0244300Y0068200D03*
X0247500Y0055400D03*
X0252300Y0055400D03*
X0255500Y0039400D03*
X0234300Y0037800D03*
X0201500Y0036200D03*
X0199900Y0041000D03*
X0199900Y0045800D03*
X0196700Y0053800D03*
X0187500Y0049000D03*
X0189900Y0044600D03*
X0184700Y0036200D03*
X0181100Y0039400D03*
X0172300Y0036200D03*
X0171500Y0045800D03*
X0165100Y0044200D03*
X0165900Y0050600D03*
X0155100Y0042600D03*
X0155100Y0037800D03*
X0140300Y0049400D03*
X0143500Y0057000D03*
X0149900Y0071800D03*
X0165100Y0066600D03*
X0165500Y0089400D03*
X0160700Y0089800D03*
X0168300Y0093400D03*
X0190300Y0107400D03*
X0187500Y0113800D03*
X0182700Y0118600D03*
X0196700Y0108600D03*
X0213500Y0098600D03*
X0218300Y0097000D03*
X0221500Y0093400D03*
X0245900Y0101800D03*
X0249100Y0105400D03*
X0242700Y0121800D03*
X0240700Y0127000D03*
X0245900Y0152600D03*
X0241100Y0154600D03*
X0253900Y0169000D03*
X0257100Y0177800D03*
X0260300Y0181400D03*
X0265100Y0181400D03*
X0264300Y0188600D03*
X0271500Y0185000D03*
X0281900Y0175400D03*
X0281900Y0170600D03*
X0270700Y0170600D03*
X0253900Y0190200D03*
X0253900Y0199000D03*
X0260700Y0204200D03*
X0256700Y0207000D03*
X0255500Y0213800D03*
X0260700Y0213400D03*
X0266300Y0199000D03*
X0291500Y0207800D03*
X0293100Y0197400D03*
X0297900Y0187800D03*
X0308700Y0187800D03*
X0308700Y0195400D03*
X0315100Y0192600D03*
X0327900Y0191400D03*
X0321900Y0178600D03*
X0315100Y0172600D03*
X0311900Y0169000D03*
X0322300Y0161000D03*
X0330300Y0161800D03*
X0334300Y0156200D03*
X0325500Y0153000D03*
X0319100Y0147800D03*
X0325500Y0146200D03*
X0333500Y0146200D03*
X0341100Y0144600D03*
X0341100Y0149400D03*
X0347900Y0156600D03*
X0329500Y0169000D03*
X0341900Y0187400D03*
X0321500Y0222600D03*
X0302700Y0233000D03*
X0291500Y0221400D03*
X0302700Y0207800D03*
X0273100Y0229800D03*
X0268300Y0229800D03*
X0258700Y0237800D03*
X0266700Y0246200D03*
X0277100Y0243000D03*
X0278300Y0238200D03*
X0283500Y0246600D03*
X0275500Y0252600D03*
X0291500Y0271800D03*
X0260300Y0279800D03*
X0257100Y0284600D03*
X0244700Y0295800D03*
X0238300Y0309000D03*
X0211900Y0296600D03*
X0188300Y0284200D03*
X0198700Y0258600D03*
X0206300Y0246200D03*
X0215100Y0261000D03*
X0221500Y0257800D03*
X0227900Y0261000D03*
X0229500Y0254200D03*
X0226300Y0250600D03*
X0227900Y0245800D03*
X0242700Y0249400D03*
X0250700Y0255800D03*
X0244300Y0259000D03*
X0249100Y0262200D03*
X0231100Y0265800D03*
X0231100Y0273000D03*
X0215100Y0231800D03*
X0205100Y0223000D03*
X0209100Y0218600D03*
X0202300Y0216600D03*
X0192700Y0211000D03*
X0187500Y0206600D03*
X0195900Y0198200D03*
X0203900Y0195000D03*
X0207100Y0203400D03*
X0179500Y0219800D03*
X0169900Y0228200D03*
X0165100Y0214200D03*
X0168300Y0203400D03*
X0157100Y0191800D03*
X0150700Y0190200D03*
X0147500Y0177800D03*
X0144300Y0174200D03*
X0145100Y0169400D03*
X0139500Y0173400D03*
X0153900Y0176200D03*
X0158700Y0159000D03*
X0165100Y0156600D03*
X0167500Y0150200D03*
X0173100Y0146200D03*
X0176300Y0139800D03*
X0179900Y0143000D03*
X0171500Y0135000D03*
X0182700Y0131800D03*
X0198300Y0150600D03*
X0198300Y0155400D03*
X0201500Y0159000D03*
X0206300Y0165800D03*
X0211900Y0159400D03*
X0215100Y0149400D03*
X0212700Y0123800D03*
X0187500Y0159400D03*
X0187500Y0170600D03*
X0206300Y0176200D03*
X0240700Y0172200D03*
X0242700Y0194200D03*
X0240700Y0200600D03*
X0239100Y0223000D03*
X0266700Y0149400D03*
X0278300Y0147800D03*
X0280300Y0135000D03*
X0280700Y0128200D03*
X0286700Y0121800D03*
X0283500Y0115400D03*
X0293500Y0115400D03*
X0293100Y0107400D03*
X0312700Y0105800D03*
X0316300Y0109000D03*
X0319500Y0099400D03*
X0331900Y0091000D03*
X0337900Y0099400D03*
X0345900Y0118600D03*
X0355500Y0121800D03*
X0344300Y0128200D03*
X0335100Y0132600D03*
X0337900Y0136600D03*
X0327100Y0131800D03*
X0315900Y0135000D03*
X0309500Y0131800D03*
X0312700Y0128200D03*
X0301500Y0132600D03*
X0293100Y0135000D03*
X0272300Y0135000D03*
X0272300Y0101800D03*
X0293500Y0091000D03*
X0301500Y0086200D03*
X0296700Y0073400D03*
X0312700Y0057000D03*
X0302300Y0052200D03*
X0299100Y0044600D03*
X0292700Y0041400D03*
X0306300Y0041400D03*
X0330700Y0038200D03*
X0339500Y0048600D03*
X0345900Y0066600D03*
X0351500Y0075000D03*
X0356300Y0075000D03*
X0359500Y0066600D03*
X0371100Y0068200D03*
X0376300Y0053400D03*
X0390300Y0025800D03*
X0331100Y0068200D03*
X0362700Y0086200D03*
X0365100Y0091000D03*
X0327100Y0120200D03*
X0193500Y0067400D03*
X0150700Y0113800D03*
X0150700Y0123800D03*
X0139500Y0135000D03*
X0124700Y0122200D03*
X0118300Y0122200D03*
X0130300Y0097000D03*
X0136700Y0097000D03*
X0123100Y0083000D03*
X0121500Y0069800D03*
X0111900Y0060200D03*
X0109500Y0055800D03*
X0099500Y0049000D03*
X0084300Y0052200D03*
X0089100Y0069400D03*
X0095500Y0069400D03*
X0099900Y0071800D03*
X0103100Y0068200D03*
X0106300Y0079800D03*
X0098700Y0083000D03*
X0092300Y0079800D03*
X0069500Y0074200D03*
X0090300Y0034600D03*
X0120300Y0049000D03*
X0129500Y0042600D03*
X0057900Y0017800D03*
X0101500Y0151800D03*
X0134700Y0211400D03*
D15*
X0134700Y0209800D01*
X0127900Y0203000D01*
X0127900Y0193000D01*
X0132300Y0188600D01*
X0132300Y0185000D01*
X0131500Y0184200D01*
X0131500Y0179400D01*
X0135900Y0175000D01*
X0135900Y0171000D01*
X0134700Y0169800D01*
X0134700Y0162200D01*
X0121500Y0149000D01*
X0121500Y0105800D01*
X0098700Y0083000D01*
X0092300Y0079800D02*
X0092300Y0060200D01*
X0084300Y0052200D01*
X0099500Y0049000D02*
X0103100Y0052600D01*
X0103100Y0068200D01*
X0099900Y0069000D02*
X0099900Y0071800D01*
X0099900Y0069000D02*
X0096300Y0065400D01*
X0096300Y0030200D01*
X0091900Y0033000D02*
X0091900Y0024600D01*
X0096300Y0020200D01*
X0101900Y0020200D01*
X0101900Y0018600D01*
X0104700Y0015800D01*
X0151900Y0015800D01*
X0151900Y0069000D01*
X0155500Y0072600D01*
X0155500Y0170600D01*
X0165100Y0180200D01*
X0165100Y0214200D01*
X0171500Y0221400D02*
X0157900Y0235000D01*
X0157900Y0237800D01*
X0157640Y0238142D01*
X0148300Y0238200D02*
X0148300Y0230600D01*
X0137900Y0220200D01*
X0137900Y0210200D01*
X0142300Y0205800D01*
X0142300Y0202200D01*
X0141500Y0201400D01*
X0141500Y0196600D01*
X0145900Y0192200D01*
X0145900Y0188200D01*
X0144300Y0186600D01*
X0144300Y0174200D01*
X0144300Y0173400D01*
X0141900Y0171000D01*
X0141900Y0167000D01*
X0133500Y0158600D01*
X0133500Y0046600D01*
X0129500Y0042600D01*
X0131900Y0040200D02*
X0136700Y0045000D01*
X0136700Y0097000D01*
X0130300Y0097000D02*
X0126300Y0093000D01*
X0126300Y0030200D01*
X0121900Y0025800D02*
X0121900Y0045800D01*
X0124700Y0048600D01*
X0124700Y0081400D01*
X0123100Y0083000D01*
X0124700Y0093400D02*
X0124700Y0122200D01*
X0118300Y0122200D02*
X0118300Y0120600D01*
X0101500Y0120600D01*
X0101300Y0120559D01*
X0084300Y0119800D02*
X0084300Y0127800D01*
X0097900Y0141400D01*
X0097900Y0148200D01*
X0101500Y0151800D01*
X0084300Y0119800D02*
X0073100Y0108600D01*
X0073100Y0097400D01*
X0077500Y0093000D01*
X0077500Y0090200D01*
X0076700Y0089400D01*
X0076700Y0083800D01*
X0081100Y0079400D01*
X0081100Y0025000D01*
X0076300Y0020200D01*
X0090300Y0034600D02*
X0091900Y0033000D01*
X0106300Y0030200D02*
X0106300Y0079800D01*
X0108700Y0077400D02*
X0124700Y0093400D01*
X0108700Y0077400D02*
X0108700Y0056600D01*
X0109500Y0055800D01*
X0111900Y0060200D02*
X0121500Y0069800D01*
X0120300Y0049000D02*
X0120300Y0034200D01*
X0116300Y0030200D01*
X0121900Y0025800D02*
X0116300Y0020200D01*
X0131900Y0024600D02*
X0131900Y0040200D01*
X0140300Y0034200D02*
X0140300Y0049400D01*
X0143500Y0047800D02*
X0141900Y0046200D01*
X0141900Y0024600D01*
X0146300Y0020200D01*
X0146300Y0030200D02*
X0146700Y0030600D01*
X0146700Y0109800D01*
X0150700Y0113800D01*
X0150700Y0123800D02*
X0139500Y0135000D01*
X0157500Y0149000D02*
X0165100Y0156600D01*
X0167500Y0150200D02*
X0168300Y0150200D01*
X0168300Y0133400D01*
X0171500Y0130200D01*
X0171500Y0051400D01*
X0168300Y0048200D01*
X0168300Y0035400D01*
X0170700Y0033000D01*
X0170700Y0025800D01*
X0176300Y0020200D01*
X0180700Y0015800D02*
X0180700Y0035000D01*
X0177900Y0037800D01*
X0177900Y0136600D01*
X0179500Y0138200D01*
X0179500Y0143000D01*
X0179900Y0143000D01*
X0179500Y0143000D02*
X0179500Y0145800D01*
X0177900Y0147400D01*
X0177900Y0218200D01*
X0179500Y0219800D01*
X0182700Y0218200D02*
X0179500Y0215000D01*
X0179500Y0148200D01*
X0183100Y0144600D01*
X0183100Y0139400D01*
X0179500Y0135800D01*
X0179500Y0131800D01*
X0182700Y0131800D01*
X0179500Y0131800D02*
X0179500Y0041000D01*
X0181100Y0039400D01*
X0184300Y0036600D02*
X0184300Y0118600D01*
X0182700Y0118600D01*
X0184300Y0118600D02*
X0184300Y0128600D01*
X0185900Y0130200D01*
X0185900Y0144200D01*
X0181100Y0149000D01*
X0181100Y0214200D01*
X0184300Y0217400D01*
X0184300Y0249000D01*
X0178300Y0255000D01*
X0172300Y0255000D01*
X0172300Y0253400D01*
X0167100Y0248200D01*
X0162700Y0248200D01*
X0162700Y0247000D01*
X0162640Y0246803D01*
X0158700Y0248600D02*
X0158700Y0256200D01*
X0169100Y0266600D01*
X0169100Y0273800D01*
X0179100Y0283800D01*
X0179100Y0291000D01*
X0188700Y0300600D01*
X0188700Y0305000D01*
X0199500Y0315800D01*
X0202300Y0315800D01*
X0202640Y0316085D01*
X0206700Y0313000D02*
X0209500Y0315800D01*
X0214700Y0315800D01*
X0214700Y0314200D01*
X0234300Y0294600D01*
X0234300Y0227800D01*
X0232700Y0226200D01*
X0232700Y0102200D01*
X0236300Y0098600D01*
X0236300Y0087800D01*
X0239500Y0084600D01*
X0239500Y0079400D01*
X0236300Y0083000D02*
X0234700Y0084600D01*
X0234700Y0097800D01*
X0231100Y0101400D01*
X0231100Y0239800D01*
X0232700Y0241400D01*
X0232700Y0264200D01*
X0231100Y0265800D01*
X0224700Y0266600D02*
X0231100Y0273000D01*
X0224700Y0266600D02*
X0224700Y0256200D01*
X0221500Y0253000D01*
X0221500Y0093400D01*
X0223100Y0096600D02*
X0228300Y0091400D01*
X0228300Y0061800D01*
X0225100Y0060200D02*
X0225100Y0065400D01*
X0222300Y0068200D01*
X0217500Y0068200D02*
X0223500Y0062200D01*
X0223500Y0055400D01*
X0218700Y0055400D02*
X0218700Y0062200D01*
X0212700Y0068200D01*
X0225100Y0060200D02*
X0229900Y0055400D01*
X0234300Y0060600D02*
X0234300Y0037800D01*
X0232700Y0034600D02*
X0241900Y0034600D01*
X0241900Y0028600D01*
X0244700Y0025800D01*
X0250700Y0025800D01*
X0250700Y0048200D01*
X0249100Y0049800D01*
X0252300Y0050600D02*
X0255500Y0053800D01*
X0255500Y0167400D01*
X0253900Y0169000D01*
X0257100Y0173000D02*
X0253900Y0176200D01*
X0253900Y0190200D01*
X0253900Y0199000D01*
X0256700Y0207000D02*
X0252300Y0211400D01*
X0252300Y0217400D01*
X0253900Y0219000D01*
X0253900Y0257400D01*
X0252300Y0259000D01*
X0252300Y0295000D01*
X0253500Y0296200D01*
X0253500Y0301000D01*
X0256700Y0304200D01*
X0256970Y0304303D01*
X0261100Y0305800D02*
X0261500Y0305400D01*
X0261500Y0301800D01*
X0253900Y0294200D01*
X0253900Y0259800D01*
X0255500Y0258200D01*
X0255500Y0213800D01*
X0258700Y0215400D02*
X0258700Y0237800D01*
X0257100Y0239400D01*
X0257100Y0284600D01*
X0260300Y0279800D02*
X0263500Y0276600D01*
X0263500Y0215800D01*
X0267500Y0211800D01*
X0267500Y0200200D01*
X0266300Y0199000D01*
X0268300Y0196200D02*
X0269500Y0197400D01*
X0269500Y0228600D01*
X0268300Y0229800D01*
X0275100Y0227000D02*
X0276300Y0228200D01*
X0276300Y0235400D01*
X0275100Y0236600D01*
X0275100Y0241000D01*
X0277100Y0243000D01*
X0280300Y0241000D02*
X0281900Y0239400D01*
X0281900Y0175400D01*
X0281900Y0170600D02*
X0283500Y0169000D01*
X0283500Y0131800D01*
X0279500Y0131800D01*
X0277500Y0129800D01*
X0277500Y0043000D01*
X0275900Y0041400D01*
X0272300Y0042600D02*
X0275500Y0045800D01*
X0275500Y0098600D01*
X0272300Y0101800D01*
X0283500Y0115400D02*
X0286700Y0112200D01*
X0286700Y0035800D01*
X0291900Y0030600D01*
X0291900Y0024600D01*
X0296300Y0020200D01*
X0301900Y0024600D02*
X0301900Y0042600D01*
X0302300Y0043000D01*
X0302300Y0052200D01*
X0299100Y0053800D02*
X0299100Y0044600D01*
X0292700Y0041400D02*
X0288300Y0045800D01*
X0288300Y0120200D01*
X0286700Y0121800D01*
X0286700Y0252200D01*
X0286970Y0252341D01*
X0291500Y0252200D02*
X0291500Y0255800D01*
X0286700Y0260600D01*
X0286700Y0264200D01*
X0285900Y0265000D01*
X0285900Y0274600D01*
X0285630Y0274662D01*
X0281100Y0276600D02*
X0281100Y0271000D01*
X0281500Y0270600D01*
X0281500Y0267000D01*
X0275500Y0261000D01*
X0275500Y0252600D01*
X0280300Y0259400D02*
X0280300Y0241000D01*
X0278300Y0238200D02*
X0278300Y0147800D01*
X0278300Y0137000D01*
X0280300Y0135000D01*
X0275100Y0137800D02*
X0275100Y0227000D01*
X0291500Y0221400D02*
X0297900Y0215000D01*
X0297900Y0187800D01*
X0301100Y0189400D02*
X0299500Y0191000D01*
X0299500Y0211000D01*
X0306700Y0211000D01*
X0311500Y0215800D01*
X0311500Y0218200D01*
X0311100Y0218600D01*
X0311100Y0224600D01*
X0315100Y0228600D01*
X0315100Y0232200D01*
X0314700Y0232600D01*
X0314700Y0237400D01*
X0305500Y0246600D01*
X0305500Y0253400D01*
X0299100Y0259800D01*
X0299100Y0264200D01*
X0291500Y0271800D01*
X0285500Y0281000D02*
X0281100Y0276600D01*
X0285500Y0281000D02*
X0285500Y0284200D01*
X0284300Y0285400D01*
X0284300Y0289800D01*
X0277900Y0296200D01*
X0277900Y0300600D01*
X0270700Y0300600D01*
X0270630Y0300642D01*
X0261100Y0305800D02*
X0261100Y0311400D01*
X0265500Y0315800D01*
X0265500Y0319800D01*
X0260700Y0324600D01*
X0260700Y0330600D01*
X0255100Y0336200D01*
X0255100Y0339800D01*
X0245100Y0339800D01*
X0237100Y0331800D01*
X0237100Y0328600D01*
X0221500Y0328600D01*
X0221300Y0328405D01*
X0211300Y0311085D02*
X0211100Y0311000D01*
X0211100Y0300600D01*
X0208700Y0298200D01*
X0208700Y0295000D01*
X0209500Y0294200D01*
X0209500Y0219000D01*
X0209100Y0218600D01*
X0205500Y0222600D02*
X0205500Y0206600D01*
X0201300Y0202400D01*
X0211100Y0192600D01*
X0211100Y0160200D01*
X0211900Y0159400D01*
X0209500Y0161800D02*
X0207900Y0160200D01*
X0207900Y0044600D01*
X0221900Y0030600D01*
X0221900Y0024600D01*
X0226300Y0020200D01*
X0231900Y0024600D02*
X0241900Y0024600D01*
X0241900Y0018600D01*
X0244700Y0015800D01*
X0270300Y0015800D01*
X0270300Y0032200D01*
X0267900Y0034600D01*
X0263500Y0034600D01*
X0263500Y0179800D01*
X0265100Y0181400D01*
X0264700Y0181400D01*
X0264700Y0188200D01*
X0264300Y0188600D01*
X0268300Y0196200D02*
X0268300Y0179800D01*
X0267500Y0179000D01*
X0267500Y0149400D01*
X0266700Y0149400D01*
X0267500Y0149400D02*
X0267500Y0039800D01*
X0269100Y0038200D01*
X0272300Y0042600D02*
X0272300Y0018200D01*
X0274700Y0015800D01*
X0316300Y0015800D01*
X0316300Y0020200D01*
X0315900Y0024600D02*
X0320700Y0024600D01*
X0320700Y0014200D01*
X0356300Y0014200D01*
X0360700Y0018600D01*
X0360700Y0025800D01*
X0370700Y0025800D01*
X0376300Y0020200D01*
X0380700Y0025800D02*
X0380700Y0053800D01*
X0362700Y0071800D01*
X0362700Y0086200D01*
X0365100Y0091000D02*
X0367300Y0093200D01*
X0367100Y0093400D01*
X0367100Y0105400D01*
X0344300Y0128200D01*
X0342700Y0125000D02*
X0335100Y0132600D01*
X0337900Y0136600D02*
X0337900Y0146200D01*
X0341100Y0149400D01*
X0341100Y0144600D02*
X0341100Y0131400D01*
X0356700Y0131400D01*
X0356970Y0131097D01*
X0361500Y0131800D02*
X0361500Y0128600D01*
X0355500Y0122600D01*
X0355500Y0121800D01*
X0345900Y0118600D02*
X0359500Y0105000D01*
X0359500Y0072600D01*
X0362700Y0069400D01*
X0362700Y0067000D01*
X0376300Y0053400D01*
X0366300Y0059800D02*
X0366300Y0030200D01*
X0356300Y0030200D02*
X0356300Y0075000D01*
X0351900Y0074600D02*
X0351900Y0024600D01*
X0356300Y0020200D01*
X0346300Y0030200D02*
X0346300Y0066200D01*
X0345900Y0066600D01*
X0342700Y0065000D02*
X0344300Y0063400D01*
X0344300Y0048600D01*
X0341900Y0046200D01*
X0341900Y0015800D01*
X0334700Y0015800D01*
X0331900Y0018600D01*
X0331900Y0020200D01*
X0326300Y0020200D01*
X0331900Y0024600D02*
X0336300Y0020200D01*
X0331900Y0024600D02*
X0331900Y0031800D01*
X0333900Y0033800D01*
X0333900Y0065400D01*
X0331100Y0068200D01*
X0342700Y0065000D02*
X0342700Y0125000D01*
X0327900Y0114600D02*
X0319100Y0123400D01*
X0319100Y0147800D01*
X0325500Y0146200D02*
X0325500Y0133400D01*
X0327100Y0131800D01*
X0322300Y0125000D02*
X0322300Y0161000D01*
X0325500Y0165000D02*
X0325500Y0153000D01*
X0334300Y0156200D02*
X0341500Y0163400D01*
X0341500Y0166600D01*
X0341100Y0167000D01*
X0341100Y0178600D01*
X0340700Y0179000D01*
X0340630Y0179399D01*
X0341900Y0184600D02*
X0341900Y0187400D01*
X0341900Y0184600D02*
X0350300Y0176200D01*
X0350300Y0169000D01*
X0345900Y0164600D01*
X0345900Y0161000D01*
X0342300Y0157400D01*
X0341970Y0157078D01*
X0347900Y0156600D02*
X0347900Y0149400D01*
X0347100Y0148600D01*
X0346970Y0148418D01*
X0333500Y0146200D02*
X0331900Y0144600D01*
X0331900Y0105400D01*
X0337900Y0099400D01*
X0337900Y0094600D02*
X0330300Y0102200D01*
X0330300Y0161800D01*
X0325500Y0165000D02*
X0329500Y0169000D01*
X0331500Y0181000D02*
X0331500Y0186600D01*
X0331100Y0187000D01*
X0331100Y0190600D01*
X0335500Y0195000D01*
X0335500Y0201400D01*
X0329100Y0207800D01*
X0329100Y0212600D01*
X0321500Y0220200D01*
X0321500Y0222600D01*
X0311970Y0209040D02*
X0311900Y0209000D01*
X0311900Y0169000D01*
X0315100Y0167000D02*
X0312700Y0164600D01*
X0312700Y0133000D01*
X0316300Y0129400D01*
X0316300Y0109000D01*
X0316300Y0030200D01*
X0311900Y0030600D02*
X0311900Y0028600D01*
X0315900Y0024600D01*
X0311900Y0030600D02*
X0309500Y0033000D01*
X0309500Y0125000D01*
X0312700Y0128200D01*
X0309500Y0131800D02*
X0308700Y0132600D01*
X0308700Y0187800D01*
X0306300Y0185400D02*
X0305500Y0186200D01*
X0305500Y0192200D01*
X0308700Y0195400D01*
X0315100Y0192600D02*
X0319100Y0196600D01*
X0323500Y0196600D01*
X0325900Y0194200D01*
X0325900Y0193400D01*
X0327900Y0191400D01*
X0321970Y0191719D02*
X0321900Y0191400D01*
X0321900Y0178600D01*
X0315100Y0172600D02*
X0315100Y0167000D01*
X0315900Y0165400D02*
X0331500Y0181000D01*
X0315900Y0165400D02*
X0315900Y0135000D01*
X0307900Y0128600D02*
X0306300Y0130200D01*
X0306300Y0185400D01*
X0301100Y0189400D02*
X0301100Y0137000D01*
X0298300Y0134200D01*
X0298300Y0131000D01*
X0299900Y0129400D01*
X0299900Y0087800D01*
X0301500Y0086200D01*
X0293500Y0091000D02*
X0293500Y0071800D01*
X0298700Y0066600D01*
X0304700Y0066600D01*
X0304700Y0117800D01*
X0301500Y0121000D01*
X0301500Y0132600D01*
X0303900Y0135000D02*
X0304700Y0134200D01*
X0304700Y0120200D01*
X0306300Y0118600D01*
X0306300Y0061000D01*
X0299100Y0053800D01*
X0295900Y0067000D02*
X0289900Y0073000D01*
X0289900Y0123800D01*
X0288300Y0125400D01*
X0288300Y0239800D01*
X0291900Y0243400D01*
X0291970Y0243681D01*
X0285100Y0245000D02*
X0283500Y0246600D01*
X0285100Y0245000D02*
X0285100Y0125000D01*
X0283500Y0123400D01*
X0283500Y0115400D01*
X0293100Y0115000D02*
X0293100Y0107400D01*
X0293100Y0115000D02*
X0293500Y0115400D01*
X0296700Y0119400D02*
X0296700Y0073400D01*
X0295900Y0067000D02*
X0295900Y0030600D01*
X0296300Y0030200D01*
X0301900Y0024600D02*
X0306300Y0020200D01*
X0320700Y0014200D02*
X0061100Y0014200D01*
X0061100Y0045000D01*
X0056700Y0049400D01*
X0056700Y0054600D01*
X0057500Y0055400D01*
X0057500Y0064600D01*
X0057640Y0064937D01*
X0069500Y0074200D02*
X0069500Y0080600D01*
X0067900Y0082200D01*
X0067640Y0082258D01*
X0081300Y0085918D02*
X0081500Y0085800D01*
X0089100Y0078200D01*
X0089100Y0069400D01*
X0095500Y0069400D02*
X0095500Y0091800D01*
X0089500Y0097800D01*
X0089500Y0099400D01*
X0077900Y0099400D01*
X0077640Y0099578D01*
X0143500Y0057000D02*
X0143500Y0047800D01*
X0155100Y0042600D02*
X0157500Y0045000D01*
X0157500Y0149000D01*
X0158700Y0159000D02*
X0166700Y0167000D01*
X0166700Y0201800D01*
X0168300Y0203400D01*
X0157100Y0191800D02*
X0157100Y0174600D01*
X0153900Y0171400D01*
X0153900Y0075800D01*
X0149900Y0071800D01*
X0161900Y0085800D02*
X0165500Y0089400D01*
X0164300Y0093400D02*
X0168300Y0093400D01*
X0164300Y0093400D02*
X0160700Y0089800D01*
X0161900Y0085800D02*
X0161900Y0044600D01*
X0155100Y0037800D01*
X0161900Y0033400D02*
X0165100Y0036600D01*
X0165100Y0044200D01*
X0165900Y0050600D02*
X0165900Y0065800D01*
X0165100Y0066600D01*
X0173100Y0047400D02*
X0171500Y0045800D01*
X0173100Y0047400D02*
X0173100Y0135800D01*
X0172500Y0136400D01*
X0172300Y0136200D01*
X0172300Y0135800D01*
X0171500Y0135000D01*
X0172500Y0136400D02*
X0169900Y0139000D01*
X0169900Y0147800D01*
X0173100Y0151000D01*
X0173100Y0225000D01*
X0169900Y0228200D01*
X0166300Y0233142D02*
X0166300Y0242600D01*
X0167500Y0243800D01*
X0167500Y0246600D01*
X0173100Y0246600D01*
X0176300Y0243400D01*
X0176300Y0139800D01*
X0176300Y0030200D01*
X0172300Y0036200D02*
X0174700Y0038600D01*
X0174700Y0136600D01*
X0173100Y0138200D01*
X0173100Y0146200D01*
X0173100Y0148600D01*
X0174700Y0150200D01*
X0174700Y0238600D01*
X0171500Y0241800D01*
X0171300Y0241803D01*
X0176300Y0250200D02*
X0176300Y0250463D01*
X0176300Y0250200D02*
X0182700Y0243800D01*
X0182700Y0218200D01*
X0185900Y0215000D02*
X0182700Y0211800D01*
X0182700Y0149800D01*
X0187500Y0145000D01*
X0187500Y0113800D01*
X0190300Y0111800D02*
X0190700Y0112200D01*
X0190700Y0151000D01*
X0184300Y0157400D01*
X0184300Y0211000D01*
X0187500Y0214200D01*
X0187500Y0259400D01*
X0183100Y0263800D01*
X0177500Y0263800D01*
X0177500Y0262600D01*
X0170700Y0255800D01*
X0167900Y0255800D01*
X0167640Y0255463D01*
X0158700Y0248600D02*
X0148300Y0238200D01*
X0171500Y0221400D02*
X0171500Y0173400D01*
X0168300Y0170200D01*
X0168300Y0150200D01*
X0187500Y0159400D02*
X0187500Y0170600D01*
X0187500Y0206600D01*
X0189100Y0209800D02*
X0189100Y0264600D01*
X0186300Y0267400D01*
X0186300Y0267783D01*
X0191100Y0270200D02*
X0186700Y0274600D01*
X0186700Y0279800D01*
X0188300Y0281400D01*
X0188300Y0284200D01*
X0191500Y0283000D02*
X0191500Y0285800D01*
X0192300Y0286600D01*
X0192300Y0298600D01*
X0192640Y0298764D01*
X0196700Y0297000D02*
X0197500Y0297800D01*
X0197500Y0307400D01*
X0197640Y0307424D01*
X0201500Y0305400D02*
X0206700Y0310600D01*
X0206700Y0313000D01*
X0201500Y0305400D02*
X0201500Y0293800D01*
X0201300Y0293764D01*
X0196700Y0291800D02*
X0196700Y0297000D01*
X0196700Y0291800D02*
X0201900Y0286600D01*
X0201900Y0217000D01*
X0202300Y0216600D01*
X0205500Y0222600D02*
X0205100Y0223000D01*
X0211900Y0230200D02*
X0212300Y0229800D01*
X0212300Y0208600D01*
X0207100Y0203400D01*
X0201300Y0202400D02*
X0200700Y0201800D01*
X0200700Y0164600D01*
X0204700Y0160600D01*
X0204700Y0039400D01*
X0201500Y0036200D01*
X0200700Y0032200D02*
X0196700Y0036200D01*
X0196700Y0049000D01*
X0199900Y0052200D01*
X0199900Y0149000D01*
X0198300Y0150600D01*
X0192700Y0156200D01*
X0192700Y0211000D01*
X0190700Y0208200D02*
X0189100Y0209800D01*
X0190700Y0208200D02*
X0190700Y0153400D01*
X0196700Y0147400D01*
X0196700Y0108600D01*
X0196700Y0053800D01*
X0190300Y0051800D02*
X0187500Y0049000D01*
X0190300Y0051800D02*
X0190300Y0107400D01*
X0190300Y0111800D01*
X0212700Y0123800D02*
X0215100Y0126200D01*
X0215100Y0149400D01*
X0215100Y0154200D02*
X0209500Y0148600D01*
X0209500Y0058600D01*
X0211100Y0057000D01*
X0218300Y0049000D02*
X0232700Y0034600D01*
X0226300Y0030200D02*
X0231900Y0024600D01*
X0246300Y0030200D02*
X0246300Y0045800D01*
X0241100Y0049000D02*
X0244300Y0052200D01*
X0244300Y0068200D01*
X0240300Y0071400D02*
X0240300Y0055000D01*
X0237500Y0052200D01*
X0234300Y0060600D02*
X0229900Y0065000D01*
X0229900Y0092200D01*
X0224700Y0097400D01*
X0224700Y0249000D01*
X0226300Y0250600D01*
X0223100Y0252200D02*
X0226300Y0255400D01*
X0226300Y0259400D01*
X0227900Y0261000D01*
X0229500Y0254200D02*
X0231100Y0252600D01*
X0231100Y0242600D01*
X0229500Y0241000D01*
X0229500Y0100600D01*
X0233100Y0097000D01*
X0233100Y0074600D01*
X0234700Y0073000D01*
X0231500Y0068200D02*
X0233100Y0066600D01*
X0231500Y0068200D02*
X0231500Y0093000D01*
X0227900Y0096600D01*
X0227900Y0245800D01*
X0223100Y0252200D02*
X0223100Y0096600D01*
X0219900Y0098600D02*
X0218300Y0097000D01*
X0219900Y0098600D02*
X0219900Y0256200D01*
X0221500Y0257800D01*
X0218300Y0257800D02*
X0218300Y0103400D01*
X0213500Y0098600D01*
X0234300Y0105000D02*
X0237900Y0101400D01*
X0237900Y0088600D01*
X0242700Y0083800D01*
X0242700Y0075800D01*
X0247500Y0076600D02*
X0247500Y0081400D01*
X0239500Y0089400D01*
X0239500Y0102200D01*
X0235900Y0105800D01*
X0235900Y0224600D01*
X0237500Y0226200D01*
X0237500Y0244200D01*
X0242700Y0249400D01*
X0245900Y0251000D02*
X0241100Y0255800D01*
X0241100Y0287400D01*
X0251900Y0298200D01*
X0251900Y0312600D01*
X0251970Y0312963D01*
X0249100Y0317800D02*
X0240300Y0309000D01*
X0238300Y0309000D01*
X0249100Y0317800D02*
X0260300Y0317800D01*
X0260630Y0317963D01*
X0244700Y0295800D02*
X0237500Y0288600D01*
X0237500Y0250200D01*
X0235900Y0248600D01*
X0235900Y0227000D01*
X0234300Y0225400D01*
X0234300Y0105000D01*
X0237500Y0106600D02*
X0241100Y0103000D01*
X0241100Y0090200D01*
X0250700Y0080600D01*
X0250700Y0073000D01*
X0247500Y0076600D02*
X0247500Y0055400D01*
X0252300Y0055400D02*
X0253900Y0057000D01*
X0253900Y0089000D01*
X0252100Y0090800D01*
X0252300Y0091000D01*
X0252300Y0155800D01*
X0250700Y0157400D01*
X0250700Y0255800D01*
X0247500Y0254200D02*
X0247500Y0260600D01*
X0249100Y0262200D01*
X0245900Y0257400D02*
X0244300Y0259000D01*
X0245900Y0257400D02*
X0245900Y0253400D01*
X0247500Y0251800D01*
X0247500Y0155800D01*
X0249100Y0154200D01*
X0249100Y0110200D01*
X0245900Y0107000D01*
X0245900Y0101800D01*
X0242700Y0100200D02*
X0242700Y0121800D01*
X0240700Y0127000D02*
X0245900Y0132200D01*
X0245900Y0152600D01*
X0245900Y0251000D01*
X0249100Y0252600D02*
X0247500Y0254200D01*
X0249100Y0252600D02*
X0249100Y0156600D01*
X0250700Y0155000D01*
X0250700Y0107000D01*
X0249100Y0105400D01*
X0242700Y0100200D02*
X0252100Y0090800D01*
X0237500Y0106600D02*
X0237500Y0221400D01*
X0239100Y0223000D01*
X0258700Y0215400D02*
X0260700Y0213400D01*
X0240700Y0200600D02*
X0240700Y0196200D01*
X0242700Y0194200D01*
X0257100Y0177800D02*
X0258700Y0176200D01*
X0258700Y0042600D01*
X0255500Y0039400D01*
X0252300Y0034200D02*
X0252300Y0050600D01*
X0255500Y0046200D02*
X0257100Y0047800D01*
X0257100Y0173000D01*
X0270700Y0170600D02*
X0270700Y0148600D01*
X0269100Y0147000D01*
X0269100Y0055400D01*
X0272300Y0052200D01*
X0252300Y0034200D02*
X0256300Y0030200D01*
X0280300Y0026200D02*
X0280300Y0127800D01*
X0280700Y0128200D01*
X0289900Y0126200D02*
X0296700Y0119400D01*
X0289900Y0126200D02*
X0289900Y0206200D01*
X0291500Y0207800D01*
X0293100Y0197400D02*
X0293100Y0135000D01*
X0303900Y0135000D02*
X0303900Y0206600D01*
X0302700Y0207800D01*
X0302700Y0233000D02*
X0301500Y0234200D01*
X0301500Y0238600D01*
X0296700Y0243400D01*
X0296700Y0247000D01*
X0291500Y0252200D01*
X0281970Y0261001D02*
X0281900Y0261000D01*
X0280300Y0259400D01*
X0266700Y0246200D02*
X0266700Y0286600D01*
X0266970Y0286982D01*
X0218300Y0257800D02*
X0215100Y0261000D01*
X0206300Y0246200D02*
X0206300Y0302424D01*
X0211900Y0296600D02*
X0211900Y0230200D01*
X0215100Y0231800D02*
X0215100Y0154200D01*
X0209500Y0161800D02*
X0209500Y0189400D01*
X0203900Y0195000D01*
X0195900Y0198200D02*
X0195900Y0159800D01*
X0199300Y0156400D01*
X0198300Y0155400D01*
X0199300Y0156400D02*
X0201500Y0154200D01*
X0201500Y0047400D01*
X0199900Y0045800D01*
X0203100Y0044200D02*
X0203100Y0159800D01*
X0202500Y0160400D01*
X0202300Y0160200D01*
X0202300Y0159800D01*
X0201500Y0159000D01*
X0202500Y0160400D02*
X0199100Y0163800D01*
X0199100Y0253400D01*
X0191100Y0261400D01*
X0191100Y0270200D01*
X0198700Y0275800D02*
X0198700Y0258600D01*
X0185900Y0254600D02*
X0185900Y0215000D01*
X0157100Y0215000D02*
X0157100Y0191800D01*
X0153900Y0192600D02*
X0153900Y0176200D01*
X0150700Y0175000D02*
X0150700Y0190200D01*
X0153500Y0193000D02*
X0153900Y0192600D01*
X0153500Y0193000D02*
X0153500Y0193400D01*
X0153900Y0193800D01*
X0153900Y0207000D01*
X0151500Y0207000D01*
X0151300Y0207162D01*
X0157100Y0215000D02*
X0156300Y0215800D01*
X0156300Y0215822D01*
X0146300Y0198501D02*
X0146300Y0198200D01*
X0147500Y0197000D01*
X0147500Y0177800D01*
X0150700Y0175000D02*
X0145100Y0169400D01*
X0139500Y0173400D02*
X0139500Y0177800D01*
X0136300Y0181000D01*
X0136300Y0181181D01*
X0206300Y0176200D02*
X0206300Y0165800D01*
X0206300Y0030200D01*
X0200700Y0032200D02*
X0200700Y0025800D01*
X0206300Y0020200D01*
X0196300Y0020200D02*
X0190700Y0020200D01*
X0190700Y0018600D01*
X0187900Y0015800D01*
X0180700Y0015800D01*
X0186300Y0020200D02*
X0190700Y0024600D01*
X0190700Y0043800D01*
X0189900Y0044600D01*
X0184300Y0036600D02*
X0184700Y0036200D01*
X0193500Y0033000D02*
X0193500Y0067400D01*
X0203100Y0044200D02*
X0199900Y0041000D01*
X0193500Y0033000D02*
X0196300Y0030200D01*
X0161900Y0033400D02*
X0161900Y0025800D01*
X0156300Y0020200D01*
X0140300Y0034200D02*
X0136300Y0030200D01*
X0131900Y0024600D02*
X0136300Y0020200D01*
X0057900Y0017800D02*
X0057900Y0012600D01*
X0394700Y0012600D01*
X0400700Y0018600D01*
X0400700Y0022200D01*
X0420300Y0041800D01*
X0420300Y0051400D01*
X0416300Y0055400D01*
X0416300Y0062600D01*
X0408700Y0070200D01*
X0408700Y0075400D01*
X0400700Y0075400D01*
X0400630Y0075476D01*
X0391500Y0077000D02*
X0391500Y0082600D01*
X0386700Y0087400D01*
X0386700Y0091000D01*
X0385900Y0091800D01*
X0385900Y0101400D01*
X0385630Y0101456D01*
X0383900Y0105400D02*
X0384700Y0106200D01*
X0390700Y0106200D01*
X0390700Y0099400D01*
X0395500Y0094600D01*
X0395500Y0084200D01*
X0395630Y0084136D01*
X0391500Y0077000D02*
X0387100Y0072600D01*
X0387100Y0068600D01*
X0390700Y0065000D01*
X0390700Y0026200D01*
X0390300Y0025800D01*
X0386300Y0020200D02*
X0380700Y0025800D01*
X0366300Y0059800D02*
X0359500Y0066600D01*
X0351900Y0074600D02*
X0351500Y0075000D01*
X0336300Y0086600D02*
X0336300Y0030200D01*
X0330700Y0038200D02*
X0327900Y0041000D01*
X0327900Y0114600D01*
X0327100Y0120200D02*
X0322300Y0125000D01*
X0307900Y0128600D02*
X0307900Y0043000D01*
X0306300Y0041400D01*
X0312700Y0057000D02*
X0312700Y0105800D01*
X0319500Y0099400D02*
X0326300Y0092600D01*
X0326300Y0030200D01*
X0339500Y0048600D02*
X0337900Y0050200D01*
X0337900Y0094600D01*
X0331900Y0091000D02*
X0336300Y0086600D01*
X0367300Y0093200D02*
X0379500Y0105400D01*
X0383900Y0105400D01*
X0381970Y0087796D02*
X0381900Y0087400D01*
X0381900Y0079000D01*
X0371100Y0068200D01*
X0361500Y0131800D02*
X0365500Y0135800D01*
X0365630Y0136097D01*
X0275100Y0137800D02*
X0272300Y0135000D01*
X0241100Y0154600D02*
X0240700Y0155000D01*
X0240700Y0172200D01*
X0185900Y0254600D02*
X0181500Y0259000D01*
X0181300Y0259123D01*
X0198700Y0275800D02*
X0191500Y0283000D01*
X0280300Y0026200D02*
X0286300Y0020200D01*
M02*
