G75*
%MOIN*%
%OFA0B0*%
%FSLAX24Y24*%
%IPPOS*%
%LPD*%
%AMOC8*
5,1,8,0,0,1.08239X$1,22.5*
%
%ADD10C,0.1330*%
%ADD11OC8,0.0600*%
%ADD12OC8,0.0710*%
%ADD13C,0.0710*%
%ADD14C,0.0600*%
%ADD15R,0.0780X0.0780*%
%ADD16C,0.0780*%
%ADD17C,0.1563*%
%ADD18C,0.0640*%
%ADD19C,0.1830*%
%ADD20C,0.1580*%
%ADD21R,0.0540X0.0710*%
%ADD22R,0.0060X0.0720*%
%ADD23OC8,0.0680*%
D10*
X002180Y002234D03*
X002180Y035234D03*
X039180Y035234D03*
X039180Y002234D03*
D11*
X035180Y011734D03*
X035180Y012734D03*
X033680Y022234D03*
X032680Y022234D03*
X025680Y025734D03*
X024680Y025734D03*
X013680Y014234D03*
X012680Y014234D03*
X002180Y021734D03*
X002180Y022734D03*
D12*
X024680Y030734D03*
X031680Y006734D03*
D13*
X031680Y005734D03*
X023680Y030734D03*
D14*
X021440Y030234D02*
X020920Y030234D01*
X020920Y029234D02*
X021440Y029234D01*
X021440Y028234D02*
X020920Y028234D01*
X020920Y027234D02*
X021440Y027234D01*
X021440Y026234D02*
X020920Y026234D01*
X020920Y025234D02*
X021440Y025234D01*
X021440Y024234D02*
X020920Y024234D01*
X022920Y023734D02*
X023440Y023734D01*
X023440Y022734D02*
X022920Y022734D01*
X022920Y021734D02*
X023440Y021734D01*
X023440Y020734D02*
X022920Y020734D01*
X022920Y019734D02*
X023440Y019734D01*
X023440Y018734D02*
X022920Y018734D01*
X022920Y017734D02*
X023440Y017734D01*
X023440Y016734D02*
X022920Y016734D01*
X022920Y015734D02*
X023440Y015734D01*
X025920Y015734D02*
X026440Y015734D01*
X026440Y016734D02*
X025920Y016734D01*
X025920Y017734D02*
X026440Y017734D01*
X026440Y018734D02*
X025920Y018734D01*
X025920Y019734D02*
X026440Y019734D01*
X026440Y020734D02*
X025920Y020734D01*
X025920Y021734D02*
X026440Y021734D01*
X026440Y022734D02*
X025920Y022734D01*
X025920Y023734D02*
X026440Y023734D01*
X026440Y024734D02*
X025920Y024734D01*
X027420Y024734D02*
X027940Y024734D01*
X027940Y025734D02*
X027420Y025734D01*
X027420Y026734D02*
X027940Y026734D01*
X027940Y027734D02*
X027420Y027734D01*
X027420Y028734D02*
X027940Y028734D01*
X027940Y029734D02*
X027420Y029734D01*
X027420Y030734D02*
X027940Y030734D01*
X027940Y031734D02*
X027420Y031734D01*
X030420Y031734D02*
X030940Y031734D01*
X030940Y030734D02*
X030420Y030734D01*
X030420Y029734D02*
X030940Y029734D01*
X030940Y028734D02*
X030420Y028734D01*
X030420Y027734D02*
X030940Y027734D01*
X030940Y026734D02*
X030420Y026734D01*
X030420Y025734D02*
X030940Y025734D01*
X030940Y024734D02*
X030420Y024734D01*
X033920Y027734D02*
X034440Y027734D01*
X035420Y027734D02*
X035940Y027734D01*
X035940Y028734D02*
X035420Y028734D01*
X034440Y028734D02*
X033920Y028734D01*
X033920Y029734D02*
X034440Y029734D01*
X035420Y029734D02*
X035940Y029734D01*
X035940Y030734D02*
X035420Y030734D01*
X034440Y030734D02*
X033920Y030734D01*
X033920Y031734D02*
X034440Y031734D01*
X035420Y031734D02*
X035940Y031734D01*
X038420Y031734D02*
X038940Y031734D01*
X038940Y030734D02*
X038420Y030734D01*
X038420Y029734D02*
X038940Y029734D01*
X038940Y028734D02*
X038420Y028734D01*
X038420Y027734D02*
X038940Y027734D01*
X038940Y026734D02*
X038420Y026734D01*
X038420Y025734D02*
X038940Y025734D01*
X038940Y024734D02*
X038420Y024734D01*
X035940Y024734D02*
X035420Y024734D01*
X035420Y025734D02*
X035940Y025734D01*
X035940Y026734D02*
X035420Y026734D01*
X033940Y021234D02*
X033420Y021234D01*
X033420Y020234D02*
X033940Y020234D01*
X033940Y019234D02*
X033420Y019234D01*
X033420Y018234D02*
X033940Y018234D01*
X033940Y017234D02*
X033420Y017234D01*
X033420Y016234D02*
X033940Y016234D01*
X033940Y015234D02*
X033420Y015234D01*
X033420Y014234D02*
X033940Y014234D01*
X033940Y013234D02*
X033420Y013234D01*
X033420Y012234D02*
X033940Y012234D01*
X035920Y011734D02*
X036440Y011734D01*
X036440Y010734D02*
X035920Y010734D01*
X035920Y009734D02*
X036440Y009734D01*
X036440Y008734D02*
X035920Y008734D01*
X035920Y007734D02*
X036440Y007734D01*
X038920Y007734D02*
X039440Y007734D01*
X039440Y008734D02*
X038920Y008734D01*
X038920Y009734D02*
X039440Y009734D01*
X039440Y010734D02*
X038920Y010734D01*
X038920Y011734D02*
X039440Y011734D01*
X039440Y012734D02*
X038920Y012734D01*
X038920Y013734D02*
X039440Y013734D01*
X039440Y014734D02*
X038920Y014734D01*
X038920Y015734D02*
X039440Y015734D01*
X039440Y016734D02*
X038920Y016734D01*
X038920Y017734D02*
X039440Y017734D01*
X039440Y018734D02*
X038920Y018734D01*
X038920Y019734D02*
X039440Y019734D01*
X039440Y020734D02*
X038920Y020734D01*
X036440Y020734D02*
X035920Y020734D01*
X035920Y019734D02*
X036440Y019734D01*
X036440Y018734D02*
X035920Y018734D01*
X035920Y017734D02*
X036440Y017734D01*
X036440Y016734D02*
X035920Y016734D01*
X035920Y015734D02*
X036440Y015734D01*
X036440Y014734D02*
X035920Y014734D01*
X035920Y013734D02*
X036440Y013734D01*
X036440Y012734D02*
X035920Y012734D01*
X030940Y012234D02*
X030420Y012234D01*
X030420Y013234D02*
X030940Y013234D01*
X030940Y014234D02*
X030420Y014234D01*
X030420Y015234D02*
X030940Y015234D01*
X030940Y016234D02*
X030420Y016234D01*
X030420Y017234D02*
X030940Y017234D01*
X030940Y018234D02*
X030420Y018234D01*
X030420Y019234D02*
X030940Y019234D01*
X030940Y020234D02*
X030420Y020234D01*
X030420Y021234D02*
X030940Y021234D01*
X023440Y024734D02*
X022920Y024734D01*
X018440Y024234D02*
X017920Y024234D01*
X017920Y025234D02*
X018440Y025234D01*
X018440Y026234D02*
X017920Y026234D01*
X017920Y027234D02*
X018440Y027234D01*
X018440Y028234D02*
X017920Y028234D01*
X017920Y029234D02*
X018440Y029234D01*
X018440Y030234D02*
X017920Y030234D01*
X017920Y031234D02*
X018440Y031234D01*
X016440Y031234D02*
X015920Y031234D01*
X015920Y030234D02*
X016440Y030234D01*
X016440Y029234D02*
X015920Y029234D01*
X015920Y028234D02*
X016440Y028234D01*
X016440Y027234D02*
X015920Y027234D01*
X015920Y026234D02*
X016440Y026234D01*
X016440Y025234D02*
X015920Y025234D01*
X015920Y024234D02*
X016440Y024234D01*
X013440Y024234D02*
X012920Y024234D01*
X012920Y025234D02*
X013440Y025234D01*
X013440Y026234D02*
X012920Y026234D01*
X012920Y027234D02*
X013440Y027234D01*
X013440Y028234D02*
X012920Y028234D01*
X012920Y029234D02*
X013440Y029234D01*
X013440Y030234D02*
X012920Y030234D01*
X012920Y031234D02*
X013440Y031234D01*
X010940Y030734D02*
X010420Y030734D01*
X010420Y031734D02*
X010940Y031734D01*
X010940Y029734D02*
X010420Y029734D01*
X010420Y028734D02*
X010940Y028734D01*
X010940Y027734D02*
X010420Y027734D01*
X010420Y026734D02*
X010940Y026734D01*
X010940Y025734D02*
X010420Y025734D01*
X010420Y024734D02*
X010940Y024734D01*
X011180Y022994D02*
X011180Y022474D01*
X012180Y022474D02*
X012180Y022994D01*
X010180Y022994D02*
X010180Y022474D01*
X009180Y022474D02*
X009180Y022994D01*
X008180Y022994D02*
X008180Y022474D01*
X007180Y022474D02*
X007180Y022994D01*
X006180Y022994D02*
X006180Y022474D01*
X005180Y022474D02*
X005180Y022994D01*
X004180Y022994D02*
X004180Y022474D01*
X003180Y022474D02*
X003180Y022994D01*
X002940Y024734D02*
X002420Y024734D01*
X002420Y025734D02*
X002940Y025734D01*
X002940Y026734D02*
X002420Y026734D01*
X002420Y027734D02*
X002940Y027734D01*
X002940Y028734D02*
X002420Y028734D01*
X002420Y029734D02*
X002940Y029734D01*
X002940Y030734D02*
X002420Y030734D01*
X002420Y031734D02*
X002940Y031734D01*
X005420Y031734D02*
X005940Y031734D01*
X005940Y030734D02*
X005420Y030734D01*
X005420Y029734D02*
X005940Y029734D01*
X005940Y028734D02*
X005420Y028734D01*
X005420Y027734D02*
X005940Y027734D01*
X005940Y026734D02*
X005420Y026734D01*
X005420Y025734D02*
X005940Y025734D01*
X005940Y024734D02*
X005420Y024734D01*
X007420Y024734D02*
X007940Y024734D01*
X007940Y025734D02*
X007420Y025734D01*
X007420Y026734D02*
X007940Y026734D01*
X007940Y027734D02*
X007420Y027734D01*
X007420Y028734D02*
X007940Y028734D01*
X007940Y029734D02*
X007420Y029734D01*
X007420Y030734D02*
X007940Y030734D01*
X007940Y031734D02*
X007420Y031734D01*
X007180Y019994D02*
X007180Y019474D01*
X006180Y019474D02*
X006180Y019994D01*
X005180Y019994D02*
X005180Y019474D01*
X004180Y019474D02*
X004180Y019994D01*
X003180Y019994D02*
X003180Y019474D01*
X004680Y018494D02*
X004680Y017974D01*
X005680Y017974D02*
X005680Y018494D01*
X006680Y018494D02*
X006680Y017974D01*
X007680Y017974D02*
X007680Y018494D01*
X008180Y019474D02*
X008180Y019994D01*
X009180Y019994D02*
X009180Y019474D01*
X010180Y019474D02*
X010180Y019994D01*
X011180Y019994D02*
X011180Y019474D01*
X012180Y019474D02*
X012180Y019994D01*
X011680Y018494D02*
X011680Y017974D01*
X010680Y017974D02*
X010680Y018494D01*
X009680Y018494D02*
X009680Y017974D01*
X008680Y017974D02*
X008680Y018494D01*
X008680Y015494D02*
X008680Y014974D01*
X009680Y014974D02*
X009680Y015494D01*
X010680Y015494D02*
X010680Y014974D01*
X011680Y014974D02*
X011680Y015494D01*
X012680Y015494D02*
X012680Y014974D01*
X013680Y014974D02*
X013680Y015494D01*
X014680Y015494D02*
X014680Y014974D01*
X015680Y014974D02*
X015680Y015494D01*
X016680Y015494D02*
X016680Y014974D01*
X017680Y014974D02*
X017680Y015494D01*
X017680Y017974D02*
X017680Y018494D01*
X016680Y018494D02*
X016680Y017974D01*
X015680Y017974D02*
X015680Y018494D01*
X014680Y018494D02*
X014680Y017974D01*
X013680Y017974D02*
X013680Y018494D01*
X012680Y018494D02*
X012680Y017974D01*
X007680Y015494D02*
X007680Y014974D01*
X006680Y014974D02*
X006680Y015494D01*
X005680Y015494D02*
X005680Y014974D01*
X004680Y014974D02*
X004680Y015494D01*
X020920Y031234D02*
X021440Y031234D01*
D15*
X026180Y011762D03*
D16*
X025180Y011762D03*
X024180Y011762D03*
X023180Y011762D03*
X022180Y011762D03*
X021180Y011762D03*
X020180Y011762D03*
X019180Y011762D03*
X018180Y011762D03*
X017180Y011762D03*
X016180Y011762D03*
X015180Y011762D03*
X014180Y011762D03*
X013180Y011762D03*
X012180Y011762D03*
X011180Y011762D03*
X010180Y011762D03*
X009180Y011762D03*
X008180Y011762D03*
X007180Y011762D03*
X007180Y012762D03*
X008180Y012762D03*
X009180Y012762D03*
X010180Y012762D03*
X011180Y012762D03*
X012180Y012762D03*
X013180Y012762D03*
X014180Y012762D03*
X015180Y012762D03*
X016180Y012762D03*
X017180Y012762D03*
X018180Y012762D03*
X019180Y012762D03*
X020180Y012762D03*
X021180Y012762D03*
X022180Y012762D03*
X023180Y012762D03*
X024180Y012762D03*
X025180Y012762D03*
X026180Y012762D03*
D17*
X028097Y012262D03*
X028097Y003207D03*
X005263Y003207D03*
X005263Y012262D03*
D18*
X031400Y003734D02*
X031960Y003734D01*
X031960Y002734D02*
X031400Y002734D01*
X032400Y026734D02*
X032960Y026734D01*
X032960Y027734D02*
X032400Y027734D01*
X032400Y029734D02*
X032960Y029734D01*
X032960Y030734D02*
X032400Y030734D01*
X032400Y031734D02*
X032960Y031734D01*
D19*
X035680Y005455D03*
D20*
X037570Y004234D03*
X035680Y003053D03*
D21*
X029480Y015234D03*
X028880Y015234D03*
X028880Y016234D03*
X029480Y016234D03*
X029480Y017234D03*
X028880Y017234D03*
X028880Y018234D03*
X029480Y018234D03*
D22*
X029180Y018234D03*
X029180Y017234D03*
X029180Y016234D03*
X029180Y015234D03*
D23*
X029180Y033734D03*
X030180Y033734D03*
X031180Y033734D03*
X032180Y033734D03*
X033180Y033734D03*
X034180Y033734D03*
X035180Y033734D03*
X036180Y033734D03*
X037180Y033734D03*
X037180Y034734D03*
X036180Y034734D03*
X035180Y034734D03*
X034180Y034734D03*
X033180Y034734D03*
X032180Y034734D03*
X031180Y034734D03*
X030180Y034734D03*
X029180Y034734D03*
X028180Y034734D03*
X027180Y034734D03*
X026180Y034734D03*
X026180Y033734D03*
X027180Y033734D03*
X028180Y033734D03*
X025180Y033734D03*
X024180Y033734D03*
X023180Y033734D03*
X022180Y033734D03*
X021180Y033734D03*
X020180Y033734D03*
X019180Y033734D03*
X018180Y033734D03*
X017180Y033734D03*
X016180Y033734D03*
X015180Y033734D03*
X014180Y033734D03*
X013180Y033734D03*
X012180Y033734D03*
X011180Y033734D03*
X010180Y033734D03*
X009180Y033734D03*
X008180Y033734D03*
X007180Y033734D03*
X006180Y033734D03*
X005180Y033734D03*
X004180Y033734D03*
X004180Y034734D03*
X005180Y034734D03*
X006180Y034734D03*
X007180Y034734D03*
X008180Y034734D03*
X009180Y034734D03*
X010180Y034734D03*
X011180Y034734D03*
X012180Y034734D03*
X013180Y034734D03*
X014180Y034734D03*
X015180Y034734D03*
X016180Y034734D03*
X017180Y034734D03*
X018180Y034734D03*
X019180Y034734D03*
X020180Y034734D03*
X021180Y034734D03*
X022180Y034734D03*
X023180Y034734D03*
X024180Y034734D03*
X025180Y034734D03*
M02*
