G75*
%MOIN*%
%OFA0B0*%
%FSLAX24Y24*%
%IPPOS*%
%LPD*%
%AMOC8*
5,1,8,0,0,1.08239X$1,22.5*
%
%ADD10OC8,0.0520*%
%ADD11OC8,0.0630*%
%ADD12C,0.0630*%
%ADD13C,0.0520*%
%ADD14R,0.0700X0.0700*%
%ADD15C,0.0700*%
%ADD16C,0.1483*%
%ADD17C,0.0560*%
%ADD18C,0.1750*%
%ADD19C,0.1500*%
%ADD20OC8,0.0600*%
%ADD21C,0.0180*%
%ADD22C,0.0400*%
%ADD23C,0.0160*%
%ADD24C,0.0100*%
D10*
X012680Y014234D03*
X013680Y014234D03*
X002180Y021734D03*
X002180Y022734D03*
X024680Y025734D03*
X025680Y025734D03*
X032680Y022234D03*
X033680Y022234D03*
X035180Y012734D03*
X035180Y011734D03*
D11*
X031680Y006734D03*
X024680Y030734D03*
D12*
X023680Y030734D03*
X031680Y005734D03*
D13*
X035920Y007734D02*
X036440Y007734D01*
X036440Y008734D02*
X035920Y008734D01*
X035920Y009734D02*
X036440Y009734D01*
X036440Y010734D02*
X035920Y010734D01*
X035920Y011734D02*
X036440Y011734D01*
X036440Y012734D02*
X035920Y012734D01*
X035920Y013734D02*
X036440Y013734D01*
X036440Y014734D02*
X035920Y014734D01*
X035920Y015734D02*
X036440Y015734D01*
X036440Y016734D02*
X035920Y016734D01*
X035920Y017734D02*
X036440Y017734D01*
X036440Y018734D02*
X035920Y018734D01*
X035920Y019734D02*
X036440Y019734D01*
X036440Y020734D02*
X035920Y020734D01*
X033940Y020234D02*
X033420Y020234D01*
X033420Y019234D02*
X033940Y019234D01*
X033940Y018234D02*
X033420Y018234D01*
X033420Y017234D02*
X033940Y017234D01*
X033940Y016234D02*
X033420Y016234D01*
X033420Y015234D02*
X033940Y015234D01*
X033940Y014234D02*
X033420Y014234D01*
X033420Y013234D02*
X033940Y013234D01*
X033940Y012234D02*
X033420Y012234D01*
X030940Y012234D02*
X030420Y012234D01*
X030420Y013234D02*
X030940Y013234D01*
X030940Y014234D02*
X030420Y014234D01*
X030420Y015234D02*
X030940Y015234D01*
X030940Y016234D02*
X030420Y016234D01*
X030420Y017234D02*
X030940Y017234D01*
X030940Y018234D02*
X030420Y018234D01*
X030420Y019234D02*
X030940Y019234D01*
X030940Y020234D02*
X030420Y020234D01*
X030420Y021234D02*
X030940Y021234D01*
X033420Y021234D02*
X033940Y021234D01*
X035420Y024734D02*
X035940Y024734D01*
X035940Y025734D02*
X035420Y025734D01*
X035420Y026734D02*
X035940Y026734D01*
X035940Y027734D02*
X035420Y027734D01*
X034440Y027734D02*
X033920Y027734D01*
X033920Y028734D02*
X034440Y028734D01*
X035420Y028734D02*
X035940Y028734D01*
X035940Y029734D02*
X035420Y029734D01*
X034440Y029734D02*
X033920Y029734D01*
X033920Y030734D02*
X034440Y030734D01*
X035420Y030734D02*
X035940Y030734D01*
X035940Y031734D02*
X035420Y031734D01*
X034440Y031734D02*
X033920Y031734D01*
X030940Y031734D02*
X030420Y031734D01*
X030420Y030734D02*
X030940Y030734D01*
X030940Y029734D02*
X030420Y029734D01*
X030420Y028734D02*
X030940Y028734D01*
X030940Y027734D02*
X030420Y027734D01*
X030420Y026734D02*
X030940Y026734D01*
X030940Y025734D02*
X030420Y025734D01*
X030420Y024734D02*
X030940Y024734D01*
X027940Y024734D02*
X027420Y024734D01*
X027420Y025734D02*
X027940Y025734D01*
X027940Y026734D02*
X027420Y026734D01*
X027420Y027734D02*
X027940Y027734D01*
X027940Y028734D02*
X027420Y028734D01*
X027420Y029734D02*
X027940Y029734D01*
X027940Y030734D02*
X027420Y030734D01*
X027420Y031734D02*
X027940Y031734D01*
X021440Y031234D02*
X020920Y031234D01*
X020920Y030234D02*
X021440Y030234D01*
X021440Y029234D02*
X020920Y029234D01*
X020920Y028234D02*
X021440Y028234D01*
X021440Y027234D02*
X020920Y027234D01*
X020920Y026234D02*
X021440Y026234D01*
X021440Y025234D02*
X020920Y025234D01*
X020920Y024234D02*
X021440Y024234D01*
X022920Y023734D02*
X023440Y023734D01*
X023440Y022734D02*
X022920Y022734D01*
X022920Y021734D02*
X023440Y021734D01*
X023440Y020734D02*
X022920Y020734D01*
X022920Y019734D02*
X023440Y019734D01*
X023440Y018734D02*
X022920Y018734D01*
X022920Y017734D02*
X023440Y017734D01*
X023440Y016734D02*
X022920Y016734D01*
X022920Y015734D02*
X023440Y015734D01*
X025920Y015734D02*
X026440Y015734D01*
X026440Y016734D02*
X025920Y016734D01*
X025920Y017734D02*
X026440Y017734D01*
X026440Y018734D02*
X025920Y018734D01*
X025920Y019734D02*
X026440Y019734D01*
X026440Y020734D02*
X025920Y020734D01*
X025920Y021734D02*
X026440Y021734D01*
X026440Y022734D02*
X025920Y022734D01*
X025920Y023734D02*
X026440Y023734D01*
X026440Y024734D02*
X025920Y024734D01*
X023440Y024734D02*
X022920Y024734D01*
X018440Y024234D02*
X017920Y024234D01*
X017920Y025234D02*
X018440Y025234D01*
X018440Y026234D02*
X017920Y026234D01*
X017920Y027234D02*
X018440Y027234D01*
X018440Y028234D02*
X017920Y028234D01*
X017920Y029234D02*
X018440Y029234D01*
X018440Y030234D02*
X017920Y030234D01*
X017920Y031234D02*
X018440Y031234D01*
X016440Y031234D02*
X015920Y031234D01*
X015920Y030234D02*
X016440Y030234D01*
X016440Y029234D02*
X015920Y029234D01*
X015920Y028234D02*
X016440Y028234D01*
X016440Y027234D02*
X015920Y027234D01*
X015920Y026234D02*
X016440Y026234D01*
X016440Y025234D02*
X015920Y025234D01*
X015920Y024234D02*
X016440Y024234D01*
X013440Y024234D02*
X012920Y024234D01*
X012920Y025234D02*
X013440Y025234D01*
X013440Y026234D02*
X012920Y026234D01*
X012920Y027234D02*
X013440Y027234D01*
X013440Y028234D02*
X012920Y028234D01*
X012920Y029234D02*
X013440Y029234D01*
X013440Y030234D02*
X012920Y030234D01*
X012920Y031234D02*
X013440Y031234D01*
X010940Y030734D02*
X010420Y030734D01*
X010420Y031734D02*
X010940Y031734D01*
X010940Y029734D02*
X010420Y029734D01*
X010420Y028734D02*
X010940Y028734D01*
X010940Y027734D02*
X010420Y027734D01*
X010420Y026734D02*
X010940Y026734D01*
X010940Y025734D02*
X010420Y025734D01*
X010420Y024734D02*
X010940Y024734D01*
X011180Y022994D02*
X011180Y022474D01*
X012180Y022474D02*
X012180Y022994D01*
X010180Y022994D02*
X010180Y022474D01*
X009180Y022474D02*
X009180Y022994D01*
X008180Y022994D02*
X008180Y022474D01*
X007180Y022474D02*
X007180Y022994D01*
X006180Y022994D02*
X006180Y022474D01*
X005180Y022474D02*
X005180Y022994D01*
X004180Y022994D02*
X004180Y022474D01*
X003180Y022474D02*
X003180Y022994D01*
X002940Y024734D02*
X002420Y024734D01*
X002420Y025734D02*
X002940Y025734D01*
X002940Y026734D02*
X002420Y026734D01*
X002420Y027734D02*
X002940Y027734D01*
X002940Y028734D02*
X002420Y028734D01*
X002420Y029734D02*
X002940Y029734D01*
X002940Y030734D02*
X002420Y030734D01*
X002420Y031734D02*
X002940Y031734D01*
X005420Y031734D02*
X005940Y031734D01*
X005940Y030734D02*
X005420Y030734D01*
X005420Y029734D02*
X005940Y029734D01*
X005940Y028734D02*
X005420Y028734D01*
X005420Y027734D02*
X005940Y027734D01*
X005940Y026734D02*
X005420Y026734D01*
X005420Y025734D02*
X005940Y025734D01*
X005940Y024734D02*
X005420Y024734D01*
X007420Y024734D02*
X007940Y024734D01*
X007940Y025734D02*
X007420Y025734D01*
X007420Y026734D02*
X007940Y026734D01*
X007940Y027734D02*
X007420Y027734D01*
X007420Y028734D02*
X007940Y028734D01*
X007940Y029734D02*
X007420Y029734D01*
X007420Y030734D02*
X007940Y030734D01*
X007940Y031734D02*
X007420Y031734D01*
X007180Y019994D02*
X007180Y019474D01*
X006180Y019474D02*
X006180Y019994D01*
X005180Y019994D02*
X005180Y019474D01*
X004180Y019474D02*
X004180Y019994D01*
X003180Y019994D02*
X003180Y019474D01*
X004680Y018494D02*
X004680Y017974D01*
X005680Y017974D02*
X005680Y018494D01*
X006680Y018494D02*
X006680Y017974D01*
X007680Y017974D02*
X007680Y018494D01*
X008180Y019474D02*
X008180Y019994D01*
X009180Y019994D02*
X009180Y019474D01*
X010180Y019474D02*
X010180Y019994D01*
X011180Y019994D02*
X011180Y019474D01*
X012180Y019474D02*
X012180Y019994D01*
X011680Y018494D02*
X011680Y017974D01*
X010680Y017974D02*
X010680Y018494D01*
X009680Y018494D02*
X009680Y017974D01*
X008680Y017974D02*
X008680Y018494D01*
X008680Y015494D02*
X008680Y014974D01*
X009680Y014974D02*
X009680Y015494D01*
X010680Y015494D02*
X010680Y014974D01*
X011680Y014974D02*
X011680Y015494D01*
X012680Y015494D02*
X012680Y014974D01*
X013680Y014974D02*
X013680Y015494D01*
X014680Y015494D02*
X014680Y014974D01*
X015680Y014974D02*
X015680Y015494D01*
X016680Y015494D02*
X016680Y014974D01*
X017680Y014974D02*
X017680Y015494D01*
X017680Y017974D02*
X017680Y018494D01*
X016680Y018494D02*
X016680Y017974D01*
X015680Y017974D02*
X015680Y018494D01*
X014680Y018494D02*
X014680Y017974D01*
X013680Y017974D02*
X013680Y018494D01*
X012680Y018494D02*
X012680Y017974D01*
X007680Y015494D02*
X007680Y014974D01*
X006680Y014974D02*
X006680Y015494D01*
X005680Y015494D02*
X005680Y014974D01*
X004680Y014974D02*
X004680Y015494D01*
X038420Y024734D02*
X038940Y024734D01*
X038940Y025734D02*
X038420Y025734D01*
X038420Y026734D02*
X038940Y026734D01*
X038940Y027734D02*
X038420Y027734D01*
X038420Y028734D02*
X038940Y028734D01*
X038940Y029734D02*
X038420Y029734D01*
X038420Y030734D02*
X038940Y030734D01*
X038940Y031734D02*
X038420Y031734D01*
X038920Y020734D02*
X039440Y020734D01*
X039440Y019734D02*
X038920Y019734D01*
X038920Y018734D02*
X039440Y018734D01*
X039440Y017734D02*
X038920Y017734D01*
X038920Y016734D02*
X039440Y016734D01*
X039440Y015734D02*
X038920Y015734D01*
X038920Y014734D02*
X039440Y014734D01*
X039440Y013734D02*
X038920Y013734D01*
X038920Y012734D02*
X039440Y012734D01*
X039440Y011734D02*
X038920Y011734D01*
X038920Y010734D02*
X039440Y010734D01*
X039440Y009734D02*
X038920Y009734D01*
X038920Y008734D02*
X039440Y008734D01*
X039440Y007734D02*
X038920Y007734D01*
D14*
X026180Y011762D03*
D15*
X025180Y011762D03*
X024180Y011762D03*
X023180Y011762D03*
X022180Y011762D03*
X021180Y011762D03*
X020180Y011762D03*
X019180Y011762D03*
X018180Y011762D03*
X017180Y011762D03*
X016180Y011762D03*
X015180Y011762D03*
X014180Y011762D03*
X013180Y011762D03*
X012180Y011762D03*
X011180Y011762D03*
X010180Y011762D03*
X009180Y011762D03*
X008180Y011762D03*
X007180Y011762D03*
X007180Y012762D03*
X008180Y012762D03*
X009180Y012762D03*
X010180Y012762D03*
X011180Y012762D03*
X012180Y012762D03*
X013180Y012762D03*
X014180Y012762D03*
X015180Y012762D03*
X016180Y012762D03*
X017180Y012762D03*
X018180Y012762D03*
X019180Y012762D03*
X020180Y012762D03*
X021180Y012762D03*
X022180Y012762D03*
X023180Y012762D03*
X024180Y012762D03*
X025180Y012762D03*
X026180Y012762D03*
D16*
X028097Y012262D03*
X028097Y003207D03*
X005263Y003207D03*
X005263Y012262D03*
D17*
X031400Y003734D02*
X031960Y003734D01*
X031960Y002734D02*
X031400Y002734D01*
X032400Y026734D02*
X032960Y026734D01*
X032960Y027734D02*
X032400Y027734D01*
X032400Y029734D02*
X032960Y029734D01*
X032960Y030734D02*
X032400Y030734D01*
X032400Y031734D02*
X032960Y031734D01*
D18*
X035680Y005455D03*
D19*
X037570Y004234D03*
X035680Y003053D03*
D20*
X035180Y033734D03*
X036180Y033734D03*
X037180Y033734D03*
X037180Y034734D03*
X036180Y034734D03*
X035180Y034734D03*
X034180Y034734D03*
X033180Y034734D03*
X033180Y033734D03*
X034180Y033734D03*
X032180Y033734D03*
X031180Y033734D03*
X030180Y033734D03*
X029180Y033734D03*
X028180Y033734D03*
X027180Y033734D03*
X026180Y033734D03*
X025180Y033734D03*
X024180Y033734D03*
X023180Y033734D03*
X022180Y033734D03*
X021180Y033734D03*
X020180Y033734D03*
X019180Y033734D03*
X018180Y033734D03*
X017180Y033734D03*
X016180Y033734D03*
X015180Y033734D03*
X014180Y033734D03*
X013180Y033734D03*
X012180Y033734D03*
X011180Y033734D03*
X010180Y033734D03*
X009180Y033734D03*
X008180Y033734D03*
X007180Y033734D03*
X006180Y033734D03*
X005180Y033734D03*
X004180Y033734D03*
X004180Y034734D03*
X005180Y034734D03*
X006180Y034734D03*
X007180Y034734D03*
X008180Y034734D03*
X009180Y034734D03*
X010180Y034734D03*
X011180Y034734D03*
X012180Y034734D03*
X013180Y034734D03*
X014180Y034734D03*
X015180Y034734D03*
X016180Y034734D03*
X017180Y034734D03*
X018180Y034734D03*
X019180Y034734D03*
X020180Y034734D03*
X021180Y034734D03*
X022180Y034734D03*
X023180Y034734D03*
X024180Y034734D03*
X025180Y034734D03*
X026180Y034734D03*
X027180Y034734D03*
X028180Y034734D03*
X029180Y034734D03*
X030180Y034734D03*
X031180Y034734D03*
X032180Y034734D03*
D21*
X032140Y034774D01*
X031825Y034774D01*
X031375Y035224D01*
X030745Y035224D01*
X030700Y035179D01*
X030430Y035179D01*
X030205Y035404D01*
X025840Y035404D01*
X025210Y034774D01*
X025180Y034734D01*
X023680Y030734D02*
X023680Y030724D01*
X025120Y029284D01*
X029440Y029284D01*
X029440Y024334D01*
X031555Y022219D01*
X031555Y020014D01*
X032815Y018754D01*
X031375Y018439D02*
X031375Y017629D01*
X033220Y015784D01*
X034030Y015784D01*
X034390Y015424D01*
X034390Y014074D01*
X033715Y013399D01*
X033715Y013309D01*
X033680Y013234D01*
X033670Y013129D01*
X033670Y012274D01*
X033680Y012234D01*
X033670Y013219D02*
X032995Y013219D01*
X032050Y012274D01*
X030700Y012274D01*
X030680Y012234D01*
X032455Y010789D02*
X032455Y010069D01*
X032185Y009799D01*
X027910Y009799D01*
X031680Y006734D02*
X031690Y006739D01*
X031780Y006739D01*
X033310Y008269D01*
X037720Y008269D01*
X039160Y009709D01*
X039180Y009734D01*
X039180Y008734D02*
X039160Y008719D01*
X037720Y007279D01*
X036010Y007279D01*
X032500Y003769D01*
X031690Y003769D01*
X031680Y003734D01*
X026110Y004264D02*
X026065Y004219D01*
X010315Y004219D01*
X002350Y012184D01*
X002350Y020059D01*
X003160Y020869D01*
X003160Y022714D01*
X003180Y022734D01*
X002170Y022129D02*
X001720Y022579D01*
X001720Y033199D01*
X004375Y035854D01*
X010810Y035854D01*
X011215Y035449D01*
X010810Y035044D01*
X010540Y035044D01*
X010360Y035224D01*
X005005Y035224D01*
X004555Y034774D01*
X004195Y034774D01*
X004180Y034734D01*
X011215Y035449D02*
X011350Y035584D01*
X011890Y035584D01*
X024085Y024739D02*
X024085Y020734D01*
X023635Y020284D01*
X022825Y020284D01*
X021385Y018844D01*
X020710Y018844D01*
X020260Y019294D01*
X017875Y019294D01*
X017200Y018619D01*
X017560Y018259D01*
X017650Y018259D01*
X017680Y018234D01*
X017200Y018619D02*
X016750Y019069D01*
X015625Y019069D01*
X015715Y018259D02*
X015680Y018234D01*
X015625Y018169D01*
X015625Y017899D01*
X013690Y015964D01*
X013690Y015244D01*
X013680Y015234D01*
X012700Y015244D02*
X012680Y015234D01*
X012700Y015244D02*
X012700Y015604D01*
X014680Y017584D01*
X014680Y018234D01*
X015715Y018259D02*
X016660Y018259D01*
X016680Y018234D01*
X016750Y018214D01*
X017425Y017539D01*
X018415Y017539D01*
X018595Y017719D01*
X020530Y017719D01*
X023180Y015734D02*
X023185Y015739D01*
X023320Y015739D01*
X024198Y016617D01*
X024625Y016189D01*
X024198Y016617D02*
X025480Y017899D01*
X025480Y017944D01*
X025840Y018304D01*
X028675Y018304D01*
X029665Y019294D01*
X030160Y018799D01*
X031015Y018799D01*
X031375Y018439D01*
X029980Y019609D02*
X029980Y020554D01*
X030655Y021229D01*
X030680Y021234D01*
X030430Y021094D01*
X026875Y024649D01*
X026875Y024919D01*
X026515Y025279D01*
X025165Y025279D01*
X024715Y025729D01*
X024680Y025734D01*
X029440Y029284D02*
X034615Y029284D01*
X034885Y029554D01*
X034885Y029824D01*
X035245Y030184D01*
X036010Y030184D01*
X036370Y030544D01*
X036370Y030949D01*
X036145Y031174D01*
X035335Y031174D01*
X034795Y031714D01*
X034210Y031714D01*
X034180Y031734D01*
X029980Y019609D02*
X029665Y019294D01*
X033680Y013234D02*
X033670Y013219D01*
X020980Y010384D02*
X016525Y010384D01*
X015715Y011194D01*
X014995Y011194D01*
X014455Y011734D01*
X014185Y011734D01*
X014180Y011762D01*
X013060Y019744D02*
X012205Y019744D01*
X012180Y019734D01*
X013060Y019744D02*
X013960Y020644D01*
X015040Y020644D01*
X002180Y021734D02*
X002170Y021769D01*
X002170Y022129D01*
D22*
X002755Y021004D03*
X003430Y023704D03*
X004240Y025189D03*
X005725Y023974D03*
X008155Y021544D03*
X008335Y021049D03*
X009325Y021904D03*
X009595Y023614D03*
X011395Y023524D03*
X011890Y024649D03*
X012340Y026764D03*
X012340Y027349D03*
X012340Y028744D03*
X009865Y027079D03*
X009865Y026584D03*
X009100Y028834D03*
X009460Y030904D03*
X006490Y030769D03*
X006490Y029959D03*
X004645Y028474D03*
X010675Y035449D03*
X011890Y035584D03*
X014815Y034234D03*
X019045Y032254D03*
X019945Y031399D03*
X019000Y028069D03*
X019135Y025369D03*
X017785Y023479D03*
X019405Y022219D03*
X019045Y021589D03*
X020440Y021499D03*
X020755Y022579D03*
X019945Y022939D03*
X022195Y022219D03*
X022375Y022714D03*
X022240Y023704D03*
X024085Y024739D03*
X025525Y024334D03*
X027955Y020779D03*
X028675Y018844D03*
X029980Y017719D03*
X028315Y016549D03*
X026875Y016099D03*
X025525Y015334D03*
X024670Y015469D03*
X024625Y016189D03*
X023860Y017359D03*
X022285Y017134D03*
X021745Y016594D03*
X021250Y016639D03*
X020485Y015874D03*
X020080Y015514D03*
X019270Y015694D03*
X019090Y016369D03*
X018730Y017314D03*
X017695Y017089D03*
X017200Y017134D03*
X016525Y016459D03*
X017155Y014434D03*
X016255Y014389D03*
X015715Y013939D03*
X014815Y013534D03*
X014140Y013894D03*
X012205Y013624D03*
X010765Y013264D03*
X010225Y014344D03*
X007930Y013984D03*
X005455Y013534D03*
X003655Y011734D03*
X002755Y012904D03*
X005905Y016009D03*
X006490Y016279D03*
X006085Y017179D03*
X008650Y017269D03*
X009370Y017089D03*
X011080Y017584D03*
X011890Y017449D03*
X012835Y017359D03*
X012835Y016819D03*
X015625Y019069D03*
X014500Y019654D03*
X014095Y020239D03*
X015040Y020644D03*
X014860Y021139D03*
X014140Y021589D03*
X015040Y023074D03*
X015715Y022714D03*
X017425Y019384D03*
X018055Y018889D03*
X018370Y018259D03*
X020035Y017314D03*
X020530Y017719D03*
X020845Y019249D03*
X022105Y017989D03*
X022375Y015784D03*
X023635Y014074D03*
X024625Y014209D03*
X022150Y013444D03*
X019810Y014749D03*
X019315Y014749D03*
X018820Y014749D03*
X021835Y010879D03*
X020980Y010384D03*
X023050Y008404D03*
X023410Y008044D03*
X023050Y007324D03*
X024220Y008809D03*
X023860Y009484D03*
X025165Y008359D03*
X025570Y007954D03*
X025795Y008989D03*
X025750Y009484D03*
X026470Y010204D03*
X027910Y009799D03*
X027370Y011509D03*
X027685Y013264D03*
X030025Y014839D03*
X032995Y012679D03*
X032455Y010789D03*
X032050Y010204D03*
X031240Y010654D03*
X032815Y009349D03*
X033175Y009709D03*
X033400Y010339D03*
X032770Y008809D03*
X032770Y007189D03*
X032410Y005794D03*
X028180Y005344D03*
X027415Y006874D03*
X026110Y004264D03*
X017245Y009124D03*
X016165Y009664D03*
X015445Y009799D03*
X014860Y009079D03*
X014005Y009439D03*
X014590Y010159D03*
X014950Y010789D03*
X013645Y010429D03*
X012925Y011149D03*
X012115Y010384D03*
X010495Y009439D03*
X010720Y008539D03*
X011440Y008539D03*
X011440Y008044D03*
X011935Y008044D03*
X010405Y006964D03*
X009910Y006964D03*
X010630Y006244D03*
X012745Y004624D03*
X009460Y008899D03*
X008605Y009259D03*
X007615Y007729D03*
X007030Y021364D03*
X015355Y027214D03*
X015490Y027844D03*
X025525Y019339D03*
X032185Y022669D03*
X032815Y021274D03*
X032860Y020239D03*
X032860Y019249D03*
X032815Y018754D03*
X034480Y017269D03*
X036865Y019384D03*
X038170Y020059D03*
X038755Y021274D03*
X038080Y022444D03*
X038080Y022984D03*
X038485Y024154D03*
X037630Y024649D03*
X036865Y024874D03*
X036235Y024244D03*
X035605Y023884D03*
X036415Y023074D03*
X036865Y023884D03*
X035020Y022174D03*
X034705Y021274D03*
X036415Y021319D03*
X034705Y023524D03*
X032320Y025054D03*
X031960Y025414D03*
X033040Y025864D03*
X033535Y025684D03*
X034840Y025684D03*
X031870Y028879D03*
X030025Y026134D03*
X026560Y031849D03*
X030250Y032524D03*
X030565Y035584D03*
X039745Y029509D03*
X039385Y025414D03*
X037630Y017854D03*
X037270Y015829D03*
X038215Y015379D03*
X038530Y011239D03*
X035290Y010339D03*
D23*
X002947Y001722D02*
X002740Y001514D01*
X038620Y001514D01*
X038413Y001722D01*
X038275Y002054D01*
X038275Y002415D01*
X038413Y002747D01*
X038667Y003002D01*
X039000Y003139D01*
X039360Y003139D01*
X039693Y003002D01*
X039900Y002794D01*
X039900Y007318D01*
X037727Y005144D01*
X037751Y005144D01*
X038085Y005006D01*
X038341Y004750D01*
X038480Y004415D01*
X038480Y004053D01*
X038341Y003719D01*
X038085Y003463D01*
X037751Y003324D01*
X037389Y003324D01*
X037054Y003463D01*
X036798Y003719D01*
X036660Y004053D01*
X036660Y004415D01*
X036798Y004750D01*
X036958Y004909D01*
X036862Y004909D01*
X035908Y003955D01*
X035938Y003948D01*
X036036Y003914D01*
X036131Y003869D01*
X036219Y003813D01*
X036301Y003748D01*
X036375Y003674D01*
X036440Y003592D01*
X036495Y003504D01*
X036541Y003410D01*
X036575Y003311D01*
X036598Y003209D01*
X036607Y003133D01*
X035760Y003133D01*
X035760Y002973D01*
X035760Y002127D01*
X035836Y002135D01*
X035938Y002158D01*
X036036Y002193D01*
X036131Y002238D01*
X036219Y002294D01*
X036301Y002359D01*
X036375Y002433D01*
X036440Y002514D01*
X036495Y002603D01*
X036541Y002697D01*
X036575Y002796D01*
X036598Y002897D01*
X036607Y002973D01*
X035760Y002973D01*
X035600Y002973D01*
X035600Y002127D01*
X035524Y002135D01*
X035422Y002158D01*
X035324Y002193D01*
X035229Y002238D01*
X035141Y002294D01*
X035059Y002359D01*
X034985Y002433D01*
X034920Y002514D01*
X034865Y002603D01*
X034819Y002697D01*
X034785Y002796D01*
X034762Y002897D01*
X034753Y002973D01*
X035600Y002973D01*
X035600Y003133D01*
X034753Y003133D01*
X034762Y003209D01*
X034785Y003311D01*
X034819Y003410D01*
X034865Y003504D01*
X034920Y003592D01*
X034985Y003674D01*
X035051Y003739D01*
X033082Y003739D01*
X032575Y003233D01*
X032452Y003109D01*
X032204Y003109D01*
X032209Y003108D01*
X032333Y002984D01*
X032400Y002822D01*
X032400Y002647D01*
X032333Y002485D01*
X032209Y002361D01*
X032048Y002294D01*
X031312Y002294D01*
X031151Y002361D01*
X031027Y002485D01*
X030960Y002647D01*
X030960Y002822D01*
X031027Y002984D01*
X031151Y003108D01*
X031156Y003109D01*
X029173Y003109D01*
X028999Y003284D01*
X028999Y003028D01*
X028861Y002696D01*
X028608Y002443D01*
X028277Y002306D01*
X027918Y002306D01*
X027587Y002443D01*
X027333Y002696D01*
X027196Y003028D01*
X027196Y003386D01*
X027333Y003717D01*
X027587Y003971D01*
X027918Y004108D01*
X028174Y004108D01*
X027868Y004414D01*
X026438Y004414D01*
X026470Y004336D01*
X026470Y004193D01*
X026415Y004061D01*
X026314Y003959D01*
X026182Y003904D01*
X026038Y003904D01*
X025906Y003959D01*
X025896Y003969D01*
X010265Y003969D01*
X010173Y004008D01*
X010103Y004078D01*
X002138Y012043D01*
X002100Y012135D01*
X002100Y020109D01*
X002138Y020201D01*
X002208Y020271D01*
X002611Y020674D01*
X002551Y020699D01*
X002450Y020801D01*
X002395Y020933D01*
X002395Y021076D01*
X002450Y021208D01*
X002545Y021304D01*
X002545Y021477D01*
X002362Y021294D01*
X002180Y021294D01*
X002180Y021734D01*
X002180Y021294D01*
X001998Y021294D01*
X001740Y021552D01*
X001740Y021734D01*
X002180Y021734D01*
X002180Y021734D01*
X002180Y021734D01*
X001740Y021734D01*
X001740Y021917D01*
X001998Y022174D01*
X002180Y022174D01*
X002180Y021735D01*
X002180Y021735D01*
X002180Y022174D01*
X002362Y022174D01*
X002545Y021992D01*
X002545Y022506D01*
X002354Y022314D01*
X002006Y022314D01*
X001760Y022561D01*
X001760Y022908D01*
X002006Y023154D01*
X002354Y023154D01*
X002545Y022963D01*
X002545Y024061D01*
X002668Y024184D01*
X002798Y024314D01*
X002336Y024314D01*
X002182Y024378D01*
X002064Y024497D01*
X002000Y024651D01*
X002000Y024818D01*
X002064Y024972D01*
X002182Y025091D01*
X002336Y025154D01*
X003024Y025154D01*
X003130Y025110D01*
X003130Y025359D01*
X003024Y025314D01*
X002336Y025314D01*
X002182Y025378D01*
X002064Y025497D01*
X002000Y025651D01*
X002000Y025818D01*
X002064Y025972D01*
X002182Y026091D01*
X002186Y026092D01*
X001903Y026374D01*
X001780Y026498D01*
X001780Y033241D01*
X004075Y035536D01*
X004198Y035659D01*
X010376Y035659D01*
X010471Y035755D01*
X010603Y035809D01*
X010747Y035809D01*
X010879Y035755D01*
X010980Y035653D01*
X011035Y035521D01*
X011035Y035378D01*
X010980Y035246D01*
X010879Y035144D01*
X010747Y035089D01*
X010603Y035089D01*
X010471Y035144D01*
X010376Y035239D01*
X004372Y035239D01*
X004347Y035214D01*
X004379Y035214D01*
X004660Y034933D01*
X004660Y034754D01*
X004200Y034754D01*
X004200Y034714D01*
X004200Y034254D01*
X004379Y034254D01*
X004525Y034401D01*
X004525Y034040D01*
X004371Y034194D01*
X003989Y034194D01*
X003720Y033925D01*
X003720Y033544D01*
X003989Y033274D01*
X004063Y033274D01*
X002943Y032154D01*
X002336Y032154D01*
X002200Y032098D01*
X002200Y033068D01*
X003700Y034568D01*
X003700Y034536D01*
X003981Y034254D01*
X004160Y034254D01*
X004160Y034714D01*
X004200Y034714D01*
X004660Y034714D01*
X004660Y034546D01*
X004720Y034606D01*
X004720Y034925D01*
X004989Y035194D01*
X005371Y035194D01*
X005640Y034925D01*
X005640Y034544D01*
X005371Y034274D01*
X004989Y034274D01*
X004986Y034278D01*
X004945Y034238D01*
X004945Y034150D01*
X004989Y034194D01*
X005371Y034194D01*
X005640Y033925D01*
X005640Y033544D01*
X005479Y033383D01*
X007013Y031849D01*
X007064Y031972D01*
X007182Y032091D01*
X007336Y032154D01*
X008024Y032154D01*
X008178Y032091D01*
X008296Y031972D01*
X008360Y031818D01*
X008360Y031651D01*
X008296Y031497D01*
X008178Y031378D01*
X008024Y031314D01*
X007547Y031314D01*
X007707Y031154D01*
X008024Y031154D01*
X008178Y031091D01*
X008296Y030972D01*
X008346Y030852D01*
X010420Y032926D01*
X010420Y033324D01*
X010371Y033274D01*
X009989Y033274D01*
X009720Y033544D01*
X009720Y033925D01*
X009989Y034194D01*
X010371Y034194D01*
X010534Y034031D01*
X010543Y034039D01*
X010884Y034380D01*
X010720Y034544D01*
X010720Y034925D01*
X010989Y035194D01*
X011371Y035194D01*
X011534Y035031D01*
X012343Y035839D01*
X030311Y035839D01*
X030361Y035890D01*
X030493Y035944D01*
X030637Y035944D01*
X030769Y035890D01*
X030870Y035788D01*
X030925Y035656D01*
X030925Y035513D01*
X030870Y035381D01*
X030769Y035279D01*
X030637Y035224D01*
X030493Y035224D01*
X030361Y035279D01*
X030266Y035374D01*
X030253Y035374D01*
X030208Y035419D01*
X018832Y035419D01*
X019057Y035194D01*
X019371Y035194D01*
X019640Y034925D01*
X019640Y034544D01*
X019371Y034274D01*
X018989Y034274D01*
X018720Y034544D01*
X018720Y034925D01*
X018726Y034931D01*
X018508Y035149D01*
X018416Y035149D01*
X018640Y034925D01*
X018640Y034576D01*
X018850Y034366D01*
X018850Y034055D01*
X018989Y034194D01*
X019371Y034194D01*
X019640Y033925D01*
X019640Y033544D01*
X019371Y033274D01*
X019255Y033274D01*
X019255Y032554D01*
X019350Y032458D01*
X019405Y032326D01*
X019405Y032183D01*
X019350Y032051D01*
X019249Y031949D01*
X019117Y031894D01*
X018973Y031894D01*
X018841Y031949D01*
X018740Y032051D01*
X018685Y032183D01*
X018685Y032326D01*
X018740Y032458D01*
X018835Y032554D01*
X018835Y033158D01*
X018553Y033439D01*
X018544Y033448D01*
X018371Y033274D01*
X017989Y033274D01*
X017720Y033544D01*
X017720Y033925D01*
X017989Y034194D01*
X018371Y034194D01*
X018430Y034135D01*
X018430Y034193D01*
X018348Y034274D01*
X017989Y034274D01*
X017720Y034544D01*
X017720Y034925D01*
X017944Y035149D01*
X017416Y035149D01*
X017640Y034925D01*
X017640Y034544D01*
X017371Y034274D01*
X016989Y034274D01*
X016720Y034544D01*
X016720Y034925D01*
X016944Y035149D01*
X016416Y035149D01*
X016640Y034925D01*
X016640Y034544D01*
X016464Y034368D01*
X016465Y034366D01*
X016813Y034018D01*
X016989Y034194D01*
X017371Y034194D01*
X017640Y033925D01*
X017640Y033544D01*
X017371Y033274D01*
X017287Y033274D01*
X018355Y032206D01*
X018355Y031654D01*
X018524Y031654D01*
X018678Y031591D01*
X018796Y031472D01*
X018860Y031318D01*
X018860Y031151D01*
X018829Y031075D01*
X019600Y031846D01*
X019723Y031969D01*
X020167Y031969D01*
X020614Y031522D01*
X020682Y031591D01*
X020836Y031654D01*
X021524Y031654D01*
X021678Y031591D01*
X021796Y031472D01*
X021860Y031318D01*
X021860Y031151D01*
X021796Y030997D01*
X021678Y030878D01*
X021524Y030814D01*
X020836Y030814D01*
X020740Y030854D01*
X020740Y030615D01*
X020836Y030654D01*
X021524Y030654D01*
X021678Y030591D01*
X021796Y030472D01*
X023275Y030472D01*
X023277Y030465D02*
X023411Y030332D01*
X023586Y030259D01*
X023774Y030259D01*
X023786Y030264D01*
X024978Y029073D01*
X025070Y029034D01*
X027126Y029034D01*
X027064Y028972D01*
X027000Y028818D01*
X027000Y028651D01*
X027064Y028497D01*
X027182Y028378D01*
X027336Y028314D01*
X028024Y028314D01*
X028178Y028378D01*
X028296Y028497D01*
X028360Y028651D01*
X028360Y028818D01*
X028296Y028972D01*
X028234Y029034D01*
X029190Y029034D01*
X029190Y024341D01*
X028160Y025371D01*
X028178Y025378D01*
X028296Y025497D01*
X028360Y025651D01*
X028360Y025818D01*
X028296Y025972D01*
X028178Y026091D01*
X028024Y026154D01*
X027336Y026154D01*
X027182Y026091D01*
X027064Y025972D01*
X027000Y025818D01*
X027000Y025651D01*
X027048Y025534D01*
X026872Y025534D01*
X022090Y030316D01*
X021967Y030439D01*
X021810Y030439D01*
X021796Y030472D01*
X021581Y030631D02*
X023209Y030631D01*
X023205Y030640D02*
X023277Y030465D01*
X023205Y030640D02*
X023205Y030829D01*
X023277Y031004D01*
X023411Y031137D01*
X023586Y031209D01*
X023774Y031209D01*
X023949Y031137D01*
X024083Y031004D01*
X024155Y030829D01*
X024155Y030640D01*
X024144Y030614D01*
X024185Y030573D01*
X024185Y030734D01*
X024680Y030734D01*
X024680Y030239D01*
X024519Y030239D01*
X025224Y029534D01*
X027048Y029534D01*
X027000Y029651D01*
X027000Y029818D01*
X027064Y029972D01*
X027182Y030091D01*
X027336Y030154D01*
X027628Y030154D01*
X027788Y030314D01*
X027336Y030314D01*
X027182Y030378D01*
X027064Y030497D01*
X027038Y030559D01*
X025213Y030559D01*
X025175Y030598D01*
X025175Y030529D01*
X024885Y030239D01*
X024680Y030239D01*
X024680Y030734D01*
X024680Y030734D01*
X024680Y030734D01*
X024185Y030734D01*
X024185Y030940D01*
X024475Y031229D01*
X024543Y031229D01*
X022873Y032899D01*
X021703Y032899D01*
X021328Y033274D01*
X020989Y033274D01*
X020720Y033544D01*
X020720Y033925D01*
X020774Y033979D01*
X020752Y033979D01*
X020640Y033868D01*
X020640Y033544D01*
X020371Y033274D01*
X019989Y033274D01*
X019720Y033544D01*
X019720Y033925D01*
X019989Y034194D01*
X020371Y034194D01*
X020372Y034193D01*
X020578Y034399D01*
X020836Y034399D01*
X020700Y034536D01*
X020700Y034714D01*
X021160Y034714D01*
X021160Y034754D01*
X020700Y034754D01*
X020700Y034933D01*
X020981Y035214D01*
X021160Y035214D01*
X021160Y034754D01*
X021200Y034754D01*
X021660Y034754D01*
X021660Y034933D01*
X021379Y035214D01*
X021200Y035214D01*
X021200Y034754D01*
X021200Y034714D01*
X021660Y034714D01*
X021660Y034536D01*
X021475Y034351D01*
X021550Y034276D01*
X021988Y034276D01*
X021989Y034274D02*
X022371Y034274D01*
X022640Y034544D01*
X022640Y034925D01*
X022371Y035194D01*
X021989Y035194D01*
X021720Y034925D01*
X021720Y034544D01*
X021989Y034274D01*
X021989Y034194D02*
X021811Y034016D01*
X021550Y034276D01*
X021559Y034435D02*
X021829Y034435D01*
X021720Y034593D02*
X021660Y034593D01*
X021720Y034752D02*
X021200Y034752D01*
X021160Y034752D02*
X020640Y034752D01*
X020640Y034910D02*
X020700Y034910D01*
X020640Y034925D02*
X020371Y035194D01*
X019989Y035194D01*
X019720Y034925D01*
X019720Y034544D01*
X019989Y034274D01*
X020371Y034274D01*
X020640Y034544D01*
X020640Y034925D01*
X020496Y035069D02*
X020835Y035069D01*
X021160Y035069D02*
X021200Y035069D01*
X021200Y034910D02*
X021160Y034910D01*
X021525Y035069D02*
X021864Y035069D01*
X021720Y034910D02*
X021660Y034910D01*
X021989Y034194D02*
X022353Y034194D01*
X022558Y034399D01*
X022864Y034399D01*
X022720Y034544D01*
X022720Y034925D01*
X022989Y035194D01*
X023371Y035194D01*
X023640Y034925D01*
X023640Y034544D01*
X023496Y034399D01*
X023836Y034399D01*
X023700Y034536D01*
X023700Y034714D01*
X024160Y034714D01*
X024160Y034754D01*
X023700Y034754D01*
X023700Y034933D01*
X023981Y035214D01*
X024160Y035214D01*
X024160Y034754D01*
X024200Y034754D01*
X024660Y034754D01*
X024660Y034933D01*
X024379Y035214D01*
X024200Y035214D01*
X024200Y034754D01*
X024200Y034714D01*
X024660Y034714D01*
X024660Y034536D01*
X024524Y034399D01*
X024836Y034399D01*
X024700Y034536D01*
X024700Y034714D01*
X025160Y034714D01*
X025160Y034754D01*
X024700Y034754D01*
X024700Y034933D01*
X024981Y035214D01*
X025160Y035214D01*
X025160Y034754D01*
X025200Y034754D01*
X025660Y034754D01*
X025660Y034933D01*
X025379Y035214D01*
X025200Y035214D01*
X025200Y034754D01*
X025200Y034714D01*
X025660Y034714D01*
X025660Y034536D01*
X025524Y034399D01*
X025864Y034399D01*
X025720Y034544D01*
X025720Y034925D01*
X025989Y035194D01*
X026371Y035194D01*
X026549Y035016D01*
X026653Y035119D01*
X026923Y035389D01*
X027457Y035389D01*
X027580Y035266D01*
X027821Y035026D01*
X027989Y035194D01*
X028371Y035194D01*
X028640Y034925D01*
X028640Y034544D01*
X028471Y034375D01*
X028807Y034039D01*
X028821Y034026D01*
X028989Y034194D01*
X029371Y034194D01*
X029640Y033925D01*
X029640Y033544D01*
X029371Y033274D01*
X029302Y033274D01*
X029916Y032660D01*
X029945Y032728D01*
X030046Y032830D01*
X030178Y032884D01*
X030322Y032884D01*
X030454Y032830D01*
X030549Y032734D01*
X032503Y032734D01*
X033043Y033274D01*
X032989Y033274D01*
X032720Y033544D01*
X032720Y033925D01*
X032989Y034194D01*
X033371Y034194D01*
X033532Y034033D01*
X033775Y034276D01*
X033372Y034276D01*
X033371Y034274D02*
X033640Y034544D01*
X033640Y034925D01*
X033371Y035194D01*
X032989Y035194D01*
X032720Y034925D01*
X032720Y034544D01*
X032989Y034274D01*
X033371Y034274D01*
X033447Y034118D02*
X033616Y034118D01*
X033775Y034276D02*
X033867Y034369D01*
X033700Y034536D01*
X033700Y034714D01*
X034160Y034714D01*
X034160Y034754D01*
X033700Y034754D01*
X033700Y034933D01*
X033981Y035214D01*
X034160Y035214D01*
X034160Y034754D01*
X034200Y034754D01*
X034660Y034754D01*
X034660Y034933D01*
X034379Y035214D01*
X034200Y035214D01*
X034200Y034754D01*
X034200Y034714D01*
X034660Y034714D01*
X034660Y034536D01*
X034524Y034399D01*
X034864Y034399D01*
X034720Y034544D01*
X034720Y034925D01*
X034989Y035194D01*
X035371Y035194D01*
X035640Y034925D01*
X035640Y034544D01*
X035459Y034363D01*
X035808Y034013D01*
X035989Y034194D01*
X036371Y034194D01*
X036640Y033925D01*
X036640Y033544D01*
X036371Y033274D01*
X035989Y033274D01*
X035950Y033314D01*
X035950Y033286D01*
X038077Y031159D01*
X038164Y031072D01*
X038182Y031091D01*
X038336Y031154D01*
X039024Y031154D01*
X039178Y031091D01*
X039296Y030972D01*
X039360Y030818D01*
X039360Y030651D01*
X039296Y030497D01*
X039178Y030378D01*
X039108Y030349D01*
X039202Y030349D01*
X039682Y029869D01*
X039817Y029869D01*
X039900Y029835D01*
X039900Y034675D01*
X039693Y034467D01*
X039360Y034329D01*
X039000Y034329D01*
X038667Y034467D01*
X038413Y034722D01*
X038275Y035054D01*
X038275Y035415D01*
X038413Y035747D01*
X038620Y035954D01*
X002740Y035954D01*
X002947Y035747D01*
X003085Y035415D01*
X003085Y035054D01*
X002947Y034722D01*
X002693Y034467D01*
X002360Y034329D01*
X002000Y034329D01*
X001667Y034467D01*
X001460Y034675D01*
X001460Y002794D01*
X001667Y003002D01*
X002000Y003139D01*
X002360Y003139D01*
X002693Y003002D01*
X002947Y002747D01*
X003085Y002415D01*
X003085Y002054D01*
X002947Y001722D01*
X002973Y001783D02*
X038387Y001783D01*
X038322Y001942D02*
X003038Y001942D01*
X003085Y002100D02*
X038275Y002100D01*
X038275Y002259D02*
X036164Y002259D01*
X036359Y002417D02*
X038276Y002417D01*
X038342Y002576D02*
X036478Y002576D01*
X036554Y002734D02*
X038408Y002734D01*
X038559Y002893D02*
X036597Y002893D01*
X036598Y003210D02*
X039900Y003210D01*
X039900Y003368D02*
X037857Y003368D01*
X038149Y003527D02*
X039900Y003527D01*
X039900Y003685D02*
X038308Y003685D01*
X038393Y003844D02*
X039900Y003844D01*
X039900Y004002D02*
X038459Y004002D01*
X038480Y004161D02*
X039900Y004161D01*
X039900Y004319D02*
X038480Y004319D01*
X038454Y004478D02*
X039900Y004478D01*
X039900Y004636D02*
X038388Y004636D01*
X038296Y004795D02*
X039900Y004795D01*
X039900Y004953D02*
X038138Y004953D01*
X037829Y005112D02*
X039900Y005112D01*
X039900Y005270D02*
X037853Y005270D01*
X038011Y005429D02*
X039900Y005429D01*
X039900Y005587D02*
X038170Y005587D01*
X038328Y005746D02*
X039900Y005746D01*
X039900Y005904D02*
X038487Y005904D01*
X038645Y006063D02*
X039900Y006063D01*
X039900Y006221D02*
X038804Y006221D01*
X038962Y006380D02*
X039900Y006380D01*
X039900Y006538D02*
X039121Y006538D01*
X039279Y006697D02*
X039900Y006697D01*
X039900Y006855D02*
X039438Y006855D01*
X039596Y007014D02*
X039900Y007014D01*
X039900Y007172D02*
X039755Y007172D01*
X039283Y007294D02*
X037318Y005329D01*
X036715Y005329D01*
X036715Y005591D01*
X036644Y005854D01*
X036508Y006090D01*
X036316Y006283D01*
X036079Y006419D01*
X035816Y006490D01*
X035574Y006490D01*
X036114Y007029D01*
X037770Y007029D01*
X037862Y007068D01*
X038482Y007688D01*
X038491Y007631D01*
X038512Y007566D01*
X038544Y007504D01*
X038584Y007448D01*
X038633Y007399D01*
X038689Y007358D01*
X038751Y007327D01*
X038817Y007305D01*
X038885Y007294D01*
X039180Y007294D01*
X039283Y007294D01*
X039180Y007294D02*
X039180Y007734D01*
X039180Y007734D01*
X039180Y007294D01*
X039180Y007331D02*
X039180Y007331D01*
X039180Y007489D02*
X039180Y007489D01*
X039180Y007648D02*
X039180Y007648D01*
X039180Y007735D02*
X039180Y008174D01*
X038969Y008174D01*
X039109Y008314D01*
X039524Y008314D01*
X039625Y008357D01*
X039625Y008134D01*
X039609Y008142D01*
X039543Y008164D01*
X039475Y008174D01*
X039180Y008174D01*
X039180Y007735D01*
X039180Y007735D01*
X039180Y007806D02*
X039180Y007806D01*
X039180Y007965D02*
X039180Y007965D01*
X039180Y008123D02*
X039180Y008123D01*
X039076Y008282D02*
X039625Y008282D01*
X039625Y009112D02*
X039524Y009154D01*
X038836Y009154D01*
X038682Y009091D01*
X038564Y008972D01*
X038500Y008818D01*
X038500Y008651D01*
X038564Y008497D01*
X038574Y008487D01*
X037616Y007529D01*
X036810Y007529D01*
X036860Y007651D01*
X036860Y007818D01*
X036796Y007972D01*
X036678Y008091D01*
X036524Y008154D01*
X035836Y008154D01*
X035682Y008091D01*
X035564Y007972D01*
X035500Y007818D01*
X035500Y007651D01*
X035564Y007497D01*
X035682Y007378D01*
X035734Y007357D01*
X032396Y004019D01*
X032297Y004019D01*
X032209Y004108D01*
X032048Y004174D01*
X031312Y004174D01*
X031151Y004108D01*
X031027Y003984D01*
X030960Y003822D01*
X030960Y003647D01*
X031009Y003529D01*
X029347Y003529D01*
X028165Y004711D01*
X028102Y004774D01*
X031687Y004774D01*
X031810Y004898D01*
X032347Y005434D01*
X032482Y005434D01*
X032614Y005489D01*
X032715Y005591D01*
X032770Y005723D01*
X032770Y005866D01*
X032715Y005998D01*
X032614Y006100D01*
X032482Y006154D01*
X032338Y006154D01*
X032206Y006100D01*
X032105Y005998D01*
X032095Y005974D01*
X032083Y006004D01*
X031982Y006104D01*
X032035Y006158D01*
X032707Y006829D01*
X032842Y006829D01*
X032974Y006884D01*
X033075Y006986D01*
X033130Y007118D01*
X033130Y007261D01*
X033075Y007393D01*
X032974Y007495D01*
X032842Y007549D01*
X032698Y007549D01*
X032566Y007495D01*
X032465Y007393D01*
X032410Y007261D01*
X032410Y007126D01*
X032175Y006891D01*
X032175Y006940D01*
X032069Y007046D01*
X032125Y007103D01*
X033532Y008509D01*
X035559Y008509D01*
X035564Y008497D01*
X035682Y008378D01*
X035836Y008314D01*
X036524Y008314D01*
X036678Y008378D01*
X036796Y008497D01*
X036860Y008651D01*
X036860Y008818D01*
X036796Y008972D01*
X036678Y009091D01*
X036524Y009154D01*
X035836Y009154D01*
X035682Y009091D01*
X035564Y008972D01*
X035546Y008929D01*
X033682Y008929D01*
X034956Y010204D01*
X034985Y010136D01*
X035086Y010034D01*
X035218Y009979D01*
X035362Y009979D01*
X035494Y010034D01*
X035589Y010129D01*
X035776Y010129D01*
X035682Y010091D01*
X035564Y009972D01*
X035500Y009818D01*
X035500Y009651D01*
X035564Y009497D01*
X035682Y009378D01*
X035836Y009314D01*
X036524Y009314D01*
X036678Y009378D01*
X036796Y009497D01*
X036860Y009651D01*
X036860Y009818D01*
X036796Y009972D01*
X036678Y010091D01*
X036584Y010129D01*
X036727Y010129D01*
X036850Y010253D01*
X037255Y010658D01*
X037255Y013081D01*
X037132Y013204D01*
X036809Y013528D01*
X036860Y013651D01*
X036860Y013818D01*
X036796Y013972D01*
X036678Y014091D01*
X036524Y014154D01*
X035836Y014154D01*
X035682Y014091D01*
X035564Y013972D01*
X035545Y013927D01*
X035545Y014542D01*
X035564Y014497D01*
X035682Y014378D01*
X035836Y014314D01*
X036524Y014314D01*
X036678Y014378D01*
X036796Y014497D01*
X036860Y014651D01*
X036860Y014818D01*
X036796Y014972D01*
X036678Y015091D01*
X036596Y015124D01*
X036682Y015124D01*
X036997Y015439D01*
X037077Y015520D01*
X037198Y015469D01*
X037342Y015469D01*
X037474Y015524D01*
X037575Y015626D01*
X037630Y015758D01*
X037630Y015893D01*
X038500Y016763D01*
X038500Y016651D01*
X038564Y016497D01*
X038682Y016378D01*
X038836Y016314D01*
X039524Y016314D01*
X039678Y016378D01*
X039796Y016497D01*
X039860Y016651D01*
X039860Y016818D01*
X039796Y016972D01*
X039678Y017091D01*
X039524Y017154D01*
X038892Y017154D01*
X039052Y017314D01*
X039524Y017314D01*
X039678Y017378D01*
X039796Y017497D01*
X039860Y017651D01*
X039860Y017818D01*
X039796Y017972D01*
X039678Y018091D01*
X039657Y018099D01*
X039900Y018343D01*
X039900Y010166D01*
X039697Y010369D01*
X039656Y010369D01*
X039678Y010378D01*
X039796Y010497D01*
X039860Y010651D01*
X039860Y010818D01*
X039900Y010818D01*
X039860Y010818D02*
X039796Y010972D01*
X039678Y011091D01*
X039524Y011154D01*
X038884Y011154D01*
X038890Y011168D01*
X038890Y011311D01*
X038889Y011314D01*
X039524Y011314D01*
X039678Y011378D01*
X039796Y011497D01*
X039860Y011651D01*
X039860Y011818D01*
X039796Y011972D01*
X039678Y012091D01*
X039524Y012154D01*
X038836Y012154D01*
X038682Y012091D01*
X038564Y011972D01*
X038500Y011818D01*
X038500Y011651D01*
X038521Y011599D01*
X038458Y011599D01*
X038326Y011545D01*
X038225Y011443D01*
X038170Y011311D01*
X038170Y011168D01*
X038225Y011036D01*
X038320Y010940D01*
X038320Y010478D01*
X038688Y010110D01*
X038633Y010070D01*
X038584Y010021D01*
X038544Y009965D01*
X038512Y009903D01*
X038491Y009838D01*
X038480Y009769D01*
X038480Y009734D01*
X038480Y009700D01*
X038491Y009631D01*
X038512Y009566D01*
X038544Y009504D01*
X038584Y009448D01*
X038633Y009399D01*
X038689Y009358D01*
X038751Y009327D01*
X038817Y009305D01*
X038885Y009294D01*
X039180Y009294D01*
X039475Y009294D01*
X039543Y009305D01*
X039609Y009327D01*
X039625Y009335D01*
X039625Y009112D01*
X039625Y009233D02*
X033985Y009233D01*
X033827Y009074D02*
X035666Y009074D01*
X035669Y009391D02*
X034144Y009391D01*
X034302Y009550D02*
X035542Y009550D01*
X035500Y009708D02*
X034461Y009708D01*
X034619Y009867D02*
X035520Y009867D01*
X035473Y010025D02*
X035617Y010025D01*
X035107Y010025D02*
X034778Y010025D01*
X034936Y010184D02*
X034965Y010184D01*
X034825Y010666D02*
X034825Y011467D01*
X034998Y011294D01*
X035180Y011294D01*
X035180Y011734D01*
X035180Y011294D01*
X035362Y011294D01*
X035555Y011488D01*
X035584Y011448D01*
X035633Y011399D01*
X035688Y011359D01*
X035518Y011359D01*
X034825Y010666D01*
X034825Y010818D02*
X034977Y010818D01*
X034825Y010977D02*
X035135Y010977D01*
X035294Y011135D02*
X034825Y011135D01*
X034825Y011294D02*
X035452Y011294D01*
X035520Y011452D02*
X035581Y011452D01*
X035620Y011734D02*
X036180Y011734D01*
X036180Y011734D01*
X035180Y011734D01*
X035180Y011734D01*
X035180Y011734D01*
X035620Y011734D01*
X035555Y011981D02*
X035362Y012174D01*
X035180Y012174D01*
X034998Y012174D01*
X034825Y012002D01*
X034825Y012496D01*
X035006Y012314D01*
X035354Y012314D01*
X035556Y012516D01*
X035564Y012497D01*
X035682Y012378D01*
X035836Y012314D01*
X036524Y012314D01*
X036655Y012369D01*
X036655Y012119D01*
X036609Y012142D01*
X036543Y012164D01*
X036475Y012174D01*
X036180Y012174D01*
X035885Y012174D01*
X035817Y012164D01*
X035751Y012142D01*
X035689Y012111D01*
X035633Y012070D01*
X035584Y012021D01*
X035555Y011981D01*
X035655Y012086D02*
X035451Y012086D01*
X035180Y012086D02*
X035180Y012086D01*
X035180Y012174D02*
X035180Y011735D01*
X035180Y011735D01*
X035180Y012174D01*
X035180Y011928D02*
X035180Y011928D01*
X035180Y011769D02*
X035180Y011769D01*
X035180Y011611D02*
X035180Y011611D01*
X035180Y011452D02*
X035180Y011452D01*
X034840Y011452D02*
X034825Y011452D01*
X034405Y011452D02*
X031839Y011452D01*
X031747Y011359D02*
X032776Y012389D01*
X032791Y012374D01*
X032923Y012319D01*
X032988Y012319D01*
X032980Y012269D01*
X032980Y012234D01*
X032980Y012200D01*
X032991Y012131D01*
X033012Y012066D01*
X033044Y012004D01*
X033084Y011948D01*
X033133Y011899D01*
X033189Y011858D01*
X033251Y011827D01*
X033317Y011805D01*
X033385Y011794D01*
X033680Y011794D01*
X033975Y011794D01*
X034043Y011805D01*
X034109Y011827D01*
X034171Y011858D01*
X034227Y011899D01*
X034276Y011948D01*
X034316Y012004D01*
X034348Y012066D01*
X034369Y012131D01*
X034380Y012200D01*
X034380Y012234D01*
X033680Y012234D01*
X033680Y011794D01*
X033680Y012234D01*
X033680Y012234D01*
X033680Y012234D01*
X032980Y012234D01*
X033680Y012234D01*
X033680Y012234D01*
X034380Y012234D01*
X034380Y012269D01*
X034369Y012338D01*
X034348Y012403D01*
X034405Y012403D01*
X034348Y012403D02*
X034316Y012465D01*
X034276Y012521D01*
X034227Y012570D01*
X034171Y012611D01*
X034109Y012642D01*
X034043Y012664D01*
X033975Y012674D01*
X033680Y012674D01*
X033385Y012674D01*
X033355Y012670D01*
X033355Y012751D01*
X033334Y012803D01*
X033385Y012794D01*
X033680Y012794D01*
X033975Y012794D01*
X034043Y012805D01*
X034109Y012827D01*
X034171Y012858D01*
X034227Y012899D01*
X034276Y012948D01*
X034316Y013004D01*
X034348Y013066D01*
X034369Y013131D01*
X034380Y013200D01*
X034380Y013234D01*
X033680Y013234D01*
X033680Y012794D01*
X033680Y013234D01*
X033680Y013234D01*
X032980Y013234D01*
X032980Y013200D01*
X032991Y013131D01*
X033012Y013066D01*
X033026Y013039D01*
X032923Y013039D01*
X032791Y012985D01*
X032696Y012889D01*
X032683Y012889D01*
X030388Y010594D01*
X027967Y010594D01*
X029797Y012424D01*
X030023Y012424D01*
X030012Y012403D01*
X029775Y012403D01*
X029617Y012245D02*
X029980Y012245D01*
X029980Y012234D02*
X030680Y012234D01*
X030680Y011794D01*
X030975Y011794D01*
X031043Y011805D01*
X031109Y011827D01*
X031171Y011858D01*
X031227Y011899D01*
X031276Y011948D01*
X031316Y012004D01*
X031348Y012066D01*
X031369Y012131D01*
X031380Y012200D01*
X031380Y012234D01*
X030680Y012234D01*
X030680Y012234D01*
X030680Y011794D01*
X030385Y011794D01*
X030317Y011805D01*
X030251Y011827D01*
X030189Y011858D01*
X030133Y011899D01*
X030084Y011948D01*
X030044Y012004D01*
X030012Y012066D01*
X029991Y012131D01*
X029980Y012200D01*
X029980Y012234D01*
X030680Y012234D01*
X030680Y012234D01*
X030680Y012234D01*
X031380Y012234D01*
X031380Y012269D01*
X031369Y012338D01*
X031348Y012403D01*
X032197Y012403D01*
X032355Y012562D02*
X031235Y012562D01*
X031227Y012570D02*
X031187Y012599D01*
X032587Y013999D01*
X033063Y013999D01*
X033064Y013997D01*
X033182Y013878D01*
X033336Y013814D01*
X034024Y013814D01*
X034178Y013878D01*
X034296Y013997D01*
X034360Y014151D01*
X034360Y014318D01*
X034296Y014472D01*
X034178Y014591D01*
X034024Y014654D01*
X033336Y014654D01*
X033182Y014591D01*
X033064Y014472D01*
X033042Y014419D01*
X032413Y014419D01*
X031346Y013352D01*
X031296Y013472D01*
X031183Y013585D01*
X032587Y014989D01*
X033071Y014989D01*
X033182Y014878D01*
X033336Y014814D01*
X034024Y014814D01*
X034178Y014878D01*
X034296Y014997D01*
X034360Y015151D01*
X034360Y015318D01*
X034296Y015472D01*
X034178Y015591D01*
X034024Y015654D01*
X033336Y015654D01*
X033182Y015591D01*
X033064Y015472D01*
X033038Y015409D01*
X032413Y015409D01*
X031349Y014345D01*
X031296Y014472D01*
X031178Y014591D01*
X031024Y014654D01*
X030338Y014654D01*
X030385Y014768D01*
X030385Y014814D01*
X031024Y014814D01*
X031178Y014878D01*
X031296Y014997D01*
X031360Y015151D01*
X031360Y015318D01*
X031296Y015472D01*
X031178Y015591D01*
X031024Y015654D01*
X030336Y015654D01*
X030182Y015591D01*
X030064Y015472D01*
X030000Y015318D01*
X030000Y015199D01*
X029962Y015199D01*
X028675Y016486D01*
X028675Y016621D01*
X028620Y016753D01*
X028519Y016855D01*
X028451Y016883D01*
X029077Y017509D01*
X029681Y017509D01*
X029776Y017414D01*
X029908Y017359D01*
X030017Y017359D01*
X030000Y017318D01*
X030000Y017151D01*
X030064Y016997D01*
X030182Y016878D01*
X030336Y016814D01*
X031024Y016814D01*
X031178Y016878D01*
X031296Y016997D01*
X031360Y017151D01*
X031360Y017318D01*
X031296Y017472D01*
X031178Y017591D01*
X031024Y017654D01*
X030340Y017654D01*
X030340Y017791D01*
X030329Y017818D01*
X030336Y017814D01*
X031024Y017814D01*
X031178Y017878D01*
X031296Y017997D01*
X031360Y018151D01*
X031360Y018318D01*
X031296Y018472D01*
X031178Y018591D01*
X031024Y018654D01*
X030336Y018654D01*
X030182Y018591D01*
X030064Y018472D01*
X030000Y018318D01*
X030000Y018151D01*
X030030Y018079D01*
X029908Y018079D01*
X029776Y018025D01*
X029681Y017929D01*
X028903Y017929D01*
X027209Y016235D01*
X027180Y016303D01*
X027085Y016399D01*
X027085Y016951D01*
X026962Y017074D01*
X026664Y017373D01*
X026678Y017378D01*
X026796Y017497D01*
X026860Y017651D01*
X026860Y017818D01*
X026796Y017972D01*
X026678Y018091D01*
X026524Y018154D01*
X025836Y018154D01*
X025682Y018091D01*
X025564Y017972D01*
X025500Y017818D01*
X025500Y017651D01*
X025564Y017497D01*
X025682Y017378D01*
X025836Y017314D01*
X026128Y017314D01*
X026288Y017154D01*
X025836Y017154D01*
X025682Y017091D01*
X025564Y016972D01*
X025500Y016818D01*
X025500Y016651D01*
X025564Y016497D01*
X025682Y016378D01*
X025686Y016377D01*
X025438Y016129D01*
X025315Y016006D01*
X025315Y015634D01*
X025240Y015559D01*
X025240Y015691D01*
X025015Y015916D01*
X024892Y016039D01*
X024043Y016039D01*
X023862Y015859D01*
X023848Y015903D01*
X023816Y015965D01*
X023776Y016021D01*
X023727Y016070D01*
X023671Y016111D01*
X023663Y016114D01*
X023677Y016114D01*
X023947Y016384D01*
X024070Y016508D01*
X024070Y017060D01*
X024165Y017156D01*
X024220Y017288D01*
X024220Y017431D01*
X024165Y017563D01*
X024064Y017665D01*
X023932Y017719D01*
X023860Y017719D01*
X023860Y017818D01*
X023805Y017952D01*
X023890Y018038D01*
X025165Y019313D01*
X025165Y019268D01*
X025220Y019136D01*
X025321Y019034D01*
X025453Y018979D01*
X025571Y018979D01*
X025564Y018972D01*
X025500Y018818D01*
X025500Y018651D01*
X025564Y018497D01*
X025682Y018378D01*
X025836Y018314D01*
X026524Y018314D01*
X026678Y018378D01*
X026796Y018497D01*
X026853Y018634D01*
X028376Y018634D01*
X028471Y018539D01*
X028603Y018484D01*
X028747Y018484D01*
X028879Y018539D01*
X028980Y018641D01*
X029035Y018773D01*
X029035Y018916D01*
X028980Y019048D01*
X028879Y019150D01*
X028747Y019204D01*
X028603Y019204D01*
X028471Y019150D01*
X028376Y019054D01*
X027007Y019054D01*
X026680Y019381D01*
X026796Y019497D01*
X026860Y019651D01*
X026860Y019818D01*
X026796Y019972D01*
X026678Y020091D01*
X026667Y020095D01*
X027040Y020468D01*
X027040Y021001D01*
X026917Y021124D01*
X026667Y021374D01*
X026678Y021378D01*
X026796Y021497D01*
X026838Y021599D01*
X027595Y020843D01*
X027595Y020708D01*
X027650Y020576D01*
X027751Y020474D01*
X027883Y020419D01*
X028027Y020419D01*
X028159Y020474D01*
X028260Y020576D01*
X028315Y020708D01*
X028315Y020851D01*
X028260Y020983D01*
X028159Y021085D01*
X028027Y021139D01*
X027892Y021139D01*
X026692Y022339D01*
X026584Y022339D01*
X026678Y022378D01*
X026796Y022497D01*
X026860Y022651D01*
X026860Y022818D01*
X026796Y022972D01*
X026678Y023091D01*
X026524Y023154D01*
X025836Y023154D01*
X025682Y023091D01*
X025564Y022972D01*
X025500Y022818D01*
X025500Y022651D01*
X025560Y022506D01*
X024655Y021601D01*
X024655Y024908D01*
X025165Y024398D01*
X025165Y024263D01*
X025220Y024131D01*
X025321Y024029D01*
X025453Y023974D01*
X025566Y023974D01*
X025564Y023972D01*
X025500Y023818D01*
X025500Y023651D01*
X025564Y023497D01*
X025682Y023378D01*
X025836Y023314D01*
X026524Y023314D01*
X026678Y023378D01*
X026796Y023497D01*
X026860Y023651D01*
X026860Y023818D01*
X026796Y023972D01*
X026678Y024091D01*
X026524Y024154D01*
X025840Y024154D01*
X025885Y024263D01*
X025885Y024314D01*
X026524Y024314D01*
X026678Y024378D01*
X026796Y024497D01*
X026860Y024651D01*
X026860Y024818D01*
X026796Y024972D01*
X026678Y025091D01*
X026524Y025154D01*
X025836Y025154D01*
X025682Y025091D01*
X025564Y024972D01*
X025500Y024818D01*
X025500Y024694D01*
X025462Y024694D01*
X024862Y025294D01*
X024862Y025294D01*
X025120Y025552D01*
X025120Y025734D01*
X024680Y025734D01*
X024680Y025734D01*
X025120Y025734D01*
X025120Y025917D01*
X024862Y026174D01*
X024680Y026174D01*
X024498Y026174D01*
X024240Y025917D01*
X024240Y025916D01*
X022045Y028111D01*
X022045Y028651D01*
X021748Y028948D01*
X021796Y028997D01*
X021860Y029151D01*
X021860Y029318D01*
X021796Y029472D01*
X021678Y029591D01*
X021524Y029654D01*
X020836Y029654D01*
X020740Y029615D01*
X020740Y029854D01*
X020836Y029814D01*
X021524Y029814D01*
X021678Y029878D01*
X021796Y029997D01*
X021802Y030011D01*
X025658Y026154D01*
X025506Y026154D01*
X025260Y025908D01*
X025260Y025561D01*
X025506Y025314D01*
X025854Y025314D01*
X026100Y025561D01*
X026100Y025713D01*
X026698Y025114D01*
X027240Y025114D01*
X027182Y025091D01*
X027064Y024972D01*
X027000Y024818D01*
X027000Y024651D01*
X027064Y024497D01*
X027182Y024378D01*
X027336Y024314D01*
X028024Y024314D01*
X028178Y024378D01*
X028296Y024497D01*
X028338Y024599D01*
X031120Y021818D01*
X031120Y021637D01*
X031109Y021642D01*
X031043Y021664D01*
X030975Y021674D01*
X030680Y021674D01*
X030385Y021674D01*
X030317Y021664D01*
X030251Y021642D01*
X030189Y021611D01*
X030133Y021570D01*
X030084Y021521D01*
X030044Y021465D01*
X030012Y021403D01*
X029991Y021338D01*
X029980Y021269D01*
X029980Y021234D01*
X029980Y021200D01*
X029991Y021131D01*
X030012Y021066D01*
X030044Y021004D01*
X030084Y020948D01*
X030133Y020899D01*
X030189Y020858D01*
X030251Y020827D01*
X030317Y020805D01*
X030385Y020794D01*
X030680Y020794D01*
X030975Y020794D01*
X031043Y020805D01*
X031109Y020827D01*
X031120Y020832D01*
X031120Y020615D01*
X031024Y020654D01*
X030336Y020654D01*
X030182Y020591D01*
X030064Y020472D01*
X030000Y020318D01*
X030000Y020151D01*
X030064Y019997D01*
X030182Y019878D01*
X030336Y019814D01*
X031024Y019814D01*
X031120Y019854D01*
X031120Y019658D01*
X031243Y019534D01*
X033178Y017599D01*
X033204Y017599D01*
X033182Y017591D01*
X033064Y017472D01*
X033000Y017318D01*
X033000Y017151D01*
X033064Y016997D01*
X033182Y016878D01*
X033336Y016814D01*
X034024Y016814D01*
X034178Y016878D01*
X034270Y016970D01*
X034276Y016964D01*
X034408Y016909D01*
X034552Y016909D01*
X034684Y016964D01*
X034785Y017066D01*
X034840Y017198D01*
X034840Y017341D01*
X034785Y017473D01*
X034684Y017575D01*
X034552Y017629D01*
X034417Y017629D01*
X034171Y017876D01*
X034178Y017878D01*
X034296Y017997D01*
X034340Y018103D01*
X035125Y017318D01*
X035125Y013673D01*
X035700Y013098D01*
X035682Y013091D01*
X035564Y012972D01*
X035556Y012953D01*
X035354Y013154D01*
X035006Y013154D01*
X034825Y012973D01*
X034825Y015601D01*
X034702Y015724D01*
X034335Y016091D01*
X034360Y016151D01*
X034360Y016318D01*
X034296Y016472D01*
X034178Y016591D01*
X034024Y016654D01*
X033336Y016654D01*
X033182Y016591D01*
X033064Y016472D01*
X033000Y016318D01*
X033000Y016151D01*
X033064Y015997D01*
X033182Y015878D01*
X033336Y015814D01*
X034018Y015814D01*
X034405Y015428D01*
X034405Y010741D01*
X033509Y009845D01*
X033480Y009913D01*
X033414Y009979D01*
X033472Y009979D01*
X033604Y010034D01*
X033705Y010136D01*
X033760Y010268D01*
X033760Y010411D01*
X033705Y010543D01*
X033604Y010645D01*
X033472Y010699D01*
X033337Y010699D01*
X032800Y011236D01*
X032677Y011359D01*
X031747Y011359D01*
X031998Y011611D02*
X034405Y011611D01*
X034405Y011769D02*
X032156Y011769D01*
X032315Y011928D02*
X033105Y011928D01*
X033006Y012086D02*
X032473Y012086D01*
X032632Y012245D02*
X032980Y012245D01*
X033355Y012720D02*
X034405Y012720D01*
X034405Y012562D02*
X034235Y012562D01*
X034199Y012879D02*
X034405Y012879D01*
X034405Y013037D02*
X034333Y013037D01*
X034379Y013196D02*
X034405Y013196D01*
X034380Y013234D02*
X034380Y013269D01*
X034369Y013338D01*
X034348Y013403D01*
X034316Y013465D01*
X034276Y013521D01*
X034227Y013570D01*
X034171Y013611D01*
X034109Y013642D01*
X034043Y013664D01*
X033975Y013674D01*
X033680Y013674D01*
X033385Y013674D01*
X033317Y013664D01*
X033251Y013642D01*
X033189Y013611D01*
X033133Y013570D01*
X033084Y013521D01*
X033044Y013465D01*
X033012Y013403D01*
X032991Y013338D01*
X032980Y013269D01*
X032980Y013234D01*
X033680Y013234D01*
X033680Y013234D01*
X033680Y013234D01*
X034380Y013234D01*
X034364Y013354D02*
X034405Y013354D01*
X034405Y013513D02*
X034282Y013513D01*
X034405Y013671D02*
X033997Y013671D01*
X034060Y013830D02*
X034405Y013830D01*
X034405Y013988D02*
X034287Y013988D01*
X034358Y014147D02*
X034405Y014147D01*
X034405Y014305D02*
X034360Y014305D01*
X034405Y014464D02*
X034300Y014464D01*
X034405Y014622D02*
X034102Y014622D01*
X034405Y014781D02*
X032378Y014781D01*
X032537Y014939D02*
X033122Y014939D01*
X033258Y014622D02*
X032220Y014622D01*
X032061Y014464D02*
X033060Y014464D01*
X032299Y014305D02*
X031903Y014305D01*
X031744Y014147D02*
X032140Y014147D01*
X031982Y013988D02*
X031586Y013988D01*
X031427Y013830D02*
X031823Y013830D01*
X031665Y013671D02*
X031269Y013671D01*
X031256Y013513D02*
X031506Y013513D01*
X031348Y013354D02*
X031345Y013354D01*
X031625Y013037D02*
X032917Y013037D01*
X032981Y013196D02*
X031783Y013196D01*
X031942Y013354D02*
X032996Y013354D01*
X033078Y013513D02*
X032100Y013513D01*
X032259Y013671D02*
X033363Y013671D01*
X033300Y013830D02*
X032417Y013830D01*
X032576Y013988D02*
X033073Y013988D01*
X033680Y013674D02*
X033680Y013235D01*
X033680Y013235D01*
X033680Y013674D01*
X033680Y013671D02*
X033680Y013671D01*
X033680Y013513D02*
X033680Y013513D01*
X033680Y013354D02*
X033680Y013354D01*
X033680Y013196D02*
X033680Y013196D01*
X033680Y013037D02*
X033680Y013037D01*
X033680Y012879D02*
X033680Y012879D01*
X033680Y012674D02*
X033680Y012235D01*
X033680Y012235D01*
X033680Y012674D01*
X033680Y012562D02*
X033680Y012562D01*
X033680Y012403D02*
X033680Y012403D01*
X033680Y012245D02*
X033680Y012245D01*
X033680Y012086D02*
X033680Y012086D01*
X033680Y011928D02*
X033680Y011928D01*
X034255Y011928D02*
X034405Y011928D01*
X034405Y012086D02*
X034354Y012086D01*
X034380Y012245D02*
X034405Y012245D01*
X034825Y012245D02*
X036655Y012245D01*
X036180Y012174D02*
X036180Y011735D01*
X036180Y012174D01*
X036180Y012086D02*
X036180Y012086D01*
X036180Y011928D02*
X036180Y011928D01*
X036180Y011769D02*
X036180Y011769D01*
X036180Y011735D02*
X036180Y011735D01*
X035658Y012403D02*
X035442Y012403D01*
X034918Y012403D02*
X034825Y012403D01*
X034825Y012086D02*
X034909Y012086D01*
X034405Y011294D02*
X032743Y011294D01*
X032901Y011135D02*
X034405Y011135D01*
X034405Y010977D02*
X033060Y010977D01*
X033218Y010818D02*
X034405Y010818D01*
X034323Y010660D02*
X033568Y010660D01*
X033723Y010501D02*
X034165Y010501D01*
X034006Y010343D02*
X033760Y010343D01*
X033725Y010184D02*
X033848Y010184D01*
X033689Y010025D02*
X033583Y010025D01*
X033531Y009867D02*
X033499Y009867D01*
X033463Y008440D02*
X035620Y008440D01*
X035762Y008123D02*
X033146Y008123D01*
X032987Y007965D02*
X035561Y007965D01*
X035500Y007806D02*
X032829Y007806D01*
X032670Y007648D02*
X035501Y007648D01*
X035571Y007489D02*
X032979Y007489D01*
X033101Y007331D02*
X035708Y007331D01*
X035549Y007172D02*
X033130Y007172D01*
X033087Y007014D02*
X035391Y007014D01*
X035232Y006855D02*
X032904Y006855D01*
X032574Y006697D02*
X035074Y006697D01*
X034915Y006538D02*
X032416Y006538D01*
X032257Y006380D02*
X034757Y006380D01*
X034598Y006221D02*
X032099Y006221D01*
X032169Y006063D02*
X032023Y006063D01*
X032651Y006063D02*
X034440Y006063D01*
X034281Y005904D02*
X032754Y005904D01*
X032770Y005746D02*
X034123Y005746D01*
X033964Y005587D02*
X032712Y005587D01*
X032341Y005429D02*
X033806Y005429D01*
X033647Y005270D02*
X032183Y005270D01*
X032024Y005112D02*
X033489Y005112D01*
X033330Y004953D02*
X031866Y004953D01*
X031707Y004795D02*
X033172Y004795D01*
X033013Y004636D02*
X028240Y004636D01*
X028398Y004478D02*
X032855Y004478D01*
X032696Y004319D02*
X028557Y004319D01*
X028715Y004161D02*
X031280Y004161D01*
X031046Y004002D02*
X028874Y004002D01*
X029032Y003844D02*
X030969Y003844D01*
X030960Y003685D02*
X029191Y003685D01*
X029073Y003210D02*
X028999Y003210D01*
X028999Y003051D02*
X031095Y003051D01*
X030989Y002893D02*
X028943Y002893D01*
X028877Y002734D02*
X030960Y002734D01*
X030989Y002576D02*
X028741Y002576D01*
X028547Y002417D02*
X031095Y002417D01*
X032265Y002417D02*
X035001Y002417D01*
X034882Y002576D02*
X032371Y002576D01*
X032400Y002734D02*
X034806Y002734D01*
X034763Y002893D02*
X032371Y002893D01*
X032265Y003051D02*
X035600Y003051D01*
X035600Y002893D02*
X035760Y002893D01*
X035760Y003051D02*
X038788Y003051D01*
X039572Y003051D02*
X039900Y003051D01*
X039900Y002893D02*
X039801Y002893D01*
X038510Y001625D02*
X002850Y001625D01*
X003085Y002259D02*
X035196Y002259D01*
X035600Y002259D02*
X035760Y002259D01*
X035760Y002417D02*
X035600Y002417D01*
X035600Y002576D02*
X035760Y002576D01*
X035760Y002734D02*
X035600Y002734D01*
X034762Y003210D02*
X032552Y003210D01*
X032711Y003368D02*
X034805Y003368D01*
X034879Y003527D02*
X032869Y003527D01*
X033028Y003685D02*
X034997Y003685D01*
X035955Y004002D02*
X036681Y004002D01*
X036660Y004161D02*
X036113Y004161D01*
X036272Y004319D02*
X036660Y004319D01*
X036686Y004478D02*
X036430Y004478D01*
X036589Y004636D02*
X036751Y004636D01*
X036747Y004795D02*
X036843Y004795D01*
X036715Y005429D02*
X037418Y005429D01*
X037576Y005587D02*
X036715Y005587D01*
X036674Y005746D02*
X037735Y005746D01*
X037893Y005904D02*
X036616Y005904D01*
X036524Y006063D02*
X038052Y006063D01*
X038210Y006221D02*
X036377Y006221D01*
X036148Y006380D02*
X038369Y006380D01*
X038527Y006538D02*
X035623Y006538D01*
X035781Y006697D02*
X038686Y006697D01*
X038844Y006855D02*
X035940Y006855D01*
X036098Y007014D02*
X039003Y007014D01*
X039161Y007172D02*
X037967Y007172D01*
X038125Y007331D02*
X038743Y007331D01*
X038554Y007489D02*
X038284Y007489D01*
X038442Y007648D02*
X038488Y007648D01*
X038052Y007965D02*
X036799Y007965D01*
X036860Y007806D02*
X037893Y007806D01*
X037735Y007648D02*
X036859Y007648D01*
X036598Y008123D02*
X038210Y008123D01*
X038369Y008282D02*
X033304Y008282D01*
X032561Y007489D02*
X032512Y007489D01*
X032439Y007331D02*
X032353Y007331D01*
X032410Y007172D02*
X032195Y007172D01*
X032101Y007014D02*
X032298Y007014D01*
X031680Y006734D02*
X031680Y006734D01*
X031185Y006734D01*
X031185Y006529D01*
X031260Y006454D01*
X010929Y006454D01*
X010834Y006550D01*
X010797Y006565D01*
X011917Y007684D01*
X012007Y007684D01*
X012139Y007739D01*
X012240Y007841D01*
X012269Y007909D01*
X013063Y007114D01*
X022751Y007114D01*
X022846Y007019D01*
X022978Y006964D01*
X023122Y006964D01*
X023254Y007019D01*
X023355Y007121D01*
X023384Y007189D01*
X023548Y007024D01*
X027087Y007024D01*
X027055Y006946D01*
X027055Y006803D01*
X027110Y006671D01*
X027211Y006569D01*
X027343Y006514D01*
X027487Y006514D01*
X027619Y006569D01*
X027714Y006664D01*
X030472Y006664D01*
X030595Y006788D01*
X030787Y006979D01*
X031225Y006979D01*
X031185Y006940D01*
X031185Y006734D01*
X031680Y006734D01*
X031185Y006697D02*
X030504Y006697D01*
X030663Y006855D02*
X031185Y006855D01*
X031185Y006538D02*
X027545Y006538D01*
X027285Y006538D02*
X010845Y006538D01*
X010929Y006697D02*
X027099Y006697D01*
X027055Y006855D02*
X011088Y006855D01*
X011246Y007014D02*
X022859Y007014D01*
X023241Y007014D02*
X027083Y007014D01*
X026470Y004319D02*
X027963Y004319D01*
X028122Y004161D02*
X026457Y004161D01*
X026357Y004002D02*
X027663Y004002D01*
X027460Y003844D02*
X005900Y003844D01*
X006027Y003717D02*
X005773Y003971D01*
X005442Y004108D01*
X005083Y004108D01*
X004752Y003971D01*
X004499Y003717D01*
X004361Y003386D01*
X004361Y003028D01*
X004499Y002696D01*
X004752Y002443D01*
X005083Y002306D01*
X005442Y002306D01*
X005773Y002443D01*
X006027Y002696D01*
X006164Y003028D01*
X006164Y003386D01*
X006027Y003717D01*
X006040Y003685D02*
X027320Y003685D01*
X027254Y003527D02*
X006106Y003527D01*
X006164Y003368D02*
X027196Y003368D01*
X027196Y003210D02*
X006164Y003210D01*
X006164Y003051D02*
X027196Y003051D01*
X027252Y002893D02*
X006108Y002893D01*
X006043Y002734D02*
X027317Y002734D01*
X027454Y002576D02*
X005906Y002576D01*
X005712Y002417D02*
X027648Y002417D01*
X032080Y004161D02*
X032538Y004161D01*
X036170Y003844D02*
X036747Y003844D01*
X036832Y003685D02*
X036363Y003685D01*
X036481Y003527D02*
X036990Y003527D01*
X037283Y003368D02*
X036555Y003368D01*
X036740Y008440D02*
X038527Y008440D01*
X038522Y008599D02*
X036838Y008599D01*
X036860Y008757D02*
X038500Y008757D01*
X038541Y008916D02*
X036819Y008916D01*
X036694Y009074D02*
X038666Y009074D01*
X038644Y009391D02*
X036691Y009391D01*
X036818Y009550D02*
X038520Y009550D01*
X038480Y009708D02*
X036860Y009708D01*
X036840Y009867D02*
X038500Y009867D01*
X038480Y009734D02*
X039180Y009734D01*
X039180Y009294D01*
X039180Y009734D01*
X039180Y009734D01*
X038480Y009734D01*
X038589Y010025D02*
X036743Y010025D01*
X036781Y010184D02*
X038614Y010184D01*
X038455Y010343D02*
X036940Y010343D01*
X037098Y010501D02*
X038320Y010501D01*
X038320Y010660D02*
X037255Y010660D01*
X037255Y010818D02*
X038320Y010818D01*
X038284Y010977D02*
X037255Y010977D01*
X037255Y011135D02*
X038184Y011135D01*
X038170Y011294D02*
X037255Y011294D01*
X037255Y011452D02*
X038233Y011452D01*
X038517Y011611D02*
X037255Y011611D01*
X037255Y011769D02*
X038500Y011769D01*
X038545Y011928D02*
X037255Y011928D01*
X037255Y012086D02*
X038678Y012086D01*
X038836Y012314D02*
X038682Y012378D01*
X038564Y012497D01*
X038500Y012651D01*
X038500Y012818D01*
X038564Y012972D01*
X038682Y013091D01*
X038836Y013154D01*
X039524Y013154D01*
X039678Y013091D01*
X039796Y012972D01*
X039860Y012818D01*
X039860Y012651D01*
X039796Y012497D01*
X039678Y012378D01*
X039524Y012314D01*
X038836Y012314D01*
X038658Y012403D02*
X037255Y012403D01*
X037255Y012245D02*
X039900Y012245D01*
X039900Y012403D02*
X039702Y012403D01*
X039823Y012562D02*
X039900Y012562D01*
X039900Y012720D02*
X039860Y012720D01*
X039835Y012879D02*
X039900Y012879D01*
X039900Y013037D02*
X039731Y013037D01*
X039900Y013196D02*
X037141Y013196D01*
X037255Y013037D02*
X038629Y013037D01*
X038525Y012879D02*
X037255Y012879D01*
X037255Y012720D02*
X038500Y012720D01*
X038537Y012562D02*
X037255Y012562D01*
X036982Y013354D02*
X038741Y013354D01*
X038682Y013378D02*
X038836Y013314D01*
X039524Y013314D01*
X039678Y013378D01*
X039796Y013497D01*
X039860Y013651D01*
X039860Y013818D01*
X039796Y013972D01*
X039678Y014091D01*
X039524Y014154D01*
X038836Y014154D01*
X038682Y014091D01*
X038564Y013972D01*
X038500Y013818D01*
X038500Y013651D01*
X038564Y013497D01*
X038682Y013378D01*
X038557Y013513D02*
X036824Y013513D01*
X036860Y013671D02*
X038500Y013671D01*
X038505Y013830D02*
X036855Y013830D01*
X036780Y013988D02*
X038580Y013988D01*
X038817Y014147D02*
X036543Y014147D01*
X036763Y014464D02*
X038597Y014464D01*
X038564Y014497D02*
X038682Y014378D01*
X038836Y014314D01*
X039524Y014314D01*
X039678Y014378D01*
X039796Y014497D01*
X039860Y014651D01*
X039860Y014818D01*
X039796Y014972D01*
X039678Y015091D01*
X039524Y015154D01*
X038836Y015154D01*
X038682Y015091D01*
X038564Y014972D01*
X038500Y014818D01*
X038500Y014651D01*
X038564Y014497D01*
X038512Y014622D02*
X036848Y014622D01*
X036860Y014781D02*
X038500Y014781D01*
X038550Y014939D02*
X036810Y014939D01*
X036661Y015098D02*
X037988Y015098D01*
X038011Y015074D02*
X037910Y015176D01*
X037855Y015308D01*
X037855Y015451D01*
X037910Y015583D01*
X038011Y015685D01*
X038143Y015739D01*
X038287Y015739D01*
X038419Y015685D01*
X038514Y015589D01*
X038525Y015589D01*
X038500Y015651D01*
X038500Y015818D01*
X038564Y015972D01*
X038682Y016091D01*
X038836Y016154D01*
X039524Y016154D01*
X039678Y016091D01*
X039796Y015972D01*
X039860Y015818D01*
X039860Y015651D01*
X039796Y015497D01*
X039678Y015378D01*
X039524Y015314D01*
X039077Y015314D01*
X038932Y015169D01*
X038514Y015169D01*
X038419Y015074D01*
X038287Y015019D01*
X038143Y015019D01*
X038011Y015074D01*
X037876Y015256D02*
X036814Y015256D01*
X036972Y015415D02*
X037855Y015415D01*
X037905Y015573D02*
X037523Y015573D01*
X037619Y015732D02*
X038124Y015732D01*
X038306Y015732D02*
X038500Y015732D01*
X038530Y015890D02*
X037630Y015890D01*
X037786Y016049D02*
X038640Y016049D01*
X038713Y016366D02*
X038103Y016366D01*
X038262Y016524D02*
X038553Y016524D01*
X038500Y016683D02*
X038420Y016683D01*
X038896Y017158D02*
X039900Y017158D01*
X039900Y017000D02*
X039769Y017000D01*
X039850Y016841D02*
X039900Y016841D01*
X039900Y016683D02*
X039860Y016683D01*
X039900Y016524D02*
X039807Y016524D01*
X039900Y016366D02*
X039647Y016366D01*
X039900Y016207D02*
X037945Y016207D01*
X038442Y015098D02*
X038699Y015098D01*
X039019Y015256D02*
X039900Y015256D01*
X039900Y015098D02*
X039661Y015098D01*
X039810Y014939D02*
X039900Y014939D01*
X039900Y014781D02*
X039860Y014781D01*
X039848Y014622D02*
X039900Y014622D01*
X039900Y014464D02*
X039763Y014464D01*
X039900Y014305D02*
X035545Y014305D01*
X035545Y014147D02*
X035817Y014147D01*
X035580Y013988D02*
X035545Y013988D01*
X035125Y013988D02*
X034825Y013988D01*
X034825Y013830D02*
X035125Y013830D01*
X035126Y013671D02*
X034825Y013671D01*
X034825Y013513D02*
X035285Y013513D01*
X035443Y013354D02*
X034825Y013354D01*
X034825Y013196D02*
X035602Y013196D01*
X035629Y013037D02*
X035471Y013037D01*
X034889Y013037D02*
X034825Y013037D01*
X034825Y014147D02*
X035125Y014147D01*
X035125Y014305D02*
X034825Y014305D01*
X034825Y014464D02*
X035125Y014464D01*
X035125Y014622D02*
X034825Y014622D01*
X034825Y014781D02*
X035125Y014781D01*
X035125Y014939D02*
X034825Y014939D01*
X034825Y015098D02*
X035125Y015098D01*
X035125Y015256D02*
X034825Y015256D01*
X034825Y015415D02*
X035125Y015415D01*
X035125Y015573D02*
X034825Y015573D01*
X034702Y015724D02*
X034702Y015724D01*
X034695Y015732D02*
X035125Y015732D01*
X035125Y015890D02*
X034536Y015890D01*
X034378Y016049D02*
X035125Y016049D01*
X035125Y016207D02*
X034360Y016207D01*
X034340Y016366D02*
X035125Y016366D01*
X035125Y016524D02*
X034244Y016524D01*
X034088Y016841D02*
X035125Y016841D01*
X035125Y016683D02*
X028650Y016683D01*
X028675Y016524D02*
X030116Y016524D01*
X030064Y016472D02*
X030000Y016318D01*
X030000Y016151D01*
X030064Y015997D01*
X030182Y015878D01*
X030336Y015814D01*
X031024Y015814D01*
X031178Y015878D01*
X031296Y015997D01*
X031360Y016151D01*
X031360Y016318D01*
X031296Y016472D01*
X031178Y016591D01*
X031024Y016654D01*
X030336Y016654D01*
X030182Y016591D01*
X030064Y016472D01*
X030020Y016366D02*
X028796Y016366D01*
X028954Y016207D02*
X030000Y016207D01*
X030042Y016049D02*
X029113Y016049D01*
X029271Y015890D02*
X030171Y015890D01*
X030165Y015573D02*
X029588Y015573D01*
X029430Y015732D02*
X034101Y015732D01*
X034195Y015573D02*
X034259Y015573D01*
X034320Y015415D02*
X034405Y015415D01*
X034405Y015256D02*
X034360Y015256D01*
X034338Y015098D02*
X034405Y015098D01*
X034405Y014939D02*
X034238Y014939D01*
X033165Y015573D02*
X031195Y015573D01*
X031320Y015415D02*
X033040Y015415D01*
X033171Y015890D02*
X031189Y015890D01*
X031318Y016049D02*
X033042Y016049D01*
X033000Y016207D02*
X031360Y016207D01*
X031340Y016366D02*
X033020Y016366D01*
X033116Y016524D02*
X031244Y016524D01*
X031088Y016841D02*
X033272Y016841D01*
X033063Y017000D02*
X031297Y017000D01*
X031360Y017158D02*
X033000Y017158D01*
X033000Y017317D02*
X031360Y017317D01*
X031293Y017475D02*
X033067Y017475D01*
X033144Y017634D02*
X031074Y017634D01*
X031250Y017951D02*
X032827Y017951D01*
X032668Y018109D02*
X031343Y018109D01*
X031360Y018268D02*
X032510Y018268D01*
X032351Y018426D02*
X031315Y018426D01*
X031184Y018585D02*
X032193Y018585D01*
X032034Y018743D02*
X029023Y018743D01*
X029035Y018902D02*
X030159Y018902D01*
X030182Y018878D02*
X030336Y018814D01*
X031024Y018814D01*
X031178Y018878D01*
X031296Y018997D01*
X031360Y019151D01*
X031360Y019318D01*
X031296Y019472D01*
X031178Y019591D01*
X031024Y019654D01*
X030336Y019654D01*
X030182Y019591D01*
X030064Y019472D01*
X030000Y019318D01*
X030000Y019151D01*
X030064Y018997D01*
X030182Y018878D01*
X030038Y019060D02*
X028969Y019060D01*
X028924Y018585D02*
X030176Y018585D01*
X030045Y018426D02*
X026725Y018426D01*
X026832Y018585D02*
X028426Y018585D01*
X028381Y019060D02*
X027001Y019060D01*
X026843Y019219D02*
X030000Y019219D01*
X030024Y019377D02*
X026684Y019377D01*
X026812Y019536D02*
X030127Y019536D01*
X030245Y019853D02*
X026846Y019853D01*
X026860Y019694D02*
X031120Y019694D01*
X031115Y019853D02*
X031120Y019853D01*
X031233Y019536D02*
X031242Y019536D01*
X031336Y019377D02*
X031400Y019377D01*
X031360Y019219D02*
X031559Y019219D01*
X031717Y019060D02*
X031322Y019060D01*
X031201Y018902D02*
X031876Y018902D01*
X032985Y017792D02*
X030340Y017792D01*
X030017Y018109D02*
X026633Y018109D01*
X026805Y017951D02*
X029702Y017951D01*
X030000Y018268D02*
X024120Y018268D01*
X024279Y018426D02*
X025635Y018426D01*
X025528Y018585D02*
X024437Y018585D01*
X024596Y018743D02*
X025500Y018743D01*
X025535Y018902D02*
X024754Y018902D01*
X024913Y019060D02*
X025295Y019060D01*
X025185Y019219D02*
X025071Y019219D01*
X025727Y018109D02*
X023962Y018109D01*
X023805Y017951D02*
X025555Y017951D01*
X025500Y017792D02*
X023860Y017792D01*
X024095Y017634D02*
X025507Y017634D01*
X025586Y017475D02*
X024202Y017475D01*
X024220Y017317D02*
X025832Y017317D01*
X025591Y017000D02*
X024070Y017000D01*
X024070Y016841D02*
X025510Y016841D01*
X025500Y016683D02*
X024070Y016683D01*
X024070Y016524D02*
X025553Y016524D01*
X025674Y016366D02*
X023928Y016366D01*
X023770Y016207D02*
X025516Y016207D01*
X025357Y016049D02*
X023748Y016049D01*
X023852Y015890D02*
X023894Y015890D01*
X023398Y015124D02*
X023233Y014959D01*
X020109Y014959D01*
X020014Y015055D01*
X019946Y015083D01*
X020017Y015154D01*
X020152Y015154D01*
X020284Y015209D01*
X020385Y015311D01*
X020440Y015443D01*
X020440Y015514D01*
X020557Y015514D01*
X020689Y015569D01*
X020790Y015671D01*
X020845Y015803D01*
X020845Y015946D01*
X020790Y016078D01*
X020689Y016180D01*
X020557Y016234D01*
X020413Y016234D01*
X020281Y016180D01*
X020186Y016084D01*
X019858Y016084D01*
X019604Y015830D01*
X019575Y015898D01*
X019474Y016000D01*
X019342Y016054D01*
X019270Y016054D01*
X019294Y016064D01*
X019395Y016166D01*
X019450Y016298D01*
X019450Y016433D01*
X019972Y016954D01*
X020107Y016954D01*
X020239Y017009D01*
X020340Y017111D01*
X020395Y017243D01*
X020395Y017386D01*
X020340Y017518D01*
X020239Y017620D01*
X020107Y017674D01*
X019963Y017674D01*
X019831Y017620D01*
X019730Y017518D01*
X019675Y017386D01*
X019675Y017251D01*
X019153Y016729D01*
X019018Y016729D01*
X018940Y016697D01*
X018940Y017015D01*
X019035Y017111D01*
X019090Y017243D01*
X019090Y017386D01*
X019035Y017518D01*
X018934Y017620D01*
X018802Y017674D01*
X018658Y017674D01*
X018526Y017620D01*
X018425Y017518D01*
X018370Y017386D01*
X018370Y017243D01*
X018425Y017111D01*
X018520Y017015D01*
X018520Y016148D01*
X018910Y015758D01*
X018910Y015623D01*
X018965Y015491D01*
X019066Y015389D01*
X019134Y015361D01*
X018883Y015109D01*
X018748Y015109D01*
X018616Y015055D01*
X018515Y014953D01*
X018460Y014821D01*
X018460Y014678D01*
X018492Y014599D01*
X017872Y014599D01*
X017918Y014618D01*
X018036Y014737D01*
X018100Y014891D01*
X018100Y015578D01*
X018036Y015732D01*
X017918Y015851D01*
X017764Y015914D01*
X017596Y015914D01*
X017442Y015851D01*
X017324Y015732D01*
X017260Y015578D01*
X017260Y015121D01*
X017100Y015281D01*
X017100Y015578D01*
X017036Y015732D01*
X016918Y015851D01*
X016801Y015899D01*
X017632Y016729D01*
X017767Y016729D01*
X017899Y016784D01*
X018000Y016886D01*
X018055Y017018D01*
X018055Y017161D01*
X018000Y017293D01*
X017899Y017395D01*
X017767Y017449D01*
X017623Y017449D01*
X017491Y017395D01*
X017470Y017374D01*
X017404Y017440D01*
X017272Y017494D01*
X017128Y017494D01*
X016996Y017440D01*
X016895Y017338D01*
X016840Y017206D01*
X016840Y017071D01*
X016588Y016819D01*
X016453Y016819D01*
X016321Y016765D01*
X016220Y016663D01*
X016165Y016531D01*
X016165Y016388D01*
X016220Y016256D01*
X016321Y016154D01*
X016421Y016113D01*
X016045Y015736D01*
X016045Y015711D01*
X016036Y015732D01*
X015918Y015851D01*
X015764Y015914D01*
X015596Y015914D01*
X015442Y015851D01*
X015324Y015732D01*
X015260Y015578D01*
X015260Y014891D01*
X015324Y014737D01*
X015442Y014618D01*
X015555Y014572D01*
X014878Y013894D01*
X014743Y013894D01*
X014611Y013840D01*
X014510Y013738D01*
X014455Y013606D01*
X014455Y013463D01*
X014510Y013331D01*
X014611Y013229D01*
X014743Y013174D01*
X014871Y013174D01*
X014748Y013051D01*
X014680Y012888D01*
X014612Y013051D01*
X014469Y013194D01*
X014281Y013272D01*
X014079Y013272D01*
X013935Y013213D01*
X014289Y013567D01*
X014344Y013589D01*
X014445Y013691D01*
X014500Y013823D01*
X014500Y013966D01*
X014445Y014098D01*
X014344Y014200D01*
X014212Y014254D01*
X014120Y014254D01*
X014120Y014417D01*
X013927Y014610D01*
X013967Y014639D01*
X014016Y014688D01*
X014056Y014744D01*
X014088Y014806D01*
X014109Y014871D01*
X014120Y014940D01*
X014120Y015234D01*
X013680Y015234D01*
X013680Y014674D01*
X013680Y014235D01*
X013680Y015234D01*
X013680Y015234D01*
X013680Y015234D01*
X014120Y015234D01*
X014120Y015529D01*
X014109Y015598D01*
X014088Y015663D01*
X014056Y015725D01*
X014016Y015781D01*
X013967Y015830D01*
X013911Y015871D01*
X013849Y015902D01*
X013783Y015924D01*
X013715Y015934D01*
X013680Y015934D01*
X013645Y015934D01*
X013641Y015934D01*
X015352Y017644D01*
X015370Y017662D01*
X015393Y017639D01*
X015449Y017598D01*
X015511Y017567D01*
X015577Y017545D01*
X015645Y017534D01*
X015680Y017534D01*
X015715Y017534D01*
X015783Y017545D01*
X015849Y017567D01*
X015911Y017598D01*
X015967Y017639D01*
X016016Y017688D01*
X016056Y017744D01*
X016088Y017806D01*
X016109Y017871D01*
X016120Y017940D01*
X016120Y018234D01*
X015680Y018234D01*
X015680Y017534D01*
X015680Y018234D01*
X015680Y018234D01*
X015680Y018234D01*
X016120Y018234D01*
X016120Y018529D01*
X016109Y018598D01*
X016088Y018663D01*
X016056Y018725D01*
X016016Y018781D01*
X015977Y018819D01*
X016383Y018819D01*
X016344Y018781D01*
X016304Y018725D01*
X016272Y018663D01*
X016251Y018598D01*
X016240Y018529D01*
X016240Y018234D01*
X016240Y017940D01*
X016251Y017871D01*
X016272Y017806D01*
X016304Y017744D01*
X016344Y017688D01*
X016393Y017639D01*
X016449Y017598D01*
X016511Y017567D01*
X016577Y017545D01*
X016645Y017534D01*
X016680Y017534D01*
X016715Y017534D01*
X016783Y017545D01*
X016849Y017567D01*
X016911Y017598D01*
X016967Y017639D01*
X017016Y017688D01*
X017056Y017744D01*
X017088Y017806D01*
X017109Y017871D01*
X017120Y017940D01*
X017120Y018234D01*
X016680Y018234D01*
X016680Y017534D01*
X016680Y018234D01*
X016680Y018234D01*
X016680Y018234D01*
X016240Y018234D01*
X016680Y018234D01*
X016680Y018234D01*
X017120Y018234D01*
X017120Y018346D01*
X017260Y018206D01*
X017260Y017891D01*
X017324Y017737D01*
X017442Y017618D01*
X017596Y017554D01*
X017764Y017554D01*
X017918Y017618D01*
X018036Y017737D01*
X018100Y017891D01*
X018100Y018020D01*
X018166Y017954D01*
X018298Y017899D01*
X018442Y017899D01*
X018574Y017954D01*
X018669Y018049D01*
X020398Y018049D01*
X020680Y017768D01*
X020680Y016418D01*
X020803Y016294D01*
X021973Y015124D01*
X023398Y015124D01*
X023371Y015098D02*
X019960Y015098D01*
X020331Y015256D02*
X021841Y015256D01*
X021683Y015415D02*
X020428Y015415D01*
X020693Y015573D02*
X021524Y015573D01*
X021366Y015732D02*
X020815Y015732D01*
X020845Y015890D02*
X021207Y015890D01*
X021049Y016049D02*
X020803Y016049D01*
X020890Y016207D02*
X020623Y016207D01*
X020732Y016366D02*
X019450Y016366D01*
X019412Y016207D02*
X020347Y016207D01*
X020680Y016524D02*
X019542Y016524D01*
X019700Y016683D02*
X020680Y016683D01*
X020680Y016841D02*
X019859Y016841D01*
X020215Y017000D02*
X020680Y017000D01*
X020680Y017158D02*
X020360Y017158D01*
X020395Y017317D02*
X020680Y017317D01*
X020680Y017475D02*
X020358Y017475D01*
X020206Y017634D02*
X020680Y017634D01*
X020655Y017792D02*
X018059Y017792D01*
X018100Y017951D02*
X018175Y017951D01*
X018565Y017951D02*
X020497Y017951D01*
X019864Y017634D02*
X018901Y017634D01*
X019053Y017475D02*
X019712Y017475D01*
X019675Y017317D02*
X019090Y017317D01*
X019055Y017158D02*
X019582Y017158D01*
X019423Y017000D02*
X018940Y017000D01*
X018940Y016841D02*
X019265Y016841D01*
X018520Y016841D02*
X017956Y016841D01*
X018047Y017000D02*
X018520Y017000D01*
X018405Y017158D02*
X018055Y017158D01*
X017977Y017317D02*
X018370Y017317D01*
X018407Y017475D02*
X017319Y017475D01*
X017427Y017634D02*
X016959Y017634D01*
X017081Y017792D02*
X017301Y017792D01*
X017260Y017951D02*
X017120Y017951D01*
X017120Y018109D02*
X017260Y018109D01*
X017198Y018268D02*
X017120Y018268D01*
X016680Y018109D02*
X016680Y018109D01*
X016680Y017951D02*
X016680Y017951D01*
X016680Y017792D02*
X016680Y017792D01*
X016680Y017634D02*
X016680Y017634D01*
X016401Y017634D02*
X015959Y017634D01*
X016081Y017792D02*
X016279Y017792D01*
X016240Y017951D02*
X016120Y017951D01*
X016120Y018109D02*
X016240Y018109D01*
X016240Y018268D02*
X016120Y018268D01*
X016120Y018426D02*
X016240Y018426D01*
X016249Y018585D02*
X016111Y018585D01*
X016043Y018743D02*
X016317Y018743D01*
X015680Y018109D02*
X015680Y018109D01*
X015680Y017951D02*
X015680Y017951D01*
X015680Y017792D02*
X015680Y017792D01*
X015680Y017634D02*
X015680Y017634D01*
X015401Y017634D02*
X015341Y017634D01*
X015183Y017475D02*
X017081Y017475D01*
X016886Y017317D02*
X015024Y017317D01*
X014866Y017158D02*
X016840Y017158D01*
X016768Y017000D02*
X014707Y017000D01*
X014549Y016841D02*
X016610Y016841D01*
X016239Y016683D02*
X014390Y016683D01*
X014232Y016524D02*
X016165Y016524D01*
X016174Y016366D02*
X014073Y016366D01*
X013915Y016207D02*
X016268Y016207D01*
X016357Y016049D02*
X013756Y016049D01*
X013680Y015934D02*
X013680Y015235D01*
X013680Y015934D01*
X013680Y015890D02*
X013680Y015890D01*
X013680Y015732D02*
X013680Y015732D01*
X013680Y015573D02*
X013680Y015573D01*
X013680Y015415D02*
X013680Y015415D01*
X013680Y015256D02*
X013680Y015256D01*
X013680Y015235D02*
X013680Y015235D01*
X013680Y015098D02*
X013680Y015098D01*
X013680Y014939D02*
X013680Y014939D01*
X013680Y014781D02*
X013680Y014781D01*
X013680Y014622D02*
X013680Y014622D01*
X013680Y014464D02*
X013680Y014464D01*
X013680Y014305D02*
X013680Y014305D01*
X013680Y014235D02*
X013680Y014235D01*
X013680Y014234D02*
X013680Y013794D01*
X013792Y013794D01*
X013830Y013702D01*
X013366Y013237D01*
X013281Y013272D01*
X013079Y013272D01*
X012891Y013194D01*
X012822Y013125D01*
X012595Y013351D01*
X012532Y013414D01*
X012742Y013414D01*
X013310Y013982D01*
X013498Y013794D01*
X013680Y013794D01*
X013680Y014234D01*
X013680Y014234D01*
X013680Y014147D02*
X013680Y014147D01*
X013680Y013988D02*
X013680Y013988D01*
X013680Y013830D02*
X013680Y013830D01*
X013800Y013671D02*
X012999Y013671D01*
X013157Y013830D02*
X013463Y013830D01*
X013641Y013513D02*
X012840Y013513D01*
X012592Y013354D02*
X013483Y013354D01*
X012894Y013196D02*
X012751Y013196D01*
X014076Y013354D02*
X014500Y013354D01*
X014466Y013196D02*
X014693Y013196D01*
X014742Y013037D02*
X014618Y013037D01*
X014455Y013513D02*
X014235Y013513D01*
X014426Y013671D02*
X014482Y013671D01*
X014500Y013830D02*
X014601Y013830D01*
X014491Y013988D02*
X014972Y013988D01*
X015130Y014147D02*
X014397Y014147D01*
X014120Y014305D02*
X015289Y014305D01*
X015447Y014464D02*
X014073Y014464D01*
X013943Y014622D02*
X014439Y014622D01*
X014442Y014618D02*
X014596Y014554D01*
X014764Y014554D01*
X014918Y014618D01*
X015036Y014737D01*
X015100Y014891D01*
X015100Y015578D01*
X015036Y015732D01*
X014918Y015851D01*
X014764Y015914D01*
X014596Y015914D01*
X014442Y015851D01*
X014324Y015732D01*
X014260Y015578D01*
X014260Y014891D01*
X014324Y014737D01*
X014442Y014618D01*
X014306Y014781D02*
X014075Y014781D01*
X014120Y014939D02*
X014260Y014939D01*
X014260Y015098D02*
X014120Y015098D01*
X014120Y015256D02*
X014260Y015256D01*
X014260Y015415D02*
X014120Y015415D01*
X014113Y015573D02*
X014260Y015573D01*
X014324Y015732D02*
X014052Y015732D01*
X013873Y015890D02*
X014537Y015890D01*
X014823Y015890D02*
X015537Y015890D01*
X015324Y015732D02*
X015036Y015732D01*
X015100Y015573D02*
X015260Y015573D01*
X015260Y015415D02*
X015100Y015415D01*
X015100Y015256D02*
X015260Y015256D01*
X015260Y015098D02*
X015100Y015098D01*
X015100Y014939D02*
X015260Y014939D01*
X015306Y014781D02*
X015054Y014781D01*
X014921Y014622D02*
X015439Y014622D01*
X016036Y015732D02*
X016045Y015732D01*
X016199Y015890D02*
X015823Y015890D01*
X016823Y015890D02*
X017537Y015890D01*
X017324Y015732D02*
X017036Y015732D01*
X017100Y015573D02*
X017260Y015573D01*
X017260Y015415D02*
X017100Y015415D01*
X017125Y015256D02*
X017260Y015256D01*
X018100Y015256D02*
X019030Y015256D01*
X019041Y015415D02*
X018100Y015415D01*
X018100Y015573D02*
X018931Y015573D01*
X018910Y015732D02*
X018036Y015732D01*
X017823Y015890D02*
X018777Y015890D01*
X018619Y016049D02*
X016951Y016049D01*
X017110Y016207D02*
X018520Y016207D01*
X018520Y016366D02*
X017268Y016366D01*
X017427Y016524D02*
X018520Y016524D01*
X018520Y016683D02*
X017585Y016683D01*
X017933Y017634D02*
X018559Y017634D01*
X019356Y016049D02*
X019822Y016049D01*
X019664Y015890D02*
X019579Y015890D01*
X018719Y015098D02*
X018100Y015098D01*
X018100Y014939D02*
X018509Y014939D01*
X018460Y014781D02*
X018054Y014781D01*
X017921Y014622D02*
X018483Y014622D01*
X015533Y011394D02*
X015469Y011330D01*
X015281Y011252D01*
X015079Y011252D01*
X014891Y011330D01*
X014748Y011473D01*
X014689Y011614D01*
X014671Y011559D01*
X014633Y011484D01*
X014584Y011417D01*
X014525Y011358D01*
X014458Y011309D01*
X014383Y011271D01*
X014304Y011245D01*
X014222Y011232D01*
X014198Y011232D01*
X014198Y011744D01*
X014162Y011744D01*
X014162Y011232D01*
X014138Y011232D01*
X014056Y011245D01*
X013977Y011271D01*
X013902Y011309D01*
X013835Y011358D01*
X013776Y011417D01*
X013727Y011484D01*
X013689Y011559D01*
X013671Y011614D01*
X013612Y011473D01*
X013469Y011330D01*
X013281Y011252D01*
X013272Y011252D01*
X013285Y011221D01*
X013285Y011078D01*
X013253Y010999D01*
X014651Y010999D01*
X014746Y011095D01*
X014878Y011149D01*
X015022Y011149D01*
X015154Y011095D01*
X015255Y010993D01*
X015310Y010861D01*
X015310Y010718D01*
X015255Y010586D01*
X015219Y010549D01*
X016342Y010549D01*
X016657Y010234D01*
X021328Y010234D01*
X021028Y010534D01*
X016393Y010534D01*
X015583Y011344D01*
X015533Y011394D01*
X015634Y011294D02*
X015382Y011294D01*
X015262Y010977D02*
X015951Y010977D01*
X015793Y011135D02*
X015057Y011135D01*
X014978Y011294D02*
X014428Y011294D01*
X014198Y011294D02*
X014162Y011294D01*
X014162Y011452D02*
X014198Y011452D01*
X014198Y011611D02*
X014162Y011611D01*
X013932Y011294D02*
X013382Y011294D01*
X013285Y011135D02*
X014843Y011135D01*
X014769Y011452D02*
X014610Y011452D01*
X014688Y011611D02*
X014691Y011611D01*
X013750Y011452D02*
X013591Y011452D01*
X013669Y011611D02*
X013672Y011611D01*
X015310Y010818D02*
X016110Y010818D01*
X016268Y010660D02*
X015286Y010660D01*
X016390Y010501D02*
X021062Y010501D01*
X021220Y010343D02*
X016549Y010343D01*
X013005Y007172D02*
X011405Y007172D01*
X011563Y007331D02*
X012847Y007331D01*
X012688Y007489D02*
X011722Y007489D01*
X011880Y007648D02*
X012530Y007648D01*
X012371Y007806D02*
X012206Y007806D01*
X009619Y007183D02*
X009605Y007168D01*
X009550Y007036D01*
X009550Y006893D01*
X009576Y006831D01*
X006880Y009526D01*
X006880Y011325D01*
X006902Y011309D01*
X006977Y011271D01*
X007056Y011245D01*
X007138Y011232D01*
X007162Y011232D01*
X007162Y011744D01*
X007198Y011744D01*
X007198Y011232D01*
X007222Y011232D01*
X007304Y011245D01*
X007383Y011271D01*
X007458Y011309D01*
X007525Y011358D01*
X007584Y011417D01*
X007633Y011484D01*
X007671Y011559D01*
X007689Y011614D01*
X007748Y011473D01*
X007891Y011330D01*
X008079Y011252D01*
X008281Y011252D01*
X008469Y011330D01*
X008612Y011473D01*
X008680Y011636D01*
X008748Y011473D01*
X008891Y011330D01*
X009079Y011252D01*
X009086Y011252D01*
X007855Y010021D01*
X007855Y009848D01*
X007855Y008948D01*
X007978Y008824D01*
X009619Y007183D01*
X009609Y007172D02*
X009234Y007172D01*
X009392Y007014D02*
X009550Y007014D01*
X009551Y006855D02*
X009565Y006855D01*
X009472Y007331D02*
X009075Y007331D01*
X008917Y007489D02*
X009313Y007489D01*
X009155Y007648D02*
X008758Y007648D01*
X008600Y007806D02*
X008996Y007806D01*
X008838Y007965D02*
X008441Y007965D01*
X008283Y008123D02*
X008679Y008123D01*
X008521Y008282D02*
X008124Y008282D01*
X007966Y008440D02*
X008362Y008440D01*
X008204Y008599D02*
X007807Y008599D01*
X007649Y008757D02*
X008045Y008757D01*
X007887Y008916D02*
X007490Y008916D01*
X007332Y009074D02*
X007855Y009074D01*
X007855Y009233D02*
X007173Y009233D01*
X007015Y009391D02*
X007855Y009391D01*
X007855Y009550D02*
X006880Y009550D01*
X006880Y009708D02*
X007855Y009708D01*
X007855Y009867D02*
X006880Y009867D01*
X006880Y010025D02*
X007859Y010025D01*
X008018Y010184D02*
X006880Y010184D01*
X006880Y010343D02*
X008176Y010343D01*
X008335Y010501D02*
X006880Y010501D01*
X006880Y010660D02*
X008493Y010660D01*
X008652Y010818D02*
X006880Y010818D01*
X006880Y010977D02*
X008810Y010977D01*
X008969Y011135D02*
X006880Y011135D01*
X006880Y011294D02*
X006932Y011294D01*
X007162Y011294D02*
X007198Y011294D01*
X007198Y011452D02*
X007162Y011452D01*
X007162Y011611D02*
X007198Y011611D01*
X007428Y011294D02*
X007978Y011294D01*
X007769Y011452D02*
X007610Y011452D01*
X007688Y011611D02*
X007691Y011611D01*
X008382Y011294D02*
X008978Y011294D01*
X008769Y011452D02*
X008591Y011452D01*
X008669Y011611D02*
X008691Y011611D01*
X005582Y008599D02*
X001460Y008599D01*
X001460Y008757D02*
X005423Y008757D01*
X005265Y008916D02*
X001460Y008916D01*
X001460Y009074D02*
X005106Y009074D01*
X004948Y009233D02*
X001460Y009233D01*
X001460Y009391D02*
X004789Y009391D01*
X004631Y009550D02*
X001460Y009550D01*
X001460Y009708D02*
X004472Y009708D01*
X004314Y009867D02*
X001460Y009867D01*
X001460Y010025D02*
X004155Y010025D01*
X003997Y010184D02*
X001460Y010184D01*
X001460Y010343D02*
X003838Y010343D01*
X003680Y010501D02*
X001460Y010501D01*
X001460Y010660D02*
X003521Y010660D01*
X003363Y010818D02*
X001460Y010818D01*
X001460Y010977D02*
X003204Y010977D01*
X003046Y011135D02*
X001460Y011135D01*
X001460Y011294D02*
X002887Y011294D01*
X002729Y011452D02*
X001460Y011452D01*
X001460Y011611D02*
X002570Y011611D01*
X002412Y011769D02*
X001460Y011769D01*
X001460Y011928D02*
X002253Y011928D01*
X002120Y012086D02*
X001460Y012086D01*
X001460Y012245D02*
X002100Y012245D01*
X002100Y012403D02*
X001460Y012403D01*
X001460Y012562D02*
X002100Y012562D01*
X002100Y012720D02*
X001460Y012720D01*
X001460Y012879D02*
X002100Y012879D01*
X002100Y013037D02*
X001460Y013037D01*
X001460Y013196D02*
X002100Y013196D01*
X002100Y013354D02*
X001460Y013354D01*
X001460Y013513D02*
X002100Y013513D01*
X002100Y013671D02*
X001460Y013671D01*
X001460Y013830D02*
X002100Y013830D01*
X002100Y013988D02*
X001460Y013988D01*
X001460Y014147D02*
X002100Y014147D01*
X002100Y014305D02*
X001460Y014305D01*
X001460Y014464D02*
X002100Y014464D01*
X002100Y014622D02*
X001460Y014622D01*
X001460Y014781D02*
X002100Y014781D01*
X002100Y014939D02*
X001460Y014939D01*
X001460Y015098D02*
X002100Y015098D01*
X002100Y015256D02*
X001460Y015256D01*
X001460Y015415D02*
X002100Y015415D01*
X002100Y015573D02*
X001460Y015573D01*
X001460Y015732D02*
X002100Y015732D01*
X002100Y015890D02*
X001460Y015890D01*
X001460Y016049D02*
X002100Y016049D01*
X002100Y016207D02*
X001460Y016207D01*
X001460Y016366D02*
X002100Y016366D01*
X002100Y016524D02*
X001460Y016524D01*
X001460Y016683D02*
X002100Y016683D01*
X002100Y016841D02*
X001460Y016841D01*
X001460Y017000D02*
X002100Y017000D01*
X002100Y017158D02*
X001460Y017158D01*
X001460Y017317D02*
X002100Y017317D01*
X002100Y017475D02*
X001460Y017475D01*
X001460Y017634D02*
X002100Y017634D01*
X002100Y017792D02*
X001460Y017792D01*
X001460Y017951D02*
X002100Y017951D01*
X002100Y018109D02*
X001460Y018109D01*
X001460Y018268D02*
X002100Y018268D01*
X002100Y018426D02*
X001460Y018426D01*
X001460Y018585D02*
X002100Y018585D01*
X002100Y018743D02*
X001460Y018743D01*
X001460Y018902D02*
X002100Y018902D01*
X002100Y019060D02*
X001460Y019060D01*
X001460Y019219D02*
X002100Y019219D01*
X002100Y019377D02*
X001460Y019377D01*
X001460Y019536D02*
X002100Y019536D01*
X002100Y019694D02*
X001460Y019694D01*
X001460Y019853D02*
X002100Y019853D01*
X002100Y020011D02*
X001460Y020011D01*
X001460Y020170D02*
X002125Y020170D01*
X002265Y020328D02*
X001460Y020328D01*
X001460Y020487D02*
X002423Y020487D01*
X002582Y020645D02*
X001460Y020645D01*
X001460Y020804D02*
X002449Y020804D01*
X002395Y020962D02*
X001460Y020962D01*
X001460Y021121D02*
X002413Y021121D01*
X002520Y021279D02*
X001460Y021279D01*
X001460Y021438D02*
X001855Y021438D01*
X001740Y021596D02*
X001460Y021596D01*
X001460Y021755D02*
X001740Y021755D01*
X001740Y021913D02*
X001460Y021913D01*
X001460Y022072D02*
X001895Y022072D01*
X002180Y022072D02*
X002180Y022072D01*
X002180Y021913D02*
X002180Y021913D01*
X002180Y021755D02*
X002180Y021755D01*
X002180Y021596D02*
X002180Y021596D01*
X002180Y021438D02*
X002180Y021438D01*
X002505Y021438D02*
X002545Y021438D01*
X002545Y022072D02*
X002465Y022072D01*
X002545Y022230D02*
X001460Y022230D01*
X001460Y022389D02*
X001932Y022389D01*
X001773Y022547D02*
X001460Y022547D01*
X001460Y022706D02*
X001760Y022706D01*
X001760Y022864D02*
X001460Y022864D01*
X001460Y023023D02*
X001874Y023023D01*
X001460Y023181D02*
X002545Y023181D01*
X002545Y023023D02*
X002486Y023023D01*
X002545Y023340D02*
X001460Y023340D01*
X001460Y023498D02*
X002545Y023498D01*
X002545Y023657D02*
X001460Y023657D01*
X001460Y023815D02*
X002545Y023815D01*
X002545Y023974D02*
X001460Y023974D01*
X001460Y024132D02*
X002616Y024132D01*
X002774Y024291D02*
X001460Y024291D01*
X001460Y024449D02*
X002111Y024449D01*
X002018Y024608D02*
X001460Y024608D01*
X001460Y024766D02*
X002000Y024766D01*
X002044Y024925D02*
X001460Y024925D01*
X001460Y025083D02*
X002175Y025083D01*
X002160Y025400D02*
X001460Y025400D01*
X001460Y025242D02*
X003130Y025242D01*
X002126Y026034D02*
X001460Y026034D01*
X001460Y025876D02*
X002024Y025876D01*
X002000Y025717D02*
X001460Y025717D01*
X001460Y025559D02*
X002038Y025559D01*
X002085Y026193D02*
X001460Y026193D01*
X001460Y026351D02*
X001926Y026351D01*
X001780Y026510D02*
X001460Y026510D01*
X001460Y026668D02*
X001780Y026668D01*
X001780Y026827D02*
X001460Y026827D01*
X001460Y026985D02*
X001780Y026985D01*
X001780Y027144D02*
X001460Y027144D01*
X001460Y027302D02*
X001780Y027302D01*
X001780Y027461D02*
X001460Y027461D01*
X001460Y027619D02*
X001780Y027619D01*
X001780Y027778D02*
X001460Y027778D01*
X001460Y027936D02*
X001780Y027936D01*
X001780Y028095D02*
X001460Y028095D01*
X001460Y028253D02*
X001780Y028253D01*
X001780Y028412D02*
X001460Y028412D01*
X001460Y028570D02*
X001780Y028570D01*
X001780Y028729D02*
X001460Y028729D01*
X001460Y028887D02*
X001780Y028887D01*
X001780Y029046D02*
X001460Y029046D01*
X001460Y029204D02*
X001780Y029204D01*
X001780Y029363D02*
X001460Y029363D01*
X001460Y029521D02*
X001780Y029521D01*
X001780Y029680D02*
X001460Y029680D01*
X001460Y029838D02*
X001780Y029838D01*
X001780Y029997D02*
X001460Y029997D01*
X001460Y030155D02*
X001780Y030155D01*
X001780Y030314D02*
X001460Y030314D01*
X001460Y030472D02*
X001780Y030472D01*
X001780Y030631D02*
X001460Y030631D01*
X001460Y030789D02*
X001780Y030789D01*
X001780Y030948D02*
X001460Y030948D01*
X001460Y031106D02*
X001780Y031106D01*
X001780Y031265D02*
X001460Y031265D01*
X001460Y031423D02*
X001780Y031423D01*
X001780Y031582D02*
X001460Y031582D01*
X001460Y031740D02*
X001780Y031740D01*
X001780Y031899D02*
X001460Y031899D01*
X001460Y032057D02*
X001780Y032057D01*
X001780Y032216D02*
X001460Y032216D01*
X001460Y032374D02*
X001780Y032374D01*
X001780Y032533D02*
X001460Y032533D01*
X001460Y032691D02*
X001780Y032691D01*
X001780Y032850D02*
X001460Y032850D01*
X001460Y033008D02*
X001780Y033008D01*
X001780Y033167D02*
X001460Y033167D01*
X001460Y033325D02*
X001864Y033325D01*
X002022Y033484D02*
X001460Y033484D01*
X001460Y033642D02*
X002181Y033642D01*
X002339Y033801D02*
X001460Y033801D01*
X001460Y033959D02*
X002498Y033959D01*
X002656Y034118D02*
X001460Y034118D01*
X001460Y034276D02*
X002815Y034276D01*
X002973Y034435D02*
X002614Y034435D01*
X002818Y034593D02*
X003132Y034593D01*
X003290Y034752D02*
X002960Y034752D01*
X003025Y034910D02*
X003449Y034910D01*
X003607Y035069D02*
X003085Y035069D01*
X003085Y035227D02*
X003766Y035227D01*
X003924Y035386D02*
X003085Y035386D01*
X003031Y035544D02*
X004083Y035544D01*
X004360Y035227D02*
X010388Y035227D01*
X010371Y035194D02*
X009989Y035194D01*
X009720Y034925D01*
X009720Y034544D01*
X009989Y034274D01*
X010371Y034274D01*
X010640Y034544D01*
X010640Y034925D01*
X010371Y035194D01*
X010496Y035069D02*
X010864Y035069D01*
X010962Y035227D02*
X011731Y035227D01*
X011889Y035386D02*
X011035Y035386D01*
X011025Y035544D02*
X012048Y035544D01*
X012206Y035703D02*
X010931Y035703D01*
X010419Y035703D02*
X002966Y035703D01*
X002833Y035861D02*
X030332Y035861D01*
X030798Y035861D02*
X038527Y035861D01*
X038394Y035703D02*
X030906Y035703D01*
X030925Y035544D02*
X038329Y035544D01*
X038275Y035386D02*
X030872Y035386D01*
X030989Y035194D02*
X030720Y034925D01*
X030720Y034544D01*
X030989Y034274D01*
X031371Y034274D01*
X031640Y034544D01*
X031640Y034925D01*
X031371Y035194D01*
X030989Y035194D01*
X030864Y035069D02*
X030496Y035069D01*
X030487Y035227D02*
X027619Y035227D01*
X027461Y035386D02*
X030242Y035386D01*
X030371Y035194D02*
X029989Y035194D01*
X029720Y034925D01*
X029720Y034544D01*
X029989Y034274D01*
X030371Y034274D01*
X030640Y034544D01*
X030640Y034925D01*
X030371Y035194D01*
X030643Y035227D02*
X038275Y035227D01*
X038275Y035069D02*
X037496Y035069D01*
X037371Y035194D02*
X036989Y035194D01*
X036720Y034925D01*
X036720Y034544D01*
X036989Y034274D01*
X037371Y034274D01*
X037640Y034544D01*
X037640Y034925D01*
X037371Y035194D01*
X037640Y034910D02*
X038335Y034910D01*
X038400Y034752D02*
X037640Y034752D01*
X037640Y034593D02*
X038542Y034593D01*
X038746Y034435D02*
X037531Y034435D01*
X037372Y034276D02*
X039900Y034276D01*
X039900Y034118D02*
X037447Y034118D01*
X037371Y034194D02*
X036989Y034194D01*
X036720Y033925D01*
X036720Y033544D01*
X036989Y033274D01*
X037371Y033274D01*
X037640Y033544D01*
X037640Y033925D01*
X037371Y034194D01*
X037606Y033959D02*
X039900Y033959D01*
X039900Y033801D02*
X037640Y033801D01*
X037640Y033642D02*
X039900Y033642D01*
X039900Y033484D02*
X037580Y033484D01*
X037421Y033325D02*
X039900Y033325D01*
X039900Y033167D02*
X036070Y033167D01*
X036228Y033008D02*
X039900Y033008D01*
X039900Y032850D02*
X036387Y032850D01*
X036545Y032691D02*
X039900Y032691D01*
X039900Y032533D02*
X036704Y032533D01*
X036862Y032374D02*
X039900Y032374D01*
X039900Y032216D02*
X037021Y032216D01*
X037179Y032057D02*
X038149Y032057D01*
X038182Y032091D02*
X038064Y031972D01*
X038000Y031818D01*
X038000Y031651D01*
X038064Y031497D01*
X038182Y031378D01*
X038336Y031314D01*
X039024Y031314D01*
X039178Y031378D01*
X039296Y031497D01*
X039360Y031651D01*
X039360Y031818D01*
X039296Y031972D01*
X039178Y032091D01*
X039024Y032154D01*
X038336Y032154D01*
X038182Y032091D01*
X038033Y031899D02*
X037338Y031899D01*
X037496Y031740D02*
X038000Y031740D01*
X038029Y031582D02*
X037655Y031582D01*
X037813Y031423D02*
X038137Y031423D01*
X037972Y031265D02*
X039900Y031265D01*
X039900Y031423D02*
X039223Y031423D01*
X039331Y031582D02*
X039900Y031582D01*
X039900Y031740D02*
X039360Y031740D01*
X039327Y031899D02*
X039900Y031899D01*
X039900Y032057D02*
X039211Y032057D01*
X039141Y031106D02*
X039900Y031106D01*
X039900Y030948D02*
X039306Y030948D01*
X039360Y030789D02*
X039900Y030789D01*
X039900Y030631D02*
X039352Y030631D01*
X039272Y030472D02*
X039900Y030472D01*
X039900Y030314D02*
X039238Y030314D01*
X039396Y030155D02*
X039900Y030155D01*
X039900Y029997D02*
X039555Y029997D01*
X039893Y029838D02*
X039900Y029838D01*
X038219Y031106D02*
X038130Y031106D01*
X036939Y033325D02*
X036421Y033325D01*
X036580Y033484D02*
X036780Y033484D01*
X036720Y033642D02*
X036640Y033642D01*
X036640Y033801D02*
X036720Y033801D01*
X036754Y033959D02*
X036606Y033959D01*
X036447Y034118D02*
X036913Y034118D01*
X036988Y034276D02*
X036372Y034276D01*
X036371Y034274D02*
X036640Y034544D01*
X036640Y034925D01*
X036371Y035194D01*
X035989Y035194D01*
X035720Y034925D01*
X035720Y034544D01*
X035989Y034274D01*
X036371Y034274D01*
X036531Y034435D02*
X036829Y034435D01*
X036720Y034593D02*
X036640Y034593D01*
X036640Y034752D02*
X036720Y034752D01*
X036720Y034910D02*
X036640Y034910D01*
X036496Y035069D02*
X036864Y035069D01*
X035864Y035069D02*
X035496Y035069D01*
X035640Y034910D02*
X035720Y034910D01*
X035720Y034752D02*
X035640Y034752D01*
X035640Y034593D02*
X035720Y034593D01*
X035829Y034435D02*
X035531Y034435D01*
X035545Y034276D02*
X035988Y034276D01*
X035913Y034118D02*
X035704Y034118D01*
X034829Y034435D02*
X034559Y034435D01*
X034660Y034593D02*
X034720Y034593D01*
X034720Y034752D02*
X034200Y034752D01*
X034160Y034752D02*
X033640Y034752D01*
X033640Y034910D02*
X033700Y034910D01*
X033835Y035069D02*
X033496Y035069D01*
X032864Y035069D02*
X032525Y035069D01*
X032660Y034933D02*
X032379Y035214D01*
X032200Y035214D01*
X032200Y034754D01*
X032660Y034754D01*
X032660Y034933D01*
X032660Y034910D02*
X032720Y034910D01*
X032720Y034752D02*
X032200Y034752D01*
X032200Y034754D02*
X032200Y034714D01*
X032200Y034254D01*
X032379Y034254D01*
X032660Y034536D01*
X032660Y034714D01*
X032200Y034714D01*
X032160Y034714D01*
X032160Y034254D01*
X031981Y034254D01*
X031700Y034536D01*
X031700Y034714D01*
X032160Y034714D01*
X032160Y034754D01*
X031700Y034754D01*
X031700Y034933D01*
X031981Y035214D01*
X032160Y035214D01*
X032160Y034754D01*
X032200Y034754D01*
X032160Y034752D02*
X031640Y034752D01*
X031640Y034910D02*
X031700Y034910D01*
X031835Y035069D02*
X031496Y035069D01*
X032160Y035069D02*
X032200Y035069D01*
X032200Y034910D02*
X032160Y034910D01*
X032160Y034593D02*
X032200Y034593D01*
X032200Y034435D02*
X032160Y034435D01*
X032160Y034276D02*
X032200Y034276D01*
X032371Y034194D02*
X031989Y034194D01*
X031720Y033925D01*
X031720Y033544D01*
X031989Y033274D01*
X032371Y033274D01*
X032640Y033544D01*
X032640Y033925D01*
X032371Y034194D01*
X032400Y034276D02*
X032988Y034276D01*
X032913Y034118D02*
X032447Y034118D01*
X032606Y033959D02*
X032754Y033959D01*
X032720Y033801D02*
X032640Y033801D01*
X032640Y033642D02*
X032720Y033642D01*
X032780Y033484D02*
X032580Y033484D01*
X032421Y033325D02*
X032939Y033325D01*
X032935Y033167D02*
X029410Y033167D01*
X029421Y033325D02*
X029939Y033325D01*
X029989Y033274D02*
X030371Y033274D01*
X030640Y033544D01*
X030640Y033925D01*
X030371Y034194D01*
X029989Y034194D01*
X029720Y033925D01*
X029720Y033544D01*
X029989Y033274D01*
X029780Y033484D02*
X029580Y033484D01*
X029640Y033642D02*
X029720Y033642D01*
X029720Y033801D02*
X029640Y033801D01*
X029606Y033959D02*
X029754Y033959D01*
X029913Y034118D02*
X029447Y034118D01*
X029371Y034274D02*
X029640Y034544D01*
X029640Y034925D01*
X029371Y035194D01*
X028989Y035194D01*
X028720Y034925D01*
X028720Y034544D01*
X028989Y034274D01*
X029371Y034274D01*
X029372Y034276D02*
X029988Y034276D01*
X029829Y034435D02*
X029531Y034435D01*
X029640Y034593D02*
X029720Y034593D01*
X029720Y034752D02*
X029640Y034752D01*
X029640Y034910D02*
X029720Y034910D01*
X029864Y035069D02*
X029496Y035069D01*
X028864Y035069D02*
X028496Y035069D01*
X028640Y034910D02*
X028720Y034910D01*
X028720Y034752D02*
X028640Y034752D01*
X028640Y034593D02*
X028720Y034593D01*
X028829Y034435D02*
X028531Y034435D01*
X028570Y034276D02*
X028988Y034276D01*
X028913Y034118D02*
X028729Y034118D01*
X027864Y035069D02*
X027778Y035069D01*
X026919Y035386D02*
X018866Y035386D01*
X019024Y035227D02*
X026761Y035227D01*
X026602Y035069D02*
X026496Y035069D01*
X025864Y035069D02*
X025525Y035069D01*
X025660Y034910D02*
X025720Y034910D01*
X025720Y034752D02*
X025200Y034752D01*
X025160Y034752D02*
X024200Y034752D01*
X024160Y034752D02*
X023640Y034752D01*
X023640Y034910D02*
X023700Y034910D01*
X023835Y035069D02*
X023496Y035069D01*
X023640Y034593D02*
X023700Y034593D01*
X023801Y034435D02*
X023531Y034435D01*
X022829Y034435D02*
X022531Y034435D01*
X022435Y034276D02*
X022372Y034276D01*
X022640Y034593D02*
X022720Y034593D01*
X022720Y034752D02*
X022640Y034752D01*
X022640Y034910D02*
X022720Y034910D01*
X022864Y035069D02*
X022496Y035069D01*
X021913Y034118D02*
X021709Y034118D01*
X020939Y033325D02*
X020421Y033325D01*
X020580Y033484D02*
X020780Y033484D01*
X020720Y033642D02*
X020640Y033642D01*
X020640Y033801D02*
X020720Y033801D01*
X020732Y033959D02*
X020754Y033959D01*
X020455Y034276D02*
X020372Y034276D01*
X020531Y034435D02*
X020801Y034435D01*
X020700Y034593D02*
X020640Y034593D01*
X019988Y034276D02*
X019372Y034276D01*
X019447Y034118D02*
X019913Y034118D01*
X019754Y033959D02*
X019606Y033959D01*
X019640Y033801D02*
X019720Y033801D01*
X019720Y033642D02*
X019640Y033642D01*
X019580Y033484D02*
X019780Y033484D01*
X019939Y033325D02*
X019421Y033325D01*
X019255Y033167D02*
X021436Y033167D01*
X021594Y033008D02*
X019255Y033008D01*
X019255Y032850D02*
X022923Y032850D01*
X023081Y032691D02*
X019255Y032691D01*
X019276Y032533D02*
X023240Y032533D01*
X023398Y032374D02*
X019385Y032374D01*
X019405Y032216D02*
X023557Y032216D01*
X023715Y032057D02*
X019353Y032057D01*
X019126Y031899D02*
X019652Y031899D01*
X019494Y031740D02*
X018355Y031740D01*
X018355Y031899D02*
X018964Y031899D01*
X018737Y032057D02*
X018355Y032057D01*
X018346Y032216D02*
X018685Y032216D01*
X018705Y032374D02*
X018187Y032374D01*
X018029Y032533D02*
X018814Y032533D01*
X018835Y032691D02*
X017870Y032691D01*
X017712Y032850D02*
X018835Y032850D01*
X018835Y033008D02*
X017553Y033008D01*
X017395Y033167D02*
X018826Y033167D01*
X018667Y033325D02*
X018421Y033325D01*
X017939Y033325D02*
X017421Y033325D01*
X017580Y033484D02*
X017780Y033484D01*
X017720Y033642D02*
X017640Y033642D01*
X017640Y033801D02*
X017720Y033801D01*
X017754Y033959D02*
X017606Y033959D01*
X017447Y034118D02*
X017913Y034118D01*
X017988Y034276D02*
X017372Y034276D01*
X017531Y034435D02*
X017829Y034435D01*
X017720Y034593D02*
X017640Y034593D01*
X017640Y034752D02*
X017720Y034752D01*
X017720Y034910D02*
X017640Y034910D01*
X017496Y035069D02*
X017864Y035069D01*
X018496Y035069D02*
X018589Y035069D01*
X018640Y034910D02*
X018720Y034910D01*
X018720Y034752D02*
X018640Y034752D01*
X018640Y034593D02*
X018720Y034593D01*
X018782Y034435D02*
X018829Y034435D01*
X018850Y034276D02*
X018988Y034276D01*
X018913Y034118D02*
X018850Y034118D01*
X019531Y034435D02*
X019829Y034435D01*
X019720Y034593D02*
X019640Y034593D01*
X019640Y034752D02*
X019720Y034752D01*
X019720Y034910D02*
X019640Y034910D01*
X019496Y035069D02*
X019864Y035069D01*
X016988Y034276D02*
X016555Y034276D01*
X016531Y034435D02*
X016829Y034435D01*
X016720Y034593D02*
X016640Y034593D01*
X016640Y034752D02*
X016720Y034752D01*
X016720Y034910D02*
X016640Y034910D01*
X016496Y035069D02*
X016864Y035069D01*
X016913Y034118D02*
X016714Y034118D01*
X018687Y031582D02*
X019335Y031582D01*
X019177Y031423D02*
X018817Y031423D01*
X018860Y031265D02*
X019018Y031265D01*
X018860Y031106D02*
X018841Y031106D01*
X020238Y031899D02*
X023874Y031899D01*
X024032Y031740D02*
X020396Y031740D01*
X020555Y031582D02*
X020673Y031582D01*
X020740Y030789D02*
X023205Y030789D01*
X023254Y030948D02*
X021747Y030948D01*
X021841Y031106D02*
X023380Y031106D01*
X023980Y031106D02*
X024352Y031106D01*
X024508Y031265D02*
X021860Y031265D01*
X021817Y031423D02*
X024349Y031423D01*
X024191Y031582D02*
X021687Y031582D01*
X020779Y030631D02*
X020740Y030631D01*
X020740Y029838D02*
X020780Y029838D01*
X020740Y029680D02*
X022133Y029680D01*
X021974Y029838D02*
X021580Y029838D01*
X021796Y029997D02*
X021816Y029997D01*
X022093Y030314D02*
X023455Y030314D01*
X023896Y030155D02*
X022251Y030155D01*
X022410Y029997D02*
X024054Y029997D01*
X024213Y029838D02*
X022568Y029838D01*
X022727Y029680D02*
X024371Y029680D01*
X024530Y029521D02*
X022885Y029521D01*
X023044Y029363D02*
X024688Y029363D01*
X024847Y029204D02*
X023202Y029204D01*
X023361Y029046D02*
X025044Y029046D01*
X025079Y029680D02*
X027000Y029680D01*
X027008Y029838D02*
X024920Y029838D01*
X024762Y029997D02*
X027088Y029997D01*
X027088Y030472D02*
X025118Y030472D01*
X024959Y030314D02*
X027787Y030314D01*
X027629Y030155D02*
X024603Y030155D01*
X024680Y030314D02*
X024680Y030314D01*
X024680Y030472D02*
X024680Y030472D01*
X024680Y030631D02*
X024680Y030631D01*
X024185Y030631D02*
X024151Y030631D01*
X024155Y030789D02*
X024185Y030789D01*
X024193Y030948D02*
X024106Y030948D01*
X022450Y029363D02*
X021842Y029363D01*
X021860Y029204D02*
X022608Y029204D01*
X022767Y029046D02*
X021816Y029046D01*
X021809Y028887D02*
X022925Y028887D01*
X023084Y028729D02*
X021968Y028729D01*
X022045Y028570D02*
X023242Y028570D01*
X023401Y028412D02*
X022045Y028412D01*
X022045Y028253D02*
X023559Y028253D01*
X023718Y028095D02*
X022062Y028095D01*
X022220Y027936D02*
X023876Y027936D01*
X024035Y027778D02*
X022379Y027778D01*
X022537Y027619D02*
X024193Y027619D01*
X024352Y027461D02*
X022696Y027461D01*
X022854Y027302D02*
X024510Y027302D01*
X024669Y027144D02*
X023013Y027144D01*
X023171Y026985D02*
X024827Y026985D01*
X024986Y026827D02*
X023330Y026827D01*
X023488Y026668D02*
X025144Y026668D01*
X025303Y026510D02*
X023647Y026510D01*
X023805Y026351D02*
X025461Y026351D01*
X025620Y026193D02*
X023964Y026193D01*
X024122Y026034D02*
X024357Y026034D01*
X024680Y026034D02*
X024680Y026034D01*
X024680Y026174D02*
X024680Y025735D01*
X024680Y025735D01*
X024680Y026174D01*
X024680Y025876D02*
X024680Y025876D01*
X025003Y026034D02*
X025386Y026034D01*
X025260Y025876D02*
X025120Y025876D01*
X025120Y025717D02*
X025260Y025717D01*
X025262Y025559D02*
X025120Y025559D01*
X024968Y025400D02*
X025420Y025400D01*
X025675Y025083D02*
X025073Y025083D01*
X024915Y025242D02*
X026571Y025242D01*
X026685Y025083D02*
X027175Y025083D01*
X027044Y024925D02*
X026816Y024925D01*
X026860Y024766D02*
X027000Y024766D01*
X027018Y024608D02*
X026842Y024608D01*
X026749Y024449D02*
X027111Y024449D01*
X026578Y024132D02*
X028805Y024132D01*
X028647Y024291D02*
X025885Y024291D01*
X025565Y023974D02*
X024655Y023974D01*
X024655Y024132D02*
X025219Y024132D01*
X025165Y024291D02*
X024655Y024291D01*
X024655Y024449D02*
X025113Y024449D01*
X024955Y024608D02*
X024655Y024608D01*
X024655Y024766D02*
X024796Y024766D01*
X025232Y024925D02*
X025544Y024925D01*
X025500Y024766D02*
X025390Y024766D01*
X025940Y025400D02*
X026412Y025400D01*
X026254Y025559D02*
X026098Y025559D01*
X026531Y025876D02*
X027024Y025876D01*
X027000Y025717D02*
X026689Y025717D01*
X026848Y025559D02*
X027038Y025559D01*
X027126Y026034D02*
X026372Y026034D01*
X026214Y026193D02*
X029190Y026193D01*
X029190Y026351D02*
X028112Y026351D01*
X028178Y026378D02*
X028296Y026497D01*
X028360Y026651D01*
X028360Y026818D01*
X028296Y026972D01*
X028178Y027091D01*
X028024Y027154D01*
X027336Y027154D01*
X027182Y027091D01*
X027064Y026972D01*
X027000Y026818D01*
X027000Y026651D01*
X027064Y026497D01*
X027182Y026378D01*
X027336Y026314D01*
X028024Y026314D01*
X028178Y026378D01*
X028301Y026510D02*
X029190Y026510D01*
X029190Y026668D02*
X028360Y026668D01*
X028356Y026827D02*
X029190Y026827D01*
X029190Y026985D02*
X028283Y026985D01*
X028050Y027144D02*
X029190Y027144D01*
X029190Y027302D02*
X025104Y027302D01*
X024946Y027461D02*
X027100Y027461D01*
X027064Y027497D02*
X027182Y027378D01*
X027336Y027314D01*
X028024Y027314D01*
X028178Y027378D01*
X028296Y027497D01*
X028360Y027651D01*
X028360Y027818D01*
X028296Y027972D01*
X028178Y028091D01*
X028024Y028154D01*
X027336Y028154D01*
X027182Y028091D01*
X027064Y027972D01*
X027000Y027818D01*
X027000Y027651D01*
X027064Y027497D01*
X027013Y027619D02*
X024787Y027619D01*
X024629Y027778D02*
X027000Y027778D01*
X027049Y027936D02*
X024470Y027936D01*
X024312Y028095D02*
X027192Y028095D01*
X027149Y028412D02*
X023995Y028412D01*
X023836Y028570D02*
X027034Y028570D01*
X027000Y028729D02*
X023678Y028729D01*
X023519Y028887D02*
X027029Y028887D01*
X028168Y028095D02*
X029190Y028095D01*
X029190Y028253D02*
X024153Y028253D01*
X025263Y027144D02*
X027310Y027144D01*
X027077Y026985D02*
X025421Y026985D01*
X025580Y026827D02*
X027004Y026827D01*
X027000Y026668D02*
X025738Y026668D01*
X025897Y026510D02*
X027059Y026510D01*
X027248Y026351D02*
X026055Y026351D01*
X028234Y026034D02*
X029190Y026034D01*
X029190Y025876D02*
X028336Y025876D01*
X028360Y025717D02*
X029190Y025717D01*
X029190Y025559D02*
X028322Y025559D01*
X028200Y025400D02*
X029190Y025400D01*
X029190Y025242D02*
X028290Y025242D01*
X028448Y025083D02*
X029190Y025083D01*
X029190Y024925D02*
X028607Y024925D01*
X028765Y024766D02*
X029190Y024766D01*
X029190Y024608D02*
X028924Y024608D01*
X029082Y024449D02*
X029190Y024449D01*
X028964Y023974D02*
X026795Y023974D01*
X026860Y023815D02*
X029122Y023815D01*
X029281Y023657D02*
X026860Y023657D01*
X026797Y023498D02*
X029439Y023498D01*
X029598Y023340D02*
X026584Y023340D01*
X026746Y023023D02*
X029915Y023023D01*
X029756Y023181D02*
X024655Y023181D01*
X024655Y023023D02*
X025614Y023023D01*
X025519Y022864D02*
X024655Y022864D01*
X024655Y022706D02*
X025500Y022706D01*
X025543Y022547D02*
X024655Y022547D01*
X024655Y022389D02*
X025442Y022389D01*
X025284Y022230D02*
X024655Y022230D01*
X024655Y022072D02*
X025125Y022072D01*
X024967Y021913D02*
X024655Y021913D01*
X024655Y021755D02*
X024808Y021755D01*
X024655Y023340D02*
X025776Y023340D01*
X025563Y023498D02*
X024655Y023498D01*
X024655Y023657D02*
X025500Y023657D01*
X025500Y023815D02*
X024655Y023815D01*
X026841Y022864D02*
X030073Y022864D01*
X030232Y022706D02*
X026860Y022706D01*
X026817Y022547D02*
X030390Y022547D01*
X030549Y022389D02*
X026688Y022389D01*
X026801Y022230D02*
X030707Y022230D01*
X030866Y022072D02*
X026960Y022072D01*
X027118Y021913D02*
X031024Y021913D01*
X031120Y021755D02*
X027277Y021755D01*
X027435Y021596D02*
X030169Y021596D01*
X030030Y021438D02*
X027594Y021438D01*
X027752Y021279D02*
X029982Y021279D01*
X029980Y021234D02*
X030680Y021234D01*
X030680Y020794D01*
X030680Y021234D01*
X030680Y021234D01*
X029980Y021234D01*
X029994Y021121D02*
X028072Y021121D01*
X028269Y020962D02*
X030074Y020962D01*
X030328Y020804D02*
X028315Y020804D01*
X028289Y020645D02*
X030314Y020645D01*
X030078Y020487D02*
X028171Y020487D01*
X027739Y020487D02*
X027040Y020487D01*
X027040Y020645D02*
X027621Y020645D01*
X027595Y020804D02*
X027040Y020804D01*
X027040Y020962D02*
X027475Y020962D01*
X027317Y021121D02*
X026921Y021121D01*
X026762Y021279D02*
X027158Y021279D01*
X027000Y021438D02*
X026737Y021438D01*
X026837Y021596D02*
X026841Y021596D01*
X026901Y020328D02*
X030004Y020328D01*
X030000Y020170D02*
X026742Y020170D01*
X026757Y020011D02*
X030058Y020011D01*
X030680Y020804D02*
X030680Y020804D01*
X030680Y020962D02*
X030680Y020962D01*
X030680Y021121D02*
X030680Y021121D01*
X030680Y021234D02*
X030680Y021234D01*
X030680Y021235D02*
X030680Y021674D01*
X030680Y021235D01*
X030680Y021235D01*
X030680Y021279D02*
X030680Y021279D01*
X030680Y021438D02*
X030680Y021438D01*
X030680Y021596D02*
X030680Y021596D01*
X031032Y020804D02*
X031120Y020804D01*
X031120Y020645D02*
X031046Y020645D01*
X032912Y021844D02*
X033120Y022052D01*
X033120Y022234D01*
X032680Y022234D01*
X032680Y022234D01*
X033120Y022234D01*
X033120Y022417D01*
X032862Y022674D01*
X032680Y022674D01*
X032545Y022674D01*
X032545Y022741D01*
X032490Y022873D01*
X032395Y022969D01*
X032395Y023783D01*
X033523Y022654D01*
X033506Y022654D01*
X033260Y022408D01*
X033260Y022061D01*
X033476Y021844D01*
X032912Y021844D01*
X032981Y021913D02*
X033408Y021913D01*
X033260Y022072D02*
X033120Y022072D01*
X033120Y022230D02*
X033260Y022230D01*
X033260Y022389D02*
X033120Y022389D01*
X032990Y022547D02*
X033399Y022547D01*
X033472Y022706D02*
X032545Y022706D01*
X032680Y022674D02*
X032680Y022235D01*
X032680Y022235D01*
X032680Y022674D01*
X032680Y022547D02*
X032680Y022547D01*
X032680Y022389D02*
X032680Y022389D01*
X032494Y022864D02*
X033313Y022864D01*
X033155Y023023D02*
X032395Y023023D01*
X032395Y023181D02*
X032996Y023181D01*
X032838Y023340D02*
X032395Y023340D01*
X032395Y023498D02*
X032679Y023498D01*
X032521Y023657D02*
X032395Y023657D01*
X028488Y024449D02*
X028249Y024449D01*
X028260Y027461D02*
X029190Y027461D01*
X029190Y027619D02*
X028347Y027619D01*
X028360Y027778D02*
X029190Y027778D01*
X029190Y027936D02*
X028311Y027936D01*
X028211Y028412D02*
X029190Y028412D01*
X029190Y028570D02*
X028326Y028570D01*
X028360Y028729D02*
X029190Y028729D01*
X029190Y028887D02*
X028331Y028887D01*
X029885Y032691D02*
X029929Y032691D01*
X030094Y032850D02*
X029727Y032850D01*
X029568Y033008D02*
X032777Y033008D01*
X032618Y032850D02*
X030406Y032850D01*
X030421Y033325D02*
X030939Y033325D01*
X030989Y033274D02*
X031371Y033274D01*
X031640Y033544D01*
X031640Y033925D01*
X031371Y034194D01*
X030989Y034194D01*
X030720Y033925D01*
X030720Y033544D01*
X030989Y033274D01*
X030780Y033484D02*
X030580Y033484D01*
X030640Y033642D02*
X030720Y033642D01*
X030720Y033801D02*
X030640Y033801D01*
X030606Y033959D02*
X030754Y033959D01*
X030913Y034118D02*
X030447Y034118D01*
X030372Y034276D02*
X030988Y034276D01*
X030829Y034435D02*
X030531Y034435D01*
X030640Y034593D02*
X030720Y034593D01*
X030720Y034752D02*
X030640Y034752D01*
X030640Y034910D02*
X030720Y034910D01*
X031372Y034276D02*
X031960Y034276D01*
X031913Y034118D02*
X031447Y034118D01*
X031606Y033959D02*
X031754Y033959D01*
X031720Y033801D02*
X031640Y033801D01*
X031640Y033642D02*
X031720Y033642D01*
X031780Y033484D02*
X031580Y033484D01*
X031421Y033325D02*
X031939Y033325D01*
X031801Y034435D02*
X031531Y034435D01*
X031640Y034593D02*
X031700Y034593D01*
X032559Y034435D02*
X032829Y034435D01*
X032720Y034593D02*
X032660Y034593D01*
X033531Y034435D02*
X033801Y034435D01*
X033700Y034593D02*
X033640Y034593D01*
X034160Y034910D02*
X034200Y034910D01*
X034200Y035069D02*
X034160Y035069D01*
X034525Y035069D02*
X034864Y035069D01*
X034720Y034910D02*
X034660Y034910D01*
X039614Y034435D02*
X039900Y034435D01*
X039900Y034593D02*
X039818Y034593D01*
X025829Y034435D02*
X025559Y034435D01*
X025660Y034593D02*
X025720Y034593D01*
X025200Y034910D02*
X025160Y034910D01*
X025160Y035069D02*
X025200Y035069D01*
X024835Y035069D02*
X024525Y035069D01*
X024660Y034910D02*
X024700Y034910D01*
X024700Y034593D02*
X024660Y034593D01*
X024559Y034435D02*
X024801Y034435D01*
X024200Y034910D02*
X024160Y034910D01*
X024160Y035069D02*
X024200Y035069D01*
X022291Y029521D02*
X021747Y029521D01*
X018717Y021739D02*
X014468Y021739D01*
X014500Y021661D01*
X014500Y021526D01*
X014619Y021408D01*
X014656Y021445D01*
X014788Y021499D01*
X014932Y021499D01*
X015064Y021445D01*
X015165Y021343D01*
X015220Y021211D01*
X015220Y021068D01*
X015165Y020936D01*
X015064Y020834D01*
X014932Y020779D01*
X014788Y020779D01*
X014656Y020834D01*
X014561Y020929D01*
X014503Y020929D01*
X014203Y021229D01*
X014068Y021229D01*
X013936Y021284D01*
X013835Y021386D01*
X013780Y021518D01*
X013780Y021661D01*
X013812Y021739D01*
X012028Y021739D01*
X011905Y021863D01*
X011545Y022223D01*
X011545Y022258D01*
X011536Y022237D01*
X011425Y022126D01*
X011425Y020641D01*
X011820Y020247D01*
X011844Y020281D01*
X011893Y020330D01*
X011949Y020371D01*
X012011Y020402D01*
X012077Y020424D01*
X012145Y020434D01*
X012180Y020434D01*
X012180Y019735D01*
X012180Y020434D01*
X012215Y020434D01*
X012283Y020424D01*
X012349Y020402D01*
X012411Y020371D01*
X012467Y020330D01*
X012516Y020281D01*
X012556Y020225D01*
X012588Y020163D01*
X012609Y020098D01*
X012620Y020029D01*
X012620Y019734D01*
X012180Y019734D01*
X012180Y019034D01*
X012215Y019034D01*
X012283Y019045D01*
X012349Y019067D01*
X012411Y019098D01*
X012467Y019139D01*
X012516Y019188D01*
X012556Y019244D01*
X012588Y019306D01*
X012609Y019371D01*
X012620Y019440D01*
X012620Y019734D01*
X012180Y019734D01*
X012180Y019734D01*
X012180Y019034D01*
X012145Y019034D01*
X012077Y019045D01*
X012011Y019067D01*
X011965Y019090D01*
X011965Y019066D01*
X012157Y018874D01*
X012182Y018849D01*
X012433Y019099D01*
X013153Y019099D01*
X013959Y019906D01*
X013891Y019934D01*
X013790Y020036D01*
X013735Y020168D01*
X013735Y020311D01*
X013790Y020443D01*
X013891Y020545D01*
X014023Y020599D01*
X014167Y020599D01*
X014299Y020545D01*
X014349Y020494D01*
X017653Y020494D01*
X018685Y021526D01*
X018685Y021661D01*
X018717Y021739D01*
X018685Y021596D02*
X014500Y021596D01*
X014589Y021438D02*
X014649Y021438D01*
X015071Y021438D02*
X018596Y021438D01*
X018438Y021279D02*
X015192Y021279D01*
X015220Y021121D02*
X018279Y021121D01*
X018121Y020962D02*
X015176Y020962D01*
X014990Y020804D02*
X017962Y020804D01*
X017804Y020645D02*
X011425Y020645D01*
X011425Y020804D02*
X014730Y020804D01*
X014470Y020962D02*
X011425Y020962D01*
X011425Y021121D02*
X014312Y021121D01*
X013949Y021279D02*
X011425Y021279D01*
X011425Y021438D02*
X013813Y021438D01*
X013780Y021596D02*
X011425Y021596D01*
X011425Y021755D02*
X012013Y021755D01*
X011854Y021913D02*
X011425Y021913D01*
X011425Y022072D02*
X011696Y022072D01*
X011545Y022230D02*
X011529Y022230D01*
X011580Y020487D02*
X013833Y020487D01*
X013742Y020328D02*
X012469Y020328D01*
X012585Y020170D02*
X013735Y020170D01*
X013814Y020011D02*
X012620Y020011D01*
X012620Y019853D02*
X013906Y019853D01*
X013748Y019694D02*
X012620Y019694D01*
X012620Y019536D02*
X013589Y019536D01*
X013431Y019377D02*
X012610Y019377D01*
X012538Y019219D02*
X013272Y019219D01*
X012394Y019060D02*
X012328Y019060D01*
X012180Y019060D02*
X012180Y019060D01*
X012032Y019060D02*
X011971Y019060D01*
X012130Y018902D02*
X012235Y018902D01*
X012180Y019219D02*
X012180Y019219D01*
X012180Y019377D02*
X012180Y019377D01*
X012180Y019536D02*
X012180Y019536D01*
X012180Y019694D02*
X012180Y019694D01*
X012180Y019734D02*
X012180Y019734D01*
X012180Y019735D02*
X012180Y019735D01*
X012180Y019853D02*
X012180Y019853D01*
X012180Y020011D02*
X012180Y020011D01*
X012180Y020170D02*
X012180Y020170D01*
X012180Y020328D02*
X012180Y020328D01*
X011891Y020328D02*
X011738Y020328D01*
X002545Y022389D02*
X002428Y022389D01*
X008306Y030948D02*
X008441Y030948D01*
X008600Y031106D02*
X008141Y031106D01*
X008223Y031423D02*
X008917Y031423D01*
X009075Y031582D02*
X008331Y031582D01*
X008360Y031740D02*
X009234Y031740D01*
X009392Y031899D02*
X008327Y031899D01*
X008211Y032057D02*
X009551Y032057D01*
X009709Y032216D02*
X006646Y032216D01*
X006487Y032374D02*
X009868Y032374D01*
X010026Y032533D02*
X006329Y032533D01*
X006170Y032691D02*
X010185Y032691D01*
X010343Y032850D02*
X006012Y032850D01*
X005853Y033008D02*
X010420Y033008D01*
X010420Y033167D02*
X005695Y033167D01*
X005536Y033325D02*
X005939Y033325D01*
X005989Y033274D02*
X006371Y033274D01*
X006640Y033544D01*
X006640Y033925D01*
X006371Y034194D01*
X005989Y034194D01*
X005720Y033925D01*
X005720Y033544D01*
X005989Y033274D01*
X005780Y033484D02*
X005580Y033484D01*
X005640Y033642D02*
X005720Y033642D01*
X005720Y033801D02*
X005640Y033801D01*
X005606Y033959D02*
X005754Y033959D01*
X005913Y034118D02*
X005447Y034118D01*
X005372Y034276D02*
X005988Y034276D01*
X005989Y034274D02*
X006371Y034274D01*
X006640Y034544D01*
X006640Y034925D01*
X006371Y035194D01*
X005989Y035194D01*
X005720Y034925D01*
X005720Y034544D01*
X005989Y034274D01*
X005829Y034435D02*
X005531Y034435D01*
X005640Y034593D02*
X005720Y034593D01*
X005720Y034752D02*
X005640Y034752D01*
X005640Y034910D02*
X005720Y034910D01*
X005864Y035069D02*
X005496Y035069D01*
X004864Y035069D02*
X004525Y035069D01*
X004660Y034910D02*
X004720Y034910D01*
X004720Y034752D02*
X004200Y034752D01*
X004200Y034754D02*
X004200Y035068D01*
X004160Y035028D01*
X004160Y034754D01*
X004200Y034754D01*
X004200Y034910D02*
X004160Y034910D01*
X004160Y034593D02*
X004200Y034593D01*
X004200Y034435D02*
X004160Y034435D01*
X004160Y034276D02*
X004200Y034276D01*
X004400Y034276D02*
X004525Y034276D01*
X004525Y034118D02*
X004447Y034118D01*
X003960Y034276D02*
X003409Y034276D01*
X003567Y034435D02*
X003801Y034435D01*
X003913Y034118D02*
X003250Y034118D01*
X003092Y033959D02*
X003754Y033959D01*
X003720Y033801D02*
X002933Y033801D01*
X002775Y033642D02*
X003720Y033642D01*
X003780Y033484D02*
X002616Y033484D01*
X002458Y033325D02*
X003939Y033325D01*
X003955Y033167D02*
X002299Y033167D01*
X002200Y033008D02*
X003797Y033008D01*
X003638Y032850D02*
X002200Y032850D01*
X002200Y032691D02*
X003480Y032691D01*
X003321Y032533D02*
X002200Y032533D01*
X002200Y032374D02*
X003163Y032374D01*
X003004Y032216D02*
X002200Y032216D01*
X001746Y034435D02*
X001460Y034435D01*
X001460Y034593D02*
X001542Y034593D01*
X004660Y034593D02*
X004707Y034593D01*
X004984Y034276D02*
X004988Y034276D01*
X006372Y034276D02*
X006988Y034276D01*
X006989Y034274D02*
X007371Y034274D01*
X007640Y034544D01*
X007640Y034925D01*
X007371Y035194D01*
X006989Y035194D01*
X006720Y034925D01*
X006720Y034544D01*
X006989Y034274D01*
X006989Y034194D02*
X006720Y033925D01*
X006720Y033544D01*
X006989Y033274D01*
X007371Y033274D01*
X007640Y033544D01*
X007640Y033925D01*
X007371Y034194D01*
X006989Y034194D01*
X006913Y034118D02*
X006447Y034118D01*
X006606Y033959D02*
X006754Y033959D01*
X006720Y033801D02*
X006640Y033801D01*
X006640Y033642D02*
X006720Y033642D01*
X006780Y033484D02*
X006580Y033484D01*
X006421Y033325D02*
X006939Y033325D01*
X007421Y033325D02*
X007939Y033325D01*
X007989Y033274D02*
X008371Y033274D01*
X008640Y033544D01*
X008640Y033925D01*
X008371Y034194D01*
X007989Y034194D01*
X007720Y033925D01*
X007720Y033544D01*
X007989Y033274D01*
X007780Y033484D02*
X007580Y033484D01*
X007640Y033642D02*
X007720Y033642D01*
X007720Y033801D02*
X007640Y033801D01*
X007606Y033959D02*
X007754Y033959D01*
X007913Y034118D02*
X007447Y034118D01*
X007372Y034276D02*
X007988Y034276D01*
X007989Y034274D02*
X008371Y034274D01*
X008640Y034544D01*
X008640Y034925D01*
X008371Y035194D01*
X007989Y035194D01*
X007720Y034925D01*
X007720Y034544D01*
X007989Y034274D01*
X007829Y034435D02*
X007531Y034435D01*
X007640Y034593D02*
X007720Y034593D01*
X007720Y034752D02*
X007640Y034752D01*
X007640Y034910D02*
X007720Y034910D01*
X007864Y035069D02*
X007496Y035069D01*
X006864Y035069D02*
X006496Y035069D01*
X006640Y034910D02*
X006720Y034910D01*
X006720Y034752D02*
X006640Y034752D01*
X006640Y034593D02*
X006720Y034593D01*
X006829Y034435D02*
X006531Y034435D01*
X008372Y034276D02*
X008988Y034276D01*
X008989Y034274D02*
X008720Y034544D01*
X008720Y034925D01*
X008989Y035194D01*
X009371Y035194D01*
X009640Y034925D01*
X009640Y034544D01*
X009371Y034274D01*
X008989Y034274D01*
X008989Y034194D02*
X008720Y033925D01*
X008720Y033544D01*
X008989Y033274D01*
X009371Y033274D01*
X009640Y033544D01*
X009640Y033925D01*
X009371Y034194D01*
X008989Y034194D01*
X008913Y034118D02*
X008447Y034118D01*
X008606Y033959D02*
X008754Y033959D01*
X008720Y033801D02*
X008640Y033801D01*
X008640Y033642D02*
X008720Y033642D01*
X008780Y033484D02*
X008580Y033484D01*
X008421Y033325D02*
X008939Y033325D01*
X009421Y033325D02*
X009939Y033325D01*
X009780Y033484D02*
X009580Y033484D01*
X009640Y033642D02*
X009720Y033642D01*
X009720Y033801D02*
X009640Y033801D01*
X009606Y033959D02*
X009754Y033959D01*
X009913Y034118D02*
X009447Y034118D01*
X009372Y034276D02*
X009988Y034276D01*
X009829Y034435D02*
X009531Y034435D01*
X009640Y034593D02*
X009720Y034593D01*
X009720Y034752D02*
X009640Y034752D01*
X009640Y034910D02*
X009720Y034910D01*
X009864Y035069D02*
X009496Y035069D01*
X008864Y035069D02*
X008496Y035069D01*
X008640Y034910D02*
X008720Y034910D01*
X008720Y034752D02*
X008640Y034752D01*
X008640Y034593D02*
X008720Y034593D01*
X008829Y034435D02*
X008531Y034435D01*
X010372Y034276D02*
X010780Y034276D01*
X010829Y034435D02*
X010531Y034435D01*
X010640Y034593D02*
X010720Y034593D01*
X010720Y034752D02*
X010640Y034752D01*
X010640Y034910D02*
X010720Y034910D01*
X011496Y035069D02*
X011572Y035069D01*
X010621Y034118D02*
X010447Y034118D01*
X008758Y031265D02*
X007597Y031265D01*
X007033Y031899D02*
X006963Y031899D01*
X006804Y032057D02*
X007149Y032057D01*
X024166Y017158D02*
X026284Y017158D01*
X026720Y017317D02*
X028290Y017317D01*
X028449Y017475D02*
X026774Y017475D01*
X026853Y017634D02*
X028607Y017634D01*
X028766Y017792D02*
X026860Y017792D01*
X026878Y017158D02*
X028132Y017158D01*
X027973Y017000D02*
X027037Y017000D01*
X027085Y016841D02*
X027815Y016841D01*
X027656Y016683D02*
X027085Y016683D01*
X027085Y016524D02*
X027498Y016524D01*
X027339Y016366D02*
X027118Y016366D01*
X028533Y016841D02*
X030272Y016841D01*
X030063Y017000D02*
X028567Y017000D01*
X028726Y017158D02*
X030000Y017158D01*
X030000Y017317D02*
X028884Y017317D01*
X029043Y017475D02*
X029715Y017475D01*
X029747Y015415D02*
X030040Y015415D01*
X030000Y015256D02*
X029905Y015256D01*
X030385Y014781D02*
X031784Y014781D01*
X031943Y014939D02*
X031238Y014939D01*
X031338Y015098D02*
X032101Y015098D01*
X032260Y015256D02*
X031360Y015256D01*
X031102Y014622D02*
X031626Y014622D01*
X031467Y014464D02*
X031300Y014464D01*
X031466Y012879D02*
X032672Y012879D01*
X032514Y012720D02*
X031308Y012720D01*
X031227Y012570D02*
X031276Y012521D01*
X031316Y012465D01*
X031348Y012403D01*
X031380Y012245D02*
X032038Y012245D01*
X031880Y012086D02*
X031354Y012086D01*
X031255Y011928D02*
X031721Y011928D01*
X031563Y011769D02*
X029141Y011769D01*
X028983Y011611D02*
X031404Y011611D01*
X031246Y011452D02*
X028824Y011452D01*
X028666Y011294D02*
X031087Y011294D01*
X030929Y011135D02*
X028507Y011135D01*
X028349Y010977D02*
X030770Y010977D01*
X030612Y010818D02*
X028190Y010818D01*
X028032Y010660D02*
X030453Y010660D01*
X030680Y011928D02*
X030680Y011928D01*
X030680Y012086D02*
X030680Y012086D01*
X030105Y011928D02*
X029300Y011928D01*
X029458Y012086D02*
X030006Y012086D01*
X029980Y012234D02*
X029980Y012269D01*
X029991Y012338D01*
X030012Y012403D01*
X025254Y015573D02*
X025240Y015573D01*
X025200Y015732D02*
X025315Y015732D01*
X025315Y015890D02*
X025041Y015890D01*
X024775Y013882D02*
X024775Y013351D01*
X024583Y013159D01*
X024558Y013134D01*
X024525Y013166D01*
X024458Y013215D01*
X024383Y013253D01*
X024304Y013279D01*
X024222Y013292D01*
X024198Y013292D01*
X024198Y012780D01*
X024162Y012780D01*
X024162Y013292D01*
X024138Y013292D01*
X024056Y013279D01*
X023977Y013253D01*
X023902Y013215D01*
X023835Y013166D01*
X023797Y013129D01*
X023767Y013159D01*
X023639Y013287D01*
X023710Y013358D01*
X024339Y013986D01*
X024421Y013904D01*
X024553Y013849D01*
X024697Y013849D01*
X024775Y013882D01*
X024775Y013830D02*
X024182Y013830D01*
X024024Y013671D02*
X024775Y013671D01*
X024775Y013513D02*
X023865Y013513D01*
X023710Y013358D02*
X023710Y013358D01*
X023706Y013354D02*
X024775Y013354D01*
X024619Y013196D02*
X024485Y013196D01*
X024198Y013196D02*
X024162Y013196D01*
X024162Y013037D02*
X024198Y013037D01*
X024198Y012879D02*
X024162Y012879D01*
X023875Y013196D02*
X023731Y013196D01*
X022198Y011744D02*
X022198Y011232D01*
X022222Y011232D01*
X022304Y011245D01*
X022383Y011271D01*
X022458Y011309D01*
X022474Y011321D01*
X022169Y011015D01*
X022140Y011083D01*
X022045Y011179D01*
X022045Y011249D01*
X022056Y011245D01*
X022138Y011232D01*
X022162Y011232D01*
X022162Y011744D01*
X022198Y011744D01*
X022198Y011611D02*
X022162Y011611D01*
X022162Y011452D02*
X022198Y011452D01*
X022198Y011294D02*
X022162Y011294D01*
X022089Y011135D02*
X022289Y011135D01*
X022428Y011294D02*
X022447Y011294D01*
X023377Y007172D02*
X023400Y007172D01*
X034719Y017000D02*
X035125Y017000D01*
X035125Y017158D02*
X034823Y017158D01*
X034840Y017317D02*
X035125Y017317D01*
X034967Y017475D02*
X034784Y017475D01*
X034809Y017634D02*
X034413Y017634D01*
X034254Y017792D02*
X034650Y017792D01*
X034492Y017951D02*
X034250Y017951D01*
X035545Y014464D02*
X035597Y014464D01*
X039543Y014147D02*
X039900Y014147D01*
X039900Y013988D02*
X039780Y013988D01*
X039855Y013830D02*
X039900Y013830D01*
X039900Y013671D02*
X039860Y013671D01*
X039900Y013513D02*
X039803Y013513D01*
X039900Y013354D02*
X039619Y013354D01*
X039682Y012086D02*
X039900Y012086D01*
X039900Y011928D02*
X039815Y011928D01*
X039860Y011769D02*
X039900Y011769D01*
X039900Y011611D02*
X039843Y011611D01*
X039900Y011452D02*
X039751Y011452D01*
X039900Y011294D02*
X038890Y011294D01*
X039571Y011135D02*
X039900Y011135D01*
X039900Y010977D02*
X039792Y010977D01*
X039860Y010660D02*
X039900Y010660D01*
X039900Y010501D02*
X039798Y010501D01*
X039724Y010343D02*
X039900Y010343D01*
X039900Y010184D02*
X039882Y010184D01*
X039180Y009734D02*
X039180Y009734D01*
X039180Y009708D02*
X039180Y009708D01*
X039180Y009550D02*
X039180Y009550D01*
X039180Y009391D02*
X039180Y009391D01*
X039714Y015415D02*
X039900Y015415D01*
X039900Y015573D02*
X039828Y015573D01*
X039860Y015732D02*
X039900Y015732D01*
X039900Y015890D02*
X039830Y015890D01*
X039900Y016049D02*
X039720Y016049D01*
X039900Y017317D02*
X039528Y017317D01*
X039774Y017475D02*
X039900Y017475D01*
X039900Y017634D02*
X039853Y017634D01*
X039860Y017792D02*
X039900Y017792D01*
X039900Y017951D02*
X039805Y017951D01*
X039900Y018109D02*
X039667Y018109D01*
X039825Y018268D02*
X039900Y018268D01*
X010186Y004002D02*
X005697Y004002D01*
X004828Y004002D02*
X001460Y004002D01*
X001460Y003844D02*
X004625Y003844D01*
X004485Y003685D02*
X001460Y003685D01*
X001460Y003527D02*
X004420Y003527D01*
X004361Y003368D02*
X001460Y003368D01*
X001460Y003210D02*
X004361Y003210D01*
X004361Y003051D02*
X002572Y003051D01*
X002801Y002893D02*
X004417Y002893D01*
X004483Y002734D02*
X002952Y002734D01*
X003018Y002576D02*
X004619Y002576D01*
X004813Y002417D02*
X003084Y002417D01*
X001788Y003051D02*
X001460Y003051D01*
X001460Y002893D02*
X001559Y002893D01*
X001460Y004161D02*
X010020Y004161D01*
X009861Y004319D02*
X001460Y004319D01*
X001460Y004478D02*
X009703Y004478D01*
X009544Y004636D02*
X001460Y004636D01*
X001460Y004795D02*
X009386Y004795D01*
X009227Y004953D02*
X001460Y004953D01*
X001460Y005112D02*
X009069Y005112D01*
X008910Y005270D02*
X001460Y005270D01*
X001460Y005429D02*
X008752Y005429D01*
X008593Y005587D02*
X001460Y005587D01*
X001460Y005746D02*
X008435Y005746D01*
X008276Y005904D02*
X001460Y005904D01*
X001460Y006063D02*
X008118Y006063D01*
X007959Y006221D02*
X001460Y006221D01*
X001460Y006380D02*
X007801Y006380D01*
X007642Y006538D02*
X001460Y006538D01*
X001460Y006697D02*
X007484Y006697D01*
X007325Y006855D02*
X001460Y006855D01*
X001460Y007014D02*
X007167Y007014D01*
X007008Y007172D02*
X001460Y007172D01*
X001460Y007331D02*
X006850Y007331D01*
X006691Y007489D02*
X001460Y007489D01*
X001460Y007648D02*
X006533Y007648D01*
X006374Y007806D02*
X001460Y007806D01*
X001460Y007965D02*
X006216Y007965D01*
X006057Y008123D02*
X001460Y008123D01*
X001460Y008282D02*
X005899Y008282D01*
X005740Y008440D02*
X001460Y008440D01*
D24*
X004015Y010834D02*
X004015Y015424D01*
X005770Y017179D01*
X006085Y017179D01*
X006490Y016279D02*
X007255Y015514D01*
X007255Y014659D01*
X007930Y013984D01*
X007660Y012994D02*
X007660Y012589D01*
X007975Y012274D01*
X008650Y012274D01*
X009145Y011779D01*
X009180Y011762D01*
X009685Y011554D02*
X009685Y013804D01*
X010225Y014344D01*
X010090Y014974D02*
X010090Y015829D01*
X008650Y017269D01*
X009370Y017089D02*
X010090Y017809D01*
X010090Y018484D01*
X010585Y018979D01*
X010585Y020149D01*
X010180Y020554D01*
X010180Y022734D01*
X009685Y023074D02*
X009685Y019249D01*
X008695Y018259D01*
X008680Y018234D01*
X008290Y018664D02*
X008290Y012859D01*
X008200Y012769D01*
X008180Y012762D01*
X007660Y012994D02*
X006265Y014389D01*
X006265Y015469D01*
X005905Y015829D01*
X005905Y016009D01*
X005680Y015234D02*
X005680Y014254D01*
X004375Y012949D01*
X004375Y011464D01*
X010495Y005344D01*
X028180Y005344D01*
X027955Y004624D02*
X012745Y004624D01*
X010630Y006244D02*
X031825Y006244D01*
X032770Y007189D01*
X031915Y007189D02*
X030700Y007189D01*
X030385Y006874D01*
X027415Y006874D01*
X025435Y007594D02*
X024220Y008809D01*
X023860Y009484D02*
X025750Y009484D01*
X025795Y008989D02*
X025165Y008359D01*
X025570Y007954D02*
X027820Y010204D01*
X032050Y010204D01*
X032410Y009709D02*
X030295Y007594D01*
X025435Y007594D01*
X024535Y007414D02*
X022285Y009664D01*
X016165Y009664D01*
X016480Y009484D02*
X016300Y009304D01*
X015940Y009304D01*
X015445Y009799D01*
X014950Y009799D02*
X015625Y009124D01*
X017245Y009124D01*
X017380Y009484D02*
X016480Y009484D01*
X016480Y009844D02*
X016165Y010159D01*
X014590Y010159D01*
X014365Y010429D02*
X014455Y010519D01*
X014725Y010519D01*
X014905Y010339D01*
X016255Y010339D01*
X016570Y010024D01*
X025795Y010024D01*
X027280Y011509D01*
X027370Y011509D01*
X026695Y011374D02*
X025660Y010339D01*
X021520Y010339D01*
X021115Y010744D01*
X016480Y010744D01*
X015670Y011554D01*
X015670Y011959D01*
X015355Y012274D01*
X012970Y012274D01*
X012700Y012544D01*
X012700Y012949D01*
X012385Y013264D01*
X011800Y013264D01*
X011193Y013872D01*
X012070Y014749D01*
X012070Y015469D01*
X013195Y016594D01*
X013195Y018574D01*
X014275Y019654D01*
X014500Y019654D01*
X014455Y020104D02*
X013240Y018889D01*
X012520Y018889D01*
X012250Y018619D01*
X012250Y017314D01*
X012025Y017089D01*
X011080Y017089D01*
X010720Y017449D01*
X010720Y018214D01*
X010680Y018234D01*
X011080Y017584D02*
X011080Y018979D01*
X010765Y019294D01*
X010765Y023434D01*
X011688Y024357D01*
X012970Y023074D01*
X015040Y023074D01*
X015715Y022714D02*
X012205Y022714D01*
X012180Y022734D01*
X011755Y022984D02*
X011755Y022309D01*
X012115Y021949D01*
X019180Y021949D01*
X019540Y021589D01*
X020170Y022219D01*
X022195Y022219D01*
X022555Y022084D02*
X022330Y021859D01*
X020305Y021859D01*
X018370Y019924D01*
X015535Y019924D01*
X013870Y018259D01*
X013690Y018259D01*
X013680Y018234D01*
X012835Y017359D02*
X010720Y015244D01*
X010680Y015234D01*
X010090Y014974D02*
X011193Y013872D01*
X011395Y013264D02*
X010765Y013264D01*
X011395Y013264D02*
X011665Y012994D01*
X011665Y012589D01*
X011980Y012274D01*
X012385Y012274D01*
X012700Y011959D01*
X012700Y011374D01*
X012925Y011149D01*
X013195Y010384D02*
X012115Y010384D01*
X011350Y010789D02*
X014950Y010789D01*
X014365Y010429D02*
X013645Y010429D01*
X013195Y010384D02*
X013780Y009799D01*
X014950Y009799D01*
X014860Y009079D02*
X015895Y008044D01*
X023410Y008044D01*
X023005Y007864D02*
X015580Y007864D01*
X014005Y009439D01*
X011935Y008044D02*
X011935Y007999D01*
X010540Y006604D01*
X009505Y006604D01*
X006670Y009439D01*
X006670Y012094D01*
X005455Y013309D01*
X005455Y013534D01*
X005095Y013939D02*
X004195Y013039D01*
X004195Y011149D01*
X007615Y007729D01*
X008065Y009034D02*
X008065Y009934D01*
X009685Y011554D01*
X010180Y011734D02*
X010180Y011762D01*
X010180Y011734D02*
X008245Y009799D01*
X008245Y009124D01*
X010405Y006964D01*
X009910Y006964D02*
X009910Y007189D01*
X008065Y009034D01*
X008605Y009259D02*
X009820Y008044D01*
X011440Y008044D01*
X011440Y008539D02*
X010720Y008539D01*
X010495Y009439D02*
X011035Y009439D01*
X013150Y007324D01*
X023050Y007324D01*
X023005Y007864D02*
X023635Y007234D01*
X030475Y007234D01*
X030610Y007369D01*
X031825Y007369D01*
X035605Y011149D01*
X036415Y011149D01*
X036865Y011599D01*
X036865Y012904D01*
X036640Y013129D01*
X035965Y013129D01*
X035335Y013759D01*
X035335Y017404D01*
X033715Y019024D01*
X033715Y019204D01*
X033680Y019234D01*
X033310Y019699D02*
X036145Y019699D01*
X036180Y019734D01*
X036865Y020419D01*
X036865Y022534D01*
X038485Y024154D01*
X038395Y023794D02*
X038620Y023794D01*
X039340Y024514D01*
X039340Y024964D01*
X038710Y025594D01*
X038710Y025729D01*
X038680Y025734D01*
X038260Y026134D02*
X039160Y026134D01*
X039745Y025549D01*
X039745Y022759D01*
X038170Y021184D01*
X038170Y020059D01*
X037990Y019744D02*
X037810Y019924D01*
X037810Y021139D01*
X039520Y022849D01*
X039520Y025279D01*
X039385Y025414D01*
X038680Y024734D02*
X038665Y024694D01*
X038620Y024649D01*
X037630Y024649D01*
X036865Y024874D02*
X036865Y026539D01*
X037990Y027664D01*
X037990Y029059D01*
X038665Y029734D01*
X038680Y029734D01*
X038440Y030139D02*
X039115Y030139D01*
X039745Y029509D01*
X038710Y028699D02*
X038680Y028734D01*
X038710Y028699D02*
X039925Y027484D01*
X039925Y018664D01*
X039565Y018304D01*
X038935Y018304D01*
X036910Y016279D01*
X036910Y015649D01*
X036595Y015334D01*
X035740Y015334D01*
X035515Y015559D01*
X035515Y016909D01*
X036145Y017539D01*
X036145Y017719D01*
X036180Y017734D01*
X036190Y016909D02*
X037450Y018169D01*
X037450Y022354D01*
X038080Y022984D01*
X038080Y022444D02*
X038080Y021679D01*
X037630Y021229D01*
X037630Y017854D01*
X037990Y017719D02*
X037990Y019744D01*
X038530Y019564D02*
X038530Y021049D01*
X038755Y021274D01*
X037270Y020554D02*
X037270Y022669D01*
X038395Y023794D01*
X036865Y023884D02*
X036730Y023884D01*
X035020Y022174D01*
X034345Y021634D02*
X034705Y021274D01*
X035065Y021409D02*
X035065Y020734D01*
X033355Y020734D01*
X032860Y020239D01*
X033310Y019699D02*
X032860Y019249D01*
X033265Y017809D02*
X031330Y019744D01*
X031330Y021904D01*
X027910Y025324D01*
X026785Y025324D01*
X021880Y030229D01*
X021205Y030229D01*
X021180Y030234D01*
X021180Y029234D02*
X021205Y029194D01*
X021835Y028564D01*
X021835Y028024D01*
X025525Y024334D01*
X024445Y024874D02*
X024445Y020149D01*
X023455Y019159D01*
X022015Y019159D01*
X021475Y018619D01*
X018325Y018619D01*
X018055Y018889D01*
X017650Y019384D02*
X017830Y019564D01*
X020665Y019564D01*
X022825Y021724D01*
X023140Y021724D01*
X023180Y021734D01*
X022915Y021319D02*
X023590Y021319D01*
X023860Y021589D01*
X023860Y022894D01*
X023410Y023344D01*
X022060Y023344D01*
X021205Y024199D01*
X021180Y024234D01*
X020935Y024649D02*
X021610Y024649D01*
X022240Y024019D01*
X022240Y023704D01*
X022510Y024379D02*
X023140Y023749D01*
X023180Y023734D01*
X022825Y023074D02*
X023140Y022759D01*
X023180Y022734D01*
X022825Y023074D02*
X021520Y023074D01*
X020530Y024064D01*
X020530Y024739D01*
X018640Y026629D01*
X015940Y026629D01*
X015355Y027214D01*
X015490Y027844D02*
X013915Y026269D01*
X013195Y026269D01*
X013180Y026234D01*
X012340Y026764D02*
X012340Y026854D01*
X011980Y027214D01*
X011980Y031894D01*
X013735Y033649D01*
X013735Y033919D01*
X014050Y034234D01*
X014815Y034234D01*
X015180Y034734D02*
X015220Y034729D01*
X015625Y034324D01*
X015625Y031849D01*
X013195Y029419D01*
X013195Y029239D01*
X013180Y029234D01*
X012745Y028834D02*
X012520Y029059D01*
X012520Y032074D01*
X014180Y033734D01*
X013645Y034549D02*
X013285Y034189D01*
X012655Y034189D01*
X012205Y033739D01*
X012180Y033734D01*
X011710Y033874D02*
X012115Y034279D01*
X012340Y034279D01*
X012745Y034684D01*
X012745Y034909D01*
X013195Y035359D01*
X018595Y035359D01*
X019180Y034774D01*
X019180Y034734D01*
X018640Y034279D02*
X018190Y034729D01*
X018180Y034734D01*
X018640Y034279D02*
X018640Y033649D01*
X019045Y033244D01*
X019045Y032254D01*
X018145Y032119D02*
X016615Y033649D01*
X016615Y033919D01*
X016255Y034279D01*
X015985Y034279D01*
X015625Y034639D01*
X015625Y034909D01*
X015355Y035179D01*
X014005Y035179D01*
X013645Y034819D01*
X013645Y034549D01*
X012430Y035629D02*
X011620Y034819D01*
X011620Y034549D01*
X011260Y034189D01*
X010990Y034189D01*
X010630Y033829D01*
X010630Y032839D01*
X008110Y030319D01*
X005410Y030319D01*
X003340Y028249D01*
X003340Y024559D01*
X002755Y023974D01*
X002755Y021004D01*
X002755Y020149D02*
X002755Y012904D01*
X003655Y011734D02*
X003655Y020059D01*
X004150Y020554D01*
X004150Y022714D01*
X004180Y022734D01*
X004780Y022309D02*
X004780Y028339D01*
X004645Y028474D01*
X004285Y028609D02*
X004285Y028339D01*
X004600Y028024D01*
X004600Y019339D01*
X004285Y019024D01*
X004285Y017809D01*
X004510Y017584D01*
X004870Y017584D01*
X005500Y018214D01*
X005680Y018214D01*
X005680Y018234D01*
X004870Y018259D02*
X005680Y019069D01*
X006355Y019069D01*
X006760Y019474D01*
X006760Y021094D01*
X007030Y021364D01*
X007210Y021049D02*
X007390Y021229D01*
X007390Y021679D01*
X006580Y022489D01*
X006580Y023614D01*
X005860Y024334D01*
X005230Y024334D01*
X005005Y024559D01*
X005005Y028024D01*
X005680Y028699D01*
X005680Y028734D01*
X006085Y029149D02*
X007030Y028204D01*
X007030Y027529D01*
X007435Y027124D01*
X008830Y027124D01*
X010180Y025774D01*
X010675Y025774D01*
X010680Y025734D01*
X009865Y026584D02*
X008290Y028159D01*
X007435Y028159D01*
X006265Y029329D01*
X004735Y029329D01*
X003880Y028474D01*
X003880Y024829D01*
X003430Y024379D01*
X003430Y023704D01*
X003610Y022984D02*
X003610Y021004D01*
X002755Y020149D01*
X004690Y018259D02*
X004680Y018234D01*
X004690Y018259D02*
X004870Y018259D01*
X005180Y019734D02*
X005140Y019744D01*
X005140Y021949D01*
X004780Y022309D01*
X005725Y022354D02*
X005725Y023974D01*
X005680Y024694D02*
X005680Y024734D01*
X005680Y024694D02*
X006040Y024694D01*
X007570Y023164D01*
X007570Y022129D01*
X008155Y021544D01*
X008155Y021904D02*
X008290Y021904D01*
X008515Y021679D01*
X008515Y021229D01*
X008335Y021049D01*
X008695Y021769D02*
X008695Y019069D01*
X008290Y018664D01*
X007570Y018979D02*
X007075Y018484D01*
X007075Y017674D01*
X005095Y015694D01*
X005095Y013939D01*
X004015Y010834D02*
X009865Y004984D01*
X031600Y004984D01*
X032410Y005794D01*
X031915Y007189D02*
X033445Y008719D01*
X036145Y008719D01*
X036180Y008734D01*
X036640Y010339D02*
X035290Y010339D01*
X034615Y010654D02*
X032770Y008809D01*
X032815Y009349D02*
X032320Y009349D01*
X030385Y007414D01*
X024535Y007414D01*
X023050Y008404D02*
X018460Y008404D01*
X017380Y009484D01*
X016480Y009844D02*
X027190Y009844D01*
X027730Y010384D01*
X030475Y010384D01*
X032770Y012679D01*
X032995Y012679D01*
X032590Y011149D02*
X031735Y011149D01*
X031240Y010654D01*
X032590Y011149D02*
X033400Y010339D01*
X033175Y009709D02*
X032410Y009709D01*
X034615Y010654D02*
X034615Y015514D01*
X033895Y016234D01*
X033680Y016234D01*
X033680Y015234D02*
X033670Y015199D01*
X032500Y015199D01*
X030925Y013624D01*
X027550Y013624D01*
X026695Y012769D01*
X026695Y012589D01*
X026380Y012274D01*
X025795Y012274D01*
X025660Y012139D01*
X025660Y011554D01*
X025345Y011239D01*
X023995Y011239D01*
X023680Y011554D01*
X023680Y012229D01*
X023185Y012724D01*
X023180Y012762D01*
X023680Y012949D02*
X023680Y012499D01*
X024175Y012004D01*
X024175Y011779D01*
X024180Y011762D01*
X024670Y012274D02*
X025165Y011779D01*
X025180Y011762D01*
X024670Y012274D02*
X024670Y012949D01*
X024985Y013264D01*
X024985Y014344D01*
X024760Y014569D01*
X023635Y014569D01*
X023455Y014389D01*
X017695Y014389D01*
X016885Y015199D01*
X016705Y015199D01*
X016680Y015234D01*
X016255Y014974D02*
X016255Y015649D01*
X017695Y017089D01*
X017200Y017134D02*
X016525Y016459D01*
X016255Y014974D02*
X014815Y013534D01*
X014140Y013714D02*
X013195Y012769D01*
X013180Y012762D01*
X012655Y013624D02*
X013285Y014254D01*
X013285Y015874D01*
X015265Y017854D01*
X015265Y019204D01*
X015805Y019744D01*
X018685Y019744D01*
X020440Y021499D01*
X019540Y021589D02*
X018055Y020104D01*
X014455Y020104D01*
X014320Y020239D02*
X014365Y020284D01*
X017740Y020284D01*
X019045Y021589D01*
X019405Y022219D02*
X018550Y022219D01*
X016570Y024199D01*
X016210Y024199D01*
X016180Y024234D01*
X017785Y023479D02*
X018685Y022579D01*
X020755Y022579D01*
X019945Y022939D02*
X019945Y025054D01*
X019270Y025729D01*
X017830Y025729D01*
X017335Y026224D01*
X016210Y026224D01*
X016180Y026234D01*
X017785Y026809D02*
X018775Y026809D01*
X020935Y024649D01*
X020935Y025639D02*
X021610Y025639D01*
X022510Y024739D01*
X022510Y024379D01*
X023180Y024734D02*
X023185Y024739D01*
X023590Y024739D01*
X023950Y025099D01*
X024220Y025099D01*
X024445Y024874D01*
X026065Y022714D02*
X024625Y021274D01*
X024625Y019339D01*
X023590Y018304D01*
X022420Y018304D01*
X022105Y017989D01*
X022735Y018124D02*
X021250Y016639D01*
X020890Y016504D02*
X020890Y017854D01*
X020485Y018259D01*
X018370Y018259D01*
X018730Y017314D02*
X018730Y016234D01*
X019270Y015694D01*
X019945Y015874D02*
X018820Y014749D01*
X019315Y014749D02*
X020080Y015514D01*
X019945Y015874D02*
X020485Y015874D01*
X020890Y016504D02*
X022060Y015334D01*
X023635Y015334D01*
X024130Y015829D01*
X024805Y015829D01*
X025030Y015604D01*
X025030Y015334D01*
X025390Y014974D01*
X026245Y014974D01*
X028990Y017719D01*
X029980Y017719D01*
X028675Y018844D02*
X026920Y018844D01*
X026425Y019339D01*
X025525Y019339D01*
X025705Y020149D02*
X023680Y018124D01*
X022735Y018124D01*
X022285Y017134D02*
X021745Y016594D01*
X022375Y015784D02*
X022915Y016324D01*
X023590Y016324D01*
X023860Y016594D01*
X023860Y017359D01*
X025525Y015919D02*
X025525Y015334D01*
X025525Y015919D02*
X026155Y016549D01*
X026155Y016729D01*
X026180Y016734D01*
X026875Y016864D02*
X026875Y016099D01*
X026875Y016864D02*
X026200Y017539D01*
X026200Y017719D01*
X026180Y017734D01*
X028315Y016549D02*
X030025Y014839D01*
X029710Y012634D02*
X027280Y010204D01*
X026470Y010204D01*
X026695Y011374D02*
X026695Y012094D01*
X027685Y013084D01*
X027685Y013264D01*
X029710Y012634D02*
X030925Y012634D01*
X032500Y014209D01*
X033670Y014209D01*
X033680Y014234D01*
X036180Y013734D02*
X036190Y013714D01*
X036325Y013714D01*
X037045Y012994D01*
X037045Y010744D01*
X036640Y010339D01*
X038530Y010564D02*
X038935Y010159D01*
X039610Y010159D01*
X039835Y009934D01*
X039835Y007549D01*
X037405Y005119D01*
X036775Y005119D01*
X035605Y003949D01*
X032995Y003949D01*
X032365Y003319D01*
X029260Y003319D01*
X027955Y004624D01*
X021970Y010519D02*
X022690Y011239D01*
X022690Y012994D01*
X022960Y013264D01*
X023365Y013264D01*
X023680Y012949D01*
X023500Y013444D02*
X022150Y013444D01*
X021790Y014074D02*
X020665Y012949D01*
X020665Y012229D01*
X020215Y011779D01*
X020180Y011762D01*
X019675Y011959D02*
X019675Y011554D01*
X019360Y011239D01*
X017695Y011239D01*
X017200Y011734D01*
X017180Y011762D01*
X016660Y011599D02*
X017335Y010924D01*
X021295Y010924D01*
X021700Y010519D01*
X021970Y010519D01*
X021835Y010879D02*
X021835Y011419D01*
X021700Y011554D01*
X021700Y012229D01*
X021205Y012724D01*
X021180Y012762D01*
X019675Y011959D02*
X019360Y012274D01*
X018955Y012274D01*
X018685Y012544D01*
X018685Y012949D01*
X018370Y013264D01*
X018325Y013264D01*
X017155Y014434D01*
X016255Y014389D02*
X017695Y012949D01*
X017695Y012544D01*
X017965Y012274D01*
X018685Y012274D01*
X019180Y011779D01*
X019180Y011762D01*
X016660Y011599D02*
X016660Y012994D01*
X015715Y013939D01*
X014140Y013894D02*
X014140Y013714D01*
X012655Y013624D02*
X012205Y013624D01*
X011710Y015244D02*
X011680Y015234D01*
X011710Y015244D02*
X011710Y015694D01*
X012835Y016819D01*
X012070Y017629D02*
X011890Y017449D01*
X012070Y017629D02*
X012070Y018664D01*
X011755Y018979D01*
X011755Y020014D01*
X011215Y020554D01*
X011215Y022714D01*
X011180Y022734D01*
X011755Y022984D02*
X011395Y023344D01*
X011395Y023524D01*
X011688Y024357D02*
X011530Y024514D01*
X011530Y030724D01*
X011125Y031129D01*
X010225Y031129D01*
X010000Y030904D01*
X010000Y030409D01*
X010675Y029734D01*
X010680Y029734D01*
X010945Y029149D02*
X011350Y029554D01*
X011350Y029914D01*
X010720Y030544D01*
X010720Y030724D01*
X010680Y030734D01*
X009460Y030904D02*
X009460Y028699D01*
X009235Y028474D01*
X008965Y028474D01*
X008290Y029149D01*
X007435Y029149D01*
X006625Y029959D01*
X006490Y029959D01*
X006490Y030769D02*
X006130Y031129D01*
X005230Y031129D01*
X002845Y028744D01*
X002710Y028744D01*
X002680Y028734D01*
X004285Y028609D02*
X004825Y029149D01*
X006085Y029149D01*
X007680Y030734D02*
X007660Y030769D01*
X007660Y030904D01*
X005185Y033379D01*
X005185Y033694D01*
X005180Y033734D01*
X004735Y033649D02*
X004735Y034324D01*
X005140Y034729D01*
X005180Y034734D01*
X004285Y035449D02*
X010675Y035449D01*
X012430Y035629D02*
X030295Y035629D01*
X030340Y035584D01*
X030565Y035584D01*
X028720Y033829D02*
X028720Y033559D01*
X030115Y032164D01*
X031375Y032164D01*
X032230Y031309D01*
X033175Y031309D01*
X033445Y031579D01*
X033490Y031579D01*
X033490Y031894D01*
X033760Y032164D01*
X035245Y032164D01*
X035650Y031759D01*
X035680Y031734D01*
X036595Y031669D02*
X034570Y033694D01*
X034210Y033694D01*
X034180Y033734D01*
X033715Y033649D02*
X033715Y033919D01*
X033985Y034189D01*
X035335Y034189D01*
X035740Y033784D01*
X035740Y033199D01*
X037990Y030949D01*
X037990Y030589D01*
X038440Y030139D01*
X036595Y031669D02*
X036595Y026809D01*
X035695Y025909D01*
X035695Y025774D01*
X035680Y025734D01*
X035695Y024919D02*
X036685Y025909D01*
X036685Y026629D01*
X036775Y026719D01*
X036775Y031894D01*
X035200Y033469D01*
X035200Y033694D01*
X035180Y033734D01*
X033715Y033649D02*
X032680Y032614D01*
X032680Y032524D01*
X030250Y032524D01*
X030160Y031129D02*
X031420Y031129D01*
X032365Y030184D01*
X033760Y030184D01*
X034165Y029779D01*
X034180Y029734D01*
X034480Y029734D01*
X035470Y030724D01*
X035650Y030724D01*
X035680Y030734D01*
X034180Y030734D02*
X034165Y030769D01*
X034165Y030904D01*
X033490Y031579D01*
X032680Y031734D02*
X032680Y032524D01*
X030160Y031129D02*
X027730Y033559D01*
X027730Y033829D01*
X027370Y034189D01*
X027100Y034189D01*
X026740Y034549D01*
X026740Y034909D01*
X027010Y035179D01*
X027370Y035179D01*
X027775Y034774D01*
X028180Y034774D01*
X028180Y034734D01*
X028090Y034189D02*
X027550Y034729D01*
X027190Y034729D01*
X027180Y034734D01*
X026335Y034189D02*
X022645Y034189D01*
X022195Y033739D01*
X022180Y033734D01*
X022015Y033289D02*
X021610Y033694D01*
X021610Y033919D01*
X021340Y034189D01*
X020665Y034189D01*
X020215Y033739D01*
X020180Y033734D01*
X021180Y033734D02*
X021205Y033694D01*
X021790Y033109D01*
X022960Y033109D01*
X025300Y030769D01*
X027640Y030769D01*
X027680Y030734D01*
X028360Y030589D02*
X027685Y029914D01*
X027685Y029734D01*
X027680Y029734D01*
X028360Y030589D02*
X028360Y031939D01*
X026650Y033649D01*
X026650Y033874D01*
X026335Y034189D01*
X028090Y034189D02*
X028360Y034189D01*
X028720Y033829D01*
X026560Y031849D02*
X025030Y031849D01*
X023185Y033694D01*
X023180Y033734D01*
X023050Y033289D02*
X022015Y033289D01*
X023050Y033289D02*
X024850Y031489D01*
X026695Y031489D01*
X026920Y031714D01*
X027640Y031714D01*
X027680Y031734D01*
X030680Y028734D02*
X030700Y028699D01*
X030700Y028564D01*
X031690Y027574D01*
X031690Y026449D01*
X034255Y023884D01*
X035110Y023884D01*
X035470Y023524D01*
X036010Y023524D01*
X037990Y025504D01*
X037990Y025864D01*
X038260Y026134D01*
X036235Y024244D02*
X034480Y024244D01*
X033040Y025684D01*
X033040Y025864D01*
X033535Y025684D02*
X034840Y025684D01*
X035695Y024919D02*
X035695Y024739D01*
X035680Y024734D01*
X035200Y024064D02*
X034345Y024064D01*
X031870Y026539D01*
X031870Y028879D01*
X030680Y027734D02*
X029665Y026719D01*
X029665Y024424D01*
X032815Y021274D01*
X032725Y021634D02*
X034345Y021634D01*
X035065Y021409D02*
X032320Y024154D01*
X032320Y025054D01*
X031960Y025414D02*
X031960Y024244D01*
X032185Y024019D01*
X032185Y022669D01*
X032725Y021634D02*
X030025Y024334D01*
X030025Y026134D01*
X030680Y026734D02*
X030700Y026719D01*
X031150Y026719D01*
X034345Y023524D01*
X034705Y023524D01*
X035200Y024064D02*
X035380Y023884D01*
X035605Y023884D01*
X036415Y023074D02*
X036415Y021319D01*
X036180Y020734D02*
X035065Y020734D01*
X036865Y020149D02*
X036865Y019384D01*
X036865Y020149D02*
X037270Y020554D01*
X038530Y019564D02*
X039160Y018934D01*
X039160Y018754D01*
X039180Y018734D01*
X039180Y017734D02*
X039160Y017719D01*
X037270Y015829D01*
X038215Y015379D02*
X038845Y015379D01*
X039160Y015694D01*
X039180Y015734D01*
X037990Y017719D02*
X036190Y015919D01*
X036190Y015739D01*
X036180Y015734D01*
X036180Y016734D02*
X036190Y016774D01*
X036190Y016909D01*
X034480Y017269D02*
X033940Y017809D01*
X033265Y017809D01*
X027955Y020779D02*
X026605Y022129D01*
X025750Y022129D01*
X025525Y021904D01*
X025525Y021544D01*
X026155Y020914D01*
X026155Y020734D01*
X026180Y020734D01*
X026425Y020149D02*
X026830Y020554D01*
X026830Y020914D01*
X026200Y021544D01*
X026200Y021724D01*
X026180Y021734D01*
X026155Y022714D02*
X026065Y022714D01*
X026155Y022714D02*
X026180Y022734D01*
X026425Y020149D02*
X025705Y020149D01*
X022915Y021319D02*
X020845Y019249D01*
X020035Y017314D02*
X019090Y016369D01*
X019810Y014749D02*
X023320Y014749D01*
X024040Y015469D01*
X024670Y015469D01*
X024625Y014209D02*
X024265Y014209D01*
X023500Y013444D01*
X023635Y014074D02*
X021790Y014074D01*
X017650Y019384D02*
X017425Y019384D01*
X014860Y021139D02*
X014590Y021139D01*
X014140Y021589D01*
X014095Y020239D02*
X014320Y020239D01*
X010180Y023389D02*
X010000Y023389D01*
X009685Y023074D01*
X009595Y023614D02*
X008335Y024874D01*
X008335Y024919D01*
X007930Y025324D01*
X007075Y025324D01*
X005680Y026719D01*
X005680Y026734D01*
X005680Y025734D02*
X005680Y025549D01*
X007750Y023479D01*
X007750Y022309D01*
X008155Y021904D01*
X007570Y021769D02*
X007570Y018979D01*
X007210Y019744D02*
X007180Y019734D01*
X007210Y019744D02*
X007210Y021049D01*
X007570Y021769D02*
X007210Y022129D01*
X007210Y022714D01*
X007180Y022734D01*
X006175Y021904D02*
X005725Y022354D01*
X006175Y021904D02*
X006175Y019744D01*
X006180Y019734D01*
X008695Y021769D02*
X009145Y022219D01*
X009145Y022714D01*
X009180Y022734D01*
X009325Y021904D02*
X009190Y021769D01*
X009190Y019744D01*
X009180Y019734D01*
X010180Y023389D02*
X011350Y024559D01*
X011350Y027889D01*
X010720Y028519D01*
X010720Y028699D01*
X010680Y028734D01*
X010945Y029149D02*
X010270Y029149D01*
X009865Y028744D01*
X009865Y027079D01*
X011710Y026854D02*
X011710Y033874D01*
X011180Y033734D02*
X011170Y033694D01*
X011170Y033109D01*
X009100Y031039D01*
X009100Y028834D01*
X011710Y026854D02*
X013150Y025414D01*
X013150Y025234D01*
X013180Y025234D01*
X011890Y024649D02*
X018415Y024649D01*
X019135Y025369D01*
X020530Y026044D02*
X020935Y025639D01*
X020530Y026044D02*
X020530Y031309D01*
X020080Y031759D01*
X019810Y031759D01*
X018865Y030814D01*
X017785Y030814D01*
X017380Y031219D01*
X016210Y031219D01*
X016180Y031234D01*
X016435Y030814D02*
X015760Y030814D01*
X015490Y031084D01*
X015490Y031444D01*
X016165Y032119D01*
X016165Y033694D01*
X016180Y033734D01*
X018145Y032119D02*
X018145Y031264D01*
X018180Y031234D01*
X018415Y029824D02*
X017425Y029824D01*
X016435Y030814D01*
X016975Y029194D02*
X016615Y028834D01*
X012745Y028834D01*
X012340Y028744D02*
X012340Y027349D01*
X013180Y027234D02*
X013195Y027259D01*
X014365Y027259D01*
X015760Y028654D01*
X016930Y028654D01*
X017875Y027709D01*
X019135Y027709D01*
X019945Y028519D01*
X019945Y031399D01*
X018415Y029824D02*
X019000Y029239D01*
X019000Y028069D01*
X018145Y029194D02*
X018180Y029234D01*
X018145Y029194D02*
X016975Y029194D01*
X016390Y028204D02*
X016210Y028204D01*
X016180Y028234D01*
X016390Y028204D02*
X017785Y026809D01*
X022375Y022714D02*
X022555Y022534D01*
X022555Y022084D01*
X011350Y010789D02*
X009460Y008899D01*
X003610Y022984D02*
X004240Y023614D01*
X004240Y025189D01*
X002680Y025734D02*
X002665Y025774D01*
X002665Y025909D01*
X001990Y026584D01*
X001990Y033154D01*
X004285Y035449D01*
X004735Y033649D02*
X002845Y031759D01*
X002710Y031759D01*
X002680Y031734D01*
X038530Y011239D02*
X038530Y010564D01*
M02*
