G75*
%MOIN*%
%OFA0B0*%
%FSLAX24Y24*%
%IPPOS*%
%LPD*%
%AMOC8*
5,1,8,0,0,1.08239X$1,22.5*
%
%ADD10C,0.0040*%
%ADD11C,0.0060*%
%ADD12C,0.0100*%
%ADD13C,0.0050*%
%ADD14C,0.0070*%
%ADD15C,0.0080*%
%ADD16R,0.1000X0.1000*%
D10*
X001700Y004254D02*
X001700Y004561D01*
X001776Y004561D01*
X002083Y004254D01*
X002160Y004254D01*
X002160Y004561D01*
X002083Y004715D02*
X002007Y004715D01*
X001930Y004792D01*
X001930Y004945D01*
X002007Y005022D01*
X002083Y005022D01*
X002160Y004945D01*
X002160Y004792D01*
X002083Y004715D01*
X001930Y004792D02*
X001853Y004715D01*
X001776Y004715D01*
X001700Y004792D01*
X001700Y004945D01*
X001776Y005022D01*
X001853Y005022D01*
X001930Y004945D01*
X002083Y005175D02*
X001776Y005482D01*
X002083Y005482D01*
X002160Y005405D01*
X002160Y005252D01*
X002083Y005175D01*
X001776Y005175D01*
X001700Y005252D01*
X001700Y005405D01*
X001776Y005482D01*
X001776Y005636D02*
X001700Y005712D01*
X001700Y005866D01*
X001776Y005943D01*
X002083Y005636D01*
X002160Y005712D01*
X002160Y005866D01*
X002083Y005943D01*
X001776Y005943D01*
X001776Y006096D02*
X001700Y006173D01*
X001700Y006326D01*
X001776Y006403D01*
X002083Y006096D01*
X002160Y006173D01*
X002160Y006326D01*
X002083Y006403D01*
X001776Y006403D01*
X001930Y006556D02*
X001930Y006863D01*
X001853Y007017D02*
X001853Y007247D01*
X001930Y007324D01*
X002083Y007324D01*
X002160Y007247D01*
X002160Y007017D01*
X002313Y007017D02*
X001853Y007017D01*
X001853Y007477D02*
X001853Y007554D01*
X002160Y007554D01*
X002160Y007477D02*
X002160Y007631D01*
X001700Y007554D02*
X001623Y007554D01*
X001776Y008245D02*
X001700Y008321D01*
X001700Y008475D01*
X001776Y008551D01*
X002083Y008245D01*
X002160Y008321D01*
X002160Y008475D01*
X002083Y008551D01*
X001776Y008551D01*
X001776Y008245D02*
X002083Y008245D01*
X002083Y008705D02*
X002083Y008782D01*
X002160Y008782D01*
X002160Y008705D01*
X002083Y008705D01*
X002083Y008935D02*
X002160Y009012D01*
X002160Y009165D01*
X002083Y009242D01*
X001930Y009242D01*
X001853Y009165D01*
X001853Y009089D01*
X001930Y008935D01*
X001700Y008935D01*
X001700Y009242D01*
X001853Y009856D02*
X002083Y009856D01*
X002160Y009933D01*
X002083Y010009D01*
X002160Y010086D01*
X002083Y010163D01*
X001853Y010163D01*
X001853Y010316D02*
X002083Y010316D01*
X002160Y010393D01*
X002083Y010470D01*
X002160Y010547D01*
X002083Y010623D01*
X001853Y010623D01*
X001853Y010777D02*
X002083Y010777D01*
X002160Y010853D01*
X002083Y010930D01*
X002160Y011007D01*
X002083Y011084D01*
X001853Y011084D01*
X002083Y011237D02*
X002083Y011314D01*
X002160Y011314D01*
X002160Y011237D01*
X002083Y011237D01*
X002160Y011467D02*
X002160Y011697D01*
X002083Y011774D01*
X002007Y011697D01*
X002007Y011544D01*
X001930Y011467D01*
X001853Y011544D01*
X001853Y011774D01*
X001853Y011928D02*
X001853Y012004D01*
X001930Y012081D01*
X001853Y012158D01*
X001930Y012235D01*
X002160Y012235D01*
X002160Y012388D02*
X002160Y012618D01*
X002083Y012695D01*
X001930Y012695D01*
X001853Y012618D01*
X001853Y012388D01*
X001700Y012388D02*
X002160Y012388D01*
X002160Y012081D02*
X001930Y012081D01*
X001853Y011928D02*
X002160Y011928D01*
X002083Y012848D02*
X002007Y012925D01*
X002007Y013155D01*
X001930Y013155D02*
X002160Y013155D01*
X002160Y012925D01*
X002083Y012848D01*
X001853Y012925D02*
X001853Y013079D01*
X001930Y013155D01*
X002007Y013309D02*
X001853Y013539D01*
X001930Y013693D02*
X001853Y013769D01*
X001853Y013923D01*
X001930Y013999D01*
X002007Y013999D01*
X002007Y013693D01*
X002083Y013693D02*
X001930Y013693D01*
X002083Y013693D02*
X002160Y013769D01*
X002160Y013923D01*
X002160Y014153D02*
X001853Y014153D01*
X001853Y014306D02*
X001853Y014383D01*
X001853Y014306D02*
X002007Y014153D01*
X002083Y014537D02*
X002083Y014613D01*
X002160Y014613D01*
X002160Y014537D01*
X002083Y014537D01*
X002083Y014767D02*
X001930Y014767D01*
X001853Y014844D01*
X001853Y015074D01*
X001930Y015227D02*
X002083Y015227D01*
X002160Y015304D01*
X002160Y015457D01*
X002083Y015534D01*
X001930Y015534D01*
X001853Y015457D01*
X001853Y015304D01*
X001930Y015227D01*
X002160Y015074D02*
X002160Y014844D01*
X002083Y014767D01*
X002160Y015688D02*
X001853Y015688D01*
X001853Y015764D01*
X001930Y015841D01*
X001853Y015918D01*
X001930Y015994D01*
X002160Y015994D01*
X002160Y015841D02*
X001930Y015841D01*
X002160Y013539D02*
X002007Y013309D01*
X002160Y013309D02*
X001700Y013309D01*
X002050Y020054D02*
X002050Y020208D01*
X002050Y020131D02*
X002510Y020131D01*
X002510Y020054D02*
X002510Y020208D01*
X002433Y020361D02*
X002510Y020438D01*
X002510Y020592D01*
X002433Y020668D01*
X002280Y020822D02*
X002280Y021129D01*
X002510Y021052D02*
X002050Y021052D01*
X002280Y020822D01*
X002126Y020668D02*
X002050Y020592D01*
X002050Y020438D01*
X002126Y020361D01*
X002433Y020361D01*
X002083Y006096D02*
X001776Y006096D01*
X001776Y005636D02*
X002083Y005636D01*
X023500Y025404D02*
X023653Y025404D01*
X023577Y025404D02*
X023577Y025865D01*
X023653Y025865D02*
X023500Y025865D01*
X023807Y025788D02*
X023807Y025481D01*
X023884Y025404D01*
X024037Y025404D01*
X024114Y025481D01*
X024267Y025404D02*
X024574Y025711D01*
X024574Y025788D01*
X024498Y025865D01*
X024344Y025865D01*
X024267Y025788D01*
X024114Y025788D02*
X024037Y025865D01*
X023884Y025865D01*
X023807Y025788D01*
X024267Y025404D02*
X024574Y025404D01*
X031000Y022365D02*
X031153Y022365D01*
X031077Y022365D02*
X031077Y021904D01*
X031153Y021904D02*
X031000Y021904D01*
X031307Y021981D02*
X031307Y022288D01*
X031384Y022365D01*
X031537Y022365D01*
X031614Y022288D01*
X031767Y022365D02*
X031767Y022135D01*
X031921Y022211D01*
X031998Y022211D01*
X032074Y022135D01*
X032074Y021981D01*
X031998Y021904D01*
X031844Y021904D01*
X031767Y021981D01*
X031614Y021981D02*
X031537Y021904D01*
X031384Y021904D01*
X031307Y021981D01*
X031767Y022365D02*
X032074Y022365D01*
X034353Y006715D02*
X034507Y006715D01*
X034430Y006715D02*
X034430Y006331D01*
X034353Y006254D01*
X034277Y006254D01*
X034200Y006331D01*
X034660Y006485D02*
X034967Y006485D01*
X034891Y006715D02*
X034891Y006254D01*
X034660Y006485D02*
X034891Y006715D01*
D11*
X036680Y007234D02*
X036680Y021184D01*
X036680Y021234D02*
X037180Y021234D01*
X037182Y021190D01*
X037188Y021147D01*
X037197Y021105D01*
X037210Y021063D01*
X037227Y021023D01*
X037247Y020984D01*
X037270Y020947D01*
X037297Y020913D01*
X037326Y020880D01*
X037359Y020851D01*
X037393Y020824D01*
X037430Y020801D01*
X037469Y020781D01*
X037509Y020764D01*
X037551Y020751D01*
X037593Y020742D01*
X037636Y020736D01*
X037680Y020734D01*
X037724Y020736D01*
X037767Y020742D01*
X037809Y020751D01*
X037851Y020764D01*
X037891Y020781D01*
X037930Y020801D01*
X037967Y020824D01*
X038001Y020851D01*
X038034Y020880D01*
X038063Y020913D01*
X038090Y020947D01*
X038113Y020984D01*
X038133Y021023D01*
X038150Y021063D01*
X038163Y021105D01*
X038172Y021147D01*
X038178Y021190D01*
X038180Y021234D01*
X038680Y021234D01*
X038680Y007234D01*
X036680Y007234D01*
X035580Y011284D02*
X034780Y011284D01*
X034763Y011286D01*
X034746Y011290D01*
X034730Y011297D01*
X034716Y011307D01*
X034703Y011320D01*
X034693Y011334D01*
X034686Y011350D01*
X034682Y011367D01*
X034680Y011384D01*
X034680Y013084D01*
X034682Y013101D01*
X034686Y013118D01*
X034693Y013134D01*
X034703Y013148D01*
X034716Y013161D01*
X034730Y013171D01*
X034746Y013178D01*
X034763Y013182D01*
X034780Y013184D01*
X035580Y013184D01*
X035597Y013182D01*
X035614Y013178D01*
X035630Y013171D01*
X035644Y013161D01*
X035657Y013148D01*
X035667Y013134D01*
X035674Y013118D01*
X035678Y013101D01*
X035680Y013084D01*
X035680Y011384D01*
X035678Y011367D01*
X035674Y011350D01*
X035667Y011334D01*
X035657Y011320D01*
X035644Y011307D01*
X035630Y011297D01*
X035614Y011290D01*
X035597Y011286D01*
X035580Y011284D01*
X035180Y012084D02*
X035180Y012134D01*
X035180Y012334D02*
X035180Y012384D01*
X033330Y011734D02*
X031030Y011734D01*
X031030Y021734D01*
X031780Y021734D01*
X031782Y021695D01*
X031788Y021656D01*
X031797Y021618D01*
X031810Y021581D01*
X031827Y021545D01*
X031847Y021512D01*
X031871Y021480D01*
X031897Y021451D01*
X031926Y021425D01*
X031958Y021401D01*
X031991Y021381D01*
X032027Y021364D01*
X032064Y021351D01*
X032102Y021342D01*
X032141Y021336D01*
X032180Y021334D01*
X032219Y021336D01*
X032258Y021342D01*
X032296Y021351D01*
X032333Y021364D01*
X032369Y021381D01*
X032402Y021401D01*
X032434Y021425D01*
X032463Y021451D01*
X032489Y021480D01*
X032513Y021512D01*
X032533Y021545D01*
X032550Y021581D01*
X032563Y021618D01*
X032572Y021656D01*
X032578Y021695D01*
X032580Y021734D01*
X033330Y021734D01*
X033330Y011734D01*
X029830Y014934D02*
X029830Y015534D01*
X029828Y015551D01*
X029824Y015568D01*
X029817Y015584D01*
X029807Y015598D01*
X029794Y015611D01*
X029780Y015621D01*
X029764Y015628D01*
X029747Y015632D01*
X029730Y015634D01*
X028630Y015634D01*
X028613Y015632D01*
X028596Y015628D01*
X028580Y015621D01*
X028566Y015611D01*
X028553Y015598D01*
X028543Y015584D01*
X028536Y015568D01*
X028532Y015551D01*
X028530Y015534D01*
X028530Y014934D01*
X028532Y014917D01*
X028536Y014900D01*
X028543Y014884D01*
X028553Y014870D01*
X028566Y014857D01*
X028580Y014847D01*
X028596Y014840D01*
X028613Y014836D01*
X028630Y014834D01*
X029730Y014834D01*
X029747Y014836D01*
X029764Y014840D01*
X029780Y014847D01*
X029794Y014857D01*
X029807Y014870D01*
X029817Y014884D01*
X029824Y014900D01*
X029828Y014917D01*
X029830Y014934D01*
X029730Y015834D02*
X028630Y015834D01*
X028613Y015836D01*
X028596Y015840D01*
X028580Y015847D01*
X028566Y015857D01*
X028553Y015870D01*
X028543Y015884D01*
X028536Y015900D01*
X028532Y015917D01*
X028530Y015934D01*
X028530Y016534D01*
X028532Y016551D01*
X028536Y016568D01*
X028543Y016584D01*
X028553Y016598D01*
X028566Y016611D01*
X028580Y016621D01*
X028596Y016628D01*
X028613Y016632D01*
X028630Y016634D01*
X029730Y016634D01*
X029747Y016632D01*
X029764Y016628D01*
X029780Y016621D01*
X029794Y016611D01*
X029807Y016598D01*
X029817Y016584D01*
X029824Y016568D01*
X029828Y016551D01*
X029830Y016534D01*
X029830Y015934D01*
X029828Y015917D01*
X029824Y015900D01*
X029817Y015884D01*
X029807Y015870D01*
X029794Y015857D01*
X029780Y015847D01*
X029764Y015840D01*
X029747Y015836D01*
X029730Y015834D01*
X029730Y016834D02*
X028630Y016834D01*
X028613Y016836D01*
X028596Y016840D01*
X028580Y016847D01*
X028566Y016857D01*
X028553Y016870D01*
X028543Y016884D01*
X028536Y016900D01*
X028532Y016917D01*
X028530Y016934D01*
X028530Y017534D01*
X028532Y017551D01*
X028536Y017568D01*
X028543Y017584D01*
X028553Y017598D01*
X028566Y017611D01*
X028580Y017621D01*
X028596Y017628D01*
X028613Y017632D01*
X028630Y017634D01*
X029730Y017634D01*
X029747Y017632D01*
X029764Y017628D01*
X029780Y017621D01*
X029794Y017611D01*
X029807Y017598D01*
X029817Y017584D01*
X029824Y017568D01*
X029828Y017551D01*
X029830Y017534D01*
X029830Y016934D01*
X029828Y016917D01*
X029824Y016900D01*
X029817Y016884D01*
X029807Y016870D01*
X029794Y016857D01*
X029780Y016847D01*
X029764Y016840D01*
X029747Y016836D01*
X029730Y016834D01*
X029730Y017834D02*
X028630Y017834D01*
X028613Y017836D01*
X028596Y017840D01*
X028580Y017847D01*
X028566Y017857D01*
X028553Y017870D01*
X028543Y017884D01*
X028536Y017900D01*
X028532Y017917D01*
X028530Y017934D01*
X028530Y018534D01*
X028532Y018551D01*
X028536Y018568D01*
X028543Y018584D01*
X028553Y018598D01*
X028566Y018611D01*
X028580Y018621D01*
X028596Y018628D01*
X028613Y018632D01*
X028630Y018634D01*
X029730Y018634D01*
X029747Y018632D01*
X029764Y018628D01*
X029780Y018621D01*
X029794Y018611D01*
X029807Y018598D01*
X029817Y018584D01*
X029824Y018568D01*
X029828Y018551D01*
X029830Y018534D01*
X029830Y017934D01*
X029828Y017917D01*
X029824Y017900D01*
X029817Y017884D01*
X029807Y017870D01*
X029794Y017857D01*
X029780Y017847D01*
X029764Y017840D01*
X029747Y017836D01*
X029730Y017834D01*
X025830Y015234D02*
X023530Y015234D01*
X023530Y025234D01*
X024280Y025234D01*
X024330Y025234D02*
X026030Y025234D01*
X026047Y025236D01*
X026064Y025240D01*
X026080Y025247D01*
X026094Y025257D01*
X026107Y025270D01*
X026117Y025284D01*
X026124Y025300D01*
X026128Y025317D01*
X026130Y025334D01*
X026130Y026134D01*
X026128Y026151D01*
X026124Y026168D01*
X026117Y026184D01*
X026107Y026198D01*
X026094Y026211D01*
X026080Y026221D01*
X026064Y026228D01*
X026047Y026232D01*
X026030Y026234D01*
X024330Y026234D01*
X024313Y026232D01*
X024296Y026228D01*
X024280Y026221D01*
X024266Y026211D01*
X024253Y026198D01*
X024243Y026184D01*
X024236Y026168D01*
X024232Y026151D01*
X024230Y026134D01*
X024230Y025334D01*
X024232Y025317D01*
X024236Y025300D01*
X024243Y025284D01*
X024253Y025270D01*
X024266Y025257D01*
X024280Y025247D01*
X024296Y025240D01*
X024313Y025236D01*
X024330Y025234D01*
X024280Y025234D02*
X024282Y025195D01*
X024288Y025156D01*
X024297Y025118D01*
X024310Y025081D01*
X024327Y025045D01*
X024347Y025012D01*
X024371Y024980D01*
X024397Y024951D01*
X024426Y024925D01*
X024458Y024901D01*
X024491Y024881D01*
X024527Y024864D01*
X024564Y024851D01*
X024602Y024842D01*
X024641Y024836D01*
X024680Y024834D01*
X024719Y024836D01*
X024758Y024842D01*
X024796Y024851D01*
X024833Y024864D01*
X024869Y024881D01*
X024902Y024901D01*
X024934Y024925D01*
X024963Y024951D01*
X024989Y024980D01*
X025013Y025012D01*
X025033Y025045D01*
X025050Y025081D01*
X025063Y025118D01*
X025072Y025156D01*
X025078Y025195D01*
X025080Y025234D01*
X025830Y025234D01*
X025830Y015234D01*
X032330Y021734D02*
X034030Y021734D01*
X034047Y021736D01*
X034064Y021740D01*
X034080Y021747D01*
X034094Y021757D01*
X034107Y021770D01*
X034117Y021784D01*
X034124Y021800D01*
X034128Y021817D01*
X034130Y021834D01*
X034130Y022634D01*
X034128Y022651D01*
X034124Y022668D01*
X034117Y022684D01*
X034107Y022698D01*
X034094Y022711D01*
X034080Y022721D01*
X034064Y022728D01*
X034047Y022732D01*
X034030Y022734D01*
X032330Y022734D01*
X032313Y022732D01*
X032296Y022728D01*
X032280Y022721D01*
X032266Y022711D01*
X032253Y022698D01*
X032243Y022684D01*
X032236Y022668D01*
X032232Y022651D01*
X032230Y022634D01*
X032230Y021834D01*
X032232Y021817D01*
X032236Y021800D01*
X032243Y021784D01*
X032253Y021770D01*
X032266Y021757D01*
X032280Y021747D01*
X032296Y021740D01*
X032313Y021736D01*
X032330Y021734D01*
X033030Y022234D02*
X033080Y022234D01*
X033280Y022234D02*
X033330Y022234D01*
X036030Y024234D02*
X038330Y024234D01*
X038330Y032234D01*
X037580Y032234D01*
X037578Y032195D01*
X037572Y032156D01*
X037563Y032118D01*
X037550Y032081D01*
X037533Y032045D01*
X037513Y032012D01*
X037489Y031980D01*
X037463Y031951D01*
X037434Y031925D01*
X037402Y031901D01*
X037369Y031881D01*
X037333Y031864D01*
X037296Y031851D01*
X037258Y031842D01*
X037219Y031836D01*
X037180Y031834D01*
X037141Y031836D01*
X037102Y031842D01*
X037064Y031851D01*
X037027Y031864D01*
X036991Y031881D01*
X036958Y031901D01*
X036926Y031925D01*
X036897Y031951D01*
X036871Y031980D01*
X036847Y032012D01*
X036827Y032045D01*
X036810Y032081D01*
X036797Y032118D01*
X036788Y032156D01*
X036782Y032195D01*
X036780Y032234D01*
X036030Y032234D01*
X036030Y024234D01*
X033180Y026334D02*
X033180Y027134D01*
X033080Y027234D01*
X033180Y027334D01*
X033180Y028134D01*
X033080Y028234D01*
X032280Y028234D01*
X032180Y028134D01*
X032180Y027334D01*
X032280Y027234D01*
X032180Y027134D01*
X032180Y026334D01*
X032280Y026234D01*
X033080Y026234D01*
X033180Y026334D01*
X033980Y027234D02*
X034380Y027234D01*
X034406Y027236D01*
X034432Y027241D01*
X034457Y027249D01*
X034480Y027261D01*
X034502Y027275D01*
X034521Y027293D01*
X034539Y027312D01*
X034553Y027334D01*
X034565Y027357D01*
X034573Y027382D01*
X034578Y027408D01*
X034580Y027434D01*
X034580Y032034D01*
X034530Y032084D02*
X033830Y032084D01*
X033830Y031384D01*
X034530Y031384D01*
X034530Y032084D01*
X034580Y032034D02*
X034578Y032060D01*
X034573Y032086D01*
X034565Y032111D01*
X034553Y032134D01*
X034539Y032156D01*
X034521Y032175D01*
X034502Y032193D01*
X034480Y032207D01*
X034457Y032219D01*
X034432Y032227D01*
X034406Y032232D01*
X034380Y032234D01*
X033980Y032234D01*
X033954Y032232D01*
X033928Y032227D01*
X033903Y032219D01*
X033880Y032207D01*
X033858Y032193D01*
X033839Y032175D01*
X033821Y032156D01*
X033807Y032134D01*
X033795Y032111D01*
X033787Y032086D01*
X033782Y032060D01*
X033780Y032034D01*
X033780Y027434D01*
X033782Y027408D01*
X033787Y027382D01*
X033795Y027357D01*
X033807Y027334D01*
X033821Y027312D01*
X033839Y027293D01*
X033858Y027275D01*
X033880Y027261D01*
X033903Y027249D01*
X033928Y027241D01*
X033954Y027236D01*
X033980Y027234D01*
X033080Y029234D02*
X032280Y029234D01*
X032180Y029334D01*
X032180Y030134D01*
X032280Y030234D01*
X032180Y030334D01*
X032180Y031134D01*
X032280Y031234D01*
X032180Y031334D01*
X032180Y032134D01*
X032280Y032234D01*
X033080Y032234D01*
X033180Y032134D01*
X033180Y031334D01*
X033080Y031234D01*
X033180Y031134D01*
X033180Y030334D01*
X033080Y030234D01*
X033180Y030134D01*
X033180Y029334D01*
X033080Y029234D01*
X030330Y032234D02*
X029580Y032234D01*
X029578Y032195D01*
X029572Y032156D01*
X029563Y032118D01*
X029550Y032081D01*
X029533Y032045D01*
X029513Y032012D01*
X029489Y031980D01*
X029463Y031951D01*
X029434Y031925D01*
X029402Y031901D01*
X029369Y031881D01*
X029333Y031864D01*
X029296Y031851D01*
X029258Y031842D01*
X029219Y031836D01*
X029180Y031834D01*
X029141Y031836D01*
X029102Y031842D01*
X029064Y031851D01*
X029027Y031864D01*
X028991Y031881D01*
X028958Y031901D01*
X028926Y031925D01*
X028897Y031951D01*
X028871Y031980D01*
X028847Y032012D01*
X028827Y032045D01*
X028810Y032081D01*
X028797Y032118D01*
X028788Y032156D01*
X028782Y032195D01*
X028780Y032234D01*
X028030Y032234D01*
X028030Y024234D01*
X030330Y024234D01*
X030330Y032234D01*
X030430Y033234D02*
X029930Y033234D01*
X029680Y033484D01*
X029430Y033234D01*
X028930Y033234D01*
X028680Y033484D01*
X028430Y033234D01*
X027930Y033234D01*
X027680Y033484D01*
X027430Y033234D01*
X026930Y033234D01*
X026680Y033484D01*
X026430Y033234D01*
X025930Y033234D01*
X025680Y033484D01*
X025430Y033234D01*
X024930Y033234D01*
X024680Y033484D01*
X024430Y033234D01*
X023930Y033234D01*
X023680Y033484D01*
X023430Y033234D01*
X022930Y033234D01*
X022680Y033484D01*
X022430Y033234D01*
X021930Y033234D01*
X021680Y033484D01*
X021430Y033234D01*
X020930Y033234D01*
X020680Y033484D01*
X020430Y033234D01*
X019930Y033234D01*
X019680Y033484D01*
X019430Y033234D01*
X018930Y033234D01*
X018680Y033484D01*
X018430Y033234D01*
X017930Y033234D01*
X017680Y033484D01*
X017430Y033234D01*
X016930Y033234D01*
X016680Y033484D01*
X016430Y033234D01*
X015930Y033234D01*
X015680Y033484D01*
X015430Y033234D01*
X014930Y033234D01*
X014680Y033484D01*
X014430Y033234D01*
X013930Y033234D01*
X013680Y033484D01*
X013430Y033234D01*
X012930Y033234D01*
X012680Y033484D01*
X012430Y033234D01*
X011930Y033234D01*
X011680Y033484D01*
X011430Y033234D01*
X010930Y033234D01*
X010680Y033484D01*
X010430Y033234D01*
X009930Y033234D01*
X009680Y033484D01*
X009430Y033234D01*
X008930Y033234D01*
X008680Y033484D01*
X008430Y033234D01*
X007930Y033234D01*
X007680Y033484D01*
X007430Y033234D01*
X006930Y033234D01*
X006680Y033484D01*
X006430Y033234D01*
X005930Y033234D01*
X005680Y033484D01*
X005430Y033234D01*
X004930Y033234D01*
X004680Y033484D01*
X004430Y033234D01*
X003930Y033234D01*
X003680Y033484D01*
X003680Y034984D01*
X003930Y035234D01*
X004430Y035234D01*
X004680Y034984D01*
X004930Y035234D01*
X005430Y035234D01*
X005680Y034984D01*
X005930Y035234D01*
X006430Y035234D01*
X006680Y034984D01*
X006930Y035234D01*
X007430Y035234D01*
X007680Y034984D01*
X007930Y035234D01*
X008430Y035234D01*
X008680Y034984D01*
X008930Y035234D01*
X009430Y035234D01*
X009680Y034984D01*
X009930Y035234D01*
X010430Y035234D01*
X010680Y034984D01*
X010930Y035234D01*
X011430Y035234D01*
X011680Y034984D01*
X011930Y035234D01*
X012430Y035234D01*
X012680Y034984D01*
X012930Y035234D01*
X013430Y035234D01*
X013680Y034984D01*
X013930Y035234D01*
X014430Y035234D01*
X014680Y034984D01*
X014930Y035234D01*
X015430Y035234D01*
X015680Y034984D01*
X015930Y035234D01*
X016430Y035234D01*
X016680Y034984D01*
X016930Y035234D01*
X017430Y035234D01*
X017680Y034984D01*
X017930Y035234D01*
X018430Y035234D01*
X018680Y034984D01*
X018930Y035234D01*
X019430Y035234D01*
X019680Y034984D01*
X019930Y035234D01*
X020430Y035234D01*
X020680Y034984D01*
X020930Y035234D01*
X021430Y035234D01*
X021680Y034984D01*
X021930Y035234D01*
X022430Y035234D01*
X022680Y034984D01*
X022930Y035234D01*
X023430Y035234D01*
X023680Y034984D01*
X023930Y035234D01*
X024430Y035234D01*
X024680Y034984D01*
X024930Y035234D01*
X025430Y035234D01*
X025680Y034984D01*
X025930Y035234D01*
X026430Y035234D01*
X026680Y034984D01*
X026930Y035234D01*
X027430Y035234D01*
X027680Y034984D01*
X027930Y035234D01*
X028430Y035234D01*
X028680Y034984D01*
X028930Y035234D01*
X029430Y035234D01*
X029680Y034984D01*
X029930Y035234D01*
X030430Y035234D01*
X030680Y034984D01*
X030930Y035234D01*
X031430Y035234D01*
X031680Y034984D01*
X031930Y035234D01*
X032430Y035234D01*
X032680Y034984D01*
X032930Y035234D01*
X033430Y035234D01*
X033680Y034984D01*
X033930Y035234D01*
X034430Y035234D01*
X034680Y034984D01*
X034930Y035234D01*
X035430Y035234D01*
X035680Y034984D01*
X035930Y035234D01*
X036430Y035234D01*
X036680Y034984D01*
X036930Y035234D01*
X037430Y035234D01*
X037680Y034984D01*
X037680Y033484D01*
X037430Y033234D01*
X036930Y033234D01*
X036680Y033484D01*
X036430Y033234D01*
X035930Y033234D01*
X035680Y033484D01*
X035430Y033234D01*
X034930Y033234D01*
X034680Y033484D01*
X034430Y033234D01*
X033930Y033234D01*
X033680Y033484D01*
X033430Y033234D01*
X032930Y033234D01*
X032680Y033484D01*
X032430Y033234D01*
X031930Y033234D01*
X031680Y033484D01*
X031430Y033234D01*
X030930Y033234D01*
X030680Y033484D01*
X030430Y033234D01*
X023180Y030734D02*
X023182Y030797D01*
X023188Y030859D01*
X023198Y030921D01*
X023211Y030983D01*
X023229Y031043D01*
X023250Y031102D01*
X023275Y031160D01*
X023304Y031216D01*
X023336Y031270D01*
X023371Y031322D01*
X023409Y031371D01*
X023451Y031419D01*
X023495Y031463D01*
X023543Y031505D01*
X023592Y031543D01*
X023644Y031578D01*
X023698Y031610D01*
X023754Y031639D01*
X023812Y031664D01*
X023871Y031685D01*
X023931Y031703D01*
X023993Y031716D01*
X024055Y031726D01*
X024117Y031732D01*
X024180Y031734D01*
X024243Y031732D01*
X024305Y031726D01*
X024367Y031716D01*
X024429Y031703D01*
X024489Y031685D01*
X024548Y031664D01*
X024606Y031639D01*
X024662Y031610D01*
X024716Y031578D01*
X024768Y031543D01*
X024817Y031505D01*
X024865Y031463D01*
X024909Y031419D01*
X024951Y031371D01*
X024989Y031322D01*
X025024Y031270D01*
X025056Y031216D01*
X025085Y031160D01*
X025110Y031102D01*
X025131Y031043D01*
X025149Y030983D01*
X025162Y030921D01*
X025172Y030859D01*
X025178Y030797D01*
X025180Y030734D01*
X025178Y030671D01*
X025172Y030609D01*
X025162Y030547D01*
X025149Y030485D01*
X025131Y030425D01*
X025110Y030366D01*
X025085Y030308D01*
X025056Y030252D01*
X025024Y030198D01*
X024989Y030146D01*
X024951Y030097D01*
X024909Y030049D01*
X024865Y030005D01*
X024817Y029963D01*
X024768Y029925D01*
X024716Y029890D01*
X024662Y029858D01*
X024606Y029829D01*
X024548Y029804D01*
X024489Y029783D01*
X024429Y029765D01*
X024367Y029752D01*
X024305Y029742D01*
X024243Y029736D01*
X024180Y029734D01*
X024117Y029736D01*
X024055Y029742D01*
X023993Y029752D01*
X023931Y029765D01*
X023871Y029783D01*
X023812Y029804D01*
X023754Y029829D01*
X023698Y029858D01*
X023644Y029890D01*
X023592Y029925D01*
X023543Y029963D01*
X023495Y030005D01*
X023451Y030049D01*
X023409Y030097D01*
X023371Y030146D01*
X023336Y030198D01*
X023304Y030252D01*
X023275Y030308D01*
X023250Y030366D01*
X023229Y030425D01*
X023211Y030485D01*
X023198Y030547D01*
X023188Y030609D01*
X023182Y030671D01*
X023180Y030734D01*
X023630Y031134D02*
X023630Y031234D01*
X023630Y031334D01*
X023630Y031234D02*
X023730Y031234D01*
X023630Y031234D02*
X023530Y031234D01*
X020830Y031734D02*
X020080Y031734D01*
X020078Y031695D01*
X020072Y031656D01*
X020063Y031618D01*
X020050Y031581D01*
X020033Y031545D01*
X020013Y031512D01*
X019989Y031480D01*
X019963Y031451D01*
X019934Y031425D01*
X019902Y031401D01*
X019869Y031381D01*
X019833Y031364D01*
X019796Y031351D01*
X019758Y031342D01*
X019719Y031336D01*
X019680Y031334D01*
X019641Y031336D01*
X019602Y031342D01*
X019564Y031351D01*
X019527Y031364D01*
X019491Y031381D01*
X019458Y031401D01*
X019426Y031425D01*
X019397Y031451D01*
X019371Y031480D01*
X019347Y031512D01*
X019327Y031545D01*
X019310Y031581D01*
X019297Y031618D01*
X019288Y031656D01*
X019282Y031695D01*
X019280Y031734D01*
X018530Y031734D01*
X018530Y023734D01*
X020830Y023734D01*
X020830Y031734D01*
X015830Y031734D02*
X015080Y031734D01*
X015078Y031695D01*
X015072Y031656D01*
X015063Y031618D01*
X015050Y031581D01*
X015033Y031545D01*
X015013Y031512D01*
X014989Y031480D01*
X014963Y031451D01*
X014934Y031425D01*
X014902Y031401D01*
X014869Y031381D01*
X014833Y031364D01*
X014796Y031351D01*
X014758Y031342D01*
X014719Y031336D01*
X014680Y031334D01*
X014641Y031336D01*
X014602Y031342D01*
X014564Y031351D01*
X014527Y031364D01*
X014491Y031381D01*
X014458Y031401D01*
X014426Y031425D01*
X014397Y031451D01*
X014371Y031480D01*
X014347Y031512D01*
X014327Y031545D01*
X014310Y031581D01*
X014297Y031618D01*
X014288Y031656D01*
X014282Y031695D01*
X014280Y031734D01*
X013530Y031734D01*
X013530Y023734D01*
X015830Y023734D01*
X015830Y031734D01*
X010330Y032234D02*
X009580Y032234D01*
X009578Y032195D01*
X009572Y032156D01*
X009563Y032118D01*
X009550Y032081D01*
X009533Y032045D01*
X009513Y032012D01*
X009489Y031980D01*
X009463Y031951D01*
X009434Y031925D01*
X009402Y031901D01*
X009369Y031881D01*
X009333Y031864D01*
X009296Y031851D01*
X009258Y031842D01*
X009219Y031836D01*
X009180Y031834D01*
X009141Y031836D01*
X009102Y031842D01*
X009064Y031851D01*
X009027Y031864D01*
X008991Y031881D01*
X008958Y031901D01*
X008926Y031925D01*
X008897Y031951D01*
X008871Y031980D01*
X008847Y032012D01*
X008827Y032045D01*
X008810Y032081D01*
X008797Y032118D01*
X008788Y032156D01*
X008782Y032195D01*
X008780Y032234D01*
X008030Y032234D01*
X008030Y024234D01*
X010330Y024234D01*
X010330Y032234D01*
X005330Y032234D02*
X004580Y032234D01*
X004578Y032195D01*
X004572Y032156D01*
X004563Y032118D01*
X004550Y032081D01*
X004533Y032045D01*
X004513Y032012D01*
X004489Y031980D01*
X004463Y031951D01*
X004434Y031925D01*
X004402Y031901D01*
X004369Y031881D01*
X004333Y031864D01*
X004296Y031851D01*
X004258Y031842D01*
X004219Y031836D01*
X004180Y031834D01*
X004141Y031836D01*
X004102Y031842D01*
X004064Y031851D01*
X004027Y031864D01*
X003991Y031881D01*
X003958Y031901D01*
X003926Y031925D01*
X003897Y031951D01*
X003871Y031980D01*
X003847Y032012D01*
X003827Y032045D01*
X003810Y032081D01*
X003797Y032118D01*
X003788Y032156D01*
X003782Y032195D01*
X003780Y032234D01*
X003030Y032234D01*
X003030Y024234D01*
X005330Y024234D01*
X005330Y032234D01*
X002580Y023184D02*
X001780Y023184D01*
X001763Y023182D01*
X001746Y023178D01*
X001730Y023171D01*
X001716Y023161D01*
X001703Y023148D01*
X001693Y023134D01*
X001686Y023118D01*
X001682Y023101D01*
X001680Y023084D01*
X001680Y021384D01*
X001682Y021367D01*
X001686Y021350D01*
X001693Y021334D01*
X001703Y021320D01*
X001716Y021307D01*
X001730Y021297D01*
X001746Y021290D01*
X001763Y021286D01*
X001780Y021284D01*
X002580Y021284D01*
X002597Y021286D01*
X002614Y021290D01*
X002630Y021297D01*
X002644Y021307D01*
X002657Y021320D01*
X002667Y021334D01*
X002674Y021350D01*
X002678Y021367D01*
X002680Y021384D01*
X002680Y023084D01*
X002678Y023101D01*
X002674Y023118D01*
X002667Y023134D01*
X002657Y023148D01*
X002644Y023161D01*
X002630Y023171D01*
X002614Y023178D01*
X002597Y023182D01*
X002580Y023184D01*
X002680Y022384D02*
X002680Y021634D01*
X002719Y021632D01*
X002758Y021626D01*
X002796Y021617D01*
X002833Y021604D01*
X002869Y021587D01*
X002902Y021567D01*
X002934Y021543D01*
X002963Y021517D01*
X002989Y021488D01*
X003013Y021456D01*
X003033Y021423D01*
X003050Y021387D01*
X003063Y021350D01*
X003072Y021312D01*
X003078Y021273D01*
X003080Y021234D01*
X003078Y021195D01*
X003072Y021156D01*
X003063Y021118D01*
X003050Y021081D01*
X003033Y021045D01*
X003013Y021012D01*
X002989Y020980D01*
X002963Y020951D01*
X002934Y020925D01*
X002902Y020901D01*
X002869Y020881D01*
X002833Y020864D01*
X002796Y020851D01*
X002758Y020842D01*
X002719Y020836D01*
X002680Y020834D01*
X002680Y020084D01*
X012680Y020084D01*
X012680Y022384D01*
X002680Y022384D01*
X002180Y022384D02*
X002180Y022334D01*
X002180Y022134D02*
X002180Y022084D01*
X004180Y017734D02*
X018180Y017734D01*
X018180Y015734D01*
X004230Y015734D01*
X004180Y015734D02*
X004180Y016234D01*
X004224Y016236D01*
X004267Y016242D01*
X004309Y016251D01*
X004351Y016264D01*
X004391Y016281D01*
X004430Y016301D01*
X004467Y016324D01*
X004501Y016351D01*
X004534Y016380D01*
X004563Y016413D01*
X004590Y016447D01*
X004613Y016484D01*
X004633Y016523D01*
X004650Y016563D01*
X004663Y016605D01*
X004672Y016647D01*
X004678Y016690D01*
X004680Y016734D01*
X004678Y016778D01*
X004672Y016821D01*
X004663Y016863D01*
X004650Y016905D01*
X004633Y016945D01*
X004613Y016984D01*
X004590Y017021D01*
X004563Y017055D01*
X004534Y017088D01*
X004501Y017117D01*
X004467Y017144D01*
X004430Y017167D01*
X004391Y017187D01*
X004351Y017204D01*
X004309Y017217D01*
X004267Y017226D01*
X004224Y017232D01*
X004180Y017234D01*
X004180Y017734D01*
X012230Y014634D02*
X012230Y013834D01*
X012232Y013817D01*
X012236Y013800D01*
X012243Y013784D01*
X012253Y013770D01*
X012266Y013757D01*
X012280Y013747D01*
X012296Y013740D01*
X012313Y013736D01*
X012330Y013734D01*
X014030Y013734D01*
X014047Y013736D01*
X014064Y013740D01*
X014080Y013747D01*
X014094Y013757D01*
X014107Y013770D01*
X014117Y013784D01*
X014124Y013800D01*
X014128Y013817D01*
X014130Y013834D01*
X014130Y014634D01*
X014128Y014651D01*
X014124Y014668D01*
X014117Y014684D01*
X014107Y014698D01*
X014094Y014711D01*
X014080Y014721D01*
X014064Y014728D01*
X014047Y014732D01*
X014030Y014734D01*
X012330Y014734D01*
X012313Y014732D01*
X012296Y014728D01*
X012280Y014721D01*
X012266Y014711D01*
X012253Y014698D01*
X012243Y014684D01*
X012236Y014668D01*
X012232Y014651D01*
X012230Y014634D01*
X013030Y014234D02*
X013080Y014234D01*
X013280Y014234D02*
X013330Y014234D01*
X013226Y007405D02*
X013546Y007405D01*
X013653Y007298D01*
X013653Y006871D01*
X013546Y006764D01*
X013226Y006764D01*
X013226Y007405D01*
X013870Y007085D02*
X013870Y006871D01*
X013977Y006764D01*
X014191Y006764D01*
X014297Y006871D01*
X014297Y007085D01*
X014191Y007192D01*
X013977Y007192D01*
X013870Y007085D01*
X014515Y007192D02*
X014515Y006871D01*
X014622Y006764D01*
X014728Y006871D01*
X014835Y006764D01*
X014942Y006871D01*
X014942Y007192D01*
X015159Y007192D02*
X015159Y006764D01*
X015586Y006764D02*
X015586Y007085D01*
X015480Y007192D01*
X015159Y007192D01*
X012364Y007085D02*
X012364Y006978D01*
X011937Y006978D01*
X011937Y006871D02*
X011937Y007085D01*
X012043Y007192D01*
X012257Y007192D01*
X012364Y007085D01*
X012257Y006764D02*
X012043Y006764D01*
X011937Y006871D01*
X011719Y006764D02*
X011399Y006764D01*
X011292Y006871D01*
X011292Y007085D01*
X011399Y007192D01*
X011719Y007192D01*
X011719Y007405D02*
X011719Y006764D01*
X011076Y006764D02*
X010862Y006764D01*
X010969Y006764D02*
X010969Y007192D01*
X010862Y007192D01*
X010645Y007192D02*
X010325Y007192D01*
X010218Y007085D01*
X010325Y006978D01*
X010538Y006978D01*
X010645Y006871D01*
X010538Y006764D01*
X010218Y006764D01*
X010000Y006871D02*
X010000Y007085D01*
X009894Y007192D01*
X009573Y007192D01*
X009573Y006551D01*
X009573Y006764D02*
X009894Y006764D01*
X010000Y006871D01*
X009356Y006871D02*
X009356Y007405D01*
X008929Y007405D02*
X008929Y006871D01*
X009036Y006764D01*
X009249Y006764D01*
X009356Y006871D01*
X008068Y006764D02*
X007855Y006764D01*
X007961Y006764D02*
X007961Y007192D01*
X007855Y007192D01*
X007961Y007405D02*
X007961Y007512D01*
X007637Y007298D02*
X007637Y007085D01*
X007530Y006978D01*
X007210Y006978D01*
X007210Y006764D02*
X007210Y007405D01*
X007530Y007405D01*
X007637Y007298D01*
X010969Y007405D02*
X010969Y007512D01*
X025030Y025734D02*
X025080Y025734D01*
X025280Y025734D02*
X025330Y025734D01*
X030680Y006234D02*
X030682Y006297D01*
X030688Y006359D01*
X030698Y006421D01*
X030711Y006483D01*
X030729Y006543D01*
X030750Y006602D01*
X030775Y006660D01*
X030804Y006716D01*
X030836Y006770D01*
X030871Y006822D01*
X030909Y006871D01*
X030951Y006919D01*
X030995Y006963D01*
X031043Y007005D01*
X031092Y007043D01*
X031144Y007078D01*
X031198Y007110D01*
X031254Y007139D01*
X031312Y007164D01*
X031371Y007185D01*
X031431Y007203D01*
X031493Y007216D01*
X031555Y007226D01*
X031617Y007232D01*
X031680Y007234D01*
X031743Y007232D01*
X031805Y007226D01*
X031867Y007216D01*
X031929Y007203D01*
X031989Y007185D01*
X032048Y007164D01*
X032106Y007139D01*
X032162Y007110D01*
X032216Y007078D01*
X032268Y007043D01*
X032317Y007005D01*
X032365Y006963D01*
X032409Y006919D01*
X032451Y006871D01*
X032489Y006822D01*
X032524Y006770D01*
X032556Y006716D01*
X032585Y006660D01*
X032610Y006602D01*
X032631Y006543D01*
X032649Y006483D01*
X032662Y006421D01*
X032672Y006359D01*
X032678Y006297D01*
X032680Y006234D01*
X032678Y006171D01*
X032672Y006109D01*
X032662Y006047D01*
X032649Y005985D01*
X032631Y005925D01*
X032610Y005866D01*
X032585Y005808D01*
X032556Y005752D01*
X032524Y005698D01*
X032489Y005646D01*
X032451Y005597D01*
X032409Y005549D01*
X032365Y005505D01*
X032317Y005463D01*
X032268Y005425D01*
X032216Y005390D01*
X032162Y005358D01*
X032106Y005329D01*
X032048Y005304D01*
X031989Y005283D01*
X031929Y005265D01*
X031867Y005252D01*
X031805Y005242D01*
X031743Y005236D01*
X031680Y005234D01*
X031617Y005236D01*
X031555Y005242D01*
X031493Y005252D01*
X031431Y005265D01*
X031371Y005283D01*
X031312Y005304D01*
X031254Y005329D01*
X031198Y005358D01*
X031144Y005390D01*
X031092Y005425D01*
X031043Y005463D01*
X030995Y005505D01*
X030951Y005549D01*
X030909Y005597D01*
X030871Y005646D01*
X030836Y005698D01*
X030804Y005752D01*
X030775Y005808D01*
X030750Y005866D01*
X030729Y005925D01*
X030711Y005985D01*
X030698Y006047D01*
X030688Y006109D01*
X030682Y006171D01*
X030680Y006234D01*
X031180Y005784D02*
X031180Y005684D01*
X031080Y005684D01*
X031180Y005684D02*
X031280Y005684D01*
X031180Y005684D02*
X031180Y005584D01*
X031280Y004234D02*
X031180Y004134D01*
X031180Y003334D01*
X031280Y003234D01*
X031180Y003134D01*
X031180Y002334D01*
X031280Y002234D01*
X032080Y002234D01*
X032180Y002334D01*
X032180Y003134D01*
X032080Y003234D01*
X032180Y003334D01*
X032180Y004134D01*
X032080Y004234D01*
X031280Y004234D01*
D12*
X034880Y012134D02*
X035180Y012134D01*
X035480Y012134D01*
X035480Y012334D02*
X035180Y012334D01*
X034880Y012334D01*
X033280Y021934D02*
X033280Y022234D01*
X033280Y022534D01*
X033080Y022534D02*
X033080Y022234D01*
X033080Y021934D01*
X025280Y025434D02*
X025280Y025734D01*
X025280Y026034D01*
X025080Y026034D02*
X025080Y025734D01*
X025080Y025434D01*
X013280Y014534D02*
X013280Y014234D01*
X013280Y013934D01*
X013080Y013934D02*
X013080Y014234D01*
X013080Y014534D01*
X002480Y022134D02*
X002180Y022134D01*
X001880Y022134D01*
X001880Y022334D02*
X002180Y022334D01*
X002480Y022334D01*
D13*
X002805Y022314D02*
X002880Y022239D01*
X003180Y022239D01*
X003255Y022314D01*
X003255Y022464D01*
X003180Y022539D01*
X003030Y022699D02*
X003030Y022999D01*
X003255Y022924D02*
X002805Y022924D01*
X003030Y022699D01*
X002880Y022539D02*
X002805Y022464D01*
X002805Y022314D01*
X003055Y032409D02*
X003055Y032860D01*
X003280Y032860D01*
X003355Y032785D01*
X003355Y032635D01*
X003280Y032560D01*
X003055Y032560D01*
X003205Y032560D02*
X003355Y032409D01*
X003515Y032409D02*
X003515Y032860D01*
X003816Y032409D01*
X003816Y032860D01*
X003976Y032785D02*
X004051Y032860D01*
X004201Y032860D01*
X004276Y032785D01*
X004276Y032710D01*
X004201Y032635D01*
X004276Y032560D01*
X004276Y032485D01*
X004201Y032409D01*
X004051Y032409D01*
X003976Y032485D01*
X004126Y032635D02*
X004201Y032635D01*
X004316Y035334D02*
X004316Y035935D01*
X004391Y035860D02*
X004466Y035785D01*
X004391Y035860D02*
X004240Y035860D01*
X004165Y035785D01*
X004165Y035710D01*
X004240Y035635D01*
X004391Y035635D01*
X004466Y035560D01*
X004466Y035485D01*
X004391Y035409D01*
X004240Y035409D01*
X004165Y035485D01*
X004005Y035485D02*
X003930Y035409D01*
X003780Y035409D01*
X003705Y035485D01*
X003705Y035860D01*
X004005Y035860D02*
X004005Y035485D01*
X004626Y035409D02*
X004926Y035409D01*
X004776Y035409D02*
X004776Y035860D01*
X004626Y035710D01*
X008055Y032860D02*
X008280Y032860D01*
X008355Y032785D01*
X008355Y032635D01*
X008280Y032560D01*
X008055Y032560D01*
X008205Y032560D02*
X008355Y032409D01*
X008515Y032409D02*
X008515Y032860D01*
X008816Y032409D01*
X008816Y032860D01*
X008976Y032710D02*
X009126Y032860D01*
X009126Y032409D01*
X008976Y032409D02*
X009276Y032409D01*
X008055Y032409D02*
X008055Y032860D01*
X013555Y032360D02*
X013555Y031909D01*
X013555Y032060D02*
X013780Y032060D01*
X013855Y032135D01*
X013855Y032285D01*
X013780Y032360D01*
X013555Y032360D01*
X013705Y032060D02*
X013855Y031909D01*
X014015Y031909D02*
X014015Y032360D01*
X014316Y031909D01*
X014316Y032360D01*
X014476Y032135D02*
X014776Y032135D01*
X014701Y032360D02*
X014701Y031909D01*
X014476Y032135D02*
X014701Y032360D01*
X018555Y032360D02*
X018555Y031909D01*
X018555Y032060D02*
X018780Y032060D01*
X018855Y032135D01*
X018855Y032285D01*
X018780Y032360D01*
X018555Y032360D01*
X018705Y032060D02*
X018855Y031909D01*
X019015Y031909D02*
X019015Y032360D01*
X019316Y031909D01*
X019316Y032360D01*
X019476Y032285D02*
X019551Y032360D01*
X019701Y032360D01*
X019776Y032285D01*
X019776Y032210D01*
X019476Y031909D01*
X019776Y031909D01*
X025155Y031635D02*
X025155Y031335D01*
X025230Y031259D01*
X025380Y031259D01*
X025455Y031335D01*
X025615Y031259D02*
X025916Y031259D01*
X025766Y031259D02*
X025766Y031710D01*
X025615Y031560D01*
X025455Y031635D02*
X025380Y031710D01*
X025230Y031710D01*
X025155Y031635D01*
X026076Y031485D02*
X026076Y031335D01*
X026151Y031259D01*
X026301Y031259D01*
X026376Y031335D01*
X026376Y031410D01*
X026301Y031485D01*
X026076Y031485D01*
X026226Y031635D01*
X026376Y031710D01*
X028055Y032409D02*
X028055Y032860D01*
X028280Y032860D01*
X028355Y032785D01*
X028355Y032635D01*
X028280Y032560D01*
X028055Y032560D01*
X028205Y032560D02*
X028355Y032409D01*
X028515Y032409D02*
X028515Y032860D01*
X028816Y032409D01*
X028816Y032860D01*
X028976Y032860D02*
X028976Y032635D01*
X029126Y032710D01*
X029201Y032710D01*
X029276Y032635D01*
X029276Y032485D01*
X029201Y032409D01*
X029051Y032409D01*
X028976Y032485D01*
X028976Y032860D02*
X029276Y032860D01*
X031555Y030505D02*
X031780Y030280D01*
X031780Y030581D01*
X032005Y030505D02*
X031555Y030505D01*
X031630Y030120D02*
X031780Y030120D01*
X031855Y030045D01*
X031855Y029820D01*
X032005Y029820D02*
X031555Y029820D01*
X031555Y030045D01*
X031630Y030120D01*
X031555Y029660D02*
X031555Y029510D01*
X031555Y029585D02*
X031930Y029585D01*
X032005Y029510D01*
X032005Y029435D01*
X031930Y029359D01*
X033365Y029873D02*
X033705Y029873D01*
X033705Y029986D02*
X033705Y029759D01*
X033478Y029759D02*
X033365Y029873D01*
X033421Y030759D02*
X033365Y030816D01*
X033365Y030930D01*
X033421Y030986D01*
X033478Y030986D01*
X033705Y030759D01*
X033705Y030986D01*
X034705Y030878D02*
X034705Y031104D01*
X034780Y031179D01*
X034930Y031179D01*
X035005Y031104D01*
X035005Y030878D01*
X035155Y030878D02*
X034705Y030878D01*
X035005Y031028D02*
X035155Y031179D01*
X035155Y031339D02*
X034705Y031339D01*
X035155Y031639D01*
X034705Y031639D01*
X034780Y031799D02*
X034705Y031874D01*
X034705Y032024D01*
X034780Y032099D01*
X034855Y032099D01*
X034930Y032024D01*
X034930Y031874D01*
X034855Y031799D01*
X034780Y031799D01*
X034930Y031874D02*
X035005Y031799D01*
X035080Y031799D01*
X035155Y031874D01*
X035155Y032024D01*
X035080Y032099D01*
X035005Y032099D01*
X034930Y032024D01*
X034345Y032300D02*
X034345Y032527D01*
X034345Y032414D02*
X034005Y032414D01*
X034118Y032300D01*
X033705Y031930D02*
X033705Y031816D01*
X033648Y031759D01*
X033535Y031873D02*
X033535Y031930D01*
X033592Y031986D01*
X033648Y031986D01*
X033705Y031930D01*
X033535Y031930D02*
X033478Y031986D01*
X033421Y031986D01*
X033365Y031930D01*
X033365Y031816D01*
X033421Y031759D01*
X036055Y032409D02*
X036055Y032860D01*
X036280Y032860D01*
X036355Y032785D01*
X036355Y032635D01*
X036280Y032560D01*
X036055Y032560D01*
X036205Y032560D02*
X036355Y032409D01*
X036515Y032409D02*
X036515Y032860D01*
X036816Y032409D01*
X036816Y032860D01*
X036976Y032635D02*
X037201Y032635D01*
X037276Y032560D01*
X037276Y032485D01*
X037201Y032409D01*
X037051Y032409D01*
X036976Y032485D01*
X036976Y032635D01*
X037126Y032785D01*
X037276Y032860D01*
X033730Y028099D02*
X033805Y028024D01*
X033805Y027874D01*
X033730Y027799D01*
X033580Y027949D02*
X033580Y028024D01*
X033655Y028099D01*
X033730Y028099D01*
X033580Y028024D02*
X033505Y028099D01*
X033430Y028099D01*
X033355Y028024D01*
X033355Y027874D01*
X033430Y027799D01*
X033430Y027639D02*
X033580Y027639D01*
X033655Y027564D01*
X033655Y027339D01*
X033805Y027339D02*
X033355Y027339D01*
X033355Y027564D01*
X033430Y027639D01*
X033355Y027179D02*
X033355Y027028D01*
X033355Y027104D02*
X033730Y027104D01*
X033805Y027028D01*
X033805Y026953D01*
X033730Y026878D01*
X033645Y021610D02*
X033645Y021385D01*
X033795Y021460D01*
X033870Y021460D01*
X033945Y021385D01*
X033945Y021235D01*
X033870Y021159D01*
X033720Y021159D01*
X033645Y021235D01*
X033484Y021235D02*
X033409Y021159D01*
X033259Y021159D01*
X033184Y021235D01*
X033184Y021535D01*
X033259Y021610D01*
X033409Y021610D01*
X033484Y021535D01*
X033645Y021610D02*
X033945Y021610D01*
X029695Y017760D02*
X029395Y017760D01*
X029395Y017535D01*
X029545Y017610D01*
X029620Y017610D01*
X029695Y017535D01*
X029695Y017385D01*
X029620Y017309D01*
X029470Y017309D01*
X029395Y017385D01*
X029159Y017385D02*
X029159Y017760D01*
X029084Y017760D02*
X029234Y017760D01*
X029159Y017385D02*
X029084Y017309D01*
X029009Y017309D01*
X028934Y017385D01*
X028774Y017385D02*
X028699Y017309D01*
X028549Y017309D01*
X028474Y017385D01*
X028549Y017535D02*
X028699Y017535D01*
X028774Y017460D01*
X028774Y017385D01*
X028549Y017535D02*
X028474Y017610D01*
X028474Y017685D01*
X028549Y017760D01*
X028699Y017760D01*
X028774Y017685D01*
X028699Y016760D02*
X028549Y016760D01*
X028474Y016685D01*
X028474Y016610D01*
X028549Y016535D01*
X028699Y016535D01*
X028774Y016460D01*
X028774Y016385D01*
X028699Y016309D01*
X028549Y016309D01*
X028474Y016385D01*
X028774Y016685D02*
X028699Y016760D01*
X029084Y016760D02*
X029234Y016760D01*
X029159Y016760D02*
X029159Y016385D01*
X029084Y016309D01*
X029009Y016309D01*
X028934Y016385D01*
X029395Y016309D02*
X029695Y016309D01*
X029545Y016309D02*
X029545Y016760D01*
X029395Y016610D01*
X029470Y015760D02*
X029395Y015685D01*
X029470Y015760D02*
X029620Y015760D01*
X029695Y015685D01*
X029695Y015610D01*
X029395Y015309D01*
X029695Y015309D01*
X029159Y015385D02*
X029159Y015760D01*
X029084Y015760D02*
X029234Y015760D01*
X029159Y015385D02*
X029084Y015309D01*
X029009Y015309D01*
X028934Y015385D01*
X028774Y015385D02*
X028699Y015309D01*
X028549Y015309D01*
X028474Y015385D01*
X028549Y015535D02*
X028699Y015535D01*
X028774Y015460D01*
X028774Y015385D01*
X028549Y015535D02*
X028474Y015610D01*
X028474Y015685D01*
X028549Y015760D01*
X028699Y015760D01*
X028774Y015685D01*
X028699Y014760D02*
X028549Y014760D01*
X028474Y014685D01*
X028474Y014610D01*
X028549Y014535D01*
X028699Y014535D01*
X028774Y014460D01*
X028774Y014385D01*
X028699Y014309D01*
X028549Y014309D01*
X028474Y014385D01*
X028774Y014685D02*
X028699Y014760D01*
X029084Y014760D02*
X029234Y014760D01*
X029159Y014760D02*
X029159Y014385D01*
X029084Y014309D01*
X029009Y014309D01*
X028934Y014385D01*
X029395Y014385D02*
X029470Y014309D01*
X029620Y014309D01*
X029695Y014385D01*
X029695Y014460D01*
X029620Y014535D01*
X029545Y014535D01*
X029620Y014535D02*
X029695Y014610D01*
X029695Y014685D01*
X029620Y014760D01*
X029470Y014760D01*
X029395Y014685D01*
X030780Y007970D02*
X030855Y007970D01*
X030930Y007895D01*
X031005Y007970D01*
X031080Y007970D01*
X031155Y007895D01*
X031155Y007745D01*
X031080Y007670D01*
X031080Y007510D02*
X031155Y007435D01*
X031155Y007285D01*
X031080Y007209D01*
X030780Y007209D01*
X030705Y007285D01*
X030705Y007435D01*
X030780Y007510D01*
X030780Y007670D02*
X030705Y007745D01*
X030705Y007895D01*
X030780Y007970D01*
X030930Y007895D02*
X030930Y007820D01*
X031005Y003481D02*
X031005Y003180D01*
X031005Y003330D02*
X030555Y003330D01*
X030705Y003180D01*
X030780Y003020D02*
X030855Y002945D01*
X030855Y002720D01*
X031005Y002720D02*
X030555Y002720D01*
X030555Y002945D01*
X030630Y003020D01*
X030780Y003020D01*
X030555Y002560D02*
X030555Y002410D01*
X030555Y002485D02*
X030930Y002485D01*
X031005Y002410D01*
X031005Y002335D01*
X030930Y002259D01*
D14*
X036715Y021319D02*
X036925Y021319D01*
X036820Y021319D02*
X036820Y021950D01*
X036715Y021950D02*
X036925Y021950D01*
X037145Y021845D02*
X037145Y021425D01*
X037250Y021319D01*
X037460Y021319D01*
X037565Y021425D01*
X037789Y021425D02*
X037894Y021319D01*
X038105Y021319D01*
X038210Y021425D01*
X038210Y021530D01*
X038105Y021635D01*
X037999Y021635D01*
X038105Y021635D02*
X038210Y021740D01*
X038210Y021845D01*
X038105Y021950D01*
X037894Y021950D01*
X037789Y021845D01*
X037565Y021845D02*
X037460Y021950D01*
X037250Y021950D01*
X037145Y021845D01*
X004095Y017264D02*
X004095Y016844D01*
X004095Y017054D02*
X003464Y017054D01*
X003675Y016844D01*
X003570Y016620D02*
X003464Y016514D01*
X003464Y016304D01*
X003570Y016199D01*
X003990Y016199D01*
X004095Y016304D01*
X004095Y016514D01*
X003990Y016620D01*
X004095Y015980D02*
X004095Y015769D01*
X004095Y015875D02*
X003464Y015875D01*
X003464Y015980D02*
X003464Y015769D01*
D15*
X033987Y005770D02*
X033987Y000140D01*
X037373Y000140D01*
X037373Y003270D01*
X037373Y005140D02*
X037373Y005770D01*
X036743Y005770D01*
X034617Y005770D02*
X033987Y005770D01*
D16*
X004180Y033734D03*
M02*
