%
M48
M72
T01C0.0240
T02C0.0320
T03C0.0360
T04C0.0394
T05C0.0400
T06C0.1050
T07C0.1083
T08C0.1250
%
T01
X7615Y7729
X8605Y9259
X9460Y8899
X10495Y9439
X10720Y8539
X11440Y8539
X11440Y8044
X11935Y8044
X10405Y6964
X9910Y6964
X10630Y6244
X12745Y4624
X14860Y9079
X14005Y9439
X14590Y10159
X14950Y10789
X15445Y9799
X16165Y9664
X17245Y9124
X13645Y10429
X12925Y11149
X12115Y10384
X10765Y13264
X10225Y14344
X12205Y13624
X14140Y13894
X14815Y13534
X15715Y13939
X16255Y14389
X17155Y14434
X18820Y14749
X19315Y14749
X19810Y14749
X20080Y15514
X20485Y15874
X21250Y16639
X21745Y16594
X22285Y17134
X22105Y17989
X20530Y17719
X20035Y17314
X19090Y16369
X19270Y15694
X18730Y17314
X17695Y17089
X17200Y17134
X16525Y16459
X18370Y18259
X18055Y18889
X17425Y19384
X15625Y19069
X14500Y19654
X14095Y20239
X15040Y20644
X14860Y21139
X14140Y21589
X15040Y23074
X15715Y22714
X17785Y23479
X19405Y22219
X19045Y21589
X20440Y21499
X20755Y22579
X19945Y22939
X22195Y22219
X22375Y22714
X22240Y23704
X24085Y24739
X25525Y24334
X27955Y20779
X28675Y18844
X29980Y17719
X28315Y16549
X26875Y16099
X25525Y15334
X24670Y15469
X24625Y16189
X23860Y17359
X22375Y15784
X23635Y14074
X24625Y14209
X22150Y13444
X21835Y10879
X20980Y10384
X23050Y8404
X23410Y8044
X23050Y7324
X24220Y8809
X23860Y9484
X25165Y8359
X25570Y7954
X25795Y8989
X25750Y9484
X26470Y10204
X27910Y9799
X27370Y11509
X27685Y13264
X30025Y14839
X32995Y12679
X32455Y10789
X32050Y10204
X31240Y10654
X32815Y9349
X33175Y9709
X33400Y10339
X32770Y8809
X32770Y7189
X32410Y5794
X28180Y5344
X27415Y6874
X26110Y4264
X35290Y10339
X38530Y11239
X38215Y15379
X37270Y15829
X37630Y17854
X36865Y19384
X38170Y20059
X38755Y21274
X38080Y22444
X38080Y22984
X38485Y24154
X37630Y24649
X36865Y24874
X36235Y24244
X35605Y23884
X36415Y23074
X36865Y23884
X35020Y22174
X34705Y21274
X32815Y21274
X32860Y20239
X32860Y19249
X32815Y18754
X34480Y17269
X36415Y21319
X34705Y23524
X32320Y25054
X31960Y25414
X33040Y25864
X33535Y25684
X34840Y25684
X32185Y22669
X30025Y26134
X31870Y28879
X30250Y32524
X30565Y35584
X26560Y31849
X19945Y31399
X19045Y32254
X14815Y34234
X11890Y35584
X10675Y35449
X9460Y30904
X9100Y28834
X9865Y27079
X9865Y26584
X12340Y26764
X12340Y27349
X12340Y28744
X15490Y27844
X15355Y27214
X11890Y24649
X11395Y23524
X9595Y23614
X9325Y21904
X8335Y21049
X8155Y21544
X7030Y21364
X5725Y23974
X4240Y25189
X3430Y23704
X2755Y21004
X6085Y17179
X6490Y16279
X5905Y16009
X7930Y13984
X5455Y13534
X3655Y11734
X2755Y12904
X8650Y17269
X9370Y17089
X11080Y17584
X11890Y17449
X12835Y17359
X12835Y16819
X20845Y19249
X25525Y19339
X19135Y25369
X19000Y28069
X6490Y29959
X6490Y30769
X4645Y28474
X39385Y25414
X39745Y29509
T02
X38680Y29734
X38680Y28734
X38680Y27734
X38680Y26734
X38680Y25734
X38680Y24734
X35680Y24734
X35680Y25734
X35680Y26734
X35680Y27734
X35680Y28734
X35680Y29734
X35680Y30734
X35680Y31734
X34180Y31734
X34180Y30734
X34180Y29734
X34180Y28734
X34180Y27734
X30680Y27734
X30680Y28734
X30680Y29734
X30680Y30734
X30680Y31734
X27680Y31734
X27680Y30734
X27680Y29734
X27680Y28734
X27680Y27734
X27680Y26734
X27680Y25734
X27680Y24734
X26180Y24734
X25680Y25734
X24680Y25734
X23180Y24734
X23180Y23734
X23180Y22734
X23180Y21734
X23180Y20734
X23180Y19734
X23180Y18734
X23180Y17734
X23180Y16734
X23180Y15734
X26180Y15734
X26180Y16734
X26180Y17734
X26180Y18734
X26180Y19734
X26180Y20734
X26180Y21734
X26180Y22734
X26180Y23734
X30680Y24734
X30680Y25734
X30680Y26734
X32680Y22234
X33680Y22234
X33680Y21234
X33680Y20234
X33680Y19234
X33680Y18234
X33680Y17234
X33680Y16234
X33680Y15234
X33680Y14234
X33680Y13234
X33680Y12234
X35180Y11734
X36180Y11734
X36180Y10734
X36180Y9734
X36180Y8734
X36180Y7734
X39180Y7734
X39180Y8734
X39180Y9734
X39180Y10734
X39180Y11734
X39180Y12734
X39180Y13734
X39180Y14734
X39180Y15734
X39180Y16734
X39180Y17734
X39180Y18734
X39180Y19734
X39180Y20734
X36180Y20734
X36180Y19734
X36180Y18734
X36180Y17734
X36180Y16734
X36180Y15734
X36180Y14734
X36180Y13734
X36180Y12734
X35180Y12734
X30680Y12234
X30680Y13234
X30680Y14234
X30680Y15234
X30680Y16234
X30680Y17234
X30680Y18234
X30680Y19234
X30680Y20234
X30680Y21234
X21180Y24234
X21180Y25234
X21180Y26234
X21180Y27234
X21180Y28234
X21180Y29234
X21180Y30234
X21180Y31234
X23680Y30734
X24680Y30734
X18180Y30234
X18180Y29234
X18180Y28234
X18180Y27234
X18180Y26234
X18180Y25234
X18180Y24234
X16180Y24234
X16180Y25234
X16180Y26234
X16180Y27234
X16180Y28234
X16180Y29234
X16180Y30234
X16180Y31234
X18180Y31234
X13180Y31234
X13180Y30234
X13180Y29234
X13180Y28234
X13180Y27234
X13180Y26234
X13180Y25234
X13180Y24234
X12180Y22734
X11180Y22734
X10180Y22734
X9180Y22734
X8180Y22734
X7180Y22734
X6180Y22734
X5180Y22734
X4180Y22734
X3180Y22734
X2180Y22734
X2180Y21734
X3180Y19734
X4180Y19734
X5180Y19734
X6180Y19734
X7180Y19734
X8180Y19734
X9180Y19734
X10180Y19734
X11180Y19734
X12180Y19734
X11680Y18234
X10680Y18234
X9680Y18234
X8680Y18234
X7680Y18234
X6680Y18234
X5680Y18234
X4680Y18234
X4680Y15234
X5680Y15234
X6680Y15234
X7680Y15234
X8680Y15234
X9680Y15234
X10680Y15234
X11680Y15234
X12680Y15234
X13680Y15234
X14680Y15234
X15680Y15234
X16680Y15234
X17680Y15234
X17680Y18234
X16680Y18234
X15680Y18234
X14680Y18234
X13680Y18234
X12680Y18234
X12680Y14234
X13680Y14234
X10680Y24734
X10680Y25734
X10680Y26734
X10680Y27734
X10680Y28734
X10680Y29734
X10680Y30734
X10680Y31734
X7680Y31734
X7680Y30734
X7680Y29734
X7680Y28734
X7680Y27734
X7680Y26734
X7680Y25734
X7680Y24734
X5680Y24734
X5680Y25734
X5680Y26734
X5680Y27734
X5680Y28734
X5680Y29734
X5680Y30734
X5680Y31734
X2680Y31734
X2680Y30734
X2680Y29734
X2680Y28734
X2680Y27734
X2680Y26734
X2680Y25734
X2680Y24734
X31680Y6734
X31680Y5734
X38680Y30734
X38680Y31734
T03
X32680Y31734
X32680Y30734
X32680Y29734
X32680Y27734
X32680Y26734
X31680Y3734
X31680Y2734
T04
X26180Y11762
X25180Y11762
X24180Y11762
X23180Y11762
X22180Y11762
X21180Y11762
X20180Y11762
X19180Y11762
X18180Y11762
X17180Y11762
X16180Y11762
X15180Y11762
X14180Y11762
X13180Y11762
X12180Y11762
X11180Y11762
X10180Y11762
X9180Y11762
X8180Y11762
X7180Y11762
X7180Y12762
X8180Y12762
X9180Y12762
X10180Y12762
X11180Y12762
X12180Y12762
X13180Y12762
X14180Y12762
X15180Y12762
X16180Y12762
X17180Y12762
X18180Y12762
X19180Y12762
X20180Y12762
X21180Y12762
X22180Y12762
X23180Y12762
X24180Y12762
X25180Y12762
X26180Y12762
T05
X26180Y33734
X27180Y33734
X28180Y33734
X29180Y33734
X30180Y33734
X31180Y33734
X32180Y33734
X33180Y33734
X34180Y33734
X35180Y33734
X36180Y33734
X37180Y33734
X37180Y34734
X36180Y34734
X35180Y34734
X34180Y34734
X33180Y34734
X32180Y34734
X31180Y34734
X30180Y34734
X29180Y34734
X28180Y34734
X27180Y34734
X26180Y34734
X25180Y34734
X24180Y34734
X24180Y33734
X25180Y33734
X23180Y33734
X22180Y33734
X21180Y33734
X20180Y33734
X19180Y33734
X18180Y33734
X17180Y33734
X16180Y33734
X15180Y33734
X14180Y33734
X13180Y33734
X12180Y33734
X11180Y33734
X10180Y33734
X9180Y33734
X8180Y33734
X7180Y33734
X6180Y33734
X5180Y33734
X4180Y33734
X4180Y34734
X5180Y34734
X6180Y34734
X7180Y34734
X8180Y34734
X9180Y34734
X10180Y34734
X11180Y34734
X12180Y34734
X13180Y34734
X14180Y34734
X15180Y34734
X16180Y34734
X17180Y34734
X18180Y34734
X19180Y34734
X20180Y34734
X21180Y34734
X22180Y34734
X23180Y34734
T06
X37570Y4234
X35680Y3053
T07
X28097Y3207
X28097Y12262
X5263Y12262
X5263Y3207
T08
X2180Y2234
X35680Y5455
X39180Y2234
X39180Y35234
X2180Y35234
M30
