%
M48
M72
T01C0.0240
T02C0.0320
T03C0.0360
T04C0.0400
T05C0.0440
T06C0.0472
T07C0.0512
T08C0.0900
T09C0.1250
%
T01
X8555Y7699
X14805Y8699
X14805Y16199
X7805Y20074
X7305Y23699
X10055Y24074
X13055Y28574
X10430Y29574
X8305Y31574
X9180Y33074
X10555Y32074
X13430Y32324
X15930Y29824
X18180Y31199
X17180Y32324
X16805Y33074
X17680Y33324
X22180Y30699
X20555Y27574
X19555Y24449
X17180Y23074
X25180Y20699
X29055Y23199
X28055Y31574
X27680Y35074
X28680Y35074
T02
X24680Y30699
X23680Y30699
X23680Y28699
X22680Y28699
X21680Y28699
X20680Y28699
X19680Y28699
X18680Y28699
X17680Y28699
X16680Y28699
X15680Y28699
X14180Y28699
X14180Y27699
X12180Y27699
X11180Y27699
X10180Y27699
X9180Y27699
X8180Y27699
X7180Y27699
X6180Y27699
X5180Y27699
X4180Y27699
X3180Y27699
X2180Y29699
X2180Y30699
X3180Y30699
X4180Y30699
X5180Y30699
X6180Y30699
X7180Y30699
X8180Y30699
X9180Y30699
X10180Y30699
X11180Y30699
X12180Y30699
X12180Y25699
X11180Y25699
X10180Y25699
X9180Y25699
X8180Y25699
X7180Y25699
X6180Y25699
X5180Y25699
X4180Y25699
X3180Y25699
X2180Y25699
X2180Y24699
X3180Y22699
X4180Y22699
X5180Y22699
X6180Y22699
X7180Y22699
X8180Y22699
X9180Y22699
X10180Y22699
X11180Y22699
X12180Y22699
X15180Y21199
X16180Y21199
X17680Y20199
X18430Y19699
X17680Y19199
X16180Y18199
X15180Y18199
X15180Y17199
X16180Y17199
X17680Y16199
X18430Y15699
X17680Y15199
X16180Y14199
X15180Y14199
X14780Y12199
X15580Y12199
X14680Y10199
X13180Y10199
X13180Y9199
X13180Y8199
X13180Y7199
X13180Y6199
X13180Y5199
X13180Y4199
X13180Y3199
X15180Y3199
X16690Y3699
X17680Y2699
X18670Y3699
X20190Y3699
X21180Y2699
X22170Y3699
X21680Y6199
X22680Y6199
X21680Y7199
X20180Y7199
X20180Y6199
X19180Y7199
X20180Y8199
X21680Y8699
X22680Y9199
X21680Y9699
X20180Y11199
X19180Y10199
X17680Y10199
X16680Y7199
X16680Y6199
X15180Y6199
X13180Y11199
X13180Y12199
X13180Y13199
X10180Y15199
X9180Y15199
X7680Y16199
X5680Y14199
X4680Y14199
X5180Y15699
X2680Y14199
X1680Y14199
X2180Y15699
X2680Y11699
X4680Y11699
X4680Y9199
X3680Y9199
X7680Y8699
X7680Y9699
X9180Y9199
X9180Y8199
X9180Y7199
X9180Y6199
X9180Y5199
X9180Y4199
X9180Y3199
X9180Y10199
X9180Y11199
X9180Y12199
X9180Y13199
X7680Y13199
X19680Y14199
X21680Y16699
X19680Y17199
X19680Y18199
X21680Y20199
X22680Y20199
X19680Y21199
X19680Y25699
X20680Y25699
X21680Y25699
X22680Y25699
X23680Y25699
X24680Y25699
X25680Y24699
X25680Y23699
X25680Y22199
X25680Y21199
X27180Y20699
X27180Y21699
X27180Y22699
X27180Y23699
X27180Y24699
X27180Y25699
X27180Y26699
X27180Y27699
X27180Y28699
X24680Y28699
X18680Y25699
X17680Y25699
X16680Y25699
X15680Y25699
X24680Y16699
X27180Y16699
X27180Y17699
X27180Y18699
X27180Y19699
X27180Y15699
X24180Y14199
X23180Y14199
X26680Y11699
X27680Y11699
X27180Y10699
X26180Y10699
X24680Y9699
X24680Y8699
X26180Y7699
X27180Y7699
X28180Y7699
X29180Y7699
X30680Y8699
X30680Y9699
X29180Y10699
X28180Y10699
X32680Y9699
X33680Y9699
X35680Y8699
X37180Y8699
X37180Y7699
X35680Y11699
X35180Y14199
X35180Y15199
X35180Y17199
X36180Y17199
X37180Y17199
X35180Y20199
X35180Y21699
X36180Y21699
X37180Y21699
X35180Y24699
X33180Y24699
X33180Y23699
X33180Y22699
X33180Y21699
X33180Y20699
X33180Y19699
X33180Y18699
X33180Y17699
X33180Y16699
X33180Y15699
X33180Y25699
X33180Y26699
X33180Y27699
X33180Y28699
X35180Y29149
X37180Y29199
X37180Y30199
X37180Y27199
X37180Y26199
X35180Y27249
T03
X30680Y2699
X29680Y2699
T04
X24680Y11199
X25680Y20199
X11180Y15199
X11180Y33699
X12180Y33699
X13180Y33699
X14180Y33699
X15180Y33699
X16180Y33699
X17180Y33699
X18180Y33699
X19180Y33699
X20180Y33699
X21180Y33699
X22180Y33699
X23180Y33699
X24180Y33699
X25180Y33699
X26180Y33699
X27180Y33699
X28180Y33699
X29180Y33699
X30180Y33699
X31180Y33699
X32180Y33699
X33180Y33699
X34180Y33699
X35180Y33699
X36180Y33699
X37180Y33699
X37180Y34699
X36180Y34699
X35180Y34699
X34180Y34699
X33180Y34699
X32180Y34699
X31180Y34699
X30180Y34699
X29180Y34699
X28180Y34699
X27180Y34699
X26180Y34699
X25180Y34699
X24180Y34699
X23180Y34699
X22180Y34699
X21180Y34699
X20180Y34699
X19180Y34699
X18180Y34699
X17180Y34699
X16180Y34699
X15180Y34699
X14180Y34699
X13180Y34699
X12180Y34699
X11180Y34699
X10180Y34699
X9180Y34699
X8180Y34699
X8180Y33699
X9180Y33699
X10180Y33699
X7180Y33699
X6180Y33699
X5180Y33699
X4180Y33699
X4180Y34699
X5180Y34699
X6180Y34699
X7180Y34699
T05
X7180Y17699
X2180Y17699
X27180Y31199
X32180Y31199
T06
X32211Y2699
X32211Y1715
X36149Y1715
X36149Y2699
X28149Y2699
X28149Y1715
X24211Y1715
X24211Y2699
T07
X24211Y4668
X25196Y4668
X26196Y4668
X27164Y4668
X28149Y4668
X26180Y2699
X32211Y4668
X33196Y4668
X34196Y4668
X35164Y4668
X36149Y4668
X34180Y2699
T08
X7070Y5199
X5180Y4018
T09
X2180Y2199
X5180Y6420
X2180Y35199
X39180Y35199
X39180Y2199
M30
