G75*
%MOIN*%
%OFA0B0*%
%FSLAX24Y24*%
%IPPOS*%
%LPD*%
%AMOC8*
5,1,8,0,0,1.08239X$1,22.5*
%
%ADD10C,0.1330*%
%ADD11OC8,0.0600*%
%ADD12OC8,0.0710*%
%ADD13C,0.0710*%
%ADD14OC8,0.0680*%
%ADD15C,0.0600*%
%ADD16C,0.0820*%
%ADD17C,0.0600*%
%ADD18C,0.0640*%
%ADD19C,0.0940*%
%ADD20C,0.0552*%
%ADD21C,0.1830*%
%ADD22C,0.1580*%
%ADD23C,0.0740*%
D10*
X002180Y002199D03*
X002180Y035199D03*
X039180Y035199D03*
X039180Y002199D03*
D11*
X037180Y007699D03*
X037180Y008699D03*
X035680Y008699D03*
X035680Y011699D03*
X035180Y014199D03*
X035180Y015199D03*
X035180Y017199D03*
X036180Y017199D03*
X037180Y017199D03*
X035180Y020199D03*
X035180Y021699D03*
X036180Y021699D03*
X037180Y021699D03*
X035180Y024699D03*
X037180Y026199D03*
X037180Y027199D03*
X037180Y029199D03*
X037180Y030199D03*
X025680Y024699D03*
X025680Y023699D03*
X025680Y022199D03*
X025680Y021199D03*
X024680Y016699D03*
X021680Y016699D03*
X019680Y017199D03*
X019680Y018199D03*
X019680Y021199D03*
X016180Y021199D03*
X015180Y021199D03*
X015180Y018199D03*
X016180Y018199D03*
X016180Y017199D03*
X015180Y017199D03*
X015180Y014199D03*
X016180Y014199D03*
X015580Y012199D03*
X014680Y010199D03*
X017680Y010199D03*
X019180Y010199D03*
X020180Y011199D03*
X021680Y009699D03*
X022680Y009199D03*
X021680Y008699D03*
X021680Y007199D03*
X021680Y006199D03*
X022680Y006199D03*
X020180Y006199D03*
X020180Y007199D03*
X019180Y007199D03*
X020180Y008199D03*
X016680Y007199D03*
X016680Y006199D03*
X015180Y006199D03*
X016690Y003699D03*
X017680Y002699D03*
X018670Y003699D03*
X020190Y003699D03*
X021180Y002699D03*
X022170Y003699D03*
X024680Y008699D03*
X024680Y009699D03*
X026680Y011699D03*
X027680Y011699D03*
X030680Y009699D03*
X030680Y008699D03*
X019680Y014199D03*
X010180Y015199D03*
X009180Y015199D03*
X007680Y016199D03*
X005180Y015699D03*
X002180Y015699D03*
X002680Y011699D03*
X004680Y011699D03*
X007680Y013199D03*
X007680Y009699D03*
X007680Y008699D03*
X015180Y003199D03*
X002180Y024699D03*
X002180Y025699D03*
X002180Y029699D03*
X002180Y030699D03*
X014180Y028699D03*
X014180Y027699D03*
D12*
X022680Y020199D03*
X023180Y014199D03*
X032680Y009699D03*
X024680Y030699D03*
X003680Y009199D03*
D13*
X004680Y009199D03*
X021680Y020199D03*
X024180Y014199D03*
X033680Y009699D03*
X023680Y030699D03*
D14*
X023180Y033699D03*
X022180Y033699D03*
X021180Y033699D03*
X020180Y033699D03*
X019180Y033699D03*
X018180Y033699D03*
X017180Y033699D03*
X016180Y033699D03*
X015180Y033699D03*
X014180Y033699D03*
X013180Y033699D03*
X012180Y033699D03*
X011180Y033699D03*
X010180Y033699D03*
X009180Y033699D03*
X008180Y033699D03*
X007180Y033699D03*
X006180Y033699D03*
X005180Y033699D03*
X004180Y033699D03*
X004180Y034699D03*
X005180Y034699D03*
X006180Y034699D03*
X007180Y034699D03*
X008180Y034699D03*
X009180Y034699D03*
X010180Y034699D03*
X011180Y034699D03*
X012180Y034699D03*
X013180Y034699D03*
X014180Y034699D03*
X015180Y034699D03*
X016180Y034699D03*
X017180Y034699D03*
X018180Y034699D03*
X019180Y034699D03*
X020180Y034699D03*
X021180Y034699D03*
X022180Y034699D03*
X023180Y034699D03*
X024180Y034699D03*
X025180Y034699D03*
X025180Y033699D03*
X024180Y033699D03*
X026180Y033699D03*
X027180Y033699D03*
X028180Y033699D03*
X029180Y033699D03*
X030180Y033699D03*
X031180Y033699D03*
X032180Y033699D03*
X033180Y033699D03*
X034180Y033699D03*
X035180Y033699D03*
X036180Y033699D03*
X037180Y033699D03*
X037180Y034699D03*
X036180Y034699D03*
X035180Y034699D03*
X034180Y034699D03*
X033180Y034699D03*
X032180Y034699D03*
X031180Y034699D03*
X030180Y034699D03*
X029180Y034699D03*
X028180Y034699D03*
X027180Y034699D03*
X026180Y034699D03*
X025680Y020199D03*
X024680Y011199D03*
X011180Y015199D03*
D15*
X009440Y013199D02*
X008920Y013199D01*
X008920Y012199D02*
X009440Y012199D01*
X009440Y011199D02*
X008920Y011199D01*
X008920Y010199D02*
X009440Y010199D01*
X009440Y009199D02*
X008920Y009199D01*
X008920Y008199D02*
X009440Y008199D01*
X009440Y007199D02*
X008920Y007199D01*
X008920Y006199D02*
X009440Y006199D01*
X009440Y005199D02*
X008920Y005199D01*
X008920Y004199D02*
X009440Y004199D01*
X009440Y003199D02*
X008920Y003199D01*
X012920Y003199D02*
X013440Y003199D01*
X013440Y004199D02*
X012920Y004199D01*
X012920Y005199D02*
X013440Y005199D01*
X013440Y006199D02*
X012920Y006199D01*
X012920Y007199D02*
X013440Y007199D01*
X013440Y008199D02*
X012920Y008199D01*
X012920Y009199D02*
X013440Y009199D01*
X013440Y010199D02*
X012920Y010199D01*
X012920Y011199D02*
X013440Y011199D01*
X013440Y012199D02*
X012920Y012199D01*
X012920Y013199D02*
X013440Y013199D01*
X005680Y013939D02*
X005680Y014459D01*
X004680Y014459D02*
X004680Y013939D01*
X002680Y013939D02*
X002680Y014459D01*
X001680Y014459D02*
X001680Y013939D01*
X003180Y022439D02*
X003180Y022959D01*
X004180Y022959D02*
X004180Y022439D01*
X005180Y022439D02*
X005180Y022959D01*
X006180Y022959D02*
X006180Y022439D01*
X007180Y022439D02*
X007180Y022959D01*
X008180Y022959D02*
X008180Y022439D01*
X009180Y022439D02*
X009180Y022959D01*
X010180Y022959D02*
X010180Y022439D01*
X011180Y022439D02*
X011180Y022959D01*
X012180Y022959D02*
X012180Y022439D01*
X012180Y025439D02*
X012180Y025959D01*
X011180Y025959D02*
X011180Y025439D01*
X010180Y025439D02*
X010180Y025959D01*
X009180Y025959D02*
X009180Y025439D01*
X008180Y025439D02*
X008180Y025959D01*
X007180Y025959D02*
X007180Y025439D01*
X006180Y025439D02*
X006180Y025959D01*
X005180Y025959D02*
X005180Y025439D01*
X004180Y025439D02*
X004180Y025959D01*
X003180Y025959D02*
X003180Y025439D01*
X003180Y027439D02*
X003180Y027959D01*
X004180Y027959D02*
X004180Y027439D01*
X005180Y027439D02*
X005180Y027959D01*
X006180Y027959D02*
X006180Y027439D01*
X007180Y027439D02*
X007180Y027959D01*
X008180Y027959D02*
X008180Y027439D01*
X009180Y027439D02*
X009180Y027959D01*
X010180Y027959D02*
X010180Y027439D01*
X011180Y027439D02*
X011180Y027959D01*
X012180Y027959D02*
X012180Y027439D01*
X012180Y030439D02*
X012180Y030959D01*
X011180Y030959D02*
X011180Y030439D01*
X010180Y030439D02*
X010180Y030959D01*
X009180Y030959D02*
X009180Y030439D01*
X008180Y030439D02*
X008180Y030959D01*
X007180Y030959D02*
X007180Y030439D01*
X006180Y030439D02*
X006180Y030959D01*
X005180Y030959D02*
X005180Y030439D01*
X004180Y030439D02*
X004180Y030959D01*
X003180Y030959D02*
X003180Y030439D01*
X015680Y028959D02*
X015680Y028439D01*
X016680Y028439D02*
X016680Y028959D01*
X017680Y028959D02*
X017680Y028439D01*
X018680Y028439D02*
X018680Y028959D01*
X019680Y028959D02*
X019680Y028439D01*
X020680Y028439D02*
X020680Y028959D01*
X021680Y028959D02*
X021680Y028439D01*
X022680Y028439D02*
X022680Y028959D01*
X023680Y028959D02*
X023680Y028439D01*
X024680Y028439D02*
X024680Y028959D01*
X026920Y028699D02*
X027440Y028699D01*
X027440Y027699D02*
X026920Y027699D01*
X026920Y026699D02*
X027440Y026699D01*
X027440Y025699D02*
X026920Y025699D01*
X026920Y024699D02*
X027440Y024699D01*
X027440Y023699D02*
X026920Y023699D01*
X026920Y022699D02*
X027440Y022699D01*
X027440Y021699D02*
X026920Y021699D01*
X026920Y020699D02*
X027440Y020699D01*
X027440Y019699D02*
X026920Y019699D01*
X026920Y018699D02*
X027440Y018699D01*
X027440Y017699D02*
X026920Y017699D01*
X026920Y016699D02*
X027440Y016699D01*
X027440Y015699D02*
X026920Y015699D01*
X032920Y015699D02*
X033440Y015699D01*
X033440Y016699D02*
X032920Y016699D01*
X032920Y017699D02*
X033440Y017699D01*
X033440Y018699D02*
X032920Y018699D01*
X032920Y019699D02*
X033440Y019699D01*
X033440Y020699D02*
X032920Y020699D01*
X032920Y021699D02*
X033440Y021699D01*
X033440Y022699D02*
X032920Y022699D01*
X032920Y023699D02*
X033440Y023699D01*
X033440Y024699D02*
X032920Y024699D01*
X032920Y025699D02*
X033440Y025699D01*
X033440Y026699D02*
X032920Y026699D01*
X032920Y027699D02*
X033440Y027699D01*
X033440Y028699D02*
X032920Y028699D01*
X024680Y025959D02*
X024680Y025439D01*
X023680Y025439D02*
X023680Y025959D01*
X022680Y025959D02*
X022680Y025439D01*
X021680Y025439D02*
X021680Y025959D01*
X020680Y025959D02*
X020680Y025439D01*
X019680Y025439D02*
X019680Y025959D01*
X018680Y025959D02*
X018680Y025439D01*
X017680Y025439D02*
X017680Y025959D01*
X016680Y025959D02*
X016680Y025439D01*
X015680Y025439D02*
X015680Y025959D01*
D16*
X017680Y020199D03*
X018430Y019699D03*
X017680Y019199D03*
X017680Y016199D03*
X018430Y015699D03*
X017680Y015199D03*
D17*
X014780Y012199D03*
X026180Y010699D03*
X027180Y010699D03*
X028180Y010699D03*
X029180Y010699D03*
X029180Y007699D03*
X028180Y007699D03*
X027180Y007699D03*
X026180Y007699D03*
X035180Y027249D03*
X035180Y029149D03*
D18*
X030680Y002979D02*
X030680Y002419D01*
X029680Y002419D02*
X029680Y002979D01*
D19*
X028149Y004668D03*
X027164Y004668D03*
X026196Y004668D03*
X025196Y004668D03*
X024211Y004668D03*
X026180Y002699D03*
X032211Y004668D03*
X033196Y004668D03*
X034196Y004668D03*
X035164Y004668D03*
X036149Y004668D03*
X034180Y002699D03*
D20*
X032211Y002699D03*
X032211Y001715D03*
X036149Y001715D03*
X036149Y002699D03*
X028149Y002699D03*
X028149Y001715D03*
X024211Y001715D03*
X024211Y002699D03*
D21*
X005180Y006420D03*
D22*
X007070Y005199D03*
X005180Y004018D03*
D23*
X006850Y017699D02*
X007510Y017699D01*
X002510Y017699D02*
X001850Y017699D01*
X026850Y031199D02*
X027510Y031199D01*
X031850Y031199D02*
X032510Y031199D01*
M02*
