G75*
%MOIN*%
%OFA0B0*%
%FSLAX24Y24*%
%IPPOS*%
%LPD*%
%AMOC8*
5,1,8,0,0,1.08239X$1,22.5*
%
%ADD10C,0.0040*%
%ADD11C,0.0060*%
%ADD12C,0.0100*%
%ADD13C,0.0030*%
%ADD14C,0.0050*%
%ADD15R,0.1000X0.1000*%
%ADD16C,0.0070*%
%ADD17C,0.0020*%
%ADD18R,0.0200X0.0150*%
%ADD19C,0.0080*%
%ADD20R,0.0150X0.0200*%
%ADD21C,0.0160*%
%ADD22R,0.0250X0.1400*%
%ADD23R,0.0550X0.0300*%
%ADD24R,0.0140X0.0240*%
%ADD25C,0.0120*%
D10*
X003777Y007219D02*
X003853Y007219D01*
X003930Y007296D01*
X003930Y007679D01*
X003853Y007679D02*
X004007Y007679D01*
X004160Y007603D02*
X004237Y007679D01*
X004391Y007679D01*
X004467Y007603D01*
X004467Y007526D01*
X004391Y007449D01*
X004467Y007373D01*
X004467Y007296D01*
X004391Y007219D01*
X004237Y007219D01*
X004160Y007296D01*
X004314Y007449D02*
X004391Y007449D01*
X003777Y007219D02*
X003700Y007296D01*
X002510Y023019D02*
X002510Y023173D01*
X002510Y023096D02*
X002050Y023096D01*
X002050Y023019D02*
X002050Y023173D01*
X002126Y023326D02*
X002433Y023326D01*
X002510Y023403D01*
X002510Y023556D01*
X002433Y023633D01*
X002433Y023786D02*
X002510Y023863D01*
X002510Y024017D01*
X002433Y024093D01*
X002357Y024093D01*
X002280Y024017D01*
X002280Y023786D01*
X002433Y023786D01*
X002280Y023786D02*
X002126Y023940D01*
X002050Y024093D01*
X002126Y023633D02*
X002050Y023556D01*
X002050Y023403D01*
X002126Y023326D01*
X002050Y028019D02*
X002050Y028173D01*
X002050Y028096D02*
X002510Y028096D01*
X002510Y028019D02*
X002510Y028173D01*
X002433Y028326D02*
X002510Y028403D01*
X002510Y028556D01*
X002433Y028633D01*
X002433Y028786D02*
X002510Y028863D01*
X002510Y029017D01*
X002433Y029093D01*
X002357Y029093D01*
X002280Y029017D01*
X002280Y028940D01*
X002280Y029017D02*
X002203Y029093D01*
X002126Y029093D01*
X002050Y029017D01*
X002050Y028863D01*
X002126Y028786D01*
X002126Y028633D02*
X002050Y028556D01*
X002050Y028403D01*
X002126Y028326D01*
X002433Y028326D01*
X038700Y023075D02*
X039160Y023075D01*
X039160Y022922D02*
X039160Y022692D01*
X039083Y022615D01*
X039007Y022692D01*
X039007Y022922D01*
X038930Y022922D02*
X039160Y022922D01*
X039007Y023075D02*
X038853Y023306D01*
X038930Y023459D02*
X038853Y023536D01*
X038853Y023689D01*
X038930Y023766D01*
X039007Y023766D01*
X039007Y023459D01*
X039083Y023459D02*
X038930Y023459D01*
X039083Y023459D02*
X039160Y023536D01*
X039160Y023689D01*
X039160Y023919D02*
X038853Y023919D01*
X039007Y023919D02*
X038853Y024073D01*
X038853Y024150D01*
X039083Y024303D02*
X039083Y024380D01*
X039160Y024380D01*
X039160Y024303D01*
X039083Y024303D01*
X039083Y024533D02*
X039160Y024610D01*
X039160Y024840D01*
X039083Y024994D02*
X039160Y025070D01*
X039160Y025224D01*
X039083Y025301D01*
X038930Y025301D01*
X038853Y025224D01*
X038853Y025070D01*
X038930Y024994D01*
X039083Y024994D01*
X038853Y024840D02*
X038853Y024610D01*
X038930Y024533D01*
X039083Y024533D01*
X039160Y025454D02*
X038853Y025454D01*
X038853Y025531D01*
X038930Y025608D01*
X038853Y025684D01*
X038930Y025761D01*
X039160Y025761D01*
X039160Y025608D02*
X038930Y025608D01*
X039160Y023306D02*
X039007Y023075D01*
X038930Y022922D02*
X038853Y022845D01*
X038853Y022692D01*
X038930Y022462D02*
X038853Y022385D01*
X038853Y022155D01*
X038700Y022155D02*
X039160Y022155D01*
X039160Y022385D01*
X039083Y022462D01*
X038930Y022462D01*
X038930Y022001D02*
X039160Y022001D01*
X039160Y021848D02*
X038930Y021848D01*
X038853Y021924D01*
X038930Y022001D01*
X038930Y021848D02*
X038853Y021771D01*
X038853Y021694D01*
X039160Y021694D01*
X039083Y021541D02*
X039007Y021464D01*
X039007Y021311D01*
X038930Y021234D01*
X038853Y021311D01*
X038853Y021541D01*
X039083Y021541D02*
X039160Y021464D01*
X039160Y021234D01*
X039160Y021080D02*
X039160Y021004D01*
X039083Y021004D01*
X039083Y021080D01*
X039160Y021080D01*
X039083Y020850D02*
X038853Y020850D01*
X039083Y020850D02*
X039160Y020773D01*
X039083Y020697D01*
X039160Y020620D01*
X039083Y020543D01*
X038853Y020543D01*
X038853Y020390D02*
X039083Y020390D01*
X039160Y020313D01*
X039083Y020236D01*
X039160Y020160D01*
X039083Y020083D01*
X038853Y020083D01*
X038853Y019929D02*
X039083Y019929D01*
X039160Y019853D01*
X039083Y019776D01*
X039160Y019699D01*
X039083Y019622D01*
X038853Y019622D01*
X038853Y019009D02*
X038776Y019009D01*
X038700Y018932D01*
X038700Y018778D01*
X038776Y018702D01*
X038853Y019009D02*
X039160Y018702D01*
X039160Y019009D01*
X039160Y018548D02*
X039160Y018471D01*
X039083Y018471D01*
X039083Y018548D01*
X039160Y018548D01*
X039083Y018318D02*
X038776Y018318D01*
X039083Y018011D01*
X039160Y018088D01*
X039160Y018241D01*
X039083Y018318D01*
X038776Y018318D02*
X038700Y018241D01*
X038700Y018088D01*
X038776Y018011D01*
X039083Y018011D01*
X039160Y017397D02*
X039160Y017244D01*
X039160Y017320D02*
X038853Y017320D01*
X038853Y017244D01*
X038700Y017320D02*
X038623Y017320D01*
X038853Y017014D02*
X038853Y016860D01*
X038930Y016783D01*
X038853Y016630D02*
X038853Y016400D01*
X038930Y016323D01*
X039083Y016323D01*
X039160Y016400D01*
X039160Y016630D01*
X039160Y016783D02*
X038700Y016783D01*
X038853Y017014D02*
X038930Y017090D01*
X039160Y017090D01*
X039007Y016170D02*
X039007Y015863D01*
X039083Y015863D02*
X038930Y015863D01*
X038853Y015939D01*
X038853Y016093D01*
X038930Y016170D01*
X039007Y016170D01*
X039160Y016093D02*
X039160Y015939D01*
X039083Y015863D01*
X039007Y015709D02*
X039007Y015402D01*
X039083Y015402D02*
X038930Y015402D01*
X038853Y015479D01*
X038853Y015632D01*
X038930Y015709D01*
X039007Y015709D01*
X039160Y015632D02*
X039160Y015479D01*
X039083Y015402D01*
X039083Y015249D02*
X039160Y015172D01*
X039160Y014942D01*
X039313Y014942D02*
X038853Y014942D01*
X038853Y015172D01*
X038930Y015249D01*
X039083Y015249D01*
X039083Y014788D02*
X039007Y014712D01*
X039007Y014558D01*
X038930Y014481D01*
X038853Y014558D01*
X038853Y014788D01*
X039083Y014788D02*
X039160Y014712D01*
X039160Y014481D01*
X038930Y014328D02*
X038930Y014021D01*
X039083Y013868D02*
X038776Y013868D01*
X039083Y013561D01*
X039160Y013637D01*
X039160Y013791D01*
X039083Y013868D01*
X038776Y013868D02*
X038700Y013791D01*
X038700Y013637D01*
X038776Y013561D01*
X039083Y013561D01*
X039083Y013407D02*
X039160Y013330D01*
X039160Y013177D01*
X039083Y013100D01*
X038776Y013407D01*
X039083Y013407D01*
X038776Y013407D02*
X038700Y013330D01*
X038700Y013177D01*
X038776Y013100D01*
X039083Y013100D01*
X039083Y012947D02*
X039160Y012870D01*
X039160Y012717D01*
X039083Y012640D01*
X038776Y012947D01*
X039083Y012947D01*
X038776Y012947D02*
X038700Y012870D01*
X038700Y012717D01*
X038776Y012640D01*
X039083Y012640D01*
X039083Y012486D02*
X039160Y012410D01*
X039160Y012256D01*
X039083Y012179D01*
X039007Y012179D01*
X038930Y012256D01*
X038930Y012410D01*
X039007Y012486D01*
X039083Y012486D01*
X038930Y012410D02*
X038853Y012486D01*
X038776Y012486D01*
X038700Y012410D01*
X038700Y012256D01*
X038776Y012179D01*
X038853Y012179D01*
X038930Y012256D01*
X038776Y012026D02*
X039083Y011719D01*
X039160Y011719D01*
X039160Y012026D01*
X038776Y012026D02*
X038700Y012026D01*
X038700Y011719D01*
D11*
X036080Y011099D02*
X036080Y010949D01*
X036030Y010899D01*
X036030Y009499D01*
X036080Y009449D01*
X036080Y009299D01*
X036078Y009282D01*
X036074Y009265D01*
X036067Y009249D01*
X036057Y009235D01*
X036044Y009222D01*
X036030Y009212D01*
X036014Y009205D01*
X035997Y009201D01*
X035980Y009199D01*
X035380Y009199D01*
X035363Y009201D01*
X035346Y009205D01*
X035330Y009212D01*
X035316Y009222D01*
X035303Y009235D01*
X035293Y009249D01*
X035286Y009265D01*
X035282Y009282D01*
X035280Y009299D01*
X035280Y009449D01*
X035330Y009499D01*
X035330Y010899D01*
X035280Y010949D01*
X035280Y011099D01*
X035282Y011116D01*
X035286Y011133D01*
X035293Y011149D01*
X035303Y011163D01*
X035316Y011176D01*
X035330Y011186D01*
X035346Y011193D01*
X035363Y011197D01*
X035380Y011199D01*
X035980Y011199D01*
X035997Y011197D01*
X036014Y011193D01*
X036030Y011186D01*
X036044Y011176D01*
X036057Y011163D01*
X036067Y011149D01*
X036074Y011133D01*
X036078Y011116D01*
X036080Y011099D01*
X034380Y009699D02*
X034080Y009699D01*
X034230Y009849D02*
X034230Y009549D01*
X031830Y009699D02*
X031832Y009772D01*
X031838Y009845D01*
X031848Y009917D01*
X031862Y009989D01*
X031879Y010060D01*
X031901Y010130D01*
X031926Y010199D01*
X031955Y010266D01*
X031987Y010331D01*
X032023Y010395D01*
X032063Y010457D01*
X032105Y010516D01*
X032151Y010573D01*
X032200Y010627D01*
X032252Y010679D01*
X032306Y010728D01*
X032363Y010774D01*
X032422Y010816D01*
X032484Y010856D01*
X032548Y010892D01*
X032613Y010924D01*
X032680Y010953D01*
X032749Y010978D01*
X032819Y011000D01*
X032890Y011017D01*
X032962Y011031D01*
X033034Y011041D01*
X033107Y011047D01*
X033180Y011049D01*
X033253Y011047D01*
X033326Y011041D01*
X033398Y011031D01*
X033470Y011017D01*
X033541Y011000D01*
X033611Y010978D01*
X033680Y010953D01*
X033747Y010924D01*
X033812Y010892D01*
X033876Y010856D01*
X033938Y010816D01*
X033997Y010774D01*
X034054Y010728D01*
X034108Y010679D01*
X034160Y010627D01*
X034209Y010573D01*
X034255Y010516D01*
X034297Y010457D01*
X034337Y010395D01*
X034373Y010331D01*
X034405Y010266D01*
X034434Y010199D01*
X034459Y010130D01*
X034481Y010060D01*
X034498Y009989D01*
X034512Y009917D01*
X034522Y009845D01*
X034528Y009772D01*
X034530Y009699D01*
X034528Y009626D01*
X034522Y009553D01*
X034512Y009481D01*
X034498Y009409D01*
X034481Y009338D01*
X034459Y009268D01*
X034434Y009199D01*
X034405Y009132D01*
X034373Y009067D01*
X034337Y009003D01*
X034297Y008941D01*
X034255Y008882D01*
X034209Y008825D01*
X034160Y008771D01*
X034108Y008719D01*
X034054Y008670D01*
X033997Y008624D01*
X033938Y008582D01*
X033876Y008542D01*
X033812Y008506D01*
X033747Y008474D01*
X033680Y008445D01*
X033611Y008420D01*
X033541Y008398D01*
X033470Y008381D01*
X033398Y008367D01*
X033326Y008357D01*
X033253Y008351D01*
X033180Y008349D01*
X033107Y008351D01*
X033034Y008357D01*
X032962Y008367D01*
X032890Y008381D01*
X032819Y008398D01*
X032749Y008420D01*
X032680Y008445D01*
X032613Y008474D01*
X032548Y008506D01*
X032484Y008542D01*
X032422Y008582D01*
X032363Y008624D01*
X032306Y008670D01*
X032252Y008719D01*
X032200Y008771D01*
X032151Y008825D01*
X032105Y008882D01*
X032063Y008941D01*
X032023Y009003D01*
X031987Y009067D01*
X031955Y009132D01*
X031926Y009199D01*
X031901Y009268D01*
X031879Y009338D01*
X031862Y009409D01*
X031848Y009481D01*
X031838Y009553D01*
X031832Y009626D01*
X031830Y009699D01*
X031180Y010049D02*
X031180Y008349D01*
X031178Y008332D01*
X031174Y008315D01*
X031167Y008299D01*
X031157Y008285D01*
X031144Y008272D01*
X031130Y008262D01*
X031114Y008255D01*
X031097Y008251D01*
X031080Y008249D01*
X030280Y008249D01*
X030263Y008251D01*
X030246Y008255D01*
X030230Y008262D01*
X030216Y008272D01*
X030203Y008285D01*
X030193Y008299D01*
X030186Y008315D01*
X030182Y008332D01*
X030180Y008349D01*
X030180Y010049D01*
X030182Y010066D01*
X030186Y010083D01*
X030193Y010099D01*
X030203Y010113D01*
X030216Y010126D01*
X030230Y010136D01*
X030246Y010143D01*
X030263Y010147D01*
X030280Y010149D01*
X031080Y010149D01*
X031097Y010147D01*
X031114Y010143D01*
X031130Y010136D01*
X031144Y010126D01*
X031157Y010113D01*
X031167Y010099D01*
X031174Y010083D01*
X031178Y010066D01*
X031180Y010049D01*
X030680Y009349D02*
X030680Y009299D01*
X030680Y009099D02*
X030680Y009049D01*
X029680Y008049D02*
X029680Y010349D01*
X025680Y010349D01*
X025680Y009599D01*
X025180Y010049D02*
X025180Y008349D01*
X025178Y008332D01*
X025174Y008315D01*
X025167Y008299D01*
X025157Y008285D01*
X025144Y008272D01*
X025130Y008262D01*
X025114Y008255D01*
X025097Y008251D01*
X025080Y008249D01*
X024280Y008249D01*
X024263Y008251D01*
X024246Y008255D01*
X024230Y008262D01*
X024216Y008272D01*
X024203Y008285D01*
X024193Y008299D01*
X024186Y008315D01*
X024182Y008332D01*
X024180Y008349D01*
X024180Y010049D01*
X024182Y010066D01*
X024186Y010083D01*
X024193Y010099D01*
X024203Y010113D01*
X024216Y010126D01*
X024230Y010136D01*
X024246Y010143D01*
X024263Y010147D01*
X024280Y010149D01*
X025080Y010149D01*
X025097Y010147D01*
X025114Y010143D01*
X025130Y010136D01*
X025144Y010126D01*
X025157Y010113D01*
X025167Y010099D01*
X025174Y010083D01*
X025178Y010066D01*
X025180Y010049D01*
X024680Y009349D02*
X024680Y009299D01*
X024680Y009099D02*
X024680Y009049D01*
X025680Y008799D02*
X025719Y008801D01*
X025758Y008807D01*
X025796Y008816D01*
X025833Y008829D01*
X025869Y008846D01*
X025902Y008866D01*
X025934Y008890D01*
X025963Y008916D01*
X025989Y008945D01*
X026013Y008977D01*
X026033Y009010D01*
X026050Y009046D01*
X026063Y009083D01*
X026072Y009121D01*
X026078Y009160D01*
X026080Y009199D01*
X026078Y009238D01*
X026072Y009277D01*
X026063Y009315D01*
X026050Y009352D01*
X026033Y009388D01*
X026013Y009421D01*
X025989Y009453D01*
X025963Y009482D01*
X025934Y009508D01*
X025902Y009532D01*
X025869Y009552D01*
X025833Y009569D01*
X025796Y009582D01*
X025758Y009591D01*
X025719Y009597D01*
X025680Y009599D01*
X025680Y008799D02*
X025680Y008049D01*
X029680Y008049D01*
X028030Y011199D02*
X026330Y011199D01*
X026313Y011201D01*
X026296Y011205D01*
X026280Y011212D01*
X026266Y011222D01*
X026253Y011235D01*
X026243Y011249D01*
X026236Y011265D01*
X026232Y011282D01*
X026230Y011299D01*
X026230Y012099D01*
X026232Y012116D01*
X026236Y012133D01*
X026243Y012149D01*
X026253Y012163D01*
X026266Y012176D01*
X026280Y012186D01*
X026296Y012193D01*
X026313Y012197D01*
X026330Y012199D01*
X028030Y012199D01*
X028047Y012197D01*
X028064Y012193D01*
X028080Y012186D01*
X028094Y012176D01*
X028107Y012163D01*
X028117Y012149D01*
X028124Y012133D01*
X028128Y012116D01*
X028130Y012099D01*
X028130Y011299D01*
X028128Y011282D01*
X028124Y011265D01*
X028117Y011249D01*
X028107Y011235D01*
X028094Y011222D01*
X028080Y011212D01*
X028064Y011205D01*
X028047Y011201D01*
X028030Y011199D01*
X027330Y011699D02*
X027280Y011699D01*
X027080Y011699D02*
X027030Y011699D01*
X024730Y014049D02*
X024730Y014349D01*
X024880Y014199D02*
X024580Y014199D01*
X022330Y014199D02*
X022332Y014272D01*
X022338Y014345D01*
X022348Y014417D01*
X022362Y014489D01*
X022379Y014560D01*
X022401Y014630D01*
X022426Y014699D01*
X022455Y014766D01*
X022487Y014831D01*
X022523Y014895D01*
X022563Y014957D01*
X022605Y015016D01*
X022651Y015073D01*
X022700Y015127D01*
X022752Y015179D01*
X022806Y015228D01*
X022863Y015274D01*
X022922Y015316D01*
X022984Y015356D01*
X023048Y015392D01*
X023113Y015424D01*
X023180Y015453D01*
X023249Y015478D01*
X023319Y015500D01*
X023390Y015517D01*
X023462Y015531D01*
X023534Y015541D01*
X023607Y015547D01*
X023680Y015549D01*
X023753Y015547D01*
X023826Y015541D01*
X023898Y015531D01*
X023970Y015517D01*
X024041Y015500D01*
X024111Y015478D01*
X024180Y015453D01*
X024247Y015424D01*
X024312Y015392D01*
X024376Y015356D01*
X024438Y015316D01*
X024497Y015274D01*
X024554Y015228D01*
X024608Y015179D01*
X024660Y015127D01*
X024709Y015073D01*
X024755Y015016D01*
X024797Y014957D01*
X024837Y014895D01*
X024873Y014831D01*
X024905Y014766D01*
X024934Y014699D01*
X024959Y014630D01*
X024981Y014560D01*
X024998Y014489D01*
X025012Y014417D01*
X025022Y014345D01*
X025028Y014272D01*
X025030Y014199D01*
X025028Y014126D01*
X025022Y014053D01*
X025012Y013981D01*
X024998Y013909D01*
X024981Y013838D01*
X024959Y013768D01*
X024934Y013699D01*
X024905Y013632D01*
X024873Y013567D01*
X024837Y013503D01*
X024797Y013441D01*
X024755Y013382D01*
X024709Y013325D01*
X024660Y013271D01*
X024608Y013219D01*
X024554Y013170D01*
X024497Y013124D01*
X024438Y013082D01*
X024376Y013042D01*
X024312Y013006D01*
X024247Y012974D01*
X024180Y012945D01*
X024111Y012920D01*
X024041Y012898D01*
X023970Y012881D01*
X023898Y012867D01*
X023826Y012857D01*
X023753Y012851D01*
X023680Y012849D01*
X023607Y012851D01*
X023534Y012857D01*
X023462Y012867D01*
X023390Y012881D01*
X023319Y012898D01*
X023249Y012920D01*
X023180Y012945D01*
X023113Y012974D01*
X023048Y013006D01*
X022984Y013042D01*
X022922Y013082D01*
X022863Y013124D01*
X022806Y013170D01*
X022752Y013219D01*
X022700Y013271D01*
X022651Y013325D01*
X022605Y013382D01*
X022563Y013441D01*
X022523Y013503D01*
X022487Y013567D01*
X022455Y013632D01*
X022426Y013699D01*
X022401Y013768D01*
X022379Y013838D01*
X022362Y013909D01*
X022348Y013981D01*
X022338Y014053D01*
X022332Y014126D01*
X022330Y014199D01*
X020080Y014799D02*
X020080Y014949D01*
X020030Y014999D01*
X020030Y016399D01*
X020080Y016449D01*
X020080Y016599D01*
X020078Y016616D01*
X020074Y016633D01*
X020067Y016649D01*
X020057Y016663D01*
X020044Y016676D01*
X020030Y016686D01*
X020014Y016693D01*
X019997Y016697D01*
X019980Y016699D01*
X019380Y016699D01*
X019363Y016697D01*
X019346Y016693D01*
X019330Y016686D01*
X019316Y016676D01*
X019303Y016663D01*
X019293Y016649D01*
X019286Y016633D01*
X019282Y016616D01*
X019280Y016599D01*
X019280Y016449D01*
X019330Y016399D01*
X019330Y014999D01*
X019280Y014949D01*
X019280Y014799D01*
X019282Y014782D01*
X019286Y014765D01*
X019293Y014749D01*
X019303Y014735D01*
X019316Y014722D01*
X019330Y014712D01*
X019346Y014705D01*
X019363Y014701D01*
X019380Y014699D01*
X019980Y014699D01*
X019997Y014701D01*
X020014Y014705D01*
X020030Y014712D01*
X020044Y014722D01*
X020057Y014735D01*
X020067Y014749D01*
X020074Y014765D01*
X020078Y014782D01*
X020080Y014799D01*
X022180Y016399D02*
X022180Y016999D01*
X022182Y017016D01*
X022186Y017033D01*
X022193Y017049D01*
X022203Y017063D01*
X022216Y017076D01*
X022230Y017086D01*
X022246Y017093D01*
X022263Y017097D01*
X022280Y017099D01*
X022430Y017099D01*
X022480Y017049D01*
X023880Y017049D01*
X023930Y017099D01*
X024080Y017099D01*
X024097Y017097D01*
X024114Y017093D01*
X024130Y017086D01*
X024144Y017076D01*
X024157Y017063D01*
X024167Y017049D01*
X024174Y017033D01*
X024178Y017016D01*
X024180Y016999D01*
X024180Y016399D01*
X024178Y016382D01*
X024174Y016365D01*
X024167Y016349D01*
X024157Y016335D01*
X024144Y016322D01*
X024130Y016312D01*
X024114Y016305D01*
X024097Y016301D01*
X024080Y016299D01*
X023930Y016299D01*
X023880Y016349D01*
X022480Y016349D01*
X022430Y016299D01*
X022280Y016299D01*
X022263Y016301D01*
X022246Y016305D01*
X022230Y016312D01*
X022216Y016322D01*
X022203Y016335D01*
X022193Y016349D01*
X022186Y016365D01*
X022182Y016382D01*
X022180Y016399D01*
X019980Y018699D02*
X019380Y018699D01*
X019363Y018701D01*
X019346Y018705D01*
X019330Y018712D01*
X019316Y018722D01*
X019303Y018735D01*
X019293Y018749D01*
X019286Y018765D01*
X019282Y018782D01*
X019280Y018799D01*
X019280Y018949D01*
X019330Y018999D01*
X019330Y020399D01*
X019280Y020449D01*
X019280Y020599D01*
X019282Y020616D01*
X019286Y020633D01*
X019293Y020649D01*
X019303Y020663D01*
X019316Y020676D01*
X019330Y020686D01*
X019346Y020693D01*
X019363Y020697D01*
X019380Y020699D01*
X019980Y020699D01*
X019997Y020697D01*
X020014Y020693D01*
X020030Y020686D01*
X020044Y020676D01*
X020057Y020663D01*
X020067Y020649D01*
X020074Y020633D01*
X020078Y020616D01*
X020080Y020599D01*
X020080Y020449D01*
X020030Y020399D01*
X020030Y018999D01*
X020080Y018949D01*
X020080Y018799D01*
X020078Y018782D01*
X020074Y018765D01*
X020067Y018749D01*
X020057Y018735D01*
X020044Y018722D01*
X020030Y018712D01*
X020014Y018705D01*
X019997Y018701D01*
X019980Y018699D01*
X021130Y020049D02*
X021130Y020349D01*
X020980Y020199D02*
X021280Y020199D01*
X020830Y020199D02*
X020832Y020272D01*
X020838Y020345D01*
X020848Y020417D01*
X020862Y020489D01*
X020879Y020560D01*
X020901Y020630D01*
X020926Y020699D01*
X020955Y020766D01*
X020987Y020831D01*
X021023Y020895D01*
X021063Y020957D01*
X021105Y021016D01*
X021151Y021073D01*
X021200Y021127D01*
X021252Y021179D01*
X021306Y021228D01*
X021363Y021274D01*
X021422Y021316D01*
X021484Y021356D01*
X021548Y021392D01*
X021613Y021424D01*
X021680Y021453D01*
X021749Y021478D01*
X021819Y021500D01*
X021890Y021517D01*
X021962Y021531D01*
X022034Y021541D01*
X022107Y021547D01*
X022180Y021549D01*
X022253Y021547D01*
X022326Y021541D01*
X022398Y021531D01*
X022470Y021517D01*
X022541Y021500D01*
X022611Y021478D01*
X022680Y021453D01*
X022747Y021424D01*
X022812Y021392D01*
X022876Y021356D01*
X022938Y021316D01*
X022997Y021274D01*
X023054Y021228D01*
X023108Y021179D01*
X023160Y021127D01*
X023209Y021073D01*
X023255Y021016D01*
X023297Y020957D01*
X023337Y020895D01*
X023373Y020831D01*
X023405Y020766D01*
X023434Y020699D01*
X023459Y020630D01*
X023481Y020560D01*
X023498Y020489D01*
X023512Y020417D01*
X023522Y020345D01*
X023528Y020272D01*
X023530Y020199D01*
X023528Y020126D01*
X023522Y020053D01*
X023512Y019981D01*
X023498Y019909D01*
X023481Y019838D01*
X023459Y019768D01*
X023434Y019699D01*
X023405Y019632D01*
X023373Y019567D01*
X023337Y019503D01*
X023297Y019441D01*
X023255Y019382D01*
X023209Y019325D01*
X023160Y019271D01*
X023108Y019219D01*
X023054Y019170D01*
X022997Y019124D01*
X022938Y019082D01*
X022876Y019042D01*
X022812Y019006D01*
X022747Y018974D01*
X022680Y018945D01*
X022611Y018920D01*
X022541Y018898D01*
X022470Y018881D01*
X022398Y018867D01*
X022326Y018857D01*
X022253Y018851D01*
X022180Y018849D01*
X022107Y018851D01*
X022034Y018857D01*
X021962Y018867D01*
X021890Y018881D01*
X021819Y018898D01*
X021749Y018920D01*
X021680Y018945D01*
X021613Y018974D01*
X021548Y019006D01*
X021484Y019042D01*
X021422Y019082D01*
X021363Y019124D01*
X021306Y019170D01*
X021252Y019219D01*
X021200Y019271D01*
X021151Y019325D01*
X021105Y019382D01*
X021063Y019441D01*
X021023Y019503D01*
X020987Y019567D01*
X020955Y019632D01*
X020926Y019699D01*
X020901Y019768D01*
X020879Y019838D01*
X020862Y019909D01*
X020848Y019981D01*
X020838Y020053D01*
X020832Y020126D01*
X020830Y020199D01*
X016580Y020449D02*
X016530Y020399D01*
X016530Y018999D01*
X016580Y018949D01*
X016580Y018799D01*
X016578Y018782D01*
X016574Y018765D01*
X016567Y018749D01*
X016557Y018735D01*
X016544Y018722D01*
X016530Y018712D01*
X016514Y018705D01*
X016497Y018701D01*
X016480Y018699D01*
X015880Y018699D01*
X015863Y018701D01*
X015846Y018705D01*
X015830Y018712D01*
X015816Y018722D01*
X015803Y018735D01*
X015793Y018749D01*
X015786Y018765D01*
X015782Y018782D01*
X015780Y018799D01*
X015780Y018949D01*
X015830Y018999D01*
X015830Y020399D01*
X015780Y020449D01*
X015780Y020599D01*
X015782Y020616D01*
X015786Y020633D01*
X015793Y020649D01*
X015803Y020663D01*
X015816Y020676D01*
X015830Y020686D01*
X015846Y020693D01*
X015863Y020697D01*
X015880Y020699D01*
X016480Y020699D01*
X016497Y020697D01*
X016514Y020693D01*
X016530Y020686D01*
X016544Y020676D01*
X016557Y020663D01*
X016567Y020649D01*
X016574Y020633D01*
X016578Y020616D01*
X016580Y020599D01*
X016580Y020449D01*
X015580Y020449D02*
X015580Y020599D01*
X015578Y020616D01*
X015574Y020633D01*
X015567Y020649D01*
X015557Y020663D01*
X015544Y020676D01*
X015530Y020686D01*
X015514Y020693D01*
X015497Y020697D01*
X015480Y020699D01*
X014880Y020699D01*
X014863Y020697D01*
X014846Y020693D01*
X014830Y020686D01*
X014816Y020676D01*
X014803Y020663D01*
X014793Y020649D01*
X014786Y020633D01*
X014782Y020616D01*
X014780Y020599D01*
X014780Y020449D01*
X014830Y020399D01*
X014830Y018999D01*
X014780Y018949D01*
X014780Y018799D01*
X014782Y018782D01*
X014786Y018765D01*
X014793Y018749D01*
X014803Y018735D01*
X014816Y018722D01*
X014830Y018712D01*
X014846Y018705D01*
X014863Y018701D01*
X014880Y018699D01*
X015480Y018699D01*
X015497Y018701D01*
X015514Y018705D01*
X015530Y018712D01*
X015544Y018722D01*
X015557Y018735D01*
X015567Y018749D01*
X015574Y018765D01*
X015578Y018782D01*
X015580Y018799D01*
X015580Y018949D01*
X015530Y018999D01*
X015530Y020399D01*
X015580Y020449D01*
X012680Y023049D02*
X012680Y025349D01*
X002680Y025349D01*
X002680Y024599D01*
X002680Y024349D02*
X002680Y026049D01*
X002678Y026066D01*
X002674Y026083D01*
X002667Y026099D01*
X002657Y026113D01*
X002644Y026126D01*
X002630Y026136D01*
X002614Y026143D01*
X002597Y026147D01*
X002580Y026149D01*
X001780Y026149D01*
X001763Y026147D01*
X001746Y026143D01*
X001730Y026136D01*
X001716Y026126D01*
X001703Y026113D01*
X001693Y026099D01*
X001686Y026083D01*
X001682Y026066D01*
X001680Y026049D01*
X001680Y024349D01*
X001682Y024332D01*
X001686Y024315D01*
X001693Y024299D01*
X001703Y024285D01*
X001716Y024272D01*
X001730Y024262D01*
X001746Y024255D01*
X001763Y024251D01*
X001780Y024249D01*
X002580Y024249D01*
X002597Y024251D01*
X002614Y024255D01*
X002630Y024262D01*
X002644Y024272D01*
X002657Y024285D01*
X002667Y024299D01*
X002674Y024315D01*
X002678Y024332D01*
X002680Y024349D01*
X002680Y024599D02*
X002719Y024597D01*
X002758Y024591D01*
X002796Y024582D01*
X002833Y024569D01*
X002869Y024552D01*
X002902Y024532D01*
X002934Y024508D01*
X002963Y024482D01*
X002989Y024453D01*
X003013Y024421D01*
X003033Y024388D01*
X003050Y024352D01*
X003063Y024315D01*
X003072Y024277D01*
X003078Y024238D01*
X003080Y024199D01*
X003078Y024160D01*
X003072Y024121D01*
X003063Y024083D01*
X003050Y024046D01*
X003033Y024010D01*
X003013Y023977D01*
X002989Y023945D01*
X002963Y023916D01*
X002934Y023890D01*
X002902Y023866D01*
X002869Y023846D01*
X002833Y023829D01*
X002796Y023816D01*
X002758Y023807D01*
X002719Y023801D01*
X002680Y023799D01*
X002680Y023049D01*
X012680Y023049D01*
X014980Y026099D02*
X025380Y026099D01*
X025380Y028299D01*
X014980Y028299D01*
X014980Y027449D01*
X015010Y027447D01*
X015040Y027442D01*
X015069Y027433D01*
X015096Y027420D01*
X015122Y027405D01*
X015146Y027386D01*
X015167Y027365D01*
X015186Y027341D01*
X015201Y027315D01*
X015214Y027288D01*
X015223Y027259D01*
X015228Y027229D01*
X015230Y027199D01*
X015228Y027169D01*
X015223Y027139D01*
X015214Y027110D01*
X015201Y027083D01*
X015186Y027057D01*
X015167Y027033D01*
X015146Y027012D01*
X015122Y026993D01*
X015096Y026978D01*
X015069Y026965D01*
X015040Y026956D01*
X015010Y026951D01*
X014980Y026949D01*
X014980Y026099D01*
X014580Y027249D02*
X013780Y027249D01*
X013763Y027251D01*
X013746Y027255D01*
X013730Y027262D01*
X013716Y027272D01*
X013703Y027285D01*
X013693Y027299D01*
X013686Y027315D01*
X013682Y027332D01*
X013680Y027349D01*
X013680Y029049D01*
X013682Y029066D01*
X013686Y029083D01*
X013693Y029099D01*
X013703Y029113D01*
X013716Y029126D01*
X013730Y029136D01*
X013746Y029143D01*
X013763Y029147D01*
X013780Y029149D01*
X014580Y029149D01*
X014597Y029147D01*
X014614Y029143D01*
X014630Y029136D01*
X014644Y029126D01*
X014657Y029113D01*
X014667Y029099D01*
X014674Y029083D01*
X014678Y029066D01*
X014680Y029049D01*
X014680Y027349D01*
X014678Y027332D01*
X014674Y027315D01*
X014667Y027299D01*
X014657Y027285D01*
X014644Y027272D01*
X014630Y027262D01*
X014614Y027255D01*
X014597Y027251D01*
X014580Y027249D01*
X014180Y028049D02*
X014180Y028099D01*
X014180Y028299D02*
X014180Y028349D01*
X012680Y028049D02*
X012680Y030349D01*
X002680Y030349D01*
X002680Y029599D01*
X002680Y029349D02*
X002680Y031049D01*
X002678Y031066D01*
X002674Y031083D01*
X002667Y031099D01*
X002657Y031113D01*
X002644Y031126D01*
X002630Y031136D01*
X002614Y031143D01*
X002597Y031147D01*
X002580Y031149D01*
X001780Y031149D01*
X001763Y031147D01*
X001746Y031143D01*
X001730Y031136D01*
X001716Y031126D01*
X001703Y031113D01*
X001693Y031099D01*
X001686Y031083D01*
X001682Y031066D01*
X001680Y031049D01*
X001680Y029349D01*
X001682Y029332D01*
X001686Y029315D01*
X001693Y029299D01*
X001703Y029285D01*
X001716Y029272D01*
X001730Y029262D01*
X001746Y029255D01*
X001763Y029251D01*
X001780Y029249D01*
X002580Y029249D01*
X002597Y029251D01*
X002614Y029255D01*
X002630Y029262D01*
X002644Y029272D01*
X002657Y029285D01*
X002667Y029299D01*
X002674Y029315D01*
X002678Y029332D01*
X002680Y029349D01*
X002680Y029599D02*
X002719Y029597D01*
X002758Y029591D01*
X002796Y029582D01*
X002833Y029569D01*
X002869Y029552D01*
X002902Y029532D01*
X002934Y029508D01*
X002963Y029482D01*
X002989Y029453D01*
X003013Y029421D01*
X003033Y029388D01*
X003050Y029352D01*
X003063Y029315D01*
X003072Y029277D01*
X003078Y029238D01*
X003080Y029199D01*
X003078Y029160D01*
X003072Y029121D01*
X003063Y029083D01*
X003050Y029046D01*
X003033Y029010D01*
X003013Y028977D01*
X002989Y028945D01*
X002963Y028916D01*
X002934Y028890D01*
X002902Y028866D01*
X002869Y028846D01*
X002833Y028829D01*
X002796Y028816D01*
X002758Y028807D01*
X002719Y028801D01*
X002680Y028799D01*
X002680Y028049D01*
X012680Y028049D01*
X012430Y033199D02*
X011930Y033199D01*
X011680Y033449D01*
X011430Y033199D01*
X010930Y033199D01*
X010680Y033449D01*
X010430Y033199D01*
X009930Y033199D01*
X009680Y033449D01*
X009430Y033199D01*
X008930Y033199D01*
X008680Y033449D01*
X008430Y033199D01*
X007930Y033199D01*
X007680Y033449D01*
X007430Y033199D01*
X006930Y033199D01*
X006680Y033449D01*
X006430Y033199D01*
X005930Y033199D01*
X005680Y033449D01*
X005430Y033199D01*
X004930Y033199D01*
X004680Y033449D01*
X004430Y033199D01*
X003930Y033199D01*
X003680Y033449D01*
X003680Y034949D01*
X003930Y035199D01*
X004430Y035199D01*
X004680Y034949D01*
X004930Y035199D01*
X005430Y035199D01*
X005680Y034949D01*
X005930Y035199D01*
X006430Y035199D01*
X006680Y034949D01*
X006930Y035199D01*
X007430Y035199D01*
X007680Y034949D01*
X007930Y035199D01*
X008430Y035199D01*
X008680Y034949D01*
X008930Y035199D01*
X009430Y035199D01*
X009680Y034949D01*
X009930Y035199D01*
X010430Y035199D01*
X010680Y034949D01*
X010930Y035199D01*
X011430Y035199D01*
X011680Y034949D01*
X011930Y035199D01*
X012430Y035199D01*
X012680Y034949D01*
X012930Y035199D01*
X013430Y035199D01*
X013680Y034949D01*
X013930Y035199D01*
X014430Y035199D01*
X014680Y034949D01*
X014930Y035199D01*
X015430Y035199D01*
X015680Y034949D01*
X015930Y035199D01*
X016430Y035199D01*
X016680Y034949D01*
X016930Y035199D01*
X017430Y035199D01*
X017680Y034949D01*
X017930Y035199D01*
X018430Y035199D01*
X018680Y034949D01*
X018930Y035199D01*
X019430Y035199D01*
X019680Y034949D01*
X019930Y035199D01*
X020430Y035199D01*
X020680Y034949D01*
X020930Y035199D01*
X021430Y035199D01*
X021680Y034949D01*
X021930Y035199D01*
X022430Y035199D01*
X022680Y034949D01*
X022930Y035199D01*
X023430Y035199D01*
X023680Y034949D01*
X023930Y035199D01*
X024430Y035199D01*
X024680Y034949D01*
X024930Y035199D01*
X025430Y035199D01*
X025680Y034949D01*
X025930Y035199D01*
X026430Y035199D01*
X026680Y034949D01*
X026930Y035199D01*
X027430Y035199D01*
X027680Y034949D01*
X027930Y035199D01*
X028430Y035199D01*
X028680Y034949D01*
X028930Y035199D01*
X029430Y035199D01*
X029680Y034949D01*
X029930Y035199D01*
X030430Y035199D01*
X030680Y034949D01*
X030930Y035199D01*
X031430Y035199D01*
X031680Y034949D01*
X031930Y035199D01*
X032430Y035199D01*
X032680Y034949D01*
X032930Y035199D01*
X033430Y035199D01*
X033680Y034949D01*
X033930Y035199D01*
X034430Y035199D01*
X034680Y034949D01*
X034930Y035199D01*
X035430Y035199D01*
X035680Y034949D01*
X035930Y035199D01*
X036430Y035199D01*
X036680Y034949D01*
X036930Y035199D01*
X037430Y035199D01*
X037680Y034949D01*
X037680Y033449D01*
X037430Y033199D01*
X036930Y033199D01*
X036680Y033449D01*
X036430Y033199D01*
X035930Y033199D01*
X035680Y033449D01*
X035430Y033199D01*
X034930Y033199D01*
X034680Y033449D01*
X034430Y033199D01*
X033930Y033199D01*
X033680Y033449D01*
X033430Y033199D01*
X032930Y033199D01*
X032680Y033449D01*
X032430Y033199D01*
X031930Y033199D01*
X031680Y033449D01*
X031430Y033199D01*
X030930Y033199D01*
X030680Y033449D01*
X030430Y033199D01*
X029930Y033199D01*
X029680Y033449D01*
X029430Y033199D01*
X028930Y033199D01*
X028680Y033449D01*
X028430Y033199D01*
X027930Y033199D01*
X027680Y033449D01*
X027430Y033199D01*
X026930Y033199D01*
X026680Y033449D01*
X026430Y033199D01*
X025930Y033199D01*
X025680Y033449D01*
X025430Y033199D01*
X024930Y033199D01*
X024680Y033449D01*
X024430Y033199D01*
X023930Y033199D01*
X023680Y033449D01*
X023430Y033199D01*
X022930Y033199D01*
X022680Y033449D01*
X022430Y033199D01*
X021930Y033199D01*
X021680Y033449D01*
X021430Y033199D01*
X020930Y033199D01*
X020680Y033449D01*
X020430Y033199D01*
X019930Y033199D01*
X019680Y033449D01*
X019430Y033199D01*
X018930Y033199D01*
X018680Y033449D01*
X018430Y033199D01*
X017930Y033199D01*
X017680Y033449D01*
X017430Y033199D01*
X016930Y033199D01*
X016680Y033449D01*
X016430Y033199D01*
X015930Y033199D01*
X015680Y033449D01*
X015430Y033199D01*
X014930Y033199D01*
X014680Y033449D01*
X014430Y033199D01*
X013930Y033199D01*
X013680Y033449D01*
X013430Y033199D01*
X012930Y033199D01*
X012680Y033449D01*
X012430Y033199D01*
X002180Y030349D02*
X002180Y030299D01*
X002180Y030099D02*
X002180Y030049D01*
X002180Y025349D02*
X002180Y025299D01*
X002180Y025099D02*
X002180Y025049D01*
X003180Y018399D02*
X003180Y016999D01*
X006180Y016999D01*
X006180Y018399D01*
X003180Y018399D01*
X002930Y016099D02*
X002780Y016099D01*
X002763Y016097D01*
X002746Y016093D01*
X002730Y016086D01*
X002716Y016076D01*
X002703Y016063D01*
X002693Y016049D01*
X002686Y016033D01*
X002682Y016016D01*
X002680Y015999D01*
X002680Y015399D01*
X002682Y015382D01*
X002686Y015365D01*
X002693Y015349D01*
X002703Y015335D01*
X002716Y015322D01*
X002730Y015312D01*
X002746Y015305D01*
X002763Y015301D01*
X002780Y015299D01*
X002930Y015299D01*
X002980Y015349D01*
X004380Y015349D01*
X004430Y015299D01*
X004580Y015299D01*
X004597Y015301D01*
X004614Y015305D01*
X004630Y015312D01*
X004644Y015322D01*
X004657Y015335D01*
X004667Y015349D01*
X004674Y015365D01*
X004678Y015382D01*
X004680Y015399D01*
X004680Y015999D01*
X004678Y016016D01*
X004674Y016033D01*
X004667Y016049D01*
X004657Y016063D01*
X004644Y016076D01*
X004630Y016086D01*
X004614Y016093D01*
X004597Y016097D01*
X004580Y016099D01*
X004430Y016099D01*
X004380Y016049D01*
X002980Y016049D01*
X002930Y016099D01*
X003080Y014699D02*
X002580Y014699D01*
X002280Y014399D01*
X002180Y014399D01*
X002180Y013999D01*
X002280Y013999D01*
X002580Y013699D01*
X003080Y013699D01*
X003180Y013799D01*
X004180Y013799D01*
X004280Y013699D01*
X004780Y013699D01*
X005080Y013999D01*
X005180Y013999D01*
X005180Y014399D01*
X005080Y014399D01*
X004780Y014699D01*
X004280Y014699D01*
X004180Y014599D01*
X003180Y014599D01*
X003080Y014699D01*
X002780Y014399D01*
X002680Y014399D01*
X002680Y013999D01*
X002780Y013999D01*
X003080Y013699D01*
X003580Y013699D01*
X003680Y013799D01*
X003780Y013699D01*
X004280Y013699D01*
X004580Y013999D01*
X004680Y013999D01*
X004680Y014399D01*
X004580Y014399D01*
X004280Y014699D01*
X003780Y014699D01*
X003680Y014599D01*
X003580Y014699D01*
X003080Y014699D01*
X002330Y012199D02*
X005030Y012199D01*
X005047Y012197D01*
X005064Y012193D01*
X005080Y012186D01*
X005094Y012176D01*
X005107Y012163D01*
X005117Y012149D01*
X005124Y012133D01*
X005128Y012116D01*
X005130Y012099D01*
X005130Y011299D01*
X005128Y011282D01*
X005124Y011265D01*
X005117Y011249D01*
X005107Y011235D01*
X005094Y011222D01*
X005080Y011212D01*
X005064Y011205D01*
X005047Y011201D01*
X005030Y011199D01*
X002330Y011199D01*
X002313Y011201D01*
X002296Y011205D01*
X002280Y011212D01*
X002266Y011222D01*
X002253Y011235D01*
X002243Y011249D01*
X002236Y011265D01*
X002232Y011282D01*
X002230Y011299D01*
X002230Y012099D01*
X002232Y012116D01*
X002236Y012133D01*
X002243Y012149D01*
X002253Y012163D01*
X002266Y012176D01*
X002280Y012186D01*
X002296Y012193D01*
X002313Y012197D01*
X002330Y012199D01*
X003080Y011699D02*
X003550Y011699D01*
X003800Y011699D02*
X004280Y011699D01*
X005230Y009349D02*
X005230Y009049D01*
X005380Y009199D02*
X005080Y009199D01*
X002830Y009199D02*
X002832Y009272D01*
X002838Y009345D01*
X002848Y009417D01*
X002862Y009489D01*
X002879Y009560D01*
X002901Y009630D01*
X002926Y009699D01*
X002955Y009766D01*
X002987Y009831D01*
X003023Y009895D01*
X003063Y009957D01*
X003105Y010016D01*
X003151Y010073D01*
X003200Y010127D01*
X003252Y010179D01*
X003306Y010228D01*
X003363Y010274D01*
X003422Y010316D01*
X003484Y010356D01*
X003548Y010392D01*
X003613Y010424D01*
X003680Y010453D01*
X003749Y010478D01*
X003819Y010500D01*
X003890Y010517D01*
X003962Y010531D01*
X004034Y010541D01*
X004107Y010547D01*
X004180Y010549D01*
X004253Y010547D01*
X004326Y010541D01*
X004398Y010531D01*
X004470Y010517D01*
X004541Y010500D01*
X004611Y010478D01*
X004680Y010453D01*
X004747Y010424D01*
X004812Y010392D01*
X004876Y010356D01*
X004938Y010316D01*
X004997Y010274D01*
X005054Y010228D01*
X005108Y010179D01*
X005160Y010127D01*
X005209Y010073D01*
X005255Y010016D01*
X005297Y009957D01*
X005337Y009895D01*
X005373Y009831D01*
X005405Y009766D01*
X005434Y009699D01*
X005459Y009630D01*
X005481Y009560D01*
X005498Y009489D01*
X005512Y009417D01*
X005522Y009345D01*
X005528Y009272D01*
X005530Y009199D01*
X005528Y009126D01*
X005522Y009053D01*
X005512Y008981D01*
X005498Y008909D01*
X005481Y008838D01*
X005459Y008768D01*
X005434Y008699D01*
X005405Y008632D01*
X005373Y008567D01*
X005337Y008503D01*
X005297Y008441D01*
X005255Y008382D01*
X005209Y008325D01*
X005160Y008271D01*
X005108Y008219D01*
X005054Y008170D01*
X004997Y008124D01*
X004938Y008082D01*
X004876Y008042D01*
X004812Y008006D01*
X004747Y007974D01*
X004680Y007945D01*
X004611Y007920D01*
X004541Y007898D01*
X004470Y007881D01*
X004398Y007867D01*
X004326Y007857D01*
X004253Y007851D01*
X004180Y007849D01*
X004107Y007851D01*
X004034Y007857D01*
X003962Y007867D01*
X003890Y007881D01*
X003819Y007898D01*
X003749Y007920D01*
X003680Y007945D01*
X003613Y007974D01*
X003548Y008006D01*
X003484Y008042D01*
X003422Y008082D01*
X003363Y008124D01*
X003306Y008170D01*
X003252Y008219D01*
X003200Y008271D01*
X003151Y008325D01*
X003105Y008382D01*
X003063Y008441D01*
X003023Y008503D01*
X002987Y008567D01*
X002955Y008632D01*
X002926Y008699D01*
X002901Y008768D01*
X002879Y008838D01*
X002862Y008909D01*
X002848Y008981D01*
X002838Y009053D01*
X002832Y009126D01*
X002830Y009199D01*
X007180Y008349D02*
X007180Y010049D01*
X007182Y010066D01*
X007186Y010083D01*
X007193Y010099D01*
X007203Y010113D01*
X007216Y010126D01*
X007230Y010136D01*
X007246Y010143D01*
X007263Y010147D01*
X007280Y010149D01*
X008080Y010149D01*
X008097Y010147D01*
X008114Y010143D01*
X008130Y010136D01*
X008144Y010126D01*
X008157Y010113D01*
X008167Y010099D01*
X008174Y010083D01*
X008178Y010066D01*
X008180Y010049D01*
X008180Y008349D01*
X008178Y008332D01*
X008174Y008315D01*
X008167Y008299D01*
X008157Y008285D01*
X008144Y008272D01*
X008130Y008262D01*
X008114Y008255D01*
X008097Y008251D01*
X008080Y008249D01*
X007280Y008249D01*
X007263Y008251D01*
X007246Y008255D01*
X007230Y008262D01*
X007216Y008272D01*
X007203Y008285D01*
X007193Y008299D01*
X007186Y008315D01*
X007182Y008332D01*
X007180Y008349D01*
X007680Y009049D02*
X007680Y009099D01*
X007680Y009299D02*
X007680Y009349D01*
X007380Y013699D02*
X007980Y013699D01*
X007997Y013701D01*
X008014Y013705D01*
X008030Y013712D01*
X008044Y013722D01*
X008057Y013735D01*
X008067Y013749D01*
X008074Y013765D01*
X008078Y013782D01*
X008080Y013799D01*
X008080Y013949D01*
X008030Y013999D01*
X008030Y015399D01*
X008080Y015449D01*
X008080Y015599D01*
X008078Y015616D01*
X008074Y015633D01*
X008067Y015649D01*
X008057Y015663D01*
X008044Y015676D01*
X008030Y015686D01*
X008014Y015693D01*
X007997Y015697D01*
X007980Y015699D01*
X007380Y015699D01*
X007363Y015697D01*
X007346Y015693D01*
X007330Y015686D01*
X007316Y015676D01*
X007303Y015663D01*
X007293Y015649D01*
X007286Y015633D01*
X007282Y015616D01*
X007280Y015599D01*
X007280Y015449D01*
X007330Y015399D01*
X007330Y013999D01*
X007280Y013949D01*
X007280Y013799D01*
X007282Y013782D01*
X007286Y013765D01*
X007293Y013749D01*
X007303Y013735D01*
X007316Y013722D01*
X007330Y013712D01*
X007346Y013705D01*
X007363Y013701D01*
X007380Y013699D01*
X008730Y014799D02*
X008730Y015599D01*
X008732Y015616D01*
X008736Y015633D01*
X008743Y015649D01*
X008753Y015663D01*
X008766Y015676D01*
X008780Y015686D01*
X008796Y015693D01*
X008813Y015697D01*
X008830Y015699D01*
X010530Y015699D01*
X010547Y015697D01*
X010564Y015693D01*
X010580Y015686D01*
X010594Y015676D01*
X010607Y015663D01*
X010617Y015649D01*
X010624Y015633D01*
X010628Y015616D01*
X010630Y015599D01*
X010630Y014799D01*
X010628Y014782D01*
X010624Y014765D01*
X010617Y014749D01*
X010607Y014735D01*
X010594Y014722D01*
X010580Y014712D01*
X010564Y014705D01*
X010547Y014701D01*
X010530Y014699D01*
X008830Y014699D01*
X008813Y014701D01*
X008796Y014705D01*
X008780Y014712D01*
X008766Y014722D01*
X008753Y014735D01*
X008743Y014749D01*
X008736Y014765D01*
X008732Y014782D01*
X008730Y014799D01*
X009530Y015199D02*
X009580Y015199D01*
X009780Y015199D02*
X009830Y015199D01*
X009580Y013949D02*
X009580Y002449D01*
X012780Y002449D01*
X012780Y013949D01*
X011430Y013949D01*
X011428Y013919D01*
X011423Y013889D01*
X011414Y013860D01*
X011401Y013833D01*
X011386Y013807D01*
X011367Y013783D01*
X011346Y013762D01*
X011322Y013743D01*
X011296Y013728D01*
X011269Y013715D01*
X011240Y013706D01*
X011210Y013701D01*
X011180Y013699D01*
X011150Y013701D01*
X011120Y013706D01*
X011091Y013715D01*
X011064Y013728D01*
X011038Y013743D01*
X011014Y013762D01*
X010993Y013783D01*
X010974Y013807D01*
X010959Y013833D01*
X010946Y013860D01*
X010937Y013889D01*
X010932Y013919D01*
X010930Y013949D01*
X009580Y013949D01*
X014680Y012899D02*
X014880Y012899D01*
X014780Y012799D02*
X014780Y012999D01*
X014180Y012199D02*
X014182Y012262D01*
X014188Y012324D01*
X014198Y012386D01*
X014211Y012448D01*
X014229Y012508D01*
X014250Y012567D01*
X014275Y012625D01*
X014304Y012681D01*
X014336Y012735D01*
X014371Y012787D01*
X014409Y012836D01*
X014451Y012884D01*
X014495Y012928D01*
X014543Y012970D01*
X014592Y013008D01*
X014644Y013043D01*
X014698Y013075D01*
X014754Y013104D01*
X014812Y013129D01*
X014871Y013150D01*
X014931Y013168D01*
X014993Y013181D01*
X015055Y013191D01*
X015117Y013197D01*
X015180Y013199D01*
X015243Y013197D01*
X015305Y013191D01*
X015367Y013181D01*
X015429Y013168D01*
X015489Y013150D01*
X015548Y013129D01*
X015606Y013104D01*
X015662Y013075D01*
X015716Y013043D01*
X015768Y013008D01*
X015817Y012970D01*
X015865Y012928D01*
X015909Y012884D01*
X015951Y012836D01*
X015989Y012787D01*
X016024Y012735D01*
X016056Y012681D01*
X016085Y012625D01*
X016110Y012567D01*
X016131Y012508D01*
X016149Y012448D01*
X016162Y012386D01*
X016172Y012324D01*
X016178Y012262D01*
X016180Y012199D01*
X016178Y012136D01*
X016172Y012074D01*
X016162Y012012D01*
X016149Y011950D01*
X016131Y011890D01*
X016110Y011831D01*
X016085Y011773D01*
X016056Y011717D01*
X016024Y011663D01*
X015989Y011611D01*
X015951Y011562D01*
X015909Y011514D01*
X015865Y011470D01*
X015817Y011428D01*
X015768Y011390D01*
X015716Y011355D01*
X015662Y011323D01*
X015606Y011294D01*
X015548Y011269D01*
X015489Y011248D01*
X015429Y011230D01*
X015367Y011217D01*
X015305Y011207D01*
X015243Y011201D01*
X015180Y011199D01*
X015117Y011201D01*
X015055Y011207D01*
X014993Y011217D01*
X014931Y011230D01*
X014871Y011248D01*
X014812Y011269D01*
X014754Y011294D01*
X014698Y011323D01*
X014644Y011355D01*
X014592Y011390D01*
X014543Y011428D01*
X014495Y011470D01*
X014451Y011514D01*
X014409Y011562D01*
X014371Y011611D01*
X014336Y011663D01*
X014304Y011717D01*
X014275Y011773D01*
X014250Y011831D01*
X014229Y011890D01*
X014211Y011950D01*
X014198Y012012D01*
X014188Y012074D01*
X014182Y012136D01*
X014180Y012199D01*
X015280Y010599D02*
X015430Y010599D01*
X015480Y010549D01*
X016880Y010549D01*
X016930Y010599D01*
X017080Y010599D01*
X017097Y010597D01*
X017114Y010593D01*
X017130Y010586D01*
X017144Y010576D01*
X017157Y010563D01*
X017167Y010549D01*
X017174Y010533D01*
X017178Y010516D01*
X017180Y010499D01*
X017180Y009899D01*
X017178Y009882D01*
X017174Y009865D01*
X017167Y009849D01*
X017157Y009835D01*
X017144Y009822D01*
X017130Y009812D01*
X017114Y009805D01*
X017097Y009801D01*
X017080Y009799D01*
X016930Y009799D01*
X016880Y009849D01*
X015480Y009849D01*
X015430Y009799D01*
X015280Y009799D01*
X015263Y009801D01*
X015246Y009805D01*
X015230Y009812D01*
X015216Y009822D01*
X015203Y009835D01*
X015193Y009849D01*
X015186Y009865D01*
X015182Y009882D01*
X015180Y009899D01*
X015180Y010499D01*
X015182Y010516D01*
X015186Y010533D01*
X015193Y010549D01*
X015203Y010563D01*
X015216Y010576D01*
X015230Y010586D01*
X015246Y010593D01*
X015263Y010597D01*
X015280Y010599D01*
X016280Y007649D02*
X017080Y007649D01*
X017097Y007647D01*
X017114Y007643D01*
X017130Y007636D01*
X017144Y007626D01*
X017157Y007613D01*
X017167Y007599D01*
X017174Y007583D01*
X017178Y007566D01*
X017180Y007549D01*
X017180Y005849D01*
X017178Y005832D01*
X017174Y005815D01*
X017167Y005799D01*
X017157Y005785D01*
X017144Y005772D01*
X017130Y005762D01*
X017114Y005755D01*
X017097Y005751D01*
X017080Y005749D01*
X016280Y005749D01*
X016263Y005751D01*
X016246Y005755D01*
X016230Y005762D01*
X016216Y005772D01*
X016203Y005785D01*
X016193Y005799D01*
X016186Y005815D01*
X016182Y005832D01*
X016180Y005849D01*
X016180Y007549D01*
X016182Y007566D01*
X016186Y007583D01*
X016193Y007599D01*
X016203Y007613D01*
X016216Y007626D01*
X016230Y007636D01*
X016246Y007643D01*
X016263Y007647D01*
X016280Y007649D01*
X016680Y006849D02*
X016680Y006799D01*
X016680Y006599D02*
X016680Y006549D01*
X015580Y005599D02*
X015580Y005449D01*
X015530Y005399D01*
X015530Y003999D01*
X015580Y003949D01*
X015580Y003799D01*
X015578Y003782D01*
X015574Y003765D01*
X015567Y003749D01*
X015557Y003735D01*
X015544Y003722D01*
X015530Y003712D01*
X015514Y003705D01*
X015497Y003701D01*
X015480Y003699D01*
X014880Y003699D01*
X014863Y003701D01*
X014846Y003705D01*
X014830Y003712D01*
X014816Y003722D01*
X014803Y003735D01*
X014793Y003749D01*
X014786Y003765D01*
X014782Y003782D01*
X014780Y003799D01*
X014780Y003949D01*
X014830Y003999D01*
X014830Y005399D01*
X014780Y005449D01*
X014780Y005599D01*
X014782Y005616D01*
X014786Y005633D01*
X014793Y005649D01*
X014803Y005663D01*
X014816Y005676D01*
X014830Y005686D01*
X014846Y005693D01*
X014863Y005697D01*
X014880Y005699D01*
X015480Y005699D01*
X015497Y005697D01*
X015514Y005693D01*
X015530Y005686D01*
X015544Y005676D01*
X015557Y005663D01*
X015567Y005649D01*
X015574Y005633D01*
X015578Y005616D01*
X015580Y005599D01*
X016280Y004999D02*
X016280Y002399D01*
X016380Y002299D01*
X018980Y002299D01*
X019080Y002399D01*
X019080Y004999D01*
X018980Y005099D01*
X016380Y005099D01*
X016280Y004999D01*
X016830Y004449D02*
X016930Y004349D01*
X017080Y003849D02*
X017080Y003549D01*
X017380Y003549D01*
X017530Y003399D01*
X017530Y003099D01*
X017830Y003099D01*
X017830Y003399D01*
X017980Y003549D01*
X018280Y003549D01*
X018280Y003849D01*
X017980Y003849D01*
X017830Y003999D01*
X017830Y004099D01*
X017930Y004099D01*
X017680Y004349D01*
X017430Y004099D01*
X017530Y004099D01*
X017530Y003999D01*
X017380Y003849D01*
X017080Y003849D01*
X016980Y002999D02*
X016880Y002899D01*
X018380Y002999D02*
X018480Y002899D01*
X019780Y002399D02*
X019780Y004999D01*
X019880Y005099D01*
X022480Y005099D01*
X022580Y004999D01*
X022580Y002399D01*
X022480Y002299D01*
X019880Y002299D01*
X019780Y002399D01*
X020380Y002899D02*
X020480Y002999D01*
X021030Y003099D02*
X021030Y003399D01*
X020880Y003549D01*
X020580Y003549D01*
X020580Y003849D01*
X020880Y003849D01*
X021030Y003999D01*
X021030Y004099D01*
X020930Y004099D01*
X021180Y004349D01*
X021430Y004099D01*
X021330Y004099D01*
X021330Y003999D01*
X021480Y003849D01*
X021780Y003849D01*
X021780Y003549D01*
X021480Y003549D01*
X021330Y003399D01*
X021330Y003099D01*
X021030Y003099D01*
X021880Y002999D02*
X021980Y002899D01*
X021880Y004349D02*
X021980Y004449D01*
X021180Y004669D02*
X021180Y004819D01*
X020430Y004349D02*
X020330Y004449D01*
X020580Y005749D02*
X019780Y005749D01*
X019763Y005751D01*
X019746Y005755D01*
X019730Y005762D01*
X019716Y005772D01*
X019703Y005785D01*
X019693Y005799D01*
X019686Y005815D01*
X019682Y005832D01*
X019680Y005849D01*
X019680Y007549D01*
X019682Y007566D01*
X019686Y007583D01*
X019693Y007599D01*
X019703Y007613D01*
X019716Y007626D01*
X019730Y007636D01*
X019746Y007643D01*
X019763Y007647D01*
X019780Y007649D01*
X020580Y007649D01*
X020597Y007647D01*
X020614Y007643D01*
X020630Y007636D01*
X020644Y007626D01*
X020657Y007613D01*
X020667Y007599D01*
X020674Y007583D01*
X020678Y007566D01*
X020680Y007549D01*
X020680Y005849D01*
X020678Y005832D01*
X020674Y005815D01*
X020667Y005799D01*
X020657Y005785D01*
X020644Y005772D01*
X020630Y005762D01*
X020614Y005755D01*
X020597Y005751D01*
X020580Y005749D01*
X021180Y005849D02*
X021180Y007549D01*
X021182Y007566D01*
X021186Y007583D01*
X021193Y007599D01*
X021203Y007613D01*
X021216Y007626D01*
X021230Y007636D01*
X021246Y007643D01*
X021263Y007647D01*
X021280Y007649D01*
X022080Y007649D01*
X022097Y007647D01*
X022114Y007643D01*
X022130Y007636D01*
X022144Y007626D01*
X022157Y007613D01*
X022167Y007599D01*
X022174Y007583D01*
X022178Y007566D01*
X022180Y007549D01*
X022180Y005849D01*
X022178Y005832D01*
X022174Y005815D01*
X022167Y005799D01*
X022157Y005785D01*
X022144Y005772D01*
X022130Y005762D01*
X022114Y005755D01*
X022097Y005751D01*
X022080Y005749D01*
X021280Y005749D01*
X021263Y005751D01*
X021246Y005755D01*
X021230Y005762D01*
X021216Y005772D01*
X021203Y005785D01*
X021193Y005799D01*
X021186Y005815D01*
X021182Y005832D01*
X021180Y005849D01*
X021680Y006549D02*
X021680Y006599D01*
X021680Y006799D02*
X021680Y006849D01*
X022280Y006799D02*
X022280Y006949D01*
X022330Y006999D01*
X022330Y008399D01*
X022280Y008449D01*
X022280Y008599D01*
X022282Y008616D01*
X022286Y008633D01*
X022293Y008649D01*
X022303Y008663D01*
X022316Y008676D01*
X022330Y008686D01*
X022346Y008693D01*
X022363Y008697D01*
X022380Y008699D01*
X022980Y008699D01*
X022997Y008697D01*
X023014Y008693D01*
X023030Y008686D01*
X023044Y008676D01*
X023057Y008663D01*
X023067Y008649D01*
X023074Y008633D01*
X023078Y008616D01*
X023080Y008599D01*
X023080Y008449D01*
X023030Y008399D01*
X023030Y006999D01*
X023080Y006949D01*
X023080Y006799D01*
X023078Y006782D01*
X023074Y006765D01*
X023067Y006749D01*
X023057Y006735D01*
X023044Y006722D01*
X023030Y006712D01*
X023014Y006705D01*
X022997Y006701D01*
X022980Y006699D01*
X022380Y006699D01*
X022363Y006701D01*
X022346Y006705D01*
X022330Y006712D01*
X022316Y006722D01*
X022303Y006735D01*
X022293Y006749D01*
X022286Y006765D01*
X022282Y006782D01*
X022280Y006799D01*
X022080Y008249D02*
X021280Y008249D01*
X021263Y008251D01*
X021246Y008255D01*
X021230Y008262D01*
X021216Y008272D01*
X021203Y008285D01*
X021193Y008299D01*
X021186Y008315D01*
X021182Y008332D01*
X021180Y008349D01*
X021180Y010049D01*
X021182Y010066D01*
X021186Y010083D01*
X021193Y010099D01*
X021203Y010113D01*
X021216Y010126D01*
X021230Y010136D01*
X021246Y010143D01*
X021263Y010147D01*
X021280Y010149D01*
X022080Y010149D01*
X022097Y010147D01*
X022114Y010143D01*
X022130Y010136D01*
X022144Y010126D01*
X022157Y010113D01*
X022167Y010099D01*
X022174Y010083D01*
X022178Y010066D01*
X022180Y010049D01*
X022180Y008349D01*
X022178Y008332D01*
X022174Y008315D01*
X022167Y008299D01*
X022157Y008285D01*
X022144Y008272D01*
X022130Y008262D01*
X022114Y008255D01*
X022097Y008251D01*
X022080Y008249D01*
X021680Y009049D02*
X021680Y009099D01*
X021680Y009299D02*
X021680Y009349D01*
X020580Y008949D02*
X020580Y008799D01*
X020578Y008782D01*
X020574Y008765D01*
X020567Y008749D01*
X020557Y008735D01*
X020544Y008722D01*
X020530Y008712D01*
X020514Y008705D01*
X020497Y008701D01*
X020480Y008699D01*
X019880Y008699D01*
X019863Y008701D01*
X019846Y008705D01*
X019830Y008712D01*
X019816Y008722D01*
X019803Y008735D01*
X019793Y008749D01*
X019786Y008765D01*
X019782Y008782D01*
X019780Y008799D01*
X019780Y008949D01*
X019830Y008999D01*
X019830Y010399D01*
X019780Y010449D01*
X019780Y010599D01*
X019782Y010616D01*
X019786Y010633D01*
X019793Y010649D01*
X019803Y010663D01*
X019816Y010676D01*
X019830Y010686D01*
X019846Y010693D01*
X019863Y010697D01*
X019880Y010699D01*
X020480Y010699D01*
X020497Y010697D01*
X020514Y010693D01*
X020530Y010686D01*
X020544Y010676D01*
X020557Y010663D01*
X020567Y010649D01*
X020574Y010633D01*
X020578Y010616D01*
X020580Y010599D01*
X020580Y010449D01*
X020530Y010399D01*
X020530Y008999D01*
X020580Y008949D01*
X019580Y009449D02*
X019580Y009599D01*
X019578Y009616D01*
X019574Y009633D01*
X019567Y009649D01*
X019557Y009663D01*
X019544Y009676D01*
X019530Y009686D01*
X019514Y009693D01*
X019497Y009697D01*
X019480Y009699D01*
X018880Y009699D01*
X018863Y009697D01*
X018846Y009693D01*
X018830Y009686D01*
X018816Y009676D01*
X018803Y009663D01*
X018793Y009649D01*
X018786Y009633D01*
X018782Y009616D01*
X018780Y009599D01*
X018780Y009449D01*
X018830Y009399D01*
X018830Y007999D01*
X018780Y007949D01*
X018780Y007799D01*
X018782Y007782D01*
X018786Y007765D01*
X018793Y007749D01*
X018803Y007735D01*
X018816Y007722D01*
X018830Y007712D01*
X018846Y007705D01*
X018863Y007701D01*
X018880Y007699D01*
X019480Y007699D01*
X019497Y007701D01*
X019514Y007705D01*
X019530Y007712D01*
X019544Y007722D01*
X019557Y007735D01*
X019567Y007749D01*
X019574Y007765D01*
X019578Y007782D01*
X019580Y007799D01*
X019580Y007949D01*
X019530Y007999D01*
X019530Y009399D01*
X019580Y009449D01*
X020180Y006849D02*
X020180Y006799D01*
X020180Y006599D02*
X020180Y006549D01*
X018480Y004449D02*
X018380Y004349D01*
X017680Y004669D02*
X017680Y004819D01*
X016480Y014699D02*
X015880Y014699D01*
X015863Y014701D01*
X015846Y014705D01*
X015830Y014712D01*
X015816Y014722D01*
X015803Y014735D01*
X015793Y014749D01*
X015786Y014765D01*
X015782Y014782D01*
X015780Y014799D01*
X015780Y014949D01*
X015830Y014999D01*
X015830Y016399D01*
X015780Y016449D01*
X015780Y016599D01*
X015782Y016616D01*
X015786Y016633D01*
X015793Y016649D01*
X015803Y016663D01*
X015816Y016676D01*
X015830Y016686D01*
X015846Y016693D01*
X015863Y016697D01*
X015880Y016699D01*
X016480Y016699D01*
X016497Y016697D01*
X016514Y016693D01*
X016530Y016686D01*
X016544Y016676D01*
X016557Y016663D01*
X016567Y016649D01*
X016574Y016633D01*
X016578Y016616D01*
X016580Y016599D01*
X016580Y016449D01*
X016530Y016399D01*
X016530Y014999D01*
X016580Y014949D01*
X016580Y014799D01*
X016578Y014782D01*
X016574Y014765D01*
X016567Y014749D01*
X016557Y014735D01*
X016544Y014722D01*
X016530Y014712D01*
X016514Y014705D01*
X016497Y014701D01*
X016480Y014699D01*
X015580Y014799D02*
X015580Y014949D01*
X015530Y014999D01*
X015530Y016399D01*
X015580Y016449D01*
X015580Y016599D01*
X015578Y016616D01*
X015574Y016633D01*
X015567Y016649D01*
X015557Y016663D01*
X015544Y016676D01*
X015530Y016686D01*
X015514Y016693D01*
X015497Y016697D01*
X015480Y016699D01*
X014880Y016699D01*
X014863Y016697D01*
X014846Y016693D01*
X014830Y016686D01*
X014816Y016676D01*
X014803Y016663D01*
X014793Y016649D01*
X014786Y016633D01*
X014782Y016616D01*
X014780Y016599D01*
X014780Y016449D01*
X014830Y016399D01*
X014830Y014999D01*
X014780Y014949D01*
X014780Y014799D01*
X014782Y014782D01*
X014786Y014765D01*
X014793Y014749D01*
X014803Y014735D01*
X014816Y014722D01*
X014830Y014712D01*
X014846Y014705D01*
X014863Y014701D01*
X014880Y014699D01*
X015480Y014699D01*
X015497Y014701D01*
X015514Y014705D01*
X015530Y014712D01*
X015544Y014722D01*
X015557Y014735D01*
X015567Y014749D01*
X015574Y014765D01*
X015578Y014782D01*
X015580Y014799D01*
X025180Y020849D02*
X025180Y022549D01*
X025182Y022566D01*
X025186Y022583D01*
X025193Y022599D01*
X025203Y022613D01*
X025216Y022626D01*
X025230Y022636D01*
X025246Y022643D01*
X025263Y022647D01*
X025280Y022649D01*
X026080Y022649D01*
X026097Y022647D01*
X026114Y022643D01*
X026130Y022636D01*
X026144Y022626D01*
X026157Y022613D01*
X026167Y022599D01*
X026174Y022583D01*
X026178Y022566D01*
X026180Y022549D01*
X026180Y020849D01*
X026178Y020832D01*
X026174Y020815D01*
X026167Y020799D01*
X026157Y020785D01*
X026144Y020772D01*
X026130Y020762D01*
X026114Y020755D01*
X026097Y020751D01*
X026080Y020749D01*
X025280Y020749D01*
X025263Y020751D01*
X025246Y020755D01*
X025230Y020762D01*
X025216Y020772D01*
X025203Y020785D01*
X025193Y020799D01*
X025186Y020815D01*
X025182Y020832D01*
X025180Y020849D01*
X025680Y021549D02*
X025680Y021599D01*
X025680Y021799D02*
X025680Y021849D01*
X025280Y023249D02*
X026080Y023249D01*
X026097Y023251D01*
X026114Y023255D01*
X026130Y023262D01*
X026144Y023272D01*
X026157Y023285D01*
X026167Y023299D01*
X026174Y023315D01*
X026178Y023332D01*
X026180Y023349D01*
X026180Y025049D01*
X026178Y025066D01*
X026174Y025083D01*
X026167Y025099D01*
X026157Y025113D01*
X026144Y025126D01*
X026130Y025136D01*
X026114Y025143D01*
X026097Y025147D01*
X026080Y025149D01*
X025280Y025149D01*
X025263Y025147D01*
X025246Y025143D01*
X025230Y025136D01*
X025216Y025126D01*
X025203Y025113D01*
X025193Y025099D01*
X025186Y025083D01*
X025182Y025066D01*
X025180Y025049D01*
X025180Y023349D01*
X025182Y023332D01*
X025186Y023315D01*
X025193Y023299D01*
X025203Y023285D01*
X025216Y023272D01*
X025230Y023262D01*
X025246Y023255D01*
X025263Y023251D01*
X025280Y023249D01*
X025680Y024049D02*
X025680Y024099D01*
X025680Y024299D02*
X025680Y024349D01*
X027730Y029499D02*
X029680Y029499D01*
X029682Y029455D01*
X029688Y029412D01*
X029697Y029370D01*
X029710Y029328D01*
X029727Y029288D01*
X029747Y029249D01*
X029770Y029212D01*
X029797Y029178D01*
X029826Y029145D01*
X029859Y029116D01*
X029893Y029089D01*
X029930Y029066D01*
X029969Y029046D01*
X030009Y029029D01*
X030051Y029016D01*
X030093Y029007D01*
X030136Y029001D01*
X030180Y028999D01*
X030224Y029001D01*
X030267Y029007D01*
X030309Y029016D01*
X030351Y029029D01*
X030391Y029046D01*
X030430Y029066D01*
X030467Y029089D01*
X030501Y029116D01*
X030534Y029145D01*
X030563Y029178D01*
X030590Y029212D01*
X030613Y029249D01*
X030633Y029288D01*
X030650Y029328D01*
X030663Y029370D01*
X030672Y029412D01*
X030678Y029455D01*
X030680Y029499D01*
X032630Y029499D01*
X032630Y014849D01*
X027730Y014849D01*
X027730Y029499D01*
X028180Y030499D02*
X028180Y031899D01*
X031180Y031899D01*
X031180Y030499D01*
X028180Y030499D01*
X023180Y030699D02*
X023182Y030762D01*
X023188Y030824D01*
X023198Y030886D01*
X023211Y030948D01*
X023229Y031008D01*
X023250Y031067D01*
X023275Y031125D01*
X023304Y031181D01*
X023336Y031235D01*
X023371Y031287D01*
X023409Y031336D01*
X023451Y031384D01*
X023495Y031428D01*
X023543Y031470D01*
X023592Y031508D01*
X023644Y031543D01*
X023698Y031575D01*
X023754Y031604D01*
X023812Y031629D01*
X023871Y031650D01*
X023931Y031668D01*
X023993Y031681D01*
X024055Y031691D01*
X024117Y031697D01*
X024180Y031699D01*
X024243Y031697D01*
X024305Y031691D01*
X024367Y031681D01*
X024429Y031668D01*
X024489Y031650D01*
X024548Y031629D01*
X024606Y031604D01*
X024662Y031575D01*
X024716Y031543D01*
X024768Y031508D01*
X024817Y031470D01*
X024865Y031428D01*
X024909Y031384D01*
X024951Y031336D01*
X024989Y031287D01*
X025024Y031235D01*
X025056Y031181D01*
X025085Y031125D01*
X025110Y031067D01*
X025131Y031008D01*
X025149Y030948D01*
X025162Y030886D01*
X025172Y030824D01*
X025178Y030762D01*
X025180Y030699D01*
X025178Y030636D01*
X025172Y030574D01*
X025162Y030512D01*
X025149Y030450D01*
X025131Y030390D01*
X025110Y030331D01*
X025085Y030273D01*
X025056Y030217D01*
X025024Y030163D01*
X024989Y030111D01*
X024951Y030062D01*
X024909Y030014D01*
X024865Y029970D01*
X024817Y029928D01*
X024768Y029890D01*
X024716Y029855D01*
X024662Y029823D01*
X024606Y029794D01*
X024548Y029769D01*
X024489Y029748D01*
X024429Y029730D01*
X024367Y029717D01*
X024305Y029707D01*
X024243Y029701D01*
X024180Y029699D01*
X024117Y029701D01*
X024055Y029707D01*
X023993Y029717D01*
X023931Y029730D01*
X023871Y029748D01*
X023812Y029769D01*
X023754Y029794D01*
X023698Y029823D01*
X023644Y029855D01*
X023592Y029890D01*
X023543Y029928D01*
X023495Y029970D01*
X023451Y030014D01*
X023409Y030062D01*
X023371Y030111D01*
X023336Y030163D01*
X023304Y030217D01*
X023275Y030273D01*
X023250Y030331D01*
X023229Y030390D01*
X023211Y030450D01*
X023198Y030512D01*
X023188Y030574D01*
X023182Y030636D01*
X023180Y030699D01*
X023630Y031099D02*
X023630Y031199D01*
X023630Y031299D01*
X023630Y031199D02*
X023730Y031199D01*
X023630Y031199D02*
X023530Y031199D01*
X034380Y029399D02*
X034380Y026999D01*
X034382Y026943D01*
X034388Y026888D01*
X034397Y026833D01*
X034411Y026778D01*
X034428Y026725D01*
X034449Y026674D01*
X034474Y026623D01*
X034502Y026575D01*
X034533Y026529D01*
X034567Y026485D01*
X034605Y026443D01*
X034645Y026404D01*
X034687Y026369D01*
X034733Y026336D01*
X034780Y026306D01*
X034829Y026280D01*
X034880Y026257D01*
X034933Y026238D01*
X034986Y026223D01*
X035041Y026211D01*
X035096Y026203D01*
X035152Y026199D01*
X035208Y026199D01*
X035264Y026203D01*
X035319Y026211D01*
X035374Y026223D01*
X035427Y026238D01*
X035480Y026257D01*
X035531Y026280D01*
X035580Y026306D01*
X035627Y026336D01*
X035673Y026369D01*
X035715Y026404D01*
X035755Y026443D01*
X035793Y026485D01*
X035827Y026529D01*
X035858Y026575D01*
X035886Y026623D01*
X035911Y026674D01*
X035932Y026725D01*
X035949Y026778D01*
X035963Y026833D01*
X035972Y026888D01*
X035978Y026943D01*
X035980Y026999D01*
X035980Y029399D01*
X036680Y028849D02*
X036680Y030549D01*
X036682Y030566D01*
X036686Y030583D01*
X036693Y030599D01*
X036703Y030613D01*
X036716Y030626D01*
X036730Y030636D01*
X036746Y030643D01*
X036763Y030647D01*
X036780Y030649D01*
X037580Y030649D01*
X037597Y030647D01*
X037614Y030643D01*
X037630Y030636D01*
X037644Y030626D01*
X037657Y030613D01*
X037667Y030599D01*
X037674Y030583D01*
X037678Y030566D01*
X037680Y030549D01*
X037680Y028849D01*
X037678Y028832D01*
X037674Y028815D01*
X037667Y028799D01*
X037657Y028785D01*
X037644Y028772D01*
X037630Y028762D01*
X037614Y028755D01*
X037597Y028751D01*
X037580Y028749D01*
X036780Y028749D01*
X036763Y028751D01*
X036746Y028755D01*
X036730Y028762D01*
X036716Y028772D01*
X036703Y028785D01*
X036693Y028799D01*
X036686Y028815D01*
X036682Y028832D01*
X036680Y028849D01*
X037180Y029549D02*
X037180Y029599D01*
X037180Y029799D02*
X037180Y029849D01*
X035580Y028469D02*
X035180Y028469D01*
X034780Y028469D01*
X034780Y028329D02*
X034780Y028079D01*
X035580Y028079D01*
X035580Y028329D01*
X034780Y028329D01*
X034780Y027929D02*
X035180Y027929D01*
X035180Y027649D01*
X035180Y027929D02*
X035580Y027929D01*
X035180Y028469D02*
X035180Y028749D01*
X035980Y029399D02*
X035978Y029455D01*
X035972Y029510D01*
X035963Y029565D01*
X035949Y029620D01*
X035932Y029673D01*
X035911Y029724D01*
X035886Y029775D01*
X035858Y029823D01*
X035827Y029869D01*
X035793Y029913D01*
X035755Y029955D01*
X035715Y029994D01*
X035673Y030029D01*
X035627Y030062D01*
X035580Y030092D01*
X035531Y030118D01*
X035480Y030141D01*
X035427Y030160D01*
X035374Y030175D01*
X035319Y030187D01*
X035264Y030195D01*
X035208Y030199D01*
X035152Y030199D01*
X035096Y030195D01*
X035041Y030187D01*
X034986Y030175D01*
X034933Y030160D01*
X034880Y030141D01*
X034829Y030118D01*
X034780Y030092D01*
X034733Y030062D01*
X034687Y030029D01*
X034645Y029994D01*
X034605Y029955D01*
X034567Y029913D01*
X034533Y029869D01*
X034502Y029823D01*
X034474Y029775D01*
X034449Y029724D01*
X034428Y029673D01*
X034411Y029620D01*
X034397Y029565D01*
X034388Y029510D01*
X034382Y029455D01*
X034380Y029399D01*
X036680Y027549D02*
X036680Y025849D01*
X036682Y025832D01*
X036686Y025815D01*
X036693Y025799D01*
X036703Y025785D01*
X036716Y025772D01*
X036730Y025762D01*
X036746Y025755D01*
X036763Y025751D01*
X036780Y025749D01*
X037580Y025749D01*
X037597Y025751D01*
X037614Y025755D01*
X037630Y025762D01*
X037644Y025772D01*
X037657Y025785D01*
X037667Y025799D01*
X037674Y025815D01*
X037678Y025832D01*
X037680Y025849D01*
X037680Y027549D01*
X037678Y027566D01*
X037674Y027583D01*
X037667Y027599D01*
X037657Y027613D01*
X037644Y027626D01*
X037630Y027636D01*
X037614Y027643D01*
X037597Y027647D01*
X037580Y027649D01*
X036780Y027649D01*
X036763Y027647D01*
X036746Y027643D01*
X036730Y027636D01*
X036716Y027626D01*
X036703Y027613D01*
X036693Y027599D01*
X036686Y027583D01*
X036682Y027566D01*
X036680Y027549D01*
X037180Y026849D02*
X037180Y026799D01*
X037180Y026599D02*
X037180Y026549D01*
X035480Y024199D02*
X034880Y024199D01*
X034863Y024197D01*
X034846Y024193D01*
X034830Y024186D01*
X034816Y024176D01*
X034803Y024163D01*
X034793Y024149D01*
X034786Y024133D01*
X034782Y024116D01*
X034780Y024099D01*
X034780Y023949D01*
X034830Y023899D01*
X034830Y022499D01*
X034780Y022449D01*
X034780Y022299D01*
X034782Y022282D01*
X034786Y022265D01*
X034793Y022249D01*
X034803Y022235D01*
X034816Y022222D01*
X034830Y022212D01*
X034846Y022205D01*
X034863Y022201D01*
X034880Y022199D01*
X035480Y022199D01*
X035497Y022201D01*
X035514Y022205D01*
X035530Y022212D01*
X035544Y022222D01*
X035557Y022235D01*
X035567Y022249D01*
X035574Y022265D01*
X035578Y022282D01*
X035580Y022299D01*
X035580Y022449D01*
X035530Y022499D01*
X035530Y023899D01*
X035580Y023949D01*
X035580Y024099D01*
X035578Y024116D01*
X035574Y024133D01*
X035567Y024149D01*
X035557Y024163D01*
X035544Y024176D01*
X035530Y024186D01*
X035514Y024193D01*
X035497Y024197D01*
X035480Y024199D01*
X035830Y022199D02*
X037530Y022199D01*
X037547Y022197D01*
X037564Y022193D01*
X037580Y022186D01*
X037594Y022176D01*
X037607Y022163D01*
X037617Y022149D01*
X037624Y022133D01*
X037628Y022116D01*
X037630Y022099D01*
X037630Y021299D01*
X037628Y021282D01*
X037624Y021265D01*
X037617Y021249D01*
X037607Y021235D01*
X037594Y021222D01*
X037580Y021212D01*
X037564Y021205D01*
X037547Y021201D01*
X037530Y021199D01*
X035830Y021199D01*
X035813Y021201D01*
X035796Y021205D01*
X035780Y021212D01*
X035766Y021222D01*
X035753Y021235D01*
X035743Y021249D01*
X035736Y021265D01*
X035732Y021282D01*
X035730Y021299D01*
X035730Y022099D01*
X035732Y022116D01*
X035736Y022133D01*
X035743Y022149D01*
X035753Y022163D01*
X035766Y022176D01*
X035780Y022186D01*
X035796Y022193D01*
X035813Y022197D01*
X035830Y022199D01*
X036530Y021699D02*
X036580Y021699D01*
X036780Y021699D02*
X036830Y021699D01*
X035480Y019699D02*
X034880Y019699D01*
X034863Y019697D01*
X034846Y019693D01*
X034830Y019686D01*
X034816Y019676D01*
X034803Y019663D01*
X034793Y019649D01*
X034786Y019633D01*
X034782Y019616D01*
X034780Y019599D01*
X034780Y019449D01*
X034830Y019399D01*
X034830Y017999D01*
X034780Y017949D01*
X034780Y017799D01*
X034782Y017782D01*
X034786Y017765D01*
X034793Y017749D01*
X034803Y017735D01*
X034816Y017722D01*
X034830Y017712D01*
X034846Y017705D01*
X034863Y017701D01*
X034880Y017699D01*
X035480Y017699D01*
X035497Y017701D01*
X035514Y017705D01*
X035530Y017712D01*
X035544Y017722D01*
X035557Y017735D01*
X035567Y017749D01*
X035574Y017765D01*
X035578Y017782D01*
X035580Y017799D01*
X035580Y017949D01*
X035530Y017999D01*
X035530Y019399D01*
X035580Y019449D01*
X035580Y019599D01*
X035578Y019616D01*
X035574Y019633D01*
X035567Y019649D01*
X035557Y019663D01*
X035544Y019676D01*
X035530Y019686D01*
X035514Y019693D01*
X035497Y019697D01*
X035480Y019699D01*
X035830Y017699D02*
X037530Y017699D01*
X037547Y017697D01*
X037564Y017693D01*
X037580Y017686D01*
X037594Y017676D01*
X037607Y017663D01*
X037617Y017649D01*
X037624Y017633D01*
X037628Y017616D01*
X037630Y017599D01*
X037630Y016799D01*
X037628Y016782D01*
X037624Y016765D01*
X037617Y016749D01*
X037607Y016735D01*
X037594Y016722D01*
X037580Y016712D01*
X037564Y016705D01*
X037547Y016701D01*
X037530Y016699D01*
X035830Y016699D01*
X035813Y016701D01*
X035796Y016705D01*
X035780Y016712D01*
X035766Y016722D01*
X035753Y016735D01*
X035743Y016749D01*
X035736Y016765D01*
X035732Y016782D01*
X035730Y016799D01*
X035730Y017599D01*
X035732Y017616D01*
X035736Y017633D01*
X035743Y017649D01*
X035753Y017663D01*
X035766Y017676D01*
X035780Y017686D01*
X035796Y017693D01*
X035813Y017697D01*
X035830Y017699D01*
X036530Y017199D02*
X036580Y017199D01*
X036780Y017199D02*
X036830Y017199D01*
X035580Y015649D02*
X034780Y015649D01*
X034763Y015647D01*
X034746Y015643D01*
X034730Y015636D01*
X034716Y015626D01*
X034703Y015613D01*
X034693Y015599D01*
X034686Y015583D01*
X034682Y015566D01*
X034680Y015549D01*
X034680Y013849D01*
X034682Y013832D01*
X034686Y013815D01*
X034693Y013799D01*
X034703Y013785D01*
X034716Y013772D01*
X034730Y013762D01*
X034746Y013755D01*
X034763Y013751D01*
X034780Y013749D01*
X035580Y013749D01*
X035597Y013751D01*
X035614Y013755D01*
X035630Y013762D01*
X035644Y013772D01*
X035657Y013785D01*
X035667Y013799D01*
X035674Y013815D01*
X035678Y013832D01*
X035680Y013849D01*
X035680Y015549D01*
X035678Y015566D01*
X035674Y015583D01*
X035667Y015599D01*
X035657Y015613D01*
X035644Y015626D01*
X035630Y015636D01*
X035614Y015643D01*
X035597Y015647D01*
X035580Y015649D01*
X035180Y014849D02*
X035180Y014799D01*
X035180Y014599D02*
X035180Y014549D01*
X036780Y009149D02*
X037580Y009149D01*
X037597Y009147D01*
X037614Y009143D01*
X037630Y009136D01*
X037644Y009126D01*
X037657Y009113D01*
X037667Y009099D01*
X037674Y009083D01*
X037678Y009066D01*
X037680Y009049D01*
X037680Y007349D01*
X037678Y007332D01*
X037674Y007315D01*
X037667Y007299D01*
X037657Y007285D01*
X037644Y007272D01*
X037630Y007262D01*
X037614Y007255D01*
X037597Y007251D01*
X037580Y007249D01*
X036780Y007249D01*
X036763Y007251D01*
X036746Y007255D01*
X036730Y007262D01*
X036716Y007272D01*
X036703Y007285D01*
X036693Y007299D01*
X036686Y007315D01*
X036682Y007332D01*
X036680Y007349D01*
X036680Y009049D01*
X036682Y009066D01*
X036686Y009083D01*
X036693Y009099D01*
X036703Y009113D01*
X036716Y009126D01*
X036730Y009136D01*
X036746Y009143D01*
X036763Y009147D01*
X036780Y009149D01*
X037180Y008349D02*
X037180Y008299D01*
X037180Y008099D02*
X037180Y008049D01*
X031180Y003099D02*
X031080Y003199D01*
X030280Y003199D01*
X030180Y003099D01*
X030080Y003199D01*
X029280Y003199D01*
X029180Y003099D01*
X029180Y002299D01*
X029280Y002199D01*
X030080Y002199D01*
X030180Y002299D01*
X030280Y002199D01*
X031080Y002199D01*
X031180Y002299D01*
X031180Y003099D01*
D12*
X036880Y008099D02*
X037180Y008099D01*
X037480Y008099D01*
X037480Y008299D02*
X037180Y008299D01*
X036880Y008299D01*
X030980Y009099D02*
X030680Y009099D01*
X030380Y009099D01*
X030380Y009299D02*
X030680Y009299D01*
X030980Y009299D01*
X027280Y011399D02*
X027280Y011699D01*
X027280Y011999D01*
X027080Y011999D02*
X027080Y011699D01*
X027080Y011399D01*
X024980Y009299D02*
X024680Y009299D01*
X024380Y009299D01*
X024380Y009099D02*
X024680Y009099D01*
X024980Y009099D01*
X021980Y009099D02*
X021680Y009099D01*
X021380Y009099D01*
X021380Y009299D02*
X021680Y009299D01*
X021980Y009299D01*
X021980Y006799D02*
X021680Y006799D01*
X021380Y006799D01*
X021380Y006599D02*
X021680Y006599D01*
X021980Y006599D01*
X020480Y006599D02*
X020180Y006599D01*
X019880Y006599D01*
X019880Y006799D02*
X020180Y006799D01*
X020480Y006799D01*
X016980Y006799D02*
X016680Y006799D01*
X016380Y006799D01*
X016380Y006599D02*
X016680Y006599D01*
X016980Y006599D01*
X007980Y009099D02*
X007680Y009099D01*
X007380Y009099D01*
X007380Y009299D02*
X007680Y009299D01*
X007980Y009299D01*
X009580Y014899D02*
X009580Y015199D01*
X009580Y015499D01*
X009780Y015499D02*
X009780Y015199D01*
X009780Y014899D01*
X002480Y025099D02*
X002180Y025099D01*
X001880Y025099D01*
X001880Y025299D02*
X002180Y025299D01*
X002480Y025299D01*
X002480Y030099D02*
X002180Y030099D01*
X001880Y030099D01*
X001880Y030299D02*
X002180Y030299D01*
X002480Y030299D01*
X013880Y028299D02*
X014180Y028299D01*
X014480Y028299D01*
X014480Y028099D02*
X014180Y028099D01*
X013880Y028099D01*
X025380Y024299D02*
X025680Y024299D01*
X025980Y024299D01*
X025980Y024099D02*
X025680Y024099D01*
X025380Y024099D01*
X025380Y021799D02*
X025680Y021799D01*
X025980Y021799D01*
X025980Y021599D02*
X025680Y021599D01*
X025380Y021599D01*
X034880Y014799D02*
X035180Y014799D01*
X035480Y014799D01*
X035480Y014599D02*
X035180Y014599D01*
X034880Y014599D01*
X036580Y016899D02*
X036580Y017199D01*
X036580Y017499D01*
X036780Y017499D02*
X036780Y017199D01*
X036780Y016899D01*
X036780Y021399D02*
X036780Y021699D01*
X036780Y021999D01*
X036580Y021999D02*
X036580Y021699D01*
X036580Y021399D01*
X036880Y026599D02*
X037180Y026599D01*
X037480Y026599D01*
X037480Y026799D02*
X037180Y026799D01*
X036880Y026799D01*
X036880Y029599D02*
X037180Y029599D01*
X037480Y029599D01*
X037480Y029799D02*
X037180Y029799D01*
X036880Y029799D01*
D13*
X037775Y030362D02*
X037823Y030314D01*
X038017Y030314D01*
X038065Y030362D01*
X038065Y030459D01*
X038017Y030508D01*
X038065Y030609D02*
X038065Y030802D01*
X038065Y030705D02*
X037775Y030705D01*
X037872Y030609D01*
X037823Y030508D02*
X037775Y030459D01*
X037775Y030362D01*
X037920Y030903D02*
X037920Y031097D01*
X038065Y031048D02*
X037775Y031048D01*
X037920Y030903D01*
X035183Y031512D02*
X035135Y031464D01*
X035038Y031464D01*
X034990Y031512D01*
X034888Y031512D02*
X034840Y031464D01*
X034743Y031464D01*
X034695Y031512D01*
X034695Y031706D01*
X034743Y031754D01*
X034840Y031754D01*
X034888Y031706D01*
X034888Y031512D01*
X034888Y031464D02*
X034792Y031561D01*
X034990Y031706D02*
X035038Y031754D01*
X035135Y031754D01*
X035183Y031706D01*
X035183Y031658D01*
X035135Y031609D01*
X035183Y031561D01*
X035183Y031512D01*
X035135Y031609D02*
X035086Y031609D01*
X037795Y027513D02*
X037795Y027319D01*
X037940Y027319D01*
X037892Y027416D01*
X037892Y027465D01*
X037940Y027513D01*
X038037Y027513D01*
X038085Y027465D01*
X038085Y027368D01*
X038037Y027319D01*
X038085Y027218D02*
X038085Y027025D01*
X038085Y027121D02*
X037795Y027121D01*
X037892Y027025D01*
X037843Y026924D02*
X037795Y026875D01*
X037795Y026778D01*
X037843Y026730D01*
X038037Y026730D01*
X038085Y026778D01*
X038085Y026875D01*
X038037Y026924D01*
X024428Y031762D02*
X024379Y031714D01*
X024283Y031714D01*
X024234Y031762D01*
X024234Y031859D01*
X024379Y031859D01*
X024428Y031811D01*
X024428Y031762D01*
X024331Y031956D02*
X024234Y031859D01*
X024331Y031956D02*
X024428Y032004D01*
X024036Y032004D02*
X024036Y031714D01*
X023940Y031714D02*
X024133Y031714D01*
X023940Y031908D02*
X024036Y032004D01*
X023838Y031956D02*
X023790Y032004D01*
X023693Y032004D01*
X023645Y031956D01*
X023645Y031762D01*
X023693Y031714D01*
X023790Y031714D01*
X023838Y031762D01*
D14*
X028255Y032074D02*
X028480Y032074D01*
X028555Y032149D01*
X028555Y032449D01*
X028480Y032524D01*
X028255Y032524D01*
X028255Y032074D01*
X028715Y032074D02*
X029016Y032374D01*
X029016Y032449D01*
X028941Y032524D01*
X028790Y032524D01*
X028715Y032449D01*
X028715Y032074D02*
X029016Y032074D01*
X019095Y019851D02*
X019095Y019724D01*
X018968Y019851D01*
X018937Y019851D01*
X018905Y019819D01*
X018905Y019756D01*
X018937Y019724D01*
X018937Y019630D02*
X019063Y019630D01*
X019095Y019598D01*
X019095Y019535D01*
X019063Y019503D01*
X018937Y019503D01*
X018905Y019535D01*
X018905Y019598D01*
X018937Y019630D01*
X019032Y019566D02*
X019095Y019630D01*
X019095Y015851D02*
X019095Y015724D01*
X019095Y015787D02*
X018905Y015787D01*
X018968Y015724D01*
X018937Y015630D02*
X019063Y015630D01*
X019095Y015598D01*
X019095Y015535D01*
X019063Y015503D01*
X018937Y015503D01*
X018905Y015535D01*
X018905Y015598D01*
X018937Y015630D01*
X019032Y015566D02*
X019095Y015630D01*
X017166Y005724D02*
X017016Y005649D01*
X016865Y005499D01*
X017091Y005499D01*
X017166Y005424D01*
X017166Y005349D01*
X017091Y005274D01*
X016940Y005274D01*
X016865Y005349D01*
X016865Y005499D01*
X016705Y005499D02*
X016705Y005649D01*
X016630Y005724D01*
X016405Y005724D01*
X016405Y005274D01*
X016405Y005424D02*
X016630Y005424D01*
X016705Y005499D01*
X016555Y005424D02*
X016705Y005274D01*
X016675Y002814D02*
X016732Y002758D01*
X016732Y002701D01*
X016675Y002644D01*
X016732Y002587D01*
X016732Y002531D01*
X016675Y002474D01*
X016562Y002474D01*
X016505Y002531D01*
X016618Y002644D02*
X016675Y002644D01*
X016675Y002814D02*
X016562Y002814D01*
X016505Y002758D01*
X018555Y002701D02*
X018668Y002814D01*
X018668Y002474D01*
X018555Y002474D02*
X018782Y002474D01*
X020005Y002531D02*
X020062Y002474D01*
X020175Y002474D01*
X020232Y002531D01*
X020232Y002587D01*
X020175Y002644D01*
X020118Y002644D01*
X020175Y002644D02*
X020232Y002701D01*
X020232Y002758D01*
X020175Y002814D01*
X020062Y002814D01*
X020005Y002758D01*
X022055Y002701D02*
X022168Y002814D01*
X022168Y002474D01*
X022055Y002474D02*
X022282Y002474D01*
X025165Y002477D02*
X025197Y002445D01*
X025165Y002477D02*
X025165Y002540D01*
X025197Y002572D01*
X025228Y002572D01*
X025355Y002445D01*
X025355Y002572D01*
X025323Y002319D02*
X025355Y002287D01*
X025355Y002256D01*
X025323Y002224D01*
X025323Y002319D02*
X025165Y002319D01*
X025165Y002287D02*
X025165Y002351D01*
X029205Y003449D02*
X029280Y003374D01*
X029430Y003374D01*
X029505Y003449D01*
X029665Y003449D02*
X029740Y003374D01*
X029891Y003374D01*
X029966Y003449D01*
X029966Y003749D01*
X029891Y003824D01*
X029740Y003824D01*
X029665Y003749D01*
X029665Y003449D01*
X029505Y003749D02*
X029430Y003824D01*
X029280Y003824D01*
X029205Y003749D01*
X029205Y003449D01*
X030126Y003374D02*
X030126Y003824D01*
X030426Y003374D01*
X030426Y003824D01*
X030586Y003749D02*
X030661Y003824D01*
X030811Y003824D01*
X030886Y003749D01*
X030886Y003674D01*
X030586Y003374D01*
X030886Y003374D01*
X033165Y002508D02*
X033355Y002508D01*
X033355Y002445D02*
X033355Y002572D01*
X033228Y002445D02*
X033165Y002508D01*
X033165Y002351D02*
X033165Y002287D01*
X033165Y002319D02*
X033323Y002319D01*
X033355Y002287D01*
X033355Y002256D01*
X033323Y002224D01*
X004545Y013124D02*
X004245Y013124D01*
X004545Y013424D01*
X004545Y013499D01*
X004470Y013574D01*
X004320Y013574D01*
X004245Y013499D01*
X004245Y013424D02*
X004395Y013574D01*
X004395Y013124D01*
X004245Y013124D02*
X004545Y013124D01*
X004084Y013574D02*
X003784Y013574D01*
X003784Y013124D01*
X003784Y013574D01*
X004084Y013574D01*
X003934Y013349D02*
X003784Y013349D01*
X003934Y013349D01*
X003866Y018574D02*
X003866Y019024D01*
X003715Y018874D01*
X003555Y018949D02*
X003555Y018649D01*
X003480Y018574D01*
X003255Y018574D01*
X003255Y019024D01*
X003480Y019024D01*
X003555Y018949D01*
X003715Y018574D02*
X004016Y018574D01*
X004316Y035299D02*
X004316Y035900D01*
X004391Y035824D02*
X004466Y035749D01*
X004391Y035824D02*
X004240Y035824D01*
X004165Y035749D01*
X004165Y035674D01*
X004240Y035599D01*
X004391Y035599D01*
X004466Y035524D01*
X004466Y035449D01*
X004391Y035374D01*
X004240Y035374D01*
X004165Y035449D01*
X004005Y035449D02*
X003930Y035374D01*
X003780Y035374D01*
X003705Y035449D01*
X003705Y035824D01*
X004005Y035824D02*
X004005Y035449D01*
X004626Y035374D02*
X004926Y035374D01*
X004776Y035374D02*
X004776Y035824D01*
X004626Y035674D01*
D15*
X004180Y033699D03*
D16*
X014194Y027624D02*
X014510Y027308D01*
X014510Y027729D01*
X014825Y027624D02*
X014194Y027624D01*
X014300Y027084D02*
X014194Y026979D01*
X014194Y026769D01*
X014300Y026664D01*
X014720Y026664D01*
X014825Y026769D01*
X014825Y026979D01*
X014720Y027084D01*
X014825Y026444D02*
X014825Y026234D01*
X014825Y026339D02*
X014194Y026339D01*
X014194Y026234D02*
X014194Y026444D01*
X011449Y014735D02*
X011239Y014524D01*
X011015Y014630D02*
X010910Y014735D01*
X010700Y014735D01*
X010595Y014630D01*
X010595Y014209D01*
X010700Y014104D01*
X010910Y014104D01*
X011015Y014209D01*
X011239Y014104D02*
X011660Y014104D01*
X011449Y014104D02*
X011449Y014735D01*
X010375Y014735D02*
X010165Y014735D01*
X010270Y014735D02*
X010270Y014104D01*
X010165Y014104D02*
X010375Y014104D01*
X027815Y029789D02*
X027920Y029684D01*
X028130Y029684D01*
X028235Y029789D01*
X028235Y030315D01*
X028460Y030210D02*
X028565Y030315D01*
X028775Y030315D01*
X028880Y030210D01*
X029104Y030210D02*
X029209Y030315D01*
X029419Y030315D01*
X029524Y030210D01*
X029524Y029789D01*
X029419Y029684D01*
X029209Y029684D01*
X029104Y029789D01*
X028880Y029789D02*
X028880Y029894D01*
X028775Y029999D01*
X028565Y029999D01*
X028460Y030104D01*
X028460Y030210D01*
X028670Y030420D02*
X028670Y029579D01*
X028775Y029684D02*
X028880Y029789D01*
X028775Y029684D02*
X028565Y029684D01*
X028460Y029789D01*
X027815Y029789D02*
X027815Y030315D01*
X029104Y030210D02*
X029104Y030104D01*
X029209Y029999D01*
X029524Y029999D01*
D17*
X034977Y023798D02*
X035013Y023798D01*
X035050Y023761D01*
X035050Y023688D01*
X035013Y023651D01*
X034977Y023651D01*
X034940Y023688D01*
X034940Y023761D01*
X034977Y023798D01*
X035050Y023761D02*
X035087Y023798D01*
X035123Y023798D01*
X035160Y023761D01*
X035160Y023688D01*
X035123Y023651D01*
X035087Y023651D01*
X035050Y023688D01*
X035160Y023577D02*
X035160Y023430D01*
X035160Y023503D02*
X034940Y023503D01*
X035013Y023430D01*
X034977Y023356D02*
X035050Y023356D01*
X035087Y023319D01*
X035087Y023209D01*
X035160Y023209D02*
X034940Y023209D01*
X034940Y023319D01*
X034977Y023356D01*
X035087Y023282D02*
X035160Y023356D01*
X035827Y022529D02*
X035790Y022493D01*
X035790Y022346D01*
X035827Y022309D01*
X035900Y022309D01*
X035937Y022346D01*
X036011Y022309D02*
X036158Y022456D01*
X036158Y022493D01*
X036121Y022529D01*
X036048Y022529D01*
X036011Y022493D01*
X035937Y022493D02*
X035900Y022529D01*
X035827Y022529D01*
X036011Y022309D02*
X036158Y022309D01*
X036232Y022309D02*
X036379Y022309D01*
X036305Y022309D02*
X036305Y022529D01*
X036232Y022456D01*
X035123Y019298D02*
X034977Y019298D01*
X034940Y019261D01*
X034940Y019188D01*
X034977Y019151D01*
X035013Y019151D01*
X035050Y019188D01*
X035050Y019298D01*
X035123Y019298D02*
X035160Y019261D01*
X035160Y019188D01*
X035123Y019151D01*
X035160Y019077D02*
X035160Y018930D01*
X035160Y019003D02*
X034940Y019003D01*
X035013Y018930D01*
X034977Y018856D02*
X035050Y018856D01*
X035087Y018819D01*
X035087Y018709D01*
X035160Y018709D02*
X034940Y018709D01*
X034940Y018819D01*
X034977Y018856D01*
X035087Y018782D02*
X035160Y018856D01*
X035827Y018029D02*
X035790Y017993D01*
X035790Y017846D01*
X035827Y017809D01*
X035900Y017809D01*
X035937Y017846D01*
X036011Y017809D02*
X036158Y017956D01*
X036158Y017993D01*
X036121Y018029D01*
X036048Y018029D01*
X036011Y017993D01*
X035937Y017993D02*
X035900Y018029D01*
X035827Y018029D01*
X036011Y017809D02*
X036158Y017809D01*
X036232Y017809D02*
X036379Y017956D01*
X036379Y017993D01*
X036342Y018029D01*
X036269Y018029D01*
X036232Y017993D01*
X036232Y017809D02*
X036379Y017809D01*
X035973Y015535D02*
X035937Y015535D01*
X035900Y015498D01*
X035900Y015461D01*
X035900Y015498D02*
X035863Y015535D01*
X035827Y015535D01*
X035790Y015498D01*
X035790Y015425D01*
X035827Y015388D01*
X035827Y015314D02*
X035790Y015277D01*
X035790Y015204D01*
X035827Y015167D01*
X035827Y015093D02*
X035790Y015056D01*
X035790Y014983D01*
X035827Y014946D01*
X035973Y014946D01*
X036010Y014983D01*
X036010Y015056D01*
X035973Y015093D01*
X036010Y015167D02*
X035863Y015314D01*
X035827Y015314D01*
X035973Y015388D02*
X036010Y015425D01*
X036010Y015498D01*
X035973Y015535D01*
X036010Y015314D02*
X036010Y015167D01*
X031510Y009998D02*
X031290Y009998D01*
X031400Y009888D01*
X031400Y010035D01*
X031473Y009814D02*
X031510Y009777D01*
X031510Y009704D01*
X031473Y009667D01*
X031327Y009667D01*
X031290Y009704D01*
X031290Y009777D01*
X031327Y009814D01*
X032827Y008853D02*
X032827Y008706D01*
X032864Y008669D01*
X032937Y008669D01*
X032974Y008706D01*
X033048Y008669D02*
X033195Y008669D01*
X033121Y008669D02*
X033121Y008889D01*
X033048Y008816D01*
X032974Y008853D02*
X032937Y008889D01*
X032864Y008889D01*
X032827Y008853D01*
X033269Y008853D02*
X033306Y008889D01*
X033379Y008889D01*
X033416Y008853D01*
X033416Y008816D01*
X033269Y008669D01*
X033416Y008669D01*
X034940Y009209D02*
X034940Y009319D01*
X034977Y009356D01*
X035050Y009356D01*
X035087Y009319D01*
X035087Y009209D01*
X035160Y009209D02*
X034940Y009209D01*
X035087Y009282D02*
X035160Y009356D01*
X035160Y009430D02*
X035160Y009577D01*
X035160Y009503D02*
X034940Y009503D01*
X035013Y009430D01*
X035050Y009651D02*
X035050Y009761D01*
X035087Y009798D01*
X035123Y009798D01*
X035160Y009761D01*
X035160Y009688D01*
X035123Y009651D01*
X035050Y009651D01*
X034977Y009724D01*
X034940Y009798D01*
X037790Y008998D02*
X037827Y009035D01*
X037863Y009035D01*
X037900Y008998D01*
X037937Y009035D01*
X037973Y009035D01*
X038010Y008998D01*
X038010Y008925D01*
X037973Y008888D01*
X038010Y008814D02*
X038010Y008667D01*
X038010Y008740D02*
X037790Y008740D01*
X037863Y008667D01*
X037827Y008593D02*
X037790Y008556D01*
X037790Y008483D01*
X037827Y008446D01*
X037973Y008446D01*
X038010Y008483D01*
X038010Y008556D01*
X037973Y008593D01*
X037827Y008888D02*
X037790Y008925D01*
X037790Y008998D01*
X037900Y008998D02*
X037900Y008961D01*
X026658Y012309D02*
X026511Y012309D01*
X026584Y012309D02*
X026584Y012529D01*
X026511Y012456D01*
X026437Y012493D02*
X026400Y012529D01*
X026327Y012529D01*
X026290Y012493D01*
X026290Y012346D01*
X026327Y012309D01*
X026400Y012309D01*
X026437Y012346D01*
X023916Y013353D02*
X023769Y013206D01*
X023769Y013169D01*
X023695Y013169D02*
X023548Y013169D01*
X023621Y013169D02*
X023621Y013389D01*
X023548Y013316D01*
X023474Y013353D02*
X023437Y013389D01*
X023364Y013389D01*
X023327Y013353D01*
X023327Y013206D01*
X023364Y013169D01*
X023437Y013169D01*
X023474Y013206D01*
X023769Y013389D02*
X023916Y013389D01*
X023916Y013353D01*
X022158Y010529D02*
X022011Y010529D01*
X021937Y010493D02*
X021900Y010529D01*
X021827Y010529D01*
X021790Y010493D01*
X021790Y010346D01*
X021827Y010309D01*
X021900Y010309D01*
X021937Y010346D01*
X022011Y010346D02*
X022011Y010309D01*
X022011Y010346D02*
X022158Y010493D01*
X022158Y010529D01*
X023850Y008861D02*
X023887Y008898D01*
X024033Y008751D01*
X024070Y008788D01*
X024070Y008861D01*
X024033Y008898D01*
X023887Y008898D01*
X023850Y008861D02*
X023850Y008788D01*
X023887Y008751D01*
X024033Y008751D01*
X024070Y008677D02*
X024070Y008530D01*
X024070Y008603D02*
X023850Y008603D01*
X023923Y008530D01*
X023887Y008456D02*
X023850Y008419D01*
X023850Y008346D01*
X023887Y008309D01*
X024033Y008309D01*
X024070Y008346D01*
X024070Y008419D01*
X024033Y008456D01*
X022660Y008040D02*
X022660Y007967D01*
X022623Y007930D01*
X022550Y007930D02*
X022513Y008003D01*
X022513Y008040D01*
X022550Y008077D01*
X022623Y008077D01*
X022660Y008040D01*
X022550Y007930D02*
X022440Y007930D01*
X022440Y008077D01*
X022477Y007856D02*
X022440Y007819D01*
X022440Y007709D01*
X022660Y007709D01*
X022587Y007709D02*
X022587Y007819D01*
X022550Y007856D01*
X022477Y007856D01*
X022587Y007782D02*
X022660Y007856D01*
X020420Y008767D02*
X020200Y008767D01*
X020200Y008877D01*
X020237Y008914D01*
X020310Y008914D01*
X020347Y008877D01*
X020347Y008767D01*
X020347Y008840D02*
X020420Y008914D01*
X020420Y008988D02*
X020273Y009135D01*
X020237Y009135D01*
X020200Y009098D01*
X020200Y009025D01*
X020237Y008988D01*
X020420Y008988D02*
X020420Y009135D01*
X019160Y009209D02*
X018940Y009209D01*
X018940Y009319D01*
X018977Y009356D01*
X019050Y009356D01*
X019087Y009319D01*
X019087Y009209D01*
X019087Y009282D02*
X019160Y009356D01*
X019050Y009430D02*
X019050Y009577D01*
X019160Y009540D02*
X018940Y009540D01*
X019050Y009430D01*
X015616Y010069D02*
X015469Y010069D01*
X015579Y010179D01*
X015579Y009959D01*
X015395Y009959D02*
X015248Y009959D01*
X015321Y009959D02*
X015321Y010179D01*
X015248Y010106D01*
X015174Y010143D02*
X015174Y010069D01*
X015137Y010032D01*
X015027Y010032D01*
X015027Y009959D02*
X015027Y010179D01*
X015137Y010179D01*
X015174Y010143D01*
X015100Y010032D02*
X015174Y009959D01*
X015111Y012709D02*
X015258Y012856D01*
X015258Y012893D01*
X015221Y012929D01*
X015148Y012929D01*
X015111Y012893D01*
X015037Y012893D02*
X015000Y012929D01*
X014927Y012929D01*
X014890Y012893D01*
X014890Y012746D01*
X014927Y012709D01*
X015000Y012709D01*
X015037Y012746D01*
X015111Y012709D02*
X015258Y012709D01*
X015332Y012746D02*
X015479Y012893D01*
X015479Y012746D01*
X015442Y012709D01*
X015369Y012709D01*
X015332Y012746D01*
X015332Y012893D01*
X015369Y012929D01*
X015442Y012929D01*
X015479Y012893D01*
X014660Y014709D02*
X014440Y014709D01*
X014440Y014819D01*
X014477Y014856D01*
X014550Y014856D01*
X014587Y014819D01*
X014587Y014709D01*
X014587Y014782D02*
X014660Y014856D01*
X014623Y014930D02*
X014587Y014930D01*
X014550Y014967D01*
X014550Y015040D01*
X014587Y015077D01*
X014623Y015077D01*
X014660Y015040D01*
X014660Y014967D01*
X014623Y014930D01*
X014550Y014967D02*
X014513Y014930D01*
X014477Y014930D01*
X014440Y014967D01*
X014440Y015040D01*
X014477Y015077D01*
X014513Y015077D01*
X014550Y015040D01*
X016700Y016267D02*
X016700Y016377D01*
X016737Y016414D01*
X016810Y016414D01*
X016847Y016377D01*
X016847Y016267D01*
X016920Y016267D02*
X016700Y016267D01*
X016847Y016340D02*
X016920Y016414D01*
X016883Y016488D02*
X016920Y016525D01*
X016920Y016598D01*
X016883Y016635D01*
X016737Y016635D01*
X016700Y016598D01*
X016700Y016525D01*
X016737Y016488D01*
X016773Y016488D01*
X016810Y016525D01*
X016810Y016635D01*
X016420Y018746D02*
X016200Y018746D01*
X016200Y018856D01*
X016237Y018893D01*
X016310Y018893D01*
X016347Y018856D01*
X016347Y018746D01*
X016347Y018819D02*
X016420Y018893D01*
X016420Y018967D02*
X016420Y019114D01*
X016420Y019040D02*
X016200Y019040D01*
X016273Y018967D01*
X016237Y019188D02*
X016200Y019225D01*
X016200Y019298D01*
X016237Y019335D01*
X016273Y019335D01*
X016420Y019188D01*
X016420Y019335D01*
X015160Y019909D02*
X014940Y019909D01*
X014940Y020019D01*
X014977Y020056D01*
X015050Y020056D01*
X015087Y020019D01*
X015087Y019909D01*
X015087Y019982D02*
X015160Y020056D01*
X015160Y020130D02*
X015160Y020277D01*
X015160Y020203D02*
X014940Y020203D01*
X015013Y020130D01*
X015013Y020351D02*
X014940Y020424D01*
X015160Y020424D01*
X015160Y020351D02*
X015160Y020498D01*
X019440Y020261D02*
X019477Y020298D01*
X019513Y020298D01*
X019550Y020261D01*
X019587Y020298D01*
X019623Y020298D01*
X019660Y020261D01*
X019660Y020188D01*
X019623Y020151D01*
X019660Y020077D02*
X019660Y019930D01*
X019660Y020003D02*
X019440Y020003D01*
X019513Y019930D01*
X019477Y019856D02*
X019550Y019856D01*
X019587Y019819D01*
X019587Y019709D01*
X019660Y019709D02*
X019440Y019709D01*
X019440Y019819D01*
X019477Y019856D01*
X019587Y019782D02*
X019660Y019856D01*
X019477Y020151D02*
X019440Y020188D01*
X019440Y020261D01*
X019550Y020261D02*
X019550Y020224D01*
X021890Y021046D02*
X021927Y021009D01*
X022000Y021009D01*
X022037Y021046D01*
X022111Y021009D02*
X022258Y021009D01*
X022184Y021009D02*
X022184Y021229D01*
X022111Y021156D01*
X022037Y021193D02*
X022000Y021229D01*
X021927Y021229D01*
X021890Y021193D01*
X021890Y021046D01*
X022332Y021046D02*
X022369Y021009D01*
X022442Y021009D01*
X022479Y021046D01*
X022479Y021082D01*
X022442Y021119D01*
X022369Y021119D01*
X022332Y021156D01*
X022332Y021193D01*
X022369Y021229D01*
X022442Y021229D01*
X022479Y021193D01*
X022479Y021156D01*
X022442Y021119D01*
X022369Y021119D02*
X022332Y021082D01*
X022332Y021046D01*
X024850Y021030D02*
X024960Y021030D01*
X024923Y021103D01*
X024923Y021140D01*
X024960Y021177D01*
X025033Y021177D01*
X025070Y021140D01*
X025070Y021067D01*
X025033Y021030D01*
X025033Y020956D02*
X025070Y020919D01*
X025070Y020846D01*
X025033Y020809D01*
X024887Y020809D01*
X024850Y020846D01*
X024850Y020919D01*
X024887Y020956D01*
X024850Y021030D02*
X024850Y021177D01*
X023779Y016939D02*
X023632Y016939D01*
X023779Y016939D02*
X023779Y016903D01*
X023632Y016756D01*
X023632Y016719D01*
X023558Y016719D02*
X023411Y016719D01*
X023484Y016719D02*
X023484Y016939D01*
X023411Y016866D01*
X023337Y016903D02*
X023337Y016829D01*
X023300Y016792D01*
X023190Y016792D01*
X023190Y016719D02*
X023190Y016939D01*
X023300Y016939D01*
X023337Y016903D01*
X023263Y016792D02*
X023337Y016719D01*
X019660Y016261D02*
X019660Y016188D01*
X019623Y016151D01*
X019477Y016298D01*
X019623Y016298D01*
X019660Y016261D01*
X019623Y016151D02*
X019477Y016151D01*
X019440Y016188D01*
X019440Y016261D01*
X019477Y016298D01*
X019660Y016077D02*
X019660Y015930D01*
X019660Y016003D02*
X019440Y016003D01*
X019513Y015930D01*
X019477Y015856D02*
X019550Y015856D01*
X019587Y015819D01*
X019587Y015709D01*
X019660Y015709D02*
X019440Y015709D01*
X019440Y015819D01*
X019477Y015856D01*
X019587Y015782D02*
X019660Y015856D01*
X025387Y008574D02*
X025350Y008537D01*
X025350Y008464D01*
X025387Y008427D01*
X025387Y008353D02*
X025350Y008316D01*
X025350Y008243D01*
X025387Y008206D01*
X025533Y008206D01*
X025570Y008243D01*
X025570Y008316D01*
X025533Y008353D01*
X025570Y008427D02*
X025423Y008574D01*
X025387Y008574D01*
X025570Y008574D02*
X025570Y008427D01*
X025570Y008132D02*
X025570Y008059D01*
X025570Y008096D02*
X025350Y008096D01*
X025350Y008132D02*
X025350Y008059D01*
X021658Y005629D02*
X021584Y005593D01*
X021511Y005519D01*
X021621Y005519D01*
X021658Y005482D01*
X021658Y005446D01*
X021621Y005409D01*
X021548Y005409D01*
X021511Y005446D01*
X021511Y005519D01*
X021437Y005446D02*
X021400Y005409D01*
X021327Y005409D01*
X021290Y005446D01*
X021290Y005593D01*
X021327Y005629D01*
X021400Y005629D01*
X021437Y005593D01*
X020258Y005443D02*
X020258Y005406D01*
X020221Y005369D01*
X020258Y005332D01*
X020258Y005296D01*
X020221Y005259D01*
X020148Y005259D01*
X020111Y005296D01*
X020037Y005259D02*
X019963Y005332D01*
X020000Y005332D02*
X019890Y005332D01*
X019890Y005259D02*
X019890Y005479D01*
X020000Y005479D01*
X020037Y005443D01*
X020037Y005369D01*
X020000Y005332D01*
X020111Y005443D02*
X020148Y005479D01*
X020221Y005479D01*
X020258Y005443D01*
X020221Y005369D02*
X020184Y005369D01*
X019570Y005846D02*
X019570Y005919D01*
X019533Y005956D01*
X019533Y006030D02*
X019570Y006067D01*
X019570Y006140D01*
X019533Y006177D01*
X019497Y006177D01*
X019460Y006140D01*
X019460Y006103D01*
X019460Y006140D02*
X019423Y006177D01*
X019387Y006177D01*
X019350Y006140D01*
X019350Y006067D01*
X019387Y006030D01*
X019387Y005956D02*
X019350Y005919D01*
X019350Y005846D01*
X019387Y005809D01*
X019533Y005809D01*
X019570Y005846D01*
X016070Y005846D02*
X016070Y005919D01*
X016033Y005956D01*
X016033Y006030D02*
X016070Y006067D01*
X016070Y006140D01*
X016033Y006177D01*
X015887Y006177D01*
X015850Y006140D01*
X015850Y006067D01*
X015887Y006030D01*
X015923Y006030D01*
X015960Y006067D01*
X015960Y006177D01*
X015887Y005956D02*
X015850Y005919D01*
X015850Y005846D01*
X015887Y005809D01*
X016033Y005809D01*
X016070Y005846D01*
X015160Y005430D02*
X015123Y005430D01*
X014977Y005577D01*
X014940Y005577D01*
X014940Y005430D01*
X014977Y005356D02*
X015050Y005356D01*
X015087Y005319D01*
X015087Y005209D01*
X015160Y005209D02*
X014940Y005209D01*
X014940Y005319D01*
X014977Y005356D01*
X015087Y005282D02*
X015160Y005356D01*
X007070Y008346D02*
X007070Y008419D01*
X007033Y008456D01*
X007070Y008530D02*
X007070Y008677D01*
X007070Y008603D02*
X006850Y008603D01*
X006923Y008530D01*
X006887Y008456D02*
X006850Y008419D01*
X006850Y008346D01*
X006887Y008309D01*
X007033Y008309D01*
X007070Y008346D01*
X007033Y008751D02*
X007070Y008788D01*
X007070Y008861D01*
X007033Y008898D01*
X006887Y008898D01*
X006850Y008861D01*
X006850Y008788D01*
X006887Y008751D01*
X006923Y008751D01*
X006960Y008788D01*
X006960Y008898D01*
X004416Y008389D02*
X004269Y008389D01*
X004269Y008279D01*
X004342Y008316D01*
X004379Y008316D01*
X004416Y008279D01*
X004416Y008206D01*
X004379Y008169D01*
X004306Y008169D01*
X004269Y008206D01*
X004195Y008169D02*
X004048Y008169D01*
X004195Y008316D01*
X004195Y008353D01*
X004158Y008389D01*
X004085Y008389D01*
X004048Y008353D01*
X003974Y008353D02*
X003937Y008389D01*
X003864Y008389D01*
X003827Y008353D01*
X003827Y008206D01*
X003864Y008169D01*
X003937Y008169D01*
X003974Y008206D01*
X004377Y012359D02*
X004450Y012359D01*
X004487Y012396D01*
X004561Y012359D02*
X004708Y012506D01*
X004708Y012543D01*
X004671Y012579D01*
X004598Y012579D01*
X004561Y012543D01*
X004487Y012543D02*
X004450Y012579D01*
X004377Y012579D01*
X004340Y012543D01*
X004340Y012396D01*
X004377Y012359D01*
X004561Y012359D02*
X004708Y012359D01*
X004782Y012359D02*
X004782Y012396D01*
X004929Y012543D01*
X004929Y012579D01*
X004782Y012579D01*
X004780Y013799D02*
X004780Y014599D01*
X004280Y014599D02*
X004280Y013799D01*
X004280Y014599D01*
X004180Y014199D02*
X003180Y014199D01*
X003080Y013799D02*
X003080Y014599D01*
X003080Y013799D01*
X002580Y013799D02*
X002580Y014599D01*
X003580Y014599D02*
X003580Y013799D01*
X003780Y013799D02*
X003780Y014599D01*
X004190Y015719D02*
X004190Y015939D01*
X004300Y015939D01*
X004337Y015903D01*
X004337Y015829D01*
X004300Y015792D01*
X004190Y015792D01*
X004263Y015792D02*
X004337Y015719D01*
X004411Y015719D02*
X004558Y015719D01*
X004484Y015719D02*
X004484Y015939D01*
X004411Y015866D01*
X007700Y014635D02*
X007700Y014488D01*
X007810Y014488D01*
X007773Y014561D01*
X007773Y014598D01*
X007810Y014635D01*
X007883Y014635D01*
X007920Y014598D01*
X007920Y014525D01*
X007883Y014488D01*
X007920Y014414D02*
X007920Y014267D01*
X007920Y014340D02*
X007700Y014340D01*
X007773Y014267D01*
X007737Y014193D02*
X007810Y014193D01*
X007847Y014156D01*
X007847Y014046D01*
X007920Y014046D02*
X007700Y014046D01*
X007700Y014156D01*
X007737Y014193D01*
X007847Y014119D02*
X007920Y014193D01*
X008827Y015809D02*
X008900Y015809D01*
X008937Y015846D01*
X009011Y015809D02*
X009158Y015809D01*
X009084Y015809D02*
X009084Y016029D01*
X009011Y015956D01*
X008937Y015993D02*
X008900Y016029D01*
X008827Y016029D01*
X008790Y015993D01*
X008790Y015846D01*
X008827Y015809D01*
X009232Y015809D02*
X009379Y015809D01*
X009305Y015809D02*
X009305Y016029D01*
X009232Y015956D01*
D18*
X007680Y015774D03*
X007680Y013624D03*
X015180Y014624D03*
X016180Y014624D03*
X016180Y016774D03*
X015180Y016774D03*
X015180Y018624D03*
X016180Y018624D03*
X016180Y020774D03*
X015180Y020774D03*
X019680Y020774D03*
X019680Y018624D03*
X019680Y016774D03*
X019680Y014624D03*
X020180Y010774D03*
X019180Y009774D03*
X020180Y008624D03*
X019180Y007624D03*
X022680Y006624D03*
X022680Y008774D03*
X015180Y005774D03*
X015180Y003624D03*
X035180Y017624D03*
X035180Y019774D03*
X035180Y022124D03*
X035180Y024274D03*
X035680Y011274D03*
X035680Y009124D03*
D19*
X003487Y006734D02*
X003487Y001105D01*
X006873Y001105D01*
X006873Y004234D01*
X006873Y006105D02*
X006873Y006734D01*
X006243Y006734D01*
X004117Y006734D02*
X003487Y006734D01*
X017030Y014874D02*
X017030Y016524D01*
X017580Y016586D02*
X017580Y016744D01*
X017580Y015812D02*
X017580Y015586D01*
X017030Y014874D02*
X017081Y014837D01*
X017134Y014802D01*
X017190Y014770D01*
X017247Y014742D01*
X017306Y014718D01*
X017366Y014697D01*
X017427Y014680D01*
X017489Y014666D01*
X017552Y014657D01*
X017615Y014651D01*
X017679Y014649D01*
X017743Y014651D01*
X017806Y014657D01*
X017869Y014666D01*
X017931Y014679D01*
X017992Y014697D01*
X018052Y014717D01*
X018111Y014742D01*
X018168Y014769D01*
X018224Y014801D01*
X018277Y014835D01*
X018328Y014873D01*
X018377Y014914D01*
X018423Y014958D01*
X018467Y015004D01*
X018508Y015053D01*
X018545Y015104D01*
X018580Y015158D01*
X018611Y015213D01*
X018639Y015270D01*
X018663Y015329D01*
X018683Y015389D01*
X018683Y016009D02*
X018663Y016069D01*
X018639Y016128D01*
X018611Y016185D01*
X018580Y016240D01*
X018545Y016294D01*
X018508Y016345D01*
X018467Y016394D01*
X018423Y016440D01*
X018377Y016484D01*
X018328Y016525D01*
X018277Y016563D01*
X018224Y016597D01*
X018168Y016628D01*
X018111Y016656D01*
X018052Y016681D01*
X017992Y016701D01*
X017931Y016719D01*
X017869Y016732D01*
X017806Y016741D01*
X017743Y016747D01*
X017679Y016749D01*
X017615Y016747D01*
X017552Y016741D01*
X017489Y016732D01*
X017427Y016718D01*
X017366Y016701D01*
X017306Y016680D01*
X017247Y016656D01*
X017190Y016628D01*
X017134Y016596D01*
X017081Y016561D01*
X017030Y016524D01*
X017580Y014812D02*
X017580Y014654D01*
X017580Y018654D02*
X017580Y018812D01*
X017030Y018874D02*
X017030Y020524D01*
X017580Y020586D02*
X017580Y020744D01*
X017580Y019812D02*
X017580Y019586D01*
X017030Y018874D02*
X017081Y018837D01*
X017134Y018802D01*
X017190Y018770D01*
X017247Y018742D01*
X017306Y018718D01*
X017366Y018697D01*
X017427Y018680D01*
X017489Y018666D01*
X017552Y018657D01*
X017615Y018651D01*
X017679Y018649D01*
X017743Y018651D01*
X017806Y018657D01*
X017869Y018666D01*
X017931Y018679D01*
X017992Y018697D01*
X018052Y018717D01*
X018111Y018742D01*
X018168Y018769D01*
X018224Y018801D01*
X018277Y018835D01*
X018328Y018873D01*
X018377Y018914D01*
X018423Y018958D01*
X018467Y019004D01*
X018508Y019053D01*
X018545Y019104D01*
X018580Y019158D01*
X018611Y019213D01*
X018639Y019270D01*
X018663Y019329D01*
X018683Y019389D01*
X018683Y020009D02*
X018663Y020069D01*
X018639Y020128D01*
X018611Y020185D01*
X018580Y020240D01*
X018545Y020294D01*
X018508Y020345D01*
X018467Y020394D01*
X018423Y020440D01*
X018377Y020484D01*
X018328Y020525D01*
X018277Y020563D01*
X018224Y020597D01*
X018168Y020628D01*
X018111Y020656D01*
X018052Y020681D01*
X017992Y020701D01*
X017931Y020719D01*
X017869Y020732D01*
X017806Y020741D01*
X017743Y020747D01*
X017679Y020749D01*
X017615Y020747D01*
X017552Y020741D01*
X017489Y020732D01*
X017427Y020718D01*
X017366Y020701D01*
X017306Y020680D01*
X017247Y020656D01*
X017190Y020628D01*
X017134Y020596D01*
X017081Y020561D01*
X017030Y020524D01*
X023818Y005652D02*
X023818Y005258D01*
X023818Y005652D02*
X028542Y005652D01*
X028542Y005258D01*
X028542Y004077D02*
X028542Y001321D01*
X023818Y001321D01*
X023818Y004077D01*
X031818Y004077D02*
X031818Y001321D01*
X036542Y001321D01*
X036542Y004077D01*
X036542Y005258D02*
X036542Y005652D01*
X031818Y005652D01*
X031818Y005258D01*
D20*
X024255Y016699D03*
X022105Y016699D03*
X017255Y010199D03*
X015105Y010199D03*
X004755Y015699D03*
X002605Y015699D03*
D21*
X034180Y026999D02*
X034180Y029399D01*
X034182Y029461D01*
X034188Y029522D01*
X034197Y029583D01*
X034210Y029643D01*
X034227Y029702D01*
X034248Y029760D01*
X034272Y029817D01*
X034299Y029872D01*
X034330Y029925D01*
X034364Y029977D01*
X034401Y030026D01*
X034441Y030073D01*
X034484Y030117D01*
X034529Y030158D01*
X034577Y030197D01*
X034628Y030233D01*
X034680Y030265D01*
X034734Y030294D01*
X034790Y030320D01*
X034848Y030342D01*
X034906Y030361D01*
X034966Y030376D01*
X035027Y030387D01*
X035088Y030395D01*
X035149Y030399D01*
X035211Y030399D01*
X035272Y030395D01*
X035333Y030387D01*
X035394Y030376D01*
X035454Y030361D01*
X035512Y030342D01*
X035570Y030320D01*
X035626Y030294D01*
X035680Y030265D01*
X035732Y030233D01*
X035783Y030197D01*
X035831Y030158D01*
X035876Y030117D01*
X035919Y030073D01*
X035959Y030026D01*
X035996Y029977D01*
X036030Y029925D01*
X036061Y029872D01*
X036088Y029817D01*
X036112Y029760D01*
X036133Y029702D01*
X036150Y029643D01*
X036163Y029583D01*
X036172Y029522D01*
X036178Y029461D01*
X036180Y029399D01*
X036180Y026999D01*
X036178Y026937D01*
X036172Y026876D01*
X036163Y026815D01*
X036150Y026755D01*
X036133Y026696D01*
X036112Y026638D01*
X036088Y026581D01*
X036061Y026526D01*
X036030Y026473D01*
X035996Y026421D01*
X035959Y026372D01*
X035919Y026325D01*
X035876Y026281D01*
X035831Y026240D01*
X035783Y026201D01*
X035732Y026165D01*
X035680Y026133D01*
X035626Y026104D01*
X035570Y026078D01*
X035512Y026056D01*
X035454Y026037D01*
X035394Y026022D01*
X035333Y026011D01*
X035272Y026003D01*
X035211Y025999D01*
X035149Y025999D01*
X035088Y026003D01*
X035027Y026011D01*
X034966Y026022D01*
X034906Y026037D01*
X034848Y026056D01*
X034790Y026078D01*
X034734Y026104D01*
X034680Y026133D01*
X034628Y026165D01*
X034577Y026201D01*
X034529Y026240D01*
X034484Y026281D01*
X034441Y026325D01*
X034401Y026372D01*
X034364Y026421D01*
X034330Y026473D01*
X034299Y026526D01*
X034272Y026581D01*
X034248Y026638D01*
X034227Y026696D01*
X034210Y026755D01*
X034197Y026815D01*
X034188Y026876D01*
X034182Y026937D01*
X034180Y026999D01*
D22*
X028605Y031199D03*
X003605Y017699D03*
D23*
X002905Y017699D03*
X006455Y017699D03*
X027905Y031199D03*
X031455Y031199D03*
D24*
X005250Y014199D03*
X002110Y014199D03*
D25*
X003550Y011949D02*
X003550Y011699D01*
X003550Y011449D01*
X003800Y011449D02*
X003800Y011699D01*
X003800Y011949D01*
M02*
