G75*
%MOIN*%
%OFA0B0*%
%FSLAX24Y24*%
%IPPOS*%
%LPD*%
%AMOC8*
5,1,8,0,0,1.08239X$1,22.5*
%
%ADD10C,0.0000*%
D10*
X001180Y000680D02*
X001180Y035680D01*
X040180Y035680D01*
X040180Y000680D01*
X001180Y000680D01*
X001555Y001680D02*
X001557Y001730D01*
X001563Y001779D01*
X001573Y001828D01*
X001586Y001875D01*
X001604Y001922D01*
X001625Y001967D01*
X001649Y002010D01*
X001677Y002051D01*
X001708Y002090D01*
X001742Y002126D01*
X001779Y002160D01*
X001819Y002190D01*
X001860Y002217D01*
X001904Y002241D01*
X001949Y002261D01*
X001996Y002277D01*
X002044Y002290D01*
X002093Y002299D01*
X002143Y002304D01*
X002192Y002305D01*
X002242Y002302D01*
X002291Y002295D01*
X002340Y002284D01*
X002387Y002270D01*
X002433Y002251D01*
X002478Y002229D01*
X002521Y002204D01*
X002561Y002175D01*
X002599Y002143D01*
X002635Y002109D01*
X002668Y002071D01*
X002697Y002031D01*
X002723Y001989D01*
X002746Y001945D01*
X002765Y001899D01*
X002781Y001852D01*
X002793Y001803D01*
X002801Y001754D01*
X002805Y001705D01*
X002805Y001655D01*
X002801Y001606D01*
X002793Y001557D01*
X002781Y001508D01*
X002765Y001461D01*
X002746Y001415D01*
X002723Y001371D01*
X002697Y001329D01*
X002668Y001289D01*
X002635Y001251D01*
X002599Y001217D01*
X002561Y001185D01*
X002521Y001156D01*
X002478Y001131D01*
X002433Y001109D01*
X002387Y001090D01*
X002340Y001076D01*
X002291Y001065D01*
X002242Y001058D01*
X002192Y001055D01*
X002143Y001056D01*
X002093Y001061D01*
X002044Y001070D01*
X001996Y001083D01*
X001949Y001099D01*
X001904Y001119D01*
X001860Y001143D01*
X001819Y001170D01*
X001779Y001200D01*
X001742Y001234D01*
X001708Y001270D01*
X001677Y001309D01*
X001649Y001350D01*
X001625Y001393D01*
X001604Y001438D01*
X001586Y001485D01*
X001573Y001532D01*
X001563Y001581D01*
X001557Y001630D01*
X001555Y001680D01*
X003939Y010499D02*
X003941Y010535D01*
X003947Y010571D01*
X003957Y010606D01*
X003970Y010640D01*
X003987Y010672D01*
X004007Y010702D01*
X004031Y010729D01*
X004057Y010754D01*
X004086Y010776D01*
X004117Y010795D01*
X004150Y010810D01*
X004184Y010822D01*
X004220Y010830D01*
X004256Y010834D01*
X004292Y010834D01*
X004328Y010830D01*
X004364Y010822D01*
X004398Y010810D01*
X004431Y010795D01*
X004462Y010776D01*
X004491Y010754D01*
X004517Y010729D01*
X004541Y010702D01*
X004561Y010672D01*
X004578Y010640D01*
X004591Y010606D01*
X004601Y010571D01*
X004607Y010535D01*
X004609Y010499D01*
X004607Y010463D01*
X004601Y010427D01*
X004591Y010392D01*
X004578Y010358D01*
X004561Y010326D01*
X004541Y010296D01*
X004517Y010269D01*
X004491Y010244D01*
X004462Y010222D01*
X004431Y010203D01*
X004398Y010188D01*
X004364Y010176D01*
X004328Y010168D01*
X004292Y010164D01*
X004256Y010164D01*
X004220Y010168D01*
X004184Y010176D01*
X004150Y010188D01*
X004117Y010203D01*
X004086Y010222D01*
X004057Y010244D01*
X004031Y010269D01*
X004007Y010296D01*
X003987Y010326D01*
X003970Y010358D01*
X003957Y010392D01*
X003947Y010427D01*
X003941Y010463D01*
X003939Y010499D01*
X003841Y011680D02*
X003843Y011721D01*
X003849Y011762D01*
X003859Y011802D01*
X003872Y011841D01*
X003889Y011878D01*
X003910Y011914D01*
X003934Y011948D01*
X003961Y011979D01*
X003990Y012007D01*
X004023Y012033D01*
X004057Y012055D01*
X004094Y012074D01*
X004132Y012089D01*
X004172Y012101D01*
X004212Y012109D01*
X004253Y012113D01*
X004295Y012113D01*
X004336Y012109D01*
X004376Y012101D01*
X004416Y012089D01*
X004454Y012074D01*
X004490Y012055D01*
X004525Y012033D01*
X004558Y012007D01*
X004587Y011979D01*
X004614Y011948D01*
X004638Y011914D01*
X004659Y011878D01*
X004676Y011841D01*
X004689Y011802D01*
X004699Y011762D01*
X004705Y011721D01*
X004707Y011680D01*
X004705Y011639D01*
X004699Y011598D01*
X004689Y011558D01*
X004676Y011519D01*
X004659Y011482D01*
X004638Y011446D01*
X004614Y011412D01*
X004587Y011381D01*
X004558Y011353D01*
X004525Y011327D01*
X004491Y011305D01*
X004454Y011286D01*
X004416Y011271D01*
X004376Y011259D01*
X004336Y011251D01*
X004295Y011247D01*
X004253Y011247D01*
X004212Y011251D01*
X004172Y011259D01*
X004132Y011271D01*
X004094Y011286D01*
X004058Y011305D01*
X004023Y011327D01*
X003990Y011353D01*
X003961Y011381D01*
X003934Y011412D01*
X003910Y011446D01*
X003889Y011482D01*
X003872Y011519D01*
X003859Y011558D01*
X003849Y011598D01*
X003843Y011639D01*
X003841Y011680D01*
X019653Y011680D02*
X019655Y011721D01*
X019661Y011762D01*
X019671Y011802D01*
X019684Y011841D01*
X019701Y011878D01*
X019722Y011914D01*
X019746Y011948D01*
X019773Y011979D01*
X019802Y012007D01*
X019835Y012033D01*
X019869Y012055D01*
X019906Y012074D01*
X019944Y012089D01*
X019984Y012101D01*
X020024Y012109D01*
X020065Y012113D01*
X020107Y012113D01*
X020148Y012109D01*
X020188Y012101D01*
X020228Y012089D01*
X020266Y012074D01*
X020302Y012055D01*
X020337Y012033D01*
X020370Y012007D01*
X020399Y011979D01*
X020426Y011948D01*
X020450Y011914D01*
X020471Y011878D01*
X020488Y011841D01*
X020501Y011802D01*
X020511Y011762D01*
X020517Y011721D01*
X020519Y011680D01*
X020517Y011639D01*
X020511Y011598D01*
X020501Y011558D01*
X020488Y011519D01*
X020471Y011482D01*
X020450Y011446D01*
X020426Y011412D01*
X020399Y011381D01*
X020370Y011353D01*
X020337Y011327D01*
X020303Y011305D01*
X020266Y011286D01*
X020228Y011271D01*
X020188Y011259D01*
X020148Y011251D01*
X020107Y011247D01*
X020065Y011247D01*
X020024Y011251D01*
X019984Y011259D01*
X019944Y011271D01*
X019906Y011286D01*
X019870Y011305D01*
X019835Y011327D01*
X019802Y011353D01*
X019773Y011381D01*
X019746Y011412D01*
X019722Y011446D01*
X019701Y011482D01*
X019684Y011519D01*
X019671Y011558D01*
X019661Y011598D01*
X019655Y011639D01*
X019653Y011680D01*
X019751Y010499D02*
X019753Y010535D01*
X019759Y010571D01*
X019769Y010606D01*
X019782Y010640D01*
X019799Y010672D01*
X019819Y010702D01*
X019843Y010729D01*
X019869Y010754D01*
X019898Y010776D01*
X019929Y010795D01*
X019962Y010810D01*
X019996Y010822D01*
X020032Y010830D01*
X020068Y010834D01*
X020104Y010834D01*
X020140Y010830D01*
X020176Y010822D01*
X020210Y010810D01*
X020243Y010795D01*
X020274Y010776D01*
X020303Y010754D01*
X020329Y010729D01*
X020353Y010702D01*
X020373Y010672D01*
X020390Y010640D01*
X020403Y010606D01*
X020413Y010571D01*
X020419Y010535D01*
X020421Y010499D01*
X020419Y010463D01*
X020413Y010427D01*
X020403Y010392D01*
X020390Y010358D01*
X020373Y010326D01*
X020353Y010296D01*
X020329Y010269D01*
X020303Y010244D01*
X020274Y010222D01*
X020243Y010203D01*
X020210Y010188D01*
X020176Y010176D01*
X020140Y010168D01*
X020104Y010164D01*
X020068Y010164D01*
X020032Y010168D01*
X019996Y010176D01*
X019962Y010188D01*
X019929Y010203D01*
X019898Y010222D01*
X019869Y010244D01*
X019843Y010269D01*
X019819Y010296D01*
X019799Y010326D01*
X019782Y010358D01*
X019769Y010392D01*
X019759Y010427D01*
X019753Y010463D01*
X019751Y010499D01*
X038555Y001680D02*
X038557Y001730D01*
X038563Y001779D01*
X038573Y001828D01*
X038586Y001875D01*
X038604Y001922D01*
X038625Y001967D01*
X038649Y002010D01*
X038677Y002051D01*
X038708Y002090D01*
X038742Y002126D01*
X038779Y002160D01*
X038819Y002190D01*
X038860Y002217D01*
X038904Y002241D01*
X038949Y002261D01*
X038996Y002277D01*
X039044Y002290D01*
X039093Y002299D01*
X039143Y002304D01*
X039192Y002305D01*
X039242Y002302D01*
X039291Y002295D01*
X039340Y002284D01*
X039387Y002270D01*
X039433Y002251D01*
X039478Y002229D01*
X039521Y002204D01*
X039561Y002175D01*
X039599Y002143D01*
X039635Y002109D01*
X039668Y002071D01*
X039697Y002031D01*
X039723Y001989D01*
X039746Y001945D01*
X039765Y001899D01*
X039781Y001852D01*
X039793Y001803D01*
X039801Y001754D01*
X039805Y001705D01*
X039805Y001655D01*
X039801Y001606D01*
X039793Y001557D01*
X039781Y001508D01*
X039765Y001461D01*
X039746Y001415D01*
X039723Y001371D01*
X039697Y001329D01*
X039668Y001289D01*
X039635Y001251D01*
X039599Y001217D01*
X039561Y001185D01*
X039521Y001156D01*
X039478Y001131D01*
X039433Y001109D01*
X039387Y001090D01*
X039340Y001076D01*
X039291Y001065D01*
X039242Y001058D01*
X039192Y001055D01*
X039143Y001056D01*
X039093Y001061D01*
X039044Y001070D01*
X038996Y001083D01*
X038949Y001099D01*
X038904Y001119D01*
X038860Y001143D01*
X038819Y001170D01*
X038779Y001200D01*
X038742Y001234D01*
X038708Y001270D01*
X038677Y001309D01*
X038649Y001350D01*
X038625Y001393D01*
X038604Y001438D01*
X038586Y001485D01*
X038573Y001532D01*
X038563Y001581D01*
X038557Y001630D01*
X038555Y001680D01*
X038555Y034680D02*
X038557Y034730D01*
X038563Y034779D01*
X038573Y034828D01*
X038586Y034875D01*
X038604Y034922D01*
X038625Y034967D01*
X038649Y035010D01*
X038677Y035051D01*
X038708Y035090D01*
X038742Y035126D01*
X038779Y035160D01*
X038819Y035190D01*
X038860Y035217D01*
X038904Y035241D01*
X038949Y035261D01*
X038996Y035277D01*
X039044Y035290D01*
X039093Y035299D01*
X039143Y035304D01*
X039192Y035305D01*
X039242Y035302D01*
X039291Y035295D01*
X039340Y035284D01*
X039387Y035270D01*
X039433Y035251D01*
X039478Y035229D01*
X039521Y035204D01*
X039561Y035175D01*
X039599Y035143D01*
X039635Y035109D01*
X039668Y035071D01*
X039697Y035031D01*
X039723Y034989D01*
X039746Y034945D01*
X039765Y034899D01*
X039781Y034852D01*
X039793Y034803D01*
X039801Y034754D01*
X039805Y034705D01*
X039805Y034655D01*
X039801Y034606D01*
X039793Y034557D01*
X039781Y034508D01*
X039765Y034461D01*
X039746Y034415D01*
X039723Y034371D01*
X039697Y034329D01*
X039668Y034289D01*
X039635Y034251D01*
X039599Y034217D01*
X039561Y034185D01*
X039521Y034156D01*
X039478Y034131D01*
X039433Y034109D01*
X039387Y034090D01*
X039340Y034076D01*
X039291Y034065D01*
X039242Y034058D01*
X039192Y034055D01*
X039143Y034056D01*
X039093Y034061D01*
X039044Y034070D01*
X038996Y034083D01*
X038949Y034099D01*
X038904Y034119D01*
X038860Y034143D01*
X038819Y034170D01*
X038779Y034200D01*
X038742Y034234D01*
X038708Y034270D01*
X038677Y034309D01*
X038649Y034350D01*
X038625Y034393D01*
X038604Y034438D01*
X038586Y034485D01*
X038573Y034532D01*
X038563Y034581D01*
X038557Y034630D01*
X038555Y034680D01*
X001555Y034680D02*
X001557Y034730D01*
X001563Y034779D01*
X001573Y034828D01*
X001586Y034875D01*
X001604Y034922D01*
X001625Y034967D01*
X001649Y035010D01*
X001677Y035051D01*
X001708Y035090D01*
X001742Y035126D01*
X001779Y035160D01*
X001819Y035190D01*
X001860Y035217D01*
X001904Y035241D01*
X001949Y035261D01*
X001996Y035277D01*
X002044Y035290D01*
X002093Y035299D01*
X002143Y035304D01*
X002192Y035305D01*
X002242Y035302D01*
X002291Y035295D01*
X002340Y035284D01*
X002387Y035270D01*
X002433Y035251D01*
X002478Y035229D01*
X002521Y035204D01*
X002561Y035175D01*
X002599Y035143D01*
X002635Y035109D01*
X002668Y035071D01*
X002697Y035031D01*
X002723Y034989D01*
X002746Y034945D01*
X002765Y034899D01*
X002781Y034852D01*
X002793Y034803D01*
X002801Y034754D01*
X002805Y034705D01*
X002805Y034655D01*
X002801Y034606D01*
X002793Y034557D01*
X002781Y034508D01*
X002765Y034461D01*
X002746Y034415D01*
X002723Y034371D01*
X002697Y034329D01*
X002668Y034289D01*
X002635Y034251D01*
X002599Y034217D01*
X002561Y034185D01*
X002521Y034156D01*
X002478Y034131D01*
X002433Y034109D01*
X002387Y034090D01*
X002340Y034076D01*
X002291Y034065D01*
X002242Y034058D01*
X002192Y034055D01*
X002143Y034056D01*
X002093Y034061D01*
X002044Y034070D01*
X001996Y034083D01*
X001949Y034099D01*
X001904Y034119D01*
X001860Y034143D01*
X001819Y034170D01*
X001779Y034200D01*
X001742Y034234D01*
X001708Y034270D01*
X001677Y034309D01*
X001649Y034350D01*
X001625Y034393D01*
X001604Y034438D01*
X001586Y034485D01*
X001573Y034532D01*
X001563Y034581D01*
X001557Y034630D01*
X001555Y034680D01*
M02*
