%
M48
M72
T01C0.0240
T02C0.0320
T03C0.0360
T04C0.0400
T05C0.0669
T06C0.0866
T07C0.1250
%
T01
X4680Y7180
X4118Y8743
X3743Y9618
X3493Y10430
X5180Y11243
X6430Y11805
X7305Y11805
X7805Y11805
X8805Y11555
X9305Y10993
X8930Y9743
X10055Y9368
X11055Y9868
X12180Y10993
X12930Y11055
X13180Y10618
X13555Y11805
X14493Y11805
X15493Y11430
X16555Y11805
X17555Y11805
X18555Y11618
X18868Y11243
X19305Y10805
X17930Y10868
X17368Y10118
X17368Y8368
X18430Y7993
X15555Y7555
X15493Y8743
X12180Y11805
X12680Y13805
X13555Y14680
X14305Y13868
X14743Y14305
X15243Y13805
X16180Y13805
X16055Y14743
X16555Y14743
X18618Y13680
X18805Y12805
X19555Y14055
X21993Y14868
X23243Y15618
X24493Y17055
X24993Y17868
X23118Y18743
X22118Y18368
X20993Y19993
X19493Y19055
X19118Y17930
X20243Y17930
X18493Y20993
X16743Y21368
X16243Y21368
X16805Y19618
X14930Y19243
X13993Y18930
X12805Y17430
X11680Y16305
X10618Y17243
X9743Y17118
X9743Y18368
X10243Y18555
X10118Y19243
X11243Y18743
X11493Y19618
X12180Y20743
X10743Y20743
X10368Y21430
X9118Y21305
X8305Y20993
X7680Y21368
X6805Y20618
X6430Y20993
X5868Y21368
X5868Y19993
X5118Y18618
X4368Y18180
X2743Y17118
X5743Y16118
X6243Y17368
X7555Y17180
X10118Y15055
X10493Y14743
X9930Y13805
X8180Y14305
X7805Y14680
X6430Y14430
X5430Y14868
X3243Y20305
X1868Y21680
X1618Y22430
X3055Y23243
X3680Y22993
X3243Y23993
X5680Y24305
X8180Y22743
X9930Y23868
X11055Y24493
X12305Y22993
X12930Y22618
X15118Y23743
X15993Y26055
X14743Y26430
X14118Y27493
X13118Y28430
X11243Y28493
X11993Y32555
X16743Y29805
X18868Y28743
X19243Y29118
X20743Y29493
X21743Y29493
X22493Y29493
X24055Y29305
X24993Y28555
X25743Y28930
X26180Y30055
X26993Y30118
X26930Y29305
X28493Y28243
X27868Y27868
X28868Y27618
X29243Y27055
X29993Y28118
X31555Y28305
X31118Y26118
X29618Y24243
X28493Y24243
X27743Y21743
X31055Y23055
X32868Y21305
X35618Y19243
X36805Y20555
X35243Y24055
X27430Y18055
X27430Y16430
X30118Y15618
X29305Y12805
X28305Y12805
X27930Y12430
X23618Y11743
X21618Y10680
X25368Y8180
X24305Y6805
X30305Y8305
X34305Y9243
X22055Y23618
X20743Y24368
X22118Y25805
X20993Y26618
X18868Y26680
X18368Y26680
X18368Y25930
X19243Y23743
X23930Y26618
X24243Y26993
X24180Y25868
X25368Y26305
X24993Y24368
X24618Y31118
X23868Y31493
X23493Y31868
X22118Y31993
X21118Y31993
X21618Y32743
X22743Y33618
X24618Y34555
X25180Y35243
X26618Y33618
X27618Y34618
X27555Y32368
X26368Y31930
X25368Y32368
X30493Y31993
X31618Y31993
X19118Y31993
X18118Y31993
X6555Y26555
X5118Y26930
X6180Y28493
X16555Y17180
X7305Y7993
X9118Y6805
T02
X22430Y12180
X22430Y13180
X26180Y12680
X26180Y11680
X26180Y10680
X26180Y9680
X26180Y8680
X26180Y13680
X26180Y14680
X26180Y15680
X26180Y16680
X26180Y17680
X26180Y18680
X26180Y19680
X26180Y20680
X26180Y21680
X26180Y22680
X26180Y23680
X26180Y24680
X26180Y25680
X26180Y26680
X26180Y27680
X23680Y27680
X22680Y27680
X21680Y27680
X20680Y27680
X19680Y27680
X18680Y27680
X17680Y27680
X16680Y27680
X15680Y27680
X14680Y27680
X13180Y29680
X13180Y30680
X14680Y30680
X15680Y30680
X16680Y30680
X17680Y30680
X18680Y30680
X19680Y30680
X20680Y30680
X21680Y30680
X22680Y30680
X23680Y30680
X25680Y30680
X26680Y30680
X31180Y29180
X32180Y29180
X32180Y27680
X32180Y26680
X32180Y25680
X32180Y24680
X32180Y23680
X32180Y22680
X32180Y21680
X32180Y20680
X32180Y19680
X32180Y18680
X32180Y17680
X32180Y16680
X32180Y15680
X32180Y14680
X32180Y13680
X32180Y12680
X32180Y11680
X32180Y10680
X32180Y9680
X32180Y8680
X34680Y11180
X36680Y9180
X37680Y9180
X37680Y11180
X37680Y14180
X34680Y14180
X33680Y22680
X33680Y23680
X33680Y24680
X33680Y25680
X33680Y26680
X33680Y27680
X23680Y25180
X22680Y25180
X21680Y25180
X20680Y25180
X19680Y25180
X18680Y25180
X17680Y25180
X16680Y25180
X15680Y25180
X14680Y25180
X13680Y25180
X13680Y24180
X14680Y22180
X15680Y22180
X16680Y22180
X17680Y22180
X18680Y22180
X19680Y22180
X20680Y22180
X21680Y22180
X22680Y22180
X23680Y22180
X22680Y20180
X21180Y19180
X19680Y20180
X18180Y19180
X17180Y20180
X16180Y19180
X14180Y20180
X13180Y19180
X12180Y19180
X12680Y20180
X11680Y22180
X10680Y22180
X9680Y22180
X8680Y22180
X7680Y22180
X6680Y22180
X5680Y22180
X4680Y22180
X3680Y22180
X2680Y22180
X1680Y24180
X1680Y25180
X2680Y25180
X3680Y25180
X4680Y25180
X5680Y25180
X6680Y25180
X7680Y25180
X8680Y25180
X9680Y25180
X10680Y25180
X11680Y25180
X9680Y20180
X9180Y19180
X7180Y19680
X4180Y19680
T03
X2180Y19680
X2180Y20680
X24180Y33180
X25180Y33180
X25180Y34180
X24180Y34180
X37180Y30680
X37180Y29680
X37180Y27680
X37180Y26680
X37180Y24680
X37180Y23680
T04
X37180Y33180
X36180Y33180
X35180Y33180
X35180Y34180
X36180Y34180
X37180Y34180
X34180Y34180
X33180Y34180
X33180Y33180
X34180Y33180
X32180Y33180
X31180Y33180
X31180Y34180
X32180Y34180
X30180Y34180
X29180Y34180
X28180Y34180
X28180Y33180
X29180Y33180
X30180Y33180
X27180Y33180
X26180Y33180
X26180Y34180
X27180Y34180
X23180Y34180
X23180Y33180
X22180Y33180
X21180Y33180
X21180Y34180
X22180Y34180
X20180Y34180
X19180Y34180
X19180Y33180
X20180Y33180
X18180Y33180
X17180Y33180
X16180Y33180
X16180Y34180
X17180Y34180
X18180Y34180
X15180Y34180
X14180Y34180
X14180Y33180
X15180Y33180
X13180Y33180
X12180Y33180
X11180Y33180
X11180Y34180
X12180Y34180
X13180Y34180
X10180Y34180
X9180Y34180
X9180Y33180
X10180Y33180
X8180Y33180
X7180Y33180
X7180Y34180
X8180Y34180
X6180Y34180
X5180Y34180
X4180Y34180
X4180Y33180
X5180Y33180
X6180Y33180
X6180Y16680
X6180Y15680
X5180Y15680
X5180Y16680
X4180Y16680
X4180Y15680
X3180Y15680
X3180Y16680
X7180Y16680
X7180Y15680
X8180Y15680
X8180Y16680
X9180Y16680
X9180Y15680
X10180Y15680
X10180Y16680
X11180Y16680
X11180Y15680
X12180Y15680
X12180Y16680
X13180Y16680
X13180Y15680
X14180Y15680
X14180Y16680
X15180Y16680
X15180Y15680
X16180Y15680
X16180Y16680
X17180Y16680
X17180Y15680
X18180Y15680
X18180Y16680
X19180Y16680
X19180Y15680
X20180Y15680
X20180Y16680
X21180Y16680
X21180Y15680
X22180Y15680
X22180Y16680
X23180Y5180
X24180Y5180
X25180Y5180
X25180Y4180
X24180Y4180
X23180Y4180
X26180Y4180
X27180Y4180
X27180Y5180
X26180Y5180
X28180Y5180
X29180Y5180
X30180Y5180
X30180Y4180
X29180Y4180
X28180Y4180
X31180Y4180
X32180Y4180
X32180Y5180
X31180Y5180
X33180Y5180
X34180Y5180
X34180Y4180
X33180Y4180
X35180Y4180
X36180Y4180
X37180Y4180
X37180Y5180
X36180Y5180
X35180Y5180
X38180Y5180
X39180Y5180
X39180Y4180
X38180Y4180
T05
X20086Y10499
X4274Y10499
T06
X4274Y11680
X20086Y11680
T07
X2180Y1680
X39180Y1680
X39180Y34680
X2180Y34680
M30
