G75*
%MOIN*%
%OFA0B0*%
%FSLAX24Y24*%
%IPPOS*%
%LPD*%
%AMOC8*
5,1,8,0,0,1.08239X$1,22.5*
%
%ADD10C,0.0040*%
%ADD11C,0.0060*%
%ADD12C,0.0050*%
%ADD13C,0.0100*%
%ADD14C,0.0080*%
%ADD15R,0.0150X0.0200*%
%ADD16C,0.0120*%
%ADD17C,0.0070*%
D10*
X001350Y003700D02*
X001350Y004007D01*
X001426Y004007D01*
X001733Y003700D01*
X001810Y003700D01*
X001810Y004007D01*
X001733Y004160D02*
X001657Y004160D01*
X001580Y004237D01*
X001580Y004391D01*
X001657Y004467D01*
X001733Y004467D01*
X001810Y004391D01*
X001810Y004237D01*
X001733Y004160D01*
X001580Y004237D02*
X001503Y004160D01*
X001426Y004160D01*
X001350Y004237D01*
X001350Y004391D01*
X001426Y004467D01*
X001503Y004467D01*
X001580Y004391D01*
X001733Y004621D02*
X001426Y004621D01*
X001350Y004698D01*
X001350Y004851D01*
X001426Y004928D01*
X001733Y004621D01*
X001810Y004698D01*
X001810Y004851D01*
X001733Y004928D01*
X001426Y004928D01*
X001426Y005081D02*
X001350Y005158D01*
X001350Y005311D01*
X001426Y005388D01*
X001733Y005081D01*
X001810Y005158D01*
X001810Y005311D01*
X001733Y005388D01*
X001426Y005388D01*
X001426Y005542D02*
X001350Y005618D01*
X001350Y005772D01*
X001426Y005848D01*
X001733Y005542D01*
X001810Y005618D01*
X001810Y005772D01*
X001733Y005848D01*
X001426Y005848D01*
X001580Y006002D02*
X001580Y006309D01*
X001580Y006462D02*
X001503Y006539D01*
X001503Y006769D01*
X001350Y006769D02*
X001810Y006769D01*
X001810Y006539D01*
X001733Y006462D01*
X001580Y006462D01*
X001503Y006923D02*
X001503Y006999D01*
X001810Y006999D01*
X001810Y006923D02*
X001810Y007076D01*
X001810Y007230D02*
X001810Y007460D01*
X001733Y007537D01*
X001657Y007460D01*
X001657Y007306D01*
X001580Y007230D01*
X001503Y007306D01*
X001503Y007537D01*
X001350Y007690D02*
X001810Y007690D01*
X001657Y007690D02*
X001503Y007920D01*
X001657Y007690D02*
X001810Y007920D01*
X001733Y008534D02*
X001426Y008534D01*
X001350Y008611D01*
X001350Y008764D01*
X001426Y008841D01*
X001733Y008534D01*
X001810Y008611D01*
X001810Y008764D01*
X001733Y008841D01*
X001426Y008841D01*
X001733Y008995D02*
X001733Y009071D01*
X001810Y009071D01*
X001810Y008995D01*
X001733Y008995D01*
X001810Y009225D02*
X001810Y009532D01*
X001810Y009378D02*
X001350Y009378D01*
X001503Y009225D01*
X001503Y010145D02*
X001733Y010145D01*
X001810Y010222D01*
X001733Y010299D01*
X001810Y010376D01*
X001733Y010452D01*
X001503Y010452D01*
X001503Y010606D02*
X001733Y010606D01*
X001810Y010683D01*
X001733Y010759D01*
X001810Y010836D01*
X001733Y010913D01*
X001503Y010913D01*
X001503Y011066D02*
X001733Y011066D01*
X001810Y011143D01*
X001733Y011220D01*
X001810Y011296D01*
X001733Y011373D01*
X001503Y011373D01*
X001733Y011527D02*
X001733Y011603D01*
X001810Y011603D01*
X001810Y011527D01*
X001733Y011527D01*
X001810Y011757D02*
X001810Y011987D01*
X001733Y012064D01*
X001657Y011987D01*
X001657Y011834D01*
X001580Y011757D01*
X001503Y011834D01*
X001503Y012064D01*
X001503Y012217D02*
X001503Y012294D01*
X001580Y012371D01*
X001503Y012447D01*
X001580Y012524D01*
X001810Y012524D01*
X001810Y012371D02*
X001580Y012371D01*
X001503Y012217D02*
X001810Y012217D01*
X001810Y012678D02*
X001350Y012678D01*
X001503Y012678D02*
X001503Y012908D01*
X001580Y012985D01*
X001733Y012985D01*
X001810Y012908D01*
X001810Y012678D01*
X001733Y013138D02*
X001657Y013215D01*
X001657Y013445D01*
X001580Y013445D02*
X001810Y013445D01*
X001810Y013215D01*
X001733Y013138D01*
X001503Y013215D02*
X001503Y013368D01*
X001580Y013445D01*
X001657Y013598D02*
X001503Y013829D01*
X001580Y013982D02*
X001503Y014059D01*
X001503Y014212D01*
X001580Y014289D01*
X001657Y014289D01*
X001657Y013982D01*
X001733Y013982D02*
X001580Y013982D01*
X001733Y013982D02*
X001810Y014059D01*
X001810Y014212D01*
X001810Y014442D02*
X001503Y014442D01*
X001657Y014442D02*
X001503Y014596D01*
X001503Y014673D01*
X001733Y014826D02*
X001733Y014903D01*
X001810Y014903D01*
X001810Y014826D01*
X001733Y014826D01*
X001733Y015056D02*
X001580Y015056D01*
X001503Y015133D01*
X001503Y015363D01*
X001580Y015517D02*
X001733Y015517D01*
X001810Y015593D01*
X001810Y015747D01*
X001733Y015824D01*
X001580Y015824D01*
X001503Y015747D01*
X001503Y015593D01*
X001580Y015517D01*
X001810Y015363D02*
X001810Y015133D01*
X001733Y015056D01*
X001810Y015977D02*
X001503Y015977D01*
X001503Y016054D01*
X001580Y016131D01*
X001503Y016207D01*
X001580Y016284D01*
X001810Y016284D01*
X001810Y016131D02*
X001580Y016131D01*
X003527Y014198D02*
X003450Y014121D01*
X003450Y013814D01*
X003527Y013737D01*
X003680Y013737D01*
X003757Y013814D01*
X003910Y013814D02*
X003987Y013737D01*
X004141Y013737D01*
X004217Y013814D01*
X004217Y014121D01*
X004141Y014198D01*
X003987Y014198D01*
X003910Y014121D01*
X003910Y013814D01*
X003757Y014121D02*
X003680Y014198D01*
X003527Y014198D01*
X004371Y014198D02*
X004371Y013737D01*
X004678Y013737D02*
X004678Y014198D01*
X004831Y014121D02*
X004908Y014198D01*
X005061Y014198D01*
X005138Y014121D01*
X005138Y014044D01*
X004831Y013737D01*
X005138Y013737D01*
X004678Y013737D02*
X004371Y014198D01*
X001810Y013829D02*
X001657Y013598D01*
X001810Y013598D02*
X001350Y013598D01*
X001273Y006999D02*
X001350Y006999D01*
X001426Y005542D02*
X001733Y005542D01*
X001733Y005081D02*
X001426Y005081D01*
X010982Y018300D02*
X010982Y018650D01*
X011157Y018650D01*
X011215Y018592D01*
X011215Y018475D01*
X011157Y018417D01*
X010982Y018417D01*
X011099Y018417D02*
X011215Y018300D01*
X011341Y018358D02*
X011399Y018300D01*
X011516Y018300D01*
X011574Y018358D01*
X011574Y018417D01*
X011516Y018475D01*
X011458Y018475D01*
X011516Y018475D02*
X011574Y018534D01*
X011574Y018592D01*
X011516Y018650D01*
X011399Y018650D01*
X011341Y018592D01*
X010559Y020710D02*
X010559Y020768D01*
X010793Y021002D01*
X010793Y021060D01*
X010559Y021060D01*
X010434Y021002D02*
X010434Y020885D01*
X010375Y020827D01*
X010200Y020827D01*
X010317Y020827D02*
X010434Y020710D01*
X010200Y020710D02*
X010200Y021060D01*
X010375Y021060D01*
X010434Y021002D01*
X013550Y022500D02*
X013550Y022653D01*
X013550Y022577D02*
X014010Y022577D01*
X014010Y022653D02*
X014010Y022500D01*
X013933Y022807D02*
X013626Y022807D01*
X013550Y022884D01*
X013550Y023037D01*
X013626Y023114D01*
X013703Y023267D02*
X013550Y023421D01*
X014010Y023421D01*
X014010Y023574D02*
X014010Y023267D01*
X013933Y023114D02*
X014010Y023037D01*
X014010Y022884D01*
X013933Y022807D01*
X014700Y021060D02*
X014875Y021060D01*
X014934Y021002D01*
X014934Y020885D01*
X014875Y020827D01*
X014700Y020827D01*
X014817Y020827D02*
X014934Y020710D01*
X015059Y020885D02*
X015293Y020885D01*
X015234Y020710D02*
X015234Y021060D01*
X015059Y020885D01*
X014700Y020710D02*
X014700Y021060D01*
X014982Y018650D02*
X015157Y018650D01*
X015215Y018592D01*
X015215Y018475D01*
X015157Y018417D01*
X014982Y018417D01*
X015099Y018417D02*
X015215Y018300D01*
X015341Y018358D02*
X015399Y018300D01*
X015516Y018300D01*
X015574Y018358D01*
X015574Y018417D01*
X015516Y018475D01*
X015341Y018475D01*
X015341Y018358D01*
X015341Y018475D02*
X015458Y018592D01*
X015574Y018650D01*
X014982Y018650D02*
X014982Y018300D01*
X019982Y018300D02*
X019982Y018650D01*
X020157Y018650D01*
X020215Y018592D01*
X020215Y018475D01*
X020157Y018417D01*
X019982Y018417D01*
X020099Y018417D02*
X020215Y018300D01*
X020341Y018300D02*
X020574Y018300D01*
X020458Y018300D02*
X020458Y018650D01*
X020341Y018534D01*
X020434Y020710D02*
X020317Y020827D01*
X020375Y020827D02*
X020200Y020827D01*
X020200Y020710D02*
X020200Y021060D01*
X020375Y021060D01*
X020434Y021002D01*
X020434Y020885D01*
X020375Y020827D01*
X020559Y020710D02*
X020793Y020944D01*
X020793Y021002D01*
X020734Y021060D01*
X020617Y021060D01*
X020559Y021002D01*
X020559Y020710D02*
X020793Y020710D01*
X005293Y020560D02*
X005059Y020560D01*
X005059Y020385D01*
X005176Y020444D01*
X005234Y020444D01*
X005293Y020385D01*
X005293Y020268D01*
X005234Y020210D01*
X005117Y020210D01*
X005059Y020268D01*
X004934Y020210D02*
X004817Y020327D01*
X004875Y020327D02*
X004700Y020327D01*
X004700Y020210D02*
X004700Y020560D01*
X004875Y020560D01*
X004934Y020502D01*
X004934Y020385D01*
X004875Y020327D01*
X002010Y022500D02*
X002010Y022653D01*
X002010Y022577D02*
X001550Y022577D01*
X001550Y022653D02*
X001550Y022500D01*
X001626Y022807D02*
X001933Y022807D01*
X002010Y022884D01*
X002010Y023037D01*
X001933Y023114D01*
X002010Y023267D02*
X001703Y023574D01*
X001626Y023574D01*
X001550Y023498D01*
X001550Y023344D01*
X001626Y023267D01*
X001626Y023114D02*
X001550Y023037D01*
X001550Y022884D01*
X001626Y022807D01*
X002010Y023267D02*
X002010Y023574D01*
D11*
X002080Y023730D02*
X001280Y023730D01*
X001263Y023732D01*
X001246Y023736D01*
X001230Y023743D01*
X001216Y023753D01*
X001203Y023766D01*
X001193Y023780D01*
X001186Y023796D01*
X001182Y023813D01*
X001180Y023830D01*
X001180Y025530D01*
X001182Y025547D01*
X001186Y025564D01*
X001193Y025580D01*
X001203Y025594D01*
X001216Y025607D01*
X001230Y025617D01*
X001246Y025624D01*
X001263Y025628D01*
X001280Y025630D01*
X002080Y025630D01*
X002097Y025628D01*
X002114Y025624D01*
X002130Y025617D01*
X002144Y025607D01*
X002157Y025594D01*
X002167Y025580D01*
X002174Y025564D01*
X002178Y025547D01*
X002180Y025530D01*
X002180Y023830D01*
X002178Y023813D01*
X002174Y023796D01*
X002167Y023780D01*
X002157Y023766D01*
X002144Y023753D01*
X002130Y023743D01*
X002114Y023736D01*
X002097Y023732D01*
X002080Y023730D01*
X002180Y024080D02*
X002219Y024078D01*
X002258Y024072D01*
X002296Y024063D01*
X002333Y024050D01*
X002369Y024033D01*
X002402Y024013D01*
X002434Y023989D01*
X002463Y023963D01*
X002489Y023934D01*
X002513Y023902D01*
X002533Y023869D01*
X002550Y023833D01*
X002563Y023796D01*
X002572Y023758D01*
X002578Y023719D01*
X002580Y023680D01*
X002578Y023641D01*
X002572Y023602D01*
X002563Y023564D01*
X002550Y023527D01*
X002533Y023491D01*
X002513Y023458D01*
X002489Y023426D01*
X002463Y023397D01*
X002434Y023371D01*
X002402Y023347D01*
X002369Y023327D01*
X002333Y023310D01*
X002296Y023297D01*
X002258Y023288D01*
X002219Y023282D01*
X002180Y023280D01*
X002180Y022530D01*
X012180Y022530D01*
X012180Y024830D01*
X002180Y024830D01*
X002180Y024080D01*
X001680Y024530D02*
X001680Y024580D01*
X001680Y024780D02*
X001680Y024830D01*
X001780Y021180D02*
X001680Y021080D01*
X001680Y020280D01*
X001780Y020180D01*
X001680Y020080D01*
X001680Y019280D01*
X001780Y019180D01*
X002580Y019180D01*
X002680Y019280D01*
X002680Y020080D01*
X002580Y020180D01*
X002680Y020280D01*
X002680Y021080D01*
X002580Y021180D01*
X001780Y021180D01*
X004680Y019980D02*
X004680Y019380D01*
X004682Y019363D01*
X004686Y019346D01*
X004693Y019330D01*
X004703Y019316D01*
X004716Y019303D01*
X004730Y019293D01*
X004746Y019286D01*
X004763Y019282D01*
X004780Y019280D01*
X004930Y019280D01*
X004980Y019330D01*
X006380Y019330D01*
X006430Y019280D01*
X006580Y019280D01*
X006597Y019282D01*
X006614Y019286D01*
X006630Y019293D01*
X006644Y019303D01*
X006657Y019316D01*
X006667Y019330D01*
X006674Y019346D01*
X006678Y019363D01*
X006680Y019380D01*
X006680Y019980D01*
X006678Y019997D01*
X006674Y020014D01*
X006667Y020030D01*
X006657Y020044D01*
X006644Y020057D01*
X006630Y020067D01*
X006614Y020074D01*
X006597Y020078D01*
X006580Y020080D01*
X006430Y020080D01*
X006380Y020030D01*
X004980Y020030D01*
X004930Y020080D01*
X004780Y020080D01*
X004763Y020078D01*
X004746Y020074D01*
X004730Y020067D01*
X004716Y020057D01*
X004703Y020044D01*
X004693Y020030D01*
X004686Y020014D01*
X004682Y019997D01*
X004680Y019980D01*
X004430Y017180D02*
X003930Y017180D01*
X003680Y016930D01*
X003430Y017180D01*
X002930Y017180D01*
X002680Y016930D01*
X002680Y015430D01*
X002930Y015180D01*
X003430Y015180D01*
X003680Y015430D01*
X003930Y015180D01*
X004430Y015180D01*
X004680Y015430D01*
X004930Y015180D01*
X005430Y015180D01*
X005680Y015430D01*
X005930Y015180D01*
X006430Y015180D01*
X006680Y015430D01*
X006930Y015180D01*
X007430Y015180D01*
X007680Y015430D01*
X007930Y015180D01*
X008430Y015180D01*
X008680Y015430D01*
X008930Y015180D01*
X009430Y015180D01*
X009680Y015430D01*
X009930Y015180D01*
X010430Y015180D01*
X010680Y015430D01*
X010930Y015180D01*
X011430Y015180D01*
X011680Y015430D01*
X011930Y015180D01*
X012430Y015180D01*
X012680Y015430D01*
X012930Y015180D01*
X013430Y015180D01*
X013680Y015430D01*
X013930Y015180D01*
X014430Y015180D01*
X014680Y015430D01*
X014930Y015180D01*
X015430Y015180D01*
X015680Y015430D01*
X015930Y015180D01*
X016430Y015180D01*
X016680Y015430D01*
X016930Y015180D01*
X017430Y015180D01*
X017680Y015430D01*
X017930Y015180D01*
X018430Y015180D01*
X018680Y015430D01*
X018930Y015180D01*
X019430Y015180D01*
X019680Y015430D01*
X019930Y015180D01*
X020430Y015180D01*
X020680Y015430D01*
X020930Y015180D01*
X021430Y015180D01*
X021680Y015430D01*
X021930Y015180D01*
X022430Y015180D01*
X022680Y015430D01*
X022680Y016930D01*
X022430Y017180D01*
X021930Y017180D01*
X021680Y016930D01*
X021430Y017180D01*
X020930Y017180D01*
X020680Y016930D01*
X020430Y017180D01*
X019930Y017180D01*
X019680Y016930D01*
X019430Y017180D01*
X018930Y017180D01*
X018680Y016930D01*
X018430Y017180D01*
X017930Y017180D01*
X017680Y016930D01*
X017430Y017180D01*
X016930Y017180D01*
X016680Y016930D01*
X016430Y017180D01*
X015930Y017180D01*
X015680Y016930D01*
X015430Y017180D01*
X014930Y017180D01*
X014680Y016930D01*
X014430Y017180D01*
X013930Y017180D01*
X013680Y016930D01*
X013430Y017180D01*
X012930Y017180D01*
X012680Y016930D01*
X012430Y017180D01*
X011930Y017180D01*
X011680Y016930D01*
X011430Y017180D01*
X010930Y017180D01*
X010680Y016930D01*
X010430Y017180D01*
X009930Y017180D01*
X009680Y016930D01*
X009430Y017180D01*
X008930Y017180D01*
X008680Y016930D01*
X008430Y017180D01*
X007930Y017180D01*
X007680Y016930D01*
X007430Y017180D01*
X006930Y017180D01*
X006680Y016930D01*
X006430Y017180D01*
X005930Y017180D01*
X005680Y016930D01*
X005430Y017180D01*
X004930Y017180D01*
X004680Y016930D01*
X004430Y017180D01*
X009680Y018880D02*
X009680Y019480D01*
X009682Y019497D01*
X009686Y019514D01*
X009693Y019530D01*
X009703Y019544D01*
X009716Y019557D01*
X009730Y019567D01*
X009746Y019574D01*
X009763Y019578D01*
X009780Y019580D01*
X009930Y019580D01*
X009980Y019530D01*
X011380Y019530D01*
X011430Y019580D01*
X011580Y019580D01*
X011597Y019578D01*
X011614Y019574D01*
X011630Y019567D01*
X011644Y019557D01*
X011657Y019544D01*
X011667Y019530D01*
X011674Y019514D01*
X011678Y019497D01*
X011680Y019480D01*
X011680Y018880D01*
X011678Y018863D01*
X011674Y018846D01*
X011667Y018830D01*
X011657Y018816D01*
X011644Y018803D01*
X011630Y018793D01*
X011614Y018786D01*
X011597Y018782D01*
X011580Y018780D01*
X011430Y018780D01*
X011380Y018830D01*
X009980Y018830D01*
X009930Y018780D01*
X009780Y018780D01*
X009763Y018782D01*
X009746Y018786D01*
X009730Y018793D01*
X009716Y018803D01*
X009703Y018816D01*
X009693Y018830D01*
X009686Y018846D01*
X009682Y018863D01*
X009680Y018880D01*
X010280Y019780D02*
X010430Y019780D01*
X010480Y019830D01*
X011880Y019830D01*
X011930Y019780D01*
X012080Y019780D01*
X012097Y019782D01*
X012114Y019786D01*
X012130Y019793D01*
X012144Y019803D01*
X012157Y019816D01*
X012167Y019830D01*
X012174Y019846D01*
X012178Y019863D01*
X012180Y019880D01*
X012180Y020480D01*
X012178Y020497D01*
X012174Y020514D01*
X012167Y020530D01*
X012157Y020544D01*
X012144Y020557D01*
X012130Y020567D01*
X012114Y020574D01*
X012097Y020578D01*
X012080Y020580D01*
X011930Y020580D01*
X011880Y020530D01*
X010480Y020530D01*
X010430Y020580D01*
X010280Y020580D01*
X010263Y020578D01*
X010246Y020574D01*
X010230Y020567D01*
X010216Y020557D01*
X010203Y020544D01*
X010193Y020530D01*
X010186Y020514D01*
X010182Y020497D01*
X010180Y020480D01*
X010180Y019880D01*
X010182Y019863D01*
X010186Y019846D01*
X010193Y019830D01*
X010203Y019816D01*
X010216Y019803D01*
X010230Y019793D01*
X010246Y019786D01*
X010263Y019782D01*
X010280Y019780D01*
X013680Y019480D02*
X013680Y018880D01*
X013682Y018863D01*
X013686Y018846D01*
X013693Y018830D01*
X013703Y018816D01*
X013716Y018803D01*
X013730Y018793D01*
X013746Y018786D01*
X013763Y018782D01*
X013780Y018780D01*
X013930Y018780D01*
X013980Y018830D01*
X015380Y018830D01*
X015430Y018780D01*
X015580Y018780D01*
X015597Y018782D01*
X015614Y018786D01*
X015630Y018793D01*
X015644Y018803D01*
X015657Y018816D01*
X015667Y018830D01*
X015674Y018846D01*
X015678Y018863D01*
X015680Y018880D01*
X015680Y019480D01*
X015678Y019497D01*
X015674Y019514D01*
X015667Y019530D01*
X015657Y019544D01*
X015644Y019557D01*
X015630Y019567D01*
X015614Y019574D01*
X015597Y019578D01*
X015580Y019580D01*
X015430Y019580D01*
X015380Y019530D01*
X013980Y019530D01*
X013930Y019580D01*
X013780Y019580D01*
X013763Y019578D01*
X013746Y019574D01*
X013730Y019567D01*
X013716Y019557D01*
X013703Y019544D01*
X013693Y019530D01*
X013686Y019514D01*
X013682Y019497D01*
X013680Y019480D01*
X014680Y019880D02*
X014680Y020480D01*
X014682Y020497D01*
X014686Y020514D01*
X014693Y020530D01*
X014703Y020544D01*
X014716Y020557D01*
X014730Y020567D01*
X014746Y020574D01*
X014763Y020578D01*
X014780Y020580D01*
X014930Y020580D01*
X014980Y020530D01*
X016380Y020530D01*
X016430Y020580D01*
X016580Y020580D01*
X016597Y020578D01*
X016614Y020574D01*
X016630Y020567D01*
X016644Y020557D01*
X016657Y020544D01*
X016667Y020530D01*
X016674Y020514D01*
X016678Y020497D01*
X016680Y020480D01*
X016680Y019880D01*
X016678Y019863D01*
X016674Y019846D01*
X016667Y019830D01*
X016657Y019816D01*
X016644Y019803D01*
X016630Y019793D01*
X016614Y019786D01*
X016597Y019782D01*
X016580Y019780D01*
X016430Y019780D01*
X016380Y019830D01*
X014980Y019830D01*
X014930Y019780D01*
X014780Y019780D01*
X014763Y019782D01*
X014746Y019786D01*
X014730Y019793D01*
X014716Y019803D01*
X014703Y019816D01*
X014693Y019830D01*
X014686Y019846D01*
X014682Y019863D01*
X014680Y019880D01*
X014180Y022530D02*
X014180Y023280D01*
X014219Y023282D01*
X014258Y023288D01*
X014296Y023297D01*
X014333Y023310D01*
X014369Y023327D01*
X014402Y023347D01*
X014434Y023371D01*
X014463Y023397D01*
X014489Y023426D01*
X014513Y023458D01*
X014533Y023491D01*
X014550Y023527D01*
X014563Y023564D01*
X014572Y023602D01*
X014578Y023641D01*
X014580Y023680D01*
X014578Y023719D01*
X014572Y023758D01*
X014563Y023796D01*
X014550Y023833D01*
X014533Y023869D01*
X014513Y023902D01*
X014489Y023934D01*
X014463Y023963D01*
X014434Y023989D01*
X014402Y024013D01*
X014369Y024033D01*
X014333Y024050D01*
X014296Y024063D01*
X014258Y024072D01*
X014219Y024078D01*
X014180Y024080D01*
X014180Y024830D01*
X024180Y024830D01*
X024180Y022530D01*
X014180Y022530D01*
X014080Y023730D02*
X013280Y023730D01*
X013263Y023732D01*
X013246Y023736D01*
X013230Y023743D01*
X013216Y023753D01*
X013203Y023766D01*
X013193Y023780D01*
X013186Y023796D01*
X013182Y023813D01*
X013180Y023830D01*
X013180Y025530D01*
X013182Y025547D01*
X013186Y025564D01*
X013193Y025580D01*
X013203Y025594D01*
X013216Y025607D01*
X013230Y025617D01*
X013246Y025624D01*
X013263Y025628D01*
X013280Y025630D01*
X014080Y025630D01*
X014097Y025628D01*
X014114Y025624D01*
X014130Y025617D01*
X014144Y025607D01*
X014157Y025594D01*
X014167Y025580D01*
X014174Y025564D01*
X014178Y025547D01*
X014180Y025530D01*
X014180Y023830D01*
X014178Y023813D01*
X014174Y023796D01*
X014167Y023780D01*
X014157Y023766D01*
X014144Y023753D01*
X014130Y023743D01*
X014114Y023736D01*
X014097Y023732D01*
X014080Y023730D01*
X013680Y024530D02*
X013680Y024580D01*
X013680Y024780D02*
X013680Y024830D01*
X013980Y028080D02*
X024380Y028080D01*
X024380Y030280D01*
X013980Y030280D01*
X013980Y029430D01*
X014010Y029428D01*
X014040Y029423D01*
X014069Y029414D01*
X014096Y029401D01*
X014122Y029386D01*
X014146Y029367D01*
X014167Y029346D01*
X014186Y029322D01*
X014201Y029296D01*
X014214Y029269D01*
X014223Y029240D01*
X014228Y029210D01*
X014230Y029180D01*
X014228Y029150D01*
X014223Y029120D01*
X014214Y029091D01*
X014201Y029064D01*
X014186Y029038D01*
X014167Y029014D01*
X014146Y028993D01*
X014122Y028974D01*
X014096Y028959D01*
X014069Y028946D01*
X014040Y028937D01*
X014010Y028932D01*
X013980Y028930D01*
X013980Y028080D01*
X013580Y029230D02*
X012780Y029230D01*
X012763Y029232D01*
X012746Y029236D01*
X012730Y029243D01*
X012716Y029253D01*
X012703Y029266D01*
X012693Y029280D01*
X012686Y029296D01*
X012682Y029313D01*
X012680Y029330D01*
X012680Y031030D01*
X012682Y031047D01*
X012686Y031064D01*
X012693Y031080D01*
X012703Y031094D01*
X012716Y031107D01*
X012730Y031117D01*
X012746Y031124D01*
X012763Y031128D01*
X012780Y031130D01*
X013580Y031130D01*
X013597Y031128D01*
X013614Y031124D01*
X013630Y031117D01*
X013644Y031107D01*
X013657Y031094D01*
X013667Y031080D01*
X013674Y031064D01*
X013678Y031047D01*
X013680Y031030D01*
X013680Y029330D01*
X013678Y029313D01*
X013674Y029296D01*
X013667Y029280D01*
X013657Y029266D01*
X013644Y029253D01*
X013630Y029243D01*
X013614Y029236D01*
X013597Y029232D01*
X013580Y029230D01*
X013180Y030030D02*
X013180Y030080D01*
X013180Y030280D02*
X013180Y030330D01*
X012930Y032680D02*
X012680Y032930D01*
X012430Y032680D01*
X011930Y032680D01*
X011680Y032930D01*
X011430Y032680D01*
X010930Y032680D01*
X010680Y032930D01*
X010430Y032680D01*
X009930Y032680D01*
X009680Y032930D01*
X009430Y032680D01*
X008930Y032680D01*
X008680Y032930D01*
X008430Y032680D01*
X007930Y032680D01*
X007680Y032930D01*
X007430Y032680D01*
X006930Y032680D01*
X006680Y032930D01*
X006430Y032680D01*
X005930Y032680D01*
X005680Y032930D01*
X005430Y032680D01*
X004930Y032680D01*
X004680Y032930D01*
X004430Y032680D01*
X003930Y032680D01*
X003680Y032930D01*
X003680Y034430D01*
X003930Y034680D01*
X004430Y034680D01*
X004680Y034430D01*
X004930Y034680D01*
X005430Y034680D01*
X005680Y034430D01*
X005930Y034680D01*
X006430Y034680D01*
X006680Y034430D01*
X006930Y034680D01*
X007430Y034680D01*
X007680Y034430D01*
X007930Y034680D01*
X008430Y034680D01*
X008680Y034430D01*
X008930Y034680D01*
X009430Y034680D01*
X009680Y034430D01*
X009930Y034680D01*
X010430Y034680D01*
X010680Y034430D01*
X010930Y034680D01*
X011430Y034680D01*
X011680Y034430D01*
X011930Y034680D01*
X012430Y034680D01*
X012680Y034430D01*
X012930Y034680D01*
X013430Y034680D01*
X013680Y034430D01*
X013930Y034680D01*
X014430Y034680D01*
X014680Y034430D01*
X014930Y034680D01*
X015430Y034680D01*
X015680Y034430D01*
X015930Y034680D01*
X016430Y034680D01*
X016680Y034430D01*
X016930Y034680D01*
X017430Y034680D01*
X017680Y034430D01*
X017930Y034680D01*
X018430Y034680D01*
X018680Y034430D01*
X018930Y034680D01*
X019430Y034680D01*
X019680Y034430D01*
X019930Y034680D01*
X020430Y034680D01*
X020680Y034430D01*
X020930Y034680D01*
X021430Y034680D01*
X021680Y034430D01*
X021930Y034680D01*
X022430Y034680D01*
X022680Y034430D01*
X022930Y034680D01*
X023430Y034680D01*
X023680Y034430D01*
X023680Y032930D01*
X023430Y032680D01*
X022930Y032680D01*
X022680Y032930D01*
X022430Y032680D01*
X021930Y032680D01*
X021680Y032930D01*
X021430Y032680D01*
X020930Y032680D01*
X020680Y032930D01*
X020430Y032680D01*
X019930Y032680D01*
X019680Y032930D01*
X019430Y032680D01*
X018930Y032680D01*
X018680Y032930D01*
X018430Y032680D01*
X017930Y032680D01*
X017680Y032930D01*
X017430Y032680D01*
X016930Y032680D01*
X016680Y032930D01*
X016430Y032680D01*
X015930Y032680D01*
X015680Y032930D01*
X015430Y032680D01*
X014930Y032680D01*
X014680Y032930D01*
X014430Y032680D01*
X013930Y032680D01*
X013680Y032930D01*
X013430Y032680D01*
X012930Y032680D01*
X023680Y032830D02*
X023830Y032680D01*
X024530Y032680D01*
X024680Y032830D01*
X024830Y032680D01*
X025530Y032680D01*
X025680Y032830D01*
X025680Y034530D01*
X025530Y034680D01*
X024830Y034680D01*
X024680Y034530D01*
X024530Y034680D01*
X023830Y034680D01*
X023680Y034530D01*
X023680Y032830D01*
X025630Y031280D02*
X025630Y031180D01*
X025730Y031180D01*
X025630Y031180D02*
X025630Y031080D01*
X025630Y031180D02*
X025530Y031180D01*
X025180Y030680D02*
X025182Y030743D01*
X025188Y030805D01*
X025198Y030867D01*
X025211Y030929D01*
X025229Y030989D01*
X025250Y031048D01*
X025275Y031106D01*
X025304Y031162D01*
X025336Y031216D01*
X025371Y031268D01*
X025409Y031317D01*
X025451Y031365D01*
X025495Y031409D01*
X025543Y031451D01*
X025592Y031489D01*
X025644Y031524D01*
X025698Y031556D01*
X025754Y031585D01*
X025812Y031610D01*
X025871Y031631D01*
X025931Y031649D01*
X025993Y031662D01*
X026055Y031672D01*
X026117Y031678D01*
X026180Y031680D01*
X026243Y031678D01*
X026305Y031672D01*
X026367Y031662D01*
X026429Y031649D01*
X026489Y031631D01*
X026548Y031610D01*
X026606Y031585D01*
X026662Y031556D01*
X026716Y031524D01*
X026768Y031489D01*
X026817Y031451D01*
X026865Y031409D01*
X026909Y031365D01*
X026951Y031317D01*
X026989Y031268D01*
X027024Y031216D01*
X027056Y031162D01*
X027085Y031106D01*
X027110Y031048D01*
X027131Y030989D01*
X027149Y030929D01*
X027162Y030867D01*
X027172Y030805D01*
X027178Y030743D01*
X027180Y030680D01*
X027178Y030617D01*
X027172Y030555D01*
X027162Y030493D01*
X027149Y030431D01*
X027131Y030371D01*
X027110Y030312D01*
X027085Y030254D01*
X027056Y030198D01*
X027024Y030144D01*
X026989Y030092D01*
X026951Y030043D01*
X026909Y029995D01*
X026865Y029951D01*
X026817Y029909D01*
X026768Y029871D01*
X026716Y029836D01*
X026662Y029804D01*
X026606Y029775D01*
X026548Y029750D01*
X026489Y029729D01*
X026429Y029711D01*
X026367Y029698D01*
X026305Y029688D01*
X026243Y029682D01*
X026180Y029680D01*
X026117Y029682D01*
X026055Y029688D01*
X025993Y029698D01*
X025931Y029711D01*
X025871Y029729D01*
X025812Y029750D01*
X025754Y029775D01*
X025698Y029804D01*
X025644Y029836D01*
X025592Y029871D01*
X025543Y029909D01*
X025495Y029951D01*
X025451Y029995D01*
X025409Y030043D01*
X025371Y030092D01*
X025336Y030144D01*
X025304Y030198D01*
X025275Y030254D01*
X025250Y030312D01*
X025229Y030371D01*
X025211Y030431D01*
X025198Y030493D01*
X025188Y030555D01*
X025182Y030617D01*
X025180Y030680D01*
X025930Y032680D02*
X026430Y032680D01*
X026680Y032930D01*
X026930Y032680D01*
X027430Y032680D01*
X027680Y032930D01*
X027930Y032680D01*
X028430Y032680D01*
X028680Y032930D01*
X028930Y032680D01*
X029430Y032680D01*
X029680Y032930D01*
X029930Y032680D01*
X030430Y032680D01*
X030680Y032930D01*
X030930Y032680D01*
X031430Y032680D01*
X031680Y032930D01*
X031930Y032680D01*
X032430Y032680D01*
X032680Y032930D01*
X032930Y032680D01*
X033430Y032680D01*
X033680Y032930D01*
X033930Y032680D01*
X034430Y032680D01*
X034680Y032930D01*
X034930Y032680D01*
X035430Y032680D01*
X035680Y032930D01*
X035930Y032680D01*
X036430Y032680D01*
X036680Y032930D01*
X036930Y032680D01*
X037430Y032680D01*
X037680Y032930D01*
X037680Y034430D01*
X037430Y034680D01*
X036930Y034680D01*
X036680Y034430D01*
X036430Y034680D01*
X035930Y034680D01*
X035680Y034430D01*
X035430Y034680D01*
X034930Y034680D01*
X034680Y034430D01*
X034430Y034680D01*
X033930Y034680D01*
X033680Y034430D01*
X033430Y034680D01*
X032930Y034680D01*
X032680Y034430D01*
X032430Y034680D01*
X031930Y034680D01*
X031680Y034430D01*
X031430Y034680D01*
X030930Y034680D01*
X030680Y034430D01*
X030430Y034680D01*
X029930Y034680D01*
X029680Y034430D01*
X029430Y034680D01*
X028930Y034680D01*
X028680Y034430D01*
X028430Y034680D01*
X027930Y034680D01*
X027680Y034430D01*
X027430Y034680D01*
X026930Y034680D01*
X026680Y034430D01*
X026430Y034680D01*
X025930Y034680D01*
X025680Y034430D01*
X025680Y032930D01*
X025930Y032680D01*
X027468Y029157D02*
X027468Y028303D01*
X027361Y028410D02*
X027255Y028517D01*
X027361Y028410D02*
X027575Y028410D01*
X027682Y028517D01*
X027682Y028624D01*
X027575Y028730D01*
X027361Y028730D01*
X027255Y028837D01*
X027255Y028944D01*
X027361Y029051D01*
X027575Y029051D01*
X027682Y028944D01*
X027899Y028944D02*
X028006Y029051D01*
X028219Y029051D01*
X028326Y028944D01*
X028326Y028837D01*
X027899Y028410D01*
X028326Y028410D01*
X028730Y028180D02*
X026530Y028180D01*
X026530Y008180D01*
X031830Y008180D01*
X031830Y028180D01*
X029530Y028180D01*
X029528Y028141D01*
X029522Y028102D01*
X029513Y028064D01*
X029500Y028027D01*
X029483Y027991D01*
X029463Y027958D01*
X029439Y027926D01*
X029413Y027897D01*
X029384Y027871D01*
X029352Y027847D01*
X029319Y027827D01*
X029283Y027810D01*
X029246Y027797D01*
X029208Y027788D01*
X029169Y027782D01*
X029130Y027780D01*
X029091Y027782D01*
X029052Y027788D01*
X029014Y027797D01*
X028977Y027810D01*
X028941Y027827D01*
X028908Y027847D01*
X028876Y027871D01*
X028847Y027897D01*
X028821Y027926D01*
X028797Y027958D01*
X028777Y027991D01*
X028760Y028027D01*
X028747Y028064D01*
X028738Y028102D01*
X028732Y028141D01*
X028730Y028180D01*
X027037Y028517D02*
X027037Y029051D01*
X026610Y029051D02*
X026610Y028517D01*
X026717Y028410D01*
X026930Y028410D01*
X027037Y028517D01*
X030730Y028780D02*
X030730Y029580D01*
X030732Y029597D01*
X030736Y029614D01*
X030743Y029630D01*
X030753Y029644D01*
X030766Y029657D01*
X030780Y029667D01*
X030796Y029674D01*
X030813Y029678D01*
X030830Y029680D01*
X032530Y029680D01*
X032547Y029678D01*
X032564Y029674D01*
X032580Y029667D01*
X032594Y029657D01*
X032607Y029644D01*
X032617Y029630D01*
X032624Y029614D01*
X032628Y029597D01*
X032630Y029580D01*
X032630Y028780D01*
X032628Y028763D01*
X032624Y028746D01*
X032617Y028730D01*
X032607Y028716D01*
X032594Y028703D01*
X032580Y028693D01*
X032564Y028686D01*
X032547Y028682D01*
X032530Y028680D01*
X030830Y028680D01*
X030813Y028682D01*
X030796Y028686D01*
X030780Y028693D01*
X030766Y028703D01*
X030753Y028716D01*
X030743Y028730D01*
X030736Y028746D01*
X030732Y028763D01*
X030730Y028780D01*
X031530Y029180D02*
X031580Y029180D01*
X031780Y029180D02*
X031830Y029180D01*
X033280Y027980D02*
X033280Y022380D01*
X033282Y022354D01*
X033287Y022328D01*
X033295Y022303D01*
X033307Y022280D01*
X033321Y022258D01*
X033339Y022239D01*
X033358Y022221D01*
X033380Y022207D01*
X033403Y022195D01*
X033428Y022187D01*
X033454Y022182D01*
X033480Y022180D01*
X033880Y022180D01*
X033906Y022182D01*
X033932Y022187D01*
X033957Y022195D01*
X033980Y022207D01*
X034002Y022221D01*
X034021Y022239D01*
X034039Y022258D01*
X034053Y022280D01*
X034065Y022303D01*
X034073Y022328D01*
X034078Y022354D01*
X034080Y022380D01*
X034080Y027980D01*
X034030Y028030D02*
X034030Y027330D01*
X033330Y027330D01*
X033330Y028030D01*
X034030Y028030D01*
X034080Y027980D02*
X034078Y028006D01*
X034073Y028032D01*
X034065Y028057D01*
X034053Y028080D01*
X034039Y028102D01*
X034021Y028121D01*
X034002Y028139D01*
X033980Y028153D01*
X033957Y028165D01*
X033932Y028173D01*
X033906Y028178D01*
X033880Y028180D01*
X033480Y028180D01*
X033454Y028178D01*
X033428Y028173D01*
X033403Y028165D01*
X033380Y028153D01*
X033358Y028139D01*
X033339Y028121D01*
X033321Y028102D01*
X033307Y028080D01*
X033295Y028057D01*
X033287Y028032D01*
X033282Y028006D01*
X033280Y027980D01*
X036680Y028080D02*
X036680Y027280D01*
X036780Y027180D01*
X036680Y027080D01*
X036680Y026280D01*
X036780Y026180D01*
X037580Y026180D01*
X037680Y026280D01*
X037680Y027080D01*
X037580Y027180D01*
X037680Y027280D01*
X037680Y028080D01*
X037580Y028180D01*
X036780Y028180D01*
X036680Y028080D01*
X036780Y029180D02*
X037580Y029180D01*
X037680Y029280D01*
X037680Y030080D01*
X037580Y030180D01*
X037680Y030280D01*
X037680Y031080D01*
X037580Y031180D01*
X036780Y031180D01*
X036680Y031080D01*
X036680Y030280D01*
X036780Y030180D01*
X036680Y030080D01*
X036680Y029280D01*
X036780Y029180D01*
X036780Y025180D02*
X037580Y025180D01*
X037680Y025080D01*
X037680Y024280D01*
X037580Y024180D01*
X037680Y024080D01*
X037680Y023280D01*
X037580Y023180D01*
X036780Y023180D01*
X036680Y023280D01*
X036680Y024080D01*
X036780Y024180D01*
X036680Y024280D01*
X036680Y025080D01*
X036780Y025180D01*
X038280Y015030D02*
X034080Y015030D01*
X034050Y015028D01*
X034020Y015023D01*
X033991Y015014D01*
X033964Y015001D01*
X033938Y014986D01*
X033914Y014967D01*
X033893Y014946D01*
X033874Y014922D01*
X033859Y014896D01*
X033846Y014869D01*
X033837Y014840D01*
X033832Y014810D01*
X033830Y014780D01*
X033830Y010580D01*
X033832Y010550D01*
X033837Y010520D01*
X033846Y010491D01*
X033859Y010464D01*
X033874Y010438D01*
X033893Y010414D01*
X033914Y010393D01*
X033938Y010374D01*
X033964Y010359D01*
X033991Y010346D01*
X034020Y010337D01*
X034050Y010332D01*
X034080Y010330D01*
X038280Y010330D01*
X038310Y010332D01*
X038340Y010337D01*
X038369Y010346D01*
X038396Y010359D01*
X038422Y010374D01*
X038446Y010393D01*
X038467Y010414D01*
X038486Y010438D01*
X038501Y010464D01*
X038514Y010491D01*
X038523Y010520D01*
X038528Y010550D01*
X038530Y010580D01*
X038530Y014780D01*
X038528Y014810D01*
X038523Y014840D01*
X038514Y014869D01*
X038501Y014896D01*
X038486Y014922D01*
X038467Y014946D01*
X038446Y014967D01*
X038422Y014986D01*
X038396Y015001D01*
X038369Y015014D01*
X038340Y015023D01*
X038310Y015028D01*
X038280Y015030D01*
X037180Y011180D02*
X036550Y011180D01*
X035810Y011180D02*
X035180Y011180D01*
X036330Y009680D02*
X038030Y009680D01*
X038047Y009678D01*
X038064Y009674D01*
X038080Y009667D01*
X038094Y009657D01*
X038107Y009644D01*
X038117Y009630D01*
X038124Y009614D01*
X038128Y009597D01*
X038130Y009580D01*
X038130Y008780D01*
X038128Y008763D01*
X038124Y008746D01*
X038117Y008730D01*
X038107Y008716D01*
X038094Y008703D01*
X038080Y008693D01*
X038064Y008686D01*
X038047Y008682D01*
X038030Y008680D01*
X036330Y008680D01*
X036313Y008682D01*
X036296Y008686D01*
X036280Y008693D01*
X036266Y008703D01*
X036253Y008716D01*
X036243Y008730D01*
X036236Y008746D01*
X036232Y008763D01*
X036230Y008780D01*
X036230Y009580D01*
X036232Y009597D01*
X036236Y009614D01*
X036243Y009630D01*
X036253Y009644D01*
X036266Y009657D01*
X036280Y009667D01*
X036296Y009674D01*
X036313Y009678D01*
X036330Y009680D01*
X037030Y009180D02*
X037080Y009180D01*
X037280Y009180D02*
X037330Y009180D01*
X037430Y005680D02*
X036930Y005680D01*
X036680Y005430D01*
X036430Y005680D01*
X035930Y005680D01*
X035680Y005430D01*
X035430Y005680D01*
X034930Y005680D01*
X034680Y005430D01*
X034430Y005680D01*
X033930Y005680D01*
X033680Y005430D01*
X033430Y005680D01*
X032930Y005680D01*
X032680Y005430D01*
X032430Y005680D01*
X031930Y005680D01*
X031680Y005430D01*
X031430Y005680D01*
X030930Y005680D01*
X030680Y005430D01*
X030430Y005680D01*
X029930Y005680D01*
X029680Y005430D01*
X029430Y005680D01*
X028930Y005680D01*
X028680Y005430D01*
X028430Y005680D01*
X027930Y005680D01*
X027680Y005430D01*
X027430Y005680D01*
X026930Y005680D01*
X026680Y005430D01*
X026430Y005680D01*
X025930Y005680D01*
X025680Y005430D01*
X025430Y005680D01*
X024930Y005680D01*
X024680Y005430D01*
X024430Y005680D01*
X023930Y005680D01*
X023680Y005430D01*
X023430Y005680D01*
X022930Y005680D01*
X022680Y005430D01*
X022680Y003930D01*
X022930Y003680D01*
X023430Y003680D01*
X023680Y003930D01*
X023930Y003680D01*
X024430Y003680D01*
X024680Y003930D01*
X024930Y003680D01*
X025430Y003680D01*
X025680Y003930D01*
X025930Y003680D01*
X026430Y003680D01*
X026680Y003930D01*
X026930Y003680D01*
X027430Y003680D01*
X027680Y003930D01*
X027930Y003680D01*
X028430Y003680D01*
X028680Y003930D01*
X028930Y003680D01*
X029430Y003680D01*
X029680Y003930D01*
X029930Y003680D01*
X030430Y003680D01*
X030680Y003930D01*
X030930Y003680D01*
X031430Y003680D01*
X031680Y003930D01*
X031930Y003680D01*
X032430Y003680D01*
X032680Y003930D01*
X032930Y003680D01*
X033430Y003680D01*
X033680Y003930D01*
X033930Y003680D01*
X034430Y003680D01*
X034680Y003930D01*
X034930Y003680D01*
X035430Y003680D01*
X035680Y003930D01*
X035930Y003680D01*
X036430Y003680D01*
X036680Y003930D01*
X036930Y003680D01*
X037430Y003680D01*
X037680Y003930D01*
X037930Y003680D01*
X038430Y003680D01*
X038680Y003930D01*
X038930Y003680D01*
X039430Y003680D01*
X039680Y003930D01*
X039680Y005430D01*
X039430Y005680D01*
X038930Y005680D01*
X038680Y005430D01*
X038430Y005680D01*
X037930Y005680D01*
X037680Y005430D01*
X037430Y005680D01*
X022930Y011830D02*
X022930Y013530D01*
X022928Y013547D01*
X022924Y013564D01*
X022917Y013580D01*
X022907Y013594D01*
X022894Y013607D01*
X022880Y013617D01*
X022864Y013624D01*
X022847Y013628D01*
X022830Y013630D01*
X022030Y013630D01*
X022013Y013628D01*
X021996Y013624D01*
X021980Y013617D01*
X021966Y013607D01*
X021953Y013594D01*
X021943Y013580D01*
X021936Y013564D01*
X021932Y013547D01*
X021930Y013530D01*
X021930Y011830D01*
X021932Y011813D01*
X021936Y011796D01*
X021943Y011780D01*
X021953Y011766D01*
X021966Y011753D01*
X021980Y011743D01*
X021996Y011736D01*
X022013Y011732D01*
X022030Y011730D01*
X022830Y011730D01*
X022847Y011732D01*
X022864Y011736D01*
X022880Y011743D01*
X022894Y011753D01*
X022907Y011766D01*
X022917Y011780D01*
X022924Y011796D01*
X022928Y011813D01*
X022930Y011830D01*
X022430Y012530D02*
X022430Y012580D01*
X022430Y012780D02*
X022430Y012830D01*
X020580Y018780D02*
X020430Y018780D01*
X020380Y018830D01*
X018980Y018830D01*
X018930Y018780D01*
X018780Y018780D01*
X018763Y018782D01*
X018746Y018786D01*
X018730Y018793D01*
X018716Y018803D01*
X018703Y018816D01*
X018693Y018830D01*
X018686Y018846D01*
X018682Y018863D01*
X018680Y018880D01*
X018680Y019480D01*
X018682Y019497D01*
X018686Y019514D01*
X018693Y019530D01*
X018703Y019544D01*
X018716Y019557D01*
X018730Y019567D01*
X018746Y019574D01*
X018763Y019578D01*
X018780Y019580D01*
X018930Y019580D01*
X018980Y019530D01*
X020380Y019530D01*
X020430Y019580D01*
X020580Y019580D01*
X020597Y019578D01*
X020614Y019574D01*
X020630Y019567D01*
X020644Y019557D01*
X020657Y019544D01*
X020667Y019530D01*
X020674Y019514D01*
X020678Y019497D01*
X020680Y019480D01*
X020680Y018880D01*
X020678Y018863D01*
X020674Y018846D01*
X020667Y018830D01*
X020657Y018816D01*
X020644Y018803D01*
X020630Y018793D01*
X020614Y018786D01*
X020597Y018782D01*
X020580Y018780D01*
X020430Y019780D02*
X020480Y019830D01*
X021880Y019830D01*
X021930Y019780D01*
X022080Y019780D01*
X022097Y019782D01*
X022114Y019786D01*
X022130Y019793D01*
X022144Y019803D01*
X022157Y019816D01*
X022167Y019830D01*
X022174Y019846D01*
X022178Y019863D01*
X022180Y019880D01*
X022180Y020480D01*
X022178Y020497D01*
X022174Y020514D01*
X022167Y020530D01*
X022157Y020544D01*
X022144Y020557D01*
X022130Y020567D01*
X022114Y020574D01*
X022097Y020578D01*
X022080Y020580D01*
X021930Y020580D01*
X021880Y020530D01*
X020480Y020530D01*
X020430Y020580D01*
X020280Y020580D01*
X020263Y020578D01*
X020246Y020574D01*
X020230Y020567D01*
X020216Y020557D01*
X020203Y020544D01*
X020193Y020530D01*
X020186Y020514D01*
X020182Y020497D01*
X020180Y020480D01*
X020180Y019880D01*
X020182Y019863D01*
X020186Y019846D01*
X020193Y019830D01*
X020203Y019816D01*
X020216Y019803D01*
X020230Y019793D01*
X020246Y019786D01*
X020263Y019782D01*
X020280Y019780D01*
X020430Y019780D01*
D12*
X021930Y017805D02*
X021705Y017580D01*
X022005Y017580D01*
X022165Y017430D02*
X022165Y017730D01*
X022240Y017805D01*
X022391Y017805D01*
X022466Y017730D01*
X022165Y017430D01*
X022240Y017355D01*
X022391Y017355D01*
X022466Y017430D01*
X022466Y017730D01*
X021930Y017805D02*
X021930Y017355D01*
X034205Y026824D02*
X034205Y027049D01*
X034280Y027124D01*
X034430Y027124D01*
X034505Y027049D01*
X034505Y026824D01*
X034505Y026974D02*
X034655Y027124D01*
X034655Y027284D02*
X034205Y027284D01*
X034655Y027584D01*
X034205Y027584D01*
X034355Y027745D02*
X034205Y027895D01*
X034655Y027895D01*
X034655Y027745D02*
X034655Y028045D01*
X033845Y028246D02*
X033845Y028473D01*
X033845Y028359D02*
X033505Y028359D01*
X033618Y028246D01*
X034205Y026824D02*
X034655Y026824D01*
X037855Y026974D02*
X037855Y027124D01*
X037855Y027049D02*
X038230Y027049D01*
X038305Y026974D01*
X038305Y026899D01*
X038230Y026824D01*
X038305Y027284D02*
X037855Y027284D01*
X037855Y027509D01*
X037930Y027584D01*
X038080Y027584D01*
X038155Y027509D01*
X038155Y027284D01*
X038305Y027745D02*
X038305Y028045D01*
X038305Y027895D02*
X037855Y027895D01*
X038005Y027745D01*
X037930Y029363D02*
X038230Y029363D01*
X038305Y029438D01*
X038305Y029589D01*
X038230Y029664D01*
X038230Y029824D02*
X037930Y029824D01*
X037855Y029899D01*
X037855Y030049D01*
X037930Y030124D01*
X038230Y030124D01*
X038305Y030049D01*
X038305Y029899D01*
X038230Y029824D01*
X037930Y029664D02*
X037855Y029589D01*
X037855Y029438D01*
X037930Y029363D01*
X037855Y030284D02*
X038305Y030584D01*
X037855Y030584D01*
X038080Y030745D02*
X037855Y030970D01*
X038305Y030970D01*
X038080Y031045D02*
X038080Y030745D01*
X038305Y030284D02*
X037855Y030284D01*
X037391Y034855D02*
X037391Y035305D01*
X037165Y035080D01*
X037466Y035080D01*
X037005Y035155D02*
X037005Y035230D01*
X036930Y035305D01*
X036780Y035305D01*
X036705Y035230D01*
X037005Y035155D02*
X036705Y034855D01*
X037005Y034855D01*
X028376Y031655D02*
X028226Y031580D01*
X028076Y031430D01*
X028301Y031430D01*
X028376Y031355D01*
X028376Y031280D01*
X028301Y031205D01*
X028151Y031205D01*
X028076Y031280D01*
X028076Y031430D01*
X027916Y031205D02*
X027615Y031205D01*
X027766Y031205D02*
X027766Y031655D01*
X027615Y031505D01*
X027455Y031580D02*
X027380Y031655D01*
X027230Y031655D01*
X027155Y031580D01*
X027155Y031280D01*
X027230Y031205D01*
X027380Y031205D01*
X027455Y031280D01*
X026355Y032055D02*
X026055Y032055D01*
X026205Y032055D02*
X026205Y032505D01*
X026055Y032355D01*
X025305Y032355D02*
X025305Y032430D01*
X025230Y032505D01*
X025080Y032505D01*
X025005Y032430D01*
X025305Y032355D02*
X025005Y032055D01*
X025305Y032055D01*
X024305Y032055D02*
X024005Y032055D01*
X024155Y032055D02*
X024155Y032505D01*
X024005Y032355D01*
X023855Y034905D02*
X023930Y034980D01*
X023930Y035355D01*
X023855Y035355D02*
X024005Y035355D01*
X024165Y035355D02*
X024391Y035355D01*
X024466Y035280D01*
X024466Y035130D01*
X024391Y035055D01*
X024165Y035055D01*
X024165Y034905D02*
X024165Y035355D01*
X024626Y035280D02*
X024701Y035355D01*
X024851Y035355D01*
X024926Y035280D01*
X024926Y035205D01*
X024851Y035130D01*
X024926Y035055D01*
X024926Y034980D01*
X024851Y034905D01*
X024701Y034905D01*
X024626Y034980D01*
X024776Y035130D02*
X024851Y035130D01*
X025705Y035155D02*
X025780Y035080D01*
X025930Y035080D01*
X026005Y035005D01*
X026005Y034930D01*
X025930Y034855D01*
X025780Y034855D01*
X025705Y034930D01*
X025705Y035155D02*
X025705Y035230D01*
X025780Y035305D01*
X025930Y035305D01*
X026005Y035230D01*
X026165Y035305D02*
X026165Y035005D01*
X026316Y034855D01*
X026466Y035005D01*
X026466Y035305D01*
X026626Y035080D02*
X026926Y035080D01*
X026851Y034855D02*
X026851Y035305D01*
X026626Y035080D01*
X023855Y034905D02*
X023780Y034905D01*
X023705Y034980D01*
X023466Y034930D02*
X023391Y034855D01*
X023240Y034855D01*
X023165Y034930D01*
X023466Y035230D01*
X023466Y034930D01*
X023466Y035230D02*
X023391Y035305D01*
X023240Y035305D01*
X023165Y035230D01*
X023165Y034930D01*
X023005Y035080D02*
X022705Y035080D01*
X022930Y035305D01*
X022930Y034855D01*
X037855Y024970D02*
X038080Y024745D01*
X038080Y025045D01*
X038305Y024970D02*
X037855Y024970D01*
X037930Y024584D02*
X038080Y024584D01*
X038155Y024509D01*
X038155Y024284D01*
X038305Y024284D02*
X037855Y024284D01*
X037855Y024509D01*
X037930Y024584D01*
X037855Y024124D02*
X037855Y023974D01*
X037855Y024049D02*
X038230Y024049D01*
X038305Y023974D01*
X038305Y023899D01*
X038230Y023824D01*
X036995Y014905D02*
X036995Y014455D01*
X036845Y014455D02*
X037145Y014455D01*
X036845Y014755D02*
X036995Y014905D01*
X036395Y013865D02*
X036395Y013415D01*
X036245Y013415D02*
X036545Y013415D01*
X036245Y013715D02*
X036395Y013865D01*
X036084Y013790D02*
X036009Y013865D01*
X035859Y013865D01*
X035784Y013790D01*
X035784Y013490D01*
X035859Y013415D01*
X036009Y013415D01*
X036084Y013490D01*
X036084Y013640D01*
X035934Y013640D01*
X035624Y013490D02*
X035549Y013415D01*
X035399Y013415D01*
X035324Y013490D01*
X035324Y013790D01*
X035399Y013865D01*
X035549Y013865D01*
X035624Y013790D01*
X035624Y013490D01*
X035624Y013415D02*
X035474Y013565D01*
X038880Y006305D02*
X038805Y006230D01*
X038880Y006305D02*
X039030Y006305D01*
X039105Y006230D01*
X039105Y006155D01*
X039030Y006080D01*
X039105Y006005D01*
X039105Y005930D01*
X039030Y005855D01*
X038880Y005855D01*
X038805Y005930D01*
X038955Y006080D02*
X039030Y006080D01*
X039265Y006080D02*
X039566Y006080D01*
X039491Y005855D02*
X039491Y006305D01*
X039265Y006080D01*
X023926Y006005D02*
X023926Y005930D01*
X023851Y005855D01*
X023701Y005855D01*
X023626Y005930D01*
X023466Y005930D02*
X023466Y006005D01*
X023391Y006080D01*
X023240Y006080D01*
X023165Y006155D01*
X023165Y006230D01*
X023240Y006305D01*
X023391Y006305D01*
X023466Y006230D01*
X023626Y006230D02*
X023701Y006305D01*
X023851Y006305D01*
X023926Y006230D01*
X023926Y006155D01*
X023851Y006080D01*
X023926Y006005D01*
X023851Y006080D02*
X023776Y006080D01*
X023466Y005930D02*
X023391Y005855D01*
X023240Y005855D01*
X023165Y005930D01*
X023005Y005930D02*
X023005Y006305D01*
X022705Y006305D02*
X022705Y005930D01*
X022780Y005855D01*
X022930Y005855D01*
X023005Y005930D01*
X023316Y005780D02*
X023316Y006380D01*
X023155Y003505D02*
X023155Y003055D01*
X023005Y003055D02*
X023305Y003055D01*
X023005Y003355D02*
X023155Y003505D01*
X003926Y017355D02*
X003626Y017355D01*
X003776Y017355D02*
X003776Y017805D01*
X003626Y017655D01*
X003466Y017505D02*
X003466Y017805D01*
X003466Y017505D02*
X003316Y017355D01*
X003165Y017505D01*
X003165Y017805D01*
X003005Y017730D02*
X002930Y017805D01*
X002780Y017805D01*
X002705Y017730D01*
X002705Y017655D01*
X002780Y017580D01*
X002930Y017580D01*
X003005Y017505D01*
X003005Y017430D01*
X002930Y017355D01*
X002780Y017355D01*
X002705Y017430D01*
X003230Y019324D02*
X003305Y019399D01*
X003305Y019474D01*
X003230Y019549D01*
X002855Y019549D01*
X002855Y019474D02*
X002855Y019624D01*
X002855Y019784D02*
X002855Y020009D01*
X002930Y020084D01*
X003080Y020084D01*
X003155Y020009D01*
X003155Y019784D01*
X003305Y019784D02*
X002855Y019784D01*
X002930Y020245D02*
X002855Y020320D01*
X002855Y020470D01*
X002930Y020545D01*
X003005Y020545D01*
X003305Y020245D01*
X003305Y020545D01*
X003155Y015005D02*
X003155Y014555D01*
X003005Y014555D02*
X003305Y014555D01*
X003005Y014855D02*
X003155Y015005D01*
X004005Y032055D02*
X004305Y032055D01*
X004155Y032055D02*
X004155Y032505D01*
X004005Y032355D01*
X003930Y034855D02*
X003780Y034855D01*
X003705Y034930D01*
X003780Y035080D02*
X003705Y035155D01*
X003705Y035230D01*
X003780Y035305D01*
X003930Y035305D01*
X004005Y035230D01*
X003930Y035080D02*
X004005Y035005D01*
X004005Y034930D01*
X003930Y034855D01*
X003930Y035080D02*
X003780Y035080D01*
X004165Y035005D02*
X004316Y034855D01*
X004466Y035005D01*
X004466Y035305D01*
X004626Y035230D02*
X004701Y035305D01*
X004851Y035305D01*
X004926Y035230D01*
X004926Y035155D01*
X004851Y035080D01*
X004926Y035005D01*
X004926Y034930D01*
X004851Y034855D01*
X004701Y034855D01*
X004626Y034930D01*
X004776Y035080D02*
X004851Y035080D01*
X004165Y035005D02*
X004165Y035305D01*
D13*
X012880Y030280D02*
X013180Y030280D01*
X013480Y030280D01*
X013480Y030080D02*
X013180Y030080D01*
X012880Y030080D01*
X013380Y024780D02*
X013680Y024780D01*
X013980Y024780D01*
X013980Y024580D02*
X013680Y024580D01*
X013380Y024580D01*
X001980Y024580D02*
X001680Y024580D01*
X001380Y024580D01*
X001380Y024780D02*
X001680Y024780D01*
X001980Y024780D01*
X022130Y012780D02*
X022430Y012780D01*
X022730Y012780D01*
X022730Y012580D02*
X022430Y012580D01*
X022130Y012580D01*
X033580Y010580D02*
X033580Y014780D01*
X033582Y014824D01*
X033588Y014867D01*
X033597Y014909D01*
X033610Y014951D01*
X033627Y014991D01*
X033647Y015030D01*
X033670Y015067D01*
X033697Y015101D01*
X033726Y015134D01*
X033759Y015163D01*
X033793Y015190D01*
X033830Y015213D01*
X033869Y015233D01*
X033909Y015250D01*
X033951Y015263D01*
X033993Y015272D01*
X034036Y015278D01*
X034080Y015280D01*
X038780Y015280D01*
X038780Y010580D01*
X038778Y010536D01*
X038772Y010493D01*
X038763Y010451D01*
X038750Y010409D01*
X038733Y010369D01*
X038713Y010330D01*
X038690Y010293D01*
X038663Y010259D01*
X038634Y010226D01*
X038601Y010197D01*
X038567Y010170D01*
X038530Y010147D01*
X038491Y010127D01*
X038451Y010110D01*
X038409Y010097D01*
X038367Y010088D01*
X038324Y010082D01*
X038280Y010080D01*
X034080Y010080D01*
X034036Y010082D01*
X033993Y010088D01*
X033951Y010097D01*
X033909Y010110D01*
X033869Y010127D01*
X033830Y010147D01*
X033793Y010170D01*
X033759Y010197D01*
X033726Y010226D01*
X033697Y010259D01*
X033670Y010293D01*
X033647Y010330D01*
X033627Y010369D01*
X033610Y010409D01*
X033597Y010451D01*
X033588Y010493D01*
X033582Y010536D01*
X033580Y010580D01*
X037080Y009480D02*
X037080Y009180D01*
X037080Y008880D01*
X037280Y008880D02*
X037280Y009180D01*
X037280Y009480D01*
X031780Y028880D02*
X031780Y029180D01*
X031780Y029480D01*
X031580Y029480D02*
X031580Y029180D01*
X031580Y028880D01*
D14*
X003055Y012217D02*
X003055Y002517D01*
X005055Y002517D01*
X005055Y006367D01*
X005630Y006942D01*
X018730Y006942D01*
X019305Y006367D01*
X019305Y002517D01*
X021305Y002517D01*
X021305Y012217D01*
X021105Y012217D01*
X021105Y011417D01*
X020080Y010867D01*
X020080Y009892D01*
X012580Y009892D01*
X015180Y008567D01*
X020080Y008567D01*
X020080Y009867D01*
X020080Y010867D02*
X019055Y011417D01*
X019055Y012867D01*
X021105Y012867D01*
X021105Y012217D01*
X019055Y011417D02*
X005305Y011417D01*
X004280Y010867D01*
X004280Y009892D01*
X011780Y009892D01*
X009180Y008567D01*
X004280Y008567D01*
X004280Y009842D01*
X004280Y010867D02*
X003255Y011417D01*
X003255Y012217D01*
X003255Y012842D01*
X005305Y012842D01*
X005305Y011417D01*
X006180Y009867D02*
X006180Y008567D01*
X006680Y008567D02*
X006680Y009867D01*
X007180Y009867D02*
X007180Y008567D01*
X007680Y008567D02*
X007680Y009867D01*
X008180Y009867D02*
X008180Y008567D01*
X008680Y008567D02*
X008680Y009867D01*
X009180Y009867D02*
X009180Y008567D01*
X009680Y008842D02*
X009680Y009867D01*
X010180Y009867D02*
X010180Y009067D01*
X010680Y009342D02*
X010680Y009867D01*
X011180Y009867D02*
X011180Y009592D01*
X011780Y009892D02*
X011780Y010342D01*
X012580Y010342D01*
X012580Y009892D01*
X013180Y009867D02*
X013180Y009617D01*
X013680Y009867D02*
X013680Y009367D01*
X014180Y009117D02*
X014180Y009867D01*
X014680Y009867D02*
X014680Y008842D01*
X015180Y008592D02*
X015180Y009867D01*
X015680Y009867D02*
X015680Y008567D01*
X016180Y008567D02*
X016180Y009867D01*
X016680Y009867D02*
X016680Y008567D01*
X017180Y008567D02*
X017180Y009867D01*
X017680Y009867D02*
X017680Y008567D01*
X018180Y008592D02*
X018180Y009867D01*
X003255Y012217D02*
X003055Y012217D01*
D15*
X009605Y019180D03*
X010105Y020180D03*
X011755Y019180D03*
X012255Y020180D03*
X013605Y019180D03*
X014605Y020180D03*
X015755Y019180D03*
X016755Y020180D03*
X018605Y019180D03*
X020105Y020180D03*
X020755Y019180D03*
X022255Y020180D03*
X006755Y019680D03*
X004605Y019680D03*
D16*
X035810Y011680D02*
X035810Y011180D01*
X035810Y010680D01*
X036060Y010680D02*
X036310Y010680D01*
X036310Y011680D01*
X036060Y011680D01*
X036060Y010680D01*
X036550Y010680D02*
X036550Y011180D01*
X036550Y011680D01*
D17*
X013825Y028215D02*
X013825Y028425D01*
X013825Y028320D02*
X013194Y028320D01*
X013194Y028215D02*
X013194Y028425D01*
X013300Y028645D02*
X013194Y028750D01*
X013194Y028960D01*
X013300Y029065D01*
X013300Y029289D02*
X013194Y029394D01*
X013194Y029605D01*
X013300Y029710D01*
X013405Y029710D01*
X013510Y029605D01*
X013615Y029710D01*
X013720Y029710D01*
X013825Y029605D01*
X013825Y029394D01*
X013720Y029289D01*
X013720Y029065D02*
X013825Y028960D01*
X013825Y028750D01*
X013720Y028645D01*
X013300Y028645D01*
X013510Y029499D02*
X013510Y029605D01*
M02*
