G75*
%MOIN*%
%OFA0B0*%
%FSLAX24Y24*%
%IPPOS*%
%LPD*%
%AMOC8*
5,1,8,0,0,1.08239X$1,22.5*
%
%ADD10C,0.1330*%
%ADD11OC8,0.0680*%
%ADD12OC8,0.0600*%
%ADD13OC8,0.0640*%
%ADD14C,0.0600*%
%ADD15R,0.0595X0.0595*%
%ADD16OC8,0.0710*%
%ADD17C,0.0710*%
%ADD18C,0.0966*%
%ADD19C,0.1092*%
%ADD20C,0.1655*%
%ADD21C,0.0640*%
%ADD22C,0.1830*%
%ADD23C,0.1580*%
D10*
X001680Y001180D03*
X038680Y001180D03*
X038680Y034180D03*
X001680Y034180D03*
D11*
X003680Y033680D03*
X003680Y032680D03*
X004680Y032680D03*
X004680Y033680D03*
X005680Y033680D03*
X005680Y032680D03*
X006680Y032680D03*
X006680Y033680D03*
X007680Y033680D03*
X007680Y032680D03*
X008680Y032680D03*
X008680Y033680D03*
X009680Y033680D03*
X009680Y032680D03*
X010680Y032680D03*
X010680Y033680D03*
X011680Y033680D03*
X011680Y032680D03*
X012680Y032680D03*
X012680Y033680D03*
X013680Y033680D03*
X013680Y032680D03*
X014680Y032680D03*
X014680Y033680D03*
X015680Y033680D03*
X015680Y032680D03*
X016680Y032680D03*
X016680Y033680D03*
X017680Y033680D03*
X017680Y032680D03*
X018680Y032680D03*
X018680Y033680D03*
X019680Y033680D03*
X019680Y032680D03*
X020680Y032680D03*
X020680Y033680D03*
X021680Y033680D03*
X021680Y032680D03*
X022680Y032680D03*
X022680Y033680D03*
X025680Y033680D03*
X025680Y032680D03*
X026680Y032680D03*
X026680Y033680D03*
X027680Y033680D03*
X027680Y032680D03*
X028680Y032680D03*
X028680Y033680D03*
X029680Y033680D03*
X029680Y032680D03*
X030680Y032680D03*
X030680Y033680D03*
X031680Y033680D03*
X031680Y032680D03*
X032680Y032680D03*
X032680Y033680D03*
X033680Y033680D03*
X033680Y032680D03*
X034680Y032680D03*
X034680Y033680D03*
X035680Y033680D03*
X035680Y032680D03*
X036680Y032680D03*
X036680Y033680D03*
X022680Y023680D03*
D12*
X024180Y023680D03*
X024180Y020680D03*
X023680Y017680D03*
X022680Y017680D03*
X019180Y017680D03*
X018180Y017680D03*
X014680Y017680D03*
X013680Y017680D03*
X010180Y017680D03*
X009180Y017680D03*
X005680Y017680D03*
X004680Y017680D03*
X002180Y023180D03*
X002180Y024180D03*
X001680Y028180D03*
X001680Y029180D03*
X013180Y029180D03*
X013180Y028180D03*
X024680Y027680D03*
X024680Y028680D03*
X027180Y017680D03*
X028180Y017680D03*
X031680Y017680D03*
X032680Y017680D03*
X036180Y017680D03*
X037180Y017680D03*
X037680Y026180D03*
X038680Y026180D03*
D13*
X038180Y027680D03*
X038180Y028680D03*
X038180Y029680D03*
X038180Y030680D03*
X037180Y030680D03*
X037180Y029680D03*
X037180Y028680D03*
X037180Y027680D03*
X024680Y032680D03*
X024680Y033680D03*
X023680Y033680D03*
X023680Y032680D03*
D14*
X023180Y029440D02*
X023180Y028920D01*
X022180Y028920D02*
X022180Y029440D01*
X021180Y029440D02*
X021180Y028920D01*
X020180Y028920D02*
X020180Y029440D01*
X019180Y029440D02*
X019180Y028920D01*
X018180Y028920D02*
X018180Y029440D01*
X017180Y029440D02*
X017180Y028920D01*
X016180Y028920D02*
X016180Y029440D01*
X015180Y029440D02*
X015180Y028920D01*
X014180Y028920D02*
X014180Y029440D01*
X011680Y029440D02*
X011680Y028920D01*
X010680Y028920D02*
X010680Y029440D01*
X009680Y029440D02*
X009680Y028920D01*
X008680Y028920D02*
X008680Y029440D01*
X007680Y029440D02*
X007680Y028920D01*
X006680Y028920D02*
X006680Y029440D01*
X005680Y029440D02*
X005680Y028920D01*
X004680Y028920D02*
X004680Y029440D01*
X003680Y029440D02*
X003680Y028920D01*
X002680Y028920D02*
X002680Y029440D01*
X002680Y026440D02*
X002680Y025920D01*
X003680Y025920D02*
X003680Y026440D01*
X004680Y026440D02*
X004680Y025920D01*
X005680Y025920D02*
X005680Y026440D01*
X006680Y026440D02*
X006680Y025920D01*
X007680Y025920D02*
X007680Y026440D01*
X008680Y026440D02*
X008680Y025920D01*
X009680Y025920D02*
X009680Y026440D01*
X010680Y026440D02*
X010680Y025920D01*
X011680Y025920D02*
X011680Y026440D01*
X012680Y024940D02*
X012680Y024420D01*
X013680Y024420D02*
X013680Y024940D01*
X014680Y024940D02*
X014680Y024420D01*
X014680Y023940D02*
X014680Y023420D01*
X013680Y023420D02*
X013680Y023940D01*
X015680Y023940D02*
X015680Y023420D01*
X015680Y024420D02*
X015680Y024940D01*
X016680Y024940D02*
X016680Y024420D01*
X016680Y023940D02*
X016680Y023420D01*
X017680Y023420D02*
X017680Y023940D01*
X017680Y024420D02*
X017680Y024940D01*
X018680Y024940D02*
X018680Y024420D01*
X018680Y023940D02*
X018680Y023420D01*
X019680Y023420D02*
X019680Y023940D01*
X019680Y024420D02*
X019680Y024940D01*
X020680Y024940D02*
X020680Y024420D01*
X020680Y023940D02*
X020680Y023420D01*
X020680Y020940D02*
X020680Y020420D01*
X019680Y020420D02*
X019680Y020940D01*
X018680Y020940D02*
X018680Y020420D01*
X017680Y020420D02*
X017680Y020940D01*
X016680Y020940D02*
X016680Y020420D01*
X015680Y020420D02*
X015680Y020940D01*
X014680Y020940D02*
X014680Y020420D01*
X013680Y020420D02*
X013680Y020940D01*
X010180Y020920D02*
X010180Y021440D01*
X009180Y021440D02*
X009180Y020920D01*
X008180Y020920D02*
X008180Y021440D01*
X007180Y021440D02*
X007180Y020920D01*
X006180Y020920D02*
X006180Y021440D01*
X005180Y021440D02*
X005180Y020920D01*
X004180Y020920D02*
X004180Y021440D01*
X003180Y021440D02*
X003180Y020920D01*
X003180Y023920D02*
X003180Y024440D01*
X004180Y024440D02*
X004180Y023920D01*
X005180Y023920D02*
X005180Y024440D01*
X006180Y024440D02*
X006180Y023920D01*
X007180Y023920D02*
X007180Y024440D01*
X008180Y024440D02*
X008180Y023920D01*
X009180Y023920D02*
X009180Y024440D01*
X010180Y024440D02*
X010180Y023920D01*
X014180Y025920D02*
X014180Y026440D01*
X015180Y026440D02*
X015180Y025920D01*
X016180Y025920D02*
X016180Y026440D01*
X017180Y026440D02*
X017180Y025920D01*
X018180Y025920D02*
X018180Y026440D01*
X019180Y026440D02*
X019180Y025920D01*
X020180Y025920D02*
X020180Y026440D01*
X021180Y026440D02*
X021180Y025920D01*
X022180Y025920D02*
X022180Y026440D01*
X023180Y026440D02*
X023180Y025920D01*
X025680Y025920D02*
X025680Y026440D01*
X026680Y026440D02*
X026680Y025920D01*
X027680Y025920D02*
X027680Y026440D01*
X028680Y026440D02*
X028680Y025920D01*
X029680Y025920D02*
X029680Y026440D01*
X030680Y026440D02*
X030680Y025920D01*
X031680Y025920D02*
X031680Y026440D01*
X032680Y026440D02*
X032680Y025920D01*
X032680Y024940D02*
X032680Y024420D01*
X032680Y023940D02*
X032680Y023420D01*
X031680Y023420D02*
X031680Y023940D01*
X031680Y024420D02*
X031680Y024940D01*
X030680Y024940D02*
X030680Y024420D01*
X030680Y023940D02*
X030680Y023420D01*
X029680Y023420D02*
X029680Y023940D01*
X029680Y024420D02*
X029680Y024940D01*
X028680Y024940D02*
X028680Y024420D01*
X028680Y023940D02*
X028680Y023420D01*
X027680Y023420D02*
X027680Y023940D01*
X027680Y024420D02*
X027680Y024940D01*
X026680Y024940D02*
X026680Y024420D01*
X026680Y023940D02*
X026680Y023420D01*
X025680Y024420D02*
X025680Y024940D01*
X025680Y028920D02*
X025680Y029440D01*
X026680Y029440D02*
X026680Y028920D01*
X027680Y028920D02*
X027680Y029440D01*
X028680Y029440D02*
X028680Y028920D01*
X029680Y028920D02*
X029680Y029440D01*
X030680Y029440D02*
X030680Y028920D01*
X031680Y028920D02*
X031680Y029440D01*
X032680Y029440D02*
X032680Y028920D01*
X033680Y028920D02*
X033680Y029440D01*
X034680Y029440D02*
X034680Y028920D01*
X034680Y026440D02*
X034680Y025920D01*
X033680Y025920D02*
X033680Y026440D01*
X033680Y024940D02*
X033680Y024420D01*
X033680Y023940D02*
X033680Y023420D01*
X035420Y023180D02*
X035940Y023180D01*
X035940Y022180D02*
X035420Y022180D01*
X035420Y021180D02*
X035940Y021180D01*
X035940Y020180D02*
X035420Y020180D01*
X035420Y019180D02*
X035940Y019180D01*
X033680Y020420D02*
X033680Y020940D01*
X032680Y020940D02*
X032680Y020420D01*
X031680Y020420D02*
X031680Y020940D01*
X030680Y020940D02*
X030680Y020420D01*
X029680Y020420D02*
X029680Y020940D01*
X028680Y020940D02*
X028680Y020420D01*
X027680Y020420D02*
X027680Y020940D01*
X026680Y020940D02*
X026680Y020420D01*
X025440Y015680D02*
X024920Y015680D01*
X023940Y015680D02*
X023420Y015680D01*
X023420Y014680D02*
X023940Y014680D01*
X023940Y013680D02*
X023420Y013680D01*
X024920Y013680D02*
X025440Y013680D01*
X025440Y014680D02*
X024920Y014680D01*
X024920Y012680D02*
X025440Y012680D01*
X025440Y011680D02*
X024920Y011680D01*
X023940Y011680D02*
X023420Y011680D01*
X023420Y009680D02*
X023940Y009680D01*
X024920Y009680D02*
X025440Y009680D01*
X027920Y009680D02*
X028440Y009680D01*
X029420Y009680D02*
X029940Y009680D01*
X029940Y011680D02*
X029420Y011680D01*
X028440Y011680D02*
X027920Y011680D01*
X029420Y012680D02*
X029940Y012680D01*
X029940Y013680D02*
X029420Y013680D01*
X029420Y014680D02*
X029940Y014680D01*
X029940Y015680D02*
X029420Y015680D01*
X028440Y015680D02*
X027920Y015680D01*
X027920Y014680D02*
X028440Y014680D01*
X028440Y013680D02*
X027920Y013680D01*
X032420Y013680D02*
X032940Y013680D01*
X033920Y013680D02*
X034440Y013680D01*
X034440Y014680D02*
X033920Y014680D01*
X032940Y014680D02*
X032420Y014680D01*
X032420Y015680D02*
X032940Y015680D01*
X033920Y015680D02*
X034440Y015680D01*
X036920Y015680D02*
X037440Y015680D01*
X037440Y014680D02*
X036920Y014680D01*
X036920Y013680D02*
X037440Y013680D01*
X037440Y011680D02*
X036920Y011680D01*
X036920Y009680D02*
X037440Y009680D01*
X034440Y009680D02*
X033920Y009680D01*
X032940Y009680D02*
X032420Y009680D01*
X032420Y011680D02*
X032940Y011680D01*
X033920Y011680D02*
X034440Y011680D01*
X034440Y012680D02*
X033920Y012680D01*
X038420Y019180D02*
X038940Y019180D01*
X038940Y020180D02*
X038420Y020180D01*
X038420Y021180D02*
X038940Y021180D01*
X038940Y022180D02*
X038420Y022180D01*
X038420Y023180D02*
X038940Y023180D01*
X038940Y024180D02*
X038420Y024180D01*
X038420Y025180D02*
X038940Y025180D01*
X035940Y025180D02*
X035420Y025180D01*
X035420Y024180D02*
X035940Y024180D01*
X020940Y015680D02*
X020420Y015680D01*
X019440Y015680D02*
X018920Y015680D01*
X018920Y014680D02*
X019440Y014680D01*
X019440Y013680D02*
X018920Y013680D01*
X020420Y013680D02*
X020940Y013680D01*
X020940Y014680D02*
X020420Y014680D01*
X020420Y012680D02*
X020940Y012680D01*
X020940Y011680D02*
X020420Y011680D01*
X019440Y011680D02*
X018920Y011680D01*
X018920Y009680D02*
X019440Y009680D01*
X020420Y009680D02*
X020940Y009680D01*
X016440Y009680D02*
X015920Y009680D01*
X014940Y009680D02*
X014420Y009680D01*
X014420Y011680D02*
X014940Y011680D01*
X015920Y011680D02*
X016440Y011680D01*
X016440Y012680D02*
X015920Y012680D01*
X015920Y013680D02*
X016440Y013680D01*
X016440Y014680D02*
X015920Y014680D01*
X014940Y014680D02*
X014420Y014680D01*
X014420Y013680D02*
X014940Y013680D01*
X014940Y015680D02*
X014420Y015680D01*
X015920Y015680D02*
X016440Y015680D01*
X011940Y015680D02*
X011420Y015680D01*
X010440Y015680D02*
X009920Y015680D01*
X009920Y014680D02*
X010440Y014680D01*
X011420Y014680D02*
X011940Y014680D01*
X011940Y013680D02*
X011420Y013680D01*
X010440Y013680D02*
X009920Y013680D01*
X011420Y012680D02*
X011940Y012680D01*
X011940Y011680D02*
X011420Y011680D01*
X010440Y011680D02*
X009920Y011680D01*
X009920Y009680D02*
X010440Y009680D01*
X011420Y009680D02*
X011940Y009680D01*
X007440Y009680D02*
X006920Y009680D01*
X005940Y009680D02*
X005420Y009680D01*
X005420Y011680D02*
X005940Y011680D01*
X006920Y011680D02*
X007440Y011680D01*
X007440Y012680D02*
X006920Y012680D01*
X006920Y013680D02*
X007440Y013680D01*
X007440Y014680D02*
X006920Y014680D01*
X005940Y014680D02*
X005420Y014680D01*
X005420Y013680D02*
X005940Y013680D01*
X005940Y015680D02*
X005420Y015680D01*
X006920Y015680D02*
X007440Y015680D01*
X002940Y015680D02*
X002420Y015680D01*
X002420Y014680D02*
X002940Y014680D01*
X002940Y013680D02*
X002420Y013680D01*
X002420Y012680D02*
X002940Y012680D01*
X002940Y011680D02*
X002420Y011680D01*
X002420Y009680D02*
X002940Y009680D01*
D15*
X002680Y010680D03*
X005680Y010680D03*
X007180Y010680D03*
X005680Y012680D03*
X010180Y012680D03*
X010180Y010680D03*
X011680Y010680D03*
X014680Y010680D03*
X016180Y010680D03*
X014680Y012680D03*
X019180Y012680D03*
X019180Y010680D03*
X020680Y010680D03*
X023680Y010680D03*
X025180Y010680D03*
X023680Y012680D03*
X028180Y012680D03*
X028180Y010680D03*
X029680Y010680D03*
X032680Y010680D03*
X034180Y010680D03*
X032680Y012680D03*
X037180Y012680D03*
X037180Y010680D03*
D16*
X023680Y030680D03*
X003680Y006180D03*
X003680Y003180D03*
D17*
X003680Y004180D03*
X003680Y007180D03*
X024680Y030680D03*
D18*
X024680Y005180D03*
X022180Y004180D03*
X017180Y005180D03*
X014680Y004180D03*
X009680Y005180D03*
X007180Y004180D03*
X029680Y004180D03*
X032180Y005180D03*
D19*
X033180Y003180D03*
X029180Y003180D03*
X025680Y003180D03*
X021680Y003180D03*
X018180Y003180D03*
X014180Y003180D03*
X010680Y003180D03*
X006680Y003180D03*
D20*
X008680Y003180D03*
X016180Y003180D03*
X023680Y003180D03*
X031180Y003180D03*
D21*
X022960Y020680D02*
X022400Y020680D01*
X022400Y021680D02*
X022960Y021680D01*
X028180Y030400D02*
X028180Y030960D01*
X029180Y030960D02*
X029180Y030400D01*
X030180Y030400D02*
X030180Y030960D01*
X001960Y005680D02*
X001400Y005680D01*
X001400Y004680D02*
X001960Y004680D01*
X001960Y003680D02*
X001400Y003680D01*
D22*
X035960Y004680D03*
D23*
X037180Y006570D03*
X038361Y004680D03*
M02*
