%
M48
M72
T01C0.0240
T02C0.0315
T03C0.0320
T04C0.0360
T05C0.0400
T06C0.0591
T07C0.0675
T08C0.1050
T09C0.1250
T10C0.1575
%
T01
X8305Y11805
X8680Y14180
X13305Y12180
X13805Y14180
X14180Y16680
X17055Y15055
X17055Y14555
X17055Y11180
X18430Y11180
X18430Y9180
X22555Y12555
X22555Y14180
X24180Y16680
X22180Y17180
X21430Y17930
X26430Y19555
X23305Y23305
X21555Y22680
X19180Y23055
X15180Y19930
X9055Y25430
X8305Y26930
X6680Y25055
X6680Y21805
X5680Y18305
X18305Y27305
X20680Y27680
X24180Y26555
X26180Y29930
X30805Y31555
X32055Y31180
X32180Y33055
X31180Y34055
X35180Y34055
X28930Y9180
X5430Y30305
T02
X5680Y12680
X5680Y10680
X7180Y10680
X10180Y10680
X11680Y10680
X10180Y12680
X14680Y12680
X14680Y10680
X16180Y10680
X19180Y10680
X20680Y10680
X19180Y12680
X23680Y12680
X23680Y10680
X25180Y10680
X28180Y10680
X29680Y10680
X28180Y12680
X32680Y12680
X32680Y10680
X34180Y10680
X37180Y10680
X37180Y12680
X2680Y10680
T03
X2680Y9680
X2680Y11680
X2680Y12680
X2680Y13680
X2680Y14680
X2680Y15680
X4680Y17680
X5680Y17680
X5680Y15680
X5680Y14680
X5680Y13680
X7180Y13680
X7180Y14680
X7180Y15680
X9180Y17680
X10180Y17680
X10180Y15680
X10180Y14680
X10180Y13680
X11680Y13680
X11680Y14680
X11680Y15680
X13680Y17680
X14680Y17680
X14680Y15680
X14680Y14680
X14680Y13680
X16180Y13680
X16180Y14680
X16180Y15680
X18180Y17680
X19180Y17680
X19180Y15680
X19180Y14680
X19180Y13680
X20680Y13680
X20680Y14680
X20680Y15680
X22680Y17680
X23680Y17680
X23680Y15680
X23680Y14680
X23680Y13680
X25180Y13680
X25180Y14680
X25180Y15680
X27180Y17680
X28180Y17680
X28180Y15680
X28180Y14680
X28180Y13680
X29680Y13680
X29680Y14680
X29680Y15680
X31680Y17680
X32680Y17680
X32680Y15680
X32680Y14680
X32680Y13680
X34180Y13680
X34180Y14680
X34180Y15680
X36180Y17680
X37180Y17680
X35680Y19180
X35680Y20180
X35680Y21180
X35680Y22180
X35680Y23180
X35680Y24180
X35680Y25180
X34680Y26180
X33680Y26180
X32680Y26180
X31680Y26180
X30680Y26180
X29680Y26180
X28680Y26180
X27680Y26180
X26680Y26180
X25680Y26180
X24680Y27680
X24680Y28680
X25680Y29180
X26680Y29180
X27680Y29180
X28680Y29180
X29680Y29180
X30680Y29180
X31680Y29180
X32680Y29180
X33680Y29180
X34680Y29180
X37680Y26180
X38680Y26180
X38680Y25180
X38680Y24180
X38680Y23180
X38680Y22180
X38680Y21180
X38680Y20180
X38680Y19180
X37180Y15680
X37180Y14680
X37180Y13680
X37180Y11680
X37180Y9680
X34180Y9680
X32680Y9680
X32680Y11680
X34180Y11680
X34180Y12680
X29680Y12680
X29680Y11680
X28180Y11680
X28180Y9680
X29680Y9680
X25180Y9680
X23680Y9680
X23680Y11680
X25180Y11680
X25180Y12680
X20680Y12680
X20680Y11680
X19180Y11680
X19180Y9680
X20680Y9680
X16180Y9680
X14680Y9680
X14680Y11680
X16180Y11680
X16180Y12680
X11680Y12680
X11680Y11680
X10180Y11680
X10180Y9680
X11680Y9680
X7180Y9680
X5680Y9680
X5680Y11680
X7180Y11680
X7180Y12680
X3680Y7180
X3680Y6180
X3680Y4180
X3680Y3180
X13680Y20680
X14680Y20680
X15680Y20680
X16680Y20680
X17680Y20680
X18680Y20680
X19680Y20680
X20680Y20680
X20680Y23680
X20680Y24680
X19680Y24680
X19680Y23680
X18680Y23680
X18680Y24680
X17680Y24680
X17680Y23680
X16680Y23680
X16680Y24680
X15680Y24680
X15680Y23680
X14680Y23680
X14680Y24680
X13680Y24680
X13680Y23680
X12680Y24680
X11680Y26180
X10680Y26180
X9680Y26180
X8680Y26180
X7680Y26180
X6680Y26180
X5680Y26180
X4680Y26180
X3680Y26180
X2680Y26180
X1680Y28180
X1680Y29180
X2680Y29180
X3680Y29180
X4680Y29180
X5680Y29180
X6680Y29180
X7680Y29180
X8680Y29180
X9680Y29180
X10680Y29180
X11680Y29180
X13180Y29180
X13180Y28180
X14180Y29180
X15180Y29180
X16180Y29180
X17180Y29180
X18180Y29180
X19180Y29180
X20180Y29180
X21180Y29180
X22180Y29180
X23180Y29180
X23680Y30680
X24680Y30680
X23180Y26180
X22180Y26180
X21180Y26180
X20180Y26180
X19180Y26180
X18180Y26180
X17180Y26180
X16180Y26180
X15180Y26180
X14180Y26180
X10180Y24180
X9180Y24180
X8180Y24180
X7180Y24180
X6180Y24180
X5180Y24180
X4180Y24180
X3180Y24180
X2180Y24180
X2180Y23180
X3180Y21180
X4180Y21180
X5180Y21180
X6180Y21180
X7180Y21180
X8180Y21180
X9180Y21180
X10180Y21180
X24180Y20680
X26680Y20680
X27680Y20680
X28680Y20680
X29680Y20680
X30680Y20680
X31680Y20680
X32680Y20680
X33680Y20680
X33680Y23680
X33680Y24680
X32680Y24680
X32680Y23680
X31680Y23680
X31680Y24680
X30680Y24680
X30680Y23680
X29680Y23680
X29680Y24680
X28680Y24680
X28680Y23680
X27680Y23680
X27680Y24680
X26680Y24680
X26680Y23680
X25680Y24680
X24180Y23680
T04
X22680Y21680
X22680Y20680
X28180Y30680
X29180Y30680
X30180Y30680
X24680Y32680
X24680Y33680
X23680Y33680
X23680Y32680
X37180Y30680
X37180Y29680
X37180Y28680
X37180Y27680
X38180Y27680
X38180Y28680
X38180Y29680
X38180Y30680
X1680Y5680
X1680Y4680
X1680Y3680
T05
X22680Y23680
X22680Y32680
X22680Y33680
X21680Y33680
X21680Y32680
X20680Y32680
X20680Y33680
X19680Y33680
X19680Y32680
X18680Y32680
X18680Y33680
X17680Y33680
X17680Y32680
X16680Y32680
X16680Y33680
X15680Y33680
X15680Y32680
X14680Y32680
X14680Y33680
X13680Y33680
X13680Y32680
X12680Y32680
X12680Y33680
X11680Y33680
X11680Y32680
X10680Y32680
X10680Y33680
X9680Y33680
X9680Y32680
X8680Y32680
X8680Y33680
X7680Y33680
X7680Y32680
X6680Y32680
X6680Y33680
X5680Y33680
X5680Y32680
X4680Y32680
X4680Y33680
X3680Y33680
X3680Y32680
X25680Y32680
X25680Y33680
X26680Y33680
X26680Y32680
X27680Y32680
X27680Y33680
X28680Y33680
X28680Y32680
X29680Y32680
X29680Y33680
X30680Y33680
X30680Y32680
X31680Y32680
X31680Y33680
X32680Y33680
X32680Y32680
X33680Y32680
X33680Y33680
X34680Y33680
X34680Y32680
X35680Y32680
X35680Y33680
X36680Y33680
X36680Y32680
T06
X32180Y5180
X29680Y4180
X24680Y5180
X22180Y4180
X17180Y5180
X14680Y4180
X9680Y5180
X7180Y4180
T07
X6680Y3180
X10680Y3180
X14180Y3180
X18180Y3180
X21680Y3180
X25680Y3180
X29180Y3180
X33180Y3180
T08
X37180Y6570
X38361Y4680
T09
X1680Y1180
X35960Y4680
X38680Y1180
X38680Y34180
X1680Y34180
T10
X8680Y3180
X16180Y3180
X23680Y3180
X31180Y3180
M30
