G75*
%MOIN*%
%OFA0B0*%
%FSLAX24Y24*%
%IPPOS*%
%LPD*%
%AMOC8*
5,1,8,0,0,1.08239X$1,22.5*
%
%ADD10C,0.1330*%
%ADD11C,0.0600*%
%ADD12C,0.0600*%
%ADD13C,0.0680*%
%ADD14OC8,0.0680*%
%ADD15R,0.0680X0.0680*%
%ADD16R,0.0905X0.0905*%
%ADD17OC8,0.0600*%
%ADD18C,0.1830*%
%ADD19C,0.1580*%
%ADD20OC8,0.0640*%
%ADD21OC8,0.0710*%
%ADD22C,0.0710*%
D10*
X001680Y001680D03*
X001680Y034680D03*
X038680Y034680D03*
X038680Y001680D03*
D11*
X032180Y003920D02*
X032180Y004440D01*
X031180Y004440D02*
X031180Y003920D01*
X030180Y003920D02*
X030180Y004440D01*
X029180Y004440D02*
X029180Y003920D01*
X029180Y002940D02*
X029180Y002420D01*
X028180Y002420D02*
X028180Y002940D01*
X028180Y003920D02*
X028180Y004440D01*
X027180Y004440D02*
X027180Y003920D01*
X027180Y002940D02*
X027180Y002420D01*
X026180Y002420D02*
X026180Y002940D01*
X026180Y003920D02*
X026180Y004440D01*
X025180Y004440D02*
X025180Y003920D01*
X025180Y002940D02*
X025180Y002420D01*
X024180Y002420D02*
X024180Y002940D01*
X024180Y003920D02*
X024180Y004440D01*
X023180Y004440D02*
X023180Y003920D01*
X023180Y002940D02*
X023180Y002420D01*
X022180Y002420D02*
X022180Y002940D01*
X022180Y003920D02*
X022180Y004440D01*
X021180Y004440D02*
X021180Y003920D01*
X021180Y002940D02*
X021180Y002420D01*
X020180Y002420D02*
X020180Y002940D01*
X020180Y003920D02*
X020180Y004440D01*
X019180Y004440D02*
X019180Y003920D01*
X019180Y002940D02*
X019180Y002420D01*
X018180Y003920D02*
X018180Y004440D01*
X017180Y004440D02*
X017180Y003920D01*
X016180Y003920D02*
X016180Y004440D01*
X015180Y004440D02*
X015180Y003920D01*
X014180Y003920D02*
X014180Y004440D01*
X013180Y004440D02*
X013180Y003920D01*
X012180Y003920D02*
X012180Y004440D01*
X011180Y004440D02*
X011180Y003920D01*
X010180Y003920D02*
X010180Y004440D01*
X009180Y004440D02*
X009180Y003920D01*
X009180Y009920D02*
X009180Y010440D01*
X010180Y010440D02*
X010180Y009920D01*
X011180Y009920D02*
X011180Y010440D01*
X012180Y010440D02*
X012180Y009920D01*
X013180Y009920D02*
X013180Y010440D01*
X014180Y010440D02*
X014180Y009920D01*
X015180Y009920D02*
X015180Y010440D01*
X016180Y010440D02*
X016180Y009920D01*
X017180Y009920D02*
X017180Y010440D01*
X018180Y010440D02*
X018180Y009920D01*
X019180Y009920D02*
X019180Y010440D01*
X020180Y010440D02*
X020180Y009920D01*
X021180Y009920D02*
X021180Y010440D01*
X022180Y010440D02*
X022180Y009920D01*
X023180Y009920D02*
X023180Y010440D01*
X024180Y010440D02*
X024180Y009920D01*
X025180Y009920D02*
X025180Y010440D01*
X026180Y010440D02*
X026180Y009920D01*
X027180Y009920D02*
X027180Y010440D01*
X028180Y010440D02*
X028180Y009920D01*
X029180Y009920D02*
X029180Y010440D01*
X030180Y010440D02*
X030180Y009920D01*
X031180Y009920D02*
X031180Y010440D01*
X032180Y010440D02*
X032180Y009920D01*
X032180Y014420D02*
X032180Y014940D01*
X032180Y015920D02*
X032180Y016440D01*
X031180Y016440D02*
X031180Y015920D01*
X031180Y014940D02*
X031180Y014420D01*
X030180Y014420D02*
X030180Y014940D01*
X030180Y015920D02*
X030180Y016440D01*
X029180Y016440D02*
X029180Y015920D01*
X029180Y014940D02*
X029180Y014420D01*
X028180Y014420D02*
X028180Y014940D01*
X028180Y015920D02*
X028180Y016440D01*
X027180Y016440D02*
X027180Y015920D01*
X027180Y014940D02*
X027180Y014420D01*
X022680Y015920D02*
X022680Y016440D01*
X021680Y016440D02*
X021680Y015920D01*
X020680Y015920D02*
X020680Y016440D01*
X019680Y016440D02*
X019680Y015920D01*
X018680Y015920D02*
X018680Y016440D01*
X017680Y016440D02*
X017680Y015920D01*
X016680Y015920D02*
X016680Y016440D01*
X015680Y016440D02*
X015680Y015920D01*
X012180Y015920D02*
X012180Y016440D01*
X011180Y016440D02*
X011180Y015920D01*
X010180Y015920D02*
X010180Y016440D01*
X009180Y016440D02*
X009180Y015920D01*
X008180Y015920D02*
X008180Y016440D01*
X007180Y016440D02*
X007180Y015920D01*
X006180Y015920D02*
X006180Y016440D01*
X006180Y018920D02*
X006180Y019440D01*
X007180Y019440D02*
X007180Y018920D01*
X008180Y018920D02*
X008180Y019440D01*
X009180Y019440D02*
X009180Y018920D01*
X010180Y018920D02*
X010180Y019440D01*
X011180Y019440D02*
X011180Y018920D01*
X012180Y018920D02*
X012180Y019440D01*
X011180Y020920D02*
X011180Y021440D01*
X010180Y021440D02*
X010180Y020920D01*
X009180Y020920D02*
X009180Y021440D01*
X008180Y021440D02*
X008180Y020920D01*
X007180Y020920D02*
X007180Y021440D01*
X006180Y021440D02*
X006180Y020920D01*
X005180Y020920D02*
X005180Y021440D01*
X004180Y021440D02*
X004180Y020920D01*
X003180Y020920D02*
X003180Y021440D01*
X002180Y021440D02*
X002180Y020920D01*
X002180Y023920D02*
X002180Y024440D01*
X003180Y024440D02*
X003180Y023920D01*
X004180Y023920D02*
X004180Y024440D01*
X005180Y024440D02*
X005180Y023920D01*
X006180Y023920D02*
X006180Y024440D01*
X007180Y024440D02*
X007180Y023920D01*
X008180Y023920D02*
X008180Y024440D01*
X009180Y024440D02*
X009180Y023920D01*
X010180Y023920D02*
X010180Y024440D01*
X011180Y024440D02*
X011180Y023920D01*
X013680Y023920D02*
X013680Y024440D01*
X014680Y024440D02*
X014680Y023920D01*
X015680Y023920D02*
X015680Y024440D01*
X016680Y024440D02*
X016680Y023920D01*
X017680Y023920D02*
X017680Y024440D01*
X018680Y024440D02*
X018680Y023920D01*
X019680Y023920D02*
X019680Y024440D01*
X020680Y024440D02*
X020680Y023920D01*
X021680Y023920D02*
X021680Y024440D01*
X022680Y024440D02*
X022680Y023920D01*
X022680Y021440D02*
X022680Y020920D01*
X021680Y020920D02*
X021680Y021440D01*
X020680Y021440D02*
X020680Y020920D01*
X019680Y020920D02*
X019680Y021440D01*
X018680Y021440D02*
X018680Y020920D01*
X017680Y020920D02*
X017680Y021440D01*
X016680Y021440D02*
X016680Y020920D01*
X015680Y020920D02*
X015680Y021440D01*
X014680Y021440D02*
X014680Y020920D01*
X013680Y020920D02*
X013680Y021440D01*
X015680Y019440D02*
X015680Y018920D01*
X016680Y018920D02*
X016680Y019440D01*
X017680Y019440D02*
X017680Y018920D01*
X018680Y018920D02*
X018680Y019440D01*
X019680Y019440D02*
X019680Y018920D01*
X020680Y018920D02*
X020680Y019440D01*
X021680Y019440D02*
X021680Y018920D01*
X022680Y018920D02*
X022680Y019440D01*
X027180Y019440D02*
X027180Y018920D01*
X028180Y018920D02*
X028180Y019440D01*
X029180Y019440D02*
X029180Y018920D01*
X030180Y018920D02*
X030180Y019440D01*
X031180Y019440D02*
X031180Y018920D01*
X032180Y018920D02*
X032180Y019440D01*
X033180Y019440D02*
X033180Y018920D01*
X034180Y018920D02*
X034180Y019440D01*
X035180Y019440D02*
X035180Y018920D01*
X036180Y018920D02*
X036180Y019440D01*
X037180Y019440D02*
X037180Y018920D01*
X038180Y018920D02*
X038180Y019440D01*
X037680Y020920D02*
X037680Y021440D01*
X036680Y021440D02*
X036680Y020920D01*
X035680Y020920D02*
X035680Y021440D01*
X034680Y021440D02*
X034680Y020920D01*
X033680Y020920D02*
X033680Y021440D01*
X032680Y021440D02*
X032680Y020920D01*
X031680Y020920D02*
X031680Y021440D01*
X030680Y021440D02*
X030680Y020920D01*
X029680Y020920D02*
X029680Y021440D01*
X028680Y021440D02*
X028680Y020920D01*
X028680Y023920D02*
X028680Y024440D01*
X029680Y024440D02*
X029680Y023920D01*
X030680Y023920D02*
X030680Y024440D01*
X031680Y024440D02*
X031680Y023920D01*
X032680Y023920D02*
X032680Y024440D01*
X033680Y024440D02*
X033680Y023920D01*
X034680Y023920D02*
X034680Y024440D01*
X035680Y024440D02*
X035680Y023920D01*
X036680Y023920D02*
X036680Y024440D01*
X037680Y024440D02*
X037680Y023920D01*
X037680Y027420D02*
X037680Y027940D01*
X036680Y027940D02*
X036680Y027420D01*
X035680Y027420D02*
X035680Y027940D01*
X034680Y027940D02*
X034680Y027420D01*
X033680Y027420D02*
X033680Y027940D01*
X032680Y027940D02*
X032680Y027420D01*
X031680Y027420D02*
X031680Y027940D01*
X030680Y027940D02*
X030680Y027420D01*
X029680Y027420D02*
X029680Y027940D01*
X028680Y027940D02*
X028680Y027420D01*
X027680Y027420D02*
X027680Y027940D01*
X026680Y027940D02*
X026680Y027420D01*
X026680Y030420D02*
X026680Y030940D01*
X027680Y030940D02*
X027680Y030420D01*
X028680Y030420D02*
X028680Y030940D01*
X029680Y030940D02*
X029680Y030420D01*
X030680Y030420D02*
X030680Y030940D01*
X031680Y030940D02*
X031680Y030420D01*
X032680Y030420D02*
X032680Y030940D01*
X033680Y030940D02*
X033680Y030420D01*
X034680Y030420D02*
X034680Y030940D01*
X035680Y030940D02*
X035680Y030420D01*
X036680Y030420D02*
X036680Y030940D01*
X037680Y030940D02*
X037680Y030420D01*
X022680Y030440D02*
X022680Y029920D01*
X021680Y029920D02*
X021680Y030440D01*
X020680Y030440D02*
X020680Y029920D01*
X019680Y029920D02*
X019680Y030440D01*
X018680Y030440D02*
X018680Y029920D01*
X017680Y029920D02*
X017680Y030440D01*
X016680Y030440D02*
X016680Y029920D01*
X015680Y029920D02*
X015680Y030440D01*
X014680Y030440D02*
X014680Y029920D01*
X013680Y029920D02*
X013680Y030440D01*
X011180Y030440D02*
X011180Y029920D01*
X010180Y029920D02*
X010180Y030440D01*
X009180Y030440D02*
X009180Y029920D01*
X008180Y029920D02*
X008180Y030440D01*
X007180Y030440D02*
X007180Y029920D01*
X006180Y029920D02*
X006180Y030440D01*
X005180Y030440D02*
X005180Y029920D01*
X004180Y029920D02*
X004180Y030440D01*
X003180Y030440D02*
X003180Y029920D01*
X002180Y029920D02*
X002180Y030440D01*
X002180Y027440D02*
X002180Y026920D01*
X003180Y026920D02*
X003180Y027440D01*
X004180Y027440D02*
X004180Y026920D01*
X005180Y026920D02*
X005180Y027440D01*
X006180Y027440D02*
X006180Y026920D01*
X007180Y026920D02*
X007180Y027440D01*
X008180Y027440D02*
X008180Y026920D01*
X009180Y026920D02*
X009180Y027440D01*
X010180Y027440D02*
X010180Y026920D01*
X011180Y026920D02*
X011180Y027440D01*
X013680Y027440D02*
X013680Y026920D01*
X014680Y026920D02*
X014680Y027440D01*
X015680Y027440D02*
X015680Y026920D01*
X016680Y026920D02*
X016680Y027440D01*
X017680Y027440D02*
X017680Y026920D01*
X018680Y026920D02*
X018680Y027440D01*
X019680Y027440D02*
X019680Y026920D01*
X020680Y026920D02*
X020680Y027440D01*
X021680Y027440D02*
X021680Y026920D01*
X022680Y026920D02*
X022680Y027440D01*
X033180Y016440D02*
X033180Y015920D01*
X033180Y014940D02*
X033180Y014420D01*
X034180Y014420D02*
X034180Y014940D01*
X034180Y015920D02*
X034180Y016440D01*
X035180Y016440D02*
X035180Y015920D01*
X035180Y014940D02*
X035180Y014420D01*
X036180Y015920D02*
X036180Y016440D01*
X037180Y016440D02*
X037180Y015920D01*
X038180Y015920D02*
X038180Y016440D01*
D12*
X006680Y007680D03*
X003680Y007680D03*
X003680Y004680D03*
X006680Y004680D03*
D13*
X001980Y007680D02*
X001380Y007680D01*
X001380Y008680D02*
X001980Y008680D01*
X001980Y009680D02*
X001380Y009680D01*
D14*
X003680Y033180D03*
X004680Y033180D03*
X004680Y034180D03*
X003680Y034180D03*
X005680Y034180D03*
X006680Y034180D03*
X006680Y033180D03*
X005680Y033180D03*
X007680Y033180D03*
X008680Y033180D03*
X009680Y033180D03*
X009680Y034180D03*
X008680Y034180D03*
X007680Y034180D03*
X010680Y034180D03*
X011680Y034180D03*
X011680Y033180D03*
X010680Y033180D03*
X012680Y033180D03*
X013680Y033180D03*
X013680Y034180D03*
X012680Y034180D03*
X014680Y034180D03*
X015680Y034180D03*
X015680Y033180D03*
X014680Y033180D03*
X016680Y033180D03*
X017680Y033180D03*
X017680Y034180D03*
X016680Y034180D03*
X018680Y034180D03*
X019680Y034180D03*
X019680Y033180D03*
X018680Y033180D03*
X020680Y033180D03*
X021680Y033180D03*
X021680Y034180D03*
X020680Y034180D03*
X022680Y034180D03*
X022680Y033180D03*
X025680Y033180D03*
X025680Y034180D03*
X026680Y034180D03*
X027680Y034180D03*
X027680Y033180D03*
X026680Y033180D03*
X028680Y033180D03*
X029680Y033180D03*
X029680Y034180D03*
X028680Y034180D03*
X030680Y034180D03*
X031680Y034180D03*
X032680Y034180D03*
X032680Y033180D03*
X031680Y033180D03*
X030680Y033180D03*
X033680Y033180D03*
X034680Y033180D03*
X034680Y034180D03*
X033680Y034180D03*
X035680Y034180D03*
X036680Y034180D03*
X036680Y033180D03*
X035680Y033180D03*
D15*
X001690Y014065D03*
X001690Y012295D03*
D16*
X002670Y011800D03*
X002670Y014560D03*
D17*
X005180Y018180D03*
X005180Y019180D03*
X001180Y023180D03*
X001180Y024180D03*
X001180Y029180D03*
X001180Y030180D03*
X012680Y030180D03*
X012680Y029180D03*
X012680Y024180D03*
X012680Y023180D03*
X014680Y019180D03*
X014680Y018180D03*
X026180Y018180D03*
X026180Y019180D03*
X027680Y023180D03*
X027680Y024180D03*
X025680Y029680D03*
X025680Y030680D03*
X001680Y005680D03*
X001680Y004680D03*
X013180Y002680D03*
X015180Y002680D03*
X016680Y002680D03*
X017680Y002680D03*
X030180Y002680D03*
X033180Y002680D03*
X035180Y002680D03*
X036180Y002680D03*
D18*
X034460Y007180D03*
D19*
X035680Y009070D03*
X036861Y007180D03*
D20*
X024680Y033180D03*
X024680Y034180D03*
X023680Y034180D03*
X023680Y033180D03*
D21*
X037680Y012180D03*
D22*
X037680Y011180D03*
M02*
