G75*
%MOIN*%
%OFA0B0*%
%FSLAX24Y24*%
%IPPOS*%
%LPD*%
%AMOC8*
5,1,8,0,0,1.08239X$1,22.5*
%
%ADD10C,0.0000*%
D10*
X000680Y000680D02*
X000680Y035680D01*
X039680Y035680D01*
X039680Y000680D01*
X000680Y000680D01*
X001055Y001680D02*
X001057Y001730D01*
X001063Y001779D01*
X001073Y001828D01*
X001086Y001875D01*
X001104Y001922D01*
X001125Y001967D01*
X001149Y002010D01*
X001177Y002051D01*
X001208Y002090D01*
X001242Y002126D01*
X001279Y002160D01*
X001319Y002190D01*
X001360Y002217D01*
X001404Y002241D01*
X001449Y002261D01*
X001496Y002277D01*
X001544Y002290D01*
X001593Y002299D01*
X001643Y002304D01*
X001692Y002305D01*
X001742Y002302D01*
X001791Y002295D01*
X001840Y002284D01*
X001887Y002270D01*
X001933Y002251D01*
X001978Y002229D01*
X002021Y002204D01*
X002061Y002175D01*
X002099Y002143D01*
X002135Y002109D01*
X002168Y002071D01*
X002197Y002031D01*
X002223Y001989D01*
X002246Y001945D01*
X002265Y001899D01*
X002281Y001852D01*
X002293Y001803D01*
X002301Y001754D01*
X002305Y001705D01*
X002305Y001655D01*
X002301Y001606D01*
X002293Y001557D01*
X002281Y001508D01*
X002265Y001461D01*
X002246Y001415D01*
X002223Y001371D01*
X002197Y001329D01*
X002168Y001289D01*
X002135Y001251D01*
X002099Y001217D01*
X002061Y001185D01*
X002021Y001156D01*
X001978Y001131D01*
X001933Y001109D01*
X001887Y001090D01*
X001840Y001076D01*
X001791Y001065D01*
X001742Y001058D01*
X001692Y001055D01*
X001643Y001056D01*
X001593Y001061D01*
X001544Y001070D01*
X001496Y001083D01*
X001449Y001099D01*
X001404Y001119D01*
X001360Y001143D01*
X001319Y001170D01*
X001279Y001200D01*
X001242Y001234D01*
X001208Y001270D01*
X001177Y001309D01*
X001149Y001350D01*
X001125Y001393D01*
X001104Y001438D01*
X001086Y001485D01*
X001073Y001532D01*
X001063Y001581D01*
X001057Y001630D01*
X001055Y001680D01*
X001055Y034680D02*
X001057Y034730D01*
X001063Y034779D01*
X001073Y034828D01*
X001086Y034875D01*
X001104Y034922D01*
X001125Y034967D01*
X001149Y035010D01*
X001177Y035051D01*
X001208Y035090D01*
X001242Y035126D01*
X001279Y035160D01*
X001319Y035190D01*
X001360Y035217D01*
X001404Y035241D01*
X001449Y035261D01*
X001496Y035277D01*
X001544Y035290D01*
X001593Y035299D01*
X001643Y035304D01*
X001692Y035305D01*
X001742Y035302D01*
X001791Y035295D01*
X001840Y035284D01*
X001887Y035270D01*
X001933Y035251D01*
X001978Y035229D01*
X002021Y035204D01*
X002061Y035175D01*
X002099Y035143D01*
X002135Y035109D01*
X002168Y035071D01*
X002197Y035031D01*
X002223Y034989D01*
X002246Y034945D01*
X002265Y034899D01*
X002281Y034852D01*
X002293Y034803D01*
X002301Y034754D01*
X002305Y034705D01*
X002305Y034655D01*
X002301Y034606D01*
X002293Y034557D01*
X002281Y034508D01*
X002265Y034461D01*
X002246Y034415D01*
X002223Y034371D01*
X002197Y034329D01*
X002168Y034289D01*
X002135Y034251D01*
X002099Y034217D01*
X002061Y034185D01*
X002021Y034156D01*
X001978Y034131D01*
X001933Y034109D01*
X001887Y034090D01*
X001840Y034076D01*
X001791Y034065D01*
X001742Y034058D01*
X001692Y034055D01*
X001643Y034056D01*
X001593Y034061D01*
X001544Y034070D01*
X001496Y034083D01*
X001449Y034099D01*
X001404Y034119D01*
X001360Y034143D01*
X001319Y034170D01*
X001279Y034200D01*
X001242Y034234D01*
X001208Y034270D01*
X001177Y034309D01*
X001149Y034350D01*
X001125Y034393D01*
X001104Y034438D01*
X001086Y034485D01*
X001073Y034532D01*
X001063Y034581D01*
X001057Y034630D01*
X001055Y034680D01*
X038055Y034680D02*
X038057Y034730D01*
X038063Y034779D01*
X038073Y034828D01*
X038086Y034875D01*
X038104Y034922D01*
X038125Y034967D01*
X038149Y035010D01*
X038177Y035051D01*
X038208Y035090D01*
X038242Y035126D01*
X038279Y035160D01*
X038319Y035190D01*
X038360Y035217D01*
X038404Y035241D01*
X038449Y035261D01*
X038496Y035277D01*
X038544Y035290D01*
X038593Y035299D01*
X038643Y035304D01*
X038692Y035305D01*
X038742Y035302D01*
X038791Y035295D01*
X038840Y035284D01*
X038887Y035270D01*
X038933Y035251D01*
X038978Y035229D01*
X039021Y035204D01*
X039061Y035175D01*
X039099Y035143D01*
X039135Y035109D01*
X039168Y035071D01*
X039197Y035031D01*
X039223Y034989D01*
X039246Y034945D01*
X039265Y034899D01*
X039281Y034852D01*
X039293Y034803D01*
X039301Y034754D01*
X039305Y034705D01*
X039305Y034655D01*
X039301Y034606D01*
X039293Y034557D01*
X039281Y034508D01*
X039265Y034461D01*
X039246Y034415D01*
X039223Y034371D01*
X039197Y034329D01*
X039168Y034289D01*
X039135Y034251D01*
X039099Y034217D01*
X039061Y034185D01*
X039021Y034156D01*
X038978Y034131D01*
X038933Y034109D01*
X038887Y034090D01*
X038840Y034076D01*
X038791Y034065D01*
X038742Y034058D01*
X038692Y034055D01*
X038643Y034056D01*
X038593Y034061D01*
X038544Y034070D01*
X038496Y034083D01*
X038449Y034099D01*
X038404Y034119D01*
X038360Y034143D01*
X038319Y034170D01*
X038279Y034200D01*
X038242Y034234D01*
X038208Y034270D01*
X038177Y034309D01*
X038149Y034350D01*
X038125Y034393D01*
X038104Y034438D01*
X038086Y034485D01*
X038073Y034532D01*
X038063Y034581D01*
X038057Y034630D01*
X038055Y034680D01*
X038055Y001680D02*
X038057Y001730D01*
X038063Y001779D01*
X038073Y001828D01*
X038086Y001875D01*
X038104Y001922D01*
X038125Y001967D01*
X038149Y002010D01*
X038177Y002051D01*
X038208Y002090D01*
X038242Y002126D01*
X038279Y002160D01*
X038319Y002190D01*
X038360Y002217D01*
X038404Y002241D01*
X038449Y002261D01*
X038496Y002277D01*
X038544Y002290D01*
X038593Y002299D01*
X038643Y002304D01*
X038692Y002305D01*
X038742Y002302D01*
X038791Y002295D01*
X038840Y002284D01*
X038887Y002270D01*
X038933Y002251D01*
X038978Y002229D01*
X039021Y002204D01*
X039061Y002175D01*
X039099Y002143D01*
X039135Y002109D01*
X039168Y002071D01*
X039197Y002031D01*
X039223Y001989D01*
X039246Y001945D01*
X039265Y001899D01*
X039281Y001852D01*
X039293Y001803D01*
X039301Y001754D01*
X039305Y001705D01*
X039305Y001655D01*
X039301Y001606D01*
X039293Y001557D01*
X039281Y001508D01*
X039265Y001461D01*
X039246Y001415D01*
X039223Y001371D01*
X039197Y001329D01*
X039168Y001289D01*
X039135Y001251D01*
X039099Y001217D01*
X039061Y001185D01*
X039021Y001156D01*
X038978Y001131D01*
X038933Y001109D01*
X038887Y001090D01*
X038840Y001076D01*
X038791Y001065D01*
X038742Y001058D01*
X038692Y001055D01*
X038643Y001056D01*
X038593Y001061D01*
X038544Y001070D01*
X038496Y001083D01*
X038449Y001099D01*
X038404Y001119D01*
X038360Y001143D01*
X038319Y001170D01*
X038279Y001200D01*
X038242Y001234D01*
X038208Y001270D01*
X038177Y001309D01*
X038149Y001350D01*
X038125Y001393D01*
X038104Y001438D01*
X038086Y001485D01*
X038073Y001532D01*
X038063Y001581D01*
X038057Y001630D01*
X038055Y001680D01*
M02*
