G75*
%MOIN*%
%OFA0B0*%
%FSLAX24Y24*%
%IPPOS*%
%LPD*%
%AMOC8*
5,1,8,0,0,1.08239X$1,22.5*
%
%ADD10C,0.0040*%
%ADD11C,0.0060*%
%ADD12C,0.0050*%
%ADD13C,0.0100*%
%ADD14C,0.0120*%
%ADD15C,0.0070*%
%ADD16C,0.0080*%
%ADD17R,0.0150X0.0200*%
D10*
X004200Y001200D02*
X004507Y001200D01*
X004660Y001277D02*
X004660Y001353D01*
X004737Y001430D01*
X004891Y001430D01*
X004967Y001353D01*
X004967Y001277D01*
X004891Y001200D01*
X004737Y001200D01*
X004660Y001277D01*
X004737Y001430D02*
X004660Y001507D01*
X004660Y001584D01*
X004737Y001660D01*
X004891Y001660D01*
X004967Y001584D01*
X004967Y001507D01*
X004891Y001430D01*
X005121Y001277D02*
X005428Y001584D01*
X005428Y001277D01*
X005351Y001200D01*
X005198Y001200D01*
X005121Y001277D01*
X005121Y001584D01*
X005198Y001660D01*
X005351Y001660D01*
X005428Y001584D01*
X005581Y001584D02*
X005658Y001660D01*
X005811Y001660D01*
X005888Y001584D01*
X005581Y001277D01*
X005658Y001200D01*
X005811Y001200D01*
X005888Y001277D01*
X005888Y001584D01*
X006042Y001584D02*
X006118Y001660D01*
X006272Y001660D01*
X006348Y001584D01*
X006042Y001277D01*
X006118Y001200D01*
X006272Y001200D01*
X006348Y001277D01*
X006348Y001584D01*
X006502Y001430D02*
X006809Y001430D01*
X006962Y001430D02*
X007039Y001507D01*
X007269Y001507D01*
X007423Y001507D02*
X007653Y001507D01*
X007730Y001430D01*
X007730Y001277D01*
X007653Y001200D01*
X007423Y001200D01*
X007423Y001047D02*
X007423Y001507D01*
X007269Y001200D02*
X007039Y001200D01*
X006962Y001277D01*
X006962Y001430D01*
X007883Y001507D02*
X007883Y001277D01*
X007960Y001200D01*
X008190Y001200D01*
X008190Y001507D01*
X008804Y001584D02*
X008804Y001277D01*
X009111Y001584D01*
X009111Y001277D01*
X009034Y001200D01*
X008881Y001200D01*
X008804Y001277D01*
X008804Y001584D02*
X008881Y001660D01*
X009034Y001660D01*
X009111Y001584D01*
X009264Y001277D02*
X009341Y001277D01*
X009341Y001200D01*
X009264Y001200D01*
X009264Y001277D01*
X009495Y001277D02*
X009571Y001200D01*
X009725Y001200D01*
X009801Y001277D01*
X009801Y001353D01*
X009725Y001430D01*
X009495Y001430D01*
X009495Y001277D01*
X009495Y001430D02*
X009648Y001584D01*
X009801Y001660D01*
X010415Y001507D02*
X010415Y001277D01*
X010492Y001200D01*
X010569Y001277D01*
X010645Y001200D01*
X010722Y001277D01*
X010722Y001507D01*
X010876Y001507D02*
X010876Y001277D01*
X010952Y001200D01*
X011029Y001277D01*
X011106Y001200D01*
X011183Y001277D01*
X011183Y001507D01*
X011336Y001507D02*
X011336Y001277D01*
X011413Y001200D01*
X011490Y001277D01*
X011566Y001200D01*
X011643Y001277D01*
X011643Y001507D01*
X011796Y001277D02*
X011873Y001277D01*
X011873Y001200D01*
X011796Y001200D01*
X011796Y001277D01*
X012027Y001200D02*
X012257Y001200D01*
X012334Y001277D01*
X012257Y001353D01*
X012103Y001353D01*
X012027Y001430D01*
X012103Y001507D01*
X012334Y001507D01*
X012487Y001507D02*
X012564Y001507D01*
X012641Y001430D01*
X012717Y001507D01*
X012794Y001430D01*
X012794Y001200D01*
X012947Y001200D02*
X012947Y001660D01*
X012947Y001507D02*
X013178Y001507D01*
X013254Y001430D01*
X013254Y001277D01*
X013178Y001200D01*
X012947Y001200D01*
X012641Y001200D02*
X012641Y001430D01*
X012487Y001507D02*
X012487Y001200D01*
X013408Y001277D02*
X013485Y001353D01*
X013715Y001353D01*
X013715Y001430D02*
X013715Y001200D01*
X013485Y001200D01*
X013408Y001277D01*
X013485Y001507D02*
X013638Y001507D01*
X013715Y001430D01*
X013868Y001353D02*
X014098Y001507D01*
X014252Y001430D02*
X014329Y001507D01*
X014482Y001507D01*
X014559Y001430D01*
X014559Y001353D01*
X014252Y001353D01*
X014252Y001277D02*
X014252Y001430D01*
X014252Y001277D02*
X014329Y001200D01*
X014482Y001200D01*
X014712Y001200D02*
X014712Y001507D01*
X014712Y001353D02*
X014866Y001507D01*
X014942Y001507D01*
X015096Y001277D02*
X015173Y001277D01*
X015173Y001200D01*
X015096Y001200D01*
X015096Y001277D01*
X015326Y001277D02*
X015403Y001200D01*
X015633Y001200D01*
X015787Y001277D02*
X015863Y001200D01*
X016017Y001200D01*
X016093Y001277D01*
X016093Y001430D01*
X016017Y001507D01*
X015863Y001507D01*
X015787Y001430D01*
X015787Y001277D01*
X015633Y001507D02*
X015403Y001507D01*
X015326Y001430D01*
X015326Y001277D01*
X016247Y001200D02*
X016247Y001507D01*
X016324Y001507D01*
X016400Y001430D01*
X016477Y001507D01*
X016554Y001430D01*
X016554Y001200D01*
X016400Y001200D02*
X016400Y001430D01*
X014098Y001200D02*
X013868Y001353D01*
X013868Y001200D02*
X013868Y001660D01*
X006042Y001584D02*
X006042Y001277D01*
X005581Y001277D02*
X005581Y001584D01*
X004507Y001584D02*
X004200Y001277D01*
X004200Y001200D01*
X004200Y001660D02*
X004507Y001660D01*
X004507Y001584D01*
X005683Y011373D02*
X005683Y011987D01*
X005759Y011910D02*
X005836Y011834D01*
X005759Y011910D02*
X005606Y011910D01*
X005529Y011834D01*
X005529Y011757D01*
X005606Y011680D01*
X005759Y011680D01*
X005836Y011603D01*
X005836Y011527D01*
X005759Y011450D01*
X005606Y011450D01*
X005529Y011527D01*
X005376Y011527D02*
X005376Y011910D01*
X005069Y011910D02*
X005069Y011527D01*
X005146Y011450D01*
X005299Y011450D01*
X005376Y011527D01*
X005990Y011680D02*
X006297Y011680D01*
X006220Y011450D02*
X006220Y011910D01*
X005990Y011680D01*
X001510Y021500D02*
X001510Y021653D01*
X001510Y021577D02*
X001050Y021577D01*
X001050Y021653D02*
X001050Y021500D01*
X001126Y021807D02*
X001433Y021807D01*
X001510Y021884D01*
X001510Y022037D01*
X001433Y022114D01*
X001510Y022267D02*
X001510Y022574D01*
X001510Y022421D02*
X001050Y022421D01*
X001203Y022267D01*
X001126Y022114D02*
X001050Y022037D01*
X001050Y021884D01*
X001126Y021807D01*
X001050Y027500D02*
X001050Y027653D01*
X001050Y027577D02*
X001510Y027577D01*
X001510Y027653D02*
X001510Y027500D01*
X001433Y027807D02*
X001126Y027807D01*
X001050Y027884D01*
X001050Y028037D01*
X001126Y028114D01*
X001126Y028267D02*
X001050Y028344D01*
X001050Y028498D01*
X001126Y028574D01*
X001203Y028574D01*
X001280Y028498D01*
X001357Y028574D01*
X001433Y028574D01*
X001510Y028498D01*
X001510Y028344D01*
X001433Y028267D01*
X001433Y028114D02*
X001510Y028037D01*
X001510Y027884D01*
X001433Y027807D01*
X001280Y028421D02*
X001280Y028498D01*
X012550Y028498D02*
X012780Y028267D01*
X012780Y028574D01*
X013010Y028498D02*
X012550Y028498D01*
X012626Y028114D02*
X012550Y028037D01*
X012550Y027884D01*
X012626Y027807D01*
X012933Y027807D01*
X013010Y027884D01*
X013010Y028037D01*
X012933Y028114D01*
X013010Y027653D02*
X013010Y027500D01*
X013010Y027577D02*
X012550Y027577D01*
X012550Y027653D02*
X012550Y027500D01*
X012626Y022574D02*
X012550Y022498D01*
X012550Y022344D01*
X012626Y022267D01*
X012626Y022114D02*
X012550Y022037D01*
X012550Y021884D01*
X012626Y021807D01*
X012933Y021807D01*
X013010Y021884D01*
X013010Y022037D01*
X012933Y022114D01*
X013010Y022267D02*
X012703Y022574D01*
X012626Y022574D01*
X013010Y022574D02*
X013010Y022267D01*
X013010Y021653D02*
X013010Y021500D01*
X013010Y021577D02*
X012550Y021577D01*
X012550Y021653D02*
X012550Y021500D01*
X027550Y021500D02*
X027550Y021653D01*
X027550Y021577D02*
X028010Y021577D01*
X028010Y021653D02*
X028010Y021500D01*
X027933Y021807D02*
X028010Y021884D01*
X028010Y022037D01*
X027933Y022114D01*
X027933Y022267D02*
X028010Y022267D01*
X027933Y022267D02*
X027626Y022574D01*
X027550Y022574D01*
X027550Y022267D01*
X027626Y022114D02*
X027550Y022037D01*
X027550Y021884D01*
X027626Y021807D01*
X027933Y021807D01*
X033200Y006391D02*
X033430Y006160D01*
X033430Y006467D01*
X033660Y006391D02*
X033200Y006391D01*
X033200Y006007D02*
X033200Y005853D01*
X033200Y005930D02*
X033583Y005930D01*
X033660Y005853D01*
X033660Y005777D01*
X033583Y005700D01*
X032458Y002150D02*
X032458Y001800D01*
X032574Y001800D02*
X032341Y001800D01*
X032215Y001800D02*
X032099Y001917D01*
X032157Y001917D02*
X031982Y001917D01*
X031982Y001800D02*
X031982Y002150D01*
X032157Y002150D01*
X032215Y002092D01*
X032215Y001975D01*
X032157Y001917D01*
X032341Y002034D02*
X032458Y002150D01*
D11*
X032430Y002280D02*
X032380Y002330D01*
X030980Y002330D01*
X030930Y002280D01*
X030780Y002280D01*
X030763Y002282D01*
X030746Y002286D01*
X030730Y002293D01*
X030716Y002303D01*
X030703Y002316D01*
X030693Y002330D01*
X030686Y002346D01*
X030682Y002363D01*
X030680Y002380D01*
X030680Y002980D01*
X030682Y002997D01*
X030686Y003014D01*
X030693Y003030D01*
X030703Y003044D01*
X030716Y003057D01*
X030730Y003067D01*
X030746Y003074D01*
X030763Y003078D01*
X030780Y003080D01*
X030930Y003080D01*
X030980Y003030D01*
X032380Y003030D01*
X032430Y003080D01*
X032580Y003080D01*
X032597Y003078D01*
X032614Y003074D01*
X032630Y003067D01*
X032644Y003057D01*
X032657Y003044D01*
X032667Y003030D01*
X032674Y003014D01*
X032678Y002997D01*
X032680Y002980D01*
X032680Y002380D01*
X032678Y002363D01*
X032674Y002346D01*
X032667Y002330D01*
X032657Y002316D01*
X032644Y002303D01*
X032630Y002293D01*
X032614Y002286D01*
X032597Y002282D01*
X032580Y002280D01*
X032430Y002280D01*
X032680Y004530D02*
X032680Y009830D01*
X008680Y009830D01*
X008680Y007530D01*
X008719Y007528D01*
X008758Y007522D01*
X008796Y007513D01*
X008833Y007500D01*
X008869Y007483D01*
X008902Y007463D01*
X008934Y007439D01*
X008963Y007413D01*
X008989Y007384D01*
X009013Y007352D01*
X009033Y007319D01*
X009050Y007283D01*
X009063Y007246D01*
X009072Y007208D01*
X009078Y007169D01*
X009080Y007130D01*
X009078Y007091D01*
X009072Y007052D01*
X009063Y007014D01*
X009050Y006977D01*
X009033Y006941D01*
X009013Y006908D01*
X008989Y006876D01*
X008963Y006847D01*
X008934Y006821D01*
X008902Y006797D01*
X008869Y006777D01*
X008833Y006760D01*
X008796Y006747D01*
X008758Y006738D01*
X008719Y006732D01*
X008680Y006730D01*
X008680Y004530D01*
X032680Y004530D01*
X029680Y002880D02*
X029680Y002480D01*
X029678Y002454D01*
X029673Y002428D01*
X029665Y002403D01*
X029653Y002380D01*
X029639Y002358D01*
X029621Y002339D01*
X029602Y002321D01*
X029580Y002307D01*
X029557Y002295D01*
X029532Y002287D01*
X029506Y002282D01*
X029480Y002280D01*
X018880Y002280D01*
X018830Y002330D02*
X018830Y003030D01*
X019530Y003030D01*
X019530Y002330D01*
X018830Y002330D01*
X018880Y002280D02*
X018854Y002282D01*
X018828Y002287D01*
X018803Y002295D01*
X018780Y002307D01*
X018758Y002321D01*
X018739Y002339D01*
X018721Y002358D01*
X018707Y002380D01*
X018695Y002403D01*
X018687Y002428D01*
X018682Y002454D01*
X018680Y002480D01*
X018680Y002880D01*
X018682Y002906D01*
X018687Y002932D01*
X018695Y002957D01*
X018707Y002980D01*
X018721Y003002D01*
X018739Y003021D01*
X018758Y003039D01*
X018780Y003053D01*
X018803Y003065D01*
X018828Y003073D01*
X018854Y003078D01*
X018880Y003080D01*
X029480Y003080D01*
X029506Y003078D01*
X029532Y003073D01*
X029557Y003065D01*
X029580Y003053D01*
X029602Y003039D01*
X029621Y003021D01*
X029639Y003002D01*
X029653Y002980D01*
X029665Y002957D01*
X029673Y002932D01*
X029678Y002906D01*
X029680Y002880D01*
X034680Y002680D02*
X034682Y002743D01*
X034688Y002805D01*
X034698Y002867D01*
X034711Y002929D01*
X034729Y002989D01*
X034750Y003048D01*
X034775Y003106D01*
X034804Y003162D01*
X034836Y003216D01*
X034871Y003268D01*
X034909Y003317D01*
X034951Y003365D01*
X034995Y003409D01*
X035043Y003451D01*
X035092Y003489D01*
X035144Y003524D01*
X035198Y003556D01*
X035254Y003585D01*
X035312Y003610D01*
X035371Y003631D01*
X035431Y003649D01*
X035493Y003662D01*
X035555Y003672D01*
X035617Y003678D01*
X035680Y003680D01*
X035743Y003678D01*
X035805Y003672D01*
X035867Y003662D01*
X035929Y003649D01*
X035989Y003631D01*
X036048Y003610D01*
X036106Y003585D01*
X036162Y003556D01*
X036216Y003524D01*
X036268Y003489D01*
X036317Y003451D01*
X036365Y003409D01*
X036409Y003365D01*
X036451Y003317D01*
X036489Y003268D01*
X036524Y003216D01*
X036556Y003162D01*
X036585Y003106D01*
X036610Y003048D01*
X036631Y002989D01*
X036649Y002929D01*
X036662Y002867D01*
X036672Y002805D01*
X036678Y002743D01*
X036680Y002680D01*
X036678Y002617D01*
X036672Y002555D01*
X036662Y002493D01*
X036649Y002431D01*
X036631Y002371D01*
X036610Y002312D01*
X036585Y002254D01*
X036556Y002198D01*
X036524Y002144D01*
X036489Y002092D01*
X036451Y002043D01*
X036409Y001995D01*
X036365Y001951D01*
X036317Y001909D01*
X036268Y001871D01*
X036216Y001836D01*
X036162Y001804D01*
X036106Y001775D01*
X036048Y001750D01*
X035989Y001729D01*
X035929Y001711D01*
X035867Y001698D01*
X035805Y001688D01*
X035743Y001682D01*
X035680Y001680D01*
X035617Y001682D01*
X035555Y001688D01*
X035493Y001698D01*
X035431Y001711D01*
X035371Y001729D01*
X035312Y001750D01*
X035254Y001775D01*
X035198Y001804D01*
X035144Y001836D01*
X035092Y001871D01*
X035043Y001909D01*
X034995Y001951D01*
X034951Y001995D01*
X034909Y002043D01*
X034871Y002092D01*
X034836Y002144D01*
X034804Y002198D01*
X034775Y002254D01*
X034750Y002312D01*
X034729Y002371D01*
X034711Y002431D01*
X034698Y002493D01*
X034688Y002555D01*
X034682Y002617D01*
X034680Y002680D01*
X037680Y010480D02*
X037680Y010780D01*
X037830Y010630D02*
X037530Y010630D01*
X036330Y011680D02*
X036332Y011753D01*
X036338Y011826D01*
X036348Y011898D01*
X036362Y011970D01*
X036379Y012041D01*
X036401Y012111D01*
X036426Y012180D01*
X036455Y012247D01*
X036487Y012312D01*
X036523Y012376D01*
X036563Y012438D01*
X036605Y012497D01*
X036651Y012554D01*
X036700Y012608D01*
X036752Y012660D01*
X036806Y012709D01*
X036863Y012755D01*
X036922Y012797D01*
X036984Y012837D01*
X037048Y012873D01*
X037113Y012905D01*
X037180Y012934D01*
X037249Y012959D01*
X037319Y012981D01*
X037390Y012998D01*
X037462Y013012D01*
X037534Y013022D01*
X037607Y013028D01*
X037680Y013030D01*
X037753Y013028D01*
X037826Y013022D01*
X037898Y013012D01*
X037970Y012998D01*
X038041Y012981D01*
X038111Y012959D01*
X038180Y012934D01*
X038247Y012905D01*
X038312Y012873D01*
X038376Y012837D01*
X038438Y012797D01*
X038497Y012755D01*
X038554Y012709D01*
X038608Y012660D01*
X038660Y012608D01*
X038709Y012554D01*
X038755Y012497D01*
X038797Y012438D01*
X038837Y012376D01*
X038873Y012312D01*
X038905Y012247D01*
X038934Y012180D01*
X038959Y012111D01*
X038981Y012041D01*
X038998Y011970D01*
X039012Y011898D01*
X039022Y011826D01*
X039028Y011753D01*
X039030Y011680D01*
X039028Y011607D01*
X039022Y011534D01*
X039012Y011462D01*
X038998Y011390D01*
X038981Y011319D01*
X038959Y011249D01*
X038934Y011180D01*
X038905Y011113D01*
X038873Y011048D01*
X038837Y010984D01*
X038797Y010922D01*
X038755Y010863D01*
X038709Y010806D01*
X038660Y010752D01*
X038608Y010700D01*
X038554Y010651D01*
X038497Y010605D01*
X038438Y010563D01*
X038376Y010523D01*
X038312Y010487D01*
X038247Y010455D01*
X038180Y010426D01*
X038111Y010401D01*
X038041Y010379D01*
X037970Y010362D01*
X037898Y010348D01*
X037826Y010338D01*
X037753Y010332D01*
X037680Y010330D01*
X037607Y010332D01*
X037534Y010338D01*
X037462Y010348D01*
X037390Y010362D01*
X037319Y010379D01*
X037249Y010401D01*
X037180Y010426D01*
X037113Y010455D01*
X037048Y010487D01*
X036984Y010523D01*
X036922Y010563D01*
X036863Y010605D01*
X036806Y010651D01*
X036752Y010700D01*
X036700Y010752D01*
X036651Y010806D01*
X036605Y010863D01*
X036563Y010922D01*
X036523Y010984D01*
X036487Y011048D01*
X036455Y011113D01*
X036426Y011180D01*
X036401Y011249D01*
X036379Y011319D01*
X036362Y011390D01*
X036348Y011462D01*
X036338Y011534D01*
X036332Y011607D01*
X036330Y011680D01*
X035480Y014280D02*
X026880Y014280D01*
X026830Y014330D02*
X026830Y015030D01*
X027530Y015030D01*
X027530Y014330D01*
X026830Y014330D01*
X026880Y014280D02*
X026854Y014282D01*
X026828Y014287D01*
X026803Y014295D01*
X026780Y014307D01*
X026758Y014321D01*
X026739Y014339D01*
X026721Y014358D01*
X026707Y014380D01*
X026695Y014403D01*
X026687Y014428D01*
X026682Y014454D01*
X026680Y014480D01*
X026680Y014880D01*
X026682Y014906D01*
X026687Y014932D01*
X026695Y014957D01*
X026707Y014980D01*
X026721Y015002D01*
X026739Y015021D01*
X026758Y015039D01*
X026780Y015053D01*
X026803Y015065D01*
X026828Y015073D01*
X026854Y015078D01*
X026880Y015080D01*
X035480Y015080D01*
X035506Y015078D01*
X035532Y015073D01*
X035557Y015065D01*
X035580Y015053D01*
X035602Y015039D01*
X035621Y015021D01*
X035639Y015002D01*
X035653Y014980D01*
X035665Y014957D01*
X035673Y014932D01*
X035678Y014906D01*
X035680Y014880D01*
X035680Y014480D01*
X035678Y014454D01*
X035673Y014428D01*
X035665Y014403D01*
X035653Y014380D01*
X035639Y014358D01*
X035621Y014339D01*
X035602Y014321D01*
X035580Y014307D01*
X035557Y014295D01*
X035532Y014287D01*
X035506Y014282D01*
X035480Y014280D01*
X038580Y016580D02*
X026780Y016580D01*
X026780Y017430D01*
X026810Y017432D01*
X026840Y017437D01*
X026869Y017446D01*
X026896Y017459D01*
X026922Y017474D01*
X026946Y017493D01*
X026967Y017514D01*
X026986Y017538D01*
X027001Y017564D01*
X027014Y017591D01*
X027023Y017620D01*
X027028Y017650D01*
X027030Y017680D01*
X027028Y017710D01*
X027023Y017740D01*
X027014Y017769D01*
X027001Y017796D01*
X026986Y017822D01*
X026967Y017846D01*
X026946Y017867D01*
X026922Y017886D01*
X026896Y017901D01*
X026869Y017914D01*
X026840Y017923D01*
X026810Y017928D01*
X026780Y017930D01*
X026780Y018780D01*
X038580Y018780D01*
X038580Y016580D01*
X038180Y021530D02*
X038180Y023830D01*
X028180Y023830D01*
X028180Y023080D01*
X028180Y022830D02*
X028180Y024530D01*
X028178Y024547D01*
X028174Y024564D01*
X028167Y024580D01*
X028157Y024594D01*
X028144Y024607D01*
X028130Y024617D01*
X028114Y024624D01*
X028097Y024628D01*
X028080Y024630D01*
X027280Y024630D01*
X027263Y024628D01*
X027246Y024624D01*
X027230Y024617D01*
X027216Y024607D01*
X027203Y024594D01*
X027193Y024580D01*
X027186Y024564D01*
X027182Y024547D01*
X027180Y024530D01*
X027180Y022830D01*
X027182Y022813D01*
X027186Y022796D01*
X027193Y022780D01*
X027203Y022766D01*
X027216Y022753D01*
X027230Y022743D01*
X027246Y022736D01*
X027263Y022732D01*
X027280Y022730D01*
X028080Y022730D01*
X028097Y022732D01*
X028114Y022736D01*
X028130Y022743D01*
X028144Y022753D01*
X028157Y022766D01*
X028167Y022780D01*
X028174Y022796D01*
X028178Y022813D01*
X028180Y022830D01*
X028180Y023080D02*
X028219Y023078D01*
X028258Y023072D01*
X028296Y023063D01*
X028333Y023050D01*
X028369Y023033D01*
X028402Y023013D01*
X028434Y022989D01*
X028463Y022963D01*
X028489Y022934D01*
X028513Y022902D01*
X028533Y022869D01*
X028550Y022833D01*
X028563Y022796D01*
X028572Y022758D01*
X028578Y022719D01*
X028580Y022680D01*
X028578Y022641D01*
X028572Y022602D01*
X028563Y022564D01*
X028550Y022527D01*
X028533Y022491D01*
X028513Y022458D01*
X028489Y022426D01*
X028463Y022397D01*
X028434Y022371D01*
X028402Y022347D01*
X028369Y022327D01*
X028333Y022310D01*
X028296Y022297D01*
X028258Y022288D01*
X028219Y022282D01*
X028180Y022280D01*
X028180Y021530D01*
X038180Y021530D01*
X038080Y028080D02*
X026280Y028080D01*
X026280Y028930D01*
X026310Y028932D01*
X026340Y028937D01*
X026369Y028946D01*
X026396Y028959D01*
X026422Y028974D01*
X026446Y028993D01*
X026467Y029014D01*
X026486Y029038D01*
X026501Y029064D01*
X026514Y029091D01*
X026523Y029120D01*
X026528Y029150D01*
X026530Y029180D01*
X026528Y029210D01*
X026523Y029240D01*
X026514Y029269D01*
X026501Y029296D01*
X026486Y029322D01*
X026467Y029346D01*
X026446Y029367D01*
X026422Y029386D01*
X026396Y029401D01*
X026369Y029414D01*
X026340Y029423D01*
X026310Y029428D01*
X026280Y029430D01*
X026280Y030280D01*
X038080Y030280D01*
X038080Y028080D01*
X036930Y032680D02*
X036430Y032680D01*
X036180Y032930D01*
X035930Y032680D01*
X035430Y032680D01*
X035180Y032930D01*
X034930Y032680D01*
X034430Y032680D01*
X034180Y032930D01*
X033930Y032680D01*
X033430Y032680D01*
X033180Y032930D01*
X032930Y032680D01*
X032430Y032680D01*
X032180Y032930D01*
X031930Y032680D01*
X031430Y032680D01*
X031180Y032930D01*
X030930Y032680D01*
X030430Y032680D01*
X030180Y032930D01*
X029930Y032680D01*
X029430Y032680D01*
X029180Y032930D01*
X028930Y032680D01*
X028430Y032680D01*
X028180Y032930D01*
X027930Y032680D01*
X027430Y032680D01*
X027180Y032930D01*
X026930Y032680D01*
X026430Y032680D01*
X026180Y032930D01*
X025930Y032680D01*
X025430Y032680D01*
X025180Y032930D01*
X025180Y034430D01*
X025430Y034680D01*
X025930Y034680D01*
X026180Y034430D01*
X026430Y034680D01*
X026930Y034680D01*
X027180Y034430D01*
X027430Y034680D01*
X027930Y034680D01*
X028180Y034430D01*
X028430Y034680D01*
X028930Y034680D01*
X029180Y034430D01*
X029430Y034680D01*
X029930Y034680D01*
X030180Y034430D01*
X030430Y034680D01*
X030930Y034680D01*
X031180Y034430D01*
X031430Y034680D01*
X031930Y034680D01*
X032180Y034430D01*
X032430Y034680D01*
X032930Y034680D01*
X033180Y034430D01*
X033430Y034680D01*
X033930Y034680D01*
X034180Y034430D01*
X034430Y034680D01*
X034930Y034680D01*
X035180Y034430D01*
X035430Y034680D01*
X035930Y034680D01*
X036180Y034430D01*
X036430Y034680D01*
X036930Y034680D01*
X037180Y034430D01*
X037180Y032930D01*
X036930Y032680D01*
X027680Y023830D02*
X027680Y023780D01*
X027680Y023580D02*
X027680Y023530D01*
X026580Y019630D02*
X025780Y019630D01*
X025763Y019628D01*
X025746Y019624D01*
X025730Y019617D01*
X025716Y019607D01*
X025703Y019594D01*
X025693Y019580D01*
X025686Y019564D01*
X025682Y019547D01*
X025680Y019530D01*
X025680Y017830D01*
X025682Y017813D01*
X025686Y017796D01*
X025693Y017780D01*
X025703Y017766D01*
X025716Y017753D01*
X025730Y017743D01*
X025746Y017736D01*
X025763Y017732D01*
X025780Y017730D01*
X026580Y017730D01*
X026597Y017732D01*
X026614Y017736D01*
X026630Y017743D01*
X026644Y017753D01*
X026657Y017766D01*
X026667Y017780D01*
X026674Y017796D01*
X026678Y017813D01*
X026680Y017830D01*
X026680Y019530D01*
X026678Y019547D01*
X026674Y019564D01*
X026667Y019580D01*
X026657Y019594D01*
X026644Y019607D01*
X026630Y019617D01*
X026614Y019624D01*
X026597Y019628D01*
X026580Y019630D01*
X026180Y018830D02*
X026180Y018780D01*
X026180Y018580D02*
X026180Y018530D01*
X023180Y018830D02*
X023180Y016530D01*
X015180Y016530D01*
X015180Y017280D01*
X015219Y017282D01*
X015258Y017288D01*
X015296Y017297D01*
X015333Y017310D01*
X015369Y017327D01*
X015402Y017347D01*
X015434Y017371D01*
X015463Y017397D01*
X015489Y017426D01*
X015513Y017458D01*
X015533Y017491D01*
X015550Y017527D01*
X015563Y017564D01*
X015572Y017602D01*
X015578Y017641D01*
X015580Y017680D01*
X015578Y017719D01*
X015572Y017758D01*
X015563Y017796D01*
X015550Y017833D01*
X015533Y017869D01*
X015513Y017902D01*
X015489Y017934D01*
X015463Y017963D01*
X015434Y017989D01*
X015402Y018013D01*
X015369Y018033D01*
X015333Y018050D01*
X015296Y018063D01*
X015258Y018072D01*
X015219Y018078D01*
X015180Y018080D01*
X015180Y018830D01*
X023180Y018830D01*
X023180Y021530D02*
X023180Y023830D01*
X013180Y023830D01*
X013180Y023080D01*
X013180Y022830D02*
X013180Y024530D01*
X013178Y024547D01*
X013174Y024564D01*
X013167Y024580D01*
X013157Y024594D01*
X013144Y024607D01*
X013130Y024617D01*
X013114Y024624D01*
X013097Y024628D01*
X013080Y024630D01*
X012280Y024630D01*
X012263Y024628D01*
X012246Y024624D01*
X012230Y024617D01*
X012216Y024607D01*
X012203Y024594D01*
X012193Y024580D01*
X012186Y024564D01*
X012182Y024547D01*
X012180Y024530D01*
X012180Y022830D01*
X012182Y022813D01*
X012186Y022796D01*
X012193Y022780D01*
X012203Y022766D01*
X012216Y022753D01*
X012230Y022743D01*
X012246Y022736D01*
X012263Y022732D01*
X012280Y022730D01*
X013080Y022730D01*
X013097Y022732D01*
X013114Y022736D01*
X013130Y022743D01*
X013144Y022753D01*
X013157Y022766D01*
X013167Y022780D01*
X013174Y022796D01*
X013178Y022813D01*
X013180Y022830D01*
X013180Y023080D02*
X013219Y023078D01*
X013258Y023072D01*
X013296Y023063D01*
X013333Y023050D01*
X013369Y023033D01*
X013402Y023013D01*
X013434Y022989D01*
X013463Y022963D01*
X013489Y022934D01*
X013513Y022902D01*
X013533Y022869D01*
X013550Y022833D01*
X013563Y022796D01*
X013572Y022758D01*
X013578Y022719D01*
X013580Y022680D01*
X013578Y022641D01*
X013572Y022602D01*
X013563Y022564D01*
X013550Y022527D01*
X013533Y022491D01*
X013513Y022458D01*
X013489Y022426D01*
X013463Y022397D01*
X013434Y022371D01*
X013402Y022347D01*
X013369Y022327D01*
X013333Y022310D01*
X013296Y022297D01*
X013258Y022288D01*
X013219Y022282D01*
X013180Y022280D01*
X013180Y021530D01*
X023180Y021530D01*
X023180Y027530D02*
X023180Y029830D01*
X013180Y029830D01*
X013180Y029080D01*
X013180Y028830D02*
X013180Y030530D01*
X013178Y030547D01*
X013174Y030564D01*
X013167Y030580D01*
X013157Y030594D01*
X013144Y030607D01*
X013130Y030617D01*
X013114Y030624D01*
X013097Y030628D01*
X013080Y030630D01*
X012280Y030630D01*
X012263Y030628D01*
X012246Y030624D01*
X012230Y030617D01*
X012216Y030607D01*
X012203Y030594D01*
X012193Y030580D01*
X012186Y030564D01*
X012182Y030547D01*
X012180Y030530D01*
X012180Y028830D01*
X012182Y028813D01*
X012186Y028796D01*
X012193Y028780D01*
X012203Y028766D01*
X012216Y028753D01*
X012230Y028743D01*
X012246Y028736D01*
X012263Y028732D01*
X012280Y028730D01*
X013080Y028730D01*
X013097Y028732D01*
X013114Y028736D01*
X013130Y028743D01*
X013144Y028753D01*
X013157Y028766D01*
X013167Y028780D01*
X013174Y028796D01*
X013178Y028813D01*
X013180Y028830D01*
X013180Y029080D02*
X013219Y029078D01*
X013258Y029072D01*
X013296Y029063D01*
X013333Y029050D01*
X013369Y029033D01*
X013402Y029013D01*
X013434Y028989D01*
X013463Y028963D01*
X013489Y028934D01*
X013513Y028902D01*
X013533Y028869D01*
X013550Y028833D01*
X013563Y028796D01*
X013572Y028758D01*
X013578Y028719D01*
X013580Y028680D01*
X013578Y028641D01*
X013572Y028602D01*
X013563Y028564D01*
X013550Y028527D01*
X013533Y028491D01*
X013513Y028458D01*
X013489Y028426D01*
X013463Y028397D01*
X013434Y028371D01*
X013402Y028347D01*
X013369Y028327D01*
X013333Y028310D01*
X013296Y028297D01*
X013258Y028288D01*
X013219Y028282D01*
X013180Y028280D01*
X013180Y027530D01*
X023180Y027530D01*
X025180Y029330D02*
X025180Y031030D01*
X025182Y031047D01*
X025186Y031064D01*
X025193Y031080D01*
X025203Y031094D01*
X025216Y031107D01*
X025230Y031117D01*
X025246Y031124D01*
X025263Y031128D01*
X025280Y031130D01*
X026080Y031130D01*
X026097Y031128D01*
X026114Y031124D01*
X026130Y031117D01*
X026144Y031107D01*
X026157Y031094D01*
X026167Y031080D01*
X026174Y031064D01*
X026178Y031047D01*
X026180Y031030D01*
X026180Y029330D01*
X026178Y029313D01*
X026174Y029296D01*
X026167Y029280D01*
X026157Y029266D01*
X026144Y029253D01*
X026130Y029243D01*
X026114Y029236D01*
X026097Y029232D01*
X026080Y029230D01*
X025280Y029230D01*
X025263Y029232D01*
X025246Y029236D01*
X025230Y029243D01*
X025216Y029253D01*
X025203Y029266D01*
X025193Y029280D01*
X025186Y029296D01*
X025182Y029313D01*
X025180Y029330D01*
X025680Y030030D02*
X025680Y030080D01*
X025680Y030280D02*
X025680Y030330D01*
X025030Y032680D02*
X024330Y032680D01*
X024180Y032830D01*
X024030Y032680D01*
X023330Y032680D01*
X023180Y032830D01*
X023180Y034530D01*
X023330Y034680D01*
X024030Y034680D01*
X024180Y034530D01*
X024330Y034680D01*
X025030Y034680D01*
X025180Y034530D01*
X025180Y032830D01*
X025030Y032680D01*
X023180Y032930D02*
X023180Y034430D01*
X022930Y034680D01*
X022430Y034680D01*
X022180Y034430D01*
X021930Y034680D01*
X021430Y034680D01*
X021180Y034430D01*
X020930Y034680D01*
X020430Y034680D01*
X020180Y034430D01*
X019930Y034680D01*
X019430Y034680D01*
X019180Y034430D01*
X018930Y034680D01*
X018430Y034680D01*
X018180Y034430D01*
X017930Y034680D01*
X017430Y034680D01*
X017180Y034430D01*
X016930Y034680D01*
X016430Y034680D01*
X016180Y034430D01*
X015930Y034680D01*
X015430Y034680D01*
X015180Y034430D01*
X014930Y034680D01*
X014430Y034680D01*
X014180Y034430D01*
X013930Y034680D01*
X013430Y034680D01*
X013180Y034430D01*
X012930Y034680D01*
X012430Y034680D01*
X012180Y034430D01*
X011930Y034680D01*
X011430Y034680D01*
X011180Y034430D01*
X010930Y034680D01*
X010430Y034680D01*
X010180Y034430D01*
X009930Y034680D01*
X009430Y034680D01*
X009180Y034430D01*
X008930Y034680D01*
X008430Y034680D01*
X008180Y034430D01*
X007930Y034680D01*
X007430Y034680D01*
X007180Y034430D01*
X006930Y034680D01*
X006430Y034680D01*
X006180Y034430D01*
X005930Y034680D01*
X005430Y034680D01*
X005180Y034430D01*
X004930Y034680D01*
X004430Y034680D01*
X004180Y034430D01*
X003930Y034680D01*
X003430Y034680D01*
X003180Y034430D01*
X003180Y032930D01*
X003430Y032680D01*
X003930Y032680D01*
X004180Y032930D01*
X004430Y032680D01*
X004930Y032680D01*
X005180Y032930D01*
X005430Y032680D01*
X005930Y032680D01*
X006180Y032930D01*
X006430Y032680D01*
X006930Y032680D01*
X007180Y032930D01*
X007430Y032680D01*
X007930Y032680D01*
X008180Y032930D01*
X008430Y032680D01*
X008930Y032680D01*
X009180Y032930D01*
X009430Y032680D01*
X009930Y032680D01*
X010180Y032930D01*
X010430Y032680D01*
X010930Y032680D01*
X011180Y032930D01*
X011430Y032680D01*
X011930Y032680D01*
X012180Y032930D01*
X012430Y032680D01*
X012930Y032680D01*
X013180Y032930D01*
X013430Y032680D01*
X013930Y032680D01*
X014180Y032930D01*
X014430Y032680D01*
X014930Y032680D01*
X015180Y032930D01*
X015430Y032680D01*
X015930Y032680D01*
X016180Y032930D01*
X016430Y032680D01*
X016930Y032680D01*
X017180Y032930D01*
X017430Y032680D01*
X017930Y032680D01*
X018180Y032930D01*
X018430Y032680D01*
X018930Y032680D01*
X019180Y032930D01*
X019430Y032680D01*
X019930Y032680D01*
X020180Y032930D01*
X020430Y032680D01*
X020930Y032680D01*
X021180Y032930D01*
X021430Y032680D01*
X021930Y032680D01*
X022180Y032930D01*
X022430Y032680D01*
X022930Y032680D01*
X023180Y032930D01*
X012680Y029830D02*
X012680Y029780D01*
X012680Y029580D02*
X012680Y029530D01*
X011680Y029830D02*
X011680Y027530D01*
X001680Y027530D01*
X001680Y028280D01*
X001719Y028282D01*
X001758Y028288D01*
X001796Y028297D01*
X001833Y028310D01*
X001869Y028327D01*
X001902Y028347D01*
X001934Y028371D01*
X001963Y028397D01*
X001989Y028426D01*
X002013Y028458D01*
X002033Y028491D01*
X002050Y028527D01*
X002063Y028564D01*
X002072Y028602D01*
X002078Y028641D01*
X002080Y028680D01*
X002078Y028719D01*
X002072Y028758D01*
X002063Y028796D01*
X002050Y028833D01*
X002033Y028869D01*
X002013Y028902D01*
X001989Y028934D01*
X001963Y028963D01*
X001934Y028989D01*
X001902Y029013D01*
X001869Y029033D01*
X001833Y029050D01*
X001796Y029063D01*
X001758Y029072D01*
X001719Y029078D01*
X001680Y029080D01*
X001680Y029830D01*
X011680Y029830D01*
X011680Y023830D02*
X011680Y021530D01*
X001680Y021530D01*
X001680Y022280D01*
X001719Y022282D01*
X001758Y022288D01*
X001796Y022297D01*
X001833Y022310D01*
X001869Y022327D01*
X001902Y022347D01*
X001934Y022371D01*
X001963Y022397D01*
X001989Y022426D01*
X002013Y022458D01*
X002033Y022491D01*
X002050Y022527D01*
X002063Y022564D01*
X002072Y022602D01*
X002078Y022641D01*
X002080Y022680D01*
X002078Y022719D01*
X002072Y022758D01*
X002063Y022796D01*
X002050Y022833D01*
X002033Y022869D01*
X002013Y022902D01*
X001989Y022934D01*
X001963Y022963D01*
X001934Y022989D01*
X001902Y023013D01*
X001869Y023033D01*
X001833Y023050D01*
X001796Y023063D01*
X001758Y023072D01*
X001719Y023078D01*
X001680Y023080D01*
X001680Y023830D01*
X011680Y023830D01*
X012680Y023830D02*
X012680Y023780D01*
X012680Y023580D02*
X012680Y023530D01*
X014280Y019630D02*
X015080Y019630D01*
X015097Y019628D01*
X015114Y019624D01*
X015130Y019617D01*
X015144Y019607D01*
X015157Y019594D01*
X015167Y019580D01*
X015174Y019564D01*
X015178Y019547D01*
X015180Y019530D01*
X015180Y017830D01*
X015178Y017813D01*
X015174Y017796D01*
X015167Y017780D01*
X015157Y017766D01*
X015144Y017753D01*
X015130Y017743D01*
X015114Y017736D01*
X015097Y017732D01*
X015080Y017730D01*
X014280Y017730D01*
X014263Y017732D01*
X014246Y017736D01*
X014230Y017743D01*
X014216Y017753D01*
X014203Y017766D01*
X014193Y017780D01*
X014186Y017796D01*
X014182Y017813D01*
X014180Y017830D01*
X014180Y019530D01*
X014182Y019547D01*
X014186Y019564D01*
X014193Y019580D01*
X014203Y019594D01*
X014216Y019607D01*
X014230Y019617D01*
X014246Y019624D01*
X014263Y019628D01*
X014280Y019630D01*
X014680Y018830D02*
X014680Y018780D01*
X014680Y018580D02*
X014680Y018530D01*
X012680Y018830D02*
X012680Y016530D01*
X005680Y016530D01*
X005680Y017280D01*
X005719Y017282D01*
X005758Y017288D01*
X005796Y017297D01*
X005833Y017310D01*
X005869Y017327D01*
X005902Y017347D01*
X005934Y017371D01*
X005963Y017397D01*
X005989Y017426D01*
X006013Y017458D01*
X006033Y017491D01*
X006050Y017527D01*
X006063Y017564D01*
X006072Y017602D01*
X006078Y017641D01*
X006080Y017680D01*
X006078Y017719D01*
X006072Y017758D01*
X006063Y017796D01*
X006050Y017833D01*
X006033Y017869D01*
X006013Y017902D01*
X005989Y017934D01*
X005963Y017963D01*
X005934Y017989D01*
X005902Y018013D01*
X005869Y018033D01*
X005833Y018050D01*
X005796Y018063D01*
X005758Y018072D01*
X005719Y018078D01*
X005680Y018080D01*
X005680Y018830D01*
X012680Y018830D01*
X005680Y019530D02*
X005680Y017830D01*
X005678Y017813D01*
X005674Y017796D01*
X005667Y017780D01*
X005657Y017766D01*
X005644Y017753D01*
X005630Y017743D01*
X005614Y017736D01*
X005597Y017732D01*
X005580Y017730D01*
X004780Y017730D01*
X004763Y017732D01*
X004746Y017736D01*
X004730Y017743D01*
X004716Y017753D01*
X004703Y017766D01*
X004693Y017780D01*
X004686Y017796D01*
X004682Y017813D01*
X004680Y017830D01*
X004680Y019530D01*
X004682Y019547D01*
X004686Y019564D01*
X004693Y019580D01*
X004703Y019594D01*
X004716Y019607D01*
X004730Y019617D01*
X004746Y019624D01*
X004763Y019628D01*
X004780Y019630D01*
X005580Y019630D01*
X005597Y019628D01*
X005614Y019624D01*
X005630Y019617D01*
X005644Y019607D01*
X005657Y019594D01*
X005667Y019580D01*
X005674Y019564D01*
X005678Y019547D01*
X005680Y019530D01*
X005180Y018830D02*
X005180Y018780D01*
X005180Y018580D02*
X005180Y018530D01*
X001580Y022730D02*
X000780Y022730D01*
X000763Y022732D01*
X000746Y022736D01*
X000730Y022743D01*
X000716Y022753D01*
X000703Y022766D01*
X000693Y022780D01*
X000686Y022796D01*
X000682Y022813D01*
X000680Y022830D01*
X000680Y024530D01*
X000682Y024547D01*
X000686Y024564D01*
X000693Y024580D01*
X000703Y024594D01*
X000716Y024607D01*
X000730Y024617D01*
X000746Y024624D01*
X000763Y024628D01*
X000780Y024630D01*
X001580Y024630D01*
X001597Y024628D01*
X001614Y024624D01*
X001630Y024617D01*
X001644Y024607D01*
X001657Y024594D01*
X001667Y024580D01*
X001674Y024564D01*
X001678Y024547D01*
X001680Y024530D01*
X001680Y022830D01*
X001678Y022813D01*
X001674Y022796D01*
X001667Y022780D01*
X001657Y022766D01*
X001644Y022753D01*
X001630Y022743D01*
X001614Y022736D01*
X001597Y022732D01*
X001580Y022730D01*
X001180Y023530D02*
X001180Y023580D01*
X001180Y023780D02*
X001180Y023830D01*
X001580Y028730D02*
X000780Y028730D01*
X000763Y028732D01*
X000746Y028736D01*
X000730Y028743D01*
X000716Y028753D01*
X000703Y028766D01*
X000693Y028780D01*
X000686Y028796D01*
X000682Y028813D01*
X000680Y028830D01*
X000680Y030530D01*
X000682Y030547D01*
X000686Y030564D01*
X000693Y030580D01*
X000703Y030594D01*
X000716Y030607D01*
X000730Y030617D01*
X000746Y030624D01*
X000763Y030628D01*
X000780Y030630D01*
X001580Y030630D01*
X001597Y030628D01*
X001614Y030624D01*
X001630Y030617D01*
X001644Y030607D01*
X001657Y030594D01*
X001667Y030580D01*
X001674Y030564D01*
X001678Y030547D01*
X001680Y030530D01*
X001680Y028830D01*
X001678Y028813D01*
X001674Y028796D01*
X001667Y028780D01*
X001657Y028766D01*
X001644Y028753D01*
X001630Y028743D01*
X001614Y028736D01*
X001597Y028732D01*
X001580Y028730D01*
X001180Y029530D02*
X001180Y029580D01*
X001180Y029780D02*
X001180Y029830D01*
X003880Y013330D02*
X004480Y013330D01*
X004497Y013328D01*
X004514Y013324D01*
X004530Y013317D01*
X004544Y013307D01*
X004557Y013294D01*
X004567Y013280D01*
X004574Y013264D01*
X004578Y013247D01*
X004580Y013230D01*
X004580Y012130D01*
X004578Y012113D01*
X004574Y012096D01*
X004567Y012080D01*
X004557Y012066D01*
X004544Y012053D01*
X004530Y012043D01*
X004514Y012036D01*
X004497Y012032D01*
X004480Y012030D01*
X003880Y012030D01*
X003863Y012032D01*
X003846Y012036D01*
X003830Y012043D01*
X003816Y012053D01*
X003803Y012066D01*
X003793Y012080D01*
X003786Y012096D01*
X003782Y012113D01*
X003780Y012130D01*
X003780Y013230D01*
X003782Y013247D01*
X003786Y013264D01*
X003793Y013280D01*
X003803Y013294D01*
X003816Y013307D01*
X003830Y013317D01*
X003846Y013324D01*
X003863Y013328D01*
X003880Y013330D01*
X001930Y010180D02*
X001430Y010180D01*
X001180Y009930D01*
X001180Y009430D01*
X001430Y009180D01*
X001180Y008930D01*
X001180Y008430D01*
X001430Y008180D01*
X001180Y007930D01*
X001180Y007430D01*
X001430Y007180D01*
X001930Y007180D01*
X002180Y007430D01*
X002180Y007930D01*
X001930Y008180D01*
X002180Y008430D01*
X002180Y008930D01*
X001930Y009180D01*
X002180Y009430D01*
X002180Y009930D01*
X001930Y010180D01*
X003080Y008530D02*
X007280Y008530D01*
X007310Y008528D01*
X007340Y008523D01*
X007369Y008514D01*
X007396Y008501D01*
X007422Y008486D01*
X007446Y008467D01*
X007467Y008446D01*
X007486Y008422D01*
X007501Y008396D01*
X007514Y008369D01*
X007523Y008340D01*
X007528Y008310D01*
X007530Y008280D01*
X007530Y004080D01*
X007528Y004050D01*
X007523Y004020D01*
X007514Y003991D01*
X007501Y003964D01*
X007486Y003938D01*
X007467Y003914D01*
X007446Y003893D01*
X007422Y003874D01*
X007396Y003859D01*
X007369Y003846D01*
X007340Y003837D01*
X007310Y003832D01*
X007280Y003830D01*
X003080Y003830D01*
X003050Y003832D01*
X003020Y003837D01*
X002991Y003846D01*
X002964Y003859D01*
X002938Y003874D01*
X002914Y003893D01*
X002893Y003914D01*
X002874Y003938D01*
X002859Y003964D01*
X002846Y003991D01*
X002837Y004020D01*
X002832Y004050D01*
X002830Y004080D01*
X002830Y008280D01*
X002832Y008310D01*
X002837Y008340D01*
X002846Y008369D01*
X002859Y008396D01*
X002874Y008422D01*
X002893Y008446D01*
X002914Y008467D01*
X002938Y008486D01*
X002964Y008501D01*
X002991Y008514D01*
X003020Y008523D01*
X003050Y008528D01*
X003080Y008530D01*
X004180Y007680D02*
X004810Y007680D01*
X005550Y007680D02*
X006180Y007680D01*
X007809Y006113D02*
X008450Y006113D01*
X008450Y006326D02*
X008450Y005899D01*
X008343Y005682D02*
X008236Y005682D01*
X008130Y005575D01*
X008130Y005361D01*
X008023Y005255D01*
X007916Y005255D01*
X007809Y005361D01*
X007809Y005575D01*
X007916Y005682D01*
X008023Y005899D02*
X007809Y006113D01*
X007703Y005468D02*
X008557Y005468D01*
X008450Y005361D02*
X008450Y005575D01*
X008343Y005682D01*
X008450Y005361D02*
X008343Y005255D01*
X008343Y005037D02*
X007809Y005037D01*
X007809Y004610D02*
X008343Y004610D01*
X008450Y004717D01*
X008450Y004930D01*
X008343Y005037D01*
X012730Y003080D02*
X012730Y002280D01*
X012732Y002263D01*
X012736Y002246D01*
X012743Y002230D01*
X012753Y002216D01*
X012766Y002203D01*
X012780Y002193D01*
X012796Y002186D01*
X012813Y002182D01*
X012830Y002180D01*
X015530Y002180D01*
X015547Y002182D01*
X015564Y002186D01*
X015580Y002193D01*
X015594Y002203D01*
X015607Y002216D01*
X015617Y002230D01*
X015624Y002246D01*
X015628Y002263D01*
X015630Y002280D01*
X015630Y003080D01*
X015628Y003097D01*
X015624Y003114D01*
X015617Y003130D01*
X015607Y003144D01*
X015594Y003157D01*
X015580Y003167D01*
X015564Y003174D01*
X015547Y003178D01*
X015530Y003180D01*
X012830Y003180D01*
X012813Y003178D01*
X012796Y003174D01*
X012780Y003167D01*
X012766Y003157D01*
X012753Y003144D01*
X012743Y003130D01*
X012736Y003114D01*
X012732Y003097D01*
X012730Y003080D01*
X013580Y002680D02*
X014060Y002680D01*
X014310Y002680D02*
X014780Y002680D01*
X016230Y002280D02*
X016230Y003080D01*
X016232Y003097D01*
X016236Y003114D01*
X016243Y003130D01*
X016253Y003144D01*
X016266Y003157D01*
X016280Y003167D01*
X016296Y003174D01*
X016313Y003178D01*
X016330Y003180D01*
X018030Y003180D01*
X018047Y003178D01*
X018064Y003174D01*
X018080Y003167D01*
X018094Y003157D01*
X018107Y003144D01*
X018117Y003130D01*
X018124Y003114D01*
X018128Y003097D01*
X018130Y003080D01*
X018130Y002280D01*
X018128Y002263D01*
X018124Y002246D01*
X018117Y002230D01*
X018107Y002216D01*
X018094Y002203D01*
X018080Y002193D01*
X018064Y002186D01*
X018047Y002182D01*
X018030Y002180D01*
X016330Y002180D01*
X016313Y002182D01*
X016296Y002186D01*
X016280Y002193D01*
X016266Y002203D01*
X016253Y002216D01*
X016243Y002230D01*
X016236Y002246D01*
X016232Y002263D01*
X016230Y002280D01*
X017030Y002680D02*
X017080Y002680D01*
X017280Y002680D02*
X017330Y002680D01*
X002180Y004330D02*
X002180Y006030D01*
X002178Y006047D01*
X002174Y006064D01*
X002167Y006080D01*
X002157Y006094D01*
X002144Y006107D01*
X002130Y006117D01*
X002114Y006124D01*
X002097Y006128D01*
X002080Y006130D01*
X001280Y006130D01*
X001263Y006128D01*
X001246Y006124D01*
X001230Y006117D01*
X001216Y006107D01*
X001203Y006094D01*
X001193Y006080D01*
X001186Y006064D01*
X001182Y006047D01*
X001180Y006030D01*
X001180Y004330D01*
X001182Y004313D01*
X001186Y004296D01*
X001193Y004280D01*
X001203Y004266D01*
X001216Y004253D01*
X001230Y004243D01*
X001246Y004236D01*
X001263Y004232D01*
X001280Y004230D01*
X002080Y004230D01*
X002097Y004232D01*
X002114Y004236D01*
X002130Y004243D01*
X002144Y004253D01*
X002157Y004266D01*
X002167Y004280D01*
X002174Y004296D01*
X002178Y004313D01*
X002180Y004330D01*
X001680Y005030D02*
X001680Y005080D01*
X001680Y005280D02*
X001680Y005330D01*
D12*
X004105Y004255D02*
X004255Y004405D01*
X004255Y003955D01*
X004105Y003955D02*
X004405Y003955D01*
X004426Y008995D02*
X004126Y008995D01*
X004276Y008995D02*
X004276Y009445D01*
X004126Y009295D01*
X003966Y009220D02*
X003966Y009070D01*
X003891Y008995D01*
X003740Y008995D01*
X003665Y009070D01*
X003665Y009370D01*
X003740Y009445D01*
X003891Y009445D01*
X003966Y009370D01*
X003966Y009220D02*
X003816Y009220D01*
X003505Y009070D02*
X003430Y008995D01*
X003280Y008995D01*
X003205Y009070D01*
X003205Y009370D01*
X003280Y009445D01*
X003430Y009445D01*
X003505Y009370D01*
X003505Y009070D01*
X003505Y008995D02*
X003355Y009145D01*
X002805Y009049D02*
X002805Y008899D01*
X002730Y008824D01*
X002580Y008899D02*
X002580Y009049D01*
X002655Y009124D01*
X002730Y009124D01*
X002805Y009049D01*
X002580Y008899D02*
X002505Y008824D01*
X002430Y008824D01*
X002355Y008899D01*
X002355Y009049D01*
X002430Y009124D01*
X002355Y009284D02*
X002655Y009284D01*
X002805Y009434D01*
X002655Y009584D01*
X002355Y009584D01*
X002505Y009745D02*
X002355Y009895D01*
X002805Y009895D01*
X002805Y009745D02*
X002805Y010045D01*
X001905Y010245D02*
X001905Y010545D01*
X001905Y010395D02*
X001455Y010395D01*
X001605Y010245D01*
X000670Y011180D02*
X000670Y012180D01*
X000580Y012180D01*
X000580Y014180D01*
X000670Y014180D01*
X000670Y015180D01*
X003270Y015180D01*
X003270Y011180D01*
X000670Y011180D01*
X000670Y012180D02*
X000670Y014180D01*
X003255Y013126D02*
X003405Y012976D01*
X003255Y013126D02*
X003705Y013126D01*
X003705Y012976D02*
X003705Y013276D01*
X003630Y012741D02*
X003255Y012741D01*
X003255Y012666D02*
X003255Y012816D01*
X003630Y012741D02*
X003705Y012666D01*
X003705Y012590D01*
X003630Y012515D01*
X003630Y012355D02*
X003705Y012280D01*
X003705Y012130D01*
X003630Y012055D01*
X003480Y012130D02*
X003480Y012280D01*
X003555Y012355D01*
X003630Y012355D01*
X003480Y012130D02*
X003405Y012055D01*
X003330Y012055D01*
X003255Y012130D01*
X003255Y012280D01*
X003330Y012355D01*
X005055Y016505D02*
X005055Y016655D01*
X005055Y016580D02*
X005505Y016580D01*
X005505Y016505D02*
X005505Y016655D01*
X005430Y016812D02*
X005130Y016812D01*
X005055Y016887D01*
X005055Y017037D01*
X005130Y017112D01*
X005280Y017272D02*
X005130Y017422D01*
X005055Y017573D01*
X005280Y017498D02*
X005280Y017272D01*
X005430Y017272D01*
X005505Y017347D01*
X005505Y017498D01*
X005430Y017573D01*
X005355Y017573D01*
X005280Y017498D01*
X005430Y017112D02*
X005505Y017037D01*
X005505Y016887D01*
X005430Y016812D01*
X014555Y016705D02*
X014555Y016555D01*
X014555Y016630D02*
X015005Y016630D01*
X015005Y016555D02*
X015005Y016705D01*
X014930Y016862D02*
X015005Y016937D01*
X015005Y017087D01*
X014930Y017162D01*
X014930Y017322D02*
X015005Y017397D01*
X015005Y017548D01*
X014930Y017623D01*
X014780Y017623D01*
X014705Y017548D01*
X014705Y017472D01*
X014780Y017322D01*
X014555Y017322D01*
X014555Y017623D01*
X014630Y017162D02*
X014555Y017087D01*
X014555Y016937D01*
X014630Y016862D01*
X014930Y016862D01*
X026305Y014732D02*
X026418Y014845D01*
X026418Y014505D01*
X026305Y014505D02*
X026532Y014505D01*
X026705Y014155D02*
X026930Y014155D01*
X027005Y014080D01*
X027005Y013930D01*
X026930Y013855D01*
X026705Y013855D01*
X026705Y013705D02*
X026705Y014155D01*
X026855Y013855D02*
X027005Y013705D01*
X027165Y013705D02*
X027165Y014155D01*
X027466Y013705D01*
X027466Y014155D01*
X027626Y014005D02*
X027776Y014155D01*
X027776Y013705D01*
X027626Y013705D02*
X027926Y013705D01*
X036405Y013516D02*
X036555Y013365D01*
X036480Y013205D02*
X036405Y013130D01*
X036405Y012980D01*
X036480Y012905D01*
X036780Y012905D01*
X036855Y012980D01*
X036855Y013130D01*
X036780Y013205D01*
X036855Y013365D02*
X036855Y013666D01*
X036855Y013516D02*
X036405Y013516D01*
X036480Y013826D02*
X036405Y013901D01*
X036405Y014051D01*
X036480Y014126D01*
X036555Y014126D01*
X036855Y013826D01*
X036855Y014126D01*
X034145Y002445D02*
X034145Y001995D01*
X033995Y001995D02*
X034295Y001995D01*
X033995Y002295D02*
X034145Y002445D01*
X033834Y002370D02*
X033834Y002070D01*
X033759Y001995D01*
X033534Y001995D01*
X033534Y002445D01*
X033759Y002445D01*
X033834Y002370D01*
X033374Y002445D02*
X033074Y002445D01*
X033074Y001995D01*
X033374Y001995D01*
X033224Y002220D02*
X033074Y002220D01*
X032914Y001995D02*
X032613Y001995D01*
X032613Y002445D01*
X019926Y002080D02*
X019926Y002005D01*
X019851Y001930D01*
X019926Y001855D01*
X019926Y001780D01*
X019851Y001705D01*
X019701Y001705D01*
X019626Y001780D01*
X019466Y001705D02*
X019466Y002155D01*
X019626Y002080D02*
X019701Y002155D01*
X019851Y002155D01*
X019926Y002080D01*
X019851Y001930D02*
X019776Y001930D01*
X019466Y001705D02*
X019165Y002155D01*
X019165Y001705D01*
X019005Y001705D02*
X018855Y001855D01*
X018930Y001855D02*
X018705Y001855D01*
X018705Y001705D02*
X018705Y002155D01*
X018930Y002155D01*
X019005Y002080D01*
X019005Y001930D01*
X018930Y001855D01*
X018532Y002505D02*
X018305Y002505D01*
X018418Y002505D02*
X018418Y002845D01*
X018305Y002732D01*
X012576Y002930D02*
X012501Y002855D01*
X012351Y002855D01*
X012276Y002930D01*
X012116Y002855D02*
X011815Y002855D01*
X011966Y002855D02*
X011966Y003305D01*
X011815Y003155D01*
X011655Y003230D02*
X011580Y003305D01*
X011430Y003305D01*
X011355Y003230D01*
X011355Y002930D01*
X011430Y002855D01*
X011580Y002855D01*
X011655Y002930D01*
X012276Y003230D02*
X012351Y003305D01*
X012501Y003305D01*
X012576Y003230D01*
X012576Y003155D01*
X012501Y003080D01*
X012576Y003005D01*
X012576Y002930D01*
X012501Y003080D02*
X012426Y003080D01*
X003805Y032055D02*
X003505Y032055D01*
X003655Y032055D02*
X003655Y032505D01*
X003505Y032355D01*
X003430Y034855D02*
X003280Y034855D01*
X003205Y034930D01*
X003280Y035080D02*
X003205Y035155D01*
X003205Y035230D01*
X003280Y035305D01*
X003430Y035305D01*
X003505Y035230D01*
X003430Y035080D02*
X003505Y035005D01*
X003505Y034930D01*
X003430Y034855D01*
X003430Y035080D02*
X003280Y035080D01*
X003665Y035005D02*
X003816Y034855D01*
X003966Y035005D01*
X003966Y035305D01*
X004126Y035230D02*
X004201Y035305D01*
X004351Y035305D01*
X004426Y035230D01*
X004426Y035155D01*
X004351Y035080D01*
X004426Y035005D01*
X004426Y034930D01*
X004351Y034855D01*
X004201Y034855D01*
X004126Y034930D01*
X004276Y035080D02*
X004351Y035080D01*
X003665Y035005D02*
X003665Y035305D01*
X022205Y035080D02*
X022505Y035080D01*
X022665Y034930D02*
X022740Y034855D01*
X022891Y034855D01*
X022966Y034930D01*
X022966Y035230D01*
X022665Y034930D01*
X022665Y035230D01*
X022740Y035305D01*
X022891Y035305D01*
X022966Y035230D01*
X023205Y034980D02*
X023280Y034905D01*
X023355Y034905D01*
X023430Y034980D01*
X023430Y035355D01*
X023355Y035355D02*
X023505Y035355D01*
X023665Y035355D02*
X023891Y035355D01*
X023966Y035280D01*
X023966Y035130D01*
X023891Y035055D01*
X023665Y035055D01*
X023665Y034905D02*
X023665Y035355D01*
X024126Y035280D02*
X024201Y035355D01*
X024351Y035355D01*
X024426Y035280D01*
X024426Y035205D01*
X024351Y035130D01*
X024426Y035055D01*
X024426Y034980D01*
X024351Y034905D01*
X024201Y034905D01*
X024126Y034980D01*
X024276Y035130D02*
X024351Y035130D01*
X025205Y035155D02*
X025280Y035080D01*
X025430Y035080D01*
X025505Y035005D01*
X025505Y034930D01*
X025430Y034855D01*
X025280Y034855D01*
X025205Y034930D01*
X025205Y035155D02*
X025205Y035230D01*
X025280Y035305D01*
X025430Y035305D01*
X025505Y035230D01*
X025665Y035305D02*
X025665Y035005D01*
X025816Y034855D01*
X025966Y035005D01*
X025966Y035305D01*
X026126Y035080D02*
X026426Y035080D01*
X026351Y034855D02*
X026351Y035305D01*
X026126Y035080D01*
X025705Y032505D02*
X025705Y032055D01*
X025555Y032055D02*
X025855Y032055D01*
X025555Y032355D02*
X025705Y032505D01*
X024805Y032430D02*
X024805Y032355D01*
X024505Y032055D01*
X024805Y032055D01*
X024805Y032430D02*
X024730Y032505D01*
X024580Y032505D01*
X024505Y032430D01*
X023805Y032055D02*
X023505Y032055D01*
X023655Y032055D02*
X023655Y032505D01*
X023505Y032355D01*
X022430Y034855D02*
X022430Y035305D01*
X022205Y035080D01*
X036205Y035230D02*
X036280Y035305D01*
X036430Y035305D01*
X036505Y035230D01*
X036505Y035155D01*
X036205Y034855D01*
X036505Y034855D01*
X036665Y035080D02*
X036966Y035080D01*
X036891Y034855D02*
X036891Y035305D01*
X036665Y035080D01*
D13*
X002580Y008280D02*
X002580Y003580D01*
X007280Y003580D01*
X007324Y003582D01*
X007367Y003588D01*
X007409Y003597D01*
X007451Y003610D01*
X007491Y003627D01*
X007530Y003647D01*
X007567Y003670D01*
X007601Y003697D01*
X007634Y003726D01*
X007663Y003759D01*
X007690Y003793D01*
X007713Y003830D01*
X007733Y003869D01*
X007750Y003909D01*
X007763Y003951D01*
X007772Y003993D01*
X007778Y004036D01*
X007780Y004080D01*
X007780Y008280D01*
X007778Y008324D01*
X007772Y008367D01*
X007763Y008409D01*
X007750Y008451D01*
X007733Y008491D01*
X007713Y008530D01*
X007690Y008567D01*
X007663Y008601D01*
X007634Y008634D01*
X007601Y008663D01*
X007567Y008690D01*
X007530Y008713D01*
X007491Y008733D01*
X007451Y008750D01*
X007409Y008763D01*
X007367Y008772D01*
X007324Y008778D01*
X007280Y008780D01*
X003080Y008780D01*
X003036Y008778D01*
X002993Y008772D01*
X002951Y008763D01*
X002909Y008750D01*
X002869Y008733D01*
X002830Y008713D01*
X002793Y008690D01*
X002759Y008663D01*
X002726Y008634D01*
X002697Y008601D01*
X002670Y008567D01*
X002647Y008530D01*
X002627Y008491D01*
X002610Y008451D01*
X002597Y008409D01*
X002588Y008367D01*
X002582Y008324D01*
X002580Y008280D01*
X001980Y005280D02*
X001680Y005280D01*
X001380Y005280D01*
X001380Y005080D02*
X001680Y005080D01*
X001980Y005080D01*
X004880Y018580D02*
X005180Y018580D01*
X005480Y018580D01*
X005480Y018780D02*
X005180Y018780D01*
X004880Y018780D01*
X001480Y023580D02*
X001180Y023580D01*
X000880Y023580D01*
X000880Y023780D02*
X001180Y023780D01*
X001480Y023780D01*
X001480Y029580D02*
X001180Y029580D01*
X000880Y029580D01*
X000880Y029780D02*
X001180Y029780D01*
X001480Y029780D01*
X012380Y029780D02*
X012680Y029780D01*
X012980Y029780D01*
X012980Y029580D02*
X012680Y029580D01*
X012380Y029580D01*
X012380Y023780D02*
X012680Y023780D01*
X012980Y023780D01*
X012980Y023580D02*
X012680Y023580D01*
X012380Y023580D01*
X014380Y018780D02*
X014680Y018780D01*
X014980Y018780D01*
X014980Y018580D02*
X014680Y018580D01*
X014380Y018580D01*
X025880Y018580D02*
X026180Y018580D01*
X026480Y018580D01*
X026480Y018780D02*
X026180Y018780D01*
X025880Y018780D01*
X027380Y023580D02*
X027680Y023580D01*
X027980Y023580D01*
X027980Y023780D02*
X027680Y023780D01*
X027380Y023780D01*
X025980Y030080D02*
X025680Y030080D01*
X025380Y030080D01*
X025380Y030280D02*
X025680Y030280D01*
X025980Y030280D01*
X017280Y002980D02*
X017280Y002680D01*
X017280Y002380D01*
X017080Y002380D02*
X017080Y002680D01*
X017080Y002980D01*
X034680Y003430D02*
X034723Y003484D01*
X034769Y003536D01*
X034818Y003585D01*
X034870Y003632D01*
X034924Y003675D01*
X034980Y003716D01*
X035039Y003753D01*
X035099Y003787D01*
X035162Y003817D01*
X035225Y003844D01*
X035291Y003868D01*
X035357Y003888D01*
X035425Y003904D01*
X035493Y003916D01*
X035562Y003924D01*
X035631Y003929D01*
X035701Y003930D01*
X035770Y003927D01*
X035839Y003920D01*
X035907Y003909D01*
X035975Y003895D01*
X036042Y003876D01*
X036108Y003854D01*
X036173Y003829D01*
X036236Y003800D01*
X036297Y003767D01*
X036356Y003731D01*
X036413Y003692D01*
X036469Y003650D01*
X036521Y003605D01*
X036571Y003557D01*
X036618Y003506D01*
X036663Y003452D01*
X036704Y003397D01*
X036742Y003339D01*
X036777Y003279D01*
X036809Y003217D01*
X036837Y003154D01*
X036861Y003089D01*
X036882Y003023D01*
X036899Y002955D01*
X036913Y002887D01*
X036922Y002818D01*
X036928Y002749D01*
X036930Y002680D01*
X036928Y002611D01*
X036922Y002542D01*
X036913Y002473D01*
X036899Y002405D01*
X036882Y002337D01*
X036861Y002271D01*
X036837Y002206D01*
X036809Y002143D01*
X036777Y002081D01*
X036742Y002021D01*
X036704Y001963D01*
X036663Y001908D01*
X036618Y001854D01*
X036571Y001803D01*
X036521Y001755D01*
X036469Y001710D01*
X036413Y001668D01*
X036356Y001629D01*
X036297Y001593D01*
X036236Y001560D01*
X036173Y001531D01*
X036108Y001506D01*
X036042Y001484D01*
X035975Y001465D01*
X035907Y001451D01*
X035839Y001440D01*
X035770Y001433D01*
X035701Y001430D01*
X035631Y001431D01*
X035562Y001436D01*
X035493Y001444D01*
X035425Y001456D01*
X035357Y001472D01*
X035291Y001492D01*
X035225Y001516D01*
X035162Y001543D01*
X035099Y001573D01*
X035039Y001607D01*
X034980Y001644D01*
X034924Y001685D01*
X034870Y001728D01*
X034818Y001775D01*
X034769Y001824D01*
X034723Y001876D01*
X034680Y001930D01*
D14*
X014310Y002430D02*
X014310Y002680D01*
X014310Y002930D01*
X014060Y002930D02*
X014060Y002680D01*
X014060Y002430D01*
X005550Y007180D02*
X005550Y007680D01*
X005550Y008180D01*
X005300Y008180D02*
X005050Y008180D01*
X005050Y007180D01*
X005300Y007180D01*
X005300Y008180D01*
X004810Y008180D02*
X004810Y007680D01*
X004810Y007180D01*
D15*
X027389Y017520D02*
X028230Y017520D01*
X028125Y017625D02*
X028020Y017730D01*
X027915Y017730D01*
X027810Y017625D01*
X027810Y017415D01*
X027705Y017310D01*
X027600Y017310D01*
X027494Y017415D01*
X027494Y017625D01*
X027600Y017730D01*
X027600Y017954D02*
X027494Y018059D01*
X027494Y018269D01*
X027600Y018374D01*
X027705Y018374D01*
X027810Y018269D01*
X027915Y018374D01*
X028020Y018374D01*
X028125Y018269D01*
X028125Y018059D01*
X028020Y017954D01*
X027810Y018164D02*
X027810Y018269D01*
X028125Y017625D02*
X028125Y017415D01*
X028020Y017310D01*
X028020Y017085D02*
X027494Y017085D01*
X027494Y016665D02*
X028020Y016665D01*
X028125Y016770D01*
X028125Y016980D01*
X028020Y017085D01*
X027520Y028165D02*
X026994Y028165D01*
X026994Y028585D02*
X027520Y028585D01*
X027625Y028480D01*
X027625Y028270D01*
X027520Y028165D01*
X027520Y028810D02*
X027625Y028915D01*
X027625Y029125D01*
X027520Y029230D01*
X027415Y029230D01*
X027310Y029125D01*
X027310Y028915D01*
X027205Y028810D01*
X027100Y028810D01*
X026994Y028915D01*
X026994Y029125D01*
X027100Y029230D01*
X027100Y029454D02*
X026994Y029559D01*
X026994Y029769D01*
X027100Y029874D01*
X027205Y029874D01*
X027625Y029454D01*
X027625Y029874D01*
X027730Y029020D02*
X026889Y029020D01*
D16*
X034145Y008873D02*
X034774Y008873D01*
X034145Y008873D02*
X034145Y008243D01*
X034145Y006117D02*
X034145Y005487D01*
X039774Y005487D01*
X039774Y008873D01*
X036645Y008873D01*
X034680Y003430D02*
X034680Y001930D01*
D17*
X032755Y002680D03*
X030605Y002680D03*
M02*
