%
M48
M72
T01C0.0240
T02C0.0320
T03C0.0360
T04C0.0400
T05C0.0550
T06C0.1050
T07C0.1250
%
T01
X9430Y8618
X11555Y6993
X9493Y10993
X8993Y11743
X9743Y12368
X11430Y13743
X11868Y13305
X12368Y13305
X12368Y14180
X13118Y12305
X15118Y11368
X15118Y14055
X14430Y14805
X13493Y16430
X14055Y17055
X12368Y18180
X11243Y17805
X11243Y17243
X11618Y19805
X12243Y21493
X13118Y22055
X13243Y25243
X12743Y27930
X13493Y28243
X11868Y28993
X10118Y28555
X8930Y29305
X8555Y28930
X9555Y31243
X11618Y31243
X12243Y31680
X12930Y32368
X14743Y31993
X15555Y32305
X16493Y32368
X19118Y32618
X20055Y32180
X21618Y31243
X22493Y31430
X23180Y31368
X23930Y32118
X24180Y32555
X24680Y29680
X23555Y29368
X25618Y28618
X26118Y28618
X25805Y26618
X26555Y26618
X24680Y25680
X23555Y26430
X21305Y27868
X20055Y28993
X19055Y26493
X16743Y25243
X19618Y23118
X21243Y23493
X23493Y21118
X24680Y21868
X25430Y22118
X26930Y21493
X27618Y24805
X28805Y25493
X28930Y26618
X29305Y26993
X30180Y24743
X32055Y26430
X32430Y25743
X33118Y25868
X35118Y28305
X33118Y28618
X36680Y25680
X39243Y25180
X34493Y22618
X34118Y22993
X33118Y23430
X31868Y22305
X34993Y20118
X34555Y18493
X33180Y16993
X32180Y13868
X31805Y12430
X30993Y12118
X30118Y11180
X29805Y9493
X30993Y9180
X32743Y8368
X33680Y10493
X35993Y13118
X37743Y15118
X38618Y13493
X38993Y11805
X37305Y9368
X31993Y6055
X26993Y6993
X24680Y6993
X21118Y8055
X18930Y8430
X17993Y6618
X17993Y6118
X16243Y2243
X23993Y10993
X21618Y12118
X17680Y15180
X19868Y17243
X18118Y20180
X23618Y16868
X25055Y17055
X27118Y18118
X27305Y13305
X36618Y18118
X37930Y29868
X38680Y30493
X38305Y32180
X32118Y32368
X29680Y29868
X16243Y29555
X9118Y25993
X7743Y25993
X7180Y24993
X7368Y23368
X7618Y22805
X8180Y23368
X8493Y22243
X6743Y23180
X3180Y23368
X3680Y26618
X2430Y28118
X3305Y28555
X2743Y29055
X5743Y31618
X6180Y14805
X9368Y14430
T02
X9180Y16180
X8180Y16180
X7180Y16180
X6180Y16180
X5180Y18180
X5180Y19180
X6180Y19180
X7180Y19180
X8180Y19180
X9180Y19180
X10180Y19180
X11180Y19180
X12180Y19180
X11180Y21180
X10180Y21180
X9180Y21180
X8180Y21180
X7180Y21180
X6180Y21180
X5180Y21180
X4180Y21180
X3180Y21180
X2180Y21180
X1180Y23180
X1180Y24180
X2180Y24180
X3180Y24180
X4180Y24180
X5180Y24180
X6180Y24180
X7180Y24180
X8180Y24180
X9180Y24180
X10180Y24180
X11180Y24180
X12680Y24180
X13680Y24180
X14680Y24180
X15680Y24180
X16680Y24180
X17680Y24180
X18680Y24180
X19680Y24180
X20680Y24180
X21680Y24180
X22680Y24180
X22680Y21180
X21680Y21180
X20680Y21180
X19680Y21180
X18680Y21180
X17680Y21180
X16680Y21180
X15680Y21180
X14680Y21180
X13680Y21180
X12680Y23180
X13680Y27180
X14680Y27180
X15680Y27180
X16680Y27180
X17680Y27180
X18680Y27180
X19680Y27180
X20680Y27180
X21680Y27180
X22680Y27180
X25680Y29680
X25680Y30680
X26680Y30680
X27680Y30680
X28680Y30680
X29680Y30680
X30680Y30680
X31680Y30680
X32680Y30680
X33680Y30680
X34680Y30680
X35680Y30680
X36680Y30680
X37680Y30680
X37680Y27680
X36680Y27680
X35680Y27680
X34680Y27680
X33680Y27680
X32680Y27680
X31680Y27680
X30680Y27680
X29680Y27680
X28680Y27680
X27680Y27680
X26680Y27680
X27680Y24180
X27680Y23180
X28680Y24180
X29680Y24180
X30680Y24180
X31680Y24180
X32680Y24180
X33680Y24180
X34680Y24180
X35680Y24180
X36680Y24180
X37680Y24180
X37680Y21180
X36680Y21180
X35680Y21180
X34680Y21180
X33680Y21180
X32680Y21180
X31680Y21180
X30680Y21180
X29680Y21180
X28680Y21180
X28180Y19180
X27180Y19180
X26180Y19180
X26180Y18180
X27180Y16180
X28180Y16180
X29180Y16180
X30180Y16180
X31180Y16180
X32180Y16180
X33180Y16180
X34180Y16180
X35180Y16180
X36180Y16180
X37180Y16180
X38180Y16180
X35180Y14680
X34180Y14680
X33180Y14680
X32180Y14680
X31180Y14680
X30180Y14680
X29180Y14680
X28180Y14680
X27180Y14680
X22680Y16180
X21680Y16180
X20680Y16180
X19680Y16180
X18680Y16180
X17680Y16180
X16680Y16180
X15680Y16180
X14680Y18180
X14680Y19180
X15680Y19180
X16680Y19180
X17680Y19180
X18680Y19180
X19680Y19180
X20680Y19180
X21680Y19180
X22680Y19180
X29180Y19180
X30180Y19180
X31180Y19180
X32180Y19180
X33180Y19180
X34180Y19180
X35180Y19180
X36180Y19180
X37180Y19180
X38180Y19180
X37680Y12180
X37680Y11180
X32180Y10180
X31180Y10180
X30180Y10180
X29180Y10180
X28180Y10180
X27180Y10180
X26180Y10180
X25180Y10180
X24180Y10180
X23180Y10180
X22180Y10180
X21180Y10180
X20180Y10180
X19180Y10180
X18180Y10180
X17180Y10180
X16180Y10180
X15180Y10180
X14180Y10180
X13180Y10180
X12180Y10180
X11180Y10180
X10180Y10180
X9180Y10180
X6680Y7680
X3680Y7680
X1680Y5680
X1680Y4680
X3680Y4680
X6680Y4680
X9180Y4180
X10180Y4180
X11180Y4180
X12180Y4180
X13180Y4180
X14180Y4180
X15180Y4180
X16180Y4180
X17180Y4180
X18180Y4180
X19180Y4180
X20180Y4180
X21180Y4180
X22180Y4180
X23180Y4180
X24180Y4180
X25180Y4180
X26180Y4180
X27180Y4180
X28180Y4180
X29180Y4180
X30180Y4180
X31180Y4180
X32180Y4180
X33180Y2680
X35180Y2680
X36180Y2680
X30180Y2680
X29180Y2680
X28180Y2680
X27180Y2680
X26180Y2680
X25180Y2680
X24180Y2680
X23180Y2680
X22180Y2680
X21180Y2680
X20180Y2680
X19180Y2680
X17680Y2680
X16680Y2680
X15180Y2680
X13180Y2680
X12180Y16180
X11180Y16180
X10180Y16180
X10180Y27180
X11180Y27180
X9180Y27180
X8180Y27180
X7180Y27180
X6180Y27180
X5180Y27180
X4180Y27180
X3180Y27180
X2180Y27180
X1180Y29180
X1180Y30180
X2180Y30180
X3180Y30180
X4180Y30180
X5180Y30180
X6180Y30180
X7180Y30180
X8180Y30180
X9180Y30180
X10180Y30180
X11180Y30180
X12680Y30180
X13680Y30180
X14680Y30180
X15680Y30180
X16680Y30180
X17680Y30180
X18680Y30180
X19680Y30180
X20680Y30180
X21680Y30180
X22680Y30180
X12680Y29180
T03
X23680Y33180
X23680Y34180
X24680Y34180
X24680Y33180
T04
X25680Y33180
X25680Y34180
X26680Y34180
X27680Y34180
X27680Y33180
X26680Y33180
X28680Y33180
X29680Y33180
X29680Y34180
X28680Y34180
X30680Y34180
X31680Y34180
X32680Y34180
X32680Y33180
X31680Y33180
X30680Y33180
X33680Y33180
X34680Y33180
X34680Y34180
X33680Y34180
X35680Y34180
X36680Y34180
X36680Y33180
X35680Y33180
X22680Y33180
X22680Y34180
X21680Y34180
X20680Y34180
X20680Y33180
X21680Y33180
X19680Y33180
X18680Y33180
X18680Y34180
X19680Y34180
X17680Y34180
X16680Y34180
X16680Y33180
X17680Y33180
X15680Y33180
X14680Y33180
X14680Y34180
X15680Y34180
X13680Y34180
X12680Y34180
X12680Y33180
X13680Y33180
X11680Y33180
X10680Y33180
X10680Y34180
X11680Y34180
X9680Y34180
X8680Y34180
X7680Y34180
X7680Y33180
X8680Y33180
X9680Y33180
X6680Y33180
X5680Y33180
X5680Y34180
X6680Y34180
X4680Y34180
X3680Y34180
X3680Y33180
X4680Y33180
X1690Y14065
X1690Y12295
X1680Y9680
X1680Y8680
X1680Y7680
T05
X2670Y11800
X2670Y14560
T06
X35680Y9070
X36861Y7180
T07
X1680Y1680
X34460Y7180
X38680Y1680
X38680Y34680
X1680Y34680
M30
